<?xml version="1.0" encoding="UTF-8" standalone="no"?>
<!-- Created with Inkscape (http://www.inkscape.org/) -->

<svg
   xmlns:dc="http://purl.org/dc/elements/1.1/"
   xmlns:cc="http://creativecommons.org/ns#"
   xmlns:rdf="http://www.w3.org/1999/02/22-rdf-syntax-ns#"
   xmlns:svg="http://www.w3.org/2000/svg"
   xmlns="http://www.w3.org/2000/svg"
   xmlns:sodipodi="http://sodipodi.sourceforge.net/DTD/sodipodi-0.dtd"
   xmlns:inkscape="http://www.inkscape.org/namespaces/inkscape"
   width="200"
   height="200"
   viewBox="0 0 52.916666 52.916668"
   version="1.1"
   id="svg8"
   inkscape:version="0.92.1 r15371"
   sodipodi:docname="cara2.svg">
  <defs
     id="defs2" />
  <sodipodi:namedview
     id="base"
     pagecolor="#ffffff"
     bordercolor="#666666"
     borderopacity="1.0"
     inkscape:pageopacity="0.0"
     inkscape:pageshadow="2"
     inkscape:zoom="3.959798"
     inkscape:cx="50.970961"
     inkscape:cy="75.629753"
     inkscape:document-units="mm"
     inkscape:current-layer="g4535"
     showgrid="false"
     inkscape:window-width="1920"
     inkscape:window-height="1017"
     inkscape:window-x="-8"
     inkscape:window-y="-8"
     inkscape:window-maximized="1"
     units="px" />
  <metadata
     id="metadata5">
    <rdf:RDF>
      <cc:Work
         rdf:about="">
        <dc:format>image/svg+xml</dc:format>
        <dc:type
           rdf:resource="http://purl.org/dc/dcmitype/StillImage" />
        <dc:title></dc:title>
      </cc:Work>
    </rdf:RDF>
  </metadata>
  <g
     inkscape:label="Capa 1"
     inkscape:groupmode="layer"
     id="layer1"
     transform="translate(0,-244.08332)">
    <g
       id="g4535"
       transform="matrix(8.8074971,0,0,8.8074971,-104.0858,-4.9796553)">
      <path
         style="fill:#000000;fill-opacity:0.10552763;stroke:#000000;stroke-width:0.21486327;stroke-linecap:round;stroke-linejoin:miter;stroke-miterlimit:4;stroke-dasharray:none;stroke-opacity:0.48743723"
         d="m 15.444732,30.480942 c 0,0.01869 0,0.03737 0,0.05604 0,0.0036 0.0037,0.0074 0,0.01054 -0.0017,0.0016 -0.01,0.0019 -0.01154,0.0036 -0.0014,0.0013 0,0.02042 0,0.021 0,0.01164 0,0.02335 0,0.03502 0,0.03151 0,0.06302 0,0.09455"
         id="path4572-5"
         inkscape:connector-curvature="0" />
      <path
         style="fill:#000000;stroke:#000000;stroke-width:0.08186879;stroke-linecap:butt;stroke-linejoin:miter;stroke-miterlimit:4;stroke-dasharray:none;stroke-opacity:0.48743719;fill-opacity:0.10552764"
         d="m 14.807967,31.782834 c -0.0021,0 -0.03849,-0.0073 -0.0401,-0.0081 -0.0019,-10e-4 -0.0036,-0.0032 -0.0053,-0.0041 -8.78e-4,-4.27e-4 -0.0018,0 -0.0027,0 -0.0021,0 -0.01167,8.84e-4 -0.01341,0 -0.0019,-0.001 -0.0036,-0.0032 -0.0053,-0.0041 -0.0018,-8.84e-4 -0.01345,0 -0.01609,0 h -0.03486 -0.05633 c -0.0026,0 -0.01432,-8.84e-4 -0.01609,0 -0.0019,0.001 -0.0034,0.0033 -0.0053,0.0041 -0.0018,6.16e-4 -0.0036,-8.85e-4 -0.0053,0 -0.0012,6.16e-4 -0.0016,0.0033 -0.0027,0.0041 -0.0016,0.0012 -0.0037,-0.0012 -0.0053,0 -0.0011,8.84e-4 -0.0016,0.0033 -0.0027,0.0041 -8.11e-4,6.16e-4 -0.0018,-6.17e-4 -0.0027,0 -0.01227,0.0094 0.01139,-0.0017 -0.0081,0.0082 -0.0018,8.84e-4 -0.0036,-8.85e-4 -0.0053,0 -0.01943,0.01 0.0042,-0.0011 -0.0081,0.0082 -0.0028,0.0021 -0.0026,-0.0021 -0.0053,0 -0.0023,0.0017 -0.0032,0.0065 -0.0053,0.0082 -8.11e-4,6.17e-4 -0.0018,-6.16e-4 -0.0027,0 -0.0011,8.84e-4 -0.0016,0.0033 -0.0027,0.0041 -8.11e-4,6.17e-4 -0.0018,-6.16e-4 -0.0027,0 -0.0011,8.85e-4 -0.0018,0.003 -0.0027,0.0041 -0.0018,0.0017 -0.0036,0.0025 -0.0053,0.0041 -0.01092,0.01119 0.0057,-0.003 -0.0053,0.0082 -0.0018,0.0017 -0.0036,0.0032 -0.0053,0.0041 -8.78e-4,4.27e-4 -0.0019,-7.58e-4 -0.0027,0 -0.0021,0.0021 -0.0032,0.0061 -0.0053,0.0082 -8.11e-4,7.58e-4 -0.0018,-6.16e-4 -0.0027,0 -0.0011,8.84e-4 -0.0016,0.0033 -0.0027,0.0041 -8.11e-4,6.17e-4 -0.0018,-6.16e-4 -0.0027,0 -0.0011,8.85e-4 -0.0018,0.0028 -0.0027,0.0041 -8.79e-4,0.0013 -0.0021,0.0025 -0.0027,0.0041 -3.88e-4,0.0012 6.53e-4,0.0032 0,0.0041 -0.01047,0.01607 -0.0016,-10e-4 -0.0081,0.0041 -0.0011,8.84e-4 -0.0016,0.0033 -0.0027,0.0041 -8.1e-4,6.16e-4 -0.002,-0.001 -0.0027,0 -0.0014,0.0019 0.0014,0.0063 0,0.0082 -6.53e-4,0.001 -0.0021,-10e-4 -0.0027,0 -6.53e-4,0.001 0,0.0028 0,0.0041 -0.0018,0 -0.0037,-0.0012 -0.0053,0 -8.11e-4,6.16e-4 3.89e-4,0.0028 0,0.0041 -0.0014,0.0041 -0.0094,0.01241 -0.01073,0.01647 -8.11e-4,0.0025 0.0014,0.0063 0,0.0082 -6.54e-4,0.001 -0.0018,0 -0.0027,0 0,0.0013 3.89e-4,0.0028 0,0.0041 -0.0011,0.0035 -0.0042,0.0047 -0.0053,0.0082 -3.89e-4,0.0012 3.89e-4,0.0028 0,0.0041 -5.59e-4,0.0017 -0.0021,0.0025 -0.0027,0.0041 -0.003,0.0091 -0.0027,0.0095 -0.0027,0.01647 0,0.0028 4.23e-4,0.0056 0,0.0082 -0.0032,0.01989 -0.0014,-2.05e-4 -0.0053,0.01236 -3.9e-4,0.0012 2.82e-4,0.0028 0,0.0041 -6.53e-4,0.003 -0.0021,0.0053 -0.0027,0.0082 -5.58e-4,0.0026 0,0.01316 0,0.01647 v 0.03295 c 0,0.0023 -3.88e-4,0.01941 0,0.02059 5.59e-4,0.0017 0.0021,0.0025 0.0027,0.0041 3.89e-4,0.0012 -6.53e-4,0.0032 0,0.0041 6.52e-4,10e-4 0.0021,-0.001 0.0027,0 6.53e-4,10e-4 -6.52e-4,0.0032 0,0.0041 6.53e-4,0.001 0.0021,-10e-4 0.0027,0 0.0057,0.0085 -0.0084,-3.32e-4 0.0027,0.0082 8.11e-4,6.15e-4 0.0021,-10e-4 0.0027,0 6.52e-4,10e-4 -6.54e-4,0.0032 0,0.0041 6.52e-4,10e-4 0.002,-10e-4 0.0027,0 0.0014,0.0021 0.0014,0.0061 0.0027,0.0082 6.53e-4,10e-4 0.0018,-4.27e-4 0.0027,0 0.0019,10e-4 0.0036,0.0025 0.0053,0.0041 0.0011,0.0011 0.0018,0.003 0.0027,0.0041 0.0018,0.0017 0.0036,0.0028 0.0053,0.0041 0.0018,0.0013 0.0036,0.0032 0.0053,0.0041 0.0018,8.84e-4 0.0036,-8.84e-4 0.0053,0 0.0066,0.0033 0.0072,0.01 0.01341,0.01236 0.0018,6.16e-4 0.0037,-0.0012 0.0053,0 8.11e-4,6.16e-4 -6.52e-4,0.0032 0,0.0041 6.54e-4,10e-4 0.0018,-3.34e-4 0.0027,0 0.0028,10e-4 0.0055,0.0021 0.0081,0.0041 0.0068,0.0052 -0.0028,0.0049 0.0081,0.0082 0.0026,8.22e-4 0.0053,-8.21e-4 0.0081,0 0.0047,0.0015 0.0114,0.01091 0.01609,0.01236 0.0026,8.21e-4 0.0053,-8.21e-4 0.0081,0 0.0019,6.16e-4 0.0034,0.0033 0.0053,0.0041 0.0018,6.17e-4 0.0036,-5.13e-4 0.0053,0 0.0057,0.0017 0.01055,0.0065 0.01609,0.0082 0.0042,0.0013 0.01207,-0.0015 0.01609,0 0.0019,7.58e-4 0.0036,0.003 0.0053,0.0041 0.027,0.01658 -0.0057,-0.0032 0.01341,0.0041 0.0019,7.58e-4 0.0034,0.0033 0.0053,0.0041 0.0036,0.0013 0.0072,-0.0013 0.01073,0 0.0019,7.58e-4 0.0034,0.0033 0.0053,0.0041 0.0018,6.17e-4 0.0036,-6.16e-4 0.0053,0 0.0019,7.58e-4 0.0034,0.0035 0.0053,0.0041 0.0026,8.21e-4 0.0053,-0.001 0.0081,0 0.0012,4.62e-4 0.0016,0.0036 0.0027,0.0041 0.0026,10e-4 0.0053,-0.001 0.0081,0 0.0012,4.62e-4 0.0016,0.0035 0.0027,0.0041 0.0018,8.84e-4 0.0036,-6.16e-4 0.0053,0 0.01245,0.0096 -0.0016,3.49e-4 0.01074,0.0041 0.0057,0.0017 0.01055,0.0065 0.01609,0.0082 0.0018,5.14e-4 0.0036,-5.13e-4 0.0053,0 0.0028,8.84e-4 0.0052,0.0033 0.0081,0.0041 0.0042,0.0013 0.0091,-0.0013 0.01341,0 0.0019,6.16e-4 0.0034,0.0035 0.0053,0.0041 0.0026,8.21e-4 0.0053,-6.16e-4 0.0081,0 0.0055,-0.0015 0.0087,0.0068 0.01341,0.0082 0.0026,8.21e-4 0.0053,0 0.0081,0 h 0.01878 c 0.0018,0 0.0036,-5.14e-4 0.0053,0 0.0028,8.84e-4 0.0052,0.0033 0.0081,0.0041 0.0018,5.14e-4 0.0036,0 0.0053,0 h 0.02146 0.05901 0.05632 0.01609 c 0.0027,0 0.0053,8.21e-4 0.0081,0 0.0019,-6.16e-4 0.0034,-0.0033 0.0053,-0.0041 0.0036,-0.0013 0.0072,0.0011 0.01073,0 0.0028,-8.85e-4 0.0053,-0.003 0.0081,-0.0041 0.0018,-6.16e-4 0.0036,6.16e-4 0.0053,0 0.0028,-0.001 0.0052,-0.0034 0.0081,-0.0041 0.0044,-0.0011 0.0091,0.0017 0.01341,0 0.0019,-7.58e-4 0.0034,-0.0033 0.0053,-0.0041 0.0018,-6.16e-4 0.0036,8.85e-4 0.0053,0 0.0012,-6.16e-4 0.0016,-0.0036 0.0027,-0.0041 h 0.0081 c 8.78e-4,-0.0013 0.0016,-0.0035 0.0027,-0.0041 0.0012,-6.15e-4 0.0095,8.84e-4 0.01073,0 0.01228,-0.0094 -0.01139,0.0017 0.0081,-0.0082 0.0018,-8.84e-4 0.0036,8.85e-4 0.0053,0 0.0019,-10e-4 0.0036,-0.0028 0.0053,-0.0041 0.0026,-0.0019 0.01411,-0.01174 0.01609,-0.01236 0.0026,-8.22e-4 0.0053,10e-4 0.0081,0 0.0012,-4.63e-4 0.0018,-0.003 0.0027,-0.0041 0.0018,-0.0017 0.0036,-0.0025 0.0053,-0.0041 0.0011,-0.0011 0.0018,-0.003 0.0027,-0.0041 0.0062,-0.0063 0.0072,-0.0019 0.01341,-0.0082 0.0021,-0.0021 0.0032,-0.0061 0.0053,-0.0082 0.0018,-0.0017 0.0039,-0.0019 0.0053,-0.0041 0.0057,-0.0085 -0.0084,3.32e-4 0.0027,-0.0082 8.11e-4,-6.17e-4 0.0021,0.001 0.0027,0 0.0014,-0.0021 0.0016,-0.0057 0.0027,-0.0082 7.43e-4,-0.0016 0.0021,-0.0025 0.0027,-0.0041 3.89e-4,-0.0012 -3.88e-4,-0.0028 0,-0.0041 5.6e-4,-0.0017 0.0018,-0.0028 0.0027,-0.0041 0.0027,-0.0042 0.0042,-0.0057 0.0053,-0.01236 0,-0.01875 -0.0014,-2.34e-4 0.0027,-0.01236 8.11e-4,-0.0025 -8.1e-4,-0.0058 0,-0.0082 5.59e-4,-0.0017 0.0021,-0.0025 0.0027,-0.0041 2.36e-4,-6.95e-4 8e-6,-0.02881 0,-0.02883 -3.88e-4,-0.0012 -0.002,10e-4 -0.0027,0 -4.24e-4,-6.16e-4 3.48e-4,-0.01076 0,-0.01236 -6.53e-4,-0.003 -0.002,-0.0053 -0.0027,-0.0082 -2.83e-4,-0.0013 4.94e-4,-0.003 0,-0.0041 -0.0014,-0.003 -0.0096,-0.01308 -0.01073,-0.01647 -3.88e-4,-0.0012 6.52e-4,-0.0032 0,-0.0041 -6.53e-4,-0.001 -0.0018,6.16e-4 -0.0027,0 -0.0011,-8.85e-4 -0.0018,-0.003 -0.0027,-0.0041 -0.0018,-0.0017 -0.0036,-0.0025 -0.0053,-0.0041 -0.0021,-0.0021 -0.0032,-0.0065 -0.0053,-0.0082 -8.11e-4,-6.17e-4 -0.0018,6.16e-4 -0.0027,0 -0.0029,-0.0023 -0.0052,-0.0061 -0.0081,-0.0082 -8.11e-4,-6.16e-4 -0.0021,0.001 -0.0027,0 -0.0014,-0.0021 -0.0014,-0.0061 -0.0027,-0.0082 -0.0068,-0.0104 -0.003,-0.0016 -0.0081,-0.0041 -0.01943,-0.01 0.0042,0.0011 -0.0081,-0.0082 -8.11e-4,-6.16e-4 -0.0018,0 -0.0027,0 -0.0018,-0.0013 -0.0036,-0.0025 -0.0053,-0.0041 -0.0011,-0.0011 -0.0016,-0.0033 -0.0027,-0.0041 -8.11e-4,-6.16e-4 -0.0018,0 -0.0027,0 -8.78e-4,-0.0013 -0.0016,-0.0033 -0.0027,-0.0041 -0.0016,-0.0012 -0.0041,0.0019 -0.0053,0 -6.53e-4,-0.001 6.52e-4,-0.0032 0,-0.0041 -0.01047,-0.01606 -0.0016,0.001 -0.0081,-0.0041 -0.01227,-0.0094 0.01139,0.0017 -0.0081,-0.0082 -8.79e-4,-4.28e-4 -0.0019,7.58e-4 -0.0027,0 -0.0021,-0.0021 -0.0034,-0.0059 -0.0053,-0.0082 -0.0094,-0.0108 -0.0012,7.58e-4 -0.01073,-0.0041 -0.0012,-6.16e-4 -0.0018,-0.0028 -0.0027,-0.0041 -0.0018,-0.0013 -0.0034,-0.0033 -0.0053,-0.0041 -0.0018,-6.16e-4 -0.0036,8.84e-4 -0.0053,0 -0.0012,-6.16e-4 -0.0016,-0.0033 -0.0027,-0.0041 -8.11e-4,-6.17e-4 -0.0018,0 -0.0027,0 -0.0018,-0.0013 -0.0036,-0.0025 -0.0053,-0.0041 -0.0011,-0.0011 -0.0016,-0.0035 -0.0027,-0.0041 -0.0018,-8.84e-4 -0.0036,8.85e-4 -0.0053,0 -0.0012,-6.16e-4 -0.0018,-0.0028 -0.0027,-0.0041 -0.0018,0 -0.0036,8.85e-4 -0.0053,0 -0.0012,-6.16e-4 -0.0018,-0.0028 -0.0027,-0.0041 -0.0018,-0.0013 -0.0034,-0.0033 -0.0053,-0.0041 -0.0018,-6.15e-4 -0.0036,6.16e-4 -0.0053,0 -0.0019,-7.58e-4 -0.0036,-0.003 -0.0053,-0.0041 -0.0026,-0.0016 -0.0053,-0.0025 -0.0081,-0.0041 -0.0018,-0.0011 -0.0034,-0.0033 -0.0053,-0.0041 -0.0036,-0.0013 -0.0072,0.0013 -0.01073,0 -0.0019,-7.58e-4 -0.0036,-0.003 -0.0053,-0.0041 -0.0026,-0.0016 -0.0055,-0.0021 -0.0081,-0.0041 -0.0011,-8.84e-4 -0.0016,-0.0035 -0.0027,-0.0041 -0.0041,-0.0021 -0.0094,0.0021 -0.01341,0 -0.0012,-6.16e-4 -0.0016,-0.0033 -0.0027,-0.0041 -0.0018,-0.0013 -0.009,0.0013 -0.01073,0 -0.0011,-8.85e-4 -0.0016,-0.0033 -0.0027,-0.0041 -8.11e-4,-6.17e-4 -0.0018,6.15e-4 -0.0027,0 -0.0011,-8.85e-4 -0.0016,-0.0035 -0.0027,-0.0041 -0.0034,-0.0017 -0.0072,0.0013 -0.01073,0 -0.0039,-0.0015 -0.007,-0.0063 -0.01074,-0.0082 -8.78e-4,-4.27e-4 -0.0018,3.32e-4 -0.0027,0 -0.0028,-0.001 -0.0052,-0.0034 -0.0081,-0.0041 -0.02045,0 0.0021,0.0019 -0.01341,-0.0041 -0.0018,-6.16e-4 -0.0036,8.85e-4 -0.0053,0 -0.0012,-6.16e-4 -0.0016,-0.0035 -0.0027,-0.0041 -0.0034,-0.0017 -0.0075,0.0025 -0.01073,0 -8.11e-4,-6.16e-4 6.53e-4,-0.0032 0,-0.0041 -6.52e-4,-10e-4 -0.0021,0.001 -0.0027,0 -6.52e-4,-10e-4 6.52e-4,-0.0032 0,-0.0041 -0.0014,-0.0021 -0.0067,0.0021 -0.0081,0 -6.52e-4,-0.001 6.53e-4,-0.0032 0,-0.0041 -6.52e-4,-0.001 -0.0018,4.26e-4 -0.0027,0 -0.0019,-0.001 -0.0036,-0.0032 -0.0053,-0.0041 -0.0018,-8.85e-4 -0.0037,0.0012 -0.0053,0 -0.0011,-8.85e-4 -0.0016,-0.0033 -0.0027,-0.0041 -0.0016,-0.0012 -0.0037,0.0012 -0.0053,0 -0.0011,-8.84e-4 -0.0016,-0.0033 -0.0027,-0.0041 -8.11e-4,-6.16e-4 -0.0068,0 -0.0081,0"
         id="path4604"
         inkscape:connector-curvature="0"
         sodipodi:nodetypes="cccsccscscccccccccccccccccccsccccscsccscsccccccccccsccscssccsssscssssscccccccsccccccccccccccccccccccccccccccssccscccsccccccccccccccsccccccccscscccscccccsccccsccccccssccccccccsccscccccccccccccccccccccccsccccccccccccssscsscccccc" />
      <path
         style="fill:#000000;fill-opacity:0.10552763;stroke:#000000;stroke-width:0.21486327;stroke-linecap:round;stroke-linejoin:miter;stroke-miterlimit:4;stroke-dasharray:none;stroke-opacity:0.48743723"
         d="m 14.228216,30.482916 c 0,0.01869 0,0.03737 0,0.05604 0,0.0036 0.0037,0.0074 0,0.01054 -0.0017,0.0016 -0.01,0.0019 -0.01154,0.0036 -0.0014,0.0013 0,0.02042 0,0.021 0,0.01164 0,0.02335 0,0.03502 0,0.03151 0,0.06302 0,0.09455"
         id="path4572-5-3"
         inkscape:connector-curvature="0" />
    </g>
  </g>
</svg>
