<?xml version="1.0" encoding="UTF-8" standalone="no"?>
<!-- Created with Inkscape (http://www.inkscape.org/) -->

<svg
   xmlns:dc="http://purl.org/dc/elements/1.1/"
   xmlns:cc="http://creativecommons.org/ns#"
   xmlns:rdf="http://www.w3.org/1999/02/22-rdf-syntax-ns#"
   xmlns:svg="http://www.w3.org/2000/svg"
   xmlns="http://www.w3.org/2000/svg"
   xmlns:sodipodi="http://sodipodi.sourceforge.net/DTD/sodipodi-0.dtd"
   xmlns:inkscape="http://www.inkscape.org/namespaces/inkscape"
   width="200"
   height="200"
   viewBox="0 0 52.916666 52.916668"
   version="1.1"
   id="svg8"
   inkscape:version="0.92.1 r15371"
   sodipodi:docname="cara13.svg">
  <defs
     id="defs2">
    <clipPath
       clipPathUnits="userSpaceOnUse"
       id="clipPath6802">
      <g
         inkscape:label="Clip"
         id="use6804">
        <rect
           y="817.21985"
           x="30.578131"
           height="430.9921"
           width="1494.3568"
           id="rect12595"
           style="opacity:1;vector-effect:none;fill:#ffffff;fill-opacity:1;stroke:none;stroke-width:2.81672454;stroke-linecap:butt;stroke-linejoin:miter;stroke-miterlimit:4;stroke-dasharray:none;stroke-dashoffset:0;stroke-opacity:0.48743723;paint-order:normal" />
        <rect
           y="529.67999"
           x="-1147.442"
           height="430.9921"
           width="1494.3568"
           id="rect12597"
           style="opacity:1;vector-effect:none;fill:#ffffff;fill-opacity:1;stroke:none;stroke-width:2.81672454;stroke-linecap:butt;stroke-linejoin:miter;stroke-miterlimit:4;stroke-dasharray:none;stroke-dashoffset:0;stroke-opacity:0.48743723;paint-order:normal" />
      </g>
    </clipPath>
    <clipPath
       clipPathUnits="userSpaceOnUse"
       id="clipPath6815">
      <g
         id="use6817"
         inkscape:label="Clip">
        <rect
           style="opacity:1;vector-effect:none;fill:#ffffff;fill-opacity:1;stroke:none;stroke-width:2.81672454;stroke-linecap:butt;stroke-linejoin:miter;stroke-miterlimit:4;stroke-dasharray:none;stroke-dashoffset:0;stroke-opacity:0.48743723;paint-order:normal"
           id="rect12583"
           width="1494.3568"
           height="430.9921"
           x="1031.8348"
           y="486.918" />
        <g
           id="g12591"
           clip-path="url(#clipPath6802)">
          <g
             inkscape:label="Clip"
             id="g12589">
            <rect
               y="817.21985"
               x="30.578131"
               height="430.9921"
               width="1494.3568"
               id="rect12585"
               style="opacity:1;vector-effect:none;fill:#ffffff;fill-opacity:1;stroke:none;stroke-width:2.81672454;stroke-linecap:butt;stroke-linejoin:miter;stroke-miterlimit:4;stroke-dasharray:none;stroke-dashoffset:0;stroke-opacity:0.48743723;paint-order:normal" />
            <rect
               y="529.67999"
               x="-1147.442"
               height="430.9921"
               width="1494.3568"
               id="rect12587"
               style="opacity:1;vector-effect:none;fill:#ffffff;fill-opacity:1;stroke:none;stroke-width:2.81672454;stroke-linecap:butt;stroke-linejoin:miter;stroke-miterlimit:4;stroke-dasharray:none;stroke-dashoffset:0;stroke-opacity:0.48743723;paint-order:normal" />
          </g>
        </g>
      </g>
    </clipPath>
    <clipPath
       clipPathUnits="userSpaceOnUse"
       id="clipPath12623">
      <rect
         style="opacity:1;vector-effect:none;fill:#ffffff;fill-opacity:1;stroke:none;stroke-width:3.11010909;stroke-linecap:butt;stroke-linejoin:miter;stroke-miterlimit:4;stroke-dasharray:none;stroke-dashoffset:0;stroke-opacity:0.48743723;paint-order:normal"
         id="rect12625"
         width="684.04071"
         height="159.69821"
         x="-1028.1637"
         y="657.59601"
         transform="scale(-1,1)" />
    </clipPath>
    <clipPath
       clipPathUnits="userSpaceOnUse"
       id="clipPath12627">
      <rect
         style="opacity:1;vector-effect:none;fill:#ffffff;fill-opacity:1;stroke:none;stroke-width:3.11010909;stroke-linecap:butt;stroke-linejoin:miter;stroke-miterlimit:4;stroke-dasharray:none;stroke-dashoffset:0;stroke-opacity:0.48743723;paint-order:normal"
         id="rect12629"
         width="684.04071"
         height="159.69821"
         x="-1028.1637"
         y="657.59601"
         transform="scale(-1,1)" />
    </clipPath>
    <clipPath
       clipPathUnits="userSpaceOnUse"
       id="clipPath12631">
      <rect
         style="opacity:1;vector-effect:none;fill:#ffffff;fill-opacity:1;stroke:none;stroke-width:3.11010909;stroke-linecap:butt;stroke-linejoin:miter;stroke-miterlimit:4;stroke-dasharray:none;stroke-dashoffset:0;stroke-opacity:0.48743723;paint-order:normal"
         id="rect12633"
         width="684.04071"
         height="159.69821"
         x="-1028.1637"
         y="657.59601"
         transform="scale(-1,1)" />
    </clipPath>
  </defs>
  <sodipodi:namedview
     id="base"
     pagecolor="#ffffff"
     bordercolor="#666666"
     borderopacity="1.0"
     inkscape:pageopacity="0.0"
     inkscape:pageshadow="2"
     inkscape:zoom="3.959798"
     inkscape:cx="106.09711"
     inkscape:cy="77.013115"
     inkscape:document-units="mm"
     inkscape:current-layer="g5846"
     showgrid="false"
     inkscape:window-width="1920"
     inkscape:window-height="1017"
     inkscape:window-x="-8"
     inkscape:window-y="-8"
     inkscape:window-maximized="1"
     units="px" />
  <metadata
     id="metadata5">
    <rdf:RDF>
      <cc:Work
         rdf:about="">
        <dc:format>image/svg+xml</dc:format>
        <dc:type
           rdf:resource="http://purl.org/dc/dcmitype/StillImage" />
        <dc:title></dc:title>
      </cc:Work>
    </rdf:RDF>
  </metadata>
  <g
     inkscape:label="Capa 1"
     inkscape:groupmode="layer"
     id="layer1"
     transform="translate(0,-244.08332)">
    <g
       id="g6035"
       transform="matrix(0.26458333,0,0,0.26458333,5.8302828,257.04791)"
       style="fill:#343434;fill-opacity:0.84422112">
      <g
         id="g6762"
         transform="matrix(0.13418166,0,0,0.13418166,-15.532137,-12.951636)">
        <g
           id="g5235"
           transform="matrix(7.4525834,0,0,7.4525834,-1646.5153,222.15222)">
          <g
             id="g5549"
             transform="matrix(1.3333334,0,0,1.3333334,234.5419,-382.84257)">
            <g
               id="g5846"
               transform="matrix(0.74999996,0,0,0.74999996,-3.6379552,271.08549)">
              <path
                 id="path5575"
                 d="m 71.472916,28.579496 c 1.854249,-2.874529 4.782009,-4.835241 7.763002,-6.405585 -0.195184,0.346008 -0.57668,1.038024 -0.762992,1.384032 -2.626113,1.259824 -4.613441,3.424593 -7.00001,5.021553 z"
                 inkscape:connector-curvature="0"
                 style="fill:#000200;stroke-width:0.88720024" />
              <path
                 id="path5577"
                 d="m 79.413358,26.228416 c 0.558936,-0.04436 1.667937,-0.124208 2.218001,-0.159696 -0.718632,0.514576 -1.437265,1.038024 -2.164769,1.543728 -3.114073,3.983529 -7.700898,8.02029 -13.050715,7.638794 -3.770601,-1.942969 -7.949314,-2.705961 -12.154643,-2.750321 3.584289,-1.401776 7.381506,0.514576 11.063387,0.2218 2.448672,0.186312 4.595697,-1.188848 6.636257,-2.342208 0.940433,-0.745249 2.031689,-1.250953 3.149561,-1.659065 -1.792144,2.209129 -4.551337,3.114073 -6.849186,4.631185 -0.860584,0.04436 -2.581752,0.124208 -3.442336,0.168568 1.588088,2.466417 4.640057,0.381497 6.858057,0.230672 2.918889,-2.138152 6.174914,-4.098865 7.736386,-7.523457 z"
                 inkscape:connector-curvature="0"
                 style="fill:#060814;stroke-width:0.88720024" />
              <path
                 id="path5579"
                 d="m 95.55153,25.997744 c 1.987329,0.35488 3.335873,1.934096 4.250576,3.628648 -2.050319,-0.35488 -3.327,-1.916352 -4.250576,-3.628648 z"
                 inkscape:connector-curvature="0"
                 style="fill:#000200;stroke-width:0.88720024" />
              <path
                 id="path5581"
                 d="m 56.142096,28.348824 c 4.400514,-0.39924 8.863131,0.239544 13.237028,-0.62104 -2.776937,2.484161 -6.86693,0.771864 -10.229419,1.250952 -2.79468,-0.416984 -5.048169,1.375161 -7.292786,2.714833 0.718633,-1.792144 2.741449,-2.448673 4.285177,-3.344745 z"
                 inkscape:connector-curvature="0"
                 style="fill:#000200;stroke-width:0.88720024" />
              <path
                 id="path5583"
                 d="m 86.395624,31.489513 c 1.59696,-0.01774 3.185049,0 4.773137,0.168568 -1.295312,0.408112 -2.661601,0.505704 -4.010145,0.514576 -4.231945,1.774401 -5.926497,6.316866 -5.757929,10.628659 -1.703425,-3.415721 0.70976,-6.884674 2.546264,-9.670483 0.833969,-0.523448 1.650193,-1.073512 2.448673,-1.64132 z"
                 inkscape:connector-curvature="0"
                 style="fill:#030006;stroke-width:0.88720024" />
              <path
                 id="path5585"
                 d="m 84.026799,38.205619 c 0.922689,-1.384033 2.031689,-2.626113 3.300385,-3.708497 -0.700888,1.029152 -1.37516,2.076048 -2.013944,3.140688 -0.949305,1.801017 -0.283904,3.983529 -1.002537,5.873266 -0.283904,-1.756657 -0.195184,-3.539929 -0.283904,-5.305457 z"
                 inkscape:connector-curvature="0"
                 style="fill:#030006;stroke-width:0.88720024" />
              <path
                 id="path5587"
                 d="m 87.327184,34.497122 c 0.03549,0.416984 0.115336,1.250952 0.159696,1.667936 -0.736376,2.076049 -1.59696,4.205329 -1.162232,6.458818 -0.390368,-1.650193 -0.700888,-3.318129 -1.011408,-4.986066 0.638784,-1.06464 1.313056,-2.111536 2.013944,-3.140688 z"
                 inkscape:connector-curvature="0"
                 style="fill:#808181;stroke-width:0.88720024" />
              <path
                 id="path5589"
                 d="m 87.48688,36.165058 c 1.792145,-0.656528 3.673009,-0.958176 5.581377,-0.97592 0.833081,0.479088 1.667049,0.949304 2.509889,1.410648 0.09759,2.129281 0.0621,4.258561 0.08073,6.37897 1.374274,-1.286441 1.66705,-2.972121 0.850825,-4.657801 0.833969,-0.443601 1.668824,-0.887201 2.501905,-1.339673 0.337136,0.771864 0.692016,1.552601 1.046894,2.315593 l -2.661598,-1.144488 1.339672,1.738912 c -0.31052,0.195184 -0.930673,0.585552 -1.241193,0.780736 -0.363752,0.70976 -1.099241,2.138153 -1.472752,2.847913 0.496832,0.6654 1.011408,1.3308 1.525984,1.987328 -0.53232,0.603297 -1.063753,1.197721 -1.605832,1.801017 -0.621041,-0.13308 -1.880865,-0.408112 -2.501018,-0.541192 -0.781623,-0.230672 -1.5526,-0.452472 -2.325352,-0.683144 0.258176,0.53232 0.781624,1.59696 1.047784,2.12928 -1.189736,-0.692016 -2.359953,-1.490496 -3.779473,-1.561472 -0.550064,-1.029153 -1.100128,-2.058305 -1.623577,-3.096329 l -0.434728,-0.93156 c -0.436502,-2.253489 0.424082,-4.382769 1.160458,-6.458818 m 0.93156,3.273769 c 0.292777,1.694552 1.180864,3.211665 1.925225,4.746521 0.620153,-0.0089 1.86312,-0.03549 2.484161,-0.04436 0.381496,1.046896 1.028265,1.650192 1.960712,1.809888 0,-0.07985 0.01774,-0.2218 0.01774,-0.292776 -0.620153,-1.082384 -1.3308,-2.111536 -1.7744,-3.28264 l -0.904945,0.07985 0.674273,-1.534857 c -0.389481,0.239544 -1.179977,0.727504 -1.570345,0.97592 -1.9962,-1.765528 0.478201,-3.362488 2.33245,-2.555136 -0.745249,-2.821297 -3.699625,-1.073512 -5.144875,0.09759 z"
                 inkscape:connector-curvature="0"
                 style="fill:#030006;stroke-width:0.88720024" />
              <path
                 id="path5591"
                 d="m 37.927876,36.431218 c 1.889736,0.04436 2.883401,1.827633 4.187585,2.918889 0.02662,1.250952 0.05323,2.501904 0.07098,3.752857 -0.416984,0.505704 -1.24208,1.50824 -1.659064,2.005072 -0.186312,-0.301648 -0.390368,-0.603296 -0.603297,-0.896072 1.925225,-2.475289 0.283905,-6.077321 -1.9962,-7.780746 z"
                 inkscape:connector-curvature="0"
                 style="fill:#000200;stroke-width:0.88720024" />
              <path
                 id="path5593"
                 d="m 59.282785,38.764555 c 0.150824,-0.346008 0.452472,-1.055769 0.603296,-1.410649 1.029153,1.534857 2.200257,2.963249 3.424593,4.347281 -0.452472,0.479089 -0.904944,0.949305 -1.348544,1.428393 -0.4436,-1.197721 -0.949304,-2.359953 -1.534856,-3.495569 -2.129281,0.08872 -4.267434,0.168568 -6.405586,0.337136 0.833968,0.807352 1.95184,1.126744 3.078585,1.215464 0.869456,0.514576 1.73004,1.038025 2.581752,1.588089 1.250953,0.390368 2.519649,0.75412 3.779473,1.109 -1.046896,2.422057 0.558936,4.675545 0.434728,7.079858 -2.022816,0.70976 -2.235744,3.433465 -4.409385,3.894809 l -1.517112,-0.0621 c 0.8872,-0.931561 1.783272,-1.854249 2.688217,-2.768065 -0.08872,-0.381496 -0.26616,-1.126744 -0.35488,-1.50824 0.17744,-1.321929 0.346008,-2.652729 0.319392,-3.992401 -1.410649,-1.224337 -3.096329,-2.093793 -4.640058,-3.131817 -0.958176,0.8872 -1.90748,1.783272 -2.83904,2.697089 0.57668,0.337136 1.73004,1.02028 2.30672,1.357416 0.0089,0.35488 0.02662,1.073512 0.03549,1.428392 -0.124208,1.100128 -0.301648,2.200257 -0.470216,3.300385 0.31052,0.647656 0.922688,1.942968 1.233209,2.590625 -1.818761,-0.842841 -3.877065,-1.525985 -5.287714,-2.998737 -1.455008,-2.564009 0.13308,-5.545001 0.2218,-8.259834 0.896072,-0.470216 1.792145,-0.940432 2.688217,-1.401776 0.08872,-0.381497 0.26616,-1.135617 0.346008,-1.517113 L 52.74412,40.201819 c 2.049432,-0.984792 4.302921,-1.206592 6.538665,-1.437264 z"
                 inkscape:connector-curvature="0"
                 style="fill:#000200;stroke-width:0.88720024" />
              <path
                 id="path5595"
                 d="m 88.41844,39.438827 c 1.44525,-1.171104 4.399626,-2.918889 5.144875,-0.09759 -1.854249,-0.807352 -4.32865,0.789608 -2.33245,2.555136 0.389481,-0.248416 1.179976,-0.736376 1.570345,-0.97592 l -0.674273,1.534857 0.904945,-0.07985 c 0.4436,1.171104 1.154247,2.200256 1.7744,3.28264 l -0.01774,0.292776 c -0.932447,-0.159696 -1.579216,-0.762992 -1.960712,-1.809888 -0.621041,0.0089 -1.864008,0.03549 -2.484161,0.04436 -0.744361,-1.534856 -1.632448,-3.051969 -1.925225,-4.746521 z"
                 inkscape:connector-curvature="0"
                 style="fill:#f9fffa;stroke-width:0.88720024" />
              <path
                 id="path5597"
                 d="m 48.840439,38.258851 c 2.359952,-0.718633 0.700888,2.413184 -0.736376,2.226872 -1.366289,-0.292776 -0.02662,-2.013944 0.736376,-2.226872 z"
                 inkscape:connector-curvature="0"
                 style="fill:#000200;stroke-width:0.88720024" />
              <path
                 id="path5599"
                 d="m 70.390532,38.782299 c 0.940432,0.683144 1.827632,1.455008 2.679345,2.253488 0.523448,2.475289 2.980992,3.779473 3.921425,6.050706 -3.069713,-1.978457 -5.039298,-5.083658 -6.60077,-8.304194 z"
                 inkscape:connector-curvature="0"
                 style="fill:#000200;stroke-width:0.88720024" />
              <path
                 id="path5601"
                 d="m 53.14336,46.092829 c 0.93156,-0.913817 1.880864,-1.809889 2.83904,-2.697089 1.543729,1.038024 3.229409,1.90748 4.640058,3.131817 0.02662,1.339672 -0.141952,2.670472 -0.319392,3.992401 -1.552601,0.0089 -3.105201,0.02662 -4.666674,-0.0089 -0.03549,-0.408113 -0.115336,-1.224337 -0.150824,-1.632449 -0.0089,-0.35488 -0.02662,-1.073512 -0.03549,-1.428392 -0.57668,-0.337136 -1.73004,-1.02028 -2.30672,-1.357416 m 5.181249,3.699624 c 1.570344,0.443601 2.271233,-2.058304 0.629912,-2.404312 -1.517112,-0.4436 -2.253488,2.093792 -0.629912,2.404312 z"
                 inkscape:connector-curvature="0"
                 style="fill:#fefffc;stroke-width:0.88720024" />
              <path
                 id="path5603"
                 d="m 86.759376,43.555436 c 0.523448,1.038024 1.073512,2.067176 1.623576,3.096329 1.419521,0.07098 2.589738,0.869456 3.779473,1.561472 -0.26616,-0.53232 -0.789608,-1.59696 -1.047783,-2.12928 0.772751,0.230672 1.543728,0.452472 2.325352,0.683144 0.779849,0.461344 1.578329,0.896072 2.385681,1.313056 0.257288,0.13308 0.762105,0.381496 1.012296,0.505704 l 0.912929,1.091256 c -2.874529,0.195184 -5.75793,0.17744 -8.632459,0.168568 l -0.230672,-0.57668 c -0.26616,-0.79848 -0.727504,-1.455008 -1.37516,-1.978456 -0.212041,-1.259825 -0.469329,-2.501905 -0.753233,-3.735113 z"
                 inkscape:connector-curvature="0"
                 style="fill:#898b86;stroke-width:0.88720024" />
              <path
                 id="path5605"
                 d="m 94.806282,45.6581 c 0,0.07098 -0.01774,0.212928 -0.01774,0.292776 z"
                 inkscape:connector-curvature="0"
                 style="fill:#3e66e4;stroke-width:0.88720024" />
              <path
                 id="path5607"
                 d="m 73.522349,46.456581 c 0.514576,0.452472 0.514576,0.452472 0,0 z"
                 inkscape:connector-curvature="0"
                 style="fill:#939491;stroke-width:0.88720024" />
              <path
                 id="path5609"
                 d="m 45.83283,47.947077 c 0.93156,-0.0621 1.854248,0.02662 2.776937,0.106464 -0.434728,0.452472 -1.313057,1.348544 -1.747785,1.801016 -1.28644,0.514577 -2.52852,1.126745 -3.806089,1.659065 0.878328,-1.215464 1.641321,-2.564009 2.776937,-3.566545 z"
                 inkscape:connector-curvature="0"
                 style="fill:#060814;stroke-width:0.88720024" />
              <path
                 id="path5611"
                 d="m 58.324609,49.792453 c -1.623576,-0.31052 -0.8872,-2.847912 0.629912,-2.404312 1.641321,0.346008 0.940432,2.847913 -0.629912,2.404312 z"
                 inkscape:connector-curvature="0"
                 style="fill:#000200;stroke-width:0.88720024" />
              <path
                 id="path5613"
                 d="m 86.51096,47.911589 c 0.248416,-0.159696 0.75412,-0.470216 1.002536,-0.62104 0.647656,0.523448 1.109001,1.179976 1.375161,1.978456 -1.259825,0.328264 -2.049433,-0.124208 -2.377697,-1.357416 z"
                 inkscape:connector-curvature="0"
                 style="fill:#060814;stroke-width:0.88720024" />
              <path
                 id="path5615"
                 d="m 95.826562,48.080157 c 3.008496,-1.073512 6.343478,0.816224 9.351088,-0.638784 4.44488,-0.0621 8.90749,-0.337136 13.34349,0.0621 3.47783,1.295312 7.49596,2.501904 9.42118,5.979729 3.08746,4.249689 0.55095,9.608379 -0.18542,14.195204 -0.55007,-4.409385 2.12041,-8.827642 0.071,-13.130563 -1.03802,-1.197721 -2.03257,-2.422057 -3.03422,-3.637521 -2.87453,2.670472 -5.15552,5.873265 -7.33803,9.120418 -0.30165,-0.08872 -0.91382,-0.257288 -1.22434,-0.346008 -0.11534,-0.04436 -0.35488,-0.141952 -0.47022,-0.195184 0.26616,-1.561473 0.53321,-3.122945 0.79848,-4.675545 -0.37351,-0.141952 -1.12763,-0.434728 -1.50824,-0.57668 1.10013,-0.381497 1.6777,-1.286441 2.05032,-2.342209 -0.58555,0.0621 -1.76552,0.195184 -2.35108,0.26616 l 0.86059,-0.97592 c 2.35995,0.07985 4.73853,-0.0621 6.85717,-1.215465 -4.23993,-3.01648 -9.60838,-1.747784 -14.43475,-1.978456 0.26705,0.638784 0.7905,1.916352 1.05488,2.555137 1.84538,0.13308 3.69075,0.319392 5.52726,0.603296 -2.39455,0.09759 -4.79975,0.26616 -7.17745,0.585552 -4.02789,0.204056 -8.081508,0.168568 -12.021564,1.233208 -4.00216,0.01774 -8.455018,1.06464 -12.048179,-1.179976 0.07985,1.703424 0.106464,3.415721 0.283904,5.110273 -1.534857,0.647656 -3.131817,1.179976 -4.480361,-0.292776 0.70976,-0.106464 2.120408,-0.319392 2.830168,-0.425856 l -0.319392,-0.878328 c -1.339672,0.319392 -4.622313,0.452472 -2.998736,-1.818761 1.215464,-1.06464 2.430928,0.780737 3.619777,1.011409 -0.04436,-1.126745 -0.150824,-2.244617 -0.310521,-3.353617 -0.718632,-0.26616 -2.155896,-0.79848 -2.874528,-1.064641 0.718632,-0.638784 1.632448,-0.860584 2.555136,-1.029152 1.339673,1.135617 2.555137,2.510777 4.196457,3.229409 4.400514,0.212928 8.889747,0.425856 13.193555,-0.727504 3.219654,-0.789608 6.556414,-0.337136 9.839054,-0.425856 -0.25818,-0.647656 -0.75412,-1.942969 -1.0123,-2.581753 -3.67301,-0.328264 -7.3815,-0.204056 -11.053627,0.04436 -0.248416,-0.124208 -0.753233,-0.372624 -1.010521,-0.505704 z"
                 inkscape:connector-curvature="0"
                 style="fill:#060814;stroke-width:0.88720024" />
              <path
                 id="path5617"
                 d="m 108.03444,47.991437 c 4.82548,0.230672 10.19393,-1.038024 14.43474,1.978456 -2.11952,1.153361 -4.49721,1.295313 -6.85717,1.215465 l -0.99366,-0.03549 c -1.8365,-0.283904 -3.68188,-0.470216 -5.52726,-0.603296 -0.26704,-0.638785 -0.78961,-1.916353 -1.05665,-2.555137 z"
                 inkscape:connector-curvature="0"
                 style="fill:#f9fffa;stroke-width:0.88720024" />
              <path
                 id="path5619"
                 d="m 55.015352,52.179022 c 0.168568,-1.100128 0.346008,-2.200257 0.470216,-3.300385 0.03549,0.408112 0.115336,1.224336 0.150824,1.632449 1.561473,0.03549 3.114073,0.01774 4.666674,0.0089 0.08872,0.381496 0.26616,1.126744 0.35488,1.50824 -0.904945,0.913816 -1.801017,1.836504 -2.688217,2.768065 l 1.517112,0.0621 0.612168,0.02662 c -0.8872,0.425856 -2.670472,1.28644 -3.557672,1.712296 l 0.771864,-2.147024 c -0.26616,0.07985 -0.79848,0.239544 -1.06464,0.319392 -0.310521,-0.647657 -0.922689,-1.942969 -1.233209,-2.590625 z"
                 inkscape:connector-curvature="0"
                 style="fill:#3e66e4;stroke-width:0.88720024" />
              <path
                 id="path5621"
                 d="m 66.646547,49.313365 c 1.50824,0.257288 0.124208,3.451209 -1.188848,2.910017 -0.57668,-1.02028 0.363752,-2.324465 1.188848,-2.910017 z"
                 inkscape:connector-curvature="0"
                 style="fill:#000200;stroke-width:0.88720024" />
              <path
                 id="path5623"
                 d="m 69.370252,53.483206 c 1.428392,-1.046896 2.688216,-2.271232 4.019017,-3.433465 -0.470216,2.626113 -4.045633,5.44741 -1.836505,7.93157 1.774401,-0.771864 1.650193,-3.158432 3.406849,-3.894809 0.523448,0.975921 0.922688,2.022817 1.339672,3.060841 0.416985,0.212928 1.259825,0.647656 1.685681,0.869456 -0.656528,0.106464 -1.969585,0.319393 -2.626113,0.425857 -0.26616,-0.629913 -0.541192,-1.250953 -0.825096,-1.863121 -0.461344,2.936633 -3.522185,2.697089 -5.101401,0.913816 -1.969585,1.623577 -3.877065,3.380233 -6.263634,4.382769 -2.120408,1.978457 -4.870729,3.140689 -6.929033,5.190122 1.543728,0.04436 3.069712,-0.07985 4.586825,-0.390368 0.771864,0.328264 1.534856,0.6654 2.30672,1.002536 0.718632,-1.038024 1.836505,-1.534857 2.989865,-1.880865 -0.452472,0.452472 -1.37516,1.348545 -1.836505,1.792145 2.377697,0.940432 4.480362,0.825096 5.873266,-1.463881 0.07985,0.612169 0.239544,1.836505 0.319392,2.457545 l 1.996201,-0.452472 c 0.292776,-0.31052 0.869456,-0.93156 1.15336,-1.24208 0.79848,0.70976 1.64132,1.37516 2.537392,1.969584 0.106464,-0.656528 0.301649,-1.95184 0.408113,-2.608369 0.390368,0.842841 0.780736,1.685681 1.162232,2.537393 0.523448,-0.558936 1.06464,-1.117872 1.605832,-1.667936 0.629912,0.372624 1.907481,1.126744 2.537393,1.499368 0.57668,-0.638784 1.046896,-1.339672 1.410648,-2.102664 -1.694552,-2.688217 -3.406849,-5.545002 -3.806089,-8.747795 2.129281,3.096329 3.406849,6.716106 4.711033,10.229419 2.599497,-1.02028 5.31433,-1.667937 8.108123,-1.827633 -0.745248,-0.452472 -2.226872,-1.348544 -2.963249,-1.801016 l -0.02573,-0.337136 c 0.549177,0.05323 1.64132,0.159696 2.182512,0.212928 2.262361,2.049432 4.613441,-0.212928 6.91129,-0.913816 0.638784,-0.283904 1.916357,-0.860584 2.555137,-1.153361 -0.65653,-0.416984 -1.969585,-1.24208 -2.626113,-1.659064 0.03549,-0.195184 0.115336,-0.585552 0.150824,-0.771864 1.304184,0.346008 3.069709,0.35488 2.945509,2.244616 1.72028,0.05323 2.71483,-1.268696 3.8052,-2.333336 1.109,-0.275032 2.22776,-0.550064 3.27377,-1.02028 1.23321,-0.975921 2.52941,-1.863121 3.82383,-2.750321 -1.3654,0.0089 -2.56401,-0.372624 -3.31724,-1.534856 2.08492,0.700888 4.24969,1.86312 6.03296,-0.115336 0.3815,0.141952 1.13473,0.434728 1.50824,0.57668 -0.26616,1.5526 -0.53321,3.114072 -0.79848,4.675545 0.11534,0.05323 0.35488,0.150824 0.47022,0.195184 l 0.7621,0.860584 c -1.5526,1.472752 -2.92687,3.114073 -4.37389,4.693289 0.59442,1.304185 1.1711,2.626113 1.72116,3.956913 2.78581,-2.138152 4.22308,-5.243353 5.55388,-8.392914 0.755,-0.75412 1.48162,-1.543728 2.20913,-2.324464 -1.10013,2.697088 -2.84792,5.065913 -4.03677,7.727513 -2.00507,2.306721 -3.92142,4.711034 -5.93536,6.991138 -3.65527,1.738913 -6.52181,4.950577 -10.51422,5.970858 -2.944614,0.904944 -5.615974,2.4398 -8.392024,3.743985 -2.57288,0.319392 -5.191008,0.07985 -7.781633,0.124208 -2.989864,-1.508241 -6.405585,-1.792145 -9.493042,-3.034225 -3.025353,-1.339672 -6.591898,-1.508241 -9.226882,-3.646393 6.822569,2.226873 13.698371,4.231945 20.538685,6.370098 -0.204056,-0.807353 -0.612168,-2.413185 -0.825096,-3.220537 1.259824,2.892272 4.453745,3.114073 7.168577,2.52852 2.501905,-1.233208 4.968322,-2.546264 7.621055,-3.424592 4.24969,-1.428393 7.78074,-4.267434 11.35705,-6.86693 0.46933,-0.816224 0.94841,-1.623577 1.43637,-2.430929 -0.58555,-1.384032 -1.15336,-2.768064 -1.70342,-4.160969 -2.05032,1.295313 -3.42371,3.752857 -5.96199,4.160969 -1.76552,0.505704 -3.76173,0.08872 -5.37643,1.100129 -0.0186,1.73004 1.54284,3.025352 1.76464,4.728777 -1.25006,-1.357417 -1.96071,-3.078585 -2.793793,-4.702161 -1.491384,0.239544 -2.980993,0.514576 -4.481248,0.762992 1.447023,1.366288 3.114072,2.608368 3.886824,4.506977 -2.297849,-1.206592 -3.468953,-4.347281 -6.529794,-3.770601 1.268696,1.28644 2.661601,2.448672 3.850449,3.806089 -1.349431,-0.275032 -2.359952,-1.171104 -3.247153,-2.155897 -2.501017,-1.109 -5.065913,-0.283904 -7.558946,0.381496 -1.676808,0.585553 -2.980992,-1.144488 -4.471489,-1.50824 -1.428392,1.144488 -1.712296,3.016481 -2.39544,4.613441 -0.07098,-1.756656 -0.03549,-3.513313 0.07098,-5.269969 -0.6654,0.629912 -1.996201,1.898608 -2.661601,2.52852 -0.239544,0 -0.70976,0 -0.949304,0 0.878328,-0.949304 1.747784,-1.925224 2.599496,-2.910016 -5.997473,1.676808 -12.01269,-0.13308 -18.063396,0.106464 -1.747784,0.17744 -3.468953,-0.629912 -4.205329,-2.271233 -0.07098,-0.904944 -0.124208,-1.809888 -0.08872,-2.714832 4.595697,-3.770601 10.202802,-6.352354 14.124227,-10.939179 -0.113561,-0.53232 -0.344233,-1.588089 -0.459569,-2.120409 m 43.889796,7.257298 c 1.47275,-0.07985 1.60583,-2.688217 0.0967,-2.821297 -1.50646,0.07098 -1.57744,2.634985 -0.0967,2.821297 m -5.89988,1.659065 c -0.90495,0.292776 -1.76553,0.674272 -2.59063,1.15336 l -0.27503,0.558936 c -1.62358,1.046896 -3.327,1.960712 -4.941705,3.034225 -1.392017,-0.204056 -2.670472,0.328264 -3.760842,1.135616 1.730041,-0.292776 3.451209,-0.656528 5.198997,-0.922688 0.30165,-0.337136 0.90494,-1.011408 1.2057,-1.348545 1.12675,1.109001 2.71572,1.499369 3.79722,0.115336 -0.14196,-0.496832 -0.41699,-1.481624 -0.55894,-1.969584 0.96705,-0.204056 1.44614,1.109 2.17275,1.579216 0.37263,-0.470216 1.109,-1.428392 1.47276,-1.898608 1.57921,0.13308 2.31559,-1.366288 3.25602,-2.333337 -0.24753,-0.390368 -0.74525,-1.171104 -1.00165,-1.570344 -1.41952,0.683144 -2.44867,2.013944 -3.97465,2.466417 m -24.362521,8.162242 c 0.789608,0.328264 1.588089,0.656528 2.386569,0.984792 3.078584,-2.067177 7.018641,-1.100128 10.23829,-2.883401 -4.35704,-0.248416 -8.357426,1.561472 -12.624859,1.898609 z"
                 inkscape:connector-curvature="0"
                 style="fill:#000200;stroke-width:0.88720024" />
              <path
                 id="path5625"
                 d="m 75.749221,52.61375 c -0.408112,-1.392904 0.115336,-1.90748 1.570345,-1.5526 0.363752,1.410648 -0.159696,1.925224 -1.570345,1.5526 z"
                 inkscape:connector-curvature="0"
                 style="fill:#000200;stroke-width:0.88720024" />
              <path
                 id="path5627"
                 d="m 114.61746,51.14987 0.99367,0.03549 -0.86059,0.97592 c -2.43093,-0.168568 -4.87073,-0.275032 -7.31053,-0.425856 2.3777,-0.319392 4.7829,-0.48796 7.17745,-0.585552 z"
                 inkscape:connector-curvature="0"
                 style="fill:#3e66e4;stroke-width:0.88720024" />
              <path
                 id="path5629"
                 d="m 63.417138,51.85963 0.567808,0.141952 c -0.17744,0.674272 -0.53232,2.022816 -0.70976,2.697089 l 2.377697,-2.218001 c -2.084921,3.708497 -4.657801,7.115346 -7.967058,9.812435 -0.26616,-0.301649 -0.79848,-0.904945 -1.06464,-1.206593 0.408112,-0.275032 0.807352,-0.558936 1.215464,-0.851712 0.958176,-0.683144 1.934096,-1.357416 2.918889,-2.013945 -0.150824,-0.416984 -0.452472,-1.259824 -0.603297,-1.68568 0.700889,-0.09759 2.093793,-0.292776 2.794681,-0.390368 -0.363752,-0.434728 -1.073512,-1.295312 -1.428392,-1.721168 0.470216,-0.647657 1.41952,-1.925225 1.898608,-2.564009 z"
                 inkscape:connector-curvature="0"
                 style="fill:#030006;stroke-width:0.88720024" />
              <path
                 id="path5631"
                 d="m 51.466551,56.464199 c -1.747784,-0.452472 -2.564008,-4.897345 -0.0621,-2.564009 0.434728,0.603297 1.188849,2.288977 0.0621,2.564009 z"
                 inkscape:connector-curvature="0"
                 style="fill:#000200;stroke-width:0.88720024" />
              <path
                 id="path5633"
                 d="m 52.708632,54.423639 c 1.250952,-0.257289 1.7744,0.212928 1.570344,1.401776 -1.277568,0.257288 -1.801016,-0.212928 -1.570344,-1.401776 z"
                 inkscape:connector-curvature="0"
                 style="fill:#060814;stroke-width:0.88720024" />
              <path
                 id="path5635"
                 d="m 107.57309,56.153679 c 2.81243,-1.357416 0.24842,2.830169 0,0 z"
                 inkscape:connector-curvature="0"
                 style="fill:#4c4d53;stroke-width:0.88720024" />
              <path
                 id="path5639"
                 d="m 53.045768,57.732895 c 0.230672,-1.313056 2.634984,-0.612168 3.06084,0.319392 -0.204056,0.204057 -0.62104,0.612169 -0.833968,0.807353 -0.558936,-0.283904 -1.667936,-0.842841 -2.226872,-1.126745 z"
                 inkscape:connector-curvature="0"
                 style="fill:#060814;stroke-width:0.88720024" />
              <path
                 id="path5641"
                 d="m 56.559081,58.096647 c 0.745248,-0.860584 2.253488,-1.046896 3.335872,-0.913816 0.124208,1.304185 -2.049432,2.164769 -3.034224,1.339673 z"
                 inkscape:connector-curvature="0"
                 style="fill:#000200;stroke-width:0.88720024" />
              <path
                 id="path5643"
                 d="m 101.01668,58.487016 c 1.32193,-0.798481 2.7592,-1.348545 4.23284,-1.792145 0.18631,0.594424 0.5678,1.783273 0.75412,2.386569 -0.39924,-0.416984 -1.2066,-1.233209 -1.60584,-1.641321 -0.58555,0.550064 -1.13561,1.126745 -1.68568,1.703425 -0.56869,-0.2218 -1.13561,-0.4436 -1.69544,-0.656528 z"
                 inkscape:connector-curvature="0"
                 style="fill:#000200;stroke-width:0.88720024" />
              <path
                 id="path5645"
                 d="m 56.106608,58.052287 0.452473,0.04436 0.301648,0.425857 c 0.239544,0.425856 0.727504,1.28644 0.97592,1.712296 -0.408112,0.292776 -0.807352,0.57668 -1.215464,0.851712 l -0.470217,-0.0089 -0.558936,-0.2218 c -0.07985,-0.496832 -0.239544,-1.490496 -0.319392,-1.9962 0.212928,-0.195184 0.629912,-0.603296 0.833968,-0.807353 z"
                 inkscape:connector-curvature="0"
                 style="fill:#3e66e4;stroke-width:0.88720024" />
              <path
                 id="path5647"
                 d="m 113.26005,60.740504 c -1.48163,-0.186312 -1.41065,-2.750321 0.0967,-2.821297 1.50913,0.13308 1.37694,2.741449 -0.0967,2.821297 z"
                 inkscape:connector-curvature="0"
                 style="fill:#ffffff;stroke-width:0.88720024" />
              <path
                 id="path5649"
                 d="m 47.305582,58.41604 c 1.375161,0.124208 2.351081,1.011408 3.256025,1.95184 1.667937,0.150824 3.433465,-0.141952 5.030425,0.48796 l 0.558936,0.2218 c -2.182512,0.2218 -4.373897,0.372624 -6.565281,0.470216 -0.75412,-1.055768 -1.534857,-2.076048 -2.280105,-3.131816 z"
                 inkscape:connector-curvature="0"
                 style="fill:#606360;stroke-width:0.88720024" />
              <path
                 id="path5651"
                 d="m 107.36017,62.399569 c 1.52598,-0.452473 2.55513,-1.783273 3.97465,-2.466417 0.2564,0.39924 0.75412,1.179976 1.00165,1.570344 -0.94043,0.967049 -1.67681,2.466417 -3.25602,2.333337 -0.36376,0.470216 -1.10013,1.428392 -1.47276,1.898608 -0.72661,-0.470216 -1.2057,-1.783272 -2.17275,-1.579216 0.14195,0.48796 0.41698,1.472752 0.55894,1.969584 -1.08239,1.384033 -2.67136,0.993665 -3.79722,-0.115336 -0.30165,0.337137 -0.90494,1.011409 -1.2057,1.348545 -1.748677,0.26616 -3.468958,0.629912 -5.198999,0.922688 1.09037,-0.807352 2.368825,-1.339672 3.760842,-1.135616 1.614707,-1.073513 3.318127,-1.987329 4.941707,-3.034225 l 0.27592,-0.558936 c 0.82421,-0.479088 1.68568,-0.860584 2.58974,-1.15336 z"
                 inkscape:connector-curvature="0"
                 style="fill:#fefffc;stroke-width:0.88720024" />
              <path
                 id="path5653"
                 d="m 83.538839,60.4566 c 1.171105,-0.550064 2.901145,1.304184 2.590625,2.457545 C 84.860768,63.393233 82.997647,61.7874 83.538839,60.4566 Z"
                 inkscape:connector-curvature="0"
                 style="fill:#000200;stroke-width:0.88720024" />
              <path
                 id="path5655"
                 d="m 49.585687,61.547856 c 2.191384,-0.09759 4.382769,-0.248416 6.565281,-0.470216 l -0.984792,1.410649 c -0.13308,0.186312 -0.39924,0.567808 -0.53232,0.762992 -1.667936,-0.479088 -5.145761,0.967048 -5.048169,-1.703425 z"
                 inkscape:connector-curvature="0"
                 style="fill:#8c8f94;stroke-width:0.88720024" />
              <path
                 id="path5657"
                 d="m 93.990058,61.96484 c -0.02573,-1.24208 3.167305,-1.233208 3.105201,0.01774 -1.038025,0.594425 -2.076049,0.585553 -3.105201,-0.01774 z"
                 inkscape:connector-curvature="0"
                 style="fill:#4c4d4a;stroke-width:0.88720024" />
              <path
                 id="path5659"
                 d="m 54.633856,63.251281 c 0.13308,-0.195184 0.39924,-0.57668 0.53232,-0.762992 0.647656,0.01774 1.942969,0.04436 2.590625,0.0621 -1.28644,1.100128 -1.969585,2.422056 -2.049433,3.992401 -0.03549,0.904944 0.01774,1.809888 0.08872,2.714832 l 0.0621,0.79848 c -1.02028,-0.629912 -2.04056,-1.250952 -3.069712,-1.86312 0.452472,-1.694552 0.825096,-3.468953 1.845376,-4.941705 z"
                 inkscape:connector-curvature="0"
                 style="fill:#4b5487;stroke-width:0.88720024" />
              <path
                 id="path5661"
                 d="m 92.553681,62.559265 c 0.522561,0.53232 0.522561,0.53232 0,0 z"
                 inkscape:connector-curvature="0"
                 style="fill:#60615f;stroke-width:0.88720024" />
              <path
                 id="path5663"
                 d="m 48.237143,66.489562 c -0.05323,3.291512 -1.188849,6.41357 -2.448673,9.422066 0.878328,1.783272 2.333337,3.096329 4.001273,4.125481 0.825096,0.523448 1.623576,1.082384 2.404313,1.667936 -3.185049,-0.275032 -6.15717,-3.238281 -7.008882,-6.254761 1.135616,-2.945505 1.783272,-6.06845 3.051969,-8.960722 z"
                 inkscape:connector-curvature="0"
                 style="fill:#000200;stroke-width:0.88720024" />
              <path
                 id="path5665"
                 d="m 115.77171,75.308332 c 2.8834,-2.42117 4.51585,-5.75793 6.07732,-9.093803 -0.0452,0.603297 -0.14195,1.809889 -0.19607,2.413185 -1.49848,1.987329 -2.0929,4.595697 -4.31978,5.997474 -2.20025,1.517112 -2.8834,4.125481 -3.62865,6.538665 0.0532,-0.514576 0.15083,-1.525984 0.20317,-2.031688 l 0.0976,-0.878329 c -3.08745,0.825097 -6.26452,1.330801 -9.28987,2.368825 0.1251,-0.301648 0.37263,-0.913816 0.50571,-1.224336 3.62066,-1.038025 8.42041,-0.283904 10.55058,-4.089993 z"
                 inkscape:connector-curvature="0"
                 style="fill:#060814;stroke-width:0.88720024" />
              <path
                 id="path5667"
                 d="m 82.997647,70.561811 c 4.267433,-0.337137 8.267819,-2.147025 12.623972,-1.898609 -3.21965,1.783273 -7.159706,0.816224 -10.23829,2.883401 -0.797593,-0.328264 -1.596074,-0.656528 -2.385682,-0.984792 z"
                 inkscape:connector-curvature="0"
                 style="fill:#fefffc;stroke-width:0.88720024" />
              <path
                 id="path5669"
                 d="m 51.883535,68.601098 c 1.703425,0.727504 4.187585,1.783272 3.637521,4.107737 l -0.257288,0.13308 c -0.372624,-0.150824 -1.126744,-0.452472 -1.499368,-0.603296 -0.13308,0.53232 -0.408112,1.588088 -0.541192,2.120408 -0.496832,-1.90748 -0.958176,-3.823832 -1.339673,-5.757929 z"
                 inkscape:connector-curvature="0"
                 style="fill:#7986bc;stroke-width:0.88720024" />
              <path
                 id="path5673"
                 d="m 55.263768,72.841915 0.257288,-0.13308 -0.0089,0.479088 c -0.603296,2.076049 0.594424,3.806089 2.076049,5.101401 0.168568,0.940433 0.328264,1.880865 0.48796,2.830169 -0.363752,-1.605832 -0.922688,-3.291513 -2.617241,-1.827632 l -0.0089,-0.02662 c -0.13308,-1.925225 -2.643856,-5.26997 -0.186312,-6.42333 z"
                 inkscape:connector-curvature="0"
                 style="fill:#3e66e4;stroke-width:0.88720024" />
              <path
                 id="path5675"
                 d="m 55.521056,72.708835 c 1.455009,0.780736 2.759193,1.818761 3.912553,3.007609 1.925225,1.046896 3.912553,1.969584 6.006346,2.626112 -0.550064,0.106464 -1.100128,0.168569 -1.659065,0.186313 -3.043096,-1.268697 -6.299121,-2.528521 -8.268706,-5.340946 z"
                 inkscape:connector-curvature="0"
                 style="fill:#030006;stroke-width:0.88720024" />
              <path
                 id="path5677"
                 d="m 112.53254,74.571956 c 2.90913,0.186312 -1.3929,2.697088 0,0 z"
                 inkscape:connector-curvature="0"
                 style="fill:#939bd8;stroke-width:0.88720024" />
              <path
                 id="path5683"
                 d="m 52.619912,77.38438 c 0.70976,0.470216 2.120408,1.410649 2.830168,1.880865 l 0.0089,0.02662 c 1.694553,-1.463881 2.253489,0.2218 2.617241,1.827632 0.603296,1.171104 1.437264,2.209129 2.155896,3.318129 -0.550064,-0.408112 -1.650192,-1.224336 -2.200256,-1.623576 -0.0621,2.315592 -0.08872,4.702161 1.109,6.778209 0.141952,2.448673 0.452472,4.888473 0.319392,7.346018 -1.029152,-2.218 -0.372624,-4.782009 -0.638784,-7.141962 -1.534856,-2.138152 -0.97592,-4.799753 -0.984792,-7.248425 -1.100128,-2.351081 -3.832705,-3.078585 -5.216737,-5.163506 z"
                 inkscape:connector-curvature="0"
                 style="fill:#060814;stroke-width:0.88720024" />
              <path
                 id="path5685"
                 d="m 111.92925,86.345102 c -0.8526,-2.564008 -0.17833,-5.509513 1.97757,-7.212937 -0.0532,0.505704 -0.15083,1.517112 -0.20317,2.031688 -0.29278,2.679345 -0.48885,5.376433 -0.47022,8.082394 -0.41698,-0.984792 -0.87833,-1.934096 -1.30418,-2.901145 z"
                 inkscape:connector-curvature="0"
                 style="fill:#b3bfe9;stroke-width:0.88720024" />
              <path
                 id="path5689"
                 d="m 63.257442,83.435086 c 4.294049,2.643856 9.218011,6.512049 14.48798,4.471489 l -0.01774,0.550064 c -1.109,0.31052 -2.209129,0.6654 -3.291513,1.046896 -2.661605,-0.700888 -5.207869,-1.801016 -7.64767,-3.043097 -1.3308,-0.807352 -3.034225,-1.366288 -3.531057,-3.025352 z"
                 inkscape:connector-curvature="0"
                 style="fill:#000200;stroke-width:0.88720024" />
              <path
                 id="path5695"
                 d="m 111.92925,86.345102 c 0.42497,0.967049 0.8872,1.916353 1.30418,2.901145 0.6654,1.357416 -1.51711,2.093793 -1.75577,0.550064 -0.409,-1.250952 -0.25817,-2.404312 0.45159,-3.451209 z"
                 inkscape:connector-curvature="0"
                 style="fill:#626eab;stroke-width:0.88720024" />
              <path
                 id="path5703"
                 d="m 104.47676,95.403417 c 2.94551,0.124208 -1.35741,2.6616 0,0 z"
                 inkscape:connector-curvature="0"
                 style="fill:#adafab;stroke-width:0.88720024" />
              <path
                 id="path5705"
                 d="m 84.993848,96.015585 c 1.446136,-0.470216 1.942968,0.01774 1.490496,1.46388 -1.446136,0.470216 -1.934097,-0.01774 -1.490496,-1.46388 z"
                 inkscape:connector-curvature="0"
                 style="fill:#cfd1ce;stroke-width:0.88720024" />
              <path
                 id="path5745"
                 d="m 96.17,177.62 c 6.92,2.29 12,7.62 18.221,11.14 6.33,3.811 10.359,10.19 15.569,15.24 H 98.13 c -0.11,-2.22 -0.159,-4.46 -0.81,-6.6 -0.37,-6.589 -0.44,-13.211 -1.15,-19.78 z"
                 inkscape:connector-curvature="0"
                 style="fill:#ffffff" />
              <path
                 id="path5747"
                 d="M 78.28,195.37 C 82,189.4 88.25,185.65 92.34,180 c 0.971,7.99 1.471,16 2.221,24 H 73.65 c 1.77,-2.74 3.6,-5.51 4.63,-8.63 z"
                 inkscape:connector-curvature="0"
                 style="fill:#ffffff" />
            </g>
          </g>
        </g>
      </g>
    </g>
    <g
       inkscape:groupmode="layer"
       id="layer2"
       inkscape:label="fondo"
       style="display:inline"
       sodipodi:insensitive="true">
      <rect
         style="opacity:1;vector-effect:none;fill:#343434;fill-opacity:0;stroke:#000000;stroke-width:0.02432241;stroke-linecap:butt;stroke-linejoin:miter;stroke-miterlimit:4;stroke-dasharray:none;stroke-dashoffset:0;stroke-opacity:0.48743723;paint-order:normal"
         id="rect6037"
         width="24.322405"
         height="24.322405"
         x="13.941643"
         y="258.39938" />
    </g>
  </g>
</svg>
