<?xml version="1.0" encoding="UTF-8" standalone="no"?>
<!-- Created with Inkscape (http://www.inkscape.org/) -->

<svg
   xmlns:dc="http://purl.org/dc/elements/1.1/"
   xmlns:cc="http://creativecommons.org/ns#"
   xmlns:rdf="http://www.w3.org/1999/02/22-rdf-syntax-ns#"
   xmlns:svg="http://www.w3.org/2000/svg"
   xmlns="http://www.w3.org/2000/svg"
   xmlns:sodipodi="http://sodipodi.sourceforge.net/DTD/sodipodi-0.dtd"
   xmlns:inkscape="http://www.inkscape.org/namespaces/inkscape"
   width="200"
   height="200"
   viewBox="0 0 52.916666 52.916668"
   version="1.1"
   id="svg5322"
   inkscape:version="0.92.1 r15371"
   sodipodi:docname="bat.svg">
  <defs
     id="defs5316" />
  <sodipodi:namedview
     id="base"
     pagecolor="#ffffff"
     bordercolor="#666666"
     borderopacity="1.0"
     inkscape:pageopacity="0.0"
     inkscape:pageshadow="2"
     inkscape:zoom="2.8284271"
     inkscape:cx="11.136737"
     inkscape:cy="108.34066"
     inkscape:document-units="mm"
     inkscape:current-layer="layer3"
     showgrid="false"
     units="px"
     inkscape:window-width="1920"
     inkscape:window-height="1017"
     inkscape:window-x="-8"
     inkscape:window-y="-8"
     inkscape:window-maximized="1" />
  <metadata
     id="metadata5319">
    <rdf:RDF>
      <cc:Work
         rdf:about="">
        <dc:format>image/svg+xml</dc:format>
        <dc:type
           rdf:resource="http://purl.org/dc/dcmitype/StillImage" />
        <dc:title></dc:title>
      </cc:Work>
    </rdf:RDF>
  </metadata>
  <g
     inkscape:groupmode="layer"
     id="layer2"
     inkscape:label="Capa 2"
     style="display:none"
     sodipodi:insensitive="true">
    <path
       style="opacity:1;vector-effect:none;fill:#724d00;fill-opacity:1;fill-rule:nonzero;stroke:none;stroke-width:0.4628512;stroke-linecap:butt;stroke-linejoin:miter;stroke-miterlimit:4;stroke-dasharray:none;stroke-dashoffset:0;stroke-opacity:1;paint-order:normal"
       d="M 13.229167,13.229167 V 39.6875 H 39.6875 V 13.229167 Z"
       id="rect5969"
       inkscape:connector-curvature="0" />
  </g>
  <g
     inkscape:groupmode="layer"
     id="layer3"
     inkscape:label="Capa 3">
    <path
       style="fill:#000000;stroke:#000000;stroke-width:0.26458332px;stroke-linecap:butt;stroke-linejoin:miter;stroke-opacity:1;fill-opacity:1"
       d="m 7.2964581,13.253868 c 0.4560115,0.114003 0.3555074,0.03745 0.7483547,0.374178 0.1004432,0.08609 0.1729827,0.20374 0.2806329,0.280633 0.8296709,0.592622 -0.062841,-0.299916 0.6548104,0.561266 0.1995316,0.239437 0.1991845,0.172774 0.4677217,0.374177 0.035278,0.02646 0.062363,0.06236 0.093544,0.09354 0.093544,0.09355 0.1870887,0.187089 0.2806329,0.280633 0.062363,0.06236 0.1381673,0.113707 0.1870893,0.187089 0.03867,0.05801 0.06236,0.124726 0.09354,0.187089 0.03118,0.06236 0.07663,0.119446 0.09354,0.187088 0.01513,0.0605 -0.03459,0.1352 0,0.187089 0.03868,0.05801 0.137787,0.04424 0.187089,0.09354 0.162857,0.162857 0.05649,0.188929 0.09354,0.374178 0.159045,0.795221 0.0047,-0.266525 0.280633,0.561266 0.09091,0.272726 0.09141,0.570809 0.187089,0.841899 0.09282,0.262995 0.260907,0.493497 0.374178,0.748354 0.01266,0.02849 -0.0099,0.06396 0,0.09354 0.0441,0.132291 0.142991,0.241885 0.187088,0.374177 0.01972,0.05916 -0.02789,0.13131 0,0.187089 0.01972,0.03944 0.0796,0.05171 0.09354,0.09354 0.01972,0.05916 0,0.124726 0,0.187089 0,0.124725 0,0.249451 0,0.374177 0,0.03118 -0.0061,0.06297 0,0.09354 0.02522,0.126068 0.06833,0.24811 0.09355,0.374178 0.0372,0.185986 0.04754,0.37726 0.09354,0.561266 0.01691,0.06764 0.07987,0.118718 0.09354,0.187088 0.01835,0.09173 -0.0093,0.187553 0,0.280633 0.02194,0.219392 0.0662,0.436027 0.09355,0.654811 0.03034,0.242698 -0.02615,0.513016 0,0.748354 0.01089,0.098 0.07421,0.183944 0.09354,0.280633 0.02446,0.122304 0,0.249452 0,0.374178 0,0.155907 0,0.311814 0,0.467721 0,0.374178 0,0.748355 0,1.122532 0,0.592448 0,1.184895 0,1.777342 0,0.155908 0,0.311814 0,0.467722 0,0.06236 0.01513,0.126588 0,0.18709 -0.01691,0.06764 -0.07663,0.119446 -0.09354,0.187087 -0.01513,0.0605 0.01223,0.125939 0,0.187089 -0.01934,0.09669 -0.06521,0.186188 -0.09355,0.280633 -0.06523,0.217432 -0.115303,0.439455 -0.187088,0.65481 -0.02205,0.06615 -0.07987,0.118721 -0.09355,0.187089 -0.01835,0.09173 0.01835,0.188905 0,0.280633 -0.04128,0.206417 -0.239349,0.261305 -0.280632,0.467723 -0.01835,0.09173 0.03474,0.193778 0,0.280632 -0.248495,0.621237 -0.138079,-0.196043 -0.280634,0.374177 -0.01513,0.0605 0.02316,0.129185 0,0.187089 -0.06706,0.167662 -0.235231,0.286118 -0.280633,0.467723 -0.01513,0.0605 0.01972,0.127926 0,0.187087 -0.01394,0.04184 -0.06236,0.06236 -0.09354,0.09355 -0.03118,0.06236 -0.07663,0.119446 -0.09354,0.187087 -0.01513,0.0605 0.03459,0.135199 0,0.187089 -0.03868,0.05801 -0.137787,0.04424 -0.187089,0.09354 -0.204279,0.204279 -0.01944,0.151878 -0.09354,0.374179 -0.01394,0.04183 -0.06908,0.05685 -0.09355,0.09354 -0.07735,0.116028 -0.109737,0.258149 -0.187088,0.374177 -0.024461,0.03669 -0.0796,0.05171 -0.093545,0.09355 -0.019722,0.05916 0.034593,0.135199 0,0.187086 -0.1153067,0.172961 -0.1653265,0.01413 -0.280633,0.18709 -0.1038492,0.155773 -0.1722567,0.416764 -0.2806332,0.561266 -0.052917,0.07056 -0.1341718,0.116533 -0.1870884,0.187089 -0.041834,0.05578 -0.062363,0.124725 -0.093545,0.187087 -0.062363,0.124728 -0.1153435,0.254604 -0.1870888,0.374179 -0.057843,0.0964 -0.1292457,0.184227 -0.1870884,0.280633 -0.035873,0.05979 -0.054868,0.129075 -0.093545,0.18709 -0.024461,0.03669 -0.069083,0.05685 -0.093544,0.09354 -0.038676,0.05801 -0.054868,0.129075 -0.093544,0.18709 -0.024461,0.03669 -0.073823,0.0541 -0.093544,0.09354 -0.013943,0.02789 0.013944,0.06565 0,0.09354 -0.2140577,0.428117 0.038772,-0.396947 -0.1870887,0.280633 -0.00986,0.02958 0.022048,0.07149 0,0.09355 -0.049302,0.0493 -0.1377865,0.04424 -0.1870887,0.09354 -0.3650787,0.365077 0.021654,0.05024 -0.093544,0.280633 -0.019722,0.03944 -0.062363,0.06236 -0.093544,0.09354 -0.031181,0.124727 -0.045797,0.254809 -0.093545,0.374179 -0.1901793,0.475448 0.00101,-0.47179 -0.1870887,0.280632 -0.015126,0.0605 0.02789,0.131308 0,0.187087 -0.013944,0.02789 -0.071496,-0.02204 -0.093544,0 -0.044097,0.0441 0.027889,0.13131 0,0.18709 -0.019719,0.03944 -0.073824,0.0541 -0.093544,0.09354 -0.013943,0.02789 0.022048,0.0715 0,0.09355 -0.022048,0.02204 -0.071496,-0.02204 -0.093544,0 -0.044097,0.0441 0.044097,0.142992 0,0.187087 -0.022048,0.02204 -0.079599,-0.02789 -0.093544,0 -0.1481987,0.2964 0.1935808,0.08705 -0.093544,0.374179 -0.022048,0.02204 -0.071496,-0.02204 -0.093545,0 -0.022048,0.02204 0,0.06236 0,0.09354 0,0.03118 -0.027889,0.0796 0,0.09354 0.083669,0.04184 0.1870887,0 0.280633,0 0.1247259,0 0.2518738,0.02445 0.3741774,0 0.09669,-0.01934 0.18279,-0.08131 0.280633,-0.09354 0.1547032,-0.01934 0.3118143,0 0.4677216,0 0.1870888,0 0.3741775,0 0.5612659,0 0.062363,0 0.1279261,0.01971 0.1870888,0 0.041834,-0.01394 0.054103,-0.07382 0.093545,-0.09354 0.03709,-0.01855 0.2615091,0.01913 0.2806329,0 0.022048,-0.02204 -0.022048,-0.07149 0,-0.09355 0.044097,-0.04409 0.1429914,0.0441 0.1870887,0 0.022048,-0.02204 -0.02789,-0.0796 0,-0.09354 0.055779,-0.02789 0.1265878,0.01513 0.1870885,0 0.067642,-0.01691 0.1247259,-0.06236 0.1870894,-0.09354 0.124726,-0.06236 0.246005,-0.132159 0.374177,-0.187089 0.181264,-0.07768 0.380003,-0.109405 0.561266,-0.18709 0.124726,-0.06236 0.249452,-0.124724 0.374178,-0.187087 0.03118,0 0.06459,0.01159 0.09354,0 0.258947,-0.103579 0.492009,-0.264316 0.748354,-0.374179 0.09063,-0.03884 0.187089,-0.06236 0.280633,-0.09354 0.09355,-0.03118 0.187089,-0.06236 0.280634,-0.09354 0.03118,-0.03118 0.0541,-0.07382 0.09354,-0.09355 0.02789,-0.01394 0.06565,0.01394 0.09354,0 0.03944,-0.01971 0.0541,-0.07382 0.09355,-0.09354 0.02789,-0.01394 0.06565,0.01394 0.09354,0 0.07888,-0.03944 0.108205,-0.147648 0.187088,-0.187089 0.02789,-0.01394 0.06565,0.01394 0.09354,0 0.03944,-0.01971 0.06236,-0.06236 0.09354,-0.09354 0.09354,-0.09354 0.1748,-0.201258 0.280633,-0.280633 0.08994,-0.06746 0.184228,-0.129246 0.280633,-0.187089 0.05979,-0.03587 0.13131,-0.05171 0.187089,-0.09354 0.07056,-0.05292 0.124725,-0.124727 0.187089,-0.187089 0.03118,-0.03118 0.0541,-0.07382 0.09354,-0.09354 0.02789,-0.01394 0.06566,0.01394 0.09354,0 0.03346,-0.01672 0.348243,-0.335275 0.374177,-0.374176 0.03868,-0.05802 0.03553,-0.148416 0.09355,-0.18709 0.05189,-0.03459 0.142991,0.0441 0.187088,0 0.0441,-0.0441 -0.0441,-0.142991 0,-0.187089 0.0441,-0.0441 0.142992,0.0441 0.187089,0 0.0986,-0.09861 0.09998,-0.265287 0.187089,-0.374177 0.04356,-0.05445 0.131309,-0.05171 0.187089,-0.09355 0.04006,-0.03005 0.317461,-0.345818 0.374177,-0.374176 0.02789,-0.01394 0.0715,0.02204 0.09354,0 0.0441,-0.0441 -0.02789,-0.13131 0,-0.18709 0.01972,-0.03944 0.06908,-0.05685 0.09355,-0.09354 0.03867,-0.05801 0.05487,-0.129074 0.09354,-0.18709 0.02446,-0.03669 0.06908,-0.05685 0.09354,-0.09354 0.03868,-0.05801 0.05767,-0.127302 0.09354,-0.18709 0.05784,-0.0964 0.129246,-0.184226 0.187089,-0.280632 0.03587,-0.05979 0.04424,-0.137785 0.09354,-0.187087 0.0493,-0.0493 0.148413,-0.03553 0.187089,-0.09355 0.03459,-0.05189 -0.01972,-0.127926 0,-0.187087 0.01395,-0.04184 0.07382,-0.0541 0.09354,-0.09355 0.01394,-0.02789 -0.01394,-0.06565 0,-0.09354 0.03944,-0.07888 0.138168,-0.113707 0.187089,-0.187089 0.03868,-0.05801 0.05171,-0.13131 0.09354,-0.187087 0.05292,-0.07056 0.147646,-0.108207 0.187088,-0.18709 0.02789,-0.05578 -0.02789,-0.13131 0,-0.187089 0.03944,-0.07888 0.134172,-0.116533 0.187089,-0.187087 0.04183,-0.05578 0.04424,-0.137787 0.09354,-0.18709 0.249452,0 -0.03118,0.03118 0.09354,-0.09354 0.02205,-0.02204 0.07149,0.02204 0.09354,0 0.02205,-0.02204 -0.01394,-0.06566 0,-0.09355 0.01972,-0.03944 0.07382,-0.0541 0.09354,-0.09354 0.01394,-0.02789 -0.02205,-0.0715 0,-0.09354 0.0493,-0.0493 0.148413,-0.03553 0.187089,-0.09355 0.03459,-0.05189 -0.02789,-0.13131 0,-0.187087 0.01394,-0.02789 0.06236,0 0.09354,0 0.03118,-0.03118 0.0796,-0.05171 0.09354,-0.09355 0.01972,-0.05916 -0.02789,-0.13131 0,-0.187087 0.01395,-0.02789 0.0715,0.02204 0.09355,0 0.02205,-0.02204 -0.02205,-0.0715 0,-0.09355 0.02205,-0.02204 0.0715,0.02204 0.09354,0 0.02205,-0.02204 0,-0.06236 0,-0.09354 0.03118,-0.06236 0.04424,-0.137788 0.09355,-0.18709 0.02205,-0.02204 0.07149,0.02204 0.09354,0 0.0441,-0.0441 -0.02789,-0.13131 0,-0.187089 0.01972,-0.03944 0.07382,-0.0541 0.09354,-0.09354 0.01395,-0.02789 -0.02205,-0.0715 0,-0.09354 0.02205,-0.02204 0.0715,0.02204 0.09354,0 0.04677,-0.04677 -0.04677,-0.233863 0,-0.280633 0.02205,-0.02204 0.07149,0.02204 0.09354,0 0.02205,-0.02204 -0.01395,-0.06566 0,-0.09355 0.01972,-0.03944 0.0796,-0.05171 0.09354,-0.09354 1.42e-4,-5.29e-4 -8.9e-5,-0.280543 0,-0.280633 0.02205,-0.02204 0.0715,0.02204 0.09355,0 0.02501,-0.025 -0.02984,-0.408053 0,-0.467722 0.01972,-0.03944 0.07382,-0.0541 0.09354,-0.09354 0.01423,-0.02847 0,-0.238503 0,-0.280633 0,-0.187089 0,-0.374176 0,-0.561266 0,-0.623629 0,-1.247257 0,-1.870886 0,-0.21827 0,-0.436541 0,-0.654811 0,-0.09354 0,-0.187088 0,-0.280633 0,-0.03118 0.0061,-0.06297 0,-0.09354 -0.02521,-0.126068 -0.05823,-0.250559 -0.09354,-0.374177 -0.02709,-0.09481 -0.07421,-0.183944 -0.09355,-0.280633 -0.03058,-0.15288 0.03058,-0.314842 0,-0.467722 -0.01367,-0.06837 -0.0715,-0.120943 -0.09354,-0.187089 -0.0099,-0.02958 0.01395,-0.06565 0,-0.09354 -0.01972,-0.03944 -0.0796,-0.05171 -0.09354,-0.09354 -0.03944,-0.118326 0.03944,-0.255852 0,-0.374178 -0.01395,-0.04183 -0.0796,-0.05171 -0.09354,-0.09354 -0.01972,-0.05916 0.01513,-0.126588 0,-0.187089 -0.01691,-0.06764 -0.06236,-0.124725 -0.09354,-0.187088 -0.03118,-0.09354 -0.07421,-0.183944 -0.09354,-0.280633 -0.01223,-0.06115 0.01972,-0.127926 0,-0.187089 -0.01395,-0.04183 -0.06236,-0.06236 -0.09355,-0.09354 -0.03118,-0.09354 -0.07733,-0.18337 -0.09354,-0.280633 -0.01538,-0.09227 0.03474,-0.19378 0,-0.280633 -0.187089,-0.467722 -0.140317,0 -0.280633,-0.280633 -0.03118,-0.09354 -0.06236,-0.187089 -0.09354,-0.280633 -0.03118,-0.03118 -0.07382,-0.0541 -0.09354,-0.09355 -0.01395,-0.02789 0,-0.06236 0,-0.09354 0,-0.06236 0.01972,-0.127926 0,-0.187089 -0.03582,-0.107453 -0.22333,-0.129786 -0.280633,-0.187088 -0.0441,-0.0441 0.03459,-0.1352 0,-0.187089 -0.04892,-0.07338 -0.124726,-0.124726 -0.187088,-0.187089 -0.03118,-0.03118 -0.07382,-0.0541 -0.09354,-0.09354 -0.0441,-0.08819 -0.03885,-0.198589 -0.09354,-0.280633 -0.0173,-0.02595 -0.0715,0.02205 -0.09354,0 -0.0493,-0.0493 -0.05487,-0.129075 -0.09354,-0.187089 -0.05677,-0.08515 -0.239177,-0.197721 -0.280633,-0.280633 -0.01395,-0.02789 0.02205,-0.07149 0,-0.09354 -0.193547,-0.193547 0.0076,0.295765 -0.187089,-0.09354 -0.01394,-0.02789 0.02205,-0.0715 0,-0.09354 -0.02205,-0.02205 -0.06565,0.01395 -0.09354,0 -0.172216,-0.08611 -0.01487,-0.194524 -0.187089,-0.280633 -0.02789,-0.01395 -0.06565,0.01395 -0.09354,0 -0.03944,-0.01972 -0.06236,-0.06236 -0.09354,-0.09354 -0.03118,-0.03118 -0.06236,-0.06236 -0.09354,-0.09354 -0.404607,-0.404607 0.02478,-0.01466 -0.374178,-0.280633 -0.03669,-0.02446 -0.0541,-0.07382 -0.09354,-0.09354 -0.02789,-0.01395 -0.06236,0 -0.09354,0 -0.06236,-0.03118 -0.129076,-0.05487 -0.187089,-0.09354 -0.03669,-0.02446 -0.05685,-0.06908 -0.09355,-0.09354 -0.05801,-0.03868 -0.131309,-0.05171 -0.187088,-0.09354 -0.07056,-0.05292 -0.113707,-0.138167 -0.187089,-0.187088 -0.02595,-0.0173 -0.06566,0.01394 -0.09354,0 -0.100557,-0.05028 -0.180076,-0.13681 -0.280633,-0.187089 -0.188656,-0.09433 -0.304249,-0.06448 -0.467722,-0.187089 -0.07056,-0.05292 -0.116533,-0.134172 -0.187089,-0.187088 -0.05578,-0.04183 -0.124725,-0.06236 -0.187088,-0.09354 -0.438757,-0.219378 0.110243,0.0441 -0.467722,-0.187088 -0.06474,-0.0259 -0.120943,-0.0715 -0.187089,-0.09355 -0.02958,-0.0099 -0.06565,0.01394 -0.09354,0 -0.03944,-0.01972 -0.05171,-0.0796 -0.09354,-0.09354 -0.05916,-0.01972 -0.127926,0.01972 -0.187089,0 -0.08367,-0.02789 -0.108205,-0.147647 -0.187088,-0.187089 -0.05578,-0.02789 -0.13131,0.02789 -0.187089,0 -0.03944,-0.01972 -0.0541,-0.07382 -0.09355,-0.09354 -0.02789,-0.01394 -0.07149,0.02205 -0.09354,0 -0.02205,-0.02205 0.02205,-0.0715 0,-0.09354 -0.04677,-0.04677 -0.233861,0.04677 -0.280633,0 -0.02205,-0.02205 0.01394,-0.06566 0,-0.09355 -0.194654,-0.389309 0.0065,0.100003 -0.187089,-0.09354 -0.02205,-0.02205 0.02205,-0.0715 0,-0.09354 -0.0441,-0.0441 -0.142991,0.0441 -0.187088,0 -0.02205,-0.02205 0.02205,-0.0715 0,-0.09355 -0.02205,-0.02205 -0.06565,0.01395 -0.09355,0 -0.03944,-0.01972 -0.0541,-0.07382 -0.09354,-0.09354 -0.02789,-0.01395 -0.06565,0.01394 -0.09354,0 -0.112253,-0.05613 -0.16838,-0.224506 -0.280633,-0.280633 -0.02789,-0.01395 -0.06236,0 -0.09355,0 -0.06236,-0.03118 -0.129075,-0.05487 -0.187088,-0.09354 -0.03669,-0.02446 -0.06236,-0.06236 -0.09355,-0.09354 -0.06236,-0.03118 -0.129074,-0.05487 -0.187088,-0.09354 -0.03669,-0.02446 -0.0541,-0.07382 -0.09355,-0.09354 -0.05578,-0.02789 -0.142991,0.0441 -0.187088,0 -0.02205,-0.02205 0.02205,-0.0715 0,-0.09354 -0.02205,-0.02205 -0.0715,0.02205 -0.09355,0 -0.02205,-0.02205 0.02205,-0.0715 0,-0.09354 -0.04677,-0.04677 -0.2338609,0.04677 -0.2806329,0 -0.049302,-0.0493 -0.044242,-0.137787 -0.093545,-0.187089 -0.044097,-0.0441 -0.1313095,0.02789 -0.1870885,0 -0.078884,-0.03944 -0.1082053,-0.147647 -0.1870887,-0.187088 -0.055779,-0.02789 -0.1429914,0.0441 -0.1870887,0 -0.022048,-0.02205 0.022048,-0.0715 0,-0.09354 -0.014518,-0.01452 -0.2442326,0.01213 -0.280633,0 -0.6775807,-0.22586 0.1474828,0.02697 -0.2806329,-0.187089 -0.02789,-0.01394 -0.062363,0 -0.093545,0 -0.093544,0 -0.1898817,0.02269 -0.280633,0 -0.04278,-0.01069 -0.054102,-0.07382 -0.093544,-0.09354 -0.028469,-0.01423 -0.2385047,0 -0.2806332,0 -0.2182699,0 -0.43654,0 -0.6548102,0 z"
       id="path4503"
       inkscape:connector-curvature="0" />
    <path
       style="fill:#000000;fill-opacity:1;stroke:#000000;stroke-width:0.2567772px;stroke-linecap:butt;stroke-linejoin:miter;stroke-opacity:1"
       d="m 47.183368,37.658584 c -0.443088,-0.110506 -0.345432,-0.0363 -0.727147,-0.362701 -0.09759,-0.08345 -0.168081,-0.197492 -0.27268,-0.272027 -0.806161,-0.574448 0.06105,0.290718 -0.636256,-0.544053 -0.193876,-0.232094 -0.193539,-0.167476 -0.454467,-0.362702 -0.03429,-0.02565 -0.0606,-0.06045 -0.09089,-0.09068 -0.09088,-0.09068 -0.181787,-0.181351 -0.27268,-0.272027 -0.0606,-0.06045 -0.134253,-0.110219 -0.181789,-0.18135 -0.03757,-0.05623 -0.0606,-0.120902 -0.09089,-0.181351 -0.0303,-0.06045 -0.07446,-0.115784 -0.09089,-0.181351 -0.0147,-0.05865 0.03361,-0.131053 0,-0.181351 -0.03758,-0.05623 -0.133882,-0.04288 -0.181787,-0.09068 -0.158242,-0.157862 -0.05488,-0.183135 -0.09089,-0.362703 -0.154538,-0.770833 -0.0046,0.258352 -0.272681,-0.544052 -0.08833,-0.264362 -0.08882,-0.553304 -0.181787,-0.81608 -0.09019,-0.254929 -0.253513,-0.478362 -0.363575,-0.725403 -0.0123,-0.02762 0.0096,-0.062 0,-0.09068 -0.04285,-0.128234 -0.138939,-0.234467 -0.181785,-0.362702 -0.01916,-0.05734 0.0271,-0.127283 0,-0.181351 -0.01916,-0.03824 -0.07735,-0.05013 -0.09089,-0.09068 -0.01916,-0.05734 0,-0.1209 0,-0.181351 0,-0.1209 0,-0.2418 0,-0.362702 0,-0.03023 0.006,-0.06103 0,-0.09068 -0.0245,-0.1222 -0.06639,-0.2405 -0.0909,-0.362701 -0.03615,-0.180283 -0.0462,-0.365691 -0.09088,-0.544054 -0.01643,-0.06556 -0.07761,-0.115077 -0.09089,-0.18135 -0.01783,-0.08892 0.009,-0.181802 0,-0.272027 -0.02132,-0.212663 -0.06433,-0.422655 -0.09089,-0.634729 -0.02948,-0.235255 0.02541,-0.497283 0,-0.725403 -0.01064,-0.09499 -0.0721,-0.178303 -0.09088,-0.272027 -0.02377,-0.118553 0,-0.241801 0,-0.362702 0,-0.151126 0,-0.302252 0,-0.453377 0,-0.362703 0,-0.725405 0,-1.088106 0,-0.574279 0,-1.148556 0,-1.722834 0,-0.151127 0,-0.302251 0,-0.453378 0,-0.06045 -0.0147,-0.122706 0,-0.181353 0.01643,-0.06556 0.07445,-0.115782 0.09088,-0.181349 0.0147,-0.05865 -0.01188,-0.122077 0,-0.181352 0.01879,-0.09372 0.06336,-0.180477 0.09089,-0.272025 0.06338,-0.210764 0.112035,-0.425978 0.181787,-0.634729 0.02143,-0.06412 0.0776,-0.11508 0.09089,-0.181351 0.01783,-0.08892 -0.01783,-0.183112 0,-0.272027 0.04011,-0.200086 0.232568,-0.253291 0.27268,-0.453379 0.01783,-0.08891 -0.03375,-0.187835 0,-0.272025 0.241454,-0.602185 0.134167,0.190031 0.272682,-0.362702 0.0147,-0.05865 -0.0225,-0.125223 0,-0.181351 0.06516,-0.16252 0.228565,-0.277343 0.27268,-0.453379 0.0147,-0.05865 -0.01916,-0.124003 0,-0.18135 0.01355,-0.04056 0.0606,-0.06045 0.09089,-0.09068 0.0303,-0.06045 0.07445,-0.115783 0.09088,-0.181349 0.0147,-0.05865 -0.03361,-0.131054 0,-0.181351 0.03758,-0.05623 0.133883,-0.04288 0.181788,-0.09068 0.198489,-0.198015 0.01889,-0.147221 0.09089,-0.362704 0.01355,-0.04055 0.06712,-0.0551 0.09089,-0.09068 0.07515,-0.11247 0.106628,-0.250233 0.181786,-0.362702 0.02377,-0.03556 0.07734,-0.05013 0.0909,-0.09069 0.01916,-0.05734 -0.03361,-0.131054 0,-0.181349 0.112039,-0.167657 0.160641,-0.0137 0.27268,-0.181352 0.100912,-0.150996 0.167376,-0.403983 0.272682,-0.544054 0.05142,-0.0684 0.130369,-0.112958 0.181786,-0.181351 0.04065,-0.05406 0.0606,-0.1209 0.09089,-0.181349 0.0606,-0.120903 0.112075,-0.246796 0.181787,-0.362703 0.0562,-0.09344 0.125584,-0.178578 0.181787,-0.272027 0.03485,-0.05796 0.05331,-0.125116 0.09088,-0.181352 0.02377,-0.03556 0.06713,-0.0551 0.09089,-0.09068 0.03758,-0.05623 0.05331,-0.125116 0.09089,-0.181352 0.02377,-0.03556 0.07173,-0.05244 0.09088,-0.09068 0.01355,-0.02703 -0.01355,-0.06363 0,-0.09068 0.207993,-0.414988 -0.03767,0.384773 0.181788,-0.272027 0.0096,-0.02868 -0.02143,-0.0693 0,-0.09069 0.0479,-0.04778 0.133882,-0.04288 0.181787,-0.09067 0.354733,-0.353881 -0.02104,-0.0487 0.09089,-0.272027 0.01916,-0.03824 0.0606,-0.06045 0.09088,-0.09068 0.0303,-0.120901 0.04451,-0.246994 0.09089,-0.362702 0.18479,-0.460868 -9.72e-4,0.45732 0.181786,-0.272026 0.0147,-0.05865 -0.0271,-0.127282 0,-0.18135 0.01355,-0.02703 0.06948,0.02137 0.09089,0 0.04285,-0.04274 -0.0271,-0.127283 0,-0.181352 0.01916,-0.03824 0.07173,-0.05244 0.09089,-0.09068 0.01355,-0.02703 -0.02143,-0.06931 0,-0.09068 0.02143,-0.02137 0.06948,0.02137 0.09088,0 0.04285,-0.04274 -0.04285,-0.138606 0,-0.181349 0.02143,-0.02137 0.07735,0.02703 0.09089,0 0.143999,-0.28731 -0.188094,-0.08438 0.09088,-0.362703 0.02143,-0.02137 0.06948,0.02137 0.09089,0 0.02143,-0.02137 0,-0.06045 0,-0.09068 0,-0.03023 0.0271,-0.07716 0,-0.09068 -0.0813,-0.04056 -0.181786,0 -0.272681,0 -0.121189,0 -0.244735,-0.0237 -0.363573,0 -0.09395,0.01875 -0.17761,0.07882 -0.27268,0.09068 -0.150319,0.01875 -0.302978,0 -0.454468,0 -0.181787,0 -0.363574,0 -0.545361,0 -0.0606,0 -0.124302,-0.01911 -0.181787,0 -0.04065,0.01352 -0.05257,0.07156 -0.09089,0.09068 -0.03604,0.01798 -0.254098,-0.01854 -0.272681,0 -0.02143,0.02137 0.02143,0.0693 0,0.09068 -0.04285,0.04273 -0.138939,-0.04275 -0.181787,0 -0.02143,0.02137 0.0271,0.07716 0,0.09068 -0.0542,0.02703 -0.123001,-0.01466 -0.181786,0 -0.06572,0.01639 -0.121192,0.06045 -0.181789,0.09068 -0.121191,0.06045 -0.239033,0.128106 -0.363574,0.181351 -0.176126,0.0753 -0.369234,0.106049 -0.545359,0.181353 -0.121193,0.06045 -0.242384,0.1209 -0.363575,0.181349 -0.0303,0 -0.06277,-0.01124 -0.09089,0 -0.25161,0.100405 -0.478066,0.256211 -0.727148,0.362704 -0.08807,0.03765 -0.181788,0.06045 -0.27268,0.09068 -0.0909,0.03022 -0.181788,0.06045 -0.272682,0.09066 -0.0303,0.03023 -0.05257,0.07156 -0.09088,0.09069 -0.0271,0.01352 -0.06379,-0.01352 -0.09089,0 -0.03832,0.01911 -0.05257,0.07156 -0.09089,0.09068 -0.0271,0.01352 -0.06379,-0.01352 -0.09088,0 -0.07664,0.03823 -0.105145,0.14312 -0.181787,0.181351 -0.0271,0.01352 -0.06379,-0.01352 -0.09088,0 -0.03833,0.01911 -0.0606,0.06045 -0.09089,0.09068 -0.09089,0.09066 -0.169847,0.195085 -0.272681,0.272025 -0.0874,0.0654 -0.179007,0.125283 -0.272681,0.181352 -0.0581,0.03477 -0.127588,0.05013 -0.181788,0.09067 -0.06856,0.05129 -0.121188,0.120902 -0.181787,0.181352 -0.0303,0.03023 -0.05257,0.07156 -0.09089,0.09068 -0.0271,0.01352 -0.0638,-0.01352 -0.09088,0 -0.03251,0.01621 -0.338375,0.324992 -0.363574,0.3627 -0.03758,0.05624 -0.03452,0.143865 -0.09089,0.181353 -0.05042,0.03353 -0.138938,-0.04274 -0.181786,0 -0.04285,0.04274 0.04285,0.138606 0,0.181351 -0.04285,0.04274 -0.138939,-0.04274 -0.181787,0 -0.09581,0.09559 -0.09715,0.257152 -0.181787,0.362702 -0.04232,0.05278 -0.127588,0.05013 -0.181788,0.09068 -0.03892,0.02913 -0.308465,0.335212 -0.363574,0.362701 -0.0271,0.01352 -0.06948,-0.02137 -0.09088,0 -0.04285,0.04274 0.0271,0.127282 0,0.181352 -0.01916,0.03824 -0.06713,0.0551 -0.0909,0.09068 -0.03757,0.05623 -0.05331,0.125115 -0.09089,0.181352 -0.02377,0.03556 -0.06713,0.0551 -0.09088,0.09068 -0.03758,0.05623 -0.05603,0.123398 -0.09089,0.181352 -0.0562,0.09344 -0.125583,0.178577 -0.181786,0.272026 -0.03485,0.05796 -0.04298,0.133559 -0.09089,0.18135 -0.0479,0.04778 -0.144207,0.03444 -0.181787,0.09068 -0.03361,0.0503 0.01916,0.124003 0,0.18135 -0.01356,0.04056 -0.07173,0.05244 -0.09089,0.09068 -0.01355,0.02703 0.01355,0.06363 0,0.09067 -0.03832,0.07646 -0.134253,0.11022 -0.181788,0.181352 -0.03758,0.05623 -0.05025,0.127283 -0.09089,0.181349 -0.05142,0.0684 -0.143462,0.104892 -0.181785,0.181353 -0.0271,0.05407 0.0271,0.127282 0,0.181351 -0.03833,0.07646 -0.130371,0.112959 -0.181788,0.18135 -0.04065,0.05407 -0.04299,0.133561 -0.09088,0.181351 -0.242384,0 0.0303,-0.03023 -0.09089,0.09067 -0.02143,0.02137 -0.06947,-0.02137 -0.09089,0 -0.02143,0.02137 0.01355,0.06364 0,0.09068 -0.01916,0.03824 -0.07173,0.05244 -0.09088,0.09068 -0.01355,0.02703 0.02143,0.06931 0,0.09067 -0.04791,0.04779 -0.144208,0.03444 -0.181788,0.09069 -0.03361,0.0503 0.0271,0.127282 0,0.181349 -0.01355,0.02703 -0.0606,0 -0.09088,0 -0.0303,0.03023 -0.07735,0.05013 -0.09089,0.09068 -0.01916,0.05734 0.0271,0.127284 0,0.18135 -0.01356,0.02703 -0.06947,-0.02137 -0.09089,0 -0.02143,0.02137 0.02143,0.06931 0,0.09068 -0.02143,0.02137 -0.06947,-0.02137 -0.09089,0 -0.02143,0.02137 0,0.06045 0,0.09067 -0.0303,0.06045 -0.04299,0.133563 -0.09089,0.181353 -0.02143,0.02137 -0.06947,-0.02137 -0.09089,0 -0.04285,0.04274 0.0271,0.127282 0,0.18135 -0.01916,0.03824 -0.07173,0.05244 -0.09088,0.09068 -0.01356,0.02703 0.02143,0.06931 0,0.09067 -0.02143,0.02137 -0.06948,-0.02137 -0.09089,0 -0.04544,0.04533 0.04544,0.226691 0,0.272027 -0.02143,0.02137 -0.06947,-0.02137 -0.09088,0 -0.02143,0.02137 0.01356,0.06364 0,0.09068 -0.01916,0.03823 -0.07735,0.05013 -0.09089,0.09066 -1.38e-4,5.13e-4 8.6e-5,0.27194 0,0.272027 -0.02143,0.02137 -0.06948,-0.02137 -0.09089,0 -0.0243,0.02423 0.02899,0.395539 0,0.453378 -0.01916,0.03824 -0.07173,0.05244 -0.09089,0.09068 -0.01382,0.02759 0,0.231188 0,0.272025 0,0.181352 0,0.362701 0,0.544054 0,0.604503 0,1.209005 0,1.813509 0,0.211576 0,0.423153 0,0.634729 0,0.09068 0,0.18135 0,0.272027 0,0.03023 -0.006,0.06103 0,0.09067 0.02449,0.122202 0.05658,0.242875 0.09089,0.362701 0.02632,0.09191 0.0721,0.178303 0.09089,0.272027 0.02971,0.148191 -0.02971,0.305187 0,0.453378 0.01328,0.06628 0.06948,0.117234 0.09089,0.181351 0.0096,0.02868 -0.01356,0.06363 0,0.09068 0.01916,0.03822 0.07735,0.05013 0.09088,0.09068 0.03833,0.114697 -0.03832,0.248004 0,0.362702 0.01356,0.04055 0.07735,0.05013 0.09089,0.09068 0.01916,0.05734 -0.0147,0.122706 0,0.181351 0.01643,0.06556 0.0606,0.120901 0.09088,0.181351 0.0303,0.09068 0.0721,0.178303 0.09089,0.272027 0.01188,0.05927 -0.01916,0.124002 0,0.181351 0.01356,0.04055 0.0606,0.06045 0.09089,0.09068 0.0303,0.09068 0.07514,0.177746 0.09089,0.272026 0.01494,0.08945 -0.03375,0.187837 0,0.272027 0.181788,0.453377 0.136341,0 0.272681,0.272026 0.0303,0.09068 0.0606,0.181351 0.09089,0.272026 0.0303,0.03023 0.07173,0.05244 0.09088,0.09069 0.01356,0.02703 0,0.06045 0,0.09068 0,0.06045 -0.01916,0.124002 0,0.181351 0.03481,0.10416 0.217001,0.125805 0.272682,0.18135 0.04285,0.04275 -0.03361,0.131054 0,0.181351 0.04754,0.07113 0.121191,0.120902 0.181785,0.181351 0.0303,0.03023 0.07173,0.05244 0.09089,0.09068 0.04285,0.08549 0.03775,0.192499 0.09089,0.272027 0.01681,0.02515 0.06948,-0.02138 0.09088,0 0.04791,0.04778 0.05331,0.125116 0.09089,0.181351 0.05516,0.08254 0.232399,0.191658 0.272681,0.272027 0.01355,0.02703 -0.02143,0.0693 0,0.09066 0.188062,0.187611 -0.0073,-0.286694 0.181787,0.09068 0.01355,0.02703 -0.02143,0.06931 0,0.09068 0.02143,0.02138 0.06379,-0.01353 0.09089,0 0.167335,0.08347 0.01445,0.188558 0.181787,0.272026 0.0271,0.01353 0.06379,-0.01353 0.09089,0 0.03833,0.01912 0.0606,0.06045 0.09088,0.09068 0.0303,0.03023 0.0606,0.06045 0.09089,0.09067 0.393141,0.392199 -0.02408,0.01421 0.363575,0.272027 0.03565,0.02371 0.05257,0.07156 0.09088,0.09068 0.0271,0.01353 0.0606,0 0.09089,0 0.0606,0.03023 0.125419,0.05318 0.181787,0.09067 0.03565,0.02371 0.05524,0.06697 0.0909,0.09068 0.05636,0.03749 0.127588,0.05013 0.181787,0.09068 0.06856,0.05129 0.110484,0.13393 0.181787,0.18135 0.02521,0.01677 0.0638,-0.01352 0.09089,0 0.09771,0.04874 0.174972,0.132615 0.27268,0.181352 0.183309,0.09144 0.295627,0.0625 0.454468,0.181351 0.06856,0.05129 0.11323,0.130057 0.181787,0.18135 0.05421,0.04055 0.12119,0.06045 0.181786,0.09068 0.426325,0.21265 -0.107119,-0.04274 0.454468,0.181351 0.0629,0.0251 0.117517,0.06931 0.181788,0.09068 0.02875,0.0095 0.06379,-0.01352 0.09088,0 0.03833,0.01912 0.05025,0.07716 0.09089,0.09068 0.05748,0.01912 0.1243,-0.01912 0.181787,0 0.0813,0.02703 0.105133,0.143118 0.181786,0.18135 0.0542,0.02703 0.127589,-0.02703 0.181787,0 0.03833,0.01912 0.05257,0.07156 0.09089,0.09068 0.0271,0.01352 0.06947,-0.02138 0.09089,0 0.02143,0.02138 -0.02143,0.06931 0,0.09068 0.04544,0.04533 0.227234,-0.04533 0.27268,0 0.02143,0.02138 -0.01355,0.06364 0,0.09068 0.189139,0.37737 -0.0063,-0.09694 0.181788,0.09068 0.02143,0.02138 -0.02143,0.06931 0,0.09067 0.04285,0.04274 0.138939,-0.04274 0.181786,0 0.02143,0.02138 -0.02143,0.06931 0,0.09069 0.02143,0.02138 0.06379,-0.01353 0.09089,0 0.03833,0.01912 0.05257,0.07156 0.09089,0.09068 0.0271,0.01353 0.06379,-0.01352 0.09088,0 0.109073,0.05441 0.16361,0.21762 0.272681,0.272026 0.0271,0.01353 0.0606,0 0.0909,0 0.0606,0.03023 0.125417,0.05318 0.181786,0.09068 0.03565,0.02371 0.0606,0.06045 0.0909,0.09068 0.0606,0.03022 0.125416,0.05318 0.181785,0.09068 0.03565,0.02371 0.05257,0.07156 0.09089,0.09068 0.05421,0.02703 0.138939,-0.04274 0.181787,0 0.02143,0.02138 -0.02143,0.06931 0,0.09067 0.02143,0.02138 0.06948,-0.02138 0.09089,0 0.02143,0.02138 -0.02143,0.06931 0,0.09068 0.04544,0.04533 0.227234,-0.04533 0.272681,0 0.0479,0.04778 0.04298,0.133561 0.09089,0.181351 0.04285,0.04274 0.127588,-0.02703 0.181786,0 0.07664,0.03824 0.105144,0.14312 0.181788,0.181351 0.05419,0.02703 0.138939,-0.04274 0.181787,0 0.02143,0.02138 -0.02143,0.06931 0,0.09068 0.01411,0.01408 0.237311,-0.01175 0.272681,0 0.658379,0.218932 -0.143305,-0.02614 0.27268,0.181351 0.0271,0.01352 0.0606,0 0.09089,0 0.09089,0 0.1845,-0.02199 0.272681,0 0.04157,0.0104 0.05257,0.07156 0.09088,0.09068 0.02766,0.01379 0.231746,0 0.272681,0 0.212085,0 0.42417,0 0.636255,0 z"
       id="path4503-2"
       inkscape:connector-curvature="0" />
    <path
       style="fill:#000000;stroke:#000000;stroke-width:0.26458332px;stroke-linecap:butt;stroke-linejoin:miter;stroke-opacity:1;fill-opacity:1"
       d="m 28.531023,14.095767 c -0.498903,0 -0.997807,0 -1.496711,0 -0.05324,0 -0.364601,-0.0064 -0.374176,0 -0.05802,0.03868 -0.03777,0.145255 -0.09355,0.187089 -0.07888,0.05916 -0.19608,0.04281 -0.280632,0.09354 -0.07563,0.04538 -0.105202,0.154334 -0.187089,0.187089 -0.08685,0.03474 -0.193779,-0.03474 -0.280633,0 -0.152283,0.152283 -0.174698,0.21414 -0.374177,0.280633 -0.05916,0.01972 -0.127926,-0.01972 -0.187089,0 -0.06615,0.02205 -0.120942,0.0715 -0.187088,0.09354 -0.02958,0.0099 -0.0715,-0.02205 -0.09354,0 -0.02205,0.02205 0.02205,0.0715 0,0.09355 -0.365078,0.365078 -0.05024,-0.02165 -0.280633,0.09354 -0.03944,0.01972 -0.0541,0.07382 -0.09354,0.09354 -0.0882,0.0441 -0.192439,0.04945 -0.280633,0.09355 -0.287389,0.143694 0.154718,0.05276 -0.187089,0.280633 -0.05189,0.03459 -0.127926,-0.01972 -0.187088,0 -0.08367,0.02789 -0.108206,0.147647 -0.187089,0.187088 -0.02789,0.01394 -0.0715,-0.02205 -0.09354,0 -0.02205,0.02205 0.02789,0.0796 0,0.09355 -0.05578,0.02789 -0.142992,-0.0441 -0.187089,0 -0.0441,0.0441 0.03459,0.135199 0,0.187088 -0.03868,0.05801 -0.129075,0.05487 -0.187089,0.09354 -0.03669,0.02446 -0.05685,0.06908 -0.09354,0.09354 -0.05801,0.03868 -0.137787,0.04424 -0.187089,0.09354 -0.0493,0.0493 -0.05171,0.13131 -0.09354,0.187089 -0.07937,0.105833 -0.207251,0.17056 -0.280633,0.280633 -0.03868,0.05801 -0.05487,0.129075 -0.09354,0.187089 -0.02446,0.03669 -0.06908,0.05685 -0.09354,0.09354 -0.03868,0.05801 -0.05487,0.129075 -0.09354,0.187089 0.0093,0.185316 -0.137787,0.04424 -0.187089,0.09354 -0.0441,0.0441 0.02789,0.13131 0,0.187089 -0.01972,0.03944 -0.0796,0.05171 -0.09354,0.09354 -0.01972,0.05916 0.02789,0.13131 0,0.187089 -0.01395,0.02789 -0.0715,-0.02205 -0.09354,0 -0.0493,0.0493 -0.05171,0.131309 -0.09354,0.187088 -0.05292,0.07056 -0.134172,0.116533 -0.187089,0.187089 -0.189304,0.252406 0.0016,0.153296 -0.187088,0.467722 -0.04538,0.07563 -0.138167,0.113706 -0.187089,0.187088 -0.201033,0.301551 -0.187088,0.257206 -0.187088,0.467722 0,0.03118 0.0099,0.06396 0,0.09354 -0.124726,0.374178 -0.03118,0.03118 -0.280633,0.280633 -0.02205,0.02205 0.0076,0.06329 0,0.09354 -0.02392,0.09566 -0.05692,0.189081 -0.09354,0.280633 -0.0259,0.06474 -0.06765,0.122352 -0.09354,0.187088 -0.03662,0.09155 -0.04945,0.192439 -0.09354,0.280633 -0.05028,0.100557 -0.13131,0.18302 -0.187089,0.280633 -0.235667,0.195041 -0.161489,0.510067 -0.280633,0.748355 -0.304566,0.609132 -0.09375,-0.186473 -0.280633,0.374177 -0.01213,0.0364 0.01452,0.266117 0,0.280633 -0.02205,0.02205 -0.0715,-0.02205 -0.09354,0 -0.01452,0.01452 0.01213,0.244233 0,0.280633 -0.225861,0.677581 0.02697,-0.147482 -0.187089,0.280633 -0.215334,0.430669 -0.0061,0.123883 -0.09354,0.561266 -0.01367,0.06837 -0.0715,0.120943 -0.09355,0.187089 -0.04066,0.121967 -0.05289,0.252211 -0.09354,0.374177 -0.02205,0.06615 -0.07663,0.119447 -0.09354,0.187089 -0.01513,0.0605 0,0.124726 0,0.187089 0,0.124725 0,0.249451 0,0.374177 0,0.03118 0,0.06236 0,0.09354 0,0.03118 0.01394,0.06565 0,0.09354 -0.01972,0.03944 -0.07382,0.0541 -0.09354,0.09354 -0.02789,0.05578 0.01513,0.126588 0,0.187089 -0.02392,0.09566 -0.07421,0.183943 -0.09354,0.280633 -0.01223,0.06115 0,0.124726 0,0.187088 0,0.155908 0,0.311815 0,0.467722 0,0.09354 0.01538,0.188361 0,0.280633 -0.01621,0.09726 -0.07733,0.183371 -0.09354,0.280634 -0.01538,0.09227 0.01538,0.18836 0,0.280633 -0.01621,0.09726 -0.0796,0.183018 -0.09355,0.280633 -0.01764,0.12347 0,0.249452 0,0.374176 0,0.09354 0,0.18709 0,0.280633 0,0.342996 0,0.685993 0,1.028989 0,0.249451 0,0.498903 0,0.748352 0,0.124728 -0.02446,0.251876 0,0.374179 0.0086,0.04324 0.06236,0.06236 0.09355,0.09354 0.03118,0.09355 0.07733,0.183369 0.09354,0.280633 0.01538,0.09227 -0.02269,0.189883 0,0.280633 0.01069,0.04278 0.06236,0.06236 0.09354,0.09355 0.03118,0.06236 0.07663,0.119446 0.09354,0.187087 0.01513,0.0605 -0.01513,0.126587 0,0.187089 0.01691,0.06764 0.06765,0.122352 0.09354,0.18709 0.03662,0.09155 0.05692,0.189079 0.09354,0.280633 0.0259,0.06473 0.0715,0.120941 0.09355,0.187087 0.0099,0.02958 -0.0076,0.06329 0,0.09355 0.02391,0.09566 0.07421,0.183943 0.09354,0.280633 0.01223,0.06115 -0.01972,0.127926 0,0.187087 0.01395,0.04183 0.07382,0.0541 0.09354,0.09355 0.01394,0.02789 0,0.06236 0,0.09354 0.03118,0.06236 0.05487,0.129074 0.09354,0.18709 0.02446,0.03669 0.0796,0.05171 0.09354,0.09354 0.135004,0.405011 -0.178828,-0.03438 0.09354,0.374176 0.114108,0.171162 0.119264,0.0093 0.187089,0.280633 0.01513,0.0605 -0.01513,0.12659 0,0.18709 0.06782,0.271301 0.07298,0.109471 0.187088,0.280633 0.03868,0.05801 0.06765,0.122351 0.09355,0.187089 0.03662,0.09155 0.05692,0.189082 0.09354,0.280633 0.0259,0.06474 0.0715,0.120941 0.09355,0.187087 0.0099,0.02958 -0.0173,0.0676 0,0.09355 0.04892,0.07338 0.138167,0.113705 0.187088,0.18709 0.0173,0.02595 -0.0173,0.0676 0,0.09354 0.04892,0.07338 0.134172,0.116533 0.187089,0.18709 0.04183,0.05578 0.05487,0.129074 0.09354,0.187087 0.04892,0.07338 0.138167,0.113707 0.187089,0.187089 0.03868,0.05801 0.05487,0.129074 0.09354,0.18709 0.04892,0.07338 0.124726,0.124724 0.187089,0.187087 0.09354,0.09355 0.187088,0.187089 0.280633,0.280633 0.03118,0.03118 0.07382,0.0541 0.09354,0.09355 0.01395,0.02789 -0.02205,0.07149 0,0.09354 0.02205,0.02204 0.0715,-0.02204 0.09354,0 0.0493,0.0493 0.04424,0.137787 0.09354,0.18709 0.02205,0.02204 0.06396,-0.0099 0.09354,0 0.06615,0.02204 0.129075,0.05487 0.187089,0.09354 0.07338,0.04892 0.108205,0.147648 0.187089,0.187089 0.02789,0.01394 0.06565,-0.01394 0.09354,0 0.07888,0.03944 0.113706,0.138166 0.187089,0.187087 0.05801,0.03868 0.120942,0.0715 0.187088,0.09355 0.02958,0.0099 0.0715,-0.02204 0.09354,0 0.02205,0.02204 -0.02789,0.0796 0,0.09354 0.05879,0.0294 0.315383,-0.0294 0.374178,0 0.07888,0.03944 0.101527,0.165698 0.187089,0.187089 0.09075,0.0227 0.188905,-0.01834 0.280633,0 0.06837,0.01368 0.122351,0.06765 0.187088,0.09354 0.09155,0.03662 0.183944,0.07421 0.280633,0.09354 0.122304,0.02447 0.255852,-0.03944 0.374177,0 0.04183,0.01394 0.06236,0.06236 0.09354,0.09355 0.09354,0.03118 0.183943,0.0742 0.280633,0.09354 0.09173,0.01834 0.189882,-0.02267 0.280633,0 0.945135,0.236283 -0.06756,-0.03378 0.374177,0.187089 0.02789,0.01394 0.06236,0 0.09355,0 0.06236,0 0.125936,-0.01222 0.187088,0 0.253202,-0.158985 0.241886,0.142992 0.374177,0.187087 0.05916,0.01971 0.127927,-0.01971 0.18709,0 0.04183,0.01394 0.05171,0.0796 0.09354,0.09355 0.05916,0.01971 0.126588,-0.01513 0.18709,0 0.06764,0.01691 0.119446,0.07663 0.187087,0.09354 0.09273,0.02318 0.384889,-0.02761 0.467722,0 0.06615,0.02204 0.119446,0.07663 0.18709,0.09354 0.0969,0.02424 0.266911,0 0.374176,0 0.311814,0 0.623628,0 0.935445,0 0.06236,0 0.124725,0 0.187087,0 0.03118,0 0.06396,-0.0099 0.09355,0 0.06615,0.02204 0.120941,0.0715 0.187087,0.09355 0.05063,0.01688 0.34231,0 0.374179,0 0.06236,0 0.124725,0 0.187087,0 0.03118,0 0.06566,0.01394 0.09355,0 0.03944,-0.01971 0.0541,-0.07382 0.09354,-0.09355 0.30425,-0.152122 0.222512,-0.0236 0.467723,-0.187087 0.03669,-0.02447 0.05685,-0.06909 0.09354,-0.09355 0.05801,-0.03867 0.124725,-0.06236 0.18709,-0.09354 0.06236,-0.03118 0.120941,-0.0715 0.187087,-0.09354 0.02958,-0.0099 0.06566,0.01394 0.09355,0 0.09864,-0.04932 0.08845,-0.137768 0.187087,-0.187089 0.02789,-0.01394 0.06396,0.0099 0.09355,0 0.339124,-0.113041 0.06657,-0.04438 0.280633,-0.18709 0.05801,-0.03867 0.129074,-0.05487 0.187087,-0.09354 0.176064,-0.117377 0.06138,-0.198774 0.280633,-0.374177 0.077,-0.0616 0.20175,-0.03438 0.280632,-0.09355 0.05578,-0.04183 0.05487,-0.129074 0.09355,-0.187087 0.02445,-0.03669 0.06236,-0.06236 0.09354,-0.09355 0.03173,-0.03173 0.443563,-0.419401 0.467722,-0.467719 0.01394,-0.02789 -0.0099,-0.06396 0,-0.09355 0.113041,-0.339125 0.04438,-0.06658 0.187087,-0.280633 0.03868,-0.05801 0.05171,-0.131311 0.09355,-0.187087 0.05292,-0.07056 0.147646,-0.108207 0.18709,-0.18709 0.02789,-0.05578 -0.01971,-0.127926 0,-0.187089 0.01394,-0.04183 0.07382,-0.0541 0.09354,-0.09354 0.0441,-0.08819 0.04945,-0.192439 0.09354,-0.280633 0.09961,-0.199215 0.08748,0.01212 0.187089,-0.187089 0.01394,-0.02789 -0.02204,-0.0715 0,-0.09354 0.02204,-0.02204 0.0715,0.02204 0.09354,0 0.02204,-0.02204 -0.01394,-0.06566 0,-0.09355 0.01971,-0.03944 0.07382,-0.0541 0.09355,-0.09354 0.03742,-0.07484 -0.03742,-0.205798 0,-0.280633 0.01971,-0.03944 0.07382,-0.0541 0.09354,-0.09354 0.0441,-0.0882 0.06963,-0.184972 0.09354,-0.280633 0.0076,-0.03025 -0.0173,-0.0676 0,-0.09355 0.04892,-0.07338 0.138168,-0.113704 0.187089,-0.187087 0.0173,-0.02595 0,-0.06236 0,-0.09355 0.03118,-0.06236 0.04424,-0.137784 0.09354,-0.187086 0.02204,-0.02204 0.07149,0.02204 0.09355,0 0.04409,-0.0441 -0.02789,-0.131311 0,-0.18709 0.01971,-0.03944 0.06908,-0.05685 0.09354,-0.09354 0.07735,-0.116028 0.109736,-0.258152 0.18709,-0.374179 0.02445,-0.03669 0.07382,-0.0541 0.09354,-0.09354 0.01394,-0.02789 -0.0099,-0.06396 0,-0.09354 0.02204,-0.06615 0.07663,-0.119449 0.09354,-0.18709 0.01513,-0.0605 -0.02789,-0.13131 0,-0.187089 0.01394,-0.02789 0.06566,0.01394 0.09355,0 0.03944,-0.01971 0.07382,-0.0541 0.09354,-0.09354 0.02789,-0.05578 -0.02789,-0.13131 0,-0.187089 0.01971,-0.03944 0.06908,-0.05685 0.09354,-0.09354 0.03868,-0.05801 0.06236,-0.124724 0.09355,-0.187089 0.03118,-0.06236 0.0715,-0.120941 0.09354,-0.187087 0.01971,-0.05916 -0.02789,-0.13131 0,-0.18709 0.01971,-0.03944 0.07382,-0.0541 0.09354,-0.09354 0.01394,-0.02789 -0.01394,-0.06566 0,-0.09355 0.01971,-0.03944 0.07382,-0.0541 0.09355,-0.09354 0.01394,-0.02789 -0.0099,-0.06396 0,-0.09354 0.02204,-0.06615 0.07439,-0.120049 0.09354,-0.18709 0.04368,-0.152878 0.0674,-0.31089 0.09354,-0.467722 0.01992,-0.119536 0,-0.252563 0,-0.374176 0,-0.03118 -0.0099,-0.06396 0,-0.09355 0.02204,-0.06614 0.0715,-0.120941 0.09355,-0.187086 0.02806,-0.08419 -0.02806,-0.196443 0,-0.280633 0.02204,-0.06615 0.07149,-0.120944 0.09354,-0.18709 0.02611,-0.07833 -0.01394,-0.276545 0,-0.374176 0.02682,-0.187764 0.0726,-0.372759 0.09354,-0.561266 0.01722,-0.154953 -0.02564,-0.313936 0,-0.467723 0.02114,-0.126814 0.07241,-0.247361 0.09355,-0.374176 0.01537,-0.09227 0,-0.18709 0,-0.280633 0,-0.249452 0,-0.498904 0,-0.748356 0,-0.155907 0,-0.311814 0,-0.467721 0,-0.06236 0.01222,-0.125937 0,-0.187089 -0.01934,-0.09669 -0.06963,-0.184973 -0.09355,-0.280633 -0.0076,-0.03025 0.0076,-0.06329 0,-0.09354 -0.02392,-0.09566 -0.0796,-0.18302 -0.09354,-0.280633 -0.01765,-0.123473 0,-0.249452 0,-0.374178 0,-0.06236 0.01222,-0.125936 0,-0.187088 -0.01934,-0.09669 -0.07421,-0.183944 -0.09354,-0.280633 -0.01222,-0.06115 0,-0.124726 0,-0.187089 -0.03118,-0.09354 -0.06963,-0.184973 -0.09355,-0.280633 -0.01593,-0.06366 0.02559,-0.229475 0,-0.280633 -0.01971,-0.03944 -0.07382,-0.0541 -0.09354,-0.09354 -0.01394,-0.02789 0.02204,-0.0715 0,-0.09355 -0.02204,-0.02205 -0.0796,0.02789 -0.09354,0 -0.09355,-0.187088 0.04677,-0.140316 0,-0.280633 -0.02204,-0.06615 -0.05487,-0.129075 -0.09355,-0.187088 -0.02445,-0.03669 -0.0849,-0.0503 -0.09354,-0.09354 -0.02447,-0.122303 0.0205,-0.251148 0,-0.374177 -0.0611,-0.366569 -0.135178,-0.01054 -0.280633,-0.374177 -0.03474,-0.08685 0.01834,-0.188906 0,-0.280633 -0.06229,-0.311472 -0.133659,-0.08023 -0.280633,-0.374178 -0.02789,-0.05578 0.01513,-0.126587 0,-0.187088 -0.06783,-0.271301 -0.07298,-0.109472 -0.187089,-0.280633 -0.03867,-0.05801 -0.06236,-0.124726 -0.09354,-0.187089 -0.03118,-0.06236 -0.0715,-0.120943 -0.09354,-0.187089 -0.09282,-0.278465 0.221498,0.191935 -0.09355,-0.280633 -0.08648,-0.129722 -0.210908,-0.234729 -0.280633,-0.374177 -0.02789,-0.05578 0.02789,-0.131309 0,-0.187089 -0.03944,-0.07888 -0.141714,-0.111462 -0.187087,-0.187088 -0.05073,-0.08455 -0.04282,-0.196081 -0.09355,-0.280633 -0.04538,-0.07563 -0.13417,-0.116533 -0.187087,-0.187089 -0.08367,-0.111558 -0.109739,-0.25815 -0.18709,-0.374177 -0.02445,-0.03669 -0.07382,-0.0541 -0.09354,-0.09355 -0.01394,-0.02789 0.02204,-0.07149 0,-0.09354 -0.02204,-0.02205 -0.0715,0.02205 -0.09355,0 -0.0441,-0.0441 0.0441,-0.142991 0,-0.187089 -0.02204,-0.02205 -0.06565,0.01395 -0.09354,0 -0.10724,-0.05362 -0.130122,-0.195181 -0.187089,-0.280633 -0.02445,-0.03669 -0.06908,-0.05685 -0.09354,-0.09354 -0.03868,-0.05801 -0.04424,-0.137786 -0.09355,-0.187089 -0.02204,-0.02205 -0.07149,0.02205 -0.09354,0 -0.0493,-0.0493 -0.05171,-0.131309 -0.09354,-0.187088 -0.05292,-0.07056 -0.134173,-0.116533 -0.18709,-0.187089 -0.04183,-0.05578 -0.04424,-0.137787 -0.09354,-0.187089 -0.02204,-0.02205 -0.06236,0 -0.09355,0 -0.03118,-0.06236 -0.04424,-0.137786 -0.09354,-0.187088 -0.02204,-0.02205 -0.06565,0.01394 -0.09354,0 -0.03944,-0.01972 -0.0541,-0.07382 -0.09355,-0.09354 -0.02789,-0.01394 -0.0715,0.02205 -0.09354,0 -0.0441,-0.0441 0.0441,-0.142991 0,-0.187088 -0.02204,-0.02205 -0.0715,0.02205 -0.09354,0 -0.02204,-0.02205 0.02204,-0.0715 0,-0.09354 -0.0493,-0.0493 -0.137787,-0.04424 -0.18709,-0.09354 -0.02204,-0.02205 0.02204,-0.0715 0,-0.09354 -0.02204,-0.02205 -0.06565,0.01394 -0.09354,0 -0.03944,-0.01972 -0.0541,-0.07382 -0.09355,-0.09354 -0.02789,-0.01394 -0.06565,0.01395 -0.09354,0 -0.03944,-0.01972 -0.06236,-0.06236 -0.09354,-0.09354 -0.03118,-0.03118 -0.06909,-0.05685 -0.09355,-0.09354 -0.03867,-0.05801 -0.05487,-0.129075 -0.09354,-0.187089 -0.04892,-0.07338 -0.124724,-0.124726 -0.187089,-0.187089 -0.124725,-0.124725 -0.249452,-0.249451 -0.374177,-0.374177 -0.09354,-0.09354 -0.187089,-0.187089 -0.280633,-0.280633 -0.03118,-0.03118 -0.07382,-0.0541 -0.09354,-0.09354 -0.01394,-0.02789 0.02204,-0.0715 0,-0.09355 -0.02204,-0.02205 -0.0715,0.02205 -0.09355,0 -0.02204,-0.02205 0.02204,-0.0715 0,-0.09354 -0.193546,-0.193547 0.0076,0.295765 -0.187087,-0.09354 -0.01394,-0.02789 0.02204,-0.0715 0,-0.09354 -0.02204,-0.02205 -0.06566,0.01394 -0.09355,0 -0.03944,-0.01972 -0.0541,-0.07382 -0.09354,-0.09354 -0.02789,-0.01394 -0.06565,0.01395 -0.09354,0 -0.03944,-0.01972 -0.0541,-0.07382 -0.09355,-0.09354 -0.05578,-0.02789 -0.142991,0.0441 -0.187087,0 -0.02204,-0.02205 0.02204,-0.0715 0,-0.09354 -0.0441,-0.0441 -0.13131,0.02789 -0.187089,0 -0.03944,-0.01972 -0.0541,-0.07382 -0.09354,-0.09354 -0.07484,-0.03742 -0.205798,0.03742 -0.280633,0 -0.231187,-0.115593 0.03229,-0.09354 -0.187089,-0.09354"
       id="path4522"
       inkscape:connector-curvature="0" />
    <path
       style="fill:#000000;fill-opacity:1;stroke:#000000;stroke-width:0.26458332px;stroke-linecap:butt;stroke-linejoin:miter;stroke-opacity:1"
       d="m 27.034304,15.124747 c 0.02761,-0.199044 -0.761614,0.167197 -0.935439,-0.09354 -0.03459,-0.05189 0.03209,-0.133613 0,-0.187089 -0.06806,-0.113439 -0.187089,-0.187089 -0.280633,-0.280633 -0.06236,-0.187089 -0.09132,-0.388875 -0.187089,-0.561266 -0.06425,-0.115644 -0.195942,-0.179004 -0.280633,-0.280633 -0.395862,0.148845 -0.133982,-0.294518 -0.187088,-0.374177 -0.04892,-0.07338 -0.124726,-0.124726 -0.187089,-0.187089 -0.09354,-0.124726 -0.20042,-0.240488 -0.280633,-0.374177 -0.01604,-0.02674 0.01394,-0.06565 0,-0.09355 -0.01972,-0.03944 -0.06709,-0.05827 -0.09355,-0.09354 -0.06745,-0.08994 -0.13681,-0.180076 -0.187088,-0.280633 -0.01395,-0.02789 0.01158,-0.06459 0,-0.09354 -0.05193,-0.129833 -0.395414,-0.81493 -0.467722,-0.935444 -0.02269,-0.03781 -0.07382,-0.0541 -0.09354,-0.09354 -0.0441,-0.08819 -0.05692,-0.189081 -0.09354,-0.280633 -0.0938,-0.234494 -0.216796,-0.39946 -0.280633,-0.65481 -0.0076,-0.03025 0,-0.06236 0,-0.09354 -0.03118,-0.06236 -0.0715,-0.120943 -0.09355,-0.1870891 -0.0576,-0.1727965 0.14274,-0.044349 -0.09354,-0.280633 -0.02205,-0.022048 -0.0715,0.022048 -0.09354,0 -0.0441,-0.044097 0.0441,-0.1429914 0,-0.1870887 -0.02205,-0.022048 -0.0796,-0.027889 -0.09354,0 -0.187089,0.3741775 0.09354,0.046772 0,0.280633 -0.580057,1.1601138 -0.02382,-0.091807 -0.187089,0.5612658 -0.01691,0.06764 -0.08208,0.118314 -0.09354,0.187089 -0.0205,0.123028 0.0205,0.251148 0,0.374177 -0.01146,0.06878 -0.07149,0.120943 -0.09354,0.187089 -0.04066,0.121967 -0.06833,0.248109 -0.09354,0.374177 -0.01899,0.09495 0.02674,0.293957 0,0.374177 -0.02205,0.06615 -0.0715,0.120943 -0.09354,0.187089 -0.01972,0.05916 0,0.124726 0,0.187089 0,0.155907 0,0.311814 0,0.467721 0,0.03118 0.01394,0.06566 0,0.09355 -0.01972,0.03944 -0.07382,0.0541 -0.09354,0.09354 -0.02701,0.05403 0.02294,0.46949 0,0.561266 -0.01691,0.06764 -0.0715,0.120943 -0.09354,0.187089 -0.03313,0.0994 0.03313,0.274776 0,0.374177 -0.01394,0.04183 -0.0796,0.05171 -0.09355,0.09354 -0.01972,0.05916 0,0.124726 0,0.187089 0,0.0942 0.01724,0.509534 0,0.561266 -0.01395,0.04183 -0.0796,0.05171 -0.09354,0.09354 -0.01972,0.05916 0,0.124726 0,0.187089 0,0.03118 0.01395,0.06565 0,0.09354 -0.01972,0.03944 -0.07382,0.0541 -0.09354,0.09355 -0.02558,0.05116 0.01591,0.216971 0,0.280633 -0.02392,0.09566 -0.07421,0.183943 -0.09354,0.280633 -0.01223,0.06115 0.01972,0.127926 0,0.187088 -0.01394,0.04183 -0.0796,0.05171 -0.09354,0.09355 -0.01972,0.05916 0,0.124725 0,0.187088 0,0.03118 0.01395,0.06565 0,0.09355 -0.01972,0.03944 -0.07382,0.0541 -0.09354,0.09354 -0.01394,0.02789 0,0.06236 0,0.09354 0,0.03118 0,0.06236 0,0.09354 0,0.155907 0,0.311814 0,0.467721 0,0.03118 0.01394,0.06565 0,0.09354 -0.01972,0.03944 -0.0796,0.05171 -0.09355,0.09354 -0.01972,0.05916 0,0.124726 0,0.187089 0,0.03118 0.01395,0.06565 0,0.09354 -0.01972,0.03944 -0.0796,0.05171 -0.09354,0.09354 -0.01724,0.05173 0,0.467062 0,0.561266 0,0.03118 0.01394,0.06565 0,0.09355 -0.01972,0.03944 -0.07382,0.0541 -0.09355,0.09354 -0.01691,0.03383 0,0.402658 0,0.467722 0,0.467721 0,0.935443 0,1.403165 0,0.02269 -0.003,0.277624 0,0.280633 0.02205,0.02205 0.06236,0 0.09355,0 0.03118,0 0.06236,0 0.09354,0 0.03118,0 0.06565,0.01394 0.09355,0 0.03944,-0.01972 0.06236,-0.06236 0.09354,-0.09355 0.06236,-0.06236 0.113706,-0.138167 0.187089,-0.187088 0.02595,-0.0173 0.06565,0.01394 0.09354,0 0.03944,-0.01972 0.0541,-0.07382 0.09354,-0.09354 0.02789,-0.01394 0.0715,0.02205 0.09355,0 0.0441,-0.0441 -0.0441,-0.142991 0,-0.187088 0.02205,-0.02205 0.06565,0.01395 0.09354,0 0.03944,-0.01972 0.0541,-0.07382 0.09354,-0.09355 0.02789,-0.01395 0.0715,0.02205 0.09354,0 0.0493,-0.0493 0.05487,-0.129075 0.09354,-0.187088 0.02593,-0.0389 0.34072,-0.357449 0.374177,-0.374178 0.02789,-0.01395 0.0796,0.02789 0.09354,0 0.02789,-0.05578 -0.02789,-0.131309 0,-0.187088 0.01394,-0.02789 0.0715,0.02205 0.09354,0 0.02205,-0.02205 0,-0.06236 0,-0.09354 0.03118,0 0.0715,0.02205 0.09354,0 0.0493,-0.0493 0.05487,-0.129075 0.09355,-0.187088 0.04892,-0.07338 0.124725,-0.124726 0.187088,-0.187089 0.124726,-0.124726 0.261256,-0.238672 0.374178,-0.374177 0.04464,-0.05356 0.04999,-0.132644 0.09354,-0.187089 0.08264,-0.103302 0.197991,-0.177331 0.280633,-0.280633 0.04356,-0.05445 0.05487,-0.129075 0.09354,-0.187089 0.02446,-0.03669 0.07382,-0.0541 0.09354,-0.09354 0.01395,-0.02789 -0.01394,-0.06566 0,-0.09354 0.01972,-0.03944 0.06908,-0.05685 0.09355,-0.09354 0.03868,-0.05801 0.05487,-0.129075 0.09354,-0.187088 0.02446,-0.03669 0.07382,-0.0541 0.09354,-0.09354 0.01394,-0.02789 -0.01395,-0.06565 0,-0.09354 0.194654,-0.389309 -0.0065,0.100002 0.187088,-0.09354 0.02205,-0.02205 -0.01394,-0.06565 0,-0.09354 0.01972,-0.03944 0.06908,-0.05685 0.09354,-0.09354 0.03868,-0.05801 0.05487,-0.129075 0.09354,-0.187089 -0.0093,-0.185316 0.137786,-0.04424 0.187089,-0.09354 0.02205,-0.02205 -0.02205,-0.0715 0,-0.09354 0.02205,-0.02205 0.0715,0.02205 0.09354,0 0.02205,-0.02205 -0.01394,-0.06566 0,-0.09355 0.01972,-0.03944 0.07382,-0.0541 0.09354,-0.09354 0.01394,-0.02789 -0.02205,-0.0715 0,-0.09354 0.02205,-0.02205 0.06565,0.01395 0.09354,0 0.04996,-0.02498 0.231385,-0.231386 0.280632,-0.280633 0.04925,-0.04925 0.255653,-0.230673 0.280634,-0.280633 0.01394,-0.02789 -0.02205,-0.0715 0,-0.09355 0.0441,-0.0441 0.142991,0.0441 0.187088,0 0.02205,-0.02205 -0.02205,-0.0715 0,-0.09354 0.02014,-0.02014 0.25217,0.02135 0.280633,0 0.105832,-0.07938 0.187086,-0.187091 0.280629,-0.280637 z"
       id="path4524"
       inkscape:connector-curvature="0" />
    <path
       style="fill:#000000;fill-opacity:1;stroke:#000000;stroke-width:0.26458332px;stroke-linecap:butt;stroke-linejoin:miter;stroke-opacity:1"
       d="m 32.646977,16.902042 c -0.218273,-0.342987 -0.484444,-0.659831 -0.654817,-1.028959 -0.02922,-0.06331 0.0715,-0.120943 0.09354,-0.187089 0.0099,-0.02958 -0.01394,-0.06565 0,-0.09354 0.01971,-0.03944 0.0796,-0.05171 0.09355,-0.09355 0.01971,-0.05916 -0.01971,-0.127926 0,-0.187088 0.01394,-0.04184 0.07382,-0.0541 0.09354,-0.09355 0.0441,-0.08819 0.04945,-0.192438 0.09354,-0.280633 0.01971,-0.03944 0.0796,-0.05171 0.09355,-0.09354 0.01971,-0.05916 -0.02789,-0.13131 0,-0.187089 0.01394,-0.02789 0.08368,0.02958 0.09354,0 0.02958,-0.08874 -0.0227,-0.189881 0,-0.280633 0.01069,-0.04278 0.06236,-0.06236 0.09354,-0.09354 0.03118,-0.124726 0.07241,-0.247362 0.09355,-0.374177 0.01024,-0.06151 -0.0346,-0.1352 0,-0.187089 0.03867,-0.05801 0.155905,-0.03118 0.187086,-0.09354 0.07111,-0.14221 0.04987,-0.314845 0.09355,-0.467722 0.03831,-0.134082 0.142991,-0.241886 0.187086,-0.374177 0.0099,-0.02958 -0.01394,-0.06565 0,-0.09354 0.01971,-0.03944 0.0796,-0.05171 0.09355,-0.09354 1.41e-4,-4.23e-4 -8.9e-5,-0.280544 0,-0.280633 0.02204,-0.02205 0.0715,0.02205 0.09354,0 0.0441,-0.0441 -0.02789,-0.13131 0,-0.187089 0.03944,-0.07888 0.147648,-0.108205 0.187089,-0.187088 0.02789,-0.05578 -0.02789,-0.13131 0,-0.187089 0.01971,-0.03944 0.0796,-0.05171 0.09354,-0.09354 0.02122,-0.06364 -0.02479,-0.418121 0,-0.467722 0.01971,-0.03944 0.07382,-0.0541 0.09355,-0.09354 0.01394,-0.02789 0,-0.124726 0,-0.09355 0,1.028988 0,2.057976 0,3.086963 0,0.498903 0,0.997807 0,1.49671 0,0.06236 0,0.124725 0,0.187088 0,0.03118 0.02204,0.0715 0,0.09355 -0.02204,0.02205 -0.0715,-0.02205 -0.09355,0 -0.02,0.02 0.0172,0.322603 0,0.374177 -0.02204,0.06615 -0.0715,0.120943 -0.09354,0.187089 -0.01815,0.05447 0,0.496901 0,0.561266 0,0.342995 0,0.685992 0,1.028987 0,0.03435 0.0038,0.370413 0,0.374178 -0.0038,0.0038 -0.339825,0 -0.374179,0 -0.0441,0 -0.463481,0.0042 -0.467719,0 -0.02204,-0.02205 0.02204,-0.0715 0,-0.09355 -0.02204,-0.02205 -0.0715,0.02205 -0.09355,0 -0.0493,-0.0493 -0.05487,-0.129075 -0.09354,-0.187088 -0.02445,-0.03669 -0.06236,-0.06236 -0.09354,-0.09354 -0.03118,-0.06236 -0.05487,-0.129075 -0.09355,-0.187088 -0.02445,-0.03669 -0.07382,-0.0541 -0.09354,-0.09355 -0.02789,-0.05578 0.0441,-0.142991 0,-0.187088 -0.02204,-0.02205 -0.0715,0.02205 -0.09354,0 -0.01913,-0.01912 0.01855,-0.243544 0,-0.280633 -0.01971,-0.03944 -0.07382,-0.0541 -0.09355,-0.09354 -0.0123,-0.02459 0,-0.325261 0,-0.374177 0,-0.03118 -0.02204,-0.0715 0,-0.09354 0.02204,-0.02205 0.06236,0 0.09355,0 0.269859,0 0.149889,-0.0248 0.467727,0.18706 z"
       id="path4526"
       inkscape:connector-curvature="0" />
    <path
       style="fill:#d1d1d1;stroke:#000000;stroke-width:0.26458332px;stroke-linecap:butt;stroke-linejoin:miter;stroke-opacity:1;fill-opacity:1"
       d="m 24.789248,29.717672 c 0.151253,0.137287 -0.03781,0.316468 0,0.467722 0.02392,0.09566 0.07421,0.183941 0.09354,0.280633 0.01835,0.09173 -0.02958,0.191889 0,0.280633 0.02205,0.06615 0.0715,0.120941 0.09354,0.187087 0.0099,0.02958 -0.0051,0.06279 0,0.09355 0.02614,0.156829 0.07382,0.309954 0.09354,0.46772 0.106397,0.851178 -0.121138,-0.176327 0.09354,0.467722 0.01972,0.05916 -0.02789,0.13131 0,0.18709 0.01972,0.03944 0.07382,0.0541 0.09354,0.09354 0.01854,0.03709 -0.01912,0.261509 0,0.280633 0.02205,0.02204 0.0715,0.02204 0.09355,0 0.0493,-0.0493 0.06236,-0.124724 0.09354,-0.187089 0.03118,-0.06236 0.0715,-0.120941 0.09354,-0.187087 0.0099,-0.02958 -0.01394,-0.06566 0,-0.09355 0.214058,-0.428115 -0.03877,0.396949 0.187089,-0.280633 0.0099,-0.02958 -0.0099,-0.06396 0,-0.09354 0.02205,-0.06615 0.0715,-0.120943 0.09354,-0.187089 0.0099,-0.02958 -0.02205,-0.0715 0,-0.09354 0.02205,-0.02204 0.0796,0.02789 0.09355,0 0.02789,-0.05578 -0.02789,-0.13131 0,-0.187089 0.01394,-0.02789 0.07149,0.02204 0.09354,0 0.0441,-0.0441 -0.02789,-0.13131 0,-0.187087 0.01972,-0.03944 0.07382,-0.0541 0.09354,-0.09355 0.01394,-0.02789 -0.01395,-0.06565 0,-0.09354 0.01972,-0.03944 0.07382,-0.0541 0.09354,-0.09354 0.01854,-0.03709 -0.01912,-0.261512 0,-0.280633 0.02205,-0.02204 0.0715,0.02204 0.09354,0 0.02205,-0.02204 0,-0.06236 0,-0.09355 0.03118,0 0.0715,0.02204 0.09354,0 0.04677,-0.04677 -0.04677,-0.23386 0,-0.280633 0.02205,-0.02204 0.0715,0.02204 0.09354,0 0.02204,-0.02204 0.02204,-0.0715 0,-0.09354 -0.02205,-0.02204 -0.06565,0.01394 -0.09354,0 -0.03944,-0.01971 -0.0541,-0.07382 -0.09354,-0.09354 -0.04162,-0.02082 -0.331391,0.01426 -0.374177,0 -0.04184,-0.01394 -0.0541,-0.07382 -0.09355,-0.09355 -0.02847,-0.01423 -0.238504,0 -0.280633,0 -0.09221,0 -0.279296,0 -0.187088,0 0.06236,0 0.249451,0 0.187088,0 -0.09354,0 -0.187088,0 -0.280633,0 -0.03118,0 -0.0715,0.02204 -0.09354,0 -0.02205,-0.02204 0.03025,-0.08598 0,-0.09354 -0.121002,-0.03025 -0.249452,0 -0.374178,0 z"
       id="path4528"
       inkscape:connector-curvature="0" />
    <path
       style="fill:#d1d1d1;fill-opacity:1;stroke:#000000;stroke-width:0.26458332px;stroke-linecap:butt;stroke-linejoin:miter;stroke-opacity:1"
       d="m 27.344293,29.843308 c 0.151253,0.137287 -0.03781,0.316468 0,0.467722 0.02392,0.09566 0.07421,0.183941 0.09354,0.280633 0.01835,0.09173 -0.02958,0.191889 0,0.280633 0.02205,0.06615 0.0715,0.120941 0.09354,0.187087 0.0099,0.02958 -0.0051,0.06279 0,0.09355 0.02614,0.156829 0.07382,0.309954 0.09354,0.46772 0.106397,0.851178 -0.121138,-0.176327 0.09354,0.467722 0.01972,0.05916 -0.02789,0.13131 0,0.18709 0.01972,0.03944 0.07382,0.0541 0.09354,0.09354 0.01854,0.03709 -0.01912,0.261509 0,0.280633 0.02205,0.02204 0.0715,0.02204 0.09355,0 0.0493,-0.0493 0.06236,-0.124724 0.09354,-0.187089 0.03118,-0.06236 0.0715,-0.120941 0.09354,-0.187087 0.0099,-0.02958 -0.01394,-0.06566 0,-0.09355 0.214058,-0.428115 -0.03877,0.396949 0.187089,-0.280633 0.0099,-0.02958 -0.0099,-0.06396 0,-0.09354 0.02205,-0.06615 0.0715,-0.120943 0.09354,-0.187089 0.0099,-0.02958 -0.02205,-0.0715 0,-0.09354 0.02205,-0.02204 0.0796,0.02789 0.09355,0 0.02789,-0.05578 -0.02789,-0.13131 0,-0.187089 0.01394,-0.02789 0.07149,0.02204 0.09354,0 0.0441,-0.0441 -0.02789,-0.13131 0,-0.187087 0.01972,-0.03944 0.07382,-0.0541 0.09354,-0.09355 0.01394,-0.02789 -0.01395,-0.06565 0,-0.09354 0.01972,-0.03944 0.07382,-0.0541 0.09354,-0.09354 0.01854,-0.03709 -0.01912,-0.261512 0,-0.280633 0.02205,-0.02204 0.0715,0.02204 0.09354,0 0.02205,-0.02204 0,-0.06236 0,-0.09355 0.03118,0 0.0715,0.02204 0.09354,0 0.04677,-0.04677 -0.04677,-0.23386 0,-0.280633 0.02205,-0.02204 0.0715,0.02204 0.09354,0 0.02204,-0.02204 0.02204,-0.0715 0,-0.09354 -0.02205,-0.02204 -0.06565,0.01394 -0.09354,0 -0.03944,-0.01971 -0.0541,-0.07382 -0.09354,-0.09354 -0.04162,-0.02082 -0.331391,0.01426 -0.374177,0 -0.04184,-0.01394 -0.0541,-0.07382 -0.09355,-0.09355 -0.02847,-0.01423 -0.238504,0 -0.280633,0 -0.09221,0 -0.279296,0 -0.187088,0 0.06236,0 0.249451,0 0.187088,0 -0.09354,0 -0.187088,0 -0.280633,0 -0.03118,0 -0.0715,0.02204 -0.09354,0 -0.02205,-0.02204 0.03025,-0.08598 0,-0.09354 -0.121002,-0.03025 -0.249452,0 -0.374178,0 z"
       id="path4528-1"
       inkscape:connector-curvature="0" />
    <path
       style="fill:#d1d1d1;fill-opacity:1;stroke:#000000;stroke-width:0.11141554px;stroke-linecap:butt;stroke-linejoin:miter;stroke-opacity:1"
       d="m 25.34813,21.501309 c -0.131304,0.02626 -0.262608,0.05252 -0.393913,0.07878 -0.01313,0 -0.03011,-0.0093 -0.03939,0 -0.0093,0.0093 0.01175,0.03352 0,0.03939 -0.02349,0.01175 -0.05529,-0.01175 -0.07878,0 -0.01175,0.0059 0.0059,0.02764 0,0.03939 -0.0083,0.01661 -0.02278,0.03108 -0.03939,0.03939 -0.01175,0.0059 -0.02764,-0.0059 -0.03939,0 -0.01273,0.0064 -0.145609,0.13963 -0.157565,0.157565 -0.122732,0.184097 0.07714,-0.04718 -0.118174,0.196957 -0.04951,0.06189 -0.101728,0.07533 -0.118174,0.157565 -0.0077,0.03863 0.0077,0.07955 0,0.118174 -0.0057,0.02879 -0.03227,0.0503 -0.03939,0.07878 -0.0064,0.02548 0,0.05252 0,0.07878 0,0.09191 0,0.183827 0,0.27574 0,0.02226 -0.0086,0.184012 0,0.196957 0.0051,0.0077 0.19017,0.193563 0.196956,0.196956 0.02349,0.01175 0.05529,-0.01175 0.07878,0 0.03322,0.01661 0.04788,0.05818 0.07878,0.07878 0.01093,0.0073 0.02626,0 0.03939,0 0.02626,0 0.05252,0 0.07878,0 0.05252,0 0.105043,0 0.157566,0 0.07878,0 0.157565,0 0.236347,0 0.01313,0 0.03011,0.0093 0.03939,0 0.0093,-0.0093 -0.0093,-0.03011 0,-0.03939 0.02076,-0.02076 0.05529,-0.02178 0.07878,-0.03939 0.02971,-0.02229 0.05252,-0.05252 0.07878,-0.07878 0.02626,-0.02626 0.05501,-0.05025 0.07878,-0.07878 0.04203,-0.05043 0.07716,-0.106299 0.118174,-0.157565 0.0116,-0.0145 0.02909,-0.02394 0.03939,-0.03939 0.01629,-0.02443 0.02626,-0.05252 0.03939,-0.07878 0.02626,-0.03939 0.05252,-0.07878 0.07878,-0.118174 0.05252,-0.07878 0.100755,-0.1606 0.157566,-0.236348 0.09223,-0.122973 -0.0047,0.110218 0.118173,-0.196957 0.0048,-0.01219 -0.0042,-0.02693 0,-0.03939 0.09511,-0.285328 -0.01136,0.06211 0.07878,-0.118175 0.0059,-0.01168 0,-0.198247 0,-0.236348 0,-0.01313 0.0093,-0.03011 0,-0.03939 -0.0093,-0.0093 -0.03352,0.01175 -0.03939,0 -0.01175,-0.02349 0.01457,-0.05694 0,-0.07878 -0.01629,-0.02443 -0.05802,-0.01863 -0.07878,-0.03939 -0.0093,-0.0093 0.0093,-0.03011 0,-0.03939 -0.0093,-0.0093 -0.02693,0.0042 -0.03939,0 -0.02786,-0.0093 -0.05093,-0.03011 -0.07878,-0.0394 -0.01245,-0.0042 -0.02764,0.0059 -0.03939,0 -0.03321,-0.01661 -0.04556,-0.06217 -0.07878,-0.07878 -0.03151,-0.01576 -0.08666,0.01576 -0.118174,0 -0.01661,-0.0083 -0.02278,-0.03108 -0.03939,-0.03939 -0.01175,-0.0059 -0.02626,0 -0.0394,0 -0.01313,0 -0.02626,0 -0.03939,0"
       id="path4547"
       inkscape:connector-curvature="0" />
    <path
       style="fill:#d1d1d1;fill-opacity:1;stroke:#000000;stroke-width:0.16834781px;stroke-linecap:butt;stroke-linejoin:miter;stroke-opacity:1"
       d="m 31.235665,21.649939 c -0.245872,0.03924 -0.221068,0.04251 -0.35712,0.17856 -0.03968,0.03968 -0.07235,0.08791 -0.119041,0.11904 -0.01651,0.01101 -0.04549,-0.01403 -0.05952,0 -0.03137,0.03137 -0.03491,0.08213 -0.05952,0.119039 -0.01556,0.02334 -0.04395,0.03617 -0.05952,0.05952 -0.04922,0.07383 -0.0658,0.167098 -0.11904,0.23808 -0.03367,0.0449 -0.08791,0.07235 -0.119038,0.11904 -0.01101,0.01651 0.0063,0.0407 0,0.05952 -0.01402,0.04209 -0.03491,0.08213 -0.05952,0.11904 -0.01556,0.02335 -0.05065,0.0329 -0.05952,0.05952 -0.05952,0.178559 0.02976,0.05952 0,0.178559 -0.01522,0.06087 -0.04722,0.117039 -0.05952,0.17856 -0.0078,0.03891 0,0.07936 0,0.11904 0,0.13888 0,0.27776 0,0.41664 0,0.01444 -0.0019,0.176646 0,0.178559 0.01761,0.01761 0.201211,-0.01843 0.238079,0 0.02509,0.01255 0.0329,0.05065 0.05952,0.05952 0.03764,0.01255 0.07936,0 0.11904,0 0.0992,0 0.1984,0 0.2976,0 0.03179,0 0.280565,0.0085 0.297599,0 0.07588,-0.03794 0.07071,-0.118148 0.11904,-0.17856 0.05258,-0.06573 0.125977,-0.112831 0.17856,-0.17856 0.02772,-0.03464 0.03669,-0.081 0.05952,-0.119039 0.0368,-0.06134 0.07612,-0.121333 0.11904,-0.17856 0.01684,-0.02245 0.05065,-0.0329 0.05952,-0.05952 0.01254,-0.03764 -0.0096,-0.08055 0,-0.11904 -0.03587,-0.107728 0.09642,-0.110697 0.119041,-0.17856 0.01254,-0.03764 -0.0096,-0.08055 0,-0.11904 0.01076,-0.04304 0.04549,-0.07695 0.05952,-0.11904 0.0063,-0.01882 -0.0063,-0.0407 0,-0.05952 0.01402,-0.04209 0.04549,-0.07695 0.05952,-0.11904 0.01246,-0.03736 0,-0.190164 0,-0.23808 0,-0.04685 0.0048,-0.29282 0,-0.2976 -0.02806,-0.02806 -0.08355,0.01775 -0.11904,0 -0.0251,-0.01255 -0.03442,-0.04697 -0.05952,-0.05952 -0.01775,-0.0089 -0.0407,0.0063 -0.05952,0 -0.205178,-0.06839 -0.04409,-0.05952 -0.17856,-0.05952"
       id="path4549"
       inkscape:connector-curvature="0" />
  </g>
  <g
     inkscape:label="Capa 1"
     inkscape:groupmode="layer"
     id="layer1"
     transform="translate(0,-244.08332)" />
</svg>
