<?xml version="1.0" encoding="UTF-8" standalone="no"?>
<!-- Created with Inkscape (http://www.inkscape.org/) -->

<svg
   xmlns:dc="http://purl.org/dc/elements/1.1/"
   xmlns:cc="http://creativecommons.org/ns#"
   xmlns:rdf="http://www.w3.org/1999/02/22-rdf-syntax-ns#"
   xmlns:svg="http://www.w3.org/2000/svg"
   xmlns="http://www.w3.org/2000/svg"
   xmlns:sodipodi="http://sodipodi.sourceforge.net/DTD/sodipodi-0.dtd"
   xmlns:inkscape="http://www.inkscape.org/namespaces/inkscape"
   width="200"
   height="200"
   viewBox="0 0 52.916666 52.916668"
   version="1.1"
   id="svg8"
   inkscape:version="0.92.1 r15371"
   sodipodi:docname="cara7.svg">
  <defs
     id="defs2">
    <clipPath
       clipPathUnits="userSpaceOnUse"
       id="clipPath6802">
      <g
         inkscape:label="Clip"
         id="use6804">
        <rect
           y="817.21985"
           x="30.578131"
           height="430.9921"
           width="1494.3568"
           id="rect12595"
           style="opacity:1;vector-effect:none;fill:#ffffff;fill-opacity:1;stroke:none;stroke-width:2.81672454;stroke-linecap:butt;stroke-linejoin:miter;stroke-miterlimit:4;stroke-dasharray:none;stroke-dashoffset:0;stroke-opacity:0.48743723;paint-order:normal" />
        <rect
           y="529.67999"
           x="-1147.442"
           height="430.9921"
           width="1494.3568"
           id="rect12597"
           style="opacity:1;vector-effect:none;fill:#ffffff;fill-opacity:1;stroke:none;stroke-width:2.81672454;stroke-linecap:butt;stroke-linejoin:miter;stroke-miterlimit:4;stroke-dasharray:none;stroke-dashoffset:0;stroke-opacity:0.48743723;paint-order:normal" />
      </g>
    </clipPath>
    <clipPath
       clipPathUnits="userSpaceOnUse"
       id="clipPath6815">
      <g
         id="use6817"
         inkscape:label="Clip">
        <rect
           style="opacity:1;vector-effect:none;fill:#ffffff;fill-opacity:1;stroke:none;stroke-width:2.81672454;stroke-linecap:butt;stroke-linejoin:miter;stroke-miterlimit:4;stroke-dasharray:none;stroke-dashoffset:0;stroke-opacity:0.48743723;paint-order:normal"
           id="rect12583"
           width="1494.3568"
           height="430.9921"
           x="1031.8348"
           y="486.918" />
        <g
           id="g12591"
           clip-path="url(#clipPath6802)">
          <g
             inkscape:label="Clip"
             id="g12589">
            <rect
               y="817.21985"
               x="30.578131"
               height="430.9921"
               width="1494.3568"
               id="rect12585"
               style="opacity:1;vector-effect:none;fill:#ffffff;fill-opacity:1;stroke:none;stroke-width:2.81672454;stroke-linecap:butt;stroke-linejoin:miter;stroke-miterlimit:4;stroke-dasharray:none;stroke-dashoffset:0;stroke-opacity:0.48743723;paint-order:normal" />
            <rect
               y="529.67999"
               x="-1147.442"
               height="430.9921"
               width="1494.3568"
               id="rect12587"
               style="opacity:1;vector-effect:none;fill:#ffffff;fill-opacity:1;stroke:none;stroke-width:2.81672454;stroke-linecap:butt;stroke-linejoin:miter;stroke-miterlimit:4;stroke-dasharray:none;stroke-dashoffset:0;stroke-opacity:0.48743723;paint-order:normal" />
          </g>
        </g>
      </g>
    </clipPath>
    <clipPath
       clipPathUnits="userSpaceOnUse"
       id="clipPath12623">
      <rect
         style="opacity:1;vector-effect:none;fill:#ffffff;fill-opacity:1;stroke:none;stroke-width:3.11010909;stroke-linecap:butt;stroke-linejoin:miter;stroke-miterlimit:4;stroke-dasharray:none;stroke-dashoffset:0;stroke-opacity:0.48743723;paint-order:normal"
         id="rect12625"
         width="684.04071"
         height="159.69821"
         x="-1028.1637"
         y="657.59601"
         transform="scale(-1,1)" />
    </clipPath>
    <clipPath
       clipPathUnits="userSpaceOnUse"
       id="clipPath12627">
      <rect
         style="opacity:1;vector-effect:none;fill:#ffffff;fill-opacity:1;stroke:none;stroke-width:3.11010909;stroke-linecap:butt;stroke-linejoin:miter;stroke-miterlimit:4;stroke-dasharray:none;stroke-dashoffset:0;stroke-opacity:0.48743723;paint-order:normal"
         id="rect12629"
         width="684.04071"
         height="159.69821"
         x="-1028.1637"
         y="657.59601"
         transform="scale(-1,1)" />
    </clipPath>
    <clipPath
       clipPathUnits="userSpaceOnUse"
       id="clipPath12631">
      <rect
         style="opacity:1;vector-effect:none;fill:#ffffff;fill-opacity:1;stroke:none;stroke-width:3.11010909;stroke-linecap:butt;stroke-linejoin:miter;stroke-miterlimit:4;stroke-dasharray:none;stroke-dashoffset:0;stroke-opacity:0.48743723;paint-order:normal"
         id="rect12633"
         width="684.04071"
         height="159.69821"
         x="-1028.1637"
         y="657.59601"
         transform="scale(-1,1)" />
    </clipPath>
    <clipPath
       clipPathUnits="userSpaceOnUse"
       id="clipPath12781">
      <path
         style="fill:none;stroke:#000000;stroke-width:6.04496717px;stroke-linecap:butt;stroke-linejoin:miter;stroke-opacity:1"
         d="m 663.64542,303.92944 c -0.38143,0.50886 -0.69517,1.07681 -1.14491,1.52658 -0.2013,0.20118 -0.53559,0.21097 -0.7633,0.38168 -0.28774,0.21587 -0.47513,0.54737 -0.7633,0.7633 -0.22729,0.17065 -0.51926,0.23527 -0.7633,0.38162 -0.78663,0.47199 -1.5032,1.05461 -2.28983,1.52659 -0.24422,0.14635 -0.56218,0.1805 -0.7633,0.38168 -0.32461,0.32431 -0.43886,0.82059 -0.7633,1.14493 -1.21945,1.21942 -1.82001,1.40905 -3.05319,2.28988 -0.81909,0.58509 -1.77208,1.39427 -2.67151,1.90822 -2.23682,1.27818 -1.23106,0.27904 -3.81649,2.28989 -0.42617,0.33138 -0.69584,0.84555 -1.14492,1.14494 -0.33489,0.22312 -0.7633,0.25443 -1.14491,0.38168 -0.38144,0.25443 -0.78682,0.47676 -1.14498,0.76329 -0.56218,0.44956 -0.9646,1.07702 -1.52654,1.52658 -0.35846,0.28653 -0.75163,0.5273 -1.14497,0.76329 -0.24422,0.14635 -0.56219,0.1805 -0.7633,0.38162 -0.32462,0.32437 -0.4697,0.79258 -0.7633,1.14494 -0.34577,0.41462 -0.79939,0.73031 -1.14492,1.14494 -0.51986,0.62403 -0.78639,1.4641 -1.52659,1.90823 -0.34517,0.20697 -0.86044,0.0972 -1.14492,0.38167 -0.28472,0.28448 -0.14024,0.82312 -0.38144,1.14495 -0.17046,0.22759 -0.51926,0.23527 -0.76329,0.38167 -0.39353,0.236 -0.82061,0.43893 -1.14492,0.7633 -0.2013,0.20111 -0.25449,0.50886 -0.38144,0.76329 -0.25449,0.12724 -0.53558,0.21097 -0.7633,0.38168 -0.28713,0.21544 -1.69277,1.62096 -1.90827,1.90822 -0.17047,0.2276 -0.18075,0.56219 -0.38144,0.7633 -0.2013,0.20117 -0.56218,0.1805 -0.7633,0.38168 -0.20129,0.20111 -0.22366,0.52657 -0.38143,0.76329 -0.0997,0.14967 -0.2545,0.25443 -0.38144,0.38168 -0.30648,0.30648 -1.68782,1.57758 -1.90822,1.90822 -0.0707,0.10584 0.0707,0.27577 0,0.38168 -0.48903,0.73393 -1.41893,1.1743 -1.90821,1.90822 -0.0707,0.10585 0.0901,0.29167 0,0.38168 -0.2013,0.20112 -0.59241,0.15409 -0.7633,0.38162 -0.24119,0.32184 -0.2019,0.78511 -0.38144,1.14493 -0.0804,0.16092 -0.28169,0.23195 -0.38143,0.38162 -0.15778,0.23666 -0.21097,0.5357 -0.38144,0.76329 -0.43161,0.57572 -1.07703,0.96464 -1.52654,1.52659 -1.12539,1.40669 -0.43161,0.71914 -1.14497,1.90823 -0.23576,0.39334 -0.52713,0.75162 -0.7633,1.14494 -0.14629,0.24391 -0.21097,0.5357 -0.38144,0.76329 -0.21581,0.28786 -0.60268,0.44146 -0.7633,0.76329 -0.11364,0.2276 0.11365,0.53571 0,0.76329 -0.16079,0.32183 -0.54767,0.47544 -0.7633,0.76329 -0.93751,0.13607 -0.15837,0.81022 -0.38143,1.14494 -0.19949,0.29941 -0.60208,0.44147 -0.7633,0.7633 -0.11365,0.22759 0.0804,0.52192 0,0.76329 -0.0544,0.17065 -0.30104,0.2207 -0.38144,0.38162 -0.18014,0.3598 -0.23213,0.77141 -0.38144,1.14493 -0.10578,0.2641 -0.27625,0.49919 -0.38143,0.76329 -0.14931,0.37352 -0.20191,0.78512 -0.38144,1.14494 -0.20493,0.41027 -0.55795,0.73469 -0.7633,1.14495 -0.41408,0.82836 -0.34879,1.84315 -0.7633,2.67151 -0.16079,0.32184 -0.62964,0.42919 -0.7633,0.7633 -0.14205,0.35436 0.075,0.7707 0,1.14494 -0.0544,0.27892 -0.27625,0.49919 -0.38143,0.76329 -0.14931,0.37352 -0.23213,0.77142 -0.38144,1.14494 -0.10579,0.2641 -0.32582,0.48432 -0.38144,0.76329 -0.075,0.37424 0.075,0.77071 0,1.14494 -0.0544,0.27891 -0.27625,0.49919 -0.38143,0.76329 -1.10684,2.76716 0.0242,-0.13069 -0.38144,1.90823 -0.0786,0.39449 -0.30286,0.75046 -0.38144,1.14494 -0.0484,0.24948 0,0.50887 0,0.76329 v 1.14494 3.43482 c 0,0.50886 0.0997,1.0276 0,1.52658 -0.0792,0.39449 -0.28411,0.75466 -0.38144,1.14494 -0.0302,0.12344 0,0.25443 0,0.38162 v 1.14493 3.05318 2.67151 c 0,0.38168 -0.0544,0.76713 0,1.14495 0.0744,0.51926 0.2956,1.0092 0.38144,1.52659 0.0423,0.25098 -0.0617,0.51648 0,0.76328 0.0689,0.27595 0.32582,0.48432 0.38144,0.76329 0.075,0.37425 -0.075,0.77071 0,1.14494 0.0544,0.27892 0.31252,0.48735 0.38144,0.7633 0.0616,0.24681 0,0.50886 0,0.76329 v 2.67152 c 0,0.50887 -0.0997,1.0276 0,1.52659 0.0792,0.3945 0.30285,0.75046 0.38143,1.14493 0.0484,0.24948 -0.0617,0.51648 0,0.76329 0.0689,0.27596 0.31253,0.48735 0.38144,0.7633 0.0617,0.24681 -0.0484,0.51382 0,0.76329 0.0792,0.3945 0.30285,0.75046 0.38144,1.14494 0.0484,0.24948 0,0.50887 0,0.7633 v 1.14493 c 0,0.38162 -0.0629,0.76849 0,1.14494 0.0659,0.39679 0.28411,0.75466 0.38143,1.14494 0.0302,0.12344 0,0.25444 0,0.38162 0.12755,0.38168 0.28412,0.75466 0.38144,1.14495 0.0901,0.35919 -0.0901,0.78574 0,1.14494 0.0689,0.27595 0.32583,0.48432 0.38144,0.76329 0.075,0.37425 0,0.76329 0,1.14493 v 1.90824 c 0,0.25443 -0.0617,0.51648 0,0.76329 0.0689,0.27595 0.31252,0.48735 0.38144,0.76329 0.14991,0.60014 -0.12151,1.30059 0,1.90823 0.10276,0.51431 0.23756,1.02224 0.38143,1.52659 0.11063,0.38682 0.31555,0.74812 0.38144,1.14493 0.16745,1.00388 -0.14387,2.04568 0,3.05318 0.0423,0.28157 0.27626,0.49919 0.38144,0.76329 0.14931,0.37352 0.31555,0.74812 0.38144,1.14493 0.0629,0.37648 0,0.76329 0,1.14494 0.12694,0.38168 0.30285,0.75046 0.38143,1.14494 0.1203,0.60033 -0.1487,1.31454 0,1.90823 0.0689,0.27595 0.31253,0.48734 0.38144,0.76329 0.0617,0.24682 -0.0804,0.52192 0,0.76329 0.0544,0.17065 0.32462,0.21097 0.38144,0.38168 0.0804,0.24138 -0.0617,0.51648 0,0.7633 0.0689,0.27595 0.27565,0.49919 0.38144,0.76329 0.14931,0.37352 0.23212,0.77142 0.38143,1.14494 0.10579,0.26411 0.32583,0.48432 0.38144,0.76329 0.075,0.37424 -0.075,0.7707 0,1.14494 0.0955,0.47604 1.01646,1.65132 1.14492,1.90823 0.18014,0.3598 0.2019,0.78512 0.38144,1.14494 0.41045,0.82051 1.11632,1.46936 1.52659,2.28988 0.0544,0.11376 -0.0544,0.26785 0,0.38162 0.20493,0.41027 0.59301,0.71906 0.7633,1.14494 0.0943,0.23624 -0.13118,0.54514 0,0.7633 0.27746,0.4628 0.84551,0.69584 1.14492,1.14494 0.22306,0.33471 0.23212,0.77141 0.38143,1.14493 0.10579,0.2641 0.22367,0.52657 0.38144,0.76329 0.35303,0.52923 0.77521,1.00899 1.14492,1.52659 0.26658,0.37327 0.47695,0.78677 0.7633,1.14494 0.22487,0.28097 0.58454,0.45089 0.76329,0.76328 0.33973,0.59483 0.35243,1.36018 0.7633,1.90824 0.38144,0.50886 1.07679,0.69517 1.5266,1.14494 0.64868,0.64867 0.95347,1.57353 1.52659,2.28987 0.22488,0.28097 0.50899,0.50887 0.76324,0.7633 0.38144,0.38162 0.7633,0.76329 1.14498,1.14494 0.25449,0.25443 0.54707,0.47543 0.7633,0.76328 0.17046,0.2276 0.18074,0.56219 0.38143,0.7633 0.32462,0.32431 0.82061,0.43892 1.14498,0.76329 0.32462,0.32431 0.47695,0.78677 0.76324,1.14494 0.44974,0.56194 1.0948,0.95088 1.52659,1.52659 0.17047,0.22759 0.18075,0.56212 0.38144,0.76328 0.32401,0.32432 0.85125,0.41094 1.14492,0.76328 1.63752,3.27504 -0.24966,0.13238 1.90821,2.28989 1.52134,1.52134 -1.28304,-0.0363 1.14498,1.90822 0.31434,0.25147 0.82308,0.14024 1.14492,0.38143 0.45518,0.34154 0.36088,1.12431 0.7633,1.52654 0.20129,0.2013 0.53558,0.21097 0.76329,0.38144 2.33705,2.33704 -0.64366,-0.483 1.5266,1.14491 0.57548,0.43161 0.95087,1.09481 1.5266,1.5266 0.22729,0.17047 0.51926,0.23515 0.76323,0.38144 0.39353,0.23575 0.7633,0.50898 1.14498,0.76323 0.38144,0.2545 0.78675,0.47695 1.14492,0.7633 0.28109,0.22488 0.48239,0.53861 0.76329,0.7633 2.40723,1.92581 0.0653,-0.31615 1.90822,1.5266 0.25449,0.25449 0.50899,0.50898 0.7633,0.76329 0.25449,0.2545 0.45458,0.5779 0.7633,0.7633 0.34516,0.20674 0.79999,0.1747 1.14491,0.38144 0.3083,0.18498 0.47514,0.54767 0.7633,0.7633 0.22729,0.17047 0.53558,0.21097 0.7633,0.38144 0.28774,0.2158 0.45458,0.57789 0.7633,0.76329 0.34516,0.20674 0.77145,0.23213 1.14497,0.38144 0.26417,0.10579 0.50899,0.25449 0.76324,0.38144 0.25449,0.12694 0.56218,0.18074 0.7633,0.38144 0.2013,0.20129 0.12755,0.63605 0.38144,0.76329 0.34154,0.17047 0.79056,-0.14145 1.14491,0 0.33429,0.1336 0.47514,0.54768 0.7633,0.7633 0.22729,0.17047 0.51926,0.23515 0.7633,0.38144 0.39353,0.23575 0.7347,0.55795 1.14492,0.7633 0.35967,0.18014 0.77145,0.23212 1.14497,0.38143 0.26417,0.10579 0.50899,0.2545 0.7633,0.38144 0.25449,0.12755 0.51926,0.23515 0.7633,0.38144 0.39353,0.23575 0.70974,0.61822 1.14492,0.76324 0.36209,0.1209 0.76849,-0.0629 1.14491,0 0.50657,0.0846 2.96542,1.10737 3.05319,1.14497 0.26175,0.11184 0.48239,0.33489 0.7633,0.38144 0.50173,0.0834 1.02982,-0.11062 1.5266,0 0.66875,0.14871 1.25826,0.54647 1.90821,0.7633 2.17129,0.72376 0.83379,0.0302 2.67152,0.7633 0.26416,0.10578 0.4842,0.32582 0.76329,0.38143 0.37419,0.075 0.7685,-0.0629 1.14492,0 3.35018,0.55856 -0.58334,0.14025 1.90828,0.76324 0.24663,0.0617 0.52168,-0.0804 0.76323,0 0.17047,0.0544 0.21097,0.32462 0.38144,0.38144 0.24119,0.0804 0.50899,0 0.7633,0 h 1.14492 c 0.25449,0 0.51382,-0.0484 0.76329,0 0.39474,0.0792 0.75049,0.30285 1.14492,0.38144 0.24966,0.0484 0.51624,-0.0617 0.7633,0 0.27625,0.0689 0.4842,0.32582 0.7633,0.38143 0.62372,0.12453 1.27216,0 1.90827,0 h 3.81643 2.28989 c 0.38144,0 0.77068,0.075 1.14492,0 0.27867,-0.0544 0.49327,-0.29197 0.7633,-0.38143 0.1209,-0.0423 0.25449,0 0.38144,0 h 1.14491 c 0.2545,0 0.51624,0.0617 0.7633,0 0.7063,0.28351 0.69995,-0.65201 1.14492,-0.7633 0.37055,-0.0925 0.77472,0.0925 1.14498,0 0.1747,-0.0423 0.22064,-0.30104 0.38143,-0.38144 0.11365,-0.0544 0.27565,0.0707 0.38144,0 0.29923,-0.19948 0.44128,-0.60268 0.7633,-0.7633 0.22729,-0.11364 0.51382,0.0484 0.7633,0 1.98541,-0.39715 0.38143,-0.25449 1.90827,-0.76329 0.1209,-0.0423 0.25812,0.0302 0.38144,0 0.3905,-0.0973 0.75465,-0.28412 1.14492,-0.38144 0.34516,-0.0864 1.84135,0 2.28989,0 0.25449,0 0.52168,0.0804 0.7633,0 0.2696,-0.0901 0.48722,-0.31253 0.7633,-0.38144 0.24663,-0.0617 0.50898,0 0.76329,0 0.2545,-0.12694 0.49327,-0.29197 0.7633,-0.38144 0.1209,-0.0423 0.25449,0 0.38144,0 0.38144,0 0.77073,0.075 1.14492,0 2.76164,-0.55251 -1.74422,-0.38143 1.90827,-0.38143 h 3.81643 1.14498 c 0.25449,0 0.52168,0.0804 0.7633,0 0.17046,-0.0544 0.22064,-0.30104 0.38143,-0.38144 0.11365,-0.0544 0.2545,0 0.38144,0 0.25449,0 0.52168,0.0804 0.7633,0 0.17047,-0.0544 0.22064,-0.30104 0.38144,-0.38144 0.243,-0.1215 1.57828,0.11002 1.90821,0 2.16229,-1.08114 -0.56883,0.14206 1.5266,-0.38144 0.5519,-0.13782 0.97463,-0.62529 1.52659,-0.76329 0.24664,-0.0617 0.51624,0.0616 0.7633,0 0.55191,-0.13783 0.98684,-0.58334 1.52654,-0.7633 0.1209,-0.0423 0.26779,0.0544 0.38143,0 1.16384,-0.58213 -0.69801,-0.30225 1.14492,-0.7633 0.24663,-0.0617 0.50899,0 0.7633,0 0.12755,0 0.26779,0.0544 0.38144,0 0.16079,-0.0804 0.23212,-0.2817 0.38143,-0.38144 0.19223,-0.84085 0.78512,-0.2019 1.14492,-0.38144 0.41045,-0.20492 0.75163,-0.52712 1.14498,-0.76329 0.25449,-0.12695 0.50898,-0.2545 0.7633,-0.38144 0.12694,0 0.26779,0.0544 0.38143,0 0.41046,-0.20493 0.73471,-0.55795 1.14498,-0.7633 0.8437,-0.42194 0.87604,-0.38144 1.52654,-0.38144 0.38143,0 0.77472,0.0925 1.14497,0 0.1747,-0.0423 0.23213,-0.28169 0.38144,-0.38143 0.23696,-0.15778 0.52652,-0.22367 0.7633,-0.38144 0.14991,-0.0997 0.22064,-0.30104 0.38144,-0.38144 0.23998,-0.11969 1.28673,0.11969 1.52659,0 0.1608,-0.0804 0.22064,-0.30104 0.38144,-0.38144 0.30527,-0.15293 0.83958,0.15234 1.14492,0 0.16079,-0.0804 0.22064,-0.30104 0.38143,-0.38143 0.0985,-0.0484 2.01932,0 2.28984,0 h 0.38143 c 0.12695,0 0.2678,0.0544 0.38144,0 0.1608,-0.0804 0.22064,-0.30104 0.38144,-0.38144 0.24059,-0.1203 1.66744,0.12029 1.90821,0 0.1608,-0.0804 0.22064,-0.30104 0.38144,-0.38144 0.15112,-0.0756 1.06694,0.078 1.14498,0 0.0901,-0.0901 -0.0901,-0.29137 0,-0.38144 0.18014,-0.18014 0.53558,0.11365 0.7633,0 0.32159,-0.16079 0.44128,-0.60207 0.76329,-0.76329 0.22729,-0.11365 0.58334,0.18014 0.76324,0 0.0901,-0.0901 -0.0901,-0.29198 0,-0.38144 0.0901,-0.0901 0.29197,0.0901 0.38144,0 0.18014,-0.18014 -0.18014,-0.58334 0,-0.7633 0.0901,-0.0901 0.29137,0.0901 0.38144,0 0.18014,-0.18014 -0.18014,-0.58334 0,-0.7633 0.0901,-0.0901 0.29197,0.0901 0.38143,0 0.18014,-0.18014 -0.11364,-0.53558 0,-0.76329 0.0804,-0.1608 0.30104,-0.22065 0.38144,-0.38144 0.11365,-0.22729 -0.18014,-0.58334 0,-0.76324 0.0901,-0.0901 0.29197,0.0901 0.38144,0 0.25449,-0.25449 -0.25449,-0.50899 0,-0.7633 0.0901,-0.0901 0.29197,0.0901 0.38144,0 0.0901,-0.0901 -0.0901,-0.29197 0,-0.38144 0.0901,-0.0901 0.26779,0.0544 0.38143,0 0.1608,-0.0804 0.22064,-0.30103 0.38144,-0.38143 0.11365,-0.0544 0.29137,0.0901 0.38144,0 0.0901,-0.0901 -0.0901,-0.29197 0,-0.38144 0.0901,-0.0901 0.29137,0.0901 0.38144,0 0.0901,-0.0901 -0.0901,-0.29137 0,-0.38144 0.078,-0.078 0.99361,0.0756 1.14491,0 0.1608,-0.0804 0.22064,-0.30104 0.38144,-0.38143 0.22729,-0.11365 0.53558,0.11364 0.7633,0 0.16079,-0.0804 0.22064,-0.30104 0.38144,-0.38144 0.15112,-0.0756 1.06693,0.078 1.14497,0 0.0901,-0.0901 -0.0901,-0.29137 0,-0.38144 0.0901,-0.0901 0.29137,0.0901 0.38144,0 0.0901,-0.0901 -0.0901,-0.29137 0,-0.38144 0.19102,-0.19102 0.95414,0.19102 1.14492,0 0.0901,-0.0901 -0.0901,-0.29136 0,-0.38143 0.0919,-0.0919 1.43477,0.0919 1.52659,0 0.0901,-0.0901 -0.0901,-0.29198 0,-0.38144 3.7e-4,-3.6e-4 1.14323,6e-4 1.14498,0 0.17047,-0.0544 0.22064,-0.30104 0.38144,-0.38144 0.11364,-0.0544 0.26779,0.0544 0.38143,0 0.1608,-0.0804 0.22065,-0.30104 0.38144,-0.38144 0.34154,-0.17046 0.80356,0.17047 1.14492,0 0.11364,-0.0544 -0.0901,-0.29136 0,-0.38143 0.0901,-0.0901 0.25449,0 0.38144,0 0.27021,0 2.19118,0.0484 2.28983,0 0.1608,-0.0804 0.22064,-0.30104 0.38144,-0.38144 0.15112,-0.0756 1.06693,0.078 1.14491,0 0.0901,-0.0901 -0.0901,-0.29137 0,-0.38144 0.0901,-0.0901 0.2545,0 0.38144,0 0.27021,0 2.19118,0.0484 2.28983,0 0.1608,-0.0804 0.22065,-0.30104 0.38144,-0.38144 0.11365,-0.0544 0.2545,0 0.38144,0 0.25449,0 0.52168,0.0804 0.7633,0 0.17047,-0.0544 0.22064,-0.30104 0.38143,-0.38143 0.30528,-0.15234 0.83959,0.15233 1.14492,0 0.32159,-0.1608 0.42194,-0.64954 0.7633,-0.7633 0.1747,-0.0605 1.35673,0.0846 1.5266,0 1.16383,-0.58213 -0.69802,-0.30225 1.14491,-0.7633 0.24664,-0.0617 0.50899,0 0.7633,0 0.12694,0 0.26779,0.0544 0.38144,0 0.32159,-0.1608 0.42194,-0.64947 0.7633,-0.7633 0.24119,-0.0804 0.50898,0 0.76329,0 0.2545,-0.25449 0.45459,-0.57814 0.7633,-0.76327 0.34517,-0.20698 0.77146,-0.23224 1.14498,-0.38161 0.26416,-0.10567 0.50899,-0.25444 0.76324,-0.38168 0.76329,-0.38162 1.55815,-0.70587 2.28989,-1.14494 0.39353,-0.236 0.73471,-0.5582 1.14498,-0.7633 0.35967,-0.17989 0.76825,-0.2404 1.14491,-0.38168 0.64144,-0.24052 1.2955,-0.45693 1.90822,-0.76328 3.06377,-1.53187 -1.35335,0.0502 3.05319,-1.90823 0.47937,-0.21303 1.05745,-0.14708 1.5266,-0.38162 1.13784,-0.56896 1.91528,-1.72096 3.05313,-2.28989 0.46909,-0.2346 1.04451,-0.17506 1.52659,-0.38167 0.5906,-0.25317 2.28053,-1.68482 2.67152,-1.90823 0.3494,-0.19961 0.78512,-0.20172 1.14497,-0.38162 4.58294,-2.29148 -1.64157,0.60329 1.90822,-1.52658 0.34517,-0.20698 0.79999,-0.1747 1.14492,-0.38168 0.30829,-0.18515 0.47573,-0.54743 0.76329,-0.76329 0.2279,-0.17065 0.53559,-0.21097 0.7633,-0.38162 1.65076,-1.65073 -0.10095,-0.0598 1.5266,-1.14494 0.14991,-0.0998 0.25449,-0.25443 0.38144,-0.38162 0.38143,-0.38162 0.72352,-0.80777 1.14497,-1.14493 0.22185,-0.17772 0.53559,-0.21097 0.7633,-0.38168 0.97735,-0.73303 0.54949,-0.79355 1.52654,-1.52658 0.22729,-0.17071 0.54102,-0.20396 0.76329,-0.38162 0.42134,-0.33719 0.7633,-0.7633 1.14498,-1.14494 0.63605,-0.63608 1.2721,-1.27216 1.90822,-1.90824 0.50898,-0.50886 1.01773,-1.01772 1.52659,-1.52658 0.38144,-0.38161 0.73029,-0.79941 1.14492,-1.14494 0.35242,-0.29366 0.8206,-0.43892 1.14492,-0.76329 0.0181,-0.0157 2.65047,-3.40316 2.67157,-3.43481 0.15777,-0.23666 0.21097,-0.5357 0.38144,-0.7633 0.2158,-0.28786 0.50898,-0.50886 0.76329,-0.76329 0.12695,-0.12725 0.31495,-0.2146 0.38144,-0.38168 0.19465,-0.48698 0.18679,-1.03957 0.38144,-1.52658 0.0671,-0.16702 0.27384,-0.23768 0.38144,-0.38162 0.27504,-0.36692 0.50898,-0.76329 0.76329,-1.14494 0.2545,-0.38168 0.58274,-0.72334 0.7633,-1.14494 0.20674,-0.48208 0.2545,-1.01772 0.38144,-1.52658 0.38144,-0.89051 0.71161,-1.80496 1.14492,-2.67152 0.41045,-0.82052 1.20446,-1.43093 1.52659,-2.28988 0.2279,-0.60737 0.0913,-1.32804 0.38144,-1.90823 2.915,-5.82993 -0.538,3.85216 1.90821,-2.67152 0.18438,-0.49115 0.1469,-1.05744 0.38144,-1.52659 0.26054,-1.28727 1.72028,-1.64625 2.2899,-2.67152 0.3905,-0.70333 0.43644,-1.55465 0.76329,-2.28988 0.18619,-0.41916 0.55795,-0.73468 0.76324,-1.14494 0.30648,-0.61275 0.457,-1.29548 0.7633,-1.90823 0.20492,-0.41027 0.60208,-0.71546 0.7633,-1.14494 0.22789,-0.60737 0.15414,-1.30085 0.38143,-1.90823 0.1608,-0.42949 0.55796,-0.73468 0.7633,-1.14494 0.30648,-0.61275 0.52289,-1.26677 0.7633,-1.90823 0.42315,-1.12925 0.72147,-2.30556 1.14492,-3.43481 0.52349,-1.39666 1.11584,-2.76058 1.52659,-4.19811 0.14387,-0.50433 0.23757,-1.02225 0.38144,-1.52659 0.25208,-0.88123 0.82236,-2.32727 1.14498,-3.05316 0.23092,-0.51987 0.63986,-0.97121 0.76324,-1.52659 0.13782,-0.62093 -0.0701,-1.27605 0,-1.90823 0.11606,-1.04263 0.55734,-2.0245 0.76329,-3.05317 0.15173,-0.75879 0.19405,-1.53916 0.38144,-2.28988 0.0689,-0.27595 0.34154,-0.48166 0.38144,-0.76329 0.0901,-0.62968 -0.0635,-1.27531 0,-1.90823 0.0647,-0.64546 0.30104,-1.26457 0.38144,-1.90823 0.0484,-0.37871 0,-0.76329 0,-1.14494 v -4.57976 -3.81646 -1.14494 c 0,-0.38168 0.0544,-0.76713 0,-1.14495 -0.0744,-0.51926 -0.2545,-1.01771 -0.38144,-1.52658 -0.22548,-0.90219 -0.6664,-2.56269 -0.7633,-3.43482 -0.0544,-0.50572 0.0484,-1.02024 0,-1.52658 -0.0768,-0.76998 -0.24301,-1.52854 -0.38144,-2.28988 -0.11606,-0.6382 -0.3228,-1.26221 -0.38143,-1.90823 -0.0689,-0.76015 0.0949,-1.53248 0,-2.28987 -0.0363,-0.28224 -0.2817,-0.49696 -0.38144,-0.7633 -0.2823,-0.75335 -0.58213,-1.50589 -0.7633,-2.28987 -0.20251,-0.87652 -0.20553,-1.78945 -0.38144,-2.67153 -0.0792,-0.39449 -0.28411,-0.75466 -0.38143,-1.14493 -0.28472,-1.13785 -0.41348,-2.31534 -0.7633,-3.43482 0.16926,-1.43024 -1.13035,-2.24619 -1.5266,-3.43482 -1.43229,-4.29698 0.0242,-1.09438 -1.90821,-5.34304 -1.01121,-2.22463 -1.07105,-1.83607 -2.67152,-4.57976 -0.28653,-0.49146 -0.4576,-1.0466 -0.76329,-1.52658 -0.83367,-1.31009 -1.88906,-2.47513 -2.67152,-3.81646 -0.65993,-1.13135 -1.13784,-2.37556 -1.90821,-3.43482 -0.26961,-0.37098 -0.87519,-0.39232 -1.14498,-0.76329 -0.77037,-1.05925 -1.205,-2.32982 -1.90821,-3.43482 -0.19344,-0.30358 -0.54224,-0.47924 -0.7633,-0.76329 -0.67184,-0.86382 -1.23638,-1.8077 -1.90822,-2.67152 -0.22124,-0.28405 -0.50898,-0.50886 -0.76329,-0.76329 -1.40975,-1.40973 -2.96881,-2.64487 -4.57973,-3.81646 -0.89055,-0.63609 -1.78103,-1.27216 -2.67157,-1.90824 -0.2545,-0.25443 -0.48239,-0.53849 -0.7633,-0.76329 -1.0317,-0.82538 -4.17913,-2.43782 -4.57973,-2.67152 -1.81651,-1.05963 -0.66374,-0.7135 -3.05319,-1.90823 -0.61272,-0.30636 -1.28057,-0.48867 -1.90822,-0.7633 -1.40823,-0.61611 -2.80516,-1.25819 -4.19811,-1.90822 -0.51563,-0.24059 -1.02927,-0.48698 -1.52659,-0.7633 -0.64845,-0.36022 -1.22229,-0.8625 -1.90822,-1.14494 -12.97594,-5.34304 0.7633,0.76329 -6.86962,-2.28987 -2.56095,-1.02437 -0.49085,-0.60656 -3.43481,-1.52659 -1.38448,-0.43264 -2.80347,-0.74646 -4.19811,-1.14494 -0.38687,-0.1105 -0.78512,-0.20172 -1.14497,-0.38162 -0.41046,-0.20511 -0.70974,-0.61825 -1.14492,-0.76329 -0.36209,-0.12066 -0.7685,0.0627 -1.14492,0 -0.39715,-0.0661 -0.75961,-0.26604 -1.14497,-0.38168 -0.88704,-0.2661 -1.78442,-0.4972 -2.67152,-0.76329 -0.38506,-0.11558 -0.74812,-0.31548 -1.14491,-0.38162 -2.91144,0 0.30103,0.17065 -1.90822,-0.38162 -0.49025,-0.12259 -1.7161,0.0718 -2.28989,0 -0.76783,-0.096 -1.52207,-0.28568 -2.2899,-0.38167 -0.25268,-0.0314 -0.51624,0.0617 -0.7633,0 -0.27565,-0.069 -0.48722,-0.31265 -0.76329,-0.38162 -0.49388,-0.12344 -1.02759,0.0998 -1.5266,0 -0.39413,-0.0789 -0.75042,-0.30274 -1.14492,-0.38168 -0.24965,-0.0502 -0.50898,0 -0.76329,0 h -3.43481 -15.26584 -4.96141 -1.90821 c -0.12755,0 -0.26115,-0.0405 -0.38144,0 -0.26961,0.0899 -0.49327,0.29167 -0.7633,0.38168 -0.26235,0.0875 -0.91974,-0.11262 -1.14492,0 -1.74663,0.87333 1.61951,-0.1582 -1.14491,0.76329 -0.3216,0.10712 -1.68105,-0.11358 -1.90822,0 -0.16079,0.0804 -0.21097,0.32474 -0.38144,0.38162 -0.24119,0.0805 -0.52168,-0.0805 -0.76329,0 -0.17047,0.0568 -0.22065,0.30116 -0.38144,0.38162 -0.11365,0.0568 -0.26779,-0.0568 -0.38144,0 -0.16079,0.0805 -0.21097,0.32474 -0.38144,0.38168 -0.24119,0.0805 -0.53558,-0.11376 -0.76329,0 -0.11365,0.0568 0.11364,0.32474 0,0.38162 -0.7633,0.38168 -0.57246,-0.19084 -1.14492,0 -2.76442,0.92148 0.60147,-0.11002 -1.14498,0.76329 -0.22729,0.11377 -0.53558,-0.11376 -0.7633,0 -0.16079,0.0805 -0.22064,0.30116 -0.38143,0.38168 -0.11365,0.0568 -0.29198,-0.0899 -0.38144,0 -0.0901,0.09 0.0901,0.29167 0,0.38162 -0.0901,0.09 -0.26779,-0.0568 -0.38144,0 -0.16079,0.0805 -0.22064,0.30116 -0.38144,0.38168 -0.11364,0.0568 -0.26779,-0.0568 -0.38143,0 -0.1608,0.0805 -0.22064,0.30116 -0.38144,0.38162 -0.11365,0.0568 -0.26779,-0.0568 -0.38144,0 -0.45821,0.22898 -0.68695,0.91594 -1.14491,1.14493 -0.11365,0.0568 -0.2678,-0.0568 -0.38144,0 -0.1608,0.0805 -0.22064,0.30116 -0.38144,0.38162 -0.52652,0.2632 -0.34154,-0.4622 -0.7633,0.38168 -0.0544,0.11377 0.0901,0.29167 0,0.38162 -0.0901,0.0899 -0.26779,-0.0568 -0.38143,0 -0.1608,0.0805 -0.22065,0.30116 -0.38144,0.38162 -0.11365,0.0568 -0.26779,-0.0568 -0.38144,0 -0.32159,0.16092 -0.44128,0.60238 -0.7633,0.76329 -0.11364,0.0568 -0.29197,-0.0899 -0.38144,0 -0.0901,0.0899 0.0901,0.29167 0,0.38168 -0.0901,0.0899 -0.29136,-0.09 -0.38143,0 -0.0901,0.0899 0.0901,0.29167 0,0.38162 -0.0901,0.0899 -0.26779,-0.0568 -0.38144,0 -0.32159,0.16092 -0.44128,0.60238 -0.7633,0.76329 -0.11364,0.0568 -0.29197,-0.0899 -0.38144,0 -0.0901,0.0899 0.0901,0.29167 0,0.38168 -0.0901,0.0899 -0.29197,-0.09 -0.38143,0 -0.0901,0.0899 0.0901,0.29167 0,0.38162 -0.0901,0.0899 -0.26779,-0.0568 -0.38144,0 -0.1608,0.0804 -0.22064,0.30116 -0.38144,0.38168 -0.11364,0.0568 -0.29197,-0.0899 -0.38144,0 -0.0901,0.0899 0.0901,0.29167 0,0.38162 -0.0901,0.0899 -0.29136,-0.8532 -0.38143,-0.7633 -0.0901,0.0899 0.0901,0.29167 0,0.38168 -0.0901,0.0899 -0.2545,0 -0.38144,0 -0.12694,0 -0.29197,-0.09 -0.38144,0 -0.0901,0.0899 -0.67323,0.29167 -0.7633,0.38162 8.3744,-8.36327 0.18014,-0.1799 0,0 -0.0901,0.0899 0.0901,0.29167 0,0.38168 -0.18014,0.1799 -0.53558,-0.11376 -0.76329,0 -0.1608,0.0805 -0.22064,0.30116 -0.38144,0.38162 -0.11365,0.0568 -0.29137,-0.0899 -0.38144,0 -0.0901,0.09 0.0901,0.29167 0,0.38162 -0.0901,0.09 -0.25449,0 -0.38144,0 -0.26537,0 -1.77026,-0.069 -1.90827,0 -0.1608,0.0805 -0.22064,0.30122 -0.38144,0.38168 -0.10034,0.0502 -1.33303,-0.0484 -1.52659,0 l -3.0532,0.76329 h -3.81643 c -0.15112,0 -1.74524,-0.0815 -1.90821,0 -0.1608,0.0805 -0.22064,0.30116 -0.38144,0.38162 -0.24361,0.12193 -1.21939,-0.1024 -1.52659,0 -0.26961,0.0899 -0.49327,0.29167 -0.7633,0.38168 -0.1209,0.0405 -0.26719,-0.055 -0.38144,0 -3.32618,1.59252 -24.16814,9.62524 -2.28989,0 -0.26961,0.0899 -0.49327,0.29167 -0.7633,0.38162 -0.1209,0.0405 -0.26779,-0.0568 -0.38144,0 -0.16079,0.0805 -0.22064,0.30122 -0.38144,0.38168 -0.23998,0.11993 -1.28667,-0.11994 -1.52653,0 -0.1608,0.0805 -0.22064,0.30116 -0.38144,0.38162 -0.11364,0.0568 -0.25449,0 -0.38144,0 -0.25449,0 -0.53558,-0.11377 -0.76329,0 -0.11365,0.0568 0.0544,0.26785 0,0.38167 -0.0804,0.16092 -0.22065,0.30116 -0.38144,0.38162 -0.15113,0.0757 -1.06688,-0.078 -1.14492,0 -0.0901,0.0899 0,0.25444 0,0.38168 -0.25449,0 -0.53558,-0.11376 -0.7633,0 -0.11364,0.0568 0.0901,0.29167 0,0.38162 -0.18014,0.1799 -0.58334,-0.1799 -0.76329,0 -0.0901,0.0899 0,0.25443 0,0.38168 -0.2545,0.12725 -0.49327,0.29167 -0.7633,0.38162 -0.2412,0.0805 -0.53559,-0.11377 -0.7633,0 -0.1608,0.0805 -0.22064,0.30116 -0.38144,0.38168 -0.11364,0.0568 -0.26114,-0.0405 -0.38144,0 -0.2696,0.0899 -0.50898,0.25443 -0.76323,0.38162 -0.2545,0.12724 -0.52652,0.22384 -0.7633,0.38162 -0.14992,0.0998 -0.22064,0.30122 -0.38144,0.38168 -0.11364,0.0568 -0.26114,-0.0405 -0.38144,0 -0.27021,0.09 -0.49326,0.29166 -0.76329,0.38161 -0.1209,0.0405 -0.26115,-0.0405 -0.38144,0 -0.26961,0.09 -0.49327,0.29167 -0.7633,0.38168 -0.1209,0.0405 -0.25449,0 -0.38144,0 -0.25449,0.12719 -0.49327,0.29167 -0.76329,0.38162 -0.1209,0.0405 -0.26115,-0.0405 -0.38144,0 -0.53982,0.1799 -0.9869,0.5834 -1.5266,0.76329 -0.24119,0.0805 -0.52168,-0.0805 -0.7633,0 -1.5139,0.50463 -0.0121,0.25866 -1.52659,0.76329 -0.1209,0.0405 -0.25449,0 -0.38144,0 -0.34638,0 -2.42379,-0.0826 -2.67151,0 -0.17047,0.0568 -0.21097,0.32474 -0.38144,0.38168 -0.24119,0.0805 -0.50899,0 -0.7633,0 -0.12694,0 -0.26779,-0.0568 -0.38143,0 -0.1608,0.0805 -0.21097,0.32473 -0.38144,0.38162 -0.2412,0.0805 -0.50899,0 -0.7633,0 h -1.52654 c -0.25449,0 -0.51624,-0.0617 -0.76329,0 -0.27626,0.069 -0.48723,0.31264 -0.7633,0.38168 -0.24664,0.0617 -0.52168,-0.0805 -0.7633,0 -0.17047,0.0568 -0.21097,0.32473 -0.38144,0.38162 -0.24119,0.0805 -0.50898,0 -0.76329,0 h -2.28984 -2.67151 c -0.35121,0 -0.8015,0.0687 -1.14498,0 -0.51443,-0.10289 -1.01773,-0.25444 -1.52659,-0.38162 z"
         id="path12783"
         inkscape:connector-curvature="0"
         sodipodi:nodetypes="ccccccccccccccccccccccccccccccccccccccccccccccccccccccccccccccccscsccsccsccccccssccccccssccccccssccccccccccccccccccccccccccccccccccccccccccccccccccccccccccccccccccccccccccccccccccccssccccscsccssccccccccccsccccscscsccscccccsccsscccccccsccccccccssccccccccccccccccccccccccccccccccccccccccccccccsccccsccscccccssccccccccccccccccccccccccccccccccccccccccccccccccccccccccccccccccsccsccccccccccccccccccccccccccccccccccccccccccccccccscccsccccccccccccccccccccccccccccccccccccccccccccccccsccccccccsccscsccccsccccccsccccccccccccccccccccccccccsccsccssccccscsccc" />
    </clipPath>
  </defs>
  <sodipodi:namedview
     id="base"
     pagecolor="#ffffff"
     bordercolor="#666666"
     borderopacity="1.0"
     inkscape:pageopacity="0.0"
     inkscape:pageshadow="2"
     inkscape:zoom="2.8"
     inkscape:cx="-87.496226"
     inkscape:cy="83.916243"
     inkscape:document-units="mm"
     inkscape:current-layer="g12767"
     showgrid="false"
     inkscape:window-width="1920"
     inkscape:window-height="1017"
     inkscape:window-x="-8"
     inkscape:window-y="-8"
     inkscape:window-maximized="1"
     units="px" />
  <metadata
     id="metadata5">
    <rdf:RDF>
      <cc:Work
         rdf:about="">
        <dc:format>image/svg+xml</dc:format>
        <dc:type
           rdf:resource="http://purl.org/dc/dcmitype/StillImage" />
        <dc:title />
      </cc:Work>
    </rdf:RDF>
  </metadata>
  <g
     inkscape:label="Capa 1"
     inkscape:groupmode="layer"
     id="layer1"
     transform="translate(0,-244.08332)">
    <g
       id="g6035"
       transform="matrix(0.26458333,0,0,0.26458333,5.8302828,257.04791)"
       style="fill:#343434;fill-opacity:0.84422112">
      <g
         id="g6762"
         transform="matrix(0.13418166,0,0,0.13418166,-15.532137,-12.951636)">
        <g
           id="g12712"
           transform="matrix(5.123637,0,0,5.123637,23.129199,91.207051)">
          <g
             id="g12767"
             transform="matrix(0.24062157,0,0,0.24062157,-2.8533173,-35.203766)">
            <path
               id="path12714"
               d="M 0,0 H 0.11 L 0.01,0.01 0,0.11 Z"
               inkscape:connector-curvature="0"
               style="opacity:1;fill:#aaaaaa"
               sodipodi:nodetypes="ccccc" />
            <path
               id="path12716"
               d="M 919.94,0 H 920 v 0.06 z"
               inkscape:connector-curvature="0"
               style="opacity:1;fill:#aaaaaa"
               sodipodi:nodetypes="cccc" />
            <path
               id="path12718"
               d="m 720.75,294.18 c 7.68,-1.27 15.48,-1.16 23.24,-0.86 15.15,0.95 30.97,3.96 43.4,13.24 4.52,3.14 7.6,7.8 11.78,11.31 5.48,4.9 10.63,10.42 13.84,17.1 2.03,4 2.14,8.56 2.77,12.91 1.88,14.04 4.74,27.95 5.92,42.08 0.06,3.43 1.86,6.54 1.98,9.95 -0.42,2.75 -2,5.17 -2.38,7.94 -1.66,10.73 -5.82,21.17 -12.62,29.68 -8.75,11.03 -20.91,18.76 -33.54,24.63 l -15.95,6.07 c -21.97,6.93 -45.13,9.93 -68.14,9.06 -4.1,-0.29 -8.23,-0.68 -12.18,-1.84 -4.75,-1.15 -6.95,-5.9 -10.18,-9.07 -7.84,-9.17 -18.14,-16.13 -24.56,-26.51 -6.14,-9.7 -10.63,-20.42 -13.73,-31.46 -2.18,-7.27 -1.66,-14.93 -1.81,-22.42 0.04,-9.71 -0.24,-19.45 0.69,-29.12 0.79,-7.97 5.1,-15.33 11.15,-20.48 4.15,-3.7 9.24,-6.05 13.82,-9.14 7.18,-4.77 14.22,-9.73 21.24,-14.71 6.94,-5.17 37.32,-15.04 45.26,-18.36 m -3.16,18.16 c -8.34,2.63 -16.62,5.71 -24.08,10.33 -6.64,4.34 -13.19,8.8 -19.87,13.08 -5.56,3.87 -12.04,6.24 -17.35,10.5 -4.75,3.73 -9.41,8.53 -10.31,14.76 -0.99,6.62 -0.79,13.34 -0.81,20.01 0.13,6.45 -0.35,12.95 0.58,19.36 3.28,15.91 12.15,30.04 22.52,42.31 5.9,6.34 12.47,12 18.87,17.82 28.53,-0.06 57.63,-4.36 83.54,-16.8 14.57,-7.07 28.59,-18.3 33.29,-34.44 -8.68,0.1 -17.41,0.35 -26.01,-1.06 -15.88,-2.08 -32.07,-9.39 -40.87,-23.33 -7.95,-11.64 -8.75,-26.34 -7.78,-39.95 0.36,-4.55 3.1,-8.39 5.45,-12.14 1.89,-2.67 3.42,-5.83 6.33,-7.56 7.08,-4.35 14.85,-7.35 22.31,-10.95 -11.86,-3.04 -24.25,-2.58 -36.33,-4.24 -3.02,1.34 -6.38,1.28 -9.48,2.3"
               inkscape:connector-curvature="0"
               style="opacity:1;fill:#000000"
               clip-path="url(#clipPath12781)"
               sodipodi:nodetypes="cccccccccccccccccccccccccccccccccccccccccc" />
            <path
               id="path12724"
               d="m 395.06,427.13 c 5.99,-0.31 11.98,-0.31 17.97,-0.31 20.09,-0.28 40.2,5.89 56.74,17.28 5.1,3.62 10.27,8.35 11.23,14.87 1.44,7.69 3.34,15.3 4.68,23.01 -0.05,10.97 1.09,22.29 -2.51,32.88 -4.97,15.64 -16.34,28.31 -28.98,38.34 -19.83,15.48 -42.83,26.53 -66.72,34.18 -7.67,2.36 -15.45,4.7 -23.48,5.41 -19.04,0.74 -38.6,-5.28 -53.03,-17.93 -12.6,-11.07 -21.86,-25.72 -27.47,-41.46 -2.24,-6.63 -4.58,-13.32 -5.23,-20.32 -0.74,-17.16 4.38,-34.9 15.66,-48.05 12.34,-14.68 29.79,-24.29 48.06,-29.49 17.18,-5.34 35.18,-7.4 53.08,-8.41 m 48.41,22.99 c 0.84,5.95 1.24,12.1 -0.56,17.92 -3.31,11.81 -12.82,20.75 -23.15,26.74 -11.42,6.6 -24.39,11.52 -37.78,10.88 -10.5,-0.31 -20.87,-4.92 -27.85,-12.82 -9,-10.15 -14.2,-23.38 -15.29,-36.84 -11.57,4.35 -22.97,10.19 -31.45,19.39 -7.96,8.56 -12.12,20.15 -12.55,31.74 -1.08,14.66 6.68,27.95 14.31,39.84 8.73,13.76 22.17,25.67 38.72,28.27 15.3,2.32 30.8,-1.69 44.96,-7.32 15.7,-5.92 29.46,-15.68 43.74,-24.27 9.12,-5.6 18.28,-11.65 25.05,-20.08 5.75,-7.12 7.53,-16.58 7.51,-25.51 -1.11,-10.4 -2.7,-20.75 -3.32,-31.19 -0.18,-3.26 -2.25,-6.07 -4.64,-8.13 -5.09,-4.28 -11.52,-6.45 -17.7,-8.62 z"
               inkscape:connector-curvature="0"
               style="opacity:1;fill:#000000"
               sodipodi:nodetypes="cccccccccccccccccccccccccccccccc" />
            <path
               id="path12728"
               d="m 629.45,506.58 c 5.91,-2.35 12.82,0.57 16.4,5.54 3.75,5.2 5.27,11.62 6.17,17.87 1.94,12.23 -0.88,25.54 -8.82,35.22 -6.09,7.93 -12.11,15.91 -18.23,23.82 -5.13,6.41 -10.06,13.29 -17.16,17.7 -16.26,10.76 -36.19,12.64 -54.92,15.85 -12.81,1.62 -26.21,4.8 -38.84,0.53 -13.34,-4.17 -23.48,-15.05 -29.92,-27.1 -3.6,-6.76 -5.4,-14.44 -5.05,-22.09 0.29,-5.24 -0.25,-11.14 3.17,-15.53 3.06,-4.08 8,-5.95 12.65,-7.53 22.88,-7.61 46.79,-11.33 69.98,-17.78 7.66,-2.14 15.36,-4.33 22.55,-7.78 13.42,-7.47 27.72,-13.2 42.02,-18.72 m -20.02,26.62 c 6.52,9.54 8.88,21.13 11.66,32.16 6.22,-7.5 13.49,-15.14 14.71,-25.28 1.15,-5.79 -2.13,-11.04 -4.8,-15.88 -7.46,2.32 -14.43,5.9 -21.57,9 m -32.55,14.08 c 8.23,15.82 7.6,34.24 8.9,51.56 12.53,-3.36 21.3,-13.66 28.19,-24.04 -2.08,-6.68 -2.29,-13.94 -5.55,-20.22 -2.75,-5.74 -5.23,-11.6 -7.69,-17.46 -7.9,3.52 -15.79,7.04 -23.85,10.16 m -37.56,8.87 c 4.23,10.5 5.91,21.77 7.5,32.91 1.03,5.83 -1,11.58 -2.5,17.14 10.91,-1.99 21.84,-3.92 32.76,-5.85 0.11,-7.88 0.11,-15.85 -1.93,-23.52 -2,-9.07 -6.21,-17.39 -10.63,-25.48 -8.43,1.46 -16.83,3.02 -25.2,4.8 m -35.72,10.41 c -3.82,2.24 -8.13,5.6 -7.95,10.51 0.34,7.58 4.84,14.16 9.56,19.78 6.91,8.32 18.15,12.52 28.84,11.3 2.1,-6.83 6.52,-13.96 3.88,-21.23 -2.82,-9.62 -6.29,-19.03 -9.71,-28.45 -8.45,1.8 -17,3.89 -24.62,8.09 z"
               inkscape:connector-curvature="0"
               style="opacity:1;fill:#000000"
               sodipodi:nodetypes="cccccccccccccccccccccccccccccccccccccccc" />
          </g>
        </g>
      </g>
    </g>
    <g
       inkscape:groupmode="layer"
       id="layer2"
       inkscape:label="fondo"
       style="display:none"
       sodipodi:insensitive="true">
      <rect
         style="opacity:1;vector-effect:none;fill:#343434;fill-opacity:0;stroke:#000000;stroke-width:0.02432241;stroke-linecap:butt;stroke-linejoin:miter;stroke-miterlimit:4;stroke-dasharray:none;stroke-dashoffset:0;stroke-opacity:0.48743723;paint-order:normal"
         id="rect6037"
         width="24.322405"
         height="24.322405"
         x="13.941643"
         y="258.39938" />
    </g>
  </g>
</svg>
