<?xml version="1.0" encoding="UTF-8" standalone="no"?>
<!-- Created with Inkscape (http://www.inkscape.org/) -->

<svg
   xmlns:dc="http://purl.org/dc/elements/1.1/"
   xmlns:cc="http://creativecommons.org/ns#"
   xmlns:rdf="http://www.w3.org/1999/02/22-rdf-syntax-ns#"
   xmlns:svg="http://www.w3.org/2000/svg"
   xmlns="http://www.w3.org/2000/svg"
   xmlns:sodipodi="http://sodipodi.sourceforge.net/DTD/sodipodi-0.dtd"
   xmlns:inkscape="http://www.inkscape.org/namespaces/inkscape"
   width="200"
   height="200"
   viewBox="0 0 52.916666 52.916668"
   version="1.1"
   id="svg8"
   inkscape:version="0.92.1 r15371"
   sodipodi:docname="cara12.svg">
  <defs
     id="defs2">
    <clipPath
       clipPathUnits="userSpaceOnUse"
       id="clipPath6802">
      <g
         inkscape:label="Clip"
         id="use6804">
        <rect
           y="817.21985"
           x="30.578131"
           height="430.9921"
           width="1494.3568"
           id="rect12595"
           style="opacity:1;vector-effect:none;fill:#ffffff;fill-opacity:1;stroke:none;stroke-width:2.81672454;stroke-linecap:butt;stroke-linejoin:miter;stroke-miterlimit:4;stroke-dasharray:none;stroke-dashoffset:0;stroke-opacity:0.48743723;paint-order:normal" />
        <rect
           y="529.67999"
           x="-1147.442"
           height="430.9921"
           width="1494.3568"
           id="rect12597"
           style="opacity:1;vector-effect:none;fill:#ffffff;fill-opacity:1;stroke:none;stroke-width:2.81672454;stroke-linecap:butt;stroke-linejoin:miter;stroke-miterlimit:4;stroke-dasharray:none;stroke-dashoffset:0;stroke-opacity:0.48743723;paint-order:normal" />
      </g>
    </clipPath>
    <clipPath
       clipPathUnits="userSpaceOnUse"
       id="clipPath6815">
      <g
         id="use6817"
         inkscape:label="Clip">
        <rect
           style="opacity:1;vector-effect:none;fill:#ffffff;fill-opacity:1;stroke:none;stroke-width:2.81672454;stroke-linecap:butt;stroke-linejoin:miter;stroke-miterlimit:4;stroke-dasharray:none;stroke-dashoffset:0;stroke-opacity:0.48743723;paint-order:normal"
           id="rect12583"
           width="1494.3568"
           height="430.9921"
           x="1031.8348"
           y="486.918" />
        <g
           id="g12591"
           clip-path="url(#clipPath6802)">
          <g
             inkscape:label="Clip"
             id="g12589">
            <rect
               y="817.21985"
               x="30.578131"
               height="430.9921"
               width="1494.3568"
               id="rect12585"
               style="opacity:1;vector-effect:none;fill:#ffffff;fill-opacity:1;stroke:none;stroke-width:2.81672454;stroke-linecap:butt;stroke-linejoin:miter;stroke-miterlimit:4;stroke-dasharray:none;stroke-dashoffset:0;stroke-opacity:0.48743723;paint-order:normal" />
            <rect
               y="529.67999"
               x="-1147.442"
               height="430.9921"
               width="1494.3568"
               id="rect12587"
               style="opacity:1;vector-effect:none;fill:#ffffff;fill-opacity:1;stroke:none;stroke-width:2.81672454;stroke-linecap:butt;stroke-linejoin:miter;stroke-miterlimit:4;stroke-dasharray:none;stroke-dashoffset:0;stroke-opacity:0.48743723;paint-order:normal" />
          </g>
        </g>
      </g>
    </clipPath>
    <clipPath
       clipPathUnits="userSpaceOnUse"
       id="clipPath12623">
      <rect
         style="opacity:1;vector-effect:none;fill:#ffffff;fill-opacity:1;stroke:none;stroke-width:3.11010909;stroke-linecap:butt;stroke-linejoin:miter;stroke-miterlimit:4;stroke-dasharray:none;stroke-dashoffset:0;stroke-opacity:0.48743723;paint-order:normal"
         id="rect12625"
         width="684.04071"
         height="159.69821"
         x="-1028.1637"
         y="657.59601"
         transform="scale(-1,1)" />
    </clipPath>
    <clipPath
       clipPathUnits="userSpaceOnUse"
       id="clipPath12627">
      <rect
         style="opacity:1;vector-effect:none;fill:#ffffff;fill-opacity:1;stroke:none;stroke-width:3.11010909;stroke-linecap:butt;stroke-linejoin:miter;stroke-miterlimit:4;stroke-dasharray:none;stroke-dashoffset:0;stroke-opacity:0.48743723;paint-order:normal"
         id="rect12629"
         width="684.04071"
         height="159.69821"
         x="-1028.1637"
         y="657.59601"
         transform="scale(-1,1)" />
    </clipPath>
    <clipPath
       clipPathUnits="userSpaceOnUse"
       id="clipPath12631">
      <rect
         style="opacity:1;vector-effect:none;fill:#ffffff;fill-opacity:1;stroke:none;stroke-width:3.11010909;stroke-linecap:butt;stroke-linejoin:miter;stroke-miterlimit:4;stroke-dasharray:none;stroke-dashoffset:0;stroke-opacity:0.48743723;paint-order:normal"
         id="rect12633"
         width="684.04071"
         height="159.69821"
         x="-1028.1637"
         y="657.59601"
         transform="scale(-1,1)" />
    </clipPath>
  </defs>
  <sodipodi:namedview
     id="base"
     pagecolor="#ffffff"
     bordercolor="#666666"
     borderopacity="1.0"
     inkscape:pageopacity="0.0"
     inkscape:pageshadow="2"
     inkscape:zoom="3.959798"
     inkscape:cx="21.532103"
     inkscape:cy="73.148744"
     inkscape:document-units="mm"
     inkscape:current-layer="g5549"
     showgrid="false"
     inkscape:window-width="1920"
     inkscape:window-height="1017"
     inkscape:window-x="-8"
     inkscape:window-y="-8"
     inkscape:window-maximized="1"
     units="px" />
  <metadata
     id="metadata5">
    <rdf:RDF>
      <cc:Work
         rdf:about="">
        <dc:format>image/svg+xml</dc:format>
        <dc:type
           rdf:resource="http://purl.org/dc/dcmitype/StillImage" />
        <dc:title></dc:title>
      </cc:Work>
    </rdf:RDF>
  </metadata>
  <g
     inkscape:label="Capa 1"
     inkscape:groupmode="layer"
     id="layer1"
     transform="translate(0,-244.08332)">
    <g
       id="g6035"
       transform="matrix(0.26458333,0,0,0.26458333,5.8302828,257.04791)"
       style="fill:#343434;fill-opacity:0.84422112">
      <g
         id="g6762"
         transform="matrix(0.13418166,0,0,0.13418166,-15.532137,-12.951636)">
        <g
           id="g5235"
           transform="matrix(7.4525834,0,0,7.4525834,-1646.5153,222.15222)">
          <g
             id="g5549"
             transform="matrix(1.3333334,0,0,1.3333334,234.5419,-382.84257)">
            <path
               id="path5266"
               d="m 36.138843,282.98406 c -0.272814,-1.1581 0.455572,-2.28641 1.321689,-3.16989 0.52179,0.22566 0.617142,0.66208 0.64098,1.09424 -0.863468,0.40023 -1.507097,1.23901 -0.921739,2.00966 0.55887,-0.0937 1.120389,-0.18095 1.687205,-0.24482 -0.03443,1.17301 -2.11894,1.0176 -2.728135,0.31081 z"
               inkscape:connector-curvature="0"
               style="opacity:1;fill:#0c0c0c;stroke-width:0.23745932" />
            <path
               id="path5268"
               d="m 54.835841,277.20801 c 0.844928,0.48752 1.70045,0.97503 2.43943,1.57111 1.017091,0.85368 1.34023,2.04372 1.909695,3.09751 0.609195,1.23475 1.401149,2.43969 1.628935,3.77024 0.08741,1.10275 0.0927,2.20976 0.2993,3.30401 0.153624,1.06656 1.443528,1.79251 1.432934,2.89952 -0.852874,-0.2725 -1.16012,-0.99418 -1.562719,-1.58814 -0.577411,-0.87922 -0.866117,-1.85637 -1.014443,-2.83778 -0.280759,-1.66266 -1.560069,-3.06345 -2.065966,-4.67288 -0.609195,-1.98411 -2.073912,-3.68508 -3.067166,-5.54359 z"
               inkscape:connector-curvature="0"
               style="opacity:1;fill:#030303;stroke-width:0.23745932" />
            <path
               id="path5270"
               d="m 61.984615,280.98676 c -0.03973,-1.03463 0.206597,-2.18422 1.141579,-2.94849 0.648926,0.9729 -0.108595,2.00753 -0.709845,2.85482 z"
               inkscape:connector-curvature="0"
               style="opacity:1;fill:#080808;stroke-width:0.23745932" />
            <path
               id="path5272"
               d="m 63.621497,282.08739 c -0.116542,-0.99206 -0.02119,-2.08204 0.860819,-2.85482 0.966767,0.46835 0.132434,1.239 -0.10065,1.83935 -0.03443,0.43642 0.03973,0.8707 0.07416,1.305 1.605098,0.98566 3.437981,2.42478 5.646976,1.74567 0.246327,0.68124 -0.73898,0.87497 -1.361419,0.85581 -1.236931,-0.12135 -2.269915,-0.7451 -3.363818,-1.17088 0.519141,1.0836 -0.434382,2.3737 -1.893803,2.45672 0.892604,-1.05166 1.115093,-2.33112 1.109796,-3.57651 -0.32049,-0.2065 -0.643628,-0.40448 -0.972064,-0.60034 z"
               inkscape:connector-curvature="0"
               style="opacity:1;fill:#1f1f1f;stroke-width:0.23745932" />
            <path
               id="path5274"
               d="m 51.034992,281.08895 c 0.876712,-0.38533 0.818441,0.97715 -0.02649,0.67698 -0.487356,0.0383 -0.278111,-0.6046 0.02649,-0.67698 z"
               inkscape:connector-curvature="0"
               style="opacity:1;fill:#afafaf;stroke-width:0.23745932" />
            <path
               id="path5276"
               d="m 42.000361,282.84101 c 0.450275,-0.43642 1.197202,-0.50454 1.830235,-0.6706 0.452924,-0.0468 0.352274,0.51306 0.07416,0.64293 -0.497951,0.43003 -1.303148,0.0724 -1.904398,0.0277 z"
               inkscape:connector-curvature="0"
               style="opacity:1;fill:#212121;stroke-width:0.23745932" />
            <path
               id="path5278"
               d="m 49.294813,282.76224 c 1.840829,0.41088 3.422088,1.35822 4.701398,2.47801 1.811694,1.57324 3.114842,3.46155 4.73848,5.15187 1.329635,1.20281 3.043328,2.14165 4.092203,3.54032 0.487356,0.60034 0.588006,1.3348 1.009145,1.96069 0.696602,-1.40719 0.484708,-3.14009 1.872613,-4.29606 1.342879,-1.18792 2.786407,-2.29919 4.142529,-3.47858 1.334933,-1.13682 3.461817,-2.00114 5.376805,-1.26881 -0.982652,0.26611 -2.095092,0.34062 -2.913536,0.89625 -2.251375,1.58814 -5.090755,2.74412 -6.637581,4.8879 -0.866118,1.33906 -1.130984,2.99958 -0.426437,4.41953 0.585357,0.45346 1.358771,0.69827 2.076561,0.98141 1.756072,-0.46622 3.681659,-0.49602 5.334434,-1.21345 0.786657,-0.34701 1.679263,-0.5088 2.471213,-0.84942 0.606548,-0.50881 0.882008,-1.27732 1.742827,-1.57537 -0.256926,1.23262 -1.157474,2.28216 -2.150724,3.21247 1.745481,0.0681 3.575708,0.0277 5.186107,0.65783 2.272563,0.82174 4.711989,1.96281 5.559566,3.97034 -1.017094,-0.36191 -1.329635,-1.2901 -2.137477,-1.83722 -0.868766,-0.62589 -1.864671,-1.14746 -2.953277,-1.48382 -1.252819,-0.413 -2.632782,-0.38746 -3.957121,-0.45132 -1.456769,-0.0256 -2.995646,-0.083 -4.365012,0.38107 -0.847576,0.5088 -0.842282,1.70522 -2.092455,1.83509 -0.206597,1.47105 -0.24103,2.957 -0.164218,4.43657 0.06887,1.2241 1.043578,2.22467 1.801098,3.23163 0.405248,0.66208 1.255474,1.00696 1.981211,1.40718 1.046227,0.51945 2.026235,1.17726 3.231382,1.4455 1.260766,0.2725 2.569216,0.33424 3.861766,0.44707 0.333736,0.009 0.622438,0.14902 0.905852,0.27675 -2.177217,0.16818 -4.465669,-0.0702 -6.417743,-0.89838 -1.136279,-0.45984 -2.002396,-1.32416 -3.297599,-1.52215 0.35492,0.81962 0.797249,1.61369 1.117738,2.44395 0.259575,0.65782 0.466168,1.3497 0.987956,1.91385 0.791956,0.93033 2.002401,1.6584 2.381161,2.7867 -0.413191,0.0788 -0.823738,0.15754 -1.234279,0.2363 0.01857,0.0469 0.05298,0.14264 0.06886,0.18947 -0.113891,0.72595 -0.267517,1.44764 -0.35757,2.17571 -0.542983,-0.40236 -1.197203,-0.67272 -1.793153,-1.01121 -0.315196,-0.64079 -0.505898,-1.34332 -0.39995,-2.03308 0.542979,0.76214 0.688652,1.72652 1.631585,2.27364 0.431731,-1.50298 -0.468817,-2.92507 -0.940279,-4.3429 -0.09271,-0.35978 -0.437035,-0.60247 -0.770766,-0.826 -0.545627,-1.29223 -1.009145,-2.62277 -1.859371,-3.81495 -0.911144,-1.25603 -0.725737,-2.92294 -2.137481,-3.95969 0.328436,-0.93032 0.654223,-1.88193 0.513843,-2.85908 -1.53888,0.27888 -1.594502,1.68606 -1.647476,2.70792 -0.254273,-0.39384 -0.603898,-0.83664 -0.397301,-1.29435 0.309895,-0.60247 0.736332,-1.16449 0.995901,-1.78612 -1.975911,-1.20708 -4.613992,-0.88988 -6.775311,-1.70098 0.376112,-0.11495 0.773413,-0.18946 1.17866,-0.11495 1.835533,0.2065 3.546577,0.81535 5.355622,1.12617 -0.402599,-0.38107 -0.776062,-0.78129 -1.040929,-1.23475 0.81844,0.33211 1.597151,0.76214 2.524188,0.86858 -0.105948,-1.48382 -1.666017,-2.51845 -3.199601,-3.14008 -1.183957,-0.45984 -2.222238,-1.11553 -3.239329,-1.77548 -0.643628,0.45132 -1.292554,0.89838 -1.975912,1.30925 -0.07946,-0.0745 -0.23838,-0.22565 -0.317841,-0.30017 0.720439,-0.57053 1.438231,-1.14959 2.042129,-1.80528 -0.429086,-2.8165 -4.227286,-3.87668 -5.734382,-6.18864 -1.168066,-1.68819 -2.61954,-3.25504 -4.37826,-4.57281 -0.985308,-0.7515 -2.516241,-0.97928 -3.170464,-2.01392 z"
               inkscape:connector-curvature="0"
               style="opacity:1;fill:#040404;stroke-width:0.23745932" />
            <path
               id="path5280"
               d="m 44.434494,283.21782 c 0.781359,-0.34488 0.06887,0.70253 0,0 z"
               inkscape:connector-curvature="0"
               style="opacity:1;fill:#d8d8d8;stroke-width:0.23745932" />
            <path
               id="path5282"
               d="m 66.482066,285.36799 c 0.972064,0.1703 1.983858,0.21075 2.937381,0.44067 0.05827,0.0852 0.174813,0.25334 0.233083,0.33849 -1.009145,0.0319 -2.015642,-0.0788 -3.022138,-0.0979 -1.189255,0.24695 -1.321689,1.76697 -2.733433,1.67755 0.455572,-1.02398 1.472663,-1.78399 2.585107,-2.35878 z"
               inkscape:connector-curvature="0"
               style="opacity:1;fill:#040404;stroke-width:0.23745932" />
            <path
               id="path5284"
               d="m 47.663229,288.58045 c 0.646277,-0.0809 1.006496,0.77704 0.294003,0.88774 -0.683358,0.12774 -1.062119,-0.76852 -0.294003,-0.88774 z"
               inkscape:connector-curvature="0"
               style="opacity:1;fill:#383838;stroke-width:0.23745932" />
            <path
               id="path5286"
               d="m 46.937492,289.95996 c 0.61979,0.10219 1.130984,0.40875 1.515042,0.80259 0.672764,0.67911 1.597152,1.13894 2.397051,1.70948 2.434133,1.81593 5.49865,2.92294 8.306246,4.30033 l -0.307247,0.23417 c -1.456771,0.26824 -2.963867,0.12348 -4.441828,0.23843 0.01589,0.28314 0.03973,0.56629 0.06887,0.85155 0.227786,0.37894 0.874063,0.47049 1.287256,0.70892 1.578611,-0.17457 3.175762,-0.32785 4.772913,-0.23417 0.444978,-0.0128 0.548276,0.40022 0.68071,0.65568 -1.944128,-0.10644 -3.89885,0.0639 -5.776761,0.46623 0.466167,0.86432 1.896452,0.62589 2.767866,1.04315 -0.749575,0.14689 -1.491204,0.3172 -2.232834,0.48538 -0.03443,0.32784 -0.06887,0.65569 -0.09535,0.98566 -0.169515,-0.0149 -0.503248,-0.0447 -0.670114,-0.0596 -0.468816,-0.0617 -0.932334,-0.15754 -1.393204,-0.23631 0.270165,0.40449 0.54033,0.80685 0.807846,1.21346 -0.288705,-0.0724 -0.866116,-0.21928 -1.154822,-0.29166 -0.288706,0.43855 -0.548276,0.88987 -0.789305,1.34545 -0.30195,-0.25546 -0.60125,-0.51093 -0.90055,-0.76426 -0.913793,0.49603 0.09535,1.15811 0.444978,1.66478 -0.497952,-0.27463 -0.995902,-0.54925 -1.517691,-0.79195 -0.103299,0.11284 -0.312544,0.34275 -0.418491,0.45771 -1.522989,0.43855 -2.916191,1.20069 -4.545127,1.36674 -2.230184,0.14689 -4.447125,0.52796 -6.695851,0.43216 -1.213093,-0.21076 -2.391753,-0.66421 -3.223437,-1.41996 -0.373463,-0.281 -0.791954,0.14264 -1.112443,0.26398 0.513843,0.37255 1.091253,0.67698 1.666016,0.98567 -0.105947,0.0809 -0.317841,0.24056 -0.423788,0.32146 -1.001199,-0.5088 -1.912344,-1.13682 -2.717541,-1.83508 0.778711,-0.16606 1.581259,-0.69189 2.404997,-0.3832 3.114842,0.93244 6.494552,1.19217 9.797449,1.0623 3.316142,-0.55989 6.280009,-2.26512 8.171164,-4.50895 0.911144,-1.07508 0.429085,-2.48013 -0.18011,-3.57012 -2.211644,-2.47162 -4.365017,-4.97943 -6.491903,-7.50002 z"
               inkscape:connector-curvature="0"
               style="opacity:1;fill:#070707;stroke-width:0.23745932" />
            <path
               id="path5288"
               d="m 37.261881,291.33096 c 2.333483,-0.64718 4.937131,-0.30017 7.106396,0.57479 3.117491,1.21772 5.503947,3.47007 6.724986,6.05877 0.25957,0.58119 0.437031,1.19856 0.354922,1.82019 -0.773412,-0.62376 -0.625087,-1.64562 -1.205147,-2.37582 -2.169264,-2.72922 -5.55692,-4.97305 -9.569663,-5.62449 -1.181309,-0.13624 -2.37851,-0.049 -3.562468,-0.10431 0.03709,-0.0873 0.113893,-0.26185 0.150974,-0.34913 z"
               inkscape:connector-curvature="0"
               style="opacity:1;fill:#0c0c0c;stroke-width:0.23745932" />
            <path
               id="path5290"
               d="m 62.985814,292.4039 c 0.754873,-0.24268 1.329636,0.85581 0.617141,1.14534 -0.699249,0.083 -1.085956,-0.78343 -0.617141,-1.14534 z"
               inkscape:connector-curvature="0"
               style="opacity:1;fill:#0e0e0e;stroke-width:0.23745932" />
            <path
               id="path5292"
               d="m 39.211307,294.64348 c 1.573313,-0.0873 3.321438,-0.42151 4.704046,0.38958 1.742829,0.34276 2.884408,1.51789 4.110744,2.47588 0.630385,1.43274 1.025037,3.25505 -0.309894,4.51747 -0.823739,1.00696 -2.452674,1.02186 -3.663118,1.55408 -1.40115,0.59609 -3.167816,0.7153 -4.590154,0.10005 -1.422339,-0.58969 -2.990355,-1.01547 -4.208746,-1.8734 -1.234282,-1.11127 -1.136281,-2.74412 -1.014442,-4.13427 0.503248,-1.80529 2.876462,-2.75476 4.971564,-3.02939 m -3.475062,2.2566 c -0.889955,1.30927 -1.52034,3.05494 -0.415842,4.40464 1.117741,1.02825 2.887055,1.30926 4.216691,2.10972 0.145677,-0.3832 0.256921,-0.78343 0.51914,-1.13256 0.03179,0.36829 0.05297,0.73659 0.06092,1.10488 0.479409,-0.0149 0.95882,-0.0298 1.440879,-0.0426 0.03179,-0.42577 0.06357,-0.84942 0.111244,-1.27094 0.301949,0.37468 0.524437,0.79195 0.874063,1.14108 0.784007,0.10645 1.530934,-0.24695 2.309644,-0.29804 0.606547,-0.10219 1.732234,-0.26185 1.334933,-0.96864 -0.595952,-0.6195 -1.761369,-0.60247 -2.370564,-1.23049 1.231633,-0.0213 2.163967,0.68976 3.175761,1.14321 0.704548,-0.35765 1.186607,-0.9729 1.123038,-1.66052 -0.07681,-0.8473 0.150975,-1.84361 -0.622438,-2.52698 -0.752224,-0.73659 -1.618341,-1.41995 -2.619541,-1.93727 -1.1972,-0.25759 -2.428834,-0.44919 -3.660468,-0.55777 -2.042128,-0.20011 -4.073662,0.56841 -5.47746,1.72226 z"
               inkscape:connector-curvature="0"
               style="opacity:1;fill:#0b0b0b;stroke-width:0.23745932" />
            <path
               id="path5294"
               d="m 35.736245,296.90008 c 1.403798,-1.15384 3.435332,-1.92237 5.47746,-1.72225 1.231634,0.10857 2.463268,0.30017 3.660468,0.55776 1.0012,0.51732 1.867317,1.20069 2.619541,1.93728 0.773413,0.68337 0.545627,1.67967 0.622438,2.52697 0.06357,0.68763 -0.41849,1.30287 -1.123038,1.66052 -1.011794,-0.45345 -1.944128,-1.16449 -3.175761,-1.1432 0.609195,0.62801 1.774612,0.61098 2.370564,1.23049 0.397301,0.70678 -0.728386,0.86645 -1.334933,0.96863 -0.77871,0.0511 -1.525637,0.40449 -2.309644,0.29804 -0.349626,-0.34913 -0.572114,-0.76639 -0.874063,-1.14107 -0.04767,0.42151 -0.07946,0.84516 -0.111244,1.27093 -0.482059,0.0128 -0.96147,0.0277 -1.440879,0.0426 -0.0079,-0.3683 -0.02914,-0.73659 -0.06092,-1.10488 -0.262219,0.34913 -0.373463,0.74936 -0.51914,1.13255 -1.329636,-0.80045 -3.09895,-1.08146 -4.216691,-2.10971 -1.104498,-1.3497 -0.474113,-3.09538 0.415842,-4.40464 m 3.199599,0.20012 c -1.917641,1.31352 -0.41849,4.1662 1.975912,4.27691 1.925587,-0.23418 3.647226,-1.97773 2.656621,-3.5169 -0.331084,0.0702 -0.664817,0.14263 -0.993253,0.21714 -0.137732,-0.40874 -0.28076,-0.81536 -0.42114,-1.22197 -1.043577,-0.32359 -2.354672,-0.44068 -3.21814,0.24482 z"
               inkscape:connector-curvature="0"
               style="opacity:1;fill:#fdfdfd;stroke-width:0.23745932" />
            <path
               id="path5296"
               d="m 38.935844,297.1002 c 0.863468,-0.6855 2.174563,-0.56841 3.21814,-0.24482 0.14038,0.40661 0.283408,0.81323 0.42114,1.22197 0.328436,-0.0745 0.662169,-0.14689 0.993253,-0.21714 0.990605,1.53917 -0.731034,3.28272 -2.656621,3.5169 -2.394402,-0.11071 -3.893553,-2.96339 -1.975912,-4.27691 z"
               inkscape:connector-curvature="0"
               style="opacity:1;fill:#050505;stroke-width:0.23745932" />
            <path
               id="path5298"
               d="m 54.406756,297.24496 c 1.477961,-0.11495 2.985057,0.0298 4.441828,-0.23843 l 0.07946,0.15541 c -1.501799,0.25333 -3.080409,0.32784 -4.452423,0.93457 -0.02914,-0.28526 -0.05297,-0.56841 -0.06887,-0.85155 z"
               inkscape:connector-curvature="0"
               style="opacity:1;fill:#666666;stroke-width:0.23745932" />
            <path
               id="path5300"
               d="m 62.487864,299.04387 c 0.680709,-0.36191 1.247526,0.72807 0.410544,0.84516 -0.65952,0.18095 -1.08066,-0.64505 -0.410544,-0.84516 z"
               inkscape:connector-curvature="0"
               style="opacity:1;fill:#c1c1c1;stroke-width:0.23745932" />
            <path
               id="path5302"
               d="m 63.798958,299.62717 c 0.876711,-0.22566 2.182508,0.0724 2.256671,0.93671 -0.911145,-0.009 -1.644827,-0.44281 -2.256671,-0.93671 z"
               inkscape:connector-curvature="0"
               style="opacity:1;fill:#0a0a0a;stroke-width:0.23745932" />
            <path
               id="path5304"
               d="m 71.697305,301.94552 c 2.291108,-1.56047 5.50395,-2.13952 8.430736,-1.69885 1.745475,0.70466 3.369112,1.79677 4.153119,3.26782 0.548277,1.00483 0.36022,2.15443 -0.04764,3.16564 -0.270162,0.67272 -1.067411,1.03463 -1.713689,1.4455 -1.001198,0.61312 -2.140131,1.20069 -3.451221,1.16662 -2.193101,0.10645 -4.052473,-0.98566 -5.744977,-1.95643 -0.468817,0.16818 -0.990605,0.28953 -1.358773,0.5897 -0.188052,-0.0681 -0.37611,-0.13625 -0.558869,-0.2065 0.452926,-0.29378 0.871416,-0.62589 1.263417,-0.9729 -1.732231,-1.08146 -2.646024,-3.41045 -0.97206,-4.8006 m 2.550673,-0.57054 c 0.648926,0.94735 2.055372,1.46679 2.325534,2.59722 -0.153621,-0.002 -0.460869,-0.009 -0.61449,-0.0127 -0.03179,-1.08147 -1.353474,-1.65414 -2.471213,-1.95431 -0.638329,-0.28101 -1.104497,0.30017 -1.424986,0.65782 -0.709847,0.82601 -0.619794,2.04372 0.399949,2.68238 0.294001,-0.46835 0.37876,-0.99206 0.609192,-1.47957 0.145683,0.50668 0.532386,0.91968 0.948226,1.305 -0.601249,0.21715 -1.205147,0.43004 -1.809045,0.64505 0.619789,0.72595 1.398503,1.40719 2.439431,1.73929 0.3973,-0.11921 0.561519,-0.50454 0.831681,-0.75362 -0.05035,0.413 -0.07151,0.826 -0.06621,1.24326 0.429087,0.18734 0.855519,0.39171 1.271365,0.6046 0.818436,-0.25121 1.409093,-1.07082 2.35467,-0.93457 -0.360225,0.39171 -1.340233,0.5088 -1.173365,1.11553 2.309649,0.53648 4.380912,-0.85368 5.866813,-2.10759 0.463518,-0.97502 0.455575,-2.09268 0.07946,-3.08686 -0.370817,-1.00909 -1.414394,-1.718 -2.46327,-2.27577 -2.158666,-1.01334 -4.905343,-0.82387 -7.103744,0.0149 z"
               inkscape:connector-curvature="0"
               style="opacity:1;fill:#050505;stroke-width:0.23745932" />
            <path
               id="path5306"
               d="m 58.207605,300.73632 c 0.19865,0.002 0.717791,0.0149 0.471464,0.30443 -0.288706,0.32571 -0.723088,0.5386 -1.109795,0.77703 -0.304598,0.0958 -0.572114,0.24482 -0.781359,0.44494 -0.532384,0.0234 -1.078011,0.0575 -1.57861,-0.11496 0.166866,0.0149 0.500599,0.0447 0.670114,0.0596 0.02649,-0.32997 0.06092,-0.65782 0.09535,-0.98566 0.74163,-0.16818 1.483259,-0.33849 2.232834,-0.48538 z"
               inkscape:connector-curvature="0"
               style="opacity:1;fill:#828282;stroke-width:0.23745932" />
            <path
               id="path5308"
               d="m 74.247978,301.37498 c 2.198402,-0.83878 4.945078,-1.02824 7.103745,-0.0149 1.048881,0.55776 2.092458,1.26668 2.463275,2.27576 0.376105,0.99419 0.384053,2.11184 -0.07946,3.08687 -1.485906,1.2539 -3.55717,2.64406 -5.866813,2.10758 -0.166868,-0.60672 0.81314,-0.72381 1.173364,-1.11552 -0.945577,-0.13625 -1.536238,0.68336 -2.35467,0.93457 -0.415845,-0.21289 -0.842283,-0.41726 -1.27137,-0.6046 -0.0054,-0.41726 0.01585,-0.83027 0.06622,-1.24326 -0.270162,0.24907 -0.43438,0.6344 -0.83168,0.75362 -1.040928,-0.33211 -1.819642,-1.01335 -2.439431,-1.73929 0.603898,-0.21502 1.207791,-0.42791 1.809039,-0.64505 -0.415835,-0.38532 -0.802543,-0.79833 -0.948221,-1.305 -0.230432,0.48751 -0.315191,1.01122 -0.609197,1.47957 -1.019738,-0.63866 -1.10979,-1.85638 -0.399949,-2.68238 0.320489,-0.35765 0.786657,-0.93884 1.424991,-0.65783 1.117739,0.30018 2.439431,0.87284 2.471208,1.95431 0.153627,0.004 0.460874,0.0106 0.614496,0.0128 -0.270167,-1.13043 -1.676608,-1.64988 -2.32554,-2.59722 m 2.471218,2.37794 c 0.0821,0.049 0.246328,0.14689 0.328432,0.19586 -0.384058,0.76001 -0.365513,1.63072 0.05828,2.38008 1.070063,0.73659 2.720188,0.81962 3.980955,0.35127 0.964118,-0.50455 1.390555,-1.44977 1.477958,-2.33751 -0.540329,0.0809 -1.080653,0.15967 -1.620987,0.2214 0.246328,-0.34487 0.760169,-0.42151 1.170716,-0.57479 -0.614496,-0.94948 -2.071264,-1.39228 -3.342629,-1.17088 -0.799898,0.1107 -1.401145,0.58757 -2.052721,0.93457 z"
               inkscape:connector-curvature="0"
               style="opacity:1;fill:#fcfcfc;stroke-width:0.23745932" />
            <path
               id="path5310"
               d="m 56.787915,302.26272 c 0.209245,-0.20012 0.476761,-0.34914 0.781359,-0.44494 2.201049,0.43642 4.518639,0.89838 6.2959,2.09694 0.733684,0.42364 0.513844,1.33906 1.292555,1.73291 -0.264868,0.45132 0.164217,0.89199 0.296651,1.32203 -1.705747,-0.44281 -0.664818,-2.45672 -2.264618,-2.96126 -2.005047,-0.86007 -4.25642,-1.19005 -6.401847,-1.74568 z"
               inkscape:connector-curvature="0"
               style="opacity:1;fill:#0d0d0d;stroke-width:0.23745932" />
            <path
               id="path5312"
               d="m 64.344585,302.75662 c 0.871414,-0.14689 1.064767,0.59608 1.356121,1.07508 0.243679,0.39384 0.209246,0.83878 0.135083,1.26242 -0.786657,-0.63866 -1.101849,-1.52001 -1.491204,-2.3375 z"
               inkscape:connector-curvature="0"
               style="opacity:1;fill:#0d0d0d;stroke-width:0.23745932" />
            <path
               id="path5314"
               d="m 76.719196,303.75293 c 0.651576,-0.347 1.252823,-0.82387 2.052721,-0.93458 1.271365,-0.2214 2.728133,0.22141 3.342629,1.17088 -0.410547,0.15328 -0.924388,0.22992 -1.170716,0.5748 0.540334,-0.0617 1.080658,-0.14051 1.620987,-0.22141 -0.0874,0.88775 -0.51384,1.83297 -1.477958,2.33751 -1.260767,0.46835 -2.910892,0.38532 -3.980955,-0.35126 -0.423789,-0.74937 -0.442334,-1.62007 -0.05828,-2.38009 -0.0821,-0.049 -0.246328,-0.14689 -0.328432,-0.19585 z"
               inkscape:connector-curvature="0"
               style="opacity:1;fill:#040404;stroke-width:0.23745932" />
            <path
               id="path5316"
               d="m 56.907105,303.14833 c 0.94028,-0.31082 1.488556,0.4279 1.970615,0.93245 0.463518,0.50667 0.707196,1.11553 0.85817,1.72651 -0.913792,-0.7004 -1.613043,-1.6222 -2.828785,-2.0203 0,-0.15967 0,-0.479 0,-0.63866 z"
               inkscape:connector-curvature="0"
               style="opacity:1;fill:#030303;stroke-width:0.23745932" />
            <path
               id="path5318"
               d="m 66.980017,305.88393 c 0.868765,-0.49603 1.737531,0.97928 0.73898,1.25178 -0.741629,0.0192 -1.213093,-0.80897 -0.73898,-1.25178 z"
               inkscape:connector-curvature="0"
               style="opacity:1;fill:#383838;stroke-width:0.23745932" />
            <path
               id="path5320"
               d="m 47.162629,309.66481 c 2.201049,-1.03251 4.574262,-1.87341 6.462768,-3.28485 -0.407896,1.27945 -2.034183,1.78612 -3.143978,2.59722 -1.676611,1.22623 -3.7982,2.131 -6.094601,2.24383 -1.34023,0.0192 -2.767866,0.81323 -4.023338,0.13412 -0.765467,-0.28739 -1.34023,-0.80684 -1.745477,-1.39228 0.90055,-0.69188 1.274013,0.92819 2.293753,0.66634 1.242228,0.17244 1.777261,-1.02825 2.937381,-1.08785 0.410544,0.11282 0.683358,0.40022 1.001199,0.62376 0.55887,-0.62802 1.520339,-0.38746 2.312293,-0.50029 z"
               inkscape:connector-curvature="0"
               style="opacity:1;fill:#050505;stroke-width:0.23745932" />
            <path
               id="path5322"
               d="m 32.661133,307.84036 c 0.317841,-0.55989 1.382608,-0.80471 1.883208,-0.2661 -0.482059,0.0851 -1.133633,0.0511 -1.369365,0.48538 -0.286057,0.46835 -0.166867,1.29649 0.603898,1.38802 0.598601,-0.10005 1.083308,-0.42151 1.613043,-0.6493 0.116542,0.27675 0.233083,0.55351 0.349625,0.83025 -0.789305,0.40237 -1.827586,0.76853 -2.730784,0.38108 -1.009145,-0.39597 -0.810495,-1.51576 -0.349625,-2.16933 z"
               inkscape:connector-curvature="0"
               style="opacity:1;fill:#0f0f0f;stroke-width:0.23745932" />
            <path
               id="path5324"
               d="m 54.356431,308.99208 c -0.05827,0.35553 -0.209246,0.69402 -0.368166,1.02612 0.320489,0.60673 1.032983,0.93244 1.806397,1.06657 0.156271,0.47899 0.05033,1.10062 0.646277,1.40718 -0.0053,-0.51518 -0.03179,-1.02611 -0.06357,-1.53917 0.346976,0.65143 0.688655,1.33054 1.382607,1.80103 0.05562,-0.44707 0.103299,-0.89413 0.148326,-1.3412 0.278111,0.61312 0.548276,1.25178 1.168066,1.70736 -0.03179,-0.63228 -0.103298,-1.26242 -0.185407,-1.89257 0.982658,0.66846 2.026236,1.28158 2.963867,1.99263 0.611844,0.46409 1.067416,1.15172 1.981209,1.24751 0.225138,-0.34061 0.458221,-0.67697 0.693953,-1.01121 -0.05827,0.39597 -0.113893,0.79407 -0.169515,1.19004 0.972064,0.87923 1.501799,1.99688 1.74018,3.14435 -0.704548,-0.30656 -1.655423,-0.48539 -1.952074,-1.15811 -0.296652,-0.43642 -0.405247,-1.0176 -1.009145,-1.25816 -0.516492,-0.28953 -1.130985,-0.41726 -1.74018,-0.51093 0.04503,0.37255 0.09005,0.74723 0.137731,1.12191 -0.985307,-0.61737 -1.830235,-1.35822 -2.759919,-2.02456 -0.686007,-0.50667 -1.703098,-0.37255 -2.548026,-0.47899 0.892604,0.70892 1.944128,1.35822 3.247276,1.43486 -0.301949,0.17456 -0.611844,0.51092 -1.032983,0.35978 -0.64098,-0.20225 -1.168066,-0.56841 -1.734882,-0.86858 -0.06092,0.21714 -0.182759,0.6493 -0.246327,0.86645 -0.132434,-0.0617 -0.39995,-0.18522 -0.532384,-0.24695 -0.492654,-0.41939 -1.271364,-0.27463 -1.493853,0.27249 0.02913,0.0405 0.09005,0.12135 0.119191,0.1618 0.256921,0.36191 0.51914,0.72594 0.77871,1.08998 -0.28076,0.36617 -0.558871,0.73446 -0.829035,1.10702 0.402598,0.39809 0.860819,0.82174 1.530934,0.90903 1.443528,0.11921 2.945327,-0.39385 4.346476,0.0681 1.289905,0.45132 2.603647,0.98354 3.522738,1.86489 0.65952,0.57905 0.823738,1.38164 0.749575,2.14165 2.235482,1.12404 4.974212,1.69884 7.591102,1.25816 0.789306,-0.15754 1.390555,-0.63227 1.997102,-1.03676 0.177461,0.23418 0.352272,0.46835 0.532381,0.70253 -1.075364,0.98567 -0.521788,2.64193 -2.012988,3.40619 -0.166868,-0.0511 -0.503253,-0.1554 -0.670116,-0.20863 -0.108598,-0.48538 0.362868,-0.88774 0.57476,-1.31138 -0.738979,0.46197 -1.337578,1.04102 -1.91764,1.62646 -1.112443,-0.80046 -2.532133,-1.6733 -4.121338,-1.36887 -0.688656,0.0937 -0.977361,0.67059 -1.387906,1.05379 -1.443528,-0.0383 -3.003597,0.29166 -4.346476,-0.26823 1.083308,-0.19373 2.185157,-0.004 3.276412,0.0532 0.161569,-0.63654 0.362868,-1.27094 0.389355,-1.92024 -0.508546,-0.56841 -1.305798,-0.90052 -1.941479,-1.36461 0.03708,-0.0596 0.108596,-0.17883 0.143029,-0.23844 0.606545,0.20225 1.221039,0.40023 1.835531,0.5897 -0.556222,-1.03889 -1.091254,-2.1012 -1.914992,-3.02725 -1.369365,-1.18366 -3.594253,-2.23106 -5.57811,-1.3561 -0.903198,0.0469 -1.803748,0.0894 -2.704297,0.11709 -0.463519,0.46197 -0.855522,0.97077 -1.183958,1.50086 -0.193353,0.006 -0.574763,0.0149 -0.765467,0.0192 0.969415,-1.58814 1.236931,-3.37426 1.141579,-5.12207 0.280759,-0.99844 1.202498,-1.79464 1.700449,-2.72921 -0.450274,-0.65995 -0.961469,-1.29223 -1.364068,-1.96921 -0.421139,-0.68124 0.0106,-1.45189 0.429086,-2.05649 m 5.713192,3.6276 c -0.336381,0.15115 -0.331084,0.29378 0.01589,0.43216 0.33903,-0.15328 0.333733,-0.29592 -0.01589,-0.43216 m 0.606547,0.67911 c -0.519141,0.2874 0.172164,0.83452 0.556222,0.44494 0.521788,-0.14477 -0.336382,-0.80046 -0.556222,-0.44494 z"
               inkscape:connector-curvature="0"
               style="opacity:1;fill:#050505;stroke-width:0.23745932" />
            <path
               id="path5326"
               d="m 60.705305,311.48287 c 1.017091,0.29165 2.071265,0.58543 2.945327,1.10914 0.169515,0.35552 -0.14038,0.64292 -0.5006,0.81536 -0.2993,-0.41514 -0.566816,-0.84303 -0.831684,-1.27094 -0.617141,-0.0639 -1.35877,-0.10645 -1.613043,-0.65356 z"
               inkscape:connector-curvature="0"
               style="opacity:1;fill:#050505;stroke-width:0.23745932" />
            <path
               id="path5328"
               d="m 64.887564,312.27268 c 0.797251,-0.41726 1.009145,0.92393 0.19865,0.90264 -0.588006,-0.0192 -0.707196,-0.70253 -0.19865,-0.90264 z"
               inkscape:connector-curvature="0"
               style="opacity:1;fill:#3a3a3a;stroke-width:0.23745932" />
            <path
               id="path5330"
               d="m 71.231143,312.18965 c 0.259569,0.3981 0.601248,0.75575 0.99325,1.07721 -0.01852,0.87284 0.429086,1.68394 0.640978,2.52697 -1.364066,-0.85581 -1.234279,-2.38433 -1.634228,-3.60418 z"
               inkscape:connector-curvature="0"
               style="opacity:1;fill:#040404;stroke-width:0.23745932" />
            <path
               id="path5332"
               d="m 67.31375,313.00075 c 0.05033,-0.22991 0.129785,-0.45558 0.230435,-0.67485 0.137731,0.1916 0.275462,0.38319 0.413193,0.57692 -0.585357,0.36617 -1.115092,0.84304 -1.869965,0.96864 -0.06886,-0.59183 0.731034,-0.66421 1.226337,-0.87071 z"
               inkscape:connector-curvature="0"
               style="opacity:1;fill:#5a5a5a;stroke-width:0.23745932" />
            <path
               id="path5334"
               d="m 60.069623,312.61968 c 0.349625,0.13625 0.354923,0.27889 0.01589,0.43217 -0.346977,-0.13838 -0.352274,-0.28101 -0.01589,-0.43217 z"
               inkscape:connector-curvature="0"
               style="opacity:1;fill:#e0dbdc;stroke-width:0.23745932" />
            <path
               id="path5336"
               d="m 60.67617,313.29879 c 0.21984,-0.35552 1.07801,0.30018 0.556222,0.44494 -0.384058,0.38958 -1.075363,-0.15754 -0.556222,-0.44494 z"
               inkscape:connector-curvature="0"
               style="opacity:1;fill:#a7a7a7;stroke-width:0.23745932" />
            <path
               id="path5338"
               d="m 69.106903,313.71819 c 0.04237,-0.43004 0.617141,-0.31721 0.990604,-0.35127 0.08211,0.27462 0.259571,0.61524 -0.07151,0.84091 -0.431733,0.24907 -1.062119,-0.0788 -0.91909,-0.48964 z"
               inkscape:connector-curvature="0"
               style="opacity:1;fill:#dadada;stroke-width:0.23745932" />
            <path
               id="path5340"
               d="m 66.921746,314.2355 c 0.746927,0.25334 0.953523,0.9218 1.292554,1.45189 0.262219,-0.15754 0.524437,-0.31294 0.789305,-0.46835 0.262219,0.63227 0.532383,1.26242 0.715142,1.91386 -0.625087,0.1256 -1.271364,0.13412 -1.907046,0.11283 0.458221,-0.41088 1.207795,-0.88349 0.744278,-1.49234 -1.162769,0.25333 -1.544178,-0.81749 -1.634233,-1.51789 z"
               inkscape:connector-curvature="0"
               style="opacity:1;fill:#1f1f1f;stroke-width:0.23745932" />
            <path
               id="path5342"
               d="m 54.435891,315.29993 c 0.222489,-0.54712 1.001199,-0.69188 1.493853,-0.27249 0.294003,0.45771 0.884658,0.49603 1.45942,0.48538 0.264868,0.32146 0.51914,0.64718 0.773414,0.97716 -0.588007,-0.0554 -1.210445,-0.009 -1.769316,-0.1916 -0.606546,-0.2874 -1.168065,-0.64505 -1.83818,-0.83665 -0.02913,-0.0405 -0.09005,-0.12134 -0.119191,-0.1618 z"
               inkscape:connector-curvature="0"
               style="opacity:1;fill:#767676;stroke-width:0.23745932" />
            <path
               id="path5344"
               d="m 65.700706,314.69959 c 1.350825,0.34275 1.37996,1.76058 1.393204,2.70367 -0.82109,-0.75575 -1.191904,-1.7329 -1.393204,-2.70367 z"
               inkscape:connector-curvature="0"
               style="opacity:1;fill:#1f1f1f;stroke-width:0.23745932" />
            <path
               id="path5346"
               d="m 70.089561,314.96783 c 0.479411,-0.12773 0.733684,0.52157 0.217192,0.61312 -0.516492,0.15114 -0.741629,-0.52796 -0.217192,-0.61312 z"
               inkscape:connector-curvature="0"
               style="opacity:1;fill:#aaaaaa;stroke-width:0.23745932" />
            <path
               id="path5348"
               d="m 70.33324,316.1898 c 0.974713,0.70254 0.897903,1.85213 0.717791,2.80373 -0.14038,-0.0383 -0.418491,-0.11283 -0.558871,-0.15115 -0.121839,-0.88135 -0.185407,-1.76697 -0.15892,-2.65258 z"
               inkscape:connector-curvature="0"
               style="opacity:1;fill:#212121;stroke-width:0.23745932" />
            <path
               id="path5350"
               d="m 76.353678,316.64964 c 0.572111,1.50511 0.588007,3.12731 0.21719,4.66436 -0.182759,0.92606 -1.062117,1.58388 -1.795803,2.25235 -0.180109,-0.23418 -0.35492,-0.46835 -0.532381,-0.70253 0.876715,-0.7153 1.448821,-1.65414 1.673964,-2.63767 0.235731,-1.07721 0.341679,-2.33112 -0.728387,-3.15074 -0.01585,-0.0468 -0.05035,-0.14263 -0.06886,-0.18947 0.410541,-0.0788 0.821088,-0.15753 1.234279,-0.2363 z"
               inkscape:connector-curvature="0"
               style="opacity:1;fill:#585858;stroke-width:0.23745932" />
            <path
               id="path5352"
               d="m 57.103107,319.23196 c 1.983857,-0.87496 4.208745,0.17244 5.57811,1.3561 -0.588006,0.0405 -1.17866,0.0809 -1.766667,0.10431 -1.292553,-0.44919 -2.624836,-0.84303 -3.811443,-1.46041 z"
               inkscape:connector-curvature="0"
               style="opacity:1;fill:#616161;stroke-width:0.23745932" />
            <path
               id="path5354"
               d="m 53.214852,320.84991 c 0.328436,-0.53009 0.720439,-1.03889 1.183958,-1.50086 0.900549,-0.0277 1.801099,-0.0703 2.704297,-0.11709 1.186607,0.61738 2.51889,1.01122 3.811443,1.46041 0.7999,0.52796 1.5998,1.05805 2.346726,1.63497 -0.172163,0.22992 -0.33903,0.46197 -0.500598,0.69827 -0.03443,0.0596 -0.105948,0.17883 -0.143029,0.23844 0.635681,0.46409 1.432933,0.7962 1.941479,1.36461 -0.02649,0.6493 -0.227786,1.2837 -0.389355,1.92024 -1.091255,-0.0575 -2.193104,-0.24695 -3.276412,-0.0532 -0.990604,0.33636 -1.822288,0.9516 -2.248725,1.75419 1.011794,-0.3172 1.8991,-0.87071 2.95857,-1.09637 1.390554,-0.1916 2.807596,0.16605 4.020689,0.70253 1.324338,0.71956 2.953273,0.83665 4.508045,0.80684 0.831684,0.69401 1.997101,1.2241 2.3997,2.18209 -0.169517,1.3561 0.733685,2.75051 0.0079,4.05338 -0.55622,0.59183 -1.324336,1.17939 -1.202497,1.99262 -0.466166,0.14264 -0.934982,0.27676 -1.3985,0.41726 -0.01854,0.37681 0.662169,1.11553 -0.129785,1.18791 -0.333733,-0.17882 -0.627736,-0.40023 -0.927036,-0.60885 -0.312544,0.30868 -0.625087,0.61524 -0.937631,0.92393 -0.836982,-0.21289 -1.671314,-0.43003 -2.50035,-0.65357 0.07151,-0.6493 -0.09005,-1.32416 -0.852873,-1.66478 -0.227786,-0.56202 -0.333734,-1.24539 -1.078011,-1.52214 -0.02119,0.61311 -0.04767,1.22623 -0.196002,1.8287 -0.463518,-0.19798 -1.078011,-0.33849 -1.221039,-0.80471 -0.2013,-0.65995 -0.07681,-1.35183 -0.08476,-2.02456 0.802549,-0.16179 1.581259,0.049 2.251374,0.40874 0.346977,-0.0702 0.69925,-0.1405 1.048876,-0.20862 0.333733,0.5684 1.085956,1.13256 0.765466,1.80741 -0.121838,0.3619 -0.2993,0.70891 -0.45822,1.06443 0.784007,0.38959 1.517691,0.83452 2.254023,1.27946 0.768115,-0.87923 1.228985,-1.8947 1.570664,-2.92721 -0.5986,-0.49815 -0.810495,-1.17939 -1.176012,-1.78612 0.392004,-0.0106 0.858171,-0.12773 1.173363,0.14051 0.542979,0.37468 0.5006,0.99631 0.611844,1.51575 0.376112,-1.17726 0.789305,-2.412 0.442329,-3.6276 -0.908496,-0.31294 -1.81964,-0.6195 -2.706946,-0.9665 0.129785,-0.37043 0.25957,-0.73872 0.392003,-1.10702 -1.544176,-0.23843 -3.395601,-1.12191 -4.809994,-0.17669 -0.945577,0.74936 -2.412943,0.41938 -3.472412,0.97289 -1.957371,0.91329 -3.745227,2.0863 -5.122538,3.53819 -0.397301,0.0362 -0.797252,0.0724 -1.191904,0.11283 -0.717791,0.46835 -1.615692,0.65782 -2.4977,0.81749 0.270165,-0.9729 0.331084,-2.10759 1.305796,-2.8314 1.295202,-0.95374 2.179859,-2.22681 3.612793,-3.06771 0.556222,-0.32785 1.032984,-0.73234 1.48061,-1.15172 0.993252,-0.97503 2.622188,-1.32629 3.660468,-2.25661 0.278111,-0.5386 -0.945576,-0.33849 -1.350824,-0.45345 -0.251624,-0.36616 -0.497951,-0.73233 -0.749575,-1.09424 -0.03443,0.2874 -0.06886,0.57693 -0.103298,0.86858 -0.72044,-0.31507 -1.544178,-0.36403 -2.285807,-0.0575 -0.05297,-0.44067 -0.121839,-0.88348 -0.21984,-1.3199 -0.325787,0.4641 -0.03179,0.97077 -0.01324,1.46041 -0.323137,0.43216 -1.017091,0.21928 -1.522988,0.26824 -1.014442,-0.009 -1.97856,0.26611 -2.961218,0.42577 0.02913,-0.73872 0.686007,-1.20494 1.472663,-1.47743 0.582709,-0.6046 -0.230435,-1.1496 -0.776062,-1.50512 0.161569,-0.60247 0.346977,-1.19855 0.58006,-1.78612 m 2.322889,1.33693 c -0.696602,0.21289 -0.166867,1.15172 0.495301,0.82174 0.667466,-0.16818 0.153623,-1.11553 -0.495301,-0.82174 m 1.758719,0.55138 c -0.08211,0.22991 -0.304597,0.50241 0.04767,0.66421 0.535033,0.33636 1.189255,-0.22141 0.866117,-0.66421 -0.307246,0 -0.611843,0 -0.913793,0 m -0.940279,6.93161 c -0.656872,0.37042 -0.897901,1.01547 -1.072714,1.61155 0.807846,-0.66846 2.29905,-0.76852 2.608945,-1.79038 -0.508545,0.0553 -1.062118,-0.004 -1.536231,0.17883 z"
               inkscape:connector-curvature="0"
               style="opacity:1;fill:#fdfdfd;stroke-width:0.23745932" />
            <path
               id="path5356"
               d="m 65.345784,320.25169 c 0.577411,-0.10857 0.460869,0.36192 0.521789,0.66208 -0.574762,0.11922 -1.202498,-0.36191 -0.521789,-0.66208 z"
               inkscape:connector-curvature="0"
               style="opacity:1;fill:#cecece;stroke-width:0.23745932" />
            <path
               id="path5358"
               d="m 60.91455,320.69237 c 0.588007,-0.0234 1.178661,-0.0639 1.766667,-0.10431 0.823738,0.92605 1.35877,1.98836 1.914992,3.02725 -0.614492,-0.18947 -1.228986,-0.38745 -1.835531,-0.5897 0.161568,-0.2363 0.328435,-0.46835 0.500598,-0.69827 -0.746926,-0.57692 -1.546826,-1.10701 -2.346726,-1.63497 z"
               inkscape:connector-curvature="0"
               style="opacity:1;fill:#a7a7a7;stroke-width:0.23745932" />
            <path
               id="path5360"
               d="m 52.449385,320.86906 c 0.190704,-0.004 0.572114,-0.0128 0.765467,-0.0192 -0.233084,0.58757 -0.418491,1.18366 -0.58006,1.78613 0.545627,0.35552 1.358771,0.90051 0.776062,1.50511 -0.47941,-0.13412 -0.956172,-0.27888 -1.427636,-0.42365 -0.21984,0.50242 -0.434382,1.00696 -0.664817,1.50512 -0.437032,-1.51789 0.397301,-2.99107 1.130984,-4.35355 z"
               inkscape:connector-curvature="0"
               style="opacity:1;fill:#232323;stroke-width:0.23745932" />
            <path
               id="path5362"
               d="m 55.53774,322.18684 c 0.648925,-0.29379 1.162768,0.65356 0.495302,0.82174 -0.662169,0.32998 -1.191903,-0.60885 -0.495302,-0.82174 z"
               inkscape:connector-curvature="0"
               style="opacity:1;fill:#b5b5b5;stroke-width:0.23745932" />
            <path
               id="path5364"
               d="m 57.29646,322.73822 c 0.30195,0 0.606547,0 0.913794,0 0.323137,0.4428 -0.331085,1.00057 -0.866117,0.66421 -0.352274,-0.1618 -0.129786,-0.4343 -0.04767,-0.66421 z"
               inkscape:connector-curvature="0"
               style="opacity:1;fill:#5a5a5a;stroke-width:0.23745932" />
            <path
               id="path5368"
               d="m 56.422397,324.92457 c -0.01854,-0.48964 -0.312543,-0.99631 0.01324,-1.46041 0.098,0.43642 0.166866,0.87923 0.21984,1.3199 0.741629,-0.30655 1.565367,-0.25759 2.285807,0.0575 0.03443,-0.29165 0.06887,-0.58118 0.103298,-0.86858 0.251624,0.36191 0.497951,0.72808 0.749575,1.09424 0.405247,0.11496 1.628935,-0.0851 1.350824,0.45345 -1.03828,0.93032 -2.667216,1.28158 -3.660469,2.25661 -0.447625,0.41938 -0.924387,0.82387 -1.480609,1.15172 -1.432933,0.8409 -2.317591,2.11397 -3.612793,3.06771 -0.974713,0.72381 -1.035632,1.8585 -1.305797,2.8314 0.882009,-0.15967 1.77991,-0.34914 2.497701,-0.81749 0.394652,-0.0404 0.794602,-0.0766 1.191903,-0.11283 1.377312,-1.45189 3.165168,-2.6249 5.122538,-3.53819 1.05947,-0.55351 2.526836,-0.22353 3.472413,-0.97289 1.255472,0.2363 2.548026,0.29804 3.816741,0.47899 -0.100649,0.23205 -0.196001,0.46623 -0.294002,0.7004 0.296651,0.0298 0.595952,0.0639 0.895252,0.10432 0.887306,0.347 1.79845,0.65356 2.706946,0.9665 0.346976,1.2156 -0.06622,2.45034 -0.442329,3.6276 -0.111244,-0.51944 -0.06887,-1.14107 -0.611844,-1.51575 -0.315192,-0.26824 -0.781359,-0.15115 -1.173363,-0.14051 0.365517,0.60673 0.577411,1.28797 1.176012,1.78612 -0.341679,1.03251 -0.802549,2.04798 -1.570664,2.92721 -0.736333,-0.44494 -1.470016,-0.88987 -2.254023,-1.27946 0.15892,-0.35552 0.336381,-0.70253 0.45822,-1.06443 0.32049,-0.67485 -0.431734,-1.23901 -0.765467,-1.80741 -0.349625,0.0681 -0.701898,0.13837 -1.048875,0.20862 -0.670115,-0.35977 -1.448825,-0.57053 -2.251374,-0.40874 0.0079,0.67273 -0.116542,1.36461 0.08476,2.02456 0.143029,0.46622 0.757522,0.60673 1.22104,0.80471 0.148326,-0.60247 0.174812,-1.21559 0.196002,-1.8287 0.744277,0.27675 0.850225,0.96012 1.078011,1.52214 0.762818,0.34062 0.924387,1.01548 0.852873,1.66478 0.829035,0.22354 1.663368,0.44068 2.50035,0.65357 0.312543,-0.30869 0.625087,-0.61525 0.937631,-0.92393 0.2993,0.20862 0.593303,0.43003 0.927036,0.60885 0.791954,-0.0724 0.111245,-0.8111 0.129785,-1.18791 0.463518,-0.1405 0.932334,-0.27462 1.398501,-0.41726 -0.121839,-0.81323 0.646277,-1.40079 1.202497,-1.99262 0.566817,-0.19373 1.181313,-0.17883 1.771964,-0.0639 0.02917,0.892 -0.135081,1.77761 -0.113886,2.66961 -0.04501,-0.0745 -0.135086,-0.22353 -0.180115,-0.29591 -0.172162,0.004 -0.513846,0.017 -0.683358,0.0234 -0.06622,-0.27888 -0.127138,-0.55564 -0.188058,-0.83452 -0.479409,0.28101 -0.97206,0.56628 -1.305796,0.96864 -0.622438,0.84942 -1.215742,1.71161 -1.904397,2.5291 0.148325,0.24695 0.296651,0.49603 0.468815,0.73872 -0.06887,0.72381 -0.158921,1.46041 -0.550925,2.12674 -0.09006,-0.73446 -0.280759,-1.45614 -0.45822,-2.17997 -0.614493,-0.38319 -1.202499,-0.84516 -1.973264,-1.01547 -0.513843,-0.10857 -1.223687,0.0256 -1.387906,0.48539 -0.373463,0.9367 0.744279,1.80102 0.370815,2.7356 -0.823738,0.65143 -2.113643,0.36616 -3.146626,0.36616 0.04238,-0.0745 0.129785,-0.22353 0.172164,-0.29804 0.87936,-0.0298 1.75872,-0.0617 2.635432,-0.11496 0.23838,-1.11127 -1.04093,-2.07139 -2.383808,-2.0054 -0.323139,0.51094 -0.476761,1.14747 -1.141579,1.45615 -0.03708,-0.44919 -0.05297,-0.89625 -0.05297,-1.34331 -0.444977,-0.20651 -0.897901,-0.51732 -1.446176,-0.44707 -0.542979,0.0362 -0.916442,0.37256 -1.276662,0.65995 -0.227786,-0.90903 -1.350824,-1.40292 -2.447376,-1.25603 -0.254273,0.56202 -0.450274,1.13895 -0.566816,1.73077 1.062119,0.29591 2.163968,0.47261 3.271114,0.62163 0.770764,0.1469 1.67926,0.21076 2.211643,0.74298 -1.922938,-0.32146 -3.927985,-0.48964 -5.723787,-1.16662 -2.412943,-1.0836 -4.500099,-2.8016 -7.342127,-3.13157 -0.625087,0.72594 -1.027686,1.73503 -2.224888,1.96069 0.733684,-0.88774 1.493853,-1.78187 1.859371,-2.82076 0.974712,0.37681 2.005047,0.77491 3.120139,0.6195 -0.312544,-0.86219 -0.728386,-1.69671 -1.295202,-2.46949 -0.209245,0.5897 -0.442328,1.17939 -0.786657,1.73077 -0.203947,-0.29591 -0.728385,-0.59182 -0.503248,-0.97928 0.781359,-1.69458 1.432933,-3.42535 2.047426,-5.16251 0.19865,-0.51306 0.06622,-1.0538 0.04238,-1.5775 -0.389355,0.21927 -0.770764,0.44068 -1.152174,0.65995 -0.07416,-0.0617 -0.219839,-0.18734 -0.291354,-0.25121 0.537682,-0.26397 1.149526,-0.51944 1.411744,-1.00908 0.447627,-0.69614 0.307247,-1.49873 0.166867,-2.23958 -0.58006,0.0809 -1.149525,0.19373 -1.716342,0.31507 0.553574,-0.41725 1.070065,-0.86644 1.573313,-1.32202 0.389356,-0.0298 0.78136,-0.0404 1.176012,-0.0532 0.135083,0.10218 0.405248,0.30442 0.54033,0.40448 0.04767,-0.18947 0.10065,-0.37894 0.156272,-0.56628 0.595951,-0.10857 1.292553,-0.1554 1.607746,-0.64717 0.505897,-0.049 1.19985,0.16392 1.522988,-0.26824 m -4.820589,5.35198 c 0.2993,0.10006 0.598601,0.19799 0.90055,0.29804 0.113892,-1.04101 0.948225,-1.86915 1.623638,-2.71431 -1.252824,0.44919 -2.087157,1.39654 -2.524188,2.41627 m 9.41604,0.54925 c 0.04503,0.13838 0.135082,0.41726 0.18011,0.55777 1.568016,0.59821 3.048625,1.77122 4.926536,1.4306 -0.111244,-0.26186 -0.07416,-0.58757 -0.333733,-0.7962 -1.202499,-0.99844 -3.069814,-1.5264 -4.772913,-1.19217 m -9.031982,0.7962 c 0.524438,-0.0405 0.887306,-0.60673 0.2993,-0.82813 -0.508546,0.12134 -0.490005,0.51093 -0.2993,0.82813 m 6.804447,0.93031 c 0.460869,0.58332 1.35877,0.26399 2.034182,0.22993 0.564167,0.24268 0.927036,0.70891 1.52034,0.92393 0.762818,-0.37043 1.424986,0.14689 2.153373,0.26823 0.564168,-0.0575 0.07681,-0.53221 0.08476,-0.78981 -1.475312,-0.43216 -2.696351,-1.4306 -4.327935,-1.47318 -0.593304,0.0554 -1.52034,0.21076 -1.464717,0.8409 m 7.850673,0.49178 c 1.056821,0.19373 2.150724,0.22992 3.21814,0.3981 0.169515,-0.42578 0.251625,-0.89626 -0.05033,-1.29649 -0.765468,-0.23418 -1.589206,-0.29804 -2.381159,-0.45771 -0.913794,-0.25972 -1.758721,1.01973 -0.786657,1.3561 m -10.647674,0.45557 c 0.267516,0.64079 0.503248,1.33907 1.123038,1.82658 0.262219,0.17457 0.68071,0.413 1.014443,0.20437 0.993253,-0.41087 0.823737,-1.44337 0.897901,-2.19061 -0.569466,-0.27249 -1.234283,-0.57905 -1.917641,-0.3981 -0.394653,0.15754 -0.752224,0.36617 -1.117741,0.55776 m 3.374412,1.94792 c 0.61979,0.38107 1.385257,0.52797 2.156021,0.55351 0.111245,-0.83451 0.211895,-1.73503 -0.280759,-2.50568 -0.124488,-0.40661 -0.640979,-0.413 -1.062118,-0.42577 -0.479411,0.74084 -0.588007,1.57536 -0.813144,2.37794 m 5.895951,-2.01604 c 0.18011,0.80685 1.512394,1.03037 2.142778,0.39597 -0.490004,-0.56628 -1.3985,-0.64504 -2.142778,-0.39597 m -10.973462,1.71587 c 0.437032,1.02186 2.434133,-0.39384 1.197202,-0.88987 -0.482059,0.20863 -1.075362,0.40024 -1.197202,0.88987 m 12.631533,-0.44493 c -0.198651,0.68337 -0.349626,1.37525 -0.471465,2.0714 0.659521,0.009 1.321689,0.009 1.983858,0.006 0.150975,-0.64079 0.275462,-1.4306 -0.328436,-1.95005 -0.309895,-0.29378 -0.791953,-0.1554 -1.183957,-0.12773 M 51.3237,335.63455 c 0.241029,0.38958 0.495302,0.77491 0.752223,1.1581 0.646277,-0.0447 1.438231,0.0617 1.904398,-0.3917 0.08741,-0.41088 -0.233084,-0.81537 -0.593304,-1.08573 -0.707196,-0.0639 -1.414392,0.10644 -2.063317,0.31933 m 9.01609,1.53917 c 0.55887,0.20864 1.353473,0.36617 1.766666,-0.12773 -0.116542,-0.68124 -1.893803,-0.65782 -1.766666,0.12773 m 3.941228,0.2576 c -0.02913,0.33423 -0.43968,0.80258 0.07681,1.01972 0.701899,-0.0213 0.717791,-1.09423 -0.07681,-1.01972 m -11.362816,0.46835 c -0.188056,0.26398 -0.37876,0.52796 -0.566816,0.79194 0.866116,0.98141 2.148075,1.64136 3.435331,2.21829 0.145677,-0.0319 0.43968,-0.0958 0.585357,-0.12774 0.01854,-0.58118 0.535033,-1.23262 0.07681,-1.75419 -0.715142,-0.16818 -1.266067,0.41726 -1.891154,0.60673 -0.0053,-0.57267 -0.0079,-1.14533 -0.02913,-1.718 -0.53768,-0.0617 -1.075362,-0.0788 -1.610394,-0.017 m 3.769065,0.31082 c -0.278111,0.63866 0.842278,0.90689 1.395852,1.09637 0.166866,-0.35979 0.346976,-0.71531 0.535032,-1.06657 -0.550924,-0.34488 -1.382609,-0.41513 -1.930884,-0.0298 m 2.15867,1.33692 c 1.295202,0.40236 2.79965,0.61951 4.0975,0.10219 0.02384,0.24695 0.04767,0.49603 0.07681,0.74723 0.836981,-0.0149 1.673963,-0.0553 2.508295,-0.12134 -0.312543,-0.74085 -1.329635,-0.91754 -2.171913,-1.03676 0.283408,-0.14051 0.564167,-0.28527 0.847576,-0.43003 -0.595952,-0.63867 -1.554772,-0.97503 -2.540079,-0.84304 -0.04239,0.47048 -0.098,0.94096 -0.180111,1.41145 -0.635682,-0.31934 -0.553572,-0.97716 -0.709844,-1.49447 -0.447626,0 -0.895253,0.006 -1.34023,0.009 -0.222488,0.53435 -0.648925,1.10276 -0.588006,1.65626 m 9.964316,-0.91115 c -0.241029,0.22566 -0.153623,0.56415 0.18011,0.69614 0.65952,-0.0596 0.497951,-1.01121 -0.18011,-0.69614 z"
               inkscape:connector-curvature="0"
               style="opacity:1;fill:#030304;stroke-width:0.23745932" />
            <path
               id="path5370"
               d="m 51.318401,325.22261 c 0.230435,-0.49816 0.444977,-1.0027 0.664817,-1.50511 0.471464,0.14476 0.948226,0.28952 1.427636,0.42365 -0.786657,0.27249 -1.443528,0.73871 -1.472663,1.47743 0.982658,-0.15966 1.946775,-0.43429 2.961218,-0.42577 -0.315192,0.49177 -1.011794,0.5386 -1.607745,0.64717 -0.05562,0.18734 -0.108596,0.37681 -0.156272,0.56628 -0.135082,-0.10005 -0.405247,-0.30229 -0.54033,-0.40448 -0.394652,0.0128 -0.786657,0.0234 -1.176012,0.0532 -0.02119,-0.27888 -0.05827,-0.55563 -0.100649,-0.83239 z"
               inkscape:connector-curvature="0"
               style="opacity:1;fill:#989898;stroke-width:0.23745932" />
            <path
               id="path5374"
               d="m 70.749081,327.07899 c 0.580062,-0.58544 1.178661,-1.16449 1.91764,-1.62646 -0.211892,0.42364 -0.683358,0.826 -0.57476,1.31138 -0.135081,-0.0192 -0.402599,-0.0617 -0.535035,-0.083 0.172166,0.45345 0.556224,0.81535 0.998553,1.11766 -0.426438,0.10857 -0.850226,0.22353 -1.287256,0.30655 -0.169516,-0.34487 -0.331085,-0.68975 -0.519142,-1.02611 z"
               inkscape:connector-curvature="0"
               style="opacity:1;fill:#626262;stroke-width:0.23745932" />
            <path
               id="path5376"
               d="m 34.041092,326.60212 c -0.307246,-0.3023 0.03443,-0.60034 0.344329,-0.77917 0.201298,0.15328 0.407895,0.30656 0.611844,0.45984 -0.01589,0.10432 -0.04767,0.31294 -0.06357,0.41726 -0.315192,0.0447 -0.69925,0.19586 -0.892604,-0.0979 z"
               inkscape:connector-curvature="0"
               style="opacity:1;fill:#585858;stroke-width:0.23745932" />
            <path
               id="path5378"
               d="m 65.239837,326.76391 c 0.410545,-0.3832 0.69925,-0.96011 1.387906,-1.05379 1.589205,-0.30443 3.008895,0.56841 4.121338,1.36887 0.188057,0.33636 0.349626,0.68124 0.519142,1.02611 -1.655423,-0.20011 -3.427387,0.0256 -4.982159,-0.56202 -0.365517,-0.24695 -0.707196,-0.51518 -1.046227,-0.77917 z"
               inkscape:connector-curvature="0"
               style="opacity:1;fill:#fcfcfc;stroke-width:0.23745932" />
            <path
               id="path5380"
               d="m 35.198563,327.80919 c -0.540329,-0.74297 0.842279,-1.37525 1.602449,-1.48808 -0.267516,0.65143 -0.773413,1.24539 -1.602449,1.48808 z"
               inkscape:connector-curvature="0"
               style="opacity:1;fill:#0e0e0e;stroke-width:0.23745932" />
            <path
               id="path5382"
               d="m 58.644636,328.24987 c 0.426437,-0.80259 1.258121,-1.41783 2.248725,-1.75419 1.342879,0.55989 2.902948,0.22991 4.346476,0.26823 0.339031,0.26399 0.68071,0.53222 1.046227,0.77917 -0.166867,0.0788 -0.497951,0.23418 -0.662169,0.31295 -1.213093,-0.53648 -2.630135,-0.89413 -4.020689,-0.70253 -1.05947,0.22566 -1.946776,0.77917 -2.95857,1.09637 z"
               inkscape:connector-curvature="0"
               style="opacity:1;fill:#616161;stroke-width:0.23745932" />
            <path
               id="path5384"
               d="m 65.623895,327.85603 c 0.164218,-0.0788 0.495302,-0.23418 0.662169,-0.31295 1.554772,0.58757 3.326736,0.36191 4.982159,0.56202 0.43703,-0.083 0.860818,-0.19798 1.287256,-0.30655 0.564168,0.413 1.107146,0.84303 1.642182,1.27945 -0.07152,1.05805 -0.418495,2.11184 -0.235736,3.17415 0.07151,0.37042 0.161569,0.74298 0.21719,1.11979 0.008,0.12986 0.02382,0.39384 0.03179,0.5237 -0.227787,-0.0149 -0.680713,-0.0447 -0.905847,-0.0596 -0.270167,-0.99418 -0.410546,-2.01391 -0.773415,-2.99107 -0.402599,-0.95799 -1.568015,-1.48808 -2.399699,-2.18209 -1.554772,0.0298 -3.183707,-0.0873 -4.508045,-0.80684 z"
               inkscape:connector-curvature="0"
               style="opacity:1;fill:#090909;stroke-width:0.23745932" />
            <path
               id="path5386"
               d="m 51.601809,330.27656 c 0.437031,-1.01973 1.271364,-1.96708 2.524187,-2.41628 -0.675412,0.84517 -1.509745,1.6733 -1.623637,2.71432 -0.301949,-0.10006 -0.60125,-0.19799 -0.90055,-0.29804 z"
               inkscape:connector-curvature="0"
               style="opacity:1;fill:#fcfcfc;stroke-width:0.23745932" />
            <path
               id="path5388"
               d="m 74.338035,327.87519 c 0.813146,0.70891 2.055373,1.5562 1.361423,2.62064 0.25692,0.3023 0.51649,0.6046 0.776054,0.9069 -0.651566,-0.17883 -1.2899,-0.38746 -1.914988,-0.61524 0.402599,0.73659 0.791951,1.4753 1.197204,2.20976 -0.556225,-0.31081 -1.144232,-0.58969 -1.795803,-0.7451 -0.182759,-1.06231 0.164219,-2.1161 0.235736,-3.17415 0.04501,-0.40235 0.0927,-0.80259 0.140374,-1.20281 z"
               inkscape:connector-curvature="0"
               style="opacity:1;fill:#585858;stroke-width:0.23745932" />
            <path
               id="path5390"
               d="m 63.369872,329.38669 c 1.414393,-0.94522 3.265817,-0.0617 4.809995,0.17669 -0.132434,0.3683 -0.262219,0.73659 -0.392004,1.10702 -0.2993,-0.0405 -0.598601,-0.0745 -0.895252,-0.10432 0.098,-0.23417 0.193353,-0.46835 0.294002,-0.7004 -1.268715,-0.18095 -2.561269,-0.24269 -3.816741,-0.47899 z"
               inkscape:connector-curvature="0"
               style="opacity:1;fill:#8b8b8b;stroke-width:0.23745932" />
            <path
               id="path5392"
               d="m 56.356181,329.66983 c 0.474113,-0.18309 1.027686,-0.12348 1.536232,-0.17883 -0.309896,1.02186 -1.8011,1.12192 -2.608946,1.79038 0.174813,-0.59608 0.415842,-1.24113 1.072714,-1.61155 z"
               inkscape:connector-curvature="0"
               style="opacity:1;fill:#232323;stroke-width:0.23745932" />
            <path
               id="path5394"
               d="m 61.017849,330.8258 c 1.703098,-0.33423 3.570414,0.19373 4.772913,1.19218 0.25957,0.20862 0.222488,0.53434 0.333733,0.79619 -1.877911,0.34062 -3.35852,-0.83239 -4.926536,-1.4306 -0.04503,-0.14051 -0.135083,-0.41939 -0.18011,-0.55777 z"
               inkscape:connector-curvature="0"
               style="opacity:1;fill:#f6f6f6;stroke-width:0.23745932" />
            <path
               id="path5396"
               d="m 51.985867,331.622 c -0.190705,-0.3172 -0.209246,-0.70679 0.2993,-0.82813 0.588006,0.2214 0.225137,0.78768 -0.2993,0.82813 z"
               inkscape:connector-curvature="0"
               style="opacity:1;fill:#fdfdfd;stroke-width:0.23745932" />
            <path
               id="path5398"
               d="m 72.53164,330.84496 c 0.362869,0.97716 0.503248,1.99689 0.773415,2.99107 0.225134,0.0149 0.67806,0.0447 0.905847,0.0596 -0.008,-0.12986 -0.02382,-0.39384 -0.03179,-0.5237 0.08211,0.48325 0.11919,0.97289 0.132432,1.46253 -0.590651,-0.11496 -1.205146,-0.12986 -1.771964,0.0639 0.725742,-1.30287 -0.17746,-2.69728 -0.0079,-4.05338 z"
               inkscape:connector-curvature="0"
               style="opacity:1;fill:#717171;stroke-width:0.23745932" />
            <path
               id="path5400"
               d="m 32.324751,331.44531 c 1.051524,-0.0788 0.797251,1.50937 -0.129785,1.42208 -0.680709,-0.22353 -0.58006,-1.29222 0.129785,-1.42208 z"
               inkscape:connector-curvature="0"
               style="opacity:1;fill:#585858;stroke-width:0.23745932" />
            <path
               id="path5402"
               d="m 58.790313,332.55232 c -0.05562,-0.63015 0.871414,-0.78555 1.464717,-0.84091 1.631585,0.0426 2.852624,1.04102 4.327935,1.47319 -0.0079,0.25759 0.479411,0.73233 -0.08476,0.7898 -0.728386,-0.12134 -1.390554,-0.63865 -2.153373,-0.26823 -0.593303,-0.21502 -0.956172,-0.68124 -1.52034,-0.92393 -0.675412,0.0341 -1.573312,0.35339 -2.034182,-0.22992 z"
               inkscape:connector-curvature="0"
               style="opacity:1;fill:#fcfcfc;stroke-width:0.23745932" />
            <path
               id="path5404"
               d="m 66.640987,333.04409 c -0.972065,-0.33636 -0.127137,-1.61581 0.786656,-1.35609 0.791954,0.15966 1.615692,0.22353 2.381159,0.4577 0.301949,0.40023 0.21984,0.87072 0.05033,1.29649 -1.067415,-0.16818 -2.161318,-0.20437 -3.21814,-0.3981 z"
               inkscape:connector-curvature="0"
               style="opacity:1;fill:#fafafa;stroke-width:0.23745932" />
            <path
               id="path5406"
               d="m 55.993312,333.49967 c 0.365517,-0.1916 0.723089,-0.40023 1.117741,-0.55777 0.683358,-0.18095 1.348176,0.12561 1.917641,0.39811 -0.07416,0.74723 0.09535,1.77973 -0.897901,2.1906 -0.333733,0.20864 -0.752224,-0.0298 -1.014443,-0.20437 -0.619789,-0.48751 -0.855522,-1.18578 -1.123038,-1.82657 z"
               inkscape:connector-curvature="0"
               style="opacity:1;fill:#fdfdfd;stroke-width:0.23745932" />
            <path
               id="path5408"
               d="m 59.367724,335.44759 c 0.225138,-0.80259 0.333733,-1.63711 0.813144,-2.37795 0.421139,0.0128 0.937631,0.0192 1.062118,0.42577 0.492654,0.77065 0.392004,1.67117 0.28076,2.50568 -0.770765,-0.0256 -1.536232,-0.17243 -2.156022,-0.5535 z"
               inkscape:connector-curvature="0"
               style="opacity:1;fill:#fafafa;stroke-width:0.23745932" />
            <path
               id="path5410"
               d="m 65.263675,333.43154 c 0.744278,-0.24907 1.652774,-0.1703 2.142778,0.39597 -0.630384,0.63441 -1.962668,0.41088 -2.142778,-0.39597 z"
               inkscape:connector-curvature="0"
               style="opacity:1;fill:#ececec;stroke-width:0.23745932" />
            <path
               id="path5412"
               d="m 54.290214,335.14742 c 0.121839,-0.48964 0.715142,-0.68124 1.197202,-0.88988 1.236931,0.49603 -0.760171,1.91174 -1.197202,0.88988 z"
               inkscape:connector-curvature="0"
               style="opacity:1;fill:#fdfdfd;stroke-width:0.23745932" />
            <path
               id="path5416"
               d="m 66.921746,334.70248 c 0.392004,-0.0277 0.874063,-0.16605 1.183958,0.12773 0.603898,0.51945 0.47941,1.30926 0.328436,1.95005 -0.662169,0.002 -1.324338,0.002 -1.983858,-0.006 0.121839,-0.69614 0.272813,-1.38803 0.471464,-2.0714 z"
               inkscape:connector-curvature="0"
               style="opacity:1;fill:#fdfdfd;stroke-width:0.23745932" />
            <path
               id="path5418"
               d="m 51.323698,335.63493 c 0.648925,-0.21289 1.356122,-0.3832 2.063318,-0.31933 0.360219,0.27036 0.680709,0.67485 0.593303,1.08572 -0.466167,0.45345 -1.25812,0.34701 -1.904397,0.39171 -0.256922,-0.38319 -0.511195,-0.76852 -0.752224,-1.1581 z"
               inkscape:connector-curvature="0"
               style="opacity:1;fill:#ffffff;stroke-width:0.23745932" />
            <path
               id="path5420"
               d="m 73.146135,336.39707 c 0.06092,0.27887 0.121835,0.55563 0.188053,0.83451 0.169512,-0.006 0.511196,-0.0192 0.683358,-0.0234 0.04501,0.0724 0.135086,0.2214 0.180115,0.29591 0.484703,0.9878 1.36936,1.89682 1.255469,3.01448 -0.296656,-0.0851 -0.590657,-0.16818 -0.884663,-0.25333 -0.098,-0.93032 -0.267512,-1.94792 -1.247526,-2.56529 -0.05035,0.65143 -0.0874,1.305 -0.164213,1.95643 -0.948227,-0.55776 -0.47676,-1.66265 -1.316394,-2.29066 0.333736,-0.40236 0.826387,-0.68763 1.305801,-0.96864 z"
               inkscape:connector-curvature="0"
               style="opacity:1;fill:#595959;stroke-width:0.23745932" />
            <path
               id="path5422"
               d="m 60.339788,337.1741 c -0.127137,-0.78555 1.650125,-0.80897 1.766667,-0.12773 -0.413194,0.4939 -1.207796,0.33637 -1.766667,0.12773 z"
               inkscape:connector-curvature="0"
               style="opacity:1;fill:#fafafa;stroke-width:0.23745932" />
            <path
               id="path5424"
               d="m 64.281017,337.4317 c 0.794602,-0.0745 0.77871,0.99844 0.07681,1.01972 -0.516491,-0.21714 -0.105947,-0.68549 -0.07681,-1.01972 z"
               inkscape:connector-curvature="0"
               style="opacity:1;fill:#fafafa;stroke-width:0.23745932" />
            <path
               id="path5426"
               d="m 52.9182,337.90005 c 0.535033,-0.0617 1.072714,-0.0447 1.610395,0.017 0.02119,0.57267 0.02384,1.14533 0.02913,1.718 0.625087,-0.18947 1.176012,-0.77491 1.891154,-0.60673 0.458221,0.52157 -0.05827,1.17301 -0.07681,1.75419 -0.145677,0.0319 -0.43968,0.0958 -0.585357,0.12774 -1.287257,-0.57693 -2.569215,-1.23688 -3.435332,-2.21829 0.188056,-0.26398 0.378761,-0.52796 0.566817,-0.79194 z"
               inkscape:connector-curvature="0"
               style="opacity:1;fill:#fcfcfc;stroke-width:0.23745932" />
            <path
               id="path5428"
               d="m 56.687265,338.21087 c 0.548276,-0.38533 1.37996,-0.31508 1.930884,0.0298 -0.188056,0.35126 -0.368166,0.70679 -0.535032,1.06657 -0.553573,-0.18948 -1.673963,-0.45771 -1.395852,-1.09637 z"
               inkscape:connector-curvature="0"
               style="opacity:1;fill:#ffffff;stroke-width:0.23745932" />
            <path
               id="path5430"
               d="m 58.845935,339.54779 c -0.06092,-0.5535 0.365518,-1.12191 0.588007,-1.65626 0.444977,-0.002 0.892603,-0.009 1.340229,-0.009 0.156272,0.51731 0.07416,1.17513 0.709844,1.49447 0.08211,-0.47049 0.137732,-0.94096 0.180111,-1.41145 0.985307,-0.13198 1.944128,0.20438 2.540079,0.84304 -0.283408,0.14476 -0.564168,0.28952 -0.847576,0.43003 0.842278,0.11922 1.85937,0.29591 2.171913,1.03676 -0.834332,0.066 -1.671313,0.10644 -2.508295,0.12134 -0.02913,-0.2512 -0.05297,-0.50028 -0.07681,-0.74723 -1.297851,0.51732 -2.802299,0.30017 -4.097501,-0.10219 z"
               inkscape:connector-curvature="0"
               style="opacity:1;fill:#fcfcfc;stroke-width:0.23745932" />
            <path
               id="path5432"
               d="m 68.810252,338.63664 c 0.67806,-0.31507 0.83963,0.63653 0.18011,0.69614 -0.333733,-0.13199 -0.42114,-0.47048 -0.18011,-0.69614 z"
               inkscape:connector-curvature="0"
               style="opacity:1;fill:#f6f6f6;stroke-width:0.23745932" />
            <path
               id="path5434"
               d="m 70.404754,340.63352 c 0.135083,0.16392 0.272813,0.32572 0.418491,0.48964 0.921738,0.10857 2.103046,0.0553 2.526834,0.87922 -0.924387,-0.0405 -1.848774,-0.0979 -2.773161,-0.10218 -0.05297,0.74723 -0.09005,1.50724 -0.36022,2.23106 -0.09535,-0.10431 -0.283408,-0.31507 -0.378761,-0.41939 0.0053,-0.3172 0.0079,-0.6344 0.01589,-0.95161 0.392004,-0.66633 0.482059,-1.40292 0.550925,-2.12674 z"
               inkscape:connector-curvature="0"
               style="opacity:1;fill:#5a5a5a;stroke-width:0.23745932" />
            <path
               id="path5436"
               d="m 49.334979,340.10396 c 0.14711,0.003 0.44133,0.0121 0.58844,0.0151 -0.39168,0.8134 -1.250434,1.38384 -1.688086,2.17461 -0.389841,0.68362 -0.798071,1.36573 -1.066547,2.09009 1.215496,0.1328 1.572237,-0.96582 1.82784,-1.70527 0.761294,0.14939 0.742905,0.95827 0.19676,1.30083 -0.86427,0.50103 -1.380994,1.28425 -2.035633,1.94825 -0.382486,0.35615 -0.525917,0.90848 -1.105163,1.0941 0.270315,-1.69472 0.833009,-3.37284 1.783707,-4.89853 0.421102,-0.7138 1.235723,-1.23596 1.498682,-2.01917 z"
               inkscape:connector-curvature="0"
               style="opacity:1;fill:#383838;stroke-width:0.16658448" />
            <path
               id="path5438"
               d="m 50.982019,342.30681 c 1.11774,0.66847 2.206346,1.371 3.276411,2.08843 -0.177461,0.0532 -0.529735,0.15753 -0.707196,0.21076 -0.934983,-0.69827 -2.222239,-1.23475 -2.569215,-2.29919 z"
               inkscape:connector-curvature="0"
               style="opacity:1;fill:#040404;stroke-width:0.23745932" />
            <path
               id="path5376-9"
               d="m 81.269445,328.08164 c -0.307248,-0.3023 0.03442,-0.60035 0.344328,-0.77917 0.2013,0.15328 0.407893,0.30656 0.611841,0.45984 -0.0159,0.10432 -0.04769,0.31294 -0.06357,0.41725 -0.31519,0.0447 -0.699249,0.19587 -0.8926,-0.0979 z"
               inkscape:connector-curvature="0"
               style="opacity:1;fill:#585858;fill-opacity:0.84422111;stroke-width:0.23745932" />
            <path
               id="path5380-8"
               d="m 82.426914,329.28871 c -0.540329,-0.74298 0.842278,-1.37525 1.602451,-1.48808 -0.267517,0.65143 -0.773415,1.24539 -1.602451,1.48808 z"
               inkscape:connector-curvature="0"
               style="opacity:1;fill:#0e0e0e;fill-opacity:0.84422111;stroke-width:0.23745932" />
          </g>
        </g>
      </g>
    </g>
    <g
       inkscape:groupmode="layer"
       id="layer2"
       inkscape:label="fondo"
       style="display:inline"
       sodipodi:insensitive="true">
      <rect
         style="opacity:1;vector-effect:none;fill:#343434;fill-opacity:0;stroke:#000000;stroke-width:0.02432241;stroke-linecap:butt;stroke-linejoin:miter;stroke-miterlimit:4;stroke-dasharray:none;stroke-dashoffset:0;stroke-opacity:0.48743723;paint-order:normal"
         id="rect6037"
         width="24.322405"
         height="24.322405"
         x="13.941643"
         y="258.39938" />
    </g>
  </g>
</svg>
