<?xml version="1.0" encoding="UTF-8" standalone="no"?>
<!-- Created with Inkscape (http://www.inkscape.org/) -->

<svg
   xmlns:dc="http://purl.org/dc/elements/1.1/"
   xmlns:cc="http://creativecommons.org/ns#"
   xmlns:rdf="http://www.w3.org/1999/02/22-rdf-syntax-ns#"
   xmlns:svg="http://www.w3.org/2000/svg"
   xmlns="http://www.w3.org/2000/svg"
   xmlns:sodipodi="http://sodipodi.sourceforge.net/DTD/sodipodi-0.dtd"
   xmlns:inkscape="http://www.inkscape.org/namespaces/inkscape"
   width="200"
   height="200"
   viewBox="0 0 52.916666 52.916668"
   version="1.1"
   id="svg8"
   inkscape:version="0.92.1 r15371"
   sodipodi:docname="cara4.svg">
  <defs
     id="defs2" />
  <sodipodi:namedview
     id="base"
     pagecolor="#ffffff"
     bordercolor="#666666"
     borderopacity="1.0"
     inkscape:pageopacity="0.0"
     inkscape:pageshadow="2"
     inkscape:zoom="3.959798"
     inkscape:cx="96.266292"
     inkscape:cy="88.824072"
     inkscape:document-units="mm"
     inkscape:current-layer="g5244"
     showgrid="false"
     inkscape:window-width="1366"
     inkscape:window-height="705"
     inkscape:window-x="-8"
     inkscape:window-y="-8"
     inkscape:window-maximized="1"
     units="px" />
  <metadata
     id="metadata5">
    <rdf:RDF>
      <cc:Work
         rdf:about="">
        <dc:format>image/svg+xml</dc:format>
        <dc:type
           rdf:resource="http://purl.org/dc/dcmitype/StillImage" />
        <dc:title />
      </cc:Work>
    </rdf:RDF>
  </metadata>
  <g
     inkscape:label="Capa 1"
     inkscape:groupmode="layer"
     id="layer1"
     transform="translate(0,-244.08332)">
    <g
       id="g4535"
       transform="matrix(8.8074971,0,0,8.8074971,-104.0858,-4.9796553)">
      <g
         id="g4701"
         transform="matrix(0.00468584,0,0,0.00468584,12.025701,29.907373)">
        <g
           id="g4834"
           transform="matrix(2.8495613,0,0,2.8495613,38.459481,83.006029)">
          <g
             id="#000000ff">
            <g
               id="g4970"
               transform="matrix(2.9997374,0,0,2.9997374,-1582.7761,-1995.5132)">
              <g
                 id="g5123"
                 transform="matrix(0.75000002,0,0,0.75000002,524.53934,618.49532)">
                <g
                   id="g5244"
                   transform="matrix(1.3333333,0,0,1.3333333,-115.55635,-60.816105)">
                  <path
                     id="path5155"
                     d="m 136.42544,91.83123 c 1.80137,-2.001534 3.72453,-4.82026 6.90416,-4.713668 3.07708,1.213953 5.34001,3.748429 6.82085,6.454652 0.75004,1.344223 0.74364,2.88386 0.25643,4.299151 -2.06421,-2.682535 -4.14123,-5.761809 -7.6478,-6.957997 -2.13473,-0.793501 -4.38483,0.08879 -6.33364,0.917862 z"
                     inkscape:connector-curvature="0"
                     style="opacity:1;fill:#343434;fill-opacity:0.89411765;stroke-width:0.61612844" />
                  <path
                     id="path5159"
                     d="m 134.20738,102.1705 c 1.46161,-2.611451 4.17327,-5.163705 7.60935,-4.891312 3.30143,0.272405 5.56436,3.298392 5.49384,6.217772 -1.58981,1.4449 -3.44888,3.09706 -5.87208,2.90164 -2.93604,-0.38491 -5.2823,-2.29763 -7.23111,-4.2281 m 0.75644,-0.0769 c 0.89748,0.70469 1.78855,1.41528 2.67962,2.13181 -1.10262,-1.89495 0.69233,-3.37537 2.48089,-3.86094 1.16672,0.69876 2.66038,1.55148 2.53218,3.04967 -0.3013,1.17249 -1.6988,1.63438 -2.58988,2.35091 2.58345,0.4915 4.85921,-0.84087 6.56441,-2.4812 -0.0256,-2.7891 -2.51293,-5.708494 -5.74385,-5.376889 -2.69243,0.207259 -4.55791,2.238409 -5.92337,4.186639 z"
                     inkscape:connector-curvature="0"
                     style="opacity:1;fill:#343434;fill-opacity:0.89411765;stroke-width:0.61612844" />
                  <path
                     id="path5161"
                     d="m 134.96382,102.09353 c 1.36546,-1.94824 3.23094,-3.979383 5.92337,-4.186642 3.23092,-0.331606 5.71823,2.587782 5.74385,5.376892 -1.7052,1.64031 -3.98096,2.9727 -6.56441,2.4812 0.89108,-0.71652 2.28858,-1.17841 2.58988,-2.35092 0.1282,-1.49818 -1.36546,-2.35091 -2.53218,-3.04967 -1.78856,0.48558 -3.58351,1.966 -2.48089,3.86094 -0.89107,-0.71651 -1.78214,-1.42713 -2.67962,-2.1318 z"
                     inkscape:connector-curvature="0"
                     style="opacity:1;fill:#343434;fill-opacity:0;stroke-width:0.61612844" />
                  <path
                     id="path5163"
                     d="m 161.97154,100.98617 c 2.84628,-1.415276 5.87208,-2.599619 9.07096,-3.120728 2.52576,-0.532953 4.77586,1.030374 6.85929,2.114048 3.06426,1.59885 5.17333,4.6426 5.28873,7.91137 -1.02569,-1.48634 -1.88472,-3.17994 -3.49376,-4.21625 -5.22462,-3.0319 -11.73133,-3.884623 -17.72522,-2.68844 z"
                     inkscape:connector-curvature="0"
                     style="opacity:1;fill:#343434;fill-opacity:0.89411765;stroke-width:0.61612844" />
                  <path
                     id="path5165"
                     d="m 138.84863,116.9037 c 3.67965,-4.30509 7.69909,-8.36145 11.5903,-12.50071 -3.07707,4.71959 -7.00676,8.96544 -11.5903,12.50071 z"
                     inkscape:connector-curvature="0"
                     style="opacity:1;fill:#343434;fill-opacity:0.89411765;stroke-width:0.61612844" />
                  <path
                     id="path5167"
                     d="m 160.71507,109.9457 c 1.62187,-2.43383 4.78869,-4.43535 7.99396,-4.35245 4.30151,0.81127 6.37853,4.89132 8.38504,8.07719 -2.33345,1.9364 -5.86568,1.76467 -8.78248,1.43898 -2.92322,-1.01262 -5.92977,-2.71807 -7.59652,-5.16372 m 0.53849,0.006 c 1.54494,1.32645 3.14116,2.64107 4.98101,3.62407 3.02578,1.72322 6.96187,1.36199 10.07741,0.0413 -1.73726,-2.68846 -3.4553,-5.76773 -6.66059,-7.15934 -3.3399,-1.00669 -6.17336,1.55741 -8.39783,3.49381 z"
                     inkscape:connector-curvature="0"
                     style="opacity:1;fill:#343434;fill-opacity:0.89411765;stroke-width:0.61612844" />
                  <path
                     id="path5169"
                     d="m 161.25356,109.95163 c 2.22447,-1.93641 5.05793,-4.5005 8.39783,-3.49381 3.20529,1.39159 4.92333,4.47087 6.66059,7.15932 -3.11554,1.32055 -7.05163,1.68177 -10.07741,-0.0413 -1.83985,-0.98301 -3.43607,-2.29762 -4.98101,-3.62408 m 5.43616,-0.94747 c -1.66675,0.91194 -2.1796,3.62407 -0.23719,4.50641 2.17959,1.35606 5.35922,-1.05406 4.12199,-3.26878 -0.55772,-1.45673 -2.48729,-1.85349 -3.8848,-1.23763 z"
                     inkscape:connector-curvature="0"
                     style="opacity:1;fill:#343434;fill-opacity:0;stroke-width:0.61612844" />
                  <path
                     id="path5171"
                     d="m 152.97112,119.97112 c -1.16033,-4.17479 -0.48721,-8.7641 1.91675,-12.45331 -1.46802,4.02083 -1.96804,8.21931 -1.91675,12.45331 z"
                     inkscape:connector-curvature="0"
                     style="opacity:1;fill:#343434;fill-opacity:0.89411765;stroke-width:0.61612844" />
                  <path
                     id="path5173"
                     d="m 166.68972,109.00415 c 1.39751,-0.61585 3.32708,-0.21911 3.8848,1.23763 1.23723,2.21471 -1.9424,4.62485 -4.12199,3.26878 -1.94241,-0.88234 -1.42956,-3.59447 0.23719,-4.50641 z"
                     inkscape:connector-curvature="0"
                     style="opacity:1;fill:#343434;fill-opacity:0.89411765;stroke-width:0.61612844" />
                  <path
                     id="path5175"
                     d="m 134.82279,118.66835 c 0.9103,-0.7935 2.16677,-1.08367 3.29502,-1.53372 -1.21158,0.75798 -2.26292,1.68768 -3.28861,2.647 -0.19872,1.62255 1.73085,1.52781 2.89758,1.9364 0.48719,0.69283 0.5449,1.56333 0.80132,2.34499 -0.99365,-0.66914 -1.98728,-1.33831 -2.95526,-2.03115 l 0.76284,-0.48557 c -0.92311,0.0533 -2.1283,-0.18358 -2.74372,0.66323 -2.94244,2.62331 -4.25021,6.27699 -5.42333,9.79448 -0.39106,-3.91424 1.23723,-8.05351 4.91689,-10.23269 1.55137,-0.44413 1.42316,-1.91863 1.73727,-3.10297 z"
                     inkscape:connector-curvature="0"
                     style="opacity:1;fill:#343434;fill-opacity:0.89411765;stroke-width:0.61612844" />
                  <path
                     id="path5177"
                     d="m 153.74679,120.05404 c 1.5834,0.41451 3.46812,1.26723 3.72453,2.93715 -0.20514,1.42713 -1.16672,2.647 -2.36549,3.51156 0.71157,-1.04814 1.78213,-2.21471 1.35262,-3.54709 -0.25643,-1.36791 -1.70521,-2.03707 -2.71166,-2.90162 z"
                     inkscape:connector-curvature="0"
                     style="opacity:1;fill:#343434;fill-opacity:0.89411765;stroke-width:0.61612844" />
                  <path
                     id="path5179"
                     d="m 143.195,126.34879 c 1.42313,-0.73428 2.94886,-1.57517 4.64765,-1.3916 1.38469,0.13621 2.26294,1.25541 3.08348,2.16734 -2.50653,-0.66914 -5.11562,-1.0363 -7.73113,-0.77574 z"
                     inkscape:connector-curvature="0"
                     style="opacity:1;fill:#343434;fill-opacity:0.89411765;stroke-width:0.61612844" />
                  <path
                     id="path5183"
                     d="m 133.29067,133.41929 c 3.79505,0.55665 7.10932,2.46343 10.79539,3.36945 3.81429,1.0363 8.10295,1.93639 10.49409,5.16964 -1.76931,1.64623 -4.12839,2.8128 -6.67339,2.87796 -2.69884,0.006 -5.38489,0.75204 -8.06449,0.21318 l 0.0961,-0.29017 c 1.17954,0.15397 2.37191,0.20133 3.56426,0.26648 0.12181,-0.23688 0.37184,-0.7047 0.49363,-0.94156 -2.02575,-0.13027 -4.38484,-0.16581 -5.62207,-1.91862 -0.39747,0.34938 -0.78851,0.69875 -1.17955,1.05406 0.58978,0.91786 1.73086,1.19619 2.74373,1.53964 -2.26935,0.23686 -3.34632,-1.80613 -4.34637,-3.29247 -1.64752,-2.3983 -2.10907,-5.26438 -2.30139,-8.04759 m 3.95531,4.80251 c 3.92968,1.79427 8.21196,3.04375 12.58395,3.42274 1.16031,-0.0533 2.80142,-0.15397 2.80142,-1.56333 -5.88491,-1.87126 -11.75057,-3.78397 -17.59701,-5.74404 -1.3975,1.61661 0.70516,3.23325 2.21164,3.88463 z"
                     inkscape:connector-curvature="0"
                     style="opacity:1;fill:#343434;fill-opacity:0.89411765;stroke-width:0.61612844" />
                  <path
                     id="path5189"
                     d="m 159.40091,134.15951 c 2.54499,3.32208 0.78849,7.59162 -1.10262,10.82487 0.69234,-3.57671 1.27571,-7.17119 1.10262,-10.82487 z"
                     inkscape:connector-curvature="0"
                     style="opacity:1;fill:#343434;fill-opacity:0.89411765;stroke-width:0.61612844" />
                </g>
              </g>
            </g>
          </g>
        </g>
      </g>
    </g>
  </g>
</svg>
