<?xml version="1.0" encoding="UTF-8" standalone="no"?>
<!-- Created with Inkscape (http://www.inkscape.org/) -->

<svg
   xmlns:dc="http://purl.org/dc/elements/1.1/"
   xmlns:cc="http://creativecommons.org/ns#"
   xmlns:rdf="http://www.w3.org/1999/02/22-rdf-syntax-ns#"
   xmlns:svg="http://www.w3.org/2000/svg"
   xmlns="http://www.w3.org/2000/svg"
   xmlns:sodipodi="http://sodipodi.sourceforge.net/DTD/sodipodi-0.dtd"
   xmlns:inkscape="http://www.inkscape.org/namespaces/inkscape"
   width="200"
   height="200"
   viewBox="0 0 52.916666 52.916668"
   version="1.1"
   id="svg8"
   inkscape:version="0.92.1 r15371"
   sodipodi:docname="cara14.svg">
  <defs
     id="defs2">
    <clipPath
       clipPathUnits="userSpaceOnUse"
       id="clipPath6802">
      <g
         inkscape:label="Clip"
         id="use6804">
        <rect
           y="817.21985"
           x="30.578131"
           height="430.9921"
           width="1494.3568"
           id="rect12595"
           style="opacity:1;vector-effect:none;fill:#ffffff;fill-opacity:1;stroke:none;stroke-width:2.81672454;stroke-linecap:butt;stroke-linejoin:miter;stroke-miterlimit:4;stroke-dasharray:none;stroke-dashoffset:0;stroke-opacity:0.48743723;paint-order:normal" />
        <rect
           y="529.67999"
           x="-1147.442"
           height="430.9921"
           width="1494.3568"
           id="rect12597"
           style="opacity:1;vector-effect:none;fill:#ffffff;fill-opacity:1;stroke:none;stroke-width:2.81672454;stroke-linecap:butt;stroke-linejoin:miter;stroke-miterlimit:4;stroke-dasharray:none;stroke-dashoffset:0;stroke-opacity:0.48743723;paint-order:normal" />
      </g>
    </clipPath>
    <clipPath
       clipPathUnits="userSpaceOnUse"
       id="clipPath6815">
      <g
         id="use6817"
         inkscape:label="Clip">
        <rect
           style="opacity:1;vector-effect:none;fill:#ffffff;fill-opacity:1;stroke:none;stroke-width:2.81672454;stroke-linecap:butt;stroke-linejoin:miter;stroke-miterlimit:4;stroke-dasharray:none;stroke-dashoffset:0;stroke-opacity:0.48743723;paint-order:normal"
           id="rect12583"
           width="1494.3568"
           height="430.9921"
           x="1031.8348"
           y="486.918" />
        <g
           id="g12591"
           clip-path="url(#clipPath6802)">
          <g
             inkscape:label="Clip"
             id="g12589">
            <rect
               y="817.21985"
               x="30.578131"
               height="430.9921"
               width="1494.3568"
               id="rect12585"
               style="opacity:1;vector-effect:none;fill:#ffffff;fill-opacity:1;stroke:none;stroke-width:2.81672454;stroke-linecap:butt;stroke-linejoin:miter;stroke-miterlimit:4;stroke-dasharray:none;stroke-dashoffset:0;stroke-opacity:0.48743723;paint-order:normal" />
            <rect
               y="529.67999"
               x="-1147.442"
               height="430.9921"
               width="1494.3568"
               id="rect12587"
               style="opacity:1;vector-effect:none;fill:#ffffff;fill-opacity:1;stroke:none;stroke-width:2.81672454;stroke-linecap:butt;stroke-linejoin:miter;stroke-miterlimit:4;stroke-dasharray:none;stroke-dashoffset:0;stroke-opacity:0.48743723;paint-order:normal" />
          </g>
        </g>
      </g>
    </clipPath>
    <clipPath
       clipPathUnits="userSpaceOnUse"
       id="clipPath12623">
      <rect
         style="opacity:1;vector-effect:none;fill:#ffffff;fill-opacity:1;stroke:none;stroke-width:3.11010909;stroke-linecap:butt;stroke-linejoin:miter;stroke-miterlimit:4;stroke-dasharray:none;stroke-dashoffset:0;stroke-opacity:0.48743723;paint-order:normal"
         id="rect12625"
         width="684.04071"
         height="159.69821"
         x="-1028.1637"
         y="657.59601"
         transform="scale(-1,1)" />
    </clipPath>
    <clipPath
       clipPathUnits="userSpaceOnUse"
       id="clipPath12627">
      <rect
         style="opacity:1;vector-effect:none;fill:#ffffff;fill-opacity:1;stroke:none;stroke-width:3.11010909;stroke-linecap:butt;stroke-linejoin:miter;stroke-miterlimit:4;stroke-dasharray:none;stroke-dashoffset:0;stroke-opacity:0.48743723;paint-order:normal"
         id="rect12629"
         width="684.04071"
         height="159.69821"
         x="-1028.1637"
         y="657.59601"
         transform="scale(-1,1)" />
    </clipPath>
    <clipPath
       clipPathUnits="userSpaceOnUse"
       id="clipPath12631">
      <rect
         style="opacity:1;vector-effect:none;fill:#ffffff;fill-opacity:1;stroke:none;stroke-width:3.11010909;stroke-linecap:butt;stroke-linejoin:miter;stroke-miterlimit:4;stroke-dasharray:none;stroke-dashoffset:0;stroke-opacity:0.48743723;paint-order:normal"
         id="rect12633"
         width="684.04071"
         height="159.69821"
         x="-1028.1637"
         y="657.59601"
         transform="scale(-1,1)" />
    </clipPath>
    <inkscape:perspective
       id="perspective10"
       inkscape:persp3d-origin="372.04724 : 350.78739 : 1"
       inkscape:vp_z="744.09448 : 526.18109 : 1"
       inkscape:vp_y="0 : 1000 : 0"
       inkscape:vp_x="0 : 526.18109 : 1"
       sodipodi:type="inkscape:persp3d" />
    <inkscape:perspective
       sodipodi:type="inkscape:persp3d"
       inkscape:vp_x="0 : 0.5 : 1"
       inkscape:vp_y="0 : 1000 : 0"
       inkscape:vp_z="1 : 0.5 : 1"
       inkscape:persp3d-origin="0.5 : 0.33333333 : 1"
       id="perspective2824" />
    <inkscape:perspective
       id="perspective10-1"
       inkscape:persp3d-origin="372.04724 : 350.78739 : 1"
       inkscape:vp_z="744.09448 : 526.18109 : 1"
       inkscape:vp_y="0 : 1000 : 0"
       inkscape:vp_x="0 : 526.18109 : 1"
       sodipodi:type="inkscape:persp3d" />
    <inkscape:perspective
       sodipodi:type="inkscape:persp3d"
       inkscape:vp_x="0 : 0.5 : 1"
       inkscape:vp_y="0 : 1000 : 0"
       inkscape:vp_z="1 : 0.5 : 1"
       inkscape:persp3d-origin="0.5 : 0.33333333 : 1"
       id="perspective2824-7" />
    <clipPath
       clipPathUnits="userSpaceOnUse"
       id="clipPath143">
      <rect
         style="opacity:1;vector-effect:none;fill:#ffffff;fill-opacity:1;fill-rule:nonzero;stroke:none;stroke-width:3.71145463;stroke-linecap:butt;stroke-linejoin:miter;stroke-miterlimit:4;stroke-dasharray:none;stroke-dashoffset:0;stroke-opacity:1;paint-order:normal"
         id="rect145"
         width="343.96335"
         height="220.99786"
         x="-428.17276"
         y="-182.46379"
         transform="scale(1,-1)" />
    </clipPath>
  </defs>
  <sodipodi:namedview
     id="base"
     pagecolor="#ffffff"
     bordercolor="#666666"
     borderopacity="1.0"
     inkscape:pageopacity="0.0"
     inkscape:pageshadow="2"
     inkscape:zoom="3.959798"
     inkscape:cx="59.923228"
     inkscape:cy="121.8094"
     inkscape:document-units="mm"
     inkscape:current-layer="layer1-0"
     showgrid="false"
     inkscape:window-width="1366"
     inkscape:window-height="705"
     inkscape:window-x="-8"
     inkscape:window-y="-8"
     inkscape:window-maximized="1"
     units="px" />
  <metadata
     id="metadata5">
    <rdf:RDF>
      <cc:Work
         rdf:about="">
        <dc:format>image/svg+xml</dc:format>
        <dc:type
           rdf:resource="http://purl.org/dc/dcmitype/StillImage" />
        <dc:title></dc:title>
      </cc:Work>
    </rdf:RDF>
  </metadata>
  <g
     inkscape:label="Capa 1"
     inkscape:groupmode="layer"
     id="layer1"
     transform="translate(0,-244.08332)">
    <g
       id="g6035"
       transform="matrix(0.26458333,0,0,0.26458333,5.8302828,257.04791)"
       style="fill:#343434;fill-opacity:0.84422112">
      <g
         id="g6762"
         transform="matrix(0.13418166,0,0,0.13418166,-15.532137,-12.951636)">
        <g
           id="g5235"
           transform="matrix(7.4525834,0,0,7.4525834,-1646.5153,222.15222)">
          <g
             id="g5549"
             transform="matrix(1.3333334,0,0,1.3333334,234.5419,-382.84257)">
            <g
               id="g5846"
               transform="matrix(0.74999996,0,0,0.74999996,-3.6379552,271.08549)">
              <path
                 id="path5745"
                 d="m 96.17,177.62 c 6.92,2.29 12,7.62 18.221,11.14 6.33,3.811 10.359,10.19 15.569,15.24 H 98.13 c -0.11,-2.22 -0.159,-4.46 -0.81,-6.6 -0.37,-6.589 -0.44,-13.211 -1.15,-19.78 z"
                 inkscape:connector-curvature="0"
                 style="fill:#ffffff" />
              <path
                 id="path5747"
                 d="M 78.28,195.37 C 82,189.4 88.25,185.65 92.34,180 c 0.971,7.99 1.471,16 2.221,24 H 73.65 c 1.77,-2.74 3.6,-5.51 4.63,-8.63 z"
                 inkscape:connector-curvature="0"
                 style="fill:#ffffff" />
              <g
                 transform="matrix(0.44565985,0,0,0.44565985,190.96151,26.491598)"
                 id="layer1-0"
                 inkscape:label="Ebene 1">
                <path
                   id="rect2860"
                   d="m -236.34491,-88.908862 c -2.85393,0.23474 -2.19328,1.58107 2.80812,2.4233 4.94119,0.83209 16.75679,5.173986 17.30298,6.3562 0.24227,0.524387 1.1722,0.95343 2.0648,0.95343 0.8926,0 2.77006,1.051379 4.21218,2.343848 1.44211,1.292456 3.2936,2.579586 4.0883,2.860288 2.29145,0.809361 10.98471,11.374937 10.98471,13.348014 0,0.982631 0.51766,1.787681 1.15628,1.787681 2.96057,0 5.09043,11.128049 6.15309,32.416606 0.36709,7.354044 -0.0391,10.944253 -1.40406,12.950751 -2.13814,3.143166 -2.92266,9.2456993 -1.48666,11.4808823 0.52743,0.820953 3.30885,2.77004405 6.19439,4.330159 5.23631,2.831114 6.28721,5.1668005 3.96441,8.7000457 -1.03802,1.578931 -1.91922,1.596232 -5.82273,0.238358 -3.1747,-1.104352 -5.38007,-1.183371 -7.0203,-0.31781 -4.61829,2.437118 -17.7384,6.475376 -21.01961,6.475376 -1.82487,0 -5.71014,1.126063 -8.67214,2.502752 -4.02199,1.869345 -6.05666,2.155641 -7.92882,1.191787 -4.66026,-2.3993 -6.69501,0.908809 -2.84942,4.608243 1.80482,1.736207 1.95046,2.984005 0.90851,6.753458 -1.36075,4.922812 -1.33221,22.872917 0.0413,31.343998 0.6306,3.889065 0.25846,5.701764 -1.56924,7.746613 -2.9869,3.341746 -7.23765,5.601399 -10.61305,5.601399 -1.42364,0 -2.96789,0.85809 -3.38627,1.90686 -0.41835,1.04877 -0.16714,1.90686 0.53685,1.90686 0.704,0 1.28017,0.57206 1.28017,1.27124 0,0.69918 -0.82866,1.27123 -1.85832,1.27123 -1.02962,0 -2.19375,0.71508 -2.56034,1.58906 -0.52526,1.25226 -0.66111,1.24332 -0.74333,0 -0.11753,-1.77587 -13.31851,5.43904 -15.1143,8.26305 -0.60586,0.9528 -2.38985,1.61999 -3.9644,1.46987 -4.46169,-0.42539 -10.48857,1.44019 -13.75154,4.29043 -2.38553,2.083823 -2.97331,3.967243 -2.97331,9.494573 0,5.82013 0.41014,6.98629 2.64295,7.54799 1.45362,0.36568 2.64293,1.17536 2.64293,1.78768 0,1.83783 5.64212,7.50825 7.47456,7.50825 1.13524,0 1.5978,-1.57431 1.40406,-4.68769 -0.29052,-4.66903 -0.27875,-4.67863 8.96121,-8.1836 7.45558,-2.82811 11.45227,-3.51096 20.60666,-3.57536 9.62179,-0.0677 11.70659,0.2976 13.66895,2.38357 1.27406,1.3543 1.92285,3.07047 1.44535,3.81371 -1.22565,1.90812 -12.59525,1.72611 -12.59525,-0.19862 0,-1.18649 -0.33588,-1.18649 -1.56924,0 -0.87217,0.83902 -4.73747,1.54933 -8.58955,1.54933 -5.1615,0 -7.02032,0.46046 -7.02032,1.78767 0,0.9905 0.58984,1.99005 1.32148,2.22467 2.59435,0.83192 -1.71305,8.55845 -5.65753,10.13019 -4.70492,1.87476 -7.33041,7.38361 -4.29478,9.01785 2.26295,1.21828 2.78153,4.80688 0.70203,4.80688 -0.72681,0 -1.32146,2.2823 -1.32146,5.08496 0,4.91098 -0.10781,5.03773 -2.97331,3.4959 -1.63532,-0.8799 -3.15002,-1.67695 -3.38627,-1.78768 -0.23622,-0.11066 -0.59392,-1.25276 -0.78463,-2.50274 -0.19071,-1.25 -1.20329,-2.65861 -2.22997,-3.13838 -3.23735,-1.51284 -18.37668,-5.96247 -18.37668,-5.40277 0,1.1822 6.02213,7.40661 14.08191,14.57952 1.0606,0.94391 5.36445,5.18031 9.58065,9.37539 10.44139,10.38911 14.47406,7.58981 18.50055,7.76223 44.18186,-13.93771 73.24071,-15.12525 87.21696,-49.39532 2.10928,-5.10796 4.5012,-11.70815 5.32718,-14.65898 1.32523,-4.73449 1.95833,-5.36303 5.32716,-5.36303 4.73902,0 9.29159,-5.146023 9.29159,-10.487733 0,-2.0781 1.77724,-7.39011 3.9644,-11.79869 4.70418,-9.482056 6.60735,-18.100195 6.60735,-30.033027 0,-7.030183 -0.51344,-9.19396 -2.64294,-11.242524 -1.45361,-1.398364 -3.55756,-2.542478 -4.66644,-2.542478 -1.76202,0 -1.70677,-0.520764 0.24778,-4.131529 1.81519,-3.353314 2.33174,-8.865191 2.76681,-29.1590537 l 0.53686,-24.9878013 -3.84051,-8.700044 c -6.28606,-14.325089 -14.59123,-25.425095 -21.2674,-28.443983 -3.16998,-1.43345 -6.42934,-3.15017 -7.26808,-3.813719 -20.4581,-16.184963 -35.3923,-22.58062 -60.78757,-25.98096 -1.6963,-0.22712 -3.0544,-0.27687 -4.00571,-0.19863 z m -65.6605,25.265887 c -0.57449,0.05988 -1.50175,0.421298 -2.76682,1.072609 -3.73577,1.923334 -3.99709,2.199345 -13.79284,13.268561 -14.31633,16.177488 -15.77108,18.509463 -17.71593,27.967268 -2.01107,9.779823 -2.06128,38.277148 -0.0826,48.466003 0.80653,4.152999 0.74162,6.42815 -0.20648,6.991817 -0.7936,0.471847 0.37457,1.730488 2.72554,2.900015 2.28625,1.137327 4.17088,2.616045 4.17088,3.297278 0,2.675208 3.96757,1.088397 4.74903,-1.906859 0.45652,-1.749861 0.43502,-5.325223 -0.0413,-7.945247 -0.47629,-2.620037 -1.41324,-11.345811 -2.06479,-19.3864 -0.65157,-8.0405907 -1.26546,-15.1913127 -1.36277,-15.8904937 -0.0972,-0.699183 0.2462,-5.2756443 0.74331,-10.1699163 0.78455,-7.724089 1.85973,-10.408858 8.05272,-20.339831 3.92412,-6.292636 9.85464,-15.070009 13.1734,-19.505581 4.75686,-6.357621 6.14214,-8.998833 4.41864,-8.819223 z m 5.65754,75.241486 c -1.76255,-0.03411 -3.37128,0.177024 -4.62514,0.635619 -2.88162,1.053947 -7.55715,6.977503 -7.55715,9.574022 0,1.244849 6.4257,0.755027 7.26809,-0.556167 0.44918,-0.699182 2.85089,-1.271239 5.32716,-1.271239 5.06176,0 14.09627,3.654305 13.04951,5.283589 -0.37516,0.583968 0.315,1.072607 1.56925,1.072607 4.30304,0 0.95336,1.284295 -6.85513,2.621931 -4.29747,0.736187 -9.42836,2.415317 -11.39767,3.773992 -1.96928,1.358662 -4.57279,2.502753 -5.78142,2.502753 -1.81802,0 -1.87702,0.305568 -0.49556,1.906859 2.06316,2.391455 6.46389,1.279896 9.08511,-2.304122 1.86859,-2.554924 1.87964,-2.538054 2.932,0.198632 1.08777,2.828762 4.38986,3.445096 14.2058,2.780836 2.9377,-0.198809 4.14022,0.195885 3.55145,1.112335 -0.49025,0.763074 -2.35547,1.390418 -4.1296,1.390418 -3.42471,0 -4.25249,2.305062 -1.69313,4.767148 1.17561,1.13092 1.01847,1.684239 -0.66073,2.304121 -1.21175,0.447311 -2.18869,1.322204 -2.18869,1.946586 0,1.500913 3.50526,1.435445 9.62195,-0.198631 6.61704,-1.767748 15.85448,-12.623332 14.66005,-17.201459 -0.53961,-2.068243 -0.21151,-3.05892 0.9498,-3.05892 3.55612,0 9.1264,-6.694867 9.1264,-10.96444 0,-2.275074 -0.59466,-4.493933 -1.32148,-4.926052 -0.7268,-0.43212 -1.32146,-0.07568 -1.32146,0.794524 0,2.388252 -5.45338,7.468532 -8.0114,7.468532 -1.23794,0 -2.97702,-0.858087 -3.88182,-1.906859 -0.90479,-1.048773 -3.03144,-1.906859 -4.74904,-1.906859 -3.60514,0 -14.77766,-2.40244 -17.75723,-3.813718 -2.63838,-1.249685 -5.98235,-1.9692 -8.91992,-2.026038 z m 106.9977,8.819224 c 0.22014,-0.004 0.40781,-0.0079 0.53684,0.03972 2.30499,0.850892 2.46024,6.655383 0.20648,7.667162 -1.14749,0.515145 -1.18251,0.956748 -0.16519,1.430145 2.88624,1.343089 6.41642,4.299573 5.1207,4.290433 -0.7268,-0.005 -3.20646,-0.774426 -5.53364,-1.747954 -2.3272,-0.973528 -6.93583,-2.184804 -10.24139,-2.661658 -3.30557,-0.476867 -6.02921,-1.33784 -6.02921,-1.906859 0,-1.536988 12.80327,-7.052404 16.10541,-7.110994 z m -22.87794,11.917868 c 0.74666,0.01139 1.81773,1.034979 3.0972,3.05892 2.5046,3.961958 2.55314,3.973449 11.02601,3.138373 5.50659,-0.542718 8.50695,-0.369436 8.50695,0.476714 0,0.718657 -1.78398,1.310966 -3.96441,1.310966 -4.03108,0 -5.63699,2.953051 -2.31257,4.250707 1.30428,0.509105 1.31233,0.869845 -0.0413,1.78768 -1.38125,0.936535 -1.35732,1.459636 0.24777,2.74111 1.93917,1.548191 9.45426,0.711437 15.56856,-1.747955 3.07718,-1.237754 5.50724,3.583675 4.58384,9.057582 -0.71768,4.254508 -5.21311,9.212659 -8.46566,9.295938 -0.90851,0.02326 -1.65183,0.561011 -1.65183,1.191787 0,0.630789 -1.74875,1.707974 -3.88182,2.4233 -3.33329,1.117827 -4.4748,0.851273 -8.25917,-1.986311 -4.93607,-3.70115 -12.35819,-13.988744 -12.05841,-16.724744 0.10768,-0.982325 -1.32246,-4.121727 -3.17978,-6.952091 -2.14922,-3.275158 -2.81772,-5.293759 -1.85833,-5.601399 0.82911,-0.265854 1.48665,-1.517542 1.48665,-2.74111 0,-2.004223 0.40964,-2.99097 1.1563,-2.979467 z m -129.79303,6.793186 c -0.43499,0.02716 -0.8736,0.128 -1.28017,0.278083 -3.11232,1.148921 -3.98544,13.146676 -1.52795,21.054904 2.29931,7.399198 3.34339,7.686333 4.00571,1.191786 0.23563,-2.310578 0.44915,-6.030442 0.49555,-8.302782 0.0801,-3.921584 2.72552,-6.15819 2.72552,-2.304121 0,2.720757 2.21793,3.5261 5.28588,1.946585 l 2.72553,-1.390419 -3.0146,-5.16441 c -2.75214,-4.726977 -6.37055,-7.499674 -9.41547,-7.309626 z m 11.02601,16.843922 c -0.5747,0.0056 -1.27923,0.279775 -2.0235,0.873978 -5.25105,4.192343 -5.66176,17.432185 -0.57814,18.711053 1.32448,0.333192 2.74763,1.403705 3.13849,2.383575 1.00823,2.52756 3.45051,2.21832 3.42755,-0.43699 -0.0104,-1.223568 -0.91299,-4.635321 -1.98219,-7.587709 -1.31498,-3.63099 -1.54564,-6.352192 -0.74333,-8.382235 1.25854,-3.184368 0.48521,-5.578623 -1.23888,-5.561672 z m 62.48071,17.956255 c -0.95181,-0.03725 -2.40412,1.486409 -5.78143,5.442491 -1.75319,2.05363 -5.16199,9.57519 -5.16199,11.40143 0,0.67121 3.77368,-1.89731 9.0438,-6.19729 4.16901,-3.40154 5.12163,-6.53598 3.0146,-9.732927 -0.36757,-0.557718 -0.68235,-0.896746 -1.11498,-0.913704 z m 10.61304,0 c -0.34633,0.0192 -0.63128,0.09623 -0.90851,0.198631 -2.3346,0.861824 -4.02139,4.94442 -2.80812,6.83291 1.05508,1.64227 3.30368,1.67065 3.30368,0.0397 0,-0.68586 1.48665,-1.58732 3.30367,-2.02604 1.81701,-0.4387 3.30366,-1.30808 3.30366,-1.90686 0,-1.523693 -3.76992,-3.272486 -6.19438,-3.13837 z m 17.13781,15.095961 c 0.27644,-0.0127 0.76521,0.56643 1.56924,1.58906 2.47555,3.14858 2.48165,3.90601 0.0413,4.80686 -1.50422,0.55528 -1.9822,-0.20935 -1.9822,-3.25754 0,-2.14021 0.0162,-3.12211 0.37167,-3.13838 z m -95.93039,4.6877 2.47776,2.62194 c 1.59983,1.70059 3.58624,2.43146 5.57493,2.06575 2.11703,-0.3893 3.78216,0.35581 5.32718,2.343863 1.23513,1.58927 2.3517,2.7727 2.47776,2.66165 0.12606,-0.11114 -0.22551,-2.20558 -0.74333,-4.647963 -0.92338,-4.35529 -1.06181,-4.42098 -8.01141,-4.72743 z m 100.8446,5.16434 c 1.1496,0.002 0.59453,0.77376 -1.32147,1.827413 -4.34314,2.38838 -6.48499,2.4146 -3.22109,0.0397 1.41083,-1.026523 3.45234,-1.869683 4.54256,-1.867133 z m -13.25599,1.469883 c 0.45319,-0.0366 0.78363,-9.6e-4 0.90852,0.11918 0.48398,0.46557 -2.28184,1.71776 -12.43009,5.60139 -0.90849,0.34769 -1.65182,0.0578 -1.65182,-0.63561 0,-1.14916 10.00108,-4.82844 13.17339,-5.08497 z m 3.63404,22.08785 c 1.29012,-0.002 1.69314,0.5677 1.69314,1.94658 0,1.67645 -0.96302,2.38358 -3.30367,2.38358 -1.93191,0 -3.30368,-0.75928 -3.30368,-1.78768 0,-0.96728 1.48665,-2.0097 3.30368,-2.34386 0.6417,-0.11798 1.18048,-0.19773 1.61053,-0.19862 z m -8.094,18.31379 c 1.53677,0 1.66909,0.50727 0.53685,2.54248 -0.78599,1.41281 -1.09708,3.13452 -0.66073,3.81372 0.43634,0.67918 0.25147,2.15513 -0.41297,3.29728 -1.01129,1.7384 -1.35346,1.53397 -2.10608,-1.3507 -1.13606,-4.35436 0.12077,-8.30278 2.64293,-8.30278 z"
                   style="fill:#000000;fill-opacity:1;fill-rule:nonzero;stroke:none;stroke-width:1.29611087"
                   inkscape:connector-curvature="0"
                   sodipodi:nodetypes="cscsscssscsccccsscscccscssscccscscsssscccsssscccssccccssscccsscsssccccccscccssssccscccccccccccssscsccssscccsscsscssssssscccccccscsccscsscccsscscccccscccscscscccccccccccccsscsccccscsccccscccccccsccccccccccscccsssccsccccs"
                   clip-path="url(#clipPath143)" />
                <path
                   id="path2850"
                   d=""
                   style="fill:#000000"
                   inkscape:connector-curvature="0" />
                <path
                   id="path2848"
                   d=""
                   style="fill:#000000"
                   inkscape:connector-curvature="0" />
              </g>
            </g>
          </g>
        </g>
      </g>
    </g>
    <g
       inkscape:groupmode="layer"
       id="layer2"
       inkscape:label="fondo"
       style="display:inline"
       sodipodi:insensitive="true">
      <rect
         style="opacity:1;vector-effect:none;fill:#343434;fill-opacity:0;stroke:#000000;stroke-width:0.02432241;stroke-linecap:butt;stroke-linejoin:miter;stroke-miterlimit:4;stroke-dasharray:none;stroke-dashoffset:0;stroke-opacity:0.48743723;paint-order:normal"
         id="rect6037"
         width="24.322405"
         height="24.322405"
         x="13.941643"
         y="258.39938" />
    </g>
  </g>
</svg>
