<?xml version="1.0" encoding="UTF-8" standalone="no"?>
<!-- Created with Inkscape (http://www.inkscape.org/) -->

<svg
   xmlns:dc="http://purl.org/dc/elements/1.1/"
   xmlns:cc="http://creativecommons.org/ns#"
   xmlns:rdf="http://www.w3.org/1999/02/22-rdf-syntax-ns#"
   xmlns:svg="http://www.w3.org/2000/svg"
   xmlns="http://www.w3.org/2000/svg"
   xmlns:sodipodi="http://sodipodi.sourceforge.net/DTD/sodipodi-0.dtd"
   xmlns:inkscape="http://www.inkscape.org/namespaces/inkscape"
   width="200"
   height="200"
   viewBox="0 0 52.916666 52.916668"
   version="1.1"
   id="svg8"
   inkscape:version="0.92.1 r15371"
   sodipodi:docname="cara11.svg">
  <defs
     id="defs2">
    <clipPath
       clipPathUnits="userSpaceOnUse"
       id="clipPath6802">
      <g
         inkscape:label="Clip"
         id="use6804">
        <rect
           y="817.21985"
           x="30.578131"
           height="430.9921"
           width="1494.3568"
           id="rect12595"
           style="opacity:1;vector-effect:none;fill:#ffffff;fill-opacity:1;stroke:none;stroke-width:2.81672454;stroke-linecap:butt;stroke-linejoin:miter;stroke-miterlimit:4;stroke-dasharray:none;stroke-dashoffset:0;stroke-opacity:0.48743723;paint-order:normal" />
        <rect
           y="529.67999"
           x="-1147.442"
           height="430.9921"
           width="1494.3568"
           id="rect12597"
           style="opacity:1;vector-effect:none;fill:#ffffff;fill-opacity:1;stroke:none;stroke-width:2.81672454;stroke-linecap:butt;stroke-linejoin:miter;stroke-miterlimit:4;stroke-dasharray:none;stroke-dashoffset:0;stroke-opacity:0.48743723;paint-order:normal" />
      </g>
    </clipPath>
    <clipPath
       clipPathUnits="userSpaceOnUse"
       id="clipPath6815">
      <g
         id="use6817"
         inkscape:label="Clip">
        <rect
           style="opacity:1;vector-effect:none;fill:#ffffff;fill-opacity:1;stroke:none;stroke-width:2.81672454;stroke-linecap:butt;stroke-linejoin:miter;stroke-miterlimit:4;stroke-dasharray:none;stroke-dashoffset:0;stroke-opacity:0.48743723;paint-order:normal"
           id="rect12583"
           width="1494.3568"
           height="430.9921"
           x="1031.8348"
           y="486.918" />
        <g
           id="g12591"
           clip-path="url(#clipPath6802)">
          <g
             inkscape:label="Clip"
             id="g12589">
            <rect
               y="817.21985"
               x="30.578131"
               height="430.9921"
               width="1494.3568"
               id="rect12585"
               style="opacity:1;vector-effect:none;fill:#ffffff;fill-opacity:1;stroke:none;stroke-width:2.81672454;stroke-linecap:butt;stroke-linejoin:miter;stroke-miterlimit:4;stroke-dasharray:none;stroke-dashoffset:0;stroke-opacity:0.48743723;paint-order:normal" />
            <rect
               y="529.67999"
               x="-1147.442"
               height="430.9921"
               width="1494.3568"
               id="rect12587"
               style="opacity:1;vector-effect:none;fill:#ffffff;fill-opacity:1;stroke:none;stroke-width:2.81672454;stroke-linecap:butt;stroke-linejoin:miter;stroke-miterlimit:4;stroke-dasharray:none;stroke-dashoffset:0;stroke-opacity:0.48743723;paint-order:normal" />
          </g>
        </g>
      </g>
    </clipPath>
    <clipPath
       clipPathUnits="userSpaceOnUse"
       id="clipPath12623">
      <rect
         style="opacity:1;vector-effect:none;fill:#ffffff;fill-opacity:1;stroke:none;stroke-width:3.11010909;stroke-linecap:butt;stroke-linejoin:miter;stroke-miterlimit:4;stroke-dasharray:none;stroke-dashoffset:0;stroke-opacity:0.48743723;paint-order:normal"
         id="rect12625"
         width="684.04071"
         height="159.69821"
         x="-1028.1637"
         y="657.59601"
         transform="scale(-1,1)" />
    </clipPath>
    <clipPath
       clipPathUnits="userSpaceOnUse"
       id="clipPath12627">
      <rect
         style="opacity:1;vector-effect:none;fill:#ffffff;fill-opacity:1;stroke:none;stroke-width:3.11010909;stroke-linecap:butt;stroke-linejoin:miter;stroke-miterlimit:4;stroke-dasharray:none;stroke-dashoffset:0;stroke-opacity:0.48743723;paint-order:normal"
         id="rect12629"
         width="684.04071"
         height="159.69821"
         x="-1028.1637"
         y="657.59601"
         transform="scale(-1,1)" />
    </clipPath>
    <clipPath
       clipPathUnits="userSpaceOnUse"
       id="clipPath12631">
      <rect
         style="opacity:1;vector-effect:none;fill:#ffffff;fill-opacity:1;stroke:none;stroke-width:3.11010909;stroke-linecap:butt;stroke-linejoin:miter;stroke-miterlimit:4;stroke-dasharray:none;stroke-dashoffset:0;stroke-opacity:0.48743723;paint-order:normal"
         id="rect12633"
         width="684.04071"
         height="159.69821"
         x="-1028.1637"
         y="657.59601"
         transform="scale(-1,1)" />
    </clipPath>
  </defs>
  <sodipodi:namedview
     id="base"
     pagecolor="#ffffff"
     bordercolor="#666666"
     borderopacity="1.0"
     inkscape:pageopacity="0.0"
     inkscape:pageshadow="2"
     inkscape:zoom="1.979899"
     inkscape:cx="54.19252"
     inkscape:cy="81.093894"
     inkscape:document-units="mm"
     inkscape:current-layer="g5235"
     showgrid="false"
     inkscape:window-width="1920"
     inkscape:window-height="1017"
     inkscape:window-x="-8"
     inkscape:window-y="-8"
     inkscape:window-maximized="1"
     units="px" />
  <metadata
     id="metadata5">
    <rdf:RDF>
      <cc:Work
         rdf:about="">
        <dc:format>image/svg+xml</dc:format>
        <dc:type
           rdf:resource="http://purl.org/dc/dcmitype/StillImage" />
        <dc:title></dc:title>
      </cc:Work>
    </rdf:RDF>
  </metadata>
  <g
     inkscape:label="Capa 1"
     inkscape:groupmode="layer"
     id="layer1"
     transform="translate(0,-244.08332)">
    <g
       id="g6035"
       transform="matrix(0.26458333,0,0,0.26458333,5.8302828,257.04791)"
       style="fill:#343434;fill-opacity:0.84422112">
      <g
         id="g6762"
         transform="matrix(0.13418166,0,0,0.13418166,-15.532137,-12.951636)">
        <g
           id="g5235"
           transform="matrix(7.4525834,0,0,7.4525834,-1646.5153,222.15222)">
          <g
             transform="translate(422.26366,-1101.7256)"
             id="layer1-4"
             inkscape:label="Ebene 1">
            <g
               transform="translate(-270.72088,-52.527932)"
               id="g5143">
              <g
                 id="g5133"
                 transform="matrix(0.14389356,0,0,0.14389356,-89.115675,941.749)">
                <path
                   style="fill:#000000;fill-opacity:1;stroke:#000000;stroke-width:4.0999999;stroke-miterlimit:4;stroke-dasharray:none;stroke-opacity:1"
                   d="m 1996.3772,1669.8173 -16.4521,16.4521 c -19.3179,19.3178 -48.8518,29.2355 -74.7353,25.0966 -50.9252,-8.1433 -93.4727,-35.8603 -110.4319,-71.9394 l -9.1677,-19.5034 8.9769,-15.6777 c 13.844,-24.1778 41.1293,-37.5679 75.6187,-37.1093 16.0118,0.2129 35.8182,3.5637 45.4341,7.6865 9.3761,4.02 17.8568,6.4996 18.8461,5.5103 64.266,55.1149 47.9019,55.8569 61.9112,89.4843 z M 1848.01,1840.3061 c 17.0006,-16.4694 30.9101,-33.4452 30.9101,-37.724 0,-6.989 -2.9958,-7.475 -29.4784,-4.7827 -48.4076,4.9214 -99.8267,20.0757 -194.3393,57.2761 -4.2034,1.6545 -7.6426,1.0428 -7.6426,-1.3594 0,-4.3121 87.4016,-38.0309 132.7529,-51.2149 33.1117,-9.6258 90.1145,-15.4585 99.8991,-10.2219 14.5698,7.7975 -1.5981,36.342 -35.5805,62.8175 -31.4548,24.5062 -29.7933,17.442 3.4787,-14.7907 z m -257.0165,-3.6433 c -0.1688,-5.2626 1.6583,-10.783 4.0602,-12.2675 5.1654,-3.1924 5.1654,1.081 0,13.1015 -3.6186,8.421 -3.7643,8.391 -4.0602,-0.834 z m 353.5011,-36.407 c -0.035,-8.4729 -3.2151,-19.9 -7.0631,-25.3937 -10.0508,-14.3497 -4.5005,-16.4968 6.4984,-2.5139 9.8945,12.5788 11.696,26.1918 4.865,36.762 -3.175,4.913 -4.2501,2.6993 -4.3003,-8.8544 z m -398.932,-115.0401 c -25.109,-7.0833 -40.879,-18.0309 -54.2293,-37.6466 -15.6545,-23.0012 -13.0928,-37.3556 10.918,-61.1788 47.5741,-47.2026 139.7049,-56.959 193.7761,-20.5205 66.2665,44.657 9.8727,118.468 -94.4229,123.5852 -21.4717,1.0536 -43.0716,-0.5804 -56.0419,-4.2393 z m 109.8321,-9.7518 c 21.1138,-6.9279 62.8258,-37.4389 57.5728,-42.1128 -1.201,-1.0685 -23.8011,0.6156 -50.2225,3.7426 -28.157,3.3324 -73.8075,4.9049 -110.3008,3.7995 l -62.2619,-1.8859 6.5413,9.9833 c 7.9708,12.1649 34.4063,27.4971 57.3376,33.2548 23.136,5.8092 73.165,2.4611 101.3335,-6.7815 z m -58.5044,-51.7866 c -2.8275,-11.2657 7.6634,-24.1915 19.6344,-24.1915 11.9218,0 23.5068,15.2082 20.0005,26.2556 -2.8893,9.1034 -2.1485,9.3217 22.5341,6.6409 59.611,-6.4742 58.2753,-5.9742 58.2753,-21.8166 0,-12.5842 -1.6837,-14.6921 -13.6474,-17.0848 -31.1246,-6.2249 -139.3842,-1.329 -195.2296,8.829 -15.6107,2.8395 -24.9087,17.0573 -17.3197,26.484 4.3306,5.3794 60.6596,9.2206 91.8749,6.2653 14.4899,-1.3718 16.0655,-2.6641 13.8775,-11.3819 z m -41.2557,-32.8837 c 20.3535,-2.4251 63.0973,-4.4093 94.9861,-4.4093 31.8887,0 57.9662,-1.474 57.9498,-3.2754 -0.066,-7.2281 -29.9629,-22.9639 -56.5849,-29.7825 -30.6946,-7.8616 -56.9225,-6.6011 -94.43,4.5386 -34.4916,10.244 -79.0831,46.4291 -48.7536,39.5626 5.4044,-1.2236 26.479,-4.2088 46.8326,-6.634 z m 407.1051,104.3398 c 15.1159,-7.7115 25.3598,-19.5168 25.3598,-29.225 0,-2.2145 -16.2131,-5.365 -36.0292,-7.0011 -33.3276,-2.7516 -119.1197,-16.535 -141.9332,-22.8031 -11.8937,-3.2678 -12.3381,0.9728 -1.78,16.9849 11.812,17.9136 38.9974,36.2512 66.1959,44.6517 13.2107,4.0802 25.9846,8.1282 28.3866,8.9956 8.9777,3.242 44.0348,-3.5601 59.8001,-11.603 z m 18.876,-51.8464 c -8.6035,-16.6373 -16.0454,-20.3825 -48.1059,-24.2095 l -26.203,-3.1278 10.0116,9.5797 c 6.4111,6.1345 9.089,12.4862 7.4463,17.662 -2.8464,8.9681 4.9285,11.2282 42.7029,12.4133 l 20.8562,0.6544 z m -93.107,-14.8836 11.7721,-14.7539 -20.5065,-2.6003 c -71.2783,-9.0385 -78.329,-8.9155 -81.6103,1.4228 -4.1328,13.0211 -0.5275,15.5906 32.7172,23.3171 40.9559,9.5188 44.502,9.0643 57.6275,-7.3857 z m 68.69,-22.7919 c -33.9748,-36.3993 -110.4484,-45.3715 -142.9305,-16.7692 l -11.7736,10.3675 17.4687,0.4293 c 9.6077,0.2361 41.0514,3.9793 69.8748,8.3181 28.8233,4.3388 58.153,8.1382 65.177,8.443 l 12.7711,0.5543 z"
                   id="path5135"
                   inkscape:connector-curvature="0"
                   sodipodi:nodetypes="cccscssccccsccsccccsccscccccccccccccsscccccsscscsccccsccscccscccccccscccccccccsccccccsccc" />
              </g>
            </g>
          </g>
        </g>
      </g>
    </g>
    <g
       inkscape:groupmode="layer"
       id="layer2"
       inkscape:label="fondo"
       style="display:inline"
       sodipodi:insensitive="true">
      <rect
         style="opacity:1;vector-effect:none;fill:#343434;fill-opacity:0;stroke:#000000;stroke-width:0.02432241;stroke-linecap:butt;stroke-linejoin:miter;stroke-miterlimit:4;stroke-dasharray:none;stroke-dashoffset:0;stroke-opacity:0.48743723;paint-order:normal"
         id="rect6037"
         width="24.322405"
         height="24.322405"
         x="13.941643"
         y="258.39938" />
    </g>
  </g>
</svg>
