<svg xmlns="http://www.w3.org/2000/svg" width="120" height="120"  viewBox="0 0 61.67 61.63"><title>Recurso 3</title><g id="aedaece0-1e8d-4d54-bfa1-d0cbd889be20" data-name="Capa 2"><g id="11e8666a-2749-4ccc-a095-08f71a21ed27" data-name="Capa 1"><rect x="0.17" y="0.13" width="61.38" height="61.38" style="fill:#fff;stroke:#020202;stroke-miterlimit:10;stroke-width:0.25px"/><rect x="30.59" y="33.88" width="12.45" height="10.17" style="fill:#ff7bac;stroke:#020202;stroke-miterlimit:10;stroke-width:0.25px"/><rect x="17.36" y="21.52" width="27" height="18.6" style="fill:#e6e6e6;stroke:#020202;stroke-miterlimit:10;stroke-width:0.25px"/><rect x="21.63" y="28.65" width="4.24" height="4.32" style="fill:#070707;stroke:#020202;stroke-miterlimit:10;stroke-width:0.25px"/><rect x="17.47" y="14.15" width="4.24" height="4.32" style="fill:#070707;stroke:#020202;stroke-miterlimit:10;stroke-width:0.25px"/><rect x="36.62" y="28.65" width="4.24" height="4.32" style="fill:#0f0f0f;stroke:#020202;stroke-miterlimit:10;stroke-width:0.25px"/><rect x="40.12" y="13.99" width="4.24" height="4.32" style="fill:#0f0f0f;stroke:#020202;stroke-miterlimit:10;stroke-width:0.25px"/><path d="M24.48,61.3H.17V52.56H24.48Z" style="fill:#666;stroke:#020202;stroke-miterlimit:10;stroke-width:0.25px"/><path d="M57.45,11.08H48.32V.13h9.13Z" style="fill:#666;stroke:#020202;stroke-miterlimit:10;stroke-width:0.25px"/><path d="M7.9,36.94H.13V29H7.9Z" style="fill:#666;stroke:#020202;stroke-miterlimit:10;stroke-width:0.25px"/><path d="M10,10.48H2.77V.13H10Z" style="fill:#666;stroke:#020202;stroke-miterlimit:10;stroke-width:0.25px"/><path d="M59,56.93H46.81V48.2H59Z" style="fill:#666;stroke:#020202;stroke-miterlimit:10;stroke-width:0.25px"/><path d="M35.41,11.08H21.73V.13H35.41Z" style="fill:#666;stroke:#020202;stroke-miterlimit:10;stroke-width:0.25px"/></g></g></svg>