<?xml version="1.0" encoding="UTF-8" standalone="no"?>
<!-- Created with Inkscape (http://www.inkscape.org/) -->

<svg
   xmlns:dc="http://purl.org/dc/elements/1.1/"
   xmlns:cc="http://creativecommons.org/ns#"
   xmlns:rdf="http://www.w3.org/1999/02/22-rdf-syntax-ns#"
   xmlns:svg="http://www.w3.org/2000/svg"
   xmlns="http://www.w3.org/2000/svg"
   xmlns:sodipodi="http://sodipodi.sourceforge.net/DTD/sodipodi-0.dtd"
   xmlns:inkscape="http://www.inkscape.org/namespaces/inkscape"
   width="100"
   height="100"
   viewBox="0 0 26.458333 26.458334"
   version="1.1"
   id="svg5322"
   inkscape:version="0.92.1 r15371"
   sodipodi:docname="floor_texture_default.svg">
  <defs
     id="defs5316" />
  <sodipodi:namedview
     id="base"
     pagecolor="#ffffff"
     bordercolor="#666666"
     borderopacity="1.0"
     inkscape:pageopacity="0.0"
     inkscape:pageshadow="2"
     inkscape:zoom="4.0000001"
     inkscape:cx="27.187498"
     inkscape:cy="31.700835"
     inkscape:document-units="mm"
     inkscape:current-layer="layer1"
     showgrid="false"
     units="px"
     inkscape:window-width="1920"
     inkscape:window-height="1017"
     inkscape:window-x="-8"
     inkscape:window-y="-8"
     inkscape:window-maximized="1" />
  <metadata
     id="metadata5319">
    <rdf:RDF>
      <cc:Work
         rdf:about="">
        <dc:format>image/svg+xml</dc:format>
        <dc:type
           rdf:resource="http://purl.org/dc/dcmitype/StillImage" />
        <dc:title></dc:title>
      </cc:Work>
    </rdf:RDF>
  </metadata>
  <g
     inkscape:groupmode="layer"
     id="layer1"
     inkscape:label="Capa 3"
     style="display:none">
    <path
       style="display:inline;opacity:1;vector-effect:none;fill:#724d00;fill-opacity:1;fill-rule:nonzero;stroke:none;stroke-width:0.4628512;stroke-linecap:butt;stroke-linejoin:miter;stroke-miterlimit:4;stroke-dasharray:none;stroke-dashoffset:0;stroke-opacity:1;paint-order:normal"
       d="M -1.2367188e-7,1.0433333e-6 V 26.458333 H 26.458332 V 1.0433333e-6 Z"
       id="rect5969"
       inkscape:connector-curvature="0" />
  </g>
  <g
     inkscape:groupmode="layer"
     id="layer2"
     inkscape:label="Capa 2"
     style="display:inline"
     transform="translate(-13.229167,-13.229167)">
    <path
       style="fill:none;stroke:#000000;stroke-width:0.60100001;stroke-linecap:butt;stroke-linejoin:miter;stroke-miterlimit:4;stroke-dasharray:none;stroke-opacity:0.11971831"
       d="m 17.264063,17.396355 c 0.529166,-0.264583 0.396875,-0.264583 1.521354,-0.330729 1.124479,-0.06615 2.844271,0.330729 3.175,0.529166 0.330729,0.198438 1.653646,0.992188 1.918229,1.322917 0.264583,0.330729 0.463021,1.455208 0.859896,1.984375 0.396875,0.529167 1.25677,1.521354 2.315104,1.984375 1.058334,0.463021 3.241146,1.984375 3.571875,2.315104 0.330729,0.330729 0.463021,1.785938 2.513542,1.852084"
       id="path7221"
       inkscape:connector-curvature="0" />
    <path
       style="fill:none;stroke:#000000;stroke-width:0.60100001;stroke-linecap:butt;stroke-linejoin:miter;stroke-miterlimit:4;stroke-dasharray:none;stroke-opacity:0.11971831"
       d="m 15.742709,26.127604 c 0,0 0.727604,0.198437 2.315104,0.859896 1.5875,0.661458 2.645833,0.198437 3.042708,1.653646 0.396875,1.455208 -0.463021,1.918229 0.992187,2.447395 1.455209,0.529167 2.182813,0.595313 3.571875,0.859896 1.389063,0.264584 2.645834,0.463021 4.233334,0.79375"
       id="path7223"
       inkscape:connector-curvature="0" />
    <path
       style="display:inline;fill:none;stroke:#000000;stroke-width:0.60100001;stroke-linecap:butt;stroke-linejoin:miter;stroke-miterlimit:4;stroke-dasharray:none;stroke-opacity:0.11971831"
       d="m 24.212512,37.915609 c 0,0 0.595009,-0.199223 1.893213,-0.863302 1.298203,-0.664078 2.163672,-0.199223 2.488223,-1.660197 0.324551,-1.460972 -0.378643,-1.925827 0.811377,-2.45709 1.19002,-0.531263 1.78503,-0.597671 2.920957,-0.863302 1.135929,-0.265632 2.163673,-0.464855 3.461877,-0.796894"
       id="path7223-6"
       inkscape:connector-curvature="0" />
    <path
       style="fill:none;stroke:#000000;stroke-width:0.60100001;stroke-linecap:butt;stroke-linejoin:miter;stroke-miterlimit:4;stroke-dasharray:none;stroke-opacity:0.11971831"
       d="m 25.730729,21.76198 c 0.330729,-0.198437 1.124479,-1.256771 1.5875,-2.248958 0.463021,-0.992188 0.463021,-1.785938 1.918229,-1.918229 1.455209,-0.132292 2.182813,-0.198438 3.042709,-0.198438 0.859896,0 1.785937,-0.727604 2.248958,-1.190625"
       id="path7255"
       inkscape:connector-curvature="0" />
  </g>
</svg>
