<?xml version="1.0" encoding="UTF-8" standalone="no"?>
<!-- Created with Inkscape (http://www.inkscape.org/) -->

<svg
   xmlns:dc="http://purl.org/dc/elements/1.1/"
   xmlns:cc="http://creativecommons.org/ns#"
   xmlns:rdf="http://www.w3.org/1999/02/22-rdf-syntax-ns#"
   xmlns:svg="http://www.w3.org/2000/svg"
   xmlns="http://www.w3.org/2000/svg"
   xmlns:sodipodi="http://sodipodi.sourceforge.net/DTD/sodipodi-0.dtd"
   xmlns:inkscape="http://www.inkscape.org/namespaces/inkscape"
   width="200"
   height="200"
   viewBox="0 0 52.916666 52.916668"
   version="1.1"
   id="svg5322"
   inkscape:version="0.92.1 r15371"
   sodipodi:docname="ice_rock.svg">
  <defs
     id="defs5316" />
  <sodipodi:namedview
     id="base"
     pagecolor="#ffffff"
     bordercolor="#666666"
     borderopacity="1.0"
     inkscape:pageopacity="0.0"
     inkscape:pageshadow="2"
     inkscape:zoom="5.6568542"
     inkscape:cx="68.03573"
     inkscape:cy="103.18668"
     inkscape:document-units="mm"
     inkscape:current-layer="layer3"
     showgrid="false"
     units="px"
     inkscape:window-width="1920"
     inkscape:window-height="1017"
     inkscape:window-x="-8"
     inkscape:window-y="-8"
     inkscape:window-maximized="1" />
  <metadata
     id="metadata5319">
    <rdf:RDF>
      <cc:Work
         rdf:about="">
        <dc:format>image/svg+xml</dc:format>
        <dc:type
           rdf:resource="http://purl.org/dc/dcmitype/StillImage" />
        <dc:title></dc:title>
      </cc:Work>
    </rdf:RDF>
  </metadata>
  <g
     inkscape:groupmode="layer"
     id="layer2"
     inkscape:label="Capa 2"
     style="display:none"
     sodipodi:insensitive="true">
    <path
       style="opacity:1;vector-effect:none;fill:#724d00;fill-opacity:1;fill-rule:nonzero;stroke:none;stroke-width:0.4628512;stroke-linecap:butt;stroke-linejoin:miter;stroke-miterlimit:4;stroke-dasharray:none;stroke-dashoffset:0;stroke-opacity:1;paint-order:normal"
       d="M 13.229167,13.229167 V 39.6875 H 39.6875 V 13.229167 Z"
       id="rect5969"
       inkscape:connector-curvature="0" />
  </g>
  <g
     inkscape:groupmode="layer"
     id="layer3"
     inkscape:label="Capa 3">
    <path
       style="fill:#dbfdff;stroke:#718283;stroke-width:0.26458332px;stroke-linecap:butt;stroke-linejoin:miter;stroke-opacity:1;fill-opacity:1"
       d="m 13.229167,13.229167 c 0.127178,0.304457 0.264622,0.604827 0.381534,0.913372 0.01105,0.02916 0,0.06236 0,0.09355 0,0.03118 0,0.06236 0,0.09354 0,0.12451 0,0.06258 0,0.187089 0,0.03118 -0.0061,0.06297 0,0.09354 0.0097,0.04835 0.03867,0.09169 0.04677,0.140317 0.0077,0.04613 0,0.09354 0,0.140316 0,0.01559 -0.0049,0.03198 0,0.04677 0.01103,0.03307 0.03575,0.06047 0.04677,0.09354 0.01479,0.04437 -0.01479,0.09595 0,0.140317 0.007,0.02092 0.0398,0.02585 0.04677,0.04677 0.0099,0.02958 0,0.06236 0,0.09355 0,0.07795 0,0.155907 0,0.23386 0,0.02515 -0.0097,0.344959 0,0.374178 0.007,0.02092 0.04143,0.02538 0.04677,0.04677 0.01134,0.04538 0,0.09354 0,0.140317 0,0.171497 0,0.342995 0,0.514493 0,0.140317 0,0.280633 0,0.42095 0,0.0069 0.0095,0.196017 0,0.233861 -0.01196,0.04783 -0.03481,0.09249 -0.04677,0.140316 -0.0096,0.03838 0,0.382929 0,0.42095 0,0.03118 0.0099,0.06396 0,0.09354 -0.007,0.02092 -0.04142,0.02538 -0.04677,0.04677 -0.01513,0.0605 0.01513,0.126588 0,0.187089 -0.01196,0.04783 -0.03867,0.09168 -0.04677,0.140316 -0.01517,0.09102 0.01517,0.189617 0,0.280633 -0.01057,0.06341 -0.0362,0.123682 -0.04677,0.187089 -0.0051,0.03076 0.0044,0.06268 0,0.09354 -0.01124,0.0787 -0.03691,0.154978 -0.04677,0.233861 -0.0058,0.04641 0.0077,0.09418 0,0.140317 -0.0081,0.04863 -0.03867,0.09169 -0.04677,0.140316 -0.0077,0.04614 0.0092,0.09445 0,0.140317 -0.0068,0.03418 -0.03993,0.05936 -0.04677,0.09354 -0.02099,0.104938 0.02099,0.222468 0,0.327405 -0.0068,0.03418 -0.03993,0.05936 -0.04677,0.09354 -0.0092,0.04586 0.0077,0.09418 0,0.140317 -0.0081,0.04863 -0.03867,0.09169 -0.04677,0.140316 -0.0077,0.04614 0.0077,0.09418 0,0.140317 -0.0081,0.04863 -0.03867,0.09168 -0.04677,0.140316 -0.01264,0.07585 0.01264,0.158015 0,0.233861 -0.01057,0.06341 -0.03768,0.123453 -0.04677,0.187089 -0.0066,0.0463 0,0.09354 0,0.140317 0,0.03118 0.0076,0.06329 0,0.09354 -0.0085,0.03382 -0.03832,0.05972 -0.04677,0.09354 -0.0076,0.03025 0,0.06236 0,0.09355 -0.01559,0.04677 -0.03481,0.09249 -0.04677,0.140316 -0.0038,0.01513 0,0.03118 0,0.04677 0,0.03118 0,0.06236 0,0.09354 0,0.09355 0,0.187089 0,0.280633 0,0.06236 0.01223,0.125937 0,0.187089 -0.0097,0.04834 -0.0371,0.09197 -0.04677,0.140317 -0.0061,0.03058 0,0.06236 0,0.09354 0,0.109135 0,0.21827 0,0.327405 0,0.04677 0.0077,0.09418 0,0.140317 -0.0081,0.04863 -0.0371,0.09197 -0.04677,0.140316 -0.0061,0.03058 0,0.06236 0,0.09355 0,0.04677 0,0.09354 0,0.140316 0,0.109135 0,0.21827 0,0.327405 0,0.327405 0,0.654811 0,0.982216 0,0.202679 0,0.405358 0,0.608038 0,0.06236 0.01025,0.125574 0,0.187089 -0.01057,0.06341 -0.0362,0.123681 -0.04677,0.187088 -0.01041,0.06244 0,0.399596 0,0.42095 0,0.04677 0.0092,0.09445 0,0.140316 -0.01261,0.06303 -0.03417,0.124055 -0.04677,0.187089 -0.0061,0.03058 0,0.06236 0,0.09354 0,0.05292 0.0097,0.268906 0,0.327405 -0.01057,0.06341 -0.03417,0.124056 -0.04677,0.18709 -0.0158,0.079 0.01569,0.202173 0,0.280633 -0.0097,0.04835 -0.0371,0.09197 -0.04677,0.140316 -0.0061,0.03058 0,0.06236 0,0.09354 0,0.07795 0,0.155908 0,0.23386 0,0.04677 0.0058,0.09391 0,0.140316 -0.0099,0.07889 -0.03553,0.155163 -0.04677,0.233863 -0.0088,0.06173 0,0.124724 0,0.187087 0,0.155908 0,0.311816 0,0.467722 0,0.03118 0.0051,0.06279 0,0.09354 -0.01057,0.06341 -0.0362,0.123682 -0.04677,0.187089 -0.0051,0.03076 0,0.06236 0,0.09354 0,0.06236 0,0.124727 0,0.187089 0,0.03118 0.0076,0.06329 0,0.09354 -0.0085,0.03382 -0.03993,0.05936 -0.04677,0.09355 -0.0092,0.04586 0,0.09354 0,0.140316 0,0.109135 0,0.218271 0,0.327406 0,0.296222 0,0.592447 0,0.888669 0,0.280633 0,0.561266 0,0.841899 0,0.07795 0,0.155909 0,0.233863 0,0.04677 -0.01134,0.09494 0,0.140316 0.07466,0.298646 0.04677,-0.208436 0.04677,0.280633 0,0.03118 -0.0076,0.06329 0,0.09354 0.01196,0.04783 0.0371,0.09197 0.04677,0.140316 0.0061,0.03057 -0.0099,0.06396 0,0.09354 0.007,0.02093 0.03691,0.02705 0.04677,0.04677 0.007,0.01394 0,0.03118 0,0.04677 0,0.03118 -0.0076,0.06329 0,0.09354 0.0085,0.03382 0.03575,0.06047 0.04677,0.09354 0.0099,0.02958 0,0.06236 0,0.09355 0,0.09354 0,0.187086 0,0.280633 0,0.04677 -0.01135,0.09494 0,0.140316 0.0053,0.02138 0.03691,0.02705 0.04677,0.04677 0.007,0.01394 -0.0049,0.03198 0,0.04677 0.01103,0.03307 0.03993,0.05936 0.04677,0.09354 0.01714,0.08573 -0.01725,0.241152 0,0.327406 0.0097,0.04834 0.03481,0.09249 0.04677,0.140316 0.0038,0.01514 0,0.03118 0,0.04677 0.01559,0.06236 0.02645,0.126106 0.04677,0.187087 0.01103,0.03307 0.03993,0.05936 0.04677,0.09355 0.0092,0.04586 0,0.09354 0,0.140317 0,0.04677 0,0.09354 0,0.140316 0,0.03118 -0.0099,0.06396 0,0.09354 0.06072,0.182152 0.04677,0.0044 0.04677,0.187089 0,0.06236 0,0.124725 0,0.18709 0,0.03118 0,0.06236 0,0.09354 0,0.01558 -0.0049,0.03198 0,0.04677 0.01103,0.03307 0.03575,0.06047 0.04677,0.09354 0.0099,0.02958 0,0.06236 0,0.09354 0,0.04677 0,0.09355 0,0.140317 0,0.187089 0,0.374179 0,0.561266 0,0.124727 0,0.249451 0,0.374179 0,0.04677 0,0.09354 0,0.140316 0,0.04677 0.0092,0.09445 0,0.140316 -0.0068,0.03419 -0.03575,0.06047 -0.04677,0.09354 -0.0099,0.02958 0,0.06236 0,0.09354 0,0.0553 0.0092,0.337558 0,0.374179 -0.0053,0.02138 -0.0398,0.02585 -0.04677,0.04677 -0.0084,0.02514 0,0.147489 0,0.187089 0,0.358587 0,0.717175 0,1.075759 0,0.09355 0,0.18709 0,0.280633 0,0.01558 0.01559,0.04677 0,0.04677 -0.01559,0 -0.01559,-0.04677 0,-0.04677 0.02205,0 0.02705,0.03691 0.04677,0.04677 0.01394,0.007 0.03283,-0.007 0.04677,0 0.01972,0.0099 0.02705,0.03691 0.04677,0.04677 0.01394,0.007 0.03118,0 0.04677,0 0.03118,0 0.06297,-0.0061 0.09354,0 0.04835,0.0097 0.09249,0.03481 0.140317,0.04677 0.09354,0.02339 0,-0.04677 0.140316,0 0.02092,0.007 0.02705,0.03691 0.04677,0.04677 0.0441,0.02204 0.09355,0.03118 0.140317,0.04677 0.04677,0.01558 0.09249,0.03481 0.140316,0.04677 0.03839,0.0096 0.15959,-0.01376 0.187089,0 0.01972,0.0099 0.02705,0.03691 0.04677,0.04677 0.02789,0.01394 0.06565,-0.01394 0.09354,0 0.01972,0.0099 0.02705,0.03691 0.04677,0.04677 0.01395,0.007 0.03118,0 0.04677,0 0.06615,0 0.200788,0 0.233861,0 0.03118,0 0.06236,0 0.09354,0 0.01559,0 0.03283,-0.007 0.04677,0 0.01972,0.0099 0.02585,0.0398 0.04677,0.04677 0.02958,0.0099 0.06236,0 0.09355,0 0.01559,0 0.03283,-0.007 0.04677,0 0.01972,0.0099 0.02585,0.0398 0.04677,0.04677 0.02958,0.0099 0.06236,0 0.09354,0 0.04758,0 0.223635,-0.0095 0.280633,0 0.06341,0.01056 0.124055,0.03417 0.187089,0.04677 0.07663,0.01532 0.209,-0.01791 0.280633,0 0.03382,0.0085 0.05936,0.03993 0.09354,0.04677 0.04586,0.0092 0.09494,-0.01135 0.140317,0 0.02139,0.0053 0.02585,0.0398 0.04677,0.04677 0.02272,0.0076 0.279653,0 0.327405,0 0.187089,0 0.374177,0 0.561266,0 0.109135,0 0.21827,0 0.327405,0 0.03118,0 0.06236,0 0.09355,0 0.03118,0 0.06396,-0.0099 0.09354,0 0.02092,0.007 0.02585,0.0398 0.04677,0.04677 0.02958,0.0099 0.06236,0 0.09354,0 0.03118,0 0.06236,0 0.09354,0 0.140316,0 0.280633,0 0.420949,0 0.405359,0 0.810718,0 1.216077,0 1.29403,0 2.58806,0 3.882089,0 0.09355,0 0.187089,0 0.280634,0 0.03118,0 0.06297,0.0061 0.09354,0 0.04835,-0.0097 0.09249,-0.03481 0.140316,-0.04677 0.03025,-0.0076 0.06329,0.0076 0.09355,0 0.04783,-0.01196 0.09197,-0.0371 0.140316,-0.04677 0.03058,-0.0061 0.06329,0.0076 0.09354,0 0.03382,-0.0084 0.05916,-0.04104 0.09354,-0.04677 0.06151,-0.01024 0.124726,0 0.187089,0 0.124725,0 0.249451,0 0.374177,0 0.03118,0 0.06236,0 0.09354,0 0.03118,0 0.06329,0.0076 0.09354,0 0.03382,-0.0085 0.05903,-0.04184 0.09354,-0.04677 0.07717,-0.01103 0.156509,0.0097 0.233861,0 0.04892,-0.0061 0.09169,-0.03867 0.140316,-0.04677 0.04614,-0.0077 0.09418,0.0077 0.140317,0 0.04863,-0.0081 0.09168,-0.03867 0.140316,-0.04677 0.04614,-0.0077 0.09378,0.0047 0.140317,0 0.109696,-0.01098 0.217709,-0.0358 0.327405,-0.04677 0.09308,-0.0093 0.187088,0 0.280632,0 0.155908,0 0.311817,0 0.467722,0 0.06211,0 0.285753,0.01042 0.327406,0 0.02138,-0.0053 0.02585,-0.0398 0.04677,-0.04677 0.05916,-0.01971 0.12659,0.01513 0.187089,0 0.03382,-0.0084 0.06047,-0.03575 0.09354,-0.04677 0.01479,-0.0049 0.03118,0 0.04677,0 0.06615,0 0.0548,0 0.187089,0 0.01558,0 0.03165,0.0038 0.04677,0 0.04783,-0.01196 0.09249,-0.03482 0.140316,-0.04677 0.01513,-0.0038 0.03198,0.0049 0.04677,0 0.03307,-0.01103 0.05936,-0.03994 0.09354,-0.04677 0.04586,-0.0092 0.09445,0.0092 0.140319,0 0.03418,-0.0068 0.05936,-0.03993 0.09354,-0.04677 0.09173,-0.01834 0.188362,0.01537 0.280633,0 0.04863,-0.0081 0.09354,-0.03118 0.140317,-0.04677 0.07795,-0.01558 0.154977,-0.03691 0.23386,-0.04677 0.04641,-0.0058 0.09418,0.0077 0.140316,0 0.09726,-0.01622 0.18302,-0.0796 0.280633,-0.09354 0.06174,-0.0088 0.124727,0 0.18709,0 0.04677,0 0.09354,0 0.140316,0 0.249452,0 0.498904,0 0.748355,0 0.07795,0 0.155906,0 0.23386,0 0.03118,0 0.06236,0 0.09354,0 0.01558,0 0.03198,0.0049 0.04677,0 0.03307,-0.01103 0.05972,-0.03832 0.09354,-0.04677 0.07563,-0.01889 0.15697,0.01281 0.233863,0 0.04863,-0.0081 0.09197,-0.0371 0.140316,-0.04677 0.03058,-0.0061 0.06396,0.0099 0.09354,0 0.02093,-0.007 0.02705,-0.03691 0.04677,-0.04677 0.01738,-0.0087 0.287501,0 0.327403,0 0.202682,0 0.40536,0 0.608039,0 0.07795,0 0.156969,0.01281 0.23386,0 0.03439,-0.0057 0.05972,-0.03832 0.09355,-0.04677 0.03025,-0.0076 0.06236,0 0.09354,0 0.09354,0 0.18709,0 0.280633,0 0.280633,0 0.561266,0 0.841899,0 0.171498,0 0.342996,0 0.514496,0 0.05663,0 0.1344,-0.01053 0.187087,0 0.06303,0.01262 0.124055,0.03417 0.187089,0.04677 0.03057,0.0061 0.06396,-0.0099 0.09354,0 0.03307,0.01103 0.06047,0.03575 0.09355,0.04677 0.02958,0.0099 0.06278,-0.0051 0.09354,0 0.07841,0.01307 0.155446,0.0337 0.23386,0.04677 0.04677,0.0078 0.09355,-0.01558 0.140317,0 0.02093,0.007 0.02537,0.04143 0.04677,0.04677 0.04538,0.01135 0.09354,0 0.140316,0 0.01558,0 0.03198,-0.0049 0.04677,0 0.03307,0.01103 0.06047,0.03575 0.09354,0.04677 0.04142,0.01381 0.187497,-0.01159 0.233859,0 0.03382,0.0085 0.06236,0.03118 0.09355,0.04677 0.06236,0 0.125206,-0.0077 0.187086,0 0.174977,0.02188 0.17208,0.05471 0.327406,0.09355 0.07712,0.01929 0.155446,0.0337 0.23386,0.04677 0.101725,0.01696 0.226579,-0.0168 0.327406,0 0.194654,0.03244 0.08118,0.04265 0.23386,0.09355 0.01479,0.0049 0.03118,0 0.04677,0 0.05414,0 0.192104,-0.01045 0.23386,0 0.03382,0.0084 0.06047,0.03575 0.09355,0.04677 0.03217,0.01072 0.112721,-0.01381 0.140317,0 0.01971,0.0099 0.02705,0.03691 0.04677,0.04677 0.01394,0.007 0.03118,0 0.04677,0 0.01558,0 0.03118,0 0.04677,0 0.09354,0 0.187087,0 0.280633,0 0.09354,0 0.18709,0 0.280633,0 0.01558,0 0.03575,0.01103 0.04677,0 0.09677,-0.09677 -0.147883,0.0038 0.04677,-0.09354 0.01394,-0.007 0.03575,0.01103 0.04677,0 0.01103,-0.01103 -0.007,-0.03283 0,-0.04677 0.02302,-0.04603 0.164076,-0.141063 0.187089,-0.18709 0.007,-0.01394 -0.007,-0.03283 0,-0.04677 0.0099,-0.01971 0.03691,-0.02705 0.04677,-0.04677 0.007,-0.01394 -0.01103,-0.03575 0,-0.04677 0.01103,-0.01103 0.03575,0.01103 0.04677,0 0.02466,-0.02466 0.02743,-0.06454 0.04677,-0.09354 0.01222,-0.01834 0.03691,-0.02705 0.04677,-0.04677 0.007,-0.01394 -0.01103,-0.03575 0,-0.04677 0.02466,-0.02466 0.06889,-0.02212 0.09355,-0.04677 0.01103,-0.01103 -0.007,-0.03283 0,-0.04677 0.107027,-0.214056 -0.01939,0.198474 0.09354,-0.140317 0.0049,-0.01479 -0.01103,-0.03575 0,-0.04677 0.01103,-0.01103 0.0398,0.01394 0.04677,0 0.01394,-0.02789 -0.0099,-0.06396 0,-0.09355 0.007,-0.0209 0.03691,-0.02705 0.04677,-0.04677 0.007,-0.01394 0,-0.03118 0,-0.04677 0.01558,-0.03118 0.02743,-0.06454 0.04677,-0.09354 0.01222,-0.01834 0.03691,-0.02705 0.04677,-0.04677 0.01381,-0.0276 -0.01072,-0.108146 0,-0.140317 0.01103,-0.03307 0.03575,-0.06047 0.04677,-0.09354 0.0049,-0.01479 -0.0049,-0.03198 0,-0.04677 0.01103,-0.03307 0.03832,-0.05973 0.04677,-0.09354 0.0097,-0.03879 -0.01529,-0.20326 0,-0.233862 0.007,-0.01394 0.0398,0.01394 0.04677,0 0.0067,-0.01349 0,-0.250738 0,-0.280633 0,-0.01558 -0.0049,-0.03198 0,-0.04677 0.01103,-0.03307 0.03575,-0.06047 0.04677,-0.09355 0.0075,-0.02249 0,-0.320529 0,-0.327403 0,-0.140316 0,-0.280633 0,-0.420949 0,-0.0323 -0.0071,-0.172869 0,-0.18709 0.0099,-0.01971 0.0398,-0.02585 0.04677,-0.04677 0.01479,-0.04437 0,-0.09354 0,-0.140316 0,-0.124725 0,-0.249452 0,-0.374177 0,-0.280633 0,-0.561266 0,-0.841899 0,-0.374179 0,-0.748355 0,-1.122532 0,-0.124727 0,-0.249451 0,-0.374179 0,-0.0073 0.0078,-0.249494 0,-0.280633 -0.01196,-0.04783 -0.03481,-0.09248 -0.04677,-0.140316 -0.0038,-0.01513 0,-0.03118 0,-0.04677 0,-0.03118 0,-0.06236 0,-0.09355 0,-0.09354 0,-0.187087 0,-0.280633 0,-0.03118 0,-0.06236 0,-0.09354 0,-0.01558 0.0038,-0.03165 0,-0.04677 -0.01196,-0.04783 -0.03481,-0.09249 -0.04677,-0.140316 -0.0076,-0.03025 0,-0.06236 0,-0.09354 0,-0.09354 0,-0.187089 0,-0.280633 0,-0.296225 0,-0.592447 0,-0.888672 0,-0.109135 0,-0.21827 0,-0.327403 0,-0.03118 0.0061,-0.06297 0,-0.09355 -0.0097,-0.04835 -0.03867,-0.09168 -0.04677,-0.140317 -0.0077,-0.04613 0.0066,-0.09401 0,-0.140316 -0.0091,-0.06363 -0.03768,-0.123452 -0.04677,-0.187087 -0.0066,-0.0463 0.0077,-0.09418 0,-0.140316 -0.0081,-0.04863 -0.03867,-0.09169 -0.04677,-0.14032 -0.01281,-0.07689 0,-0.155905 0,-0.233859 0,-0.03118 0.0076,-0.06329 0,-0.09354 -0.0085,-0.03382 -0.03832,-0.05972 -0.04677,-0.09355 -0.0076,-0.03025 0.0076,-0.06329 0,-0.09354 -0.0085,-0.03382 -0.03832,-0.05972 -0.04677,-0.09354 -0.01135,-0.04538 0.01479,-0.09595 0,-0.140316 -0.01103,-0.03307 -0.03575,-0.06047 -0.04677,-0.09355 -0.0049,-0.01479 0,-0.03118 0,-0.04677 0,-0.0072 0.0071,-0.255603 0,-0.280633 -0.02307,-0.08073 -0.07048,-0.153133 -0.09355,-0.233862 -0.0086,-0.02998 0.0061,-0.06297 0,-0.09354 -0.01934,-0.09669 -0.0742,-0.183943 -0.09354,-0.280633 -0.0061,-0.03057 0.0076,-0.06329 0,-0.09354 -0.0085,-0.03382 -0.03382,-0.06118 -0.04677,-0.09355 -0.01831,-0.04578 -0.02846,-0.09454 -0.04677,-0.140317 -0.01294,-0.03237 -0.03994,-0.05936 -0.04677,-0.09354 -0.0092,-0.04586 0,-0.09354 0,-0.140317 -0.01558,-0.09354 -0.02379,-0.188629 -0.04677,-0.280633 -0.01691,-0.06764 -0.07663,-0.119446 -0.09354,-0.187089 -0.01892,-0.07563 0.01529,-0.157419 0,-0.23386 -0.0068,-0.03418 -0.03382,-0.06118 -0.04677,-0.09354 -0.01831,-0.04578 -0.02846,-0.09454 -0.04677,-0.140318 -0.01294,-0.03237 -0.03832,-0.05972 -0.04677,-0.09354 -0.01514,-0.0605 0.01222,-0.125937 0,-0.187089 0.07949,-0.126601 -0.0715,-0.120943 -0.09354,-0.187089 -0.01971,-0.05916 0.01971,-0.127926 0,-0.187088 -0.007,-0.02092 -0.03691,-0.02705 -0.04677,-0.04677 -0.0085,-0.01705 0,-0.206911 0,-0.233861 0,-0.155907 0,-0.311815 0,-0.467722 0,-0.187089 0,-0.374177 0,-0.561266 0,-0.03597 -0.01082,-0.237367 0,-0.280633 0.01196,-0.04783 0.0371,-0.09197 0.04677,-0.140316 0.0061,-0.03058 0,-0.06236 0,-0.09354 0,-0.06236 0,-0.124725 0,-0.187089 0,-0.170867 -0.0021,0.06662 0.04677,-0.374177 0.0034,-0.03099 -0.0076,-0.06329 0,-0.09354 0.0085,-0.03382 0.03994,-0.05936 0.04677,-0.09354 0.01529,-0.07644 -0.01892,-0.158235 0,-0.233861 0.0085,-0.03382 0.03832,-0.05972 0.04677,-0.09354 0.0076,-0.03025 -0.0044,-0.06268 0,-0.09354 0.01124,-0.0787 0.03553,-0.155162 0.04677,-0.233861 0.0044,-0.03087 0,-0.06236 0,-0.09354 0,-0.06236 0,-0.124726 0,-0.187089 0,-0.187089 0,-0.374177 0,-0.561266 0,-0.576856 0,-1.153713 0,-1.73057 0,-0.21827 0,-0.43654 0,-0.65481 0,-0.03118 0,-0.06236 0,-0.09354 0,-0.03118 -0.0076,-0.06329 0,-0.09354 0.0085,-0.03382 0.03832,-0.05972 0.04677,-0.09354 0.0076,-0.03025 -0.0076,-0.06329 0,-0.09355 0.0085,-0.03382 0.03993,-0.05936 0.04677,-0.09354 0.08652,-0.432586 -0.08652,0.151953 0,-0.280633 0.0068,-0.03419 0.04184,-0.05903 0.04677,-0.09354 0.01103,-0.07717 0,-0.155908 0,-0.233861 0,-0.04677 -0.0092,-0.09445 0,-0.140317 0.01368,-0.06837 0.07663,-0.119446 0.09355,-0.187088 0.0076,-0.03025 0,-0.06236 0,-0.09355 0,-0.06236 -0.01027,-0.125574 0,-0.187088 0.0057,-0.03439 0.03993,-0.05936 0.04677,-0.09354 0.0092,-0.04586 0,-0.09354 0,-0.140316 0,-0.109135 0,-0.21827 0,-0.327405 0,-0.06236 -0.01024,-0.125575 0,-0.187089 0.0057,-0.03439 0.03575,-0.06047 0.04677,-0.09354 0.0049,-0.01479 0,-0.03118 0,-0.04677 0,-0.04677 0,-0.09354 0,-0.140316 0,-0.04775 -0.0076,-0.304682 0,-0.327405 0.007,-0.02092 0.03691,-0.02705 0.04677,-0.04677 0.007,-0.01394 0,-0.03118 0,-0.04677 0,-0.01559 0,-0.03118 0,-0.04677 0,-0.03916 -0.01016,-0.296957 0,-0.327405 0.01103,-0.03307 0.03575,-0.06047 0.04677,-0.09354 0.0098,-0.02944 0,-0.191702 0,-0.233861 0,-0.01559 -0.01103,-0.03575 0,-0.04677 0.01103,-0.01103 0.0398,0.01394 0.04677,0 0.01394,-0.02789 0,-0.06236 0,-0.09354 0,-0.109135 0,-0.21827 0,-0.327405 0,-0.23386 0,-0.467721 0,-0.701582 0,-0.01134 0.0016,-0.138812 0,-0.140317 -0.01103,-0.01103 -0.03575,0.01103 -0.04677,0 -0.02204,-0.02205 0.0099,-0.06396 0,-0.09354 -0.01103,-0.03307 -0.03575,-0.06047 -0.04677,-0.09354 -0.0049,-0.01479 0.007,-0.03283 0,-0.04677 -0.0099,-0.01972 -0.03691,-0.02705 -0.04677,-0.04677 -0.007,-0.01394 0.01103,-0.03575 0,-0.04677 -0.01103,-0.01103 -0.03575,0.01103 -0.04677,0 -0.01103,-0.01103 0.01103,-0.03575 0,-0.04677 -0.01103,-0.01103 -0.03575,0.01102 -0.04677,0 -0.01103,-0.01103 0.01103,-0.03575 0,-0.04677 -0.02204,-0.02205 -0.06566,0.01395 -0.09355,0 -0.01971,-0.0099 -0.02705,-0.03691 -0.04677,-0.04677 -0.01394,-0.007 -0.03575,0.01103 -0.04677,0 -0.01103,-0.01103 0.01103,-0.03575 0,-0.04677 -0.02204,-0.02205 -0.06566,0.01394 -0.09354,0 -0.01971,-0.0099 -0.02705,-0.03691 -0.04677,-0.04677 -0.01394,-0.007 -0.03118,0 -0.04677,0 -0.03118,0 -0.06396,0.0099 -0.09354,0 -0.02093,-0.007 -0.0263,-0.03858 -0.04677,-0.04677 -0.05969,-0.02387 -0.12528,-0.02911 -0.187089,-0.04677 -0.0474,-0.01354 -0.09249,-0.03482 -0.140317,-0.04677 -0.03025,-0.0076 -0.06329,0.0076 -0.09354,0 -0.04783,-0.01196 -0.09249,-0.03482 -0.140317,-0.04677 -0.01513,-0.0038 -0.03283,0.007 -0.04677,0 -0.01971,-0.0099 -0.02705,-0.03691 -0.04677,-0.04677 -0.02479,-0.0124 -0.202041,0.01061 -0.233863,0 -0.0209,-0.007 -0.02705,-0.03691 -0.04677,-0.04677 -0.0123,-0.0061 -0.162632,0 -0.18709,0 -0.02614,0 -0.206258,0.0092 -0.23386,0 -0.03307,-0.01103 -0.06047,-0.03575 -0.09355,-0.04677 -0.0182,-0.0061 -0.133056,0.0073 -0.140316,0 -0.01103,-0.01103 0.01103,-0.03575 0,-0.04677 -0.01103,-0.01103 -0.03118,0 -0.04677,0 -0.01558,0 -0.03118,0 -0.04677,0 -0.03612,0 -0.252097,0.0095 -0.280633,0 -0.03307,-0.01103 -0.05972,-0.03832 -0.09354,-0.04677 -0.0605,-0.01513 -0.126587,0.01513 -0.18709,0 -0.03382,-0.0085 -0.05972,-0.03832 -0.09354,-0.04677 -0.07563,-0.01891 -0.157422,0.01529 -0.233863,0 -0.03418,-0.0068 -0.05972,-0.03832 -0.09354,-0.04677 -0.04538,-0.01134 -0.09354,0 -0.140316,0 -0.109136,0 -0.218271,0 -0.327406,0 -0.03118,0 -0.06236,0 -0.09354,0 -0.01558,0 -0.03198,0.0049 -0.04677,0 -0.18215,-0.06072 -0.0044,-0.04677 -0.187087,-0.04677 -0.1715,0 -0.342998,0 -0.514495,0 -0.04677,0 -0.09354,0 -0.140317,0 -0.04677,0 -0.09401,0.0066 -0.140316,0 -0.06363,-0.0091 -0.123452,-0.03768 -0.187087,-0.04677 -0.0463,-0.0066 -0.09355,0 -0.140317,0 -0.155908,0 -0.311816,0 -0.467722,0 -0.374179,0 -0.748356,0 -1.122532,0 -0.296225,0 -0.592447,0 -0.888672,0 -0.109135,0 -0.21827,0 -0.327406,0 -0.03118,0 -0.06396,-0.0099 -0.09354,0 -0.02093,0.007 -0.02585,0.0398 -0.04677,0.04677 -0.02958,0.0099 -0.06236,0 -0.09354,0 -0.06236,0 -0.124724,0 -0.187089,0 -0.03118,0 -0.06297,-0.0061 -0.09354,0 -0.04834,0.0097 -0.09151,0.0398 -0.140316,0.04677 -0.123473,0.01764 -0.250214,-0.01378 -0.374177,0 -0.87426,0.09714 0.208733,-0.0036 -0.374179,0.09354 -0.07689,0.01282 -0.155905,0 -0.233859,0 -0.01558,0 -0.03198,-0.0049 -0.04677,0 -0.03307,0.01103 -0.05972,0.03832 -0.09354,0.04677 -0.03025,0.0076 -0.06565,-0.01394 -0.09354,0 -0.01394,0.007 0.01394,0.0398 0,0.04677 -0.0306,0.0153 -0.19507,-0.0097 -0.233863,0 -0.03382,0.0085 -0.06236,0.03118 -0.09354,0.04677 -0.03118,0.01559 -0.06454,0.02743 -0.09354,0.04677 -0.01834,0.01223 -0.02537,0.04142 -0.04677,0.04677 -0.04538,0.01135 -0.09445,-0.0092 -0.140316,0 -0.03419,0.0068 -0.05973,0.03832 -0.09354,0.04677 -0.03025,0.0076 -0.0633,-0.0076 -0.09355,0 -0.03382,0.0085 -0.05972,0.03832 -0.09354,0.04677 -0.03025,0.0076 -0.06297,-0.0061 -0.09354,0 -0.04835,0.0097 -0.09169,0.03867 -0.140316,0.04677 -0.07689,0.01282 -0.155909,0 -0.233863,0 -0.03118,0 -0.06297,-0.0061 -0.09354,0 -0.04834,0.0097 -0.09249,0.03482 -0.140317,0.04677 -0.05769,0.01442 -0.17354,-0.01206 -0.233862,0 -0.04835,0.0097 -0.09197,0.0371 -0.140317,0.04677 -0.06115,0.01223 -0.126587,-0.01513 -0.187087,0 -0.03382,0.0085 -0.05972,0.03832 -0.09355,0.04677 -0.03025,0.0076 -0.06236,0 -0.09354,0 -0.07094,0 -0.31138,-0.01047 -0.374177,0 -0.04863,0.0081 -0.09169,0.03867 -0.140316,0.04677 -0.09227,0.01538 -0.188907,-0.01835 -0.280634,0 -0.03418,0.0068 -0.05972,0.03832 -0.09354,0.04677 -0.03679,0.0092 -0.231994,0 -0.280633,0 -0.171498,0 -0.342996,0 -0.514494,0 -0.06236,0 -0.125353,-0.0088 -0.187089,0 -0.04881,0.007 -0.09168,0.03867 -0.140316,0.04677 -0.04614,0.0077 -0.09354,0 -0.140317,0 -0.06236,0 -0.124725,0 -0.187088,0 -0.85749,0 -1.71498,0 -2.572469,0 -0.327406,0 -0.654811,0 -0.982216,0 -0.109135,0 -0.21827,0 -0.327405,0 -0.04677,0 -0.09445,0.0092 -0.140317,0 -0.03419,-0.0068 -0.05936,-0.03993 -0.09354,-0.04677 -0.04586,-0.0092 -0.09354,0 -0.140316,0 -0.04677,0 -0.09355,0 -0.140317,0 -0.04677,0 -0.09418,0.0077 -0.140317,0 -0.04863,-0.0081 -0.09168,-0.03867 -0.140316,-0.04677 -0.09227,-0.01538 -0.188361,0.01538 -0.280633,0 -0.04863,-0.0081 -0.09168,-0.03867 -0.140316,-0.04677 -0.04614,-0.0077 -0.09354,0 -0.140317,0 -0.140316,0 -0.280633,0 -0.420949,0 -0.09354,0 -0.187089,0 -0.280633,0 -0.03118,0 -0.06329,0.0076 -0.09355,0 -0.03382,-0.0085 -0.05936,-0.03994 -0.09354,-0.04677 -0.07644,-0.01529 -0.155907,0 -0.233861,0 -0.155907,0 -0.311814,0 -0.467722,0 -0.04053,0 -0.159994,0.009 -0.187088,0 -0.03307,-0.01103 -0.05972,-0.03832 -0.09354,-0.04677 -0.03025,-0.0076 -0.06236,0 -0.09354,0 -0.109135,0 -0.21827,0 -0.327405,0 -0.03118,0 -0.06297,0.0061 -0.09354,0 -0.04834,-0.0097 -0.09197,-0.0371 -0.140316,-0.04677 -0.07644,-0.01529 -0.156968,0.01282 -0.233861,0 -0.04863,-0.0081 -0.09169,-0.03867 -0.140316,-0.04677 -0.07689,-0.01282 -0.158235,0.01891 -0.233861,0 -0.03382,-0.0085 -0.06047,-0.03575 -0.09354,-0.04677 -0.01479,-0.0049 -0.03118,0 -0.04677,0 -0.03118,0 -0.06236,0 -0.09354,0 -0.09354,0 -0.187089,0 -0.280633,0 -0.04677,0 -0.09354,0 -0.140316,0 -0.01559,0 -0.03165,0.0038 -0.04677,0 -0.484502,-0.161501 0.193414,0.04804 -0.280633,-0.04677 -0.03418,-0.0068 -0.05972,-0.03832 -0.09354,-0.04677 -0.03025,-0.0076 -0.06236,0 -0.09354,0 -0.07795,0 -0.155908,0 -0.233861,0 -0.03118,0 -0.06396,0.0099 -0.09355,0 -0.03307,-0.01103 -0.06047,-0.03575 -0.09354,-0.04677 -0.03217,-0.01072 -0.11272,0.0138 -0.140316,0 -0.01972,-0.0099 -0.02705,-0.03691 -0.04677,-0.04677 -0.01391,-0.007 -0.260958,0 -0.280633,0 -0.07795,0 -0.155908,0 -0.233861,0 -0.03118,0 -0.06236,0 -0.09355,0 -0.01559,0 -0.03283,0.007 -0.04677,0 -0.01972,-0.0099 -0.02705,-0.03691 -0.04677,-0.04677 -0.0123,-0.0061 -0.162631,0 -0.187089,0 -0.09354,0 -0.187088,0 -0.280633,0 -0.02935,0 -0.115668,-0.0087 -0.140316,0 -0.0512,0.01813 -0.09845,0.0459 -0.147673,0.06884 z"
       id="path5804"
       inkscape:connector-curvature="0" />
  </g>
  <g
     inkscape:label="Capa 1"
     inkscape:groupmode="layer"
     id="layer1"
     transform="translate(0,-244.08332)" />
</svg>
