<?xml version="1.0" encoding="UTF-8" standalone="no"?>
<!-- Created with Inkscape (http://www.inkscape.org/) -->

<svg
   xmlns:dc="http://purl.org/dc/elements/1.1/"
   xmlns:cc="http://creativecommons.org/ns#"
   xmlns:rdf="http://www.w3.org/1999/02/22-rdf-syntax-ns#"
   xmlns:svg="http://www.w3.org/2000/svg"
   xmlns="http://www.w3.org/2000/svg"
   xmlns:sodipodi="http://sodipodi.sourceforge.net/DTD/sodipodi-0.dtd"
   xmlns:inkscape="http://www.inkscape.org/namespaces/inkscape"
   width="200"
   height="200"
   viewBox="0 0 52.916666 52.916668"
   version="1.1"
   id="svg5322"
   inkscape:version="0.92.1 r15371"
   sodipodi:docname="lava_slime.svg">
  <defs
     id="defs5316" />
  <sodipodi:namedview
     id="base"
     pagecolor="#ffffff"
     bordercolor="#666666"
     borderopacity="1.0"
     inkscape:pageopacity="0.0"
     inkscape:pageshadow="2"
     inkscape:zoom="5.6568542"
     inkscape:cx="68.03573"
     inkscape:cy="103.18668"
     inkscape:document-units="mm"
     inkscape:current-layer="layer3"
     showgrid="false"
     units="px"
     inkscape:window-width="1920"
     inkscape:window-height="1017"
     inkscape:window-x="-8"
     inkscape:window-y="-8"
     inkscape:window-maximized="1" />
  <metadata
     id="metadata5319">
    <rdf:RDF>
      <cc:Work
         rdf:about="">
        <dc:format>image/svg+xml</dc:format>
        <dc:type
           rdf:resource="http://purl.org/dc/dcmitype/StillImage" />
        <dc:title></dc:title>
      </cc:Work>
    </rdf:RDF>
  </metadata>
  <g
     inkscape:groupmode="layer"
     id="layer2"
     inkscape:label="Capa 2"
     style="display:inline"
     sodipodi:insensitive="true">
    <path
       style="opacity:1;vector-effect:none;fill:#724d00;fill-opacity:1;fill-rule:nonzero;stroke:none;stroke-width:0.4628512;stroke-linecap:butt;stroke-linejoin:miter;stroke-miterlimit:4;stroke-dasharray:none;stroke-dashoffset:0;stroke-opacity:1;paint-order:normal"
       d="M 13.229167,13.229167 V 39.6875 H 39.6875 V 13.229167 Z"
       id="rect5969"
       inkscape:connector-curvature="0" />
  </g>
  <g
     inkscape:groupmode="layer"
     id="layer3"
     inkscape:label="Capa 3">
    <rect
       style="opacity:1;vector-effect:none;fill:#a30000;fill-opacity:1;fill-rule:nonzero;stroke:none;stroke-width:0.30805105;stroke-linecap:butt;stroke-linejoin:miter;stroke-miterlimit:4;stroke-dasharray:none;stroke-dashoffset:0;stroke-opacity:1;paint-order:normal"
       id="rect5790"
       width="26.458332"
       height="26.458334"
       x="13.229167"
       y="13.229167" />
    <path
       style="fill:#690000;stroke:#5a0000;stroke-width:0.26458332px;stroke-linecap:butt;stroke-linejoin:miter;stroke-opacity:1;fill-opacity:1"
       d="m 17.118613,28.220961 c 0.05873,0.234921 0.02644,0.126105 0.09354,0.327406 0.01559,0.04677 0.02141,0.09804 0.04677,0.140316 0.02269,0.03781 0.06709,0.05827 0.09354,0.09354 0.08131,0.108418 0.01808,0.101803 0.09354,0.233862 0.03868,0.06768 0.101641,0.119407 0.140317,0.187087 0.02446,0.04281 0.02472,0.09622 0.04677,0.140317 0.111016,0.222033 0.197659,0.292073 0.327405,0.514495 0.0527,0.09034 0.07756,0.196964 0.140317,0.280633 0.03373,0.04497 0.09354,0.06236 0.140316,0.09354 0.06236,0.09355 0.133253,0.181936 0.187089,0.280633 0.0402,0.07371 0.05035,0.161867 0.09354,0.233863 0.05136,0.0856 0.1258,0.155059 0.187089,0.23386 0.04786,0.06153 0.09708,0.122227 0.140316,0.187089 0.01934,0.02901 0.025,0.06632 0.04677,0.09354 0.04132,0.05165 0.09797,0.0895 0.140316,0.140316 0.08512,0.102143 0.120542,0.216496 0.187089,0.327406 0.02892,0.0482 0.06462,0.09211 0.09354,0.140317 0.01794,0.02989 0.02743,0.06454 0.04677,0.09354 0.02446,0.03669 0.07382,0.0541 0.09355,0.09354 0.007,0.01394 -0.01103,0.03575 0,0.04677 0.01103,0.01103 0.0398,-0.01394 0.04677,0 0,0.265041 -0.03118,0.01558 0.04677,0.09354 0.01103,0.01103 -0.01103,0.03575 0,0.04677 0.01103,0.01103 0.03575,0.01103 0.04677,0 0.01103,-0.01103 -0.007,-0.03283 0,-0.04677 0.0099,-0.01971 0.03691,-0.02705 0.04677,-0.04677 0.007,-0.01394 -0.0094,-0.0343 0,-0.04677 0.03969,-0.05292 0.09354,-0.09354 0.140317,-0.140317 0.01559,-0.01558 0.03454,-0.02843 0.04677,-0.04677 0.01934,-0.02901 0.02499,-0.06632 0.04677,-0.09354 0.09642,-0.120521 0.226962,-0.210222 0.327405,-0.327406 0.03658,-0.04268 0.05843,-0.09642 0.09354,-0.140317 0.02755,-0.03443 0.06236,-0.06236 0.09355,-0.09354 0.04677,-0.06236 0.09501,-0.123656 0.140316,-0.18709 0.03267,-0.04574 0.0538,-0.100568 0.09354,-0.140316 0.03975,-0.03975 0.09354,-0.06236 0.140316,-0.09354 0.09354,-0.109135 0.184477,-0.220564 0.280633,-0.327406 0.04425,-0.04916 0.09355,-0.09354 0.140317,-0.140316 0.03118,-0.03118 0.07086,-0.05573 0.09354,-0.09354 0.02537,-0.04228 0.01597,-0.101819 0.04677,-0.140316 0.03512,-0.04389 0.09642,-0.05843 0.140317,-0.09354 0.03443,-0.02755 0.066,-0.05911 0.09354,-0.09355 0.03512,-0.04389 0.06236,-0.09354 0.09354,-0.140316 0.07795,-0.09354 0.153677,-0.188995 0.233861,-0.280633 0.05808,-0.06637 0.124726,-0.124725 0.187089,-0.187089 0.09354,-0.09354 0.187089,-0.187087 0.280633,-0.280633 0.06236,-0.06236 0.124726,-0.124725 0.187089,-0.187087 0.01559,-0.01558 0.03118,-0.03118 0.04677,-0.04677 0.01559,-0.01558 0.02705,-0.03691 0.04677,-0.04677 0.01395,-0.007 0.03575,0.01103 0.04677,0 0.01103,-0.01103 -0.007,-0.03283 0,-0.04677 0.0099,-0.01971 0.03118,-0.06236 0.04677,-0.04677 0.01559,0.01558 -0.03118,0.03118 -0.04677,0.04677 0.03118,-0.01558 0.05868,-0.04677 0.09354,-0.04677 0.01559,0 -0.01103,0.03575 0,0.04677 0.01103,0.01103 0.0398,-0.01394 0.04677,0 0.04183,0.0369 -0.02092,0.09848 0,0.140317 0.0099,0.01971 0.03454,0.02843 0.04677,0.04677 0.03868,0.05801 0.05487,0.129077 0.09354,0.18709 0.01223,0.01834 0.03858,0.0263 0.04677,0.04677 0.02387,0.05968 0.0242,0.126899 0.04677,0.187087 0.04888,0.13036 0.168909,0.307284 0.23386,0.420952 0.09738,0.170407 0.161341,0.355436 0.280633,0.514492 0.03969,0.05292 0.099,0.08867 0.140317,0.140317 0.02178,0.02722 0.03118,0.06236 0.04677,0.09354 0.03118,0.06236 0.05767,0.127302 0.09354,0.18709 0.01134,0.01892 0.03354,0.02913 0.04677,0.04677 0.03373,0.04497 0.05982,0.09535 0.09355,0.140316 0.01323,0.01765 0.03543,0.02786 0.04677,0.04677 0.03587,0.05979 0.05767,0.127301 0.09354,0.187089 0.01134,0.01892 0.03354,0.02913 0.04677,0.04677 0.04706,0.06275 0.109226,0.156131 0.140317,0.23386 0.01559,0.04677 0.03118,0.09354 0.04677,0.140317 0.03118,0.01558 0.07561,0.01688 0.09354,0.04677 0.113848,0.189743 -0.01377,0.146492 0.09355,0.280633 0.04677,0.04677 0.09354,0.09354 0.140316,0.140316 0,0.01558 -0.007,0.03283 0,0.04677 0.0099,0.01971 0.0398,0.02585 0.04677,0.04677 0.0099,0.02958 -0.0099,0.06396 0,0.09354 0.04866,0.145992 0.03118,-0.01558 0.09354,0.04677 0.182539,0.182539 -0.01083,0.02511 0.04677,0.140317 0.0099,0.01971 0.02705,0.03691 0.04677,0.04677 0.01394,0.007 0.04677,-0.01558 0.04677,0 0,0.01558 -0.04677,0.01558 -0.04677,0 0,-0.02204 0.03691,-0.02705 0.04677,-0.04677 0.007,-0.01394 -0.007,-0.03283 0,-0.04677 0.0099,-0.01971 0.03691,-0.02705 0.04677,-0.04677 0.007,-0.01394 -0.007,-0.03283 0,-0.04677 0.0099,-0.01971 0.033,-0.02955 0.04677,-0.04677 0.0487,-0.06087 0.09501,-0.123656 0.140316,-0.187087 0.03267,-0.04574 0.06462,-0.09211 0.09354,-0.140316 0.01794,-0.0299 0.025,-0.06632 0.04677,-0.09355 0.06887,-0.08608 0.164992,-0.147775 0.23386,-0.23386 0.03512,-0.04389 0.06236,-0.09354 0.09354,-0.140317 0.04677,-0.04677 0.09797,-0.0895 0.140316,-0.140316 0.03599,-0.04319 0.0538,-0.100568 0.09355,-0.140317 0.243101,-0.243101 0.04872,0.04434 0.233861,-0.187089 0.03512,-0.04389 0.0538,-0.100568 0.09354,-0.140317 0.184099,-0.184099 0.09501,-0.0019 0.23386,-0.187087 0.02093,-0.02789 0.02212,-0.06889 0.04677,-0.09355 0.02466,-0.02466 0.06454,-0.02743 0.09354,-0.04677 0.01834,-0.01222 0.03118,-0.03118 0.04677,-0.04677 0.109135,-0.109135 0.218271,-0.218271 0.327403,-0.327406 0.03118,-0.03118 0.06236,-0.06236 0.09355,-0.09354 0.01558,-0.01558 0.03454,-0.02843 0.04677,-0.04677 0.01934,-0.02901 0.02212,-0.06889 0.04677,-0.09354 0.01103,-0.01103 0.03283,0.007 0.04677,0 0.01971,-0.0099 0.02705,-0.03691 0.04677,-0.04677 0.01394,-0.007 0.03575,0.01103 0.04677,0 0.02466,-0.02466 0.02212,-0.06889 0.04677,-0.09354 0.01103,-0.01103 0.03575,0.01103 0.04677,0 0.01103,-0.01103 -0.01103,-0.03575 0,-0.04677 0.01103,-0.01103 0.03575,0.01103 0.04677,0 0.01103,-0.01103 -0.01103,-0.03575 0,-0.04677 0.01103,-0.01103 0.03575,0.01103 0.04677,0 0.04614,-0.04614 -0.09584,-0.09354 0.04677,-0.09354 0.01558,0 0.03283,-0.007 0.04677,0 0.01971,0.0099 0.03118,0.03118 0.04677,0.04677 0.07142,0.07142 0.03691,0.02705 0.09354,0.140317 0.0527,0.105396 0.103148,0.243464 0.187089,0.327406 0.02466,0.02466 0.07263,0.01889 0.09354,0.04677 0.02958,0.03944 0.02846,0.09454 0.04677,0.140316 0.01294,0.03237 0.02743,0.06454 0.04677,0.09355 0.01222,0.01834 0.03454,0.02842 0.04677,0.04677 0.01934,0.02901 0.02884,0.06365 0.04677,0.09355 0.02892,0.0482 0.07267,0.08812 0.09354,0.140316 0.0494,0.123497 -0.06918,0.07114 0.04677,0.187087 0.03975,0.03975 0.109135,0.04677 0.140316,0.09355 0.03566,0.05349 0.02646,0.126103 0.04677,0.187087 0.01103,0.03307 0.03383,0.06118 0.04677,0.09355 0.01831,0.04578 0.02474,0.09622 0.04677,0.140317 0.04066,0.08131 0.09966,0.152548 0.140316,0.23386 0.02204,0.0441 0.01942,0.0993 0.04677,0.140316 0.03669,0.05504 0.110734,0.08115 0.140317,0.140317 0,0.273944 -0.03307,0.02283 0.09354,0.23386 0.02537,0.04228 0.02471,0.09622 0.04677,0.140316 0.0099,0.01971 0.03691,0.02705 0.04677,0.04677 0.02204,0.0441 0.02474,0.09622 0.04677,0.140317 0.01971,0.03944 0.07382,0.0541 0.09354,0.09354 0.01394,0.02789 -0.02204,0.0715 0,0.09355 0.01103,0.01103 0.03575,-0.01103 0.04677,0 0.01103,0.01103 -0.01103,0.03575 0,0.04677 0.01103,0.01103 0.03575,0.01103 0.04677,0 0.01103,-0.01103 -0.007,-0.03283 0,-0.04677 0.0099,-0.01971 0.03454,-0.02843 0.04677,-0.04677 0.01934,-0.02901 0.03118,-0.06236 0.04677,-0.09354 0.01558,-0.03118 0.03382,-0.06118 0.04677,-0.09355 0.01831,-0.04578 0.02471,-0.09622 0.04677,-0.140317 0.02513,-0.05028 0.0714,-0.08865 0.09355,-0.140316 0.02532,-0.05908 0.01802,-0.129593 0.04677,-0.187087 0.04792,-0.09583 0.188029,-0.220464 0.233863,-0.327406 0.02532,-0.05908 0.01487,-0.131276 0.04677,-0.18709 0.03282,-0.05743 0.099,-0.08866 0.140317,-0.140316 0.02177,-0.02722 0.03118,-0.06236 0.04677,-0.09354 0.03118,-0.06236 0.05487,-0.129074 0.09354,-0.187089 0.02445,-0.03669 0.06909,-0.05685 0.09355,-0.09354 0.03868,-0.05801 0.05487,-0.129074 0.09354,-0.187089 0.02445,-0.03669 0.06908,-0.05685 0.09354,-0.09354 0.03868,-0.05802 0.05487,-0.129074 0.09355,-0.187089 0.02445,-0.03669 0.07086,-0.05573 0.09354,-0.09354 0.02537,-0.04228 0.0172,-0.100875 0.04677,-0.140316 0.02093,-0.02789 0.06889,-0.02212 0.09354,-0.04677 0.02466,-0.02466 0.02585,-0.06565 0.04677,-0.09354 0.02646,-0.03528 0.06709,-0.05827 0.09354,-0.09354 0.02093,-0.02789 0.02212,-0.0689 0.04677,-0.09355 0.01103,-0.01103 0.03575,0.01103 0.04677,0 0.0312,-0.0312 -0.0312,-0.06234 0,-0.09354 0.05697,-0.05697 0.1045,-0.02191 0.140317,-0.09355 0.03226,-0.06451 -0.05664,-0.04183 0.04677,-0.09354 0.01394,-0.007 0.03283,0.007 0.04677,0 0.01217,-0.0061 0.05698,-0.08334 0.09354,-0.04677 0.01103,0.01103 -0.007,0.03283 0,0.04677 0.02072,0.04146 0.111932,0.09774 0.140317,0.140317 0.169563,0.339127 -0.0493,-0.07395 0.09354,0.140316 0.03868,0.05802 0.05171,0.13131 0.09355,0.187089 0.02646,0.03528 0.066,0.05911 0.09354,0.09354 0.03512,0.04389 0.06087,0.09458 0.09354,0.140316 0.04531,0.06343 0.09708,0.122227 0.140317,0.18709 0.01934,0.02901 0.025,0.06632 0.04677,0.09354 0.04132,0.05165 0.101869,0.08649 0.140316,0.140317 0.04053,0.05674 0.05487,0.129074 0.09354,0.187089 0.02445,0.03669 0.06709,0.05827 0.09355,0.09354 0.0209,0.02789 0.02585,0.06566 0.04677,0.09355 0.02646,0.03528 0.07382,0.0541 0.09355,0.09354 0.02875,0.0575 0.01802,0.129593 0.04677,0.18709 0.01971,0.03944 0.06709,0.05827 0.09355,0.09354 0.0209,0.02789 0.03118,0.06236 0.04677,0.09354 0.03118,0.04677 0.05843,0.09642 0.09355,0.140316 0.02755,0.03444 0.07382,0.0541 0.09354,0.09355 0.02875,0.05749 0.01802,0.129593 0.04677,0.187087 0.01971,0.03944 0.07382,0.0541 0.09354,0.09355 0.01394,0.02789 0,0.06236 0,0.09354 0.03118,0.03118 0.07086,0.05573 0.09354,0.09354 0.0274,0.04566 0.04622,0.186537 0.09355,0.233863 0.02466,0.02466 0.07421,0.01775 0.09354,0.04677 0.0173,0.02596 -0.0099,0.06396 0,0.09355 0.007,0.0209 0.03691,0.02705 0.04677,0.04677 0.007,0.01394 -0.007,0.03283 0,0.04677 0.0099,0.01971 0.03118,0.03118 0.04677,0.04677 0.01558,0.01558 0.02705,0.03691 0.04677,0.04677 0.07484,0.03742 0.0343,-0.02183 0.04677,-0.04677 0.0099,-0.01971 0.03118,-0.03118 0.04677,-0.04677 0.01558,-0.01558 0.03454,-0.02843 0.04677,-0.04677 0.03868,-0.05801 0.05171,-0.131308 0.09355,-0.187087 0.02646,-0.03528 0.06236,-0.06236 0.09354,-0.09355 0.03118,-0.06236 0.05302,-0.130353 0.09354,-0.187087 0.207878,-0.291029 0.07622,-0.04851 0.187089,-0.18709 0.0487,-0.06087 0.0852,-0.131966 0.140317,-0.187089 0.05512,-0.05512 0.13839,-0.07944 0.187089,-0.140317 0.01947,-0.02434 -0.01947,-0.06919 0,-0.09354 0.505339,-0.631674 -0.02811,0.177792 0.280633,-0.23386 0.0209,-0.02789 0.02585,-0.06566 0.04677,-0.09355 0.05976,-0.07968 0.127325,-0.107403 0.187089,-0.187087 0.04183,-0.05578 0.05487,-0.129077 0.09354,-0.18709 0.04075,-0.06113 0.140837,-0.12542 0.187089,-0.187089 0.03373,-0.04497 0.05982,-0.09534 0.09354,-0.140317 0.07016,-0.09354 0.04677,0 0.140316,-0.140316 0.0087,-0.01297 -0.0087,-0.0338 0,-0.04677 0.02307,-0.03459 0.167852,-0.148613 0.18709,-0.187089 0.007,-0.01394 -0.01103,-0.03575 0,-0.04677 0.01103,-0.01103 0.03283,0.007 0.04677,0 0.194654,-0.09733 -0.05,0.0032 0.04677,-0.09354 0.01103,-0.01103 0.03575,0.01103 0.04677,0 0.01103,-0.01103 -0.01103,-0.03575 0,-0.04677 0.01103,-0.01103 0.03575,0.01103 0.04677,0 0.01103,-0.01103 -0.007,-0.03283 0,-0.04677 0.0099,-0.01971 0.03118,-0.06236 0.04677,-0.04677 0.02204,0.02204 -0.01394,0.06565 0,0.09354 0.007,0.01394 0.03575,-0.01103 0.04677,0 0.01384,0.01384 -0.0145,0.158118 0,0.18709 0.0099,0.01971 0.03691,0.02705 0.04677,0.04677 0.007,0.01394 -0.01103,0.03575 0,0.04677 0.01103,0.01103 0.03575,-0.01103 0.04677,0 0.01281,0.01281 -0.01267,0.161716 0,0.18709 0.07132,0.142634 0.03708,-0.08554 0.09355,0.140316 0.01513,0.0605 -0.01513,0.126588 0,0.18709 0.0084,0.03382 0.03832,0.05972 0.04677,0.09354 0.0076,0.03025 -0.0099,0.06396 0,0.09354 0.007,0.02093 0.0398,0.02585 0.04677,0.04677 0.01254,0.03766 -0.01342,0.253778 0,0.280633 0.0099,0.01971 0.03691,0.02705 0.04677,0.04677 0.01492,0.02984 -0.01439,0.205092 0,0.23386 0.007,0.01394 0.0398,-0.01394 0.04677,0 0.01394,0.02789 0,0.06236 0,0.09354 0,0.09355 0,0.18709 0,0.280633 0,0.06714 -0.0123,0.23141 0,0.280633 0.0053,0.02138 0.0398,0.02585 0.04677,0.04677 0.0099,0.02958 0,0.06236 0,0.09354 0,0.05414 -0.01045,0.192103 0,0.233862 0.0085,0.03382 0.03994,0.05936 0.04677,0.09354 0.0092,0.04586 0,0.09354 0,0.140316 0,0.109135 0,0.218271 0,0.327406 0,0.311814 0,0.623628 0,0.935442 0,0.06236 0,0.124728 0,0.18709 0,0.03118 -0.0076,0.06329 0,0.09354 0.01196,0.04783 0.03481,0.09249 0.04677,0.140317 0.01058,0.04228 0,0.225663 0,0.280633 0,0.280633 0,0.561266 0,0.841899 0,0.265043 0,0.530084 0,0.795128 0,0.01558 -0.01103,0.03575 0,0.04677 0.01103,0.01103 0.03575,-0.01103 0.04677,0 0.01103,0.01103 0.01103,0.03575 0,0.04677 -0.01103,0.01103 -0.03283,0.007 -0.04677,0 -0.103415,-0.05171 -0.0145,-0.02903 -0.04677,-0.09354 -0.01971,-0.03944 -0.06709,-0.05827 -0.09355,-0.09355 -0.03373,-0.04497 -0.05756,-0.09713 -0.09354,-0.140316 -0.05646,-0.06775 -0.124725,-0.124725 -0.18709,-0.187087 -0.04677,-0.04677 -0.09354,-0.09355 -0.140316,-0.140317 -0.03118,-0.03118 -0.05827,-0.06709 -0.09354,-0.09355 -0.02789,-0.0209 -0.06565,-0.02585 -0.09354,-0.04677 -0.07056,-0.05292 -0.113708,-0.138168 -0.18709,-0.18709 -0.01296,-0.0087 -0.03118,0 -0.04677,0 -0.04677,-0.03118 -0.09534,-0.05982 -0.140316,-0.09354 -0.01765,-0.01323 -0.02843,-0.03454 -0.04677,-0.04677 -0.103518,-0.06901 -0.106169,-0.01894 -0.187089,-0.140317 -0.0087,-0.01296 0.01103,-0.03575 0,-0.04677 -0.02466,-0.02466 -0.06889,-0.02212 -0.09354,-0.04677 -0.02466,-0.02466 -0.02743,-0.06454 -0.04677,-0.09355 -0.01222,-0.01834 -0.03691,-0.02705 -0.04677,-0.04677 -0.007,-0.01394 0.007,-0.03283 0,-0.04677 -0.0099,-0.01971 -0.03454,-0.02843 -0.04677,-0.04677 -0.01934,-0.02901 -0.02212,-0.06889 -0.04677,-0.09354 -0.01103,-0.01103 -0.0398,0.01394 -0.04677,0 -0.0741,-0.148199 0.09679,-0.04353 -0.04677,-0.18709 -0.02466,-0.02466 -0.07421,-0.01775 -0.09355,-0.04677 -0.0173,-0.02596 0.01871,-0.0686 0,-0.09354 -0.03373,-0.04497 -0.09535,-0.05982 -0.140316,-0.09354 -0.143269,-0.107452 0.07669,0.02992 -0.09354,-0.140316 -0.02466,-0.02466 -0.06889,-0.02212 -0.09354,-0.04677 -0.03975,-0.03975 -0.0538,-0.100568 -0.09355,-0.140317 -0.02466,-0.02466 -0.06889,-0.02212 -0.09354,-0.04677 -0.02466,-0.02466 -0.02212,-0.06889 -0.04677,-0.09354 -0.01103,-0.01103 -0.03283,0.007 -0.04677,0 -0.01971,-0.0099 -0.03118,-0.03118 -0.04677,-0.04677 -0.01558,-0.01558 -0.03691,-0.02705 -0.04677,-0.04677 -0.007,-0.01394 0.01103,-0.03575 0,-0.04677 -0.01103,-0.01103 -0.03575,0.01103 -0.04677,0 -0.01103,-0.01103 0.01103,-0.03575 0,-0.04677 -0.01103,-0.01103 -0.03575,0.01103 -0.04677,0 -0.01103,-0.01103 0.007,-0.03283 0,-0.04677 -0.0099,-0.01971 -0.03691,-0.02705 -0.04677,-0.04677 -0.007,-0.01394 0.01103,-0.03575 0,-0.04677 -0.01103,-0.01103 -0.03575,-0.01103 -0.04677,0 -0.01437,0.01437 0.0087,0.152373 0,0.187089 0.02819,0.08466 -0.07577,0.08699 -0.09355,0.140317 -0.0099,0.02958 0.0099,0.06396 0,0.09354 -0.007,0.02093 -0.0398,0.02585 -0.04677,0.04677 -0.0099,0.02958 0.0099,0.06396 0,0.09354 -0.01394,0.04184 -0.07382,0.0541 -0.09355,0.09355 -0.007,0.01394 0.0087,0.0338 0,0.04677 -0.233076,0.23308 -0.04811,0.004 -0.09354,0.140317 -0.06282,0.188455 -0.07955,0.01879 -0.140317,0.140316 -0.007,0.01394 0,0.03118 0,0.04677 -0.01558,0.03118 -0.02743,0.06454 -0.04677,0.09354 -0.01222,0.01834 -0.03454,0.02843 -0.04677,0.04677 -0.01934,0.02901 -0.02743,0.06454 -0.04677,0.09354 -0.02445,0.03669 -0.06909,0.05685 -0.09355,0.09355 -0.01934,0.02901 -0.02212,0.06889 -0.04677,0.09354 -0.01103,0.01103 -0.03575,-0.01103 -0.04677,0 -0.03975,0.03975 -0.05982,0.09535 -0.09354,0.140316 -0.03969,0.05292 -0.100629,0.0874 -0.140316,0.140317 -0.02093,0.02789 -0.02744,0.06454 -0.04677,0.09355 -0.01222,0.01834 -0.03118,0.03118 -0.04677,0.04677 -0.04677,0.04677 -0.09899,0.08866 -0.140316,0.140317 -0.02178,0.02722 -0.02212,0.06889 -0.04677,0.09355 -0.02466,0.02466 -0.06632,0.025 -0.09355,0.04677 -0.09282,0.07426 -0.185103,0.208987 -0.280633,0.280633 -0.02789,0.02093 -0.06454,0.02743 -0.09354,0.04677 -0.09266,-0.0047 -0.02212,0.06889 -0.04677,0.09354 -0.02466,0.02466 -0.06889,0.02212 -0.09354,0.04677 -0.01103,0.01103 0.01103,0.03575 0,0.04677 -0.02466,0.02466 -0.06454,0.02743 -0.09354,0.04677 -0.116342,0.07756 -0.0054,0.01074 -0.04677,0.09355 -0.09733,0.194654 0.0032,-0.05 -0.09354,0.04677 -0.01103,0.01103 0.007,0.03283 0,0.04677 -0.0099,0.01971 -0.03691,0.02705 -0.04677,0.04677 -0.007,0.01394 0.01103,0.03575 0,0.04677 -0.01103,0.01103 -0.03575,-0.01103 -0.04677,0 -0.02466,0.02466 -0.02212,0.06889 -0.04677,0.09355 -0.01103,0.01103 -0.03575,-0.01103 -0.04677,0 -0.01103,0.01103 0.007,0.03283 0,0.04677 -0.0099,0.01971 -0.03118,0.03118 -0.04677,0.04677 -0.01558,0.01558 -0.02471,0.04677 -0.04677,0.04677 -0.01558,0 0.007,-0.03283 0,-0.04677 -0.06882,-0.137641 -0.04677,0.07261 -0.04677,-0.140316 0,-0.310248 0.02204,0.06615 -0.04677,-0.140317 -0.0099,-0.02958 0,-0.06236 0,-0.09354 0,-0.04677 0.0077,-0.09418 0,-0.140316 -0.01622,-0.09726 -0.06963,-0.184973 -0.09354,-0.280633 -0.0038,-0.01514 0.0049,-0.03198 0,-0.04677 -0.01103,-0.03307 -0.03575,-0.06047 -0.04677,-0.09354 -0.0049,-0.01479 0,-0.03118 0,-0.04677 0,-0.03118 0.0051,-0.06279 0,-0.09354 -0.09328,-0.559687 0.01281,-0.02117 -0.09354,-0.233863 -0.007,-0.01394 0,-0.03118 0,-0.04677 0,-0.03118 0.0076,-0.0633 0,-0.09355 -0.05646,-0.225859 -0.02222,0.0024 -0.09354,-0.140317 -0.007,-0.01394 0,-0.03118 0,-0.04677 -0.01558,-0.03118 -0.02743,-0.06454 -0.04677,-0.09355 -0.01222,-0.01834 -0.03118,-0.03118 -0.04677,-0.04677 -0.01558,-0.03118 -0.02743,-0.06454 -0.04677,-0.09355 -0.01222,-0.01834 -0.03691,-0.02705 -0.04677,-0.04677 -0.007,-0.01394 0.007,-0.03283 0,-0.04677 -0.01971,-0.03944 -0.07382,-0.0541 -0.09354,-0.09355 -0.007,-0.01394 0.007,-0.03283 0,-0.04677 -0.0099,-0.01971 -0.03691,-0.02705 -0.04677,-0.04677 -0.007,-0.01394 0.01103,-0.03575 0,-0.04677 -0.01103,-0.01103 -0.03575,0.01103 -0.04677,0 -0.01103,-0.01103 0.01103,-0.03575 0,-0.04677 -0.01103,-0.01103 -0.03575,0.01103 -0.04677,0 -0.02204,-0.02204 0.02204,-0.0715 0,-0.09355 -0.01103,-0.01103 -0.03575,0.01103 -0.04677,0 -0.01103,-0.01103 0.01103,-0.03575 0,-0.04677 -0.01103,-0.01103 -0.03575,0.01103 -0.04677,0 -0.01103,-0.01103 0.007,-0.03283 0,-0.04677 -0.0099,-0.01971 -0.03691,-0.02705 -0.04677,-0.04677 -0.007,-0.01394 0.007,-0.03283 0,-0.04677 -0.09733,-0.194654 0.0032,0.05 -0.09355,-0.04677 -0.01103,-0.01103 0.01103,-0.03575 0,-0.04677 -0.01103,-0.01103 -0.03575,0.01103 -0.04677,0 -0.02204,-0.02204 0.02204,-0.0715 0,-0.09354 -0.124727,0 0.01558,0.01558 -0.04677,-0.04677 -0.01103,-0.01103 -0.03118,0 -0.04677,0 -0.01558,0 -0.0398,-0.01394 -0.04677,0 -0.04184,0.0369 0.0209,0.09848 0,0.140317 -0.0099,0.01971 -0.03454,0.02843 -0.04677,0.04677 -0.169563,0.339127 0.0493,-0.07395 -0.09354,0.140316 -0.01934,0.02901 -0.03118,0.06236 -0.04677,0.09354 0,0.03118 0.0173,0.0676 0,0.09355 -0.01934,0.02901 -0.06889,0.02212 -0.09354,0.04677 -0.02466,0.02466 -0.02744,0.06454 -0.04677,0.09355 -0.03598,0.05397 -0.104339,0.08635 -0.140317,0.140317 -0.01934,0.02901 -0.02744,0.06454 -0.04677,0.09354 -0.02445,0.03669 -0.06236,0.06236 -0.09354,0.09355 -0.143058,0.143058 0.07635,-0.08621 -0.09354,0.140317 -0.02646,0.03528 -0.06908,0.05685 -0.09355,0.09354 -0.0087,0.01297 0.0087,0.0338 0,0.04677 -0.202303,0.202303 -0.0073,-0.01238 -0.140316,0.187087 -0.04677,0.07016 -0.09354,0.04677 -0.140317,0.140317 -0.02875,0.0575 -0.01371,0.131968 -0.04677,0.187089 -0.01794,0.02989 -0.06889,0.02212 -0.09355,0.04677 -0.02466,0.02466 -0.02744,0.06454 -0.04677,0.09354 -0.01222,0.01834 -0.0398,0.02585 -0.04677,0.04677 -0.0099,0.02958 0.0173,0.0676 0,0.09354 -0.01934,0.02901 -0.07421,0.01775 -0.09354,0.04677 -0.0173,0.02596 0.0099,0.06396 0,0.09354 -0.01394,0.04183 -0.07382,0.0541 -0.09355,0.09354 -0.007,0.01394 0.007,0.03283 0,0.04677 -0.0099,0.01971 -0.03454,0.02843 -0.04677,0.04677 -0.103047,0.02355 -0.02471,0.09622 -0.04677,0.140317 -0.0099,0.01971 -0.03454,0.02843 -0.04677,0.04677 -0.103047,0.02355 -0.02471,0.09622 -0.04677,0.140316 -0.0099,0.01971 -0.03691,0.02705 -0.04677,0.04677 -0.01394,0.02789 0.02204,0.0715 0,0.09354 -0.0042,0.0042 -0.139118,0.0024 -0.140317,0 -0.01394,-0.02789 0.0099,-0.06396 0,-0.09354 -0.007,-0.02093 -0.03454,-0.02843 -0.04677,-0.04677 -0.01934,-0.02901 -0.02743,-0.06454 -0.04677,-0.09354 -0.02445,-0.03669 -0.0796,-0.05171 -0.09354,-0.09354 -0.0099,-0.02958 0.0099,-0.06396 0,-0.09355 -0.01394,-0.04183 -0.06908,-0.05685 -0.09354,-0.09354 -0.01934,-0.02901 -0.02743,-0.06454 -0.04677,-0.09354 -0.03598,-0.05397 -0.104338,-0.08635 -0.140316,-0.140317 -0.0087,-0.01296 0.0087,-0.0338 0,-0.04677 -0.02445,-0.03669 -0.06908,-0.05685 -0.09354,-0.09354 -0.0087,-0.01297 0.01103,-0.03575 0,-0.04677 -0.02466,-0.02466 -0.07421,-0.01775 -0.09355,-0.04677 -0.0173,-0.02596 0.0099,-0.06396 0,-0.09354 -0.007,-0.02093 -0.03118,-0.03118 -0.04677,-0.04677 -0.03118,-0.03118 -0.06709,-0.05827 -0.09355,-0.09354 -0.0209,-0.02789 -0.02743,-0.06454 -0.04677,-0.09354 -0.01222,-0.01834 -0.03454,-0.02843 -0.04677,-0.04677 -0.01934,-0.02901 -0.02585,-0.06566 -0.04677,-0.09354 -0.02646,-0.03528 -0.06708,-0.05827 -0.09354,-0.09355 -0.02093,-0.02789 -0.02585,-0.06565 -0.04677,-0.09354 -0.02646,-0.03528 -0.06908,-0.05685 -0.09354,-0.09354 -0.0087,-0.01297 0.007,-0.03283 0,-0.04677 -0.0099,-0.01971 -0.03691,-0.02705 -0.04677,-0.04677 -0.007,-0.01394 0.01103,-0.03575 0,-0.04677 -0.02466,-0.02466 -0.06889,-0.02212 -0.09354,-0.04677 -0.01103,-0.01103 0.007,-0.03283 0,-0.04677 -0.0045,-0.0089 -0.178136,-0.182613 -0.18709,-0.187089 -0.01394,-0.007 -0.03575,0.01103 -0.04677,0 -0.01103,-0.01103 0.01103,-0.03575 0,-0.04677 -0.01103,-0.01103 -0.03118,0 -0.04677,0 -0.01558,-0.03118 -0.02212,-0.0689 -0.04677,-0.09355 -0.01103,-0.01103 -0.03198,0.0049 -0.04677,0 -0.03307,-0.01103 -0.06047,-0.03575 -0.09355,-0.04677 -0.01479,-0.0049 -0.03283,0.007 -0.04677,0 -0.220867,-0.110435 0.285479,0.02461 -0.187088,-0.09355 -0.174968,-0.04374 0.202117,0.134747 -0.140317,-0.09354 -0.01939,-0.01294 -0.160852,0.01312 -0.187089,0 -0.01972,-0.0099 -0.02585,-0.0398 -0.04677,-0.04677 -0.02958,-0.0099 -0.06565,0.01394 -0.09354,0 -0.01394,-0.007 0.01103,-0.03575 0,-0.04677 -0.01103,-0.01103 -0.03575,-0.01103 -0.04677,0 -0.01103,0.01103 0,0.03118 0,0.04677 0,0.02498 0.0067,0.220475 0,0.233863 -0.0099,0.01971 -0.0398,0.02585 -0.04677,0.04677 -0.0099,0.02958 0,0.06236 0,0.09355 0,0.01558 0.007,0.03283 0,0.04677 -0.0099,0.01971 -0.03691,0.02705 -0.04677,0.04677 -0.007,0.01394 0.007,0.03283 0,0.04677 -0.0099,0.01971 -0.0398,0.02585 -0.04677,0.04677 -0.0099,0.02958 0.0099,0.06396 0,0.09355 -0.01395,0.04183 -0.08285,0.05076 -0.09354,0.09354 -0.01134,0.04538 0.01134,0.09494 0,0.140316 -0.01069,0.04278 -0.07382,0.0541 -0.09354,0.09355 -0.142612,0.03311 -0.01802,0.129593 -0.04677,0.187087 -0.0099,0.01971 -0.03691,0.02705 -0.04677,0.04677 -0.02205,0.0441 -0.02846,0.09454 -0.04677,0.140317 -0.01295,0.03237 -0.03575,0.06047 -0.04677,0.09354 -0.0049,0.01479 0.007,0.03283 0,0.04677 -0.01972,0.03944 -0.06908,0.05685 -0.09354,0.09354 -0.03868,0.05802 -0.05487,0.129074 -0.09354,0.187089 -0.01223,0.01834 -0.03118,0.03118 -0.04677,0.04677 -0.01559,0.03118 -0.02743,0.06454 -0.04677,0.09354 -0.02446,0.03669 -0.06908,0.05685 -0.09354,0.09354 -0.01934,0.02901 -0.02743,0.06454 -0.04677,0.09355 -0.01223,0.01834 -0.03454,0.02843 -0.04677,0.04677 -0.01934,0.02901 -0.03118,0.06236 -0.04677,0.09355 -0.01559,0.03118 -0.03575,0.06047 -0.04677,0.09354 -0.0049,0.01479 0.007,0.03283 0,0.04677 -0.01972,0.03944 -0.07382,0.0541 -0.09354,0.09354 -0.007,0.01394 0.007,0.03283 0,0.04677 -0.0099,0.01971 -0.03691,0.02705 -0.04677,0.04677 -0.01394,0.02789 0.02205,0.0715 0,0.09355 -0.01102,0.01103 -0.03575,-0.01103 -0.04677,0 -0.01103,0.01103 0.01103,0.03575 0,0.04677 -0.01103,0.01103 -0.03575,0.01103 -0.04677,0 -0.01103,-0.01103 0.007,-0.03283 0,-0.04677 -0.0099,-0.01971 -0.03691,-0.02705 -0.04677,-0.04677 -0.01394,-0.02789 0.02205,-0.0715 0,-0.09354 -0.01103,-0.01103 -0.0398,0.01394 -0.04677,0 -0.01871,-0.03742 0.01871,-0.102899 0,-0.140316 -0.0099,-0.01971 -0.03691,-0.02705 -0.04677,-0.04677 -0.007,-0.01394 0.01103,-0.03575 0,-0.04677 -0.01103,-0.01103 -0.03575,0.01103 -0.04677,0 -0.02205,-0.02204 0.01395,-0.06565 0,-0.09354 -0.0099,-0.01971 -0.03691,-0.02705 -0.04677,-0.04677 -0.01394,-0.02789 0.01394,-0.06565 0,-0.09354 -0.0099,-0.01971 -0.03691,-0.02705 -0.04677,-0.04677 -0.007,-0.01394 0,-0.03118 0,-0.04677 -0.01559,-0.01558 -0.03691,-0.02705 -0.04677,-0.04677 -0.007,-0.01394 0.007,-0.03283 0,-0.04677 -0.0099,-0.01971 -0.03691,-0.02705 -0.04677,-0.04677 -0.007,-0.01394 0,-0.03118 0,-0.04677 0,-0.03118 0.0076,-0.06329 0,-0.09354 -0.01559,-0.03118 -0.03118,-0.06236 -0.04677,-0.09355 -0.01559,0 -0.0398,0.01394 -0.04677,0 -0.01394,-0.02789 0.0076,-0.06329 0,-0.09354 -0.0085,-0.03382 -0.03575,-0.06047 -0.04677,-0.09354 -0.0049,-0.01479 0.007,-0.03283 0,-0.04677 -0.107029,-0.214059 0.01939,0.198474 -0.09354,-0.140317 -0.0049,-0.01479 0.007,-0.03283 0,-0.04677 -0.01972,-0.03944 -0.07382,-0.0541 -0.09354,-0.09354 -0.007,-0.01394 0,-0.03118 0,-0.04677 -0.01559,-0.01558 -0.03691,-0.02705 -0.04677,-0.04677 -0.007,-0.01394 0.0086,-0.0338 0,-0.04677 -0.02446,-0.03669 -0.06708,-0.05827 -0.09354,-0.09354 -0.04183,-0.05578 -0.05487,-0.129077 -0.09354,-0.18709 -0.07135,-0.107029 -0.03702,0.02925 -0.09355,-0.140316 -0.0049,-0.01479 0.01103,-0.03575 0,-0.04677 -0.01103,-0.01103 -0.03575,0.01103 -0.04677,0 -0.0312,-0.0312 0.0312,-0.06234 0,-0.09354 -0.01103,-0.01103 -0.03283,0.007 -0.04677,0 -0.194655,-0.09733 0.05,0.0032 -0.04677,-0.09355 -0.01103,-0.01103 -0.03575,0.01103 -0.04677,0 -0.02205,-0.02204 0.02205,-0.07149 0,-0.09354 -0.124726,0 0.01559,0.01558 -0.04677,-0.04677 -0.01103,-0.01103 -0.03118,0 -0.04677,0 -0.01559,0 -0.03575,-0.01103 -0.04677,0 -0.01103,0.01103 0.007,0.03283 0,0.04677 -0.0099,0.01971 -0.03691,0.02705 -0.04677,0.04677 -0.007,0.01394 0,0.03118 0,0.04677 -0.01559,0.01558 -0.03454,0.02843 -0.04677,0.04677 -0.01934,0.02901 -0.03575,0.06047 -0.04677,0.09354 -0.0049,0.01479 0.0086,0.0338 0,0.04677 -0.02446,0.03669 -0.06709,0.05827 -0.09355,0.09354 -0.06174,0.08232 -0.07858,0.198316 -0.140316,0.280636 -0.02646,0.03528 -0.06908,0.05685 -0.09354,0.09354 -0.0086,0.01297 0,0.03118 0,0.04677 -0.01559,0.03118 -0.02212,0.06889 -0.04677,0.09354 -0.02465,0.02466 -0.06889,0.02212 -0.09354,0.04677 -0.02465,0.02466 -0.02743,0.06454 -0.04677,0.09354 -0.02446,0.03669 -0.06908,0.05685 -0.09354,0.09354 -0.01934,0.02901 -0.02744,0.06454 -0.04677,0.09355 -0.01223,0.01834 -0.03454,0.02842 -0.04677,0.04677 -0.01934,0.02901 -0.02743,0.06454 -0.04677,0.09355 0.03126,0.06606 -0.0877,0.04093 -0.09354,0.04677 -0.01103,0.01103 0.007,0.03283 0,0.04677 -0.0099,0.01971 -0.03691,0.02705 -0.04677,0.04677 -0.007,0.01394 0.007,0.03283 0,0.04677 -0.0099,0.01971 -0.03454,0.02843 -0.04677,0.04677 -0.01934,0.02901 -0.02743,0.06454 -0.04677,0.09354 -0.03598,0.05397 -0.104338,0.08635 -0.140316,0.140316 -0.0087,0.01297 0.007,0.03283 0,0.04677 -0.0099,0.01971 -0.03691,0.02705 -0.04677,0.04677 -0.007,0.01394 0.01103,0.03575 0,0.04677 -0.02465,0.02466 -0.06454,0.02743 -0.09354,0.04677 -0.116343,0.07756 -0.0054,0.01074 -0.04677,0.09354 -0.0099,0.01971 -0.03454,0.02843 -0.04677,0.04677 -0.01934,0.02901 -0.02743,0.06454 -0.04677,0.09354 0.0047,0.09266 -0.06889,0.02212 -0.09354,0.04677 -0.01103,0.01103 0.007,0.03283 0,0.04677 -0.0099,0.01971 -0.03691,0.02705 -0.04677,0.04677 -0.01395,0.02789 0.02205,0.0715 0,0.09355 -0.01103,0.01103 -0.03575,-0.01103 -0.04677,0 -0.02205,0.02204 0.02205,0.0715 0,0.09354 -0.01103,0.01103 -0.03575,-0.01103 -0.04677,0 -0.01103,0.01103 0.01103,0.03575 0,0.04677 -0.01103,0.01103 -0.03575,-0.01103 -0.04677,0 -0.01103,0.01103 0.01102,0.03575 0,0.04677 -0.01103,0.01103 -0.03118,0 -0.04677,0 -0.01559,0 -0.03118,0 -0.04677,0 -0.01559,0 -0.03118,0 -0.04677,0 -0.01559,0 -0.03575,0.01103 -0.04677,0 -0.01103,-0.01103 0.007,-0.03283 0,-0.04677 -0.0099,-0.01971 -0.03691,-0.02705 -0.04677,-0.04677 -0.007,-0.01394 0.01103,-0.03575 0,-0.04677 -0.02465,-0.02466 -0.07421,-0.01775 -0.09354,-0.04677 -0.0173,-0.02596 0.0099,-0.06396 0,-0.09355 -0.007,-0.0209 -0.033,-0.02955 -0.04677,-0.04677 -0.0487,-0.06087 -0.109609,-0.115437 -0.140316,-0.187089 -0.01843,-0.04299 0.01134,-0.09494 0,-0.140317 -0.01069,-0.04278 -0.07382,-0.0541 -0.09354,-0.09354 -0.02504,-0.05007 0.0405,-0.09982 -0.04677,-0.187089 -0.01103,-0.01103 -0.03575,0.01103 -0.04677,0 -0.02205,-0.02204 0.01395,-0.06565 0,-0.09354 -0.0099,-0.01971 -0.03691,-0.02705 -0.04677,-0.04677 -0.01871,-0.03742 0.01871,-0.102899 0,-0.140316 -0.01972,-0.03944 -0.07382,-0.0541 -0.09354,-0.09354 -0.01871,-0.03742 0.01871,-0.102899 0,-0.140316 -0.007,-0.01394 -0.03575,0.01103 -0.04677,0 -0.02205,-0.02204 0.01395,-0.06566 0,-0.09355 -0.0099,-0.01971 -0.03691,-0.02705 -0.04677,-0.04677 -0.007,-0.01394 0.01103,-0.03575 0,-0.04677 -0.01103,-0.01103 -0.03575,0.01103 -0.04677,0 -0.02205,-0.02204 0.02205,-0.0715 0,-0.09354 -0.01103,-0.01103 -0.03575,0.01103 -0.04677,0 -0.02205,-0.02204 0.02205,-0.0715 0,-0.09355 -0.01103,-0.01103 -0.03575,0.01103 -0.04677,0 -0.01103,-0.01103 0.01103,-0.03575 0,-0.04677 -0.01103,-0.01103 -0.03575,0.01103 -0.04677,0 -0.02205,-0.02204 0.01395,-0.06566 0,-0.09355 -0.09733,-0.194654 0.0032,0.05 -0.09354,-0.04677 -0.01103,-0.01103 0.01103,-0.03575 0,-0.04677 -0.01103,-0.01103 -0.03575,0.01103 -0.04677,0 -0.02205,-0.02204 0.01395,-0.06566 0,-0.09354 -0.01972,-0.03944 -0.07382,-0.0541 -0.09354,-0.09355 -0.007,-0.01394 0.01103,-0.03575 0,-0.04677 -0.01103,-0.01103 -0.03575,0.01103 -0.04677,0 -0.01103,-0.01103 0.007,-0.03283 0,-0.04677 -0.0099,-0.01971 -0.03691,-0.02705 -0.04677,-0.04677 -0.007,-0.01394 0.007,-0.03283 0,-0.04677 -0.0099,-0.01971 -0.03691,-0.02705 -0.04677,-0.04677 -0.007,-0.01394 0.01103,-0.03575 0,-0.04677 -0.01103,-0.01103 -0.03575,-0.01103 -0.04677,0 -0.01103,0.01103 0.01103,0.03575 0,0.04677 -0.01103,0.01103 -0.03575,-0.01103 -0.04677,0 -0.01103,0.01103 0.007,0.03283 0,0.04677 -0.0099,0.01971 -0.03691,0.02705 -0.04677,0.04677 -0.06882,0.137641 0.108351,-0.06158 -0.04677,0.09354 -0.01559,0.01558 -0.02705,0.03691 -0.04677,0.04677 -0.01395,0.007 -0.03575,-0.01103 -0.04677,0 -0.02465,0.02466 -0.02743,0.06454 -0.04677,0.09355 -0.01223,0.01834 -0.03691,0.02705 -0.04677,0.04677 -0.007,0.01394 0.01103,0.03575 0,0.04677 -0.01103,0.01103 -0.03575,-0.01103 -0.04677,0 -0.01103,0.01103 0.007,0.03283 0,0.04677 -0.02806,0.05613 -0.112253,0.08419 -0.140317,0.140316 -0.007,0.01394 0.01103,0.03575 0,0.04677 -0.02465,0.02466 -0.06889,0.02212 -0.09354,0.04677 -0.01103,0.01103 0.01103,0.03575 0,0.04677 -0.02465,0.02466 -0.06889,0.02212 -0.09354,0.04677 -0.02465,0.02466 -0.02743,0.06454 -0.04677,0.09355 -0.01223,0.01834 -0.03691,0.02705 -0.04677,0.04677 -0.007,0.01394 0.01103,0.03575 0,0.04677 -0.01103,0.01103 -0.03575,-0.01103 -0.04677,0 -0.01103,0.01103 0.01103,0.03575 0,0.04677 -0.05697,0.05697 -0.104499,0.02191 -0.140316,0.09354 -0.007,0.01394 0.007,0.03283 0,0.04677 -0.02806,0.05613 -0.112254,0.08419 -0.140317,0.140317 -0.007,0.01394 0.0086,0.0338 0,0.04677 -0.02446,0.03669 -0.06709,0.05827 -0.09354,0.09355 -0.02092,0.02789 -0.02743,0.06454 -0.04677,0.09354 -0.03598,0.05397 -0.104338,0.08635 -0.140317,0.140316 -0.01934,0.02901 -0.02743,0.06454 -0.04677,0.09354 -0.01223,0.01834 -0.03691,0.02705 -0.04677,0.04677 -0.007,0.01394 0.01103,0.03575 0,0.04677 -0.01103,0.01103 -0.03575,-0.01103 -0.04677,0 -0.01103,0.01103 0.01103,0.03575 0,0.04677 -0.01103,0.01103 -0.03575,-0.01103 -0.04677,0 -0.02205,0.02204 0.02205,0.0715 0,0.09355 -0.01103,0.01103 -0.03283,-0.007 -0.04677,0 -0.103416,0.05171 -0.01451,0.02903 -0.04677,0.09354 -0.0099,0.01971 -0.03691,0.02705 -0.04677,0.04677 -0.007,0.01394 0.01103,0.03575 0,0.04677 -0.01103,0.01103 -0.03575,-0.01103 -0.04677,0 -0.01103,0.01103 0.01103,0.03575 0,0.04677 -0.01103,0.01103 -0.03575,0.01103 -0.04677,0 -0.01103,-0.01103 0.007,-0.03283 0,-0.04677 -0.0099,-0.01971 -0.03691,-0.02705 -0.04677,-0.04677 -0.007,-0.01394 0,-0.03118 0,-0.04677 0,-0.02898 0.0073,-0.265998 0,-0.280633 -0.007,-0.01394 -0.0398,0.01394 -0.04677,0 -0.0073,-0.01463 0,-0.25165 0,-0.280632 0,-0.202679 0,-0.405361 0,-0.608039 0,-0.09354 0,-0.187087 0,-0.280633 0,-0.01558 -0.0049,-0.03198 0,-0.04677 0.01103,-0.03307 0.03832,-0.05972 0.04677,-0.09355 0.0076,-0.03025 -0.0099,-0.06396 0,-0.09354 0.007,-0.02093 0.04245,-0.02516 0.04677,-0.04677 0.01223,-0.06115 0,-0.124725 0,-0.18709 0,-0.03118 -0.0076,-0.06329 0,-0.09354 0.0085,-0.03382 0.03575,-0.06047 0.04677,-0.09354 0.0099,-0.02958 0,-0.06236 0,-0.09355 0,-0.09038 -0.01148,-0.305297 0,-0.374176 0.0057,-0.03439 0.03832,-0.05972 0.04677,-0.09354 0.01513,-0.0605 -0.01223,-0.125936 0,-0.187089 0.0097,-0.04834 0.03867,-0.09169 0.04677,-0.140317 0.01282,-0.07689 0,-0.155905 0,-0.23386 0,-0.187089 0,-0.374179 0,-0.561265 0,-0.124728 0,-0.249452 0,-0.374179 0,-0.07795 0.01529,-0.15742 0,-0.23386 -0.0068,-0.03419 -0.03575,-0.06047 -0.04677,-0.09354 -0.0049,-0.01479 0.0049,-0.03198 0,-0.04677 -0.01103,-0.03307 -0.03832,-0.05972 -0.04677,-0.09354 -0.0076,-0.03025 0,-0.06236 0,-0.09355 0,-0.03917 0.0089,-0.198292 0,-0.23386 -0.0085,-0.03382 -0.03575,-0.06047 -0.04677,-0.09354 -0.0049,-0.01479 0.007,-0.03283 0,-0.04677 -0.0099,-0.01971 -0.03691,-0.02705 -0.04677,-0.04677 -0.007,-0.01394 0,-0.03118 0,-0.04677 0,-0.03829 0.0101,-0.203557 0,-0.233863 -0.01103,-0.03307 -0.03575,-0.06047 -0.04677,-0.09354 -0.0049,-0.01479 0.007,-0.03283 0,-0.04677 -0.0099,-0.01971 -0.03691,-0.02705 -0.04677,-0.04677 -0.007,-0.01394 0,-0.03118 0,-0.04677 0,-0.01558 0,-0.03118 0,-0.04677 0,-0.07795 0,-0.155905 0,-0.23386 0,-0.01558 0.007,-0.03283 0,-0.04677 -0.0099,-0.01971 -0.03691,-0.02705 -0.04677,-0.04677 -0.007,-0.01394 0,-0.03118 0,-0.04677 0,-0.03118 0,-0.06236 0,-0.09354 0,-0.04015 0.0091,-0.253269 0,-0.280633 -0.007,-0.02093 -0.03691,-0.02705 -0.04677,-0.04677 -0.01871,-0.03742 0.01871,-0.102899 0,-0.140316 -0.0099,-0.01971 -0.03691,-0.02705 -0.04677,-0.04677 -0.007,-0.01394 0,-0.03118 0,-0.04677 0,-0.01558 0,-0.03118 0,-0.04677 0,-0.04864 0.0092,-0.243842 0,-0.280632 -0.01691,-0.06764 -0.07663,-0.119447 -0.09355,-0.18709 -0.0076,-0.03025 0.0099,-0.06396 0,-0.09354 -0.007,-0.02093 -0.04142,-0.02537 -0.04677,-0.04677 0,-0.265994 0.02092,-0.03079 -0.04677,-0.23386 -0.01072,-0.03217 0.0138,-0.112721 0,-0.140317 -0.0099,-0.01971 -0.03691,-0.02705 -0.04677,-0.04677 -0.0124,-0.02479 0.01061,-0.202041 0,-0.23386 -0.007,-0.02093 -0.03691,-0.02705 -0.04677,-0.04677 -0.007,-0.01394 0,-0.03118 0,-0.04677 0,-0.01558 0,-0.03118 0,-0.04677"
       id="path5794"
       inkscape:connector-curvature="0" />
    <path
       style="fill:none;stroke:#3f0000;stroke-width:0.26458332px;stroke-linecap:butt;stroke-linejoin:miter;stroke-opacity:1"
       d="m 20.813615,19.661655 c 0,0.155171 0.02789,0.168641 -0.04677,0.280633 -0.01223,0.01835 -0.03691,0.02705 -0.04677,0.04677 -0.01394,0.02789 0.01394,0.06565 0,0.09354 -0.0099,0.01972 -0.03691,0.02705 -0.04677,0.04677 -0.007,0.01395 0.007,0.03283 0,0.04677 -0.01672,0.03345 -0.09971,0.06708 -0.04677,0.09354 0.104799,0.0524 0.117941,-0.05205 0.187089,-0.09354 0.04228,-0.02537 0.09751,-0.02231 0.140316,-0.04677 0.06768,-0.03868 0.123655,-0.09501 0.187089,-0.140317 0.04574,-0.03267 0.100567,-0.0538 0.140316,-0.09354 0.03975,-0.03975 0.0538,-0.100568 0.09354,-0.140316 0.03975,-0.03975 0.100568,-0.0538 0.140317,-0.09355 0.01103,-0.01103 -0.007,-0.03283 0,-0.04677 0.02514,-0.05028 0.05982,-0.09535 0.09354,-0.140316 0.01323,-0.01764 0.03691,-0.02705 0.04677,-0.04677 0.007,-0.01395 0,-0.03118 0,-0.04677 0,-0.01559 0,-0.03118 0,-0.04677 0,-0.01559 0.01103,-0.03575 0,-0.04677 -0.01103,-0.01103 -0.03118,0 -0.04677,0 -0.01559,0 -0.03118,0 -0.04677,0 -0.09354,0 -0.187089,0 -0.280633,0 -0.04677,0 -0.09354,0 -0.140316,0 -0.03118,0 -0.06396,-0.0099 -0.09355,0 -0.02092,0.007 -0.02843,0.03454 -0.04677,0.04677 -0.02901,0.01934 -0.06454,0.02743 -0.09354,0.04677 -0.01835,0.01223 -0.02843,0.03454 -0.04677,0.04677 -0.02901,0.01934 -0.08671,0.01259 -0.09354,0.04677 -0.01261,0.06303 -0.01072,0.215836 0.04677,0.187088 0.147288,-0.07364 0.140316,-0.208982 0.140316,-0.327405 0,-0.01559 0,-0.03118 0,-0.04677 0,-0.01559 0.01103,-0.03575 0,-0.04677 -0.0012,-0.0012 -0.216289,0 -0.233861,0 -0.155907,0 -0.311814,0 -0.467722,0 -0.04677,0 -0.09594,-0.01479 -0.140316,0 -0.05333,0.01778 -0.09211,0.06462 -0.140317,0.09354 -0.02989,0.01794 -0.06889,0.02212 -0.09354,0.04677 -0.07017,0.07017 -0.04677,0.191916 -0.04677,0.280633 0,0.01559 -0.01394,0.0398 0,0.04677 0.0093,0.0047 0.319534,0 0.327405,0 0.18258,0 0.500113,0.02542 0.654811,-0.04677 0.14128,-0.06593 0.244454,-0.194151 0.374177,-0.280633 0.05801,-0.03868 0.124726,-0.06236 0.187088,-0.09354 0.03118,-0.01559 0.06565,-0.02585 0.09354,-0.04677 0.141602,0.115415 0.08045,-0.127223 0.09354,-0.140317 0.01103,-0.01103 0.03575,0.01103 0.04677,0 0.01103,-0.01103 0,-0.03118 0,-0.04677 0,-0.01559 0.01103,-0.03575 0,-0.04677 -0.0019,-0.0019 -0.169912,0 -0.187088,0 -0.04677,0 -0.09354,0 -0.140317,0 -0.04677,0 -0.09445,-0.0092 -0.140316,0 -0.03419,0.0068 -0.06236,0.03118 -0.09355,0.04677 -0.06236,0.03118 -0.124725,0.06236 -0.187088,0.09355 -0.03118,0.01559 -0.06565,0.02585 -0.09354,0.04677 -0.03528,0.02646 -0.06236,0.06236 -0.09354,0.09354 -0.03118,0.03118 -0.06236,0.06236 -0.09354,0.09354 -0.03118,0.03118 -0.06709,0.05827 -0.09354,0.09354 -0.02278,0.03037 -0.127735,0.24289 -0.140316,0.280633 -0.0049,0.01479 0,0.03118 0,0.04677 0,0.03118 0,0.06236 0,0.09354 0,0.02205 -0.0021,0.231741 0,0.233861 0.01103,0.01103 0.03118,0 0.04677,0 0.01559,0 0.03118,0 0.04677,0 0.10567,0 -0.02092,0.007 0.140317,-0.04677 0.169377,-0.05646 -0.203788,0.250559 0.187088,-0.140317 0.03118,-0.03118 0.08629,-0.05005 0.09354,-0.09354 0.01057,-0.06341 -0.04038,-0.123125 -0.04677,-0.187089 -0.0093,-0.09308 0.01538,-0.188361 0,-0.280633 -0.0026,-0.01538 -0.03118,0 -0.04677,0 -0.101253,0 -0.09601,-0.01395 -0.187088,0.04677 -0.01835,0.01223 -0.02843,0.03454 -0.04677,0.04677 -0.02901,0.01934 -0.07263,0.01888 -0.09355,0.04677 -0.07066,0.09421 -0.04677,0.302951 -0.04677,0.420949 0,0.01559 0,0.03118 0,0.04677 0,0.01559 -0.01103,0.03575 0,0.04677 0.02465,0.02465 0.06454,0.02743 0.09354,0.04677 0.01835,0.01223 0.02585,0.0398 0.04677,0.04677 0.02578,0.0086 0.24094,0 0.280633,0 0.03164,0 0.274901,0.0029 0.280633,0 0.03118,-0.01559 0.02743,-0.06454 0.04677,-0.09354 0.01223,-0.01835 0.03118,-0.03118 0.04677,-0.04677 0.03118,-0.01559 0.07263,-0.01888 0.09354,-0.04677 0.07047,-0.09397 0.04677,-0.310305 0.04677,-0.420949 0,-0.03118 0,-0.06236 0,-0.09354 0,-0.03118 0.0099,-0.06396 0,-0.09354 -0.007,-0.02092 -0.03118,-0.03118 -0.04677,-0.04677 -0.03118,-0.03118 -0.0541,-0.07382 -0.09354,-0.09354 -0.02789,-0.01394 -0.06236,0 -0.09354,0 -0.07795,0 -0.155908,0 -0.233861,0 -0.04677,0 -0.09354,0 -0.140317,0 -0.03118,0 -0.06459,-0.01158 -0.09354,0 -0.05219,0.02088 -0.09211,0.06462 -0.140317,0.09354 -0.02989,0.01794 -0.06889,0.02212 -0.09354,0.04677 -0.02465,0.02465 -0.02212,0.06889 -0.04677,0.09354 -0.01103,0.01103 -0.0338,-0.0086 -0.04677,0 -0.06527,0.04351 -0.11567,0.113146 -0.140317,0.187088 -0.0049,0.01479 0.01103,0.03575 0,0.04677 -0.01103,0.01103 -0.03575,-0.01103 -0.04677,0 -0.0019,0.0019 0,0.169912 0,0.187089 0,0.01244 -0.0077,0.136455 0,0.140316 0.02789,0.01395 0.06236,0 0.09354,0 0.04677,0 0.09354,0 0.140317,0 0.04677,0 0.09401,-0.0066 0.140316,0 0.51269,0.07324 -0.250229,0.04677 0.514494,0.04677"
       id="path5796"
       inkscape:connector-curvature="0" />
    <path
       style="fill:none;stroke:#3f0000;stroke-width:0.26458332px;stroke-linecap:butt;stroke-linejoin:miter;stroke-opacity:1"
       d="m 34.284,19.381022 c -0.311208,-0.155604 -0.05828,-0.04965 -0.42095,-0.140316 -0.04783,-0.01196 -0.09169,-0.03867 -0.140316,-0.04677 -0.04614,-0.0077 -0.09355,0 -0.140317,0 -0.06614,0 -0.200789,0 -0.233862,0 -0.01135,0 -0.138811,-0.0015 -0.140317,0 -0.02204,0.02205 0.01394,0.06565 0,0.09354 -0.01971,0.03944 -0.0796,0.05171 -0.09354,0.09354 -0.0099,0.02958 0,0.06236 0,0.09354 0,0.03118 0,0.06236 0,0.09354 0,0.03917 -0.0089,0.198292 0,0.233861 0.05801,0.232023 0.01,0.03785 0.09354,0.09354 0.152284,0.101522 0.02716,0.08701 0.18709,0.140317 0.01479,0.0049 0.03118,0 0.04677,0 0.04677,0 0.09354,0 0.140316,0 0.04677,0 0.09534,0.01285 0.140317,0 0.08229,-0.02351 0.369959,-0.201992 0.420949,-0.233861 0.04767,-0.02979 0.105199,-0.04965 0.140317,-0.09354 0.0308,-0.0385 0.01521,-0.102441 0.04677,-0.140316 0.04991,-0.05989 0.131969,-0.0852 0.18709,-0.140316 0.07266,-0.07266 0.04677,-0.190598 0.04677,-0.280633 0,-0.04677 0,-0.09355 0,-0.140317 0,-0.01559 0.01103,-0.03575 0,-0.04677 -0.01103,-0.01103 -0.0338,0.0086 -0.04677,0 -0.03669,-0.02446 -0.0526,-0.07717 -0.09354,-0.09355 -0.04343,-0.01737 -0.09355,0 -0.140316,0 -0.04677,0 -0.09355,0 -0.140317,0 -0.07795,0 -0.155908,0 -0.233862,0 -0.04677,0 -0.09445,-0.0092 -0.140317,0 -0.09764,0.01953 -0.113601,0.08153 -0.187087,0.140317 -0.0439,0.03512 -0.100568,0.0538 -0.140316,0.09354 -0.02466,0.02465 -0.02743,0.06454 -0.04677,0.09355 -0.01222,0.01835 -0.03454,0.02843 -0.04677,0.04677 -0.01934,0.02901 -0.02883,0.06365 -0.04677,0.09354 -0.02892,0.0482 -0.07267,0.08812 -0.09354,0.140317 -0.01024,0.02558 0,0.240994 0,0.280633 0,0.02611 -0.0071,0.21245 0,0.23386 0.007,0.02092 0.02705,0.03691 0.04677,0.04677 0.01048,0.0052 0.175975,0 0.18709,0 0.03118,0 0.06459,0.01158 0.09354,0 0.168715,-0.06749 0.131914,-0.127634 0.280633,-0.233861 0.470647,-0.336176 -0.03966,0.139817 0.280633,-0.233861 0.0574,-0.06696 0.163883,-0.102002 0.18709,-0.187089 0.02901,-0.106358 -0.01648,-0.221404 -0.04677,-0.327405 -0.0043,-0.01499 -0.0338,0.0086 -0.04677,0 -0.03669,-0.02446 -0.0541,-0.07382 -0.09354,-0.09354 -0.02789,-0.01394 -0.06329,0.0076 -0.09354,0 -0.03382,-0.0085 -0.05972,-0.03832 -0.09355,-0.04677 -0.04538,-0.01135 -0.09354,0 -0.140317,0 -0.04677,0 -0.09354,0 -0.140316,0 -0.01558,0 -0.03283,-0.007 -0.04677,0 -0.01971,0.0099 -0.02843,0.03454 -0.04677,0.04677 -0.02901,0.01934 -0.07263,0.01888 -0.09354,0.04677 -0.142613,0.03311 -0.01802,0.129593 -0.04677,0.187089 -0.0099,0.01972 -0.0398,0.02585 -0.04677,0.04677 -0.0084,0.02515 0,0.147489 0,0.187089 0,0.01559 -0.01103,0.03575 0,0.04677 0.208933,0.208933 0.06867,0.06394 0.187089,0.09354 0.265973,0.06649 0.0069,0.04677 0.327406,0.04677 0.167733,0 0.354169,0.01736 0.514493,-0.04677 0.01447,-0.0058 -0.01103,-0.03575 0,-0.04677 0.02466,-0.02465 0.06889,-0.02212 0.09354,-0.04677 0.06427,-0.06427 0.04677,-0.154513 0.04677,-0.233861 0,-0.02933 0.0058,-0.181311 0,-0.187089 -0.01103,-0.01103 -0.03198,0.0049 -0.04677,0 -0.290029,-0.145014 0.02294,-0.006 -0.140317,-0.04677 -0.04783,-0.01196 -0.09168,-0.03867 -0.140316,-0.04677 -0.04614,-0.0077 -0.09354,0 -0.140317,0 -0.04677,0 -0.09354,0 -0.140316,0 -0.04677,0 -0.09848,-0.02092 -0.140317,0 -0.249451,0.124725 -0.06236,0.103938 -0.187087,0.187089 -0.02901,0.01934 -0.06889,0.02212 -0.09355,0.04677 -0.02466,0.02465 -0.02743,0.06454 -0.04677,0.09354 -0.01222,0.01835 -0.0398,0.02585 -0.04677,0.04677 -0.01479,0.04437 0,0.09354 0,0.140317 0,0.01559 0,0.03118 0,0.04677 0,0.01559 -0.007,0.03283 0,0.04677 0.03246,0.06492 0.08322,0.04677 0.140316,0.04677 0.03118,0 0.06329,0.0076 0.09354,0 0.02437,-0.0061 0.201604,-0.06129 0.233862,-0.09354 0.02466,-0.02465 0.02743,-0.06454 0.04677,-0.09354 0.01222,-0.01835 0.03454,-0.02843 0.04677,-0.04677 0.05374,-0.08062 0.04677,-0.0707 0.04677,-0.140316 0,-0.01559 0.01103,-0.03575 0,-0.04677 -0.0066,-0.0066 -0.130723,-0.0048 -0.140317,0 -0.01971,0.0099 -0.0398,0.02585 -0.04677,0.04677 -0.0099,0.02958 0.0173,0.0676 0,0.09354 -0.01934,0.02901 -0.07421,0.01776 -0.09354,0.04677 -0.03118,0.04677 0.01558,0.09354 0,0.140317 -0.01103,0.03307 -0.03575,0.06047 -0.04677,0.09354 -0.0088,0.02639 0,0.109582 0,0.140317 0,0.01559 -0.01103,0.03575 0,0.04677 0.01103,0.01103 0.03118,0 0.04677,0 0.01558,0 0.03118,0 0.04677,0 0.01558,0 0.03198,0.0049 0.04677,0 0.07705,-0.02569 0.190556,-0.122131 0.23386,-0.187089 0.0087,-0.01297 -0.0049,-0.03198 0,-0.04677 0.01103,-0.03307 0.03832,-0.05972 0.04677,-0.09354 0.0076,-0.03025 -0.02789,-0.0796 0,-0.09354 0.05578,-0.02789 0.214977,0.05578 0.18709,0 -0.05028,-0.100557 -0.18302,-0.131309 -0.280633,-0.187088 -0.01355,-0.0077 -0.03118,0 -0.04677,0 -0.01558,0 -0.03575,-0.01103 -0.04677,0 -0.143563,0.143562 0.02733,0.03889 -0.04677,0.187088 -0.007,0.01395 -0.03118,0 -0.04677,0 -0.01558,0.03118 -0.03575,0.06047 -0.04677,0.09354 -0.0098,0.02944 0,0.191702 0,0.23386"
       id="path5798"
       inkscape:connector-curvature="0" />
  </g>
  <g
     inkscape:label="Capa 1"
     inkscape:groupmode="layer"
     id="layer1"
     transform="translate(0,-244.08332)" />
</svg>
