<?xml version="1.0" encoding="UTF-8" standalone="no"?>
<!-- Created with Inkscape (http://www.inkscape.org/) -->

<svg
   xmlns:dc="http://purl.org/dc/elements/1.1/"
   xmlns:cc="http://creativecommons.org/ns#"
   xmlns:rdf="http://www.w3.org/1999/02/22-rdf-syntax-ns#"
   xmlns:svg="http://www.w3.org/2000/svg"
   xmlns="http://www.w3.org/2000/svg"
   xmlns:sodipodi="http://sodipodi.sourceforge.net/DTD/sodipodi-0.dtd"
   xmlns:inkscape="http://www.inkscape.org/namespaces/inkscape"
   width="200"
   height="200"
   viewBox="0 0 52.916666 52.916668"
   version="1.1"
   id="svg5322"
   inkscape:version="0.92.1 r15371"
   sodipodi:docname="metal_pants.svg">
  <defs
     id="defs5316" />
  <sodipodi:namedview
     id="base"
     pagecolor="#ffffff"
     bordercolor="#666666"
     borderopacity="1.0"
     inkscape:pageopacity="0.0"
     inkscape:pageshadow="2"
     inkscape:zoom="2"
     inkscape:cx="-7.6446459"
     inkscape:cy="88.404861"
     inkscape:document-units="mm"
     inkscape:current-layer="layer2"
     showgrid="false"
     units="px"
     inkscape:window-width="1920"
     inkscape:window-height="1017"
     inkscape:window-x="-8"
     inkscape:window-y="-8"
     inkscape:window-maximized="1" />
  <metadata
     id="metadata5319">
    <rdf:RDF>
      <cc:Work
         rdf:about="">
        <dc:format>image/svg+xml</dc:format>
        <dc:type
           rdf:resource="http://purl.org/dc/dcmitype/StillImage" />
        <dc:title></dc:title>
      </cc:Work>
    </rdf:RDF>
  </metadata>
  <g
     inkscape:groupmode="layer"
     id="layer2"
     inkscape:label="Capa 2"
     style="display:none"
     sodipodi:insensitive="true">
    <path
       style="opacity:1;vector-effect:none;fill:#724d00;fill-opacity:1;fill-rule:nonzero;stroke:none;stroke-width:0.4628512;stroke-linecap:butt;stroke-linejoin:miter;stroke-miterlimit:4;stroke-dasharray:none;stroke-dashoffset:0;stroke-opacity:1;paint-order:normal"
       d="M 13.229167,13.229167 V 39.6875 H 39.6875 V 13.229167 Z"
       id="rect5969"
       inkscape:connector-curvature="0" />
  </g>
  <g
     inkscape:label="Capa 1"
     inkscape:groupmode="layer"
     id="layer1"
     transform="translate(0,-244.08332)">
    <path
       style="fill:#a8a8a8;fill-opacity:1;stroke:none;stroke-width:0.30225673px;stroke-linecap:butt;stroke-linejoin:miter;stroke-opacity:1"
       d="m 13.64828,286.20081 c 0,0 -2.852834,-0.2702 -3.275476,-2.64798 -0.4226421,-2.37778 0.05283,-11.02426 -0.5283022,-11.78082 -0.581133,-0.75657 -1.0566058,-0.75657 -1.0566058,-0.75657 0,0 1.426417,0.0541 1.690569,0.37827 0.264151,0.32425 31.962305,0.0541 31.962305,0.0541 0,0 0.898113,-0.10802 0.898113,-0.48636 0,-0.37827 0.05896,0.10445 0.05896,0.10445 0,0 -1.326886,1.35464 -1.432545,2.54354 -0.105667,1.18888 -0.264154,10.59192 -0.264154,10.59192 0,0 0.05283,2.26971 -1.849058,2.05356 -1.901888,-0.21617 -26.203806,-0.0541 -26.203806,-0.0541 z"
       id="path5101"
       inkscape:connector-curvature="0" />
    <path
       style="opacity:1;vector-effect:none;fill:#bdbdbd;fill-opacity:1;fill-rule:nonzero;stroke:none;stroke-width:0.30273274;stroke-linecap:butt;stroke-linejoin:miter;stroke-miterlimit:4;stroke-dasharray:none;stroke-dashoffset:0;stroke-opacity:1;paint-order:normal"
       id="path5134"
       d="m 12.693888,280.05881 c 0.5317,-0.13291 1.047692,-0.32652 1.567678,-0.50052 0.738192,-0.24894 1.499684,-0.40829 2.266142,-0.5322 0.794071,-0.12518 1.595146,-0.19447 2.397518,-0.22893 0.798177,-0.0232 1.596065,-0.0492 2.394604,-0.0562 0.672801,-0.003 1.345609,6.2e-4 2.01841,0.002 0.665859,9.5e-4 1.331719,6.7e-4 1.997579,5.7e-4 0.909598,0.0339 1.819569,0.0504 2.72971,0.0564 0.865189,0.0361 1.731337,0.0365 2.596606,0.0664 0.79844,0.0323 1.597346,0.0419 2.39632,0.043 0.867732,0.003 1.735876,0.0319 2.601977,0.0869 1.060195,0.0479 2.111491,0.19815 3.162974,0.33579 0.147627,0.0257 0.295254,0.0515 0.442881,0.077 0,0 -0.297262,-1.31636 -0.297262,-1.31636 v 0 c -0.152744,-0.0245 -0.305488,-0.0489 -0.458229,-0.0733 -1.06132,-0.13962 -2.123614,-0.27935 -3.1936,-0.32774 -0.874788,-0.0503 -1.751184,-0.0794 -2.627403,-0.0797 -0.794737,-0.002 -1.589316,-0.0154 -2.383529,-0.0466 -0.868898,-0.0248 -1.738204,-0.035 -2.607041,-0.0634 -0.911264,-0.009 -1.822135,-0.0296 -2.733054,-0.0555 -0.665541,1.1e-4 -1.331082,3.8e-4 -1.996623,-8.5e-4 -0.674563,-9.5e-4 -1.34914,-0.005 -2.023696,-3.1e-4 -0.803783,0.01 -1.607043,0.0352 -2.410447,0.0612 -0.819176,0.0414 -1.637062,0.11415 -2.447519,0.24582 -0.789301,0.13233 -1.573282,0.30094 -2.333684,0.55877 -0.502554,0.16823 -1.001151,0.35732 -1.51655,0.48004 0,0 0.456238,1.26784 0.456238,1.26784 z"
       inkscape:connector-curvature="0" />
  </g>
</svg>
