<?xml version="1.0" encoding="UTF-8" standalone="no"?>
<!-- Created with Inkscape (http://www.inkscape.org/) -->

<svg
   xmlns:dc="http://purl.org/dc/elements/1.1/"
   xmlns:cc="http://creativecommons.org/ns#"
   xmlns:rdf="http://www.w3.org/1999/02/22-rdf-syntax-ns#"
   xmlns:svg="http://www.w3.org/2000/svg"
   xmlns="http://www.w3.org/2000/svg"
   xmlns:sodipodi="http://sodipodi.sourceforge.net/DTD/sodipodi-0.dtd"
   xmlns:inkscape="http://www.inkscape.org/namespaces/inkscape"
   width="200"
   height="200"
   viewBox="0 0 52.916666 52.916668"
   version="1.1"
   id="svg5322"
   inkscape:version="0.92.1 r15371"
   sodipodi:docname="metal_helmet.svg">
  <defs
     id="defs5316" />
  <sodipodi:namedview
     id="base"
     pagecolor="#ffffff"
     bordercolor="#666666"
     borderopacity="1.0"
     inkscape:pageopacity="0.0"
     inkscape:pageshadow="2"
     inkscape:zoom="2"
     inkscape:cx="-7.6446459"
     inkscape:cy="88.404861"
     inkscape:document-units="mm"
     inkscape:current-layer="layer2"
     showgrid="false"
     units="px"
     inkscape:window-width="1920"
     inkscape:window-height="1017"
     inkscape:window-x="-8"
     inkscape:window-y="-8"
     inkscape:window-maximized="1" />
  <metadata
     id="metadata5319">
    <rdf:RDF>
      <cc:Work
         rdf:about="">
        <dc:format>image/svg+xml</dc:format>
        <dc:type
           rdf:resource="http://purl.org/dc/dcmitype/StillImage" />
        <dc:title></dc:title>
      </cc:Work>
    </rdf:RDF>
  </metadata>
  <g
     inkscape:groupmode="layer"
     id="layer2"
     inkscape:label="Capa 2"
     style="display:none"
     sodipodi:insensitive="true">
    <path
       style="opacity:1;vector-effect:none;fill:#724d00;fill-opacity:1;fill-rule:nonzero;stroke:none;stroke-width:0.4628512;stroke-linecap:butt;stroke-linejoin:miter;stroke-miterlimit:4;stroke-dasharray:none;stroke-dashoffset:0;stroke-opacity:1;paint-order:normal"
       d="M 13.229167,13.229167 V 39.6875 H 39.6875 V 13.229167 Z"
       id="rect5969"
       inkscape:connector-curvature="0" />
  </g>
  <g
     inkscape:label="Capa 1"
     inkscape:groupmode="layer"
     id="layer1"
     transform="translate(0,-244.08332)">
    <path
       style="fill:#a8a8a8;fill-opacity:1;stroke:none;stroke-width:0.29885304px;stroke-linecap:butt;stroke-linejoin:miter;stroke-opacity:1"
       d="m 13.64828,255.77715 c 0,0 -2.852834,0.26415 -3.275476,2.58868 -0.4226421,2.32453 0.05283,10.77737 -0.5283022,11.51699 -0.581133,0.73962 -1.0566058,0.73962 -1.0566058,0.73962 0,0 1.426417,-0.0529 1.690569,-0.3698 0.264151,-0.31698 31.962305,-0.0529 31.962305,-0.0529 0,0 0.898113,0.10561 0.898113,0.47547 0,0.36981 0.05896,-0.10211 0.05896,-0.10211 0,0 -1.326886,-1.3243 -1.432545,-2.48657 -0.105667,-1.16226 -0.264154,-10.35472 -0.264154,-10.35472 0,0 0.05283,-2.21888 -1.849058,-2.00756 -1.901888,0.21132 -26.203806,0.0529 -26.203806,0.0529 z"
       id="path5101"
       inkscape:connector-curvature="0" />
    <path
       style="opacity:1;vector-effect:none;fill:#bdbdbd;fill-opacity:1;fill-rule:nonzero;stroke:none;stroke-width:0.29932368;stroke-linecap:butt;stroke-linejoin:miter;stroke-miterlimit:4;stroke-dasharray:none;stroke-dashoffset:0;stroke-opacity:1;paint-order:normal"
       id="path5134"
       d="m 12.693888,261.7816 c 0.5317,0.12994 1.047692,0.31921 1.567678,0.48931 0.738192,0.24336 1.499684,0.39915 2.266142,0.52029 0.794071,0.12237 1.595146,0.1901 2.397518,0.22379 0.798177,0.0227 1.596065,0.0481 2.394604,0.055 0.672801,0.003 1.345609,-6e-4 2.01841,-0.002 0.665859,-9.8e-4 1.331719,-6.5e-4 1.997579,-5.6e-4 0.909598,-0.0331 1.819569,-0.0493 2.72971,-0.0551 0.865189,-0.0353 1.731337,-0.0357 2.596606,-0.0649 0.79844,-0.0316 1.597346,-0.041 2.39632,-0.042 0.867732,-0.003 1.735876,-0.0312 2.601977,-0.085 1.060195,-0.0469 2.111491,-0.19371 3.162974,-0.32827 0.147627,-0.0251 0.295254,-0.0503 0.442881,-0.0753 0,0 -0.297262,1.28687 -0.297262,1.28687 v 0 c -0.152744,0.024 -0.305488,0.0478 -0.458229,0.0717 -1.06132,0.1365 -2.123614,0.2731 -3.1936,0.32041 -0.874788,0.0492 -1.751184,0.0776 -2.627403,0.0779 -0.794737,0.002 -1.589316,0.0151 -2.383529,0.0456 -0.868898,0.0243 -1.738204,0.0342 -2.607041,0.062 -0.911264,0.008 -1.822135,0.0289 -2.733054,0.0542 -0.665541,-10e-5 -1.331082,-3.7e-4 -1.996623,8.3e-4 -0.674563,0.001 -1.34914,0.005 -2.023696,3.1e-4 -0.803783,-0.009 -1.607043,-0.0344 -2.410447,-0.0598 -0.819176,-0.0404 -1.637062,-0.11159 -2.447519,-0.24032 -0.789301,-0.12937 -1.573282,-0.2942 -2.333684,-0.54625 -0.502554,-0.16446 -1.001151,-0.34932 -1.51655,-0.46929 0,0 0.456238,-1.23945 0.456238,-1.23945 z"
       inkscape:connector-curvature="0" />
  </g>
</svg>
