<?xml version="1.0" encoding="UTF-8" standalone="no"?>
<!-- Created with Inkscape (http://www.inkscape.org/) -->

<svg
   xmlns:dc="http://purl.org/dc/elements/1.1/"
   xmlns:cc="http://creativecommons.org/ns#"
   xmlns:rdf="http://www.w3.org/1999/02/22-rdf-syntax-ns#"
   xmlns:svg="http://www.w3.org/2000/svg"
   xmlns="http://www.w3.org/2000/svg"
   xmlns:sodipodi="http://sodipodi.sourceforge.net/DTD/sodipodi-0.dtd"
   xmlns:inkscape="http://www.inkscape.org/namespaces/inkscape"
   width="200"
   height="200"
   viewBox="0 0 52.916666 52.916668"
   version="1.1"
   id="svg5322"
   inkscape:version="0.92.1 r15371"
   sodipodi:docname="penguin.svg">
  <defs
     id="defs5316" />
  <sodipodi:namedview
     id="base"
     pagecolor="#ffffff"
     bordercolor="#666666"
     borderopacity="1.0"
     inkscape:pageopacity="0.0"
     inkscape:pageshadow="2"
     inkscape:zoom="2.8284271"
     inkscape:cx="11.136737"
     inkscape:cy="108.34066"
     inkscape:document-units="mm"
     inkscape:current-layer="layer3"
     showgrid="false"
     units="px"
     inkscape:window-width="1920"
     inkscape:window-height="1017"
     inkscape:window-x="-8"
     inkscape:window-y="-8"
     inkscape:window-maximized="1" />
  <metadata
     id="metadata5319">
    <rdf:RDF>
      <cc:Work
         rdf:about="">
        <dc:format>image/svg+xml</dc:format>
        <dc:type
           rdf:resource="http://purl.org/dc/dcmitype/StillImage" />
        <dc:title></dc:title>
      </cc:Work>
    </rdf:RDF>
  </metadata>
  <g
     inkscape:groupmode="layer"
     id="layer2"
     inkscape:label="Capa 2"
     style="display:none"
     sodipodi:insensitive="true">
    <path
       style="opacity:1;vector-effect:none;fill:#724d00;fill-opacity:1;fill-rule:nonzero;stroke:none;stroke-width:0.4628512;stroke-linecap:butt;stroke-linejoin:miter;stroke-miterlimit:4;stroke-dasharray:none;stroke-dashoffset:0;stroke-opacity:1;paint-order:normal"
       d="M 13.229167,13.229167 V 39.6875 H 39.6875 V 13.229167 Z"
       id="rect5969"
       inkscape:connector-curvature="0" />
  </g>
  <g
     inkscape:groupmode="layer"
     id="layer3"
     inkscape:label="Capa 3">
    <path
       style="fill:#5a5a5a;fill-opacity:1;stroke:none;stroke-width:0.26458332px;stroke-linecap:butt;stroke-linejoin:miter;stroke-opacity:1"
       d="m 20.649935,17.62656 c -0.834122,0.83461 -0.54561,0.54609 -0.865308,0.86579 -0.01559,0.0156 -0.03454,0.0284 -0.04677,0.0468 -0.01934,0.029 -0.02586,0.0657 -0.04677,0.0935 -0.03969,0.0529 -0.103625,0.0853 -0.140316,0.14031 -0.01934,0.029 -0.02743,0.0645 -0.04677,0.0936 -0.02446,0.0367 -0.06908,0.0568 -0.09354,0.0935 -0.01934,0.029 -0.025,0.0663 -0.04677,0.0935 -0.309838,0.30984 -0.03438,0.005 -0.187088,0.23386 -0.02446,0.0367 -0.06908,0.0569 -0.09354,0.0935 -0.01934,0.029 -0.025,0.0663 -0.04677,0.0935 -0.04132,0.0516 -0.09354,0.0935 -0.140316,0.14031 -0.01559,0.0156 -0.03691,0.0271 -0.04677,0.0468 -0.02205,0.0441 -0.02141,0.098 -0.04677,0.14031 -0.02269,0.0378 -0.06709,0.0583 -0.09354,0.0935 -0.02092,0.0279 -0.02585,0.0657 -0.04677,0.0935 -0.220301,0.29373 0.04183,-0.14767 -0.187089,0.23386 -0.06467,0.10779 -0.117365,0.22282 -0.187089,0.32741 -0.02446,0.0367 -0.07086,0.0557 -0.09354,0.0935 -0.02537,0.0423 -0.01719,0.10088 -0.04677,0.14032 -0.02092,0.0279 -0.07263,0.0189 -0.09354,0.0468 -0.02958,0.0394 -0.02472,0.0962 -0.04677,0.14032 -0.02073,0.0414 -0.111931,0.0977 -0.140316,0.14031 -0.08861,-0.005 -0.03118,0.10914 -0.04677,0.14032 -0.0099,0.0197 -0.03118,0.0312 -0.04677,0.0468 -0.03118,0.0468 -0.06841,0.09 -0.09354,0.14032 -0.007,0.0139 0.007,0.0328 0,0.0468 -0.0099,0.0197 -0.03118,0.0312 -0.04677,0.0468 -0.03118,0.078 -0.06699,0.15421 -0.09354,0.23386 -0.0049,0.0148 0.007,0.0328 0,0.0468 -0.0099,0.0197 -0.03543,0.0279 -0.04677,0.0468 -0.03587,0.0598 -0.06236,0.12472 -0.09354,0.18709 -0.01559,0.0312 -0.02212,0.0689 -0.04677,0.0935 -0.01103,0.011 -0.04184,-0.0148 -0.04677,0 -0.01479,0.0444 0.0092,0.0944 0,0.14032 -4.49e-4,0.002 -0.09096,0.180619 -0.09354,0.18709 -0.01831,0.0458 -0.02472,0.0962 -0.04677,0.140309 -0.0099,0.0197 -0.03691,0.027 -0.04677,0.0468 -0.007,0.014 0.0049,0.032 0,0.0468 -0.01103,0.0331 -0.03575,0.0605 -0.04677,0.0935 -0.02033,0.061 -0.02644,0.12611 -0.04677,0.187091 -0.01103,0.0331 -0.03383,0.0612 -0.04677,0.0935 -0.01831,0.0458 -0.03118,0.0935 -0.04677,0.140319 -0.01559,0.0468 -0.02846,0.0945 -0.04677,0.14032 -0.03871,0.0968 -0.101608,0.18386 -0.140316,0.28063 -0.0058,0.0145 0.0049,0.032 0,0.0468 -0.01103,0.0331 -0.03832,0.0597 -0.04677,0.0935 -0.0076,0.0303 0.0099,0.064 0,0.0935 -0.007,0.0209 -0.0398,0.0259 -0.04677,0.0468 -0.0099,0.0296 0.0086,0.0636 0,0.0935 -0.02307,0.0807 -0.07318,0.152411 -0.09354,0.233861 -0.03898,0.1559 0.02598,0.10394 0,0.23386 -0.0097,0.0483 -0.03118,0.0935 -0.04677,0.14031 -0.01559,0.0468 -0.03118,0.0936 -0.04677,0.14032 -0.01559,0.0468 -0.03867,0.0917 -0.04677,0.14032 -0.01538,0.0923 0.01538,0.18836 0,0.28063 -0.0081,0.0486 -0.03867,0.0917 -0.04677,0.14032 -0.0077,0.0461 0.01134,0.0949 0,0.14031 -0.02036,0.0815 -0.07048,0.15314 -0.09355,0.23386 -0.0086,0.03 0.0051,0.0628 0,0.0936 -0.01057,0.0634 -0.03416,0.124049 -0.04677,0.18709 -0.01499,0.075 0.01499,0.1589 0,0.233859 -0.0068,0.0342 -0.0372,0.06 -0.04677,0.0935 -0.02184,0.0764 -0.02493,0.15742 -0.04677,0.23386 -0.0096,0.0335 -0.03994,0.0594 -0.04677,0.0935 -0.01835,0.0917 0.01538,0.18836 0,0.28063 -0.01621,0.0973 -0.07733,0.18337 -0.09354,0.28063 -0.0077,0.0461 0,0.0935 0,0.14032 -0.01559,0.0468 -0.0371,0.092 -0.04677,0.14032 -0.0061,0.0306 0.0076,0.0633 0,0.0935 -0.0085,0.0338 -0.03832,0.0597 -0.04677,0.0935 -0.0175,0.07 0.01481,0.20659 0,0.28064 -0.0097,0.0483 -0.03482,0.0925 -0.04677,0.14031 -0.0038,0.0151 0.0049,0.032 0,0.0468 -0.01103,0.0331 -0.03832,0.0597 -0.04677,0.0935 -0.0076,0.0302 0,0.0624 0,0.0935 0,0.0935 0,0.18708 0,0.28063 0,0.0312 0.0099,0.064 0,0.0935 -0.007,0.0209 -0.0398,0.0258 -0.04677,0.0468 -0.01886,0.0566 0.01593,0.21692 0,0.28063 -0.0085,0.0338 -0.03993,0.0594 -0.04677,0.0935 -0.0092,0.0459 0,0.0935 0,0.14032 0,0.0156 0.0049,0.032 0,0.0468 -0.01103,0.0331 -0.03575,0.0605 -0.04677,0.0935 -0.009,0.0271 0,0.14655 0,0.18709 0,0.14031 0,0.28063 0,0.42094 0,0.20268 0,0.40536 0,0.60804 0,0.0624 -0.01025,0.12558 0,0.18709 0.0081,0.0486 0.0371,0.092 0.04677,0.14032 0.0061,0.0306 -0.0051,0.0628 0,0.0935 0.01057,0.0634 0.03416,0.12406 0.04677,0.18709 0.0092,0.0459 -0.0077,0.0942 0,0.14032 0.01057,0.0634 0.03621,0.12368 0.04677,0.18709 0.0051,0.0308 -0.0051,0.0628 0,0.0935 0.01057,0.0634 0.03417,0.12405 0.04677,0.18709 0.0031,0.0153 -0.0031,0.0315 0,0.0468 -0.03993,0.11879 0.06963,0.18497 0.09354,0.28063 0.0076,0.0303 0,0.0624 0,0.0935 0,0.0468 0,0.0935 0,0.14031 0,0.0156 -0.007,0.0328 0,0.0468 0.0099,0.0197 0.0398,0.0258 0.04677,0.0468 0.02514,0.0754 0.0337,0.15544 0.04677,0.23386 0.0026,0.0154 -0.007,0.0328 0,0.0468 0.0099,0.0197 0.04143,0.0254 0.04677,0.0468 0.0066,0.0264 -0.0121,0.19758 0,0.23386 0.01103,0.0331 0.03575,0.0605 0.04677,0.0935 0.01337,0.0401 -0.0095,0.13962 0,0.18709 0.01261,0.063 0.0362,0.12368 0.04677,0.18709 0.01518,0.0911 -0.01306,0.1892 0,0.28063 0.01124,0.0787 0.03691,0.15498 0.04677,0.23386 0.0058,0.0464 -0.01134,0.0949 0,0.14032 0.0053,0.0214 0.0398,0.0258 0.04677,0.0468 0.0099,0.0296 -0.0076,0.0633 0,0.0935 0.0085,0.0338 0.03994,0.0594 0.04677,0.0935 0.02398,0.11993 -0.02398,0.25425 0,0.37417 0.0043,0.0216 0.0398,0.0258 0.04677,0.0468 0.0099,0.0296 -0.0076,0.0633 0,0.0935 0.0085,0.0338 0.03993,0.0594 0.04677,0.0935 0.0092,0.0459 0,0.0935 0,0.14031 0,0.0156 -0.0038,0.0317 0,0.0468 0.01196,0.0478 0.0371,0.092 0.04677,0.14032 0.0092,0.0459 -0.01134,0.0949 0,0.14032 0.01196,0.0478 0.0371,0.092 0.04677,0.14031 0.07097,0.35487 -0.07223,-0.0977 0.04677,0.14032 0.007,0.0139 -0.01559,0.0468 0,0.0468 0.09733,0 0.01882,-0.0656 0.04677,-0.0935 0.01103,-0.011 0.03118,0 0.04677,0 0,-0.0156 -0.007,-0.0328 0,-0.0468 0.01972,-0.0394 0.06908,-0.0569 0.09354,-0.0935 0.01934,-0.029 0.03118,-0.0624 0.04677,-0.0935 0.01559,-0.0312 0.03832,-0.0597 0.04677,-0.0935 0.0076,-0.0303 -0.0099,-0.064 0,-0.0935 0.007,-0.0209 0.03118,-0.0312 0.04677,-0.0468 0.03118,-0.0312 0.07382,-0.0541 0.09355,-0.0935 0.01395,-0.0279 -0.01394,-0.0657 0,-0.0935 0.007,-0.0139 0.03575,0.011 0.04677,0 0.02205,-0.022 -0.02205,-0.0715 0,-0.0935 0.01103,-0.011 0.03575,0.011 0.04677,0 0.02205,-0.022 -0.01394,-0.0657 0,-0.0935 0.0099,-0.0197 0.03118,-0.0312 0.04677,-0.0468 0.01559,0 0.0398,0.0139 0.04677,0 0,-0.21292 -0.02205,-0.003 0.04677,-0.14032 0.007,-0.0139 -0.0049,-0.032 0,-0.0468 0.02205,-0.0661 0.0715,-0.12095 0.09354,-0.18709 0.0049,-0.0148 -0.007,-0.0328 0,-0.0468 0.0099,-0.0197 0.0398,-0.0258 0.04677,-0.0468 0.0099,-0.0296 0,-0.0624 0,-0.0935 0,-0.0156 -0.007,-0.0328 0,-0.0468 0.0099,-0.0197 0.03691,-0.027 0.04677,-0.0468 0.007,-0.014 -0.01103,-0.0358 0,-0.0468 0.01103,-0.011 0.0398,0.0139 0.04677,0 0.01395,-0.0279 -0.0076,-0.0633 0,-0.0935 0.05647,-0.22586 0.02223,0.002 0.09355,-0.14032 0.01449,-0.029 -0.01384,-0.17325 0,-0.18708 0.01103,-0.011 0.0398,0.0139 0.04677,0 0.01871,-0.0374 -0.01871,-0.1029 0,-0.14032 0.0099,-0.0197 0.03691,-0.027 0.04677,-0.0468 0.007,-0.014 -0.007,-0.0328 0,-0.0468 0.0099,-0.0197 0.03691,-0.027 0.04677,-0.0468 0.0155,-0.031 -0.01307,-0.14789 0,-0.18709 0.01103,-0.0331 0.03832,-0.0597 0.04677,-0.0935 0.0089,-0.0356 0,-0.1947 0,-0.23386 0,-0.0156 -0.01103,-0.0358 0,-0.0468 0.01103,-0.011 0.03575,0.011 0.04677,0 0.0128,-0.0128 -0.01269,-0.16172 0,-0.18709 0.0099,-0.0197 0.03691,-0.027 0.04677,-0.0468 0.01615,-0.0323 -0.01642,-0.21744 0,-0.23386 0.01103,-0.011 0.0398,0.014 0.04677,0 0.0068,-0.0137 0,-0.24235 0,-0.28063 0,-0.0156 -0.007,-0.0328 0,-0.0468 0.0099,-0.0197 0.03691,-0.027 0.04677,-0.0468 0.007,-0.0139 -0.007,-0.0328 0,-0.0468 0.0099,-0.0197 0.03691,-0.0271 0.04677,-0.0468 0.01269,-0.0254 -0.0128,-0.17429 0,-0.18708 0.01103,-0.011 0.03575,0.011 0.04677,0 0.01126,-0.0113 -0.01125,-0.17584 0,-0.18709 0.01103,-0.011 0.03575,0.011 0.04677,0 0.0073,-0.007 -0.0061,-0.12212 0,-0.14032 0.01103,-0.0331 0.03832,-0.0597 0.04677,-0.0935 0.0076,-0.0303 0,-0.0624 0,-0.0935 0.01559,-0.0312 0.03575,-0.0605 0.04677,-0.0935 0.0086,-0.0258 -0.01,-0.17709 0,-0.18709 0.01103,-0.011 0.03575,0.011 0.04677,0 0.01103,-0.011 -0.007,-0.0328 0,-0.0468 0.0099,-0.0197 0.03691,-0.0271 0.04677,-0.0468 0.0093,-0.0185 -0.0096,-0.13075 0,-0.14031 0.01103,-0.011 0.03575,0.011 0.04677,0 0.02339,-0.0234 -0.02339,-0.11693 0,-0.14032 0.01103,-0.011 0.03575,0.011 0.04677,0 0.02205,-0.022 -0.01394,-0.0657 0,-0.0935 0.0099,-0.0197 0.03691,-0.0271 0.04677,-0.0468 0.007,-0.0139 -0.007,-0.0328 0,-0.0468 0.0099,-0.0197 0.0398,-0.0258 0.04677,-0.0468 0.0099,-0.0296 0,-0.0624 0,-0.0935 0,-0.0156 -0.007,-0.0328 0,-0.0468 0.0099,-0.0197 0.03691,-0.027 0.04677,-0.0468 0.01394,-0.0279 -0.02205,-0.0715 0,-0.0935 0.01103,-0.011 0.03575,0.011 0.04677,0 0.01103,-0.011 -0.007,-0.0328 0,-0.0468 0.0099,-0.0197 0.03691,-0.027 0.04677,-0.0468 0.01394,-0.0279 -0.02205,-0.0715 0,-0.0935 0.01103,-0.011 0.03575,0.011 0.04677,0 0.02339,-0.0234 -0.02339,-0.11693 0,-0.14032 0.01103,-0.011 0.03575,0.011 0.04677,0 0.02205,-0.022 -0.02205,-0.0715 0,-0.0935 0.01103,-0.011 0.03575,0.011 0.04677,0 0.124816,-0.12482 -0.124816,0.0313 0,-0.0935 0.01103,-0.011 0.03575,0.011 0.04677,0 0.02205,-0.022 -0.02205,-0.0715 0,-0.0935 0.01103,-0.011 0.03575,0.011 0.04677,0 0.01103,-0.011 0,-0.0312 0,-0.0468 0,-0.0156 0,-0.0312 0,-0.0468"
       id="path5742"
       inkscape:connector-curvature="0" />
    <path
       style="fill:#5a5a5a;fill-opacity:1;stroke:none;stroke-width:0.2326325px;stroke-linecap:butt;stroke-linejoin:miter;stroke-opacity:1"
       d="m 31.073816,17.321921 c 0.64483,0.83461 0.421792,0.54609 0.668939,0.86579 0.01205,0.0156 0.0267,0.0284 0.03616,0.0468 0.01495,0.029 0.01999,0.0657 0.03616,0.0935 0.03068,0.0529 0.08011,0.0853 0.108473,0.14031 0.01495,0.029 0.02121,0.0645 0.03616,0.0936 0.01891,0.0367 0.0534,0.0568 0.07231,0.0935 0.01495,0.029 0.01933,0.0663 0.03616,0.0935 0.239525,0.30984 0.02658,0.005 0.144631,0.23386 0.01891,0.0367 0.0534,0.0569 0.07231,0.0935 0.01495,0.029 0.01933,0.0663 0.03616,0.0935 0.03194,0.0516 0.07231,0.0935 0.108473,0.14031 0.01205,0.0156 0.02853,0.0271 0.03616,0.0468 0.01705,0.0441 0.01655,0.098 0.03616,0.14031 0.01754,0.0378 0.05186,0.0583 0.07231,0.0935 0.01617,0.0279 0.01998,0.0657 0.03616,0.0935 0.170307,0.29373 -0.03234,-0.14767 0.144632,0.23386 0.04999,0.10779 0.09073,0.22282 0.144632,0.32741 0.01891,0.0367 0.05478,0.0557 0.07231,0.0935 0.01961,0.0423 0.01329,0.10088 0.03616,0.14032 0.01617,0.0279 0.05615,0.0189 0.07231,0.0468 0.02287,0.0394 0.01911,0.0962 0.03616,0.14032 0.01602,0.0414 0.08653,0.0977 0.108473,0.14031 0.0685,-0.005 0.0241,0.10914 0.03616,0.14032 0.0077,0.0197 0.0241,0.0312 0.03616,0.0468 0.0241,0.0468 0.05289,0.09 0.07231,0.14032 0.0054,0.0139 -0.0054,0.0328 0,0.0468 0.0077,0.0197 0.0241,0.0312 0.03616,0.0468 0.0241,0.078 0.05179,0.15421 0.07231,0.23386 0.0038,0.0148 -0.0054,0.0328 0,0.0468 0.0077,0.0197 0.02739,0.0279 0.03616,0.0468 0.02773,0.0598 0.04821,0.12472 0.07231,0.18709 0.01205,0.0312 0.0171,0.0689 0.03616,0.0935 0.0085,0.011 0.03235,-0.0148 0.03616,0 0.01143,0.0444 -0.0071,0.0944 0,0.14032 3.48e-4,0.002 0.07032,0.180619 0.07231,0.18709 0.01416,0.0458 0.01911,0.0962 0.03616,0.140309 0.0077,0.0197 0.02853,0.027 0.03616,0.0468 0.0054,0.014 -0.0038,0.032 0,0.0468 0.0085,0.0331 0.02764,0.0605 0.03616,0.0935 0.01572,0.061 0.02044,0.12611 0.03616,0.187091 0.0085,0.0331 0.02615,0.0612 0.03616,0.0935 0.01416,0.0458 0.02411,0.0935 0.03616,0.140319 0.01205,0.0468 0.022,0.0945 0.03616,0.14032 0.02993,0.0968 0.07855,0.18386 0.108473,0.28063 0.0045,0.0145 -0.0038,0.032 0,0.0468 0.0085,0.0331 0.02962,0.0597 0.03616,0.0935 0.0059,0.0303 -0.0077,0.064 0,0.0935 0.0054,0.0209 0.03077,0.0259 0.03616,0.0468 0.0077,0.0296 -0.0066,0.0636 0,0.0935 0.01783,0.0807 0.05657,0.152411 0.07231,0.233861 0.03013,0.1559 -0.02008,0.10394 0,0.23386 0.0075,0.0483 0.0241,0.0935 0.03616,0.14031 0.01205,0.0468 0.02411,0.0936 0.03616,0.14032 0.01205,0.0468 0.02989,0.0917 0.03616,0.14032 0.01189,0.0923 -0.01189,0.18836 0,0.28063 0.0063,0.0486 0.02989,0.0917 0.03616,0.14032 0.006,0.0461 -0.0088,0.0949 0,0.14031 0.01574,0.0815 0.05449,0.15314 0.07232,0.23386 0.0066,0.03 -0.0039,0.0628 0,0.0936 0.0082,0.0634 0.02641,0.124049 0.03616,0.18709 0.01159,0.075 -0.01159,0.1589 0,0.233859 0.0053,0.0342 0.02876,0.06 0.03616,0.0935 0.01688,0.0764 0.01927,0.15742 0.03616,0.23386 0.0074,0.0335 0.03088,0.0594 0.03616,0.0935 0.01419,0.0917 -0.01189,0.18836 0,0.28063 0.01253,0.0973 0.05978,0.18337 0.07231,0.28063 0.006,0.0461 0,0.0935 0,0.14032 0.01205,0.0468 0.02868,0.092 0.03616,0.14032 0.0047,0.0306 -0.0059,0.0633 0,0.0935 0.0066,0.0338 0.02962,0.0597 0.03616,0.0935 0.01353,0.07 -0.01145,0.20659 0,0.28064 0.0075,0.0483 0.02692,0.0925 0.03616,0.14031 0.0029,0.0151 -0.0038,0.032 0,0.0468 0.0085,0.0331 0.02962,0.0597 0.03616,0.0935 0.0059,0.0302 0,0.0624 0,0.0935 0,0.0935 0,0.18708 0,0.28063 0,0.0312 -0.0077,0.064 0,0.0935 0.0054,0.0209 0.03077,0.0258 0.03616,0.0468 0.01458,0.0566 -0.01231,0.21692 0,0.28063 0.0066,0.0338 0.03087,0.0594 0.03616,0.0935 0.0071,0.0459 0,0.0935 0,0.14032 0,0.0156 -0.0038,0.032 0,0.0468 0.0085,0.0331 0.02764,0.0605 0.03616,0.0935 0.007,0.0271 0,0.14655 0,0.18709 0,0.14031 0,0.28063 0,0.42094 0,0.20268 0,0.40536 0,0.60804 0,0.0624 0.0079,0.12558 0,0.18709 -0.0063,0.0486 -0.02868,0.092 -0.03616,0.14032 -0.0047,0.0306 0.0039,0.0628 0,0.0935 -0.0082,0.0634 -0.02641,0.12406 -0.03616,0.18709 -0.0071,0.0459 0.006,0.0942 0,0.14032 -0.0082,0.0634 -0.02799,0.12368 -0.03616,0.18709 -0.0039,0.0308 0.0039,0.0628 0,0.0935 -0.0082,0.0634 -0.02642,0.12405 -0.03616,0.18709 -0.0024,0.0153 0.0024,0.0315 0,0.0468 0.03087,0.11879 -0.05383,0.18497 -0.07231,0.28063 -0.0059,0.0303 0,0.0624 0,0.0935 0,0.0468 0,0.0935 0,0.14031 0,0.0156 0.0054,0.0328 0,0.0468 -0.0077,0.0197 -0.03077,0.0258 -0.03616,0.0468 -0.01944,0.0754 -0.02605,0.15544 -0.03616,0.23386 -0.002,0.0154 0.0054,0.0328 0,0.0468 -0.0077,0.0197 -0.03203,0.0254 -0.03616,0.0468 -0.0051,0.0264 0.0094,0.19758 0,0.23386 -0.0085,0.0331 -0.02764,0.0605 -0.03616,0.0935 -0.01034,0.0401 0.0073,0.13962 0,0.18709 -0.0097,0.063 -0.02799,0.12368 -0.03616,0.18709 -0.01174,0.0911 0.0101,0.1892 0,0.28063 -0.0087,0.0787 -0.02853,0.15498 -0.03616,0.23386 -0.0045,0.0464 0.0088,0.0949 0,0.14032 -0.0041,0.0214 -0.03077,0.0258 -0.03616,0.0468 -0.0077,0.0296 0.0059,0.0633 0,0.0935 -0.0066,0.0338 -0.03088,0.0594 -0.03616,0.0935 -0.01854,0.11993 0.01854,0.25425 0,0.37417 -0.0033,0.0216 -0.03077,0.0258 -0.03616,0.0468 -0.0077,0.0296 0.0059,0.0633 0,0.0935 -0.0066,0.0338 -0.03087,0.0594 -0.03616,0.0935 -0.0071,0.0459 0,0.0935 0,0.14031 0,0.0156 0.0029,0.0317 0,0.0468 -0.0092,0.0478 -0.02868,0.092 -0.03616,0.14032 -0.0071,0.0459 0.0088,0.0949 0,0.14032 -0.0092,0.0478 -0.02868,0.092 -0.03616,0.14031 -0.05486,0.35487 0.05584,-0.0977 -0.03616,0.14032 -0.0054,0.0139 0.01205,0.0468 0,0.0468 -0.07524,0 -0.01455,-0.0656 -0.03616,-0.0935 -0.0085,-0.011 -0.0241,0 -0.03616,0 0,-0.0156 0.0054,-0.0328 0,-0.0468 -0.01524,-0.0394 -0.0534,-0.0569 -0.07231,-0.0935 -0.01495,-0.029 -0.0241,-0.0624 -0.03616,-0.0935 -0.01205,-0.0312 -0.02962,-0.0597 -0.03616,-0.0935 -0.0059,-0.0303 0.0077,-0.064 0,-0.0935 -0.0054,-0.0209 -0.0241,-0.0312 -0.03616,-0.0468 -0.0241,-0.0312 -0.05707,-0.0541 -0.07232,-0.0935 -0.01078,-0.0279 0.01078,-0.0657 0,-0.0935 -0.0054,-0.0139 -0.02764,0.011 -0.03616,0 -0.01705,-0.022 0.01705,-0.0715 0,-0.0935 -0.0085,-0.011 -0.02764,0.011 -0.03616,0 -0.01705,-0.022 0.01078,-0.0657 0,-0.0935 -0.0077,-0.0197 -0.0241,-0.0312 -0.03616,-0.0468 -0.01205,0 -0.03077,0.0139 -0.03616,0 0,-0.21292 0.01705,-0.003 -0.03616,-0.14032 -0.0054,-0.0139 0.0038,-0.032 0,-0.0468 -0.01705,-0.0661 -0.05527,-0.12095 -0.07231,-0.18709 -0.0038,-0.0148 0.0054,-0.0328 0,-0.0468 -0.0077,-0.0197 -0.03077,-0.0258 -0.03616,-0.0468 -0.0077,-0.0296 0,-0.0624 0,-0.0935 0,-0.0156 0.0054,-0.0328 0,-0.0468 -0.0077,-0.0197 -0.02853,-0.027 -0.03616,-0.0468 -0.0054,-0.014 0.0085,-0.0358 0,-0.0468 -0.0085,-0.011 -0.03077,0.0139 -0.03616,0 -0.01078,-0.0279 0.0059,-0.0633 0,-0.0935 -0.04366,-0.22586 -0.01719,0.002 -0.07232,-0.14032 -0.0112,-0.029 0.0107,-0.17325 0,-0.18708 -0.0085,-0.011 -0.03077,0.0139 -0.03616,0 -0.01446,-0.0374 0.01446,-0.1029 0,-0.14032 -0.0077,-0.0197 -0.02853,-0.027 -0.03616,-0.0468 -0.0054,-0.014 0.0054,-0.0328 0,-0.0468 -0.0077,-0.0197 -0.02853,-0.027 -0.03616,-0.0468 -0.01198,-0.031 0.0101,-0.14789 0,-0.18709 -0.0085,-0.0331 -0.02962,-0.0597 -0.03616,-0.0935 -0.0069,-0.0356 0,-0.1947 0,-0.23386 0,-0.0156 0.0085,-0.0358 0,-0.0468 -0.0085,-0.011 -0.02764,0.011 -0.03616,0 -0.0099,-0.0128 0.0098,-0.16172 0,-0.18709 -0.0077,-0.0197 -0.02853,-0.027 -0.03616,-0.0468 -0.01249,-0.0323 0.01269,-0.21744 0,-0.23386 -0.0085,-0.011 -0.03077,0.014 -0.03616,0 -0.0053,-0.0137 0,-0.24235 0,-0.28063 0,-0.0156 0.0054,-0.0328 0,-0.0468 -0.0077,-0.0197 -0.02853,-0.027 -0.03616,-0.0468 -0.0054,-0.0139 0.0054,-0.0328 0,-0.0468 -0.0077,-0.0197 -0.02853,-0.0271 -0.03616,-0.0468 -0.0098,-0.0254 0.0099,-0.17429 0,-0.18708 -0.0085,-0.011 -0.02764,0.011 -0.03616,0 -0.0087,-0.0113 0.0087,-0.17584 0,-0.18709 -0.0085,-0.011 -0.02764,0.011 -0.03616,0 -0.0056,-0.007 0.0047,-0.12212 0,-0.14032 -0.0085,-0.0331 -0.02962,-0.0597 -0.03616,-0.0935 -0.0059,-0.0303 0,-0.0624 0,-0.0935 -0.01205,-0.0312 -0.02764,-0.0605 -0.03616,-0.0935 -0.0066,-0.0258 0.0077,-0.17709 0,-0.18709 -0.0085,-0.011 -0.02764,0.011 -0.03616,0 -0.0085,-0.011 0.0054,-0.0328 0,-0.0468 -0.0077,-0.0197 -0.02853,-0.0271 -0.03616,-0.0468 -0.0072,-0.0185 0.0074,-0.13075 0,-0.14031 -0.0085,-0.011 -0.02764,0.011 -0.03616,0 -0.01808,-0.0234 0.01808,-0.11693 0,-0.14032 -0.0085,-0.011 -0.02764,0.011 -0.03616,0 -0.01705,-0.022 0.01078,-0.0657 0,-0.0935 -0.0077,-0.0197 -0.02853,-0.0271 -0.03616,-0.0468 -0.0054,-0.0139 0.0054,-0.0328 0,-0.0468 -0.0077,-0.0197 -0.03077,-0.0258 -0.03616,-0.0468 -0.0077,-0.0296 0,-0.0624 0,-0.0935 0,-0.0156 0.0054,-0.0328 0,-0.0468 -0.0077,-0.0197 -0.02853,-0.027 -0.03616,-0.0468 -0.01078,-0.0279 0.01705,-0.0715 0,-0.0935 -0.0085,-0.011 -0.02764,0.011 -0.03616,0 -0.0085,-0.011 0.0054,-0.0328 0,-0.0468 -0.0077,-0.0197 -0.02853,-0.027 -0.03616,-0.0468 -0.01078,-0.0279 0.01705,-0.0715 0,-0.0935 -0.0085,-0.011 -0.02764,0.011 -0.03616,0 -0.01808,-0.0234 0.01808,-0.11693 0,-0.14032 -0.0085,-0.011 -0.02764,0.011 -0.03616,0 -0.01705,-0.022 0.01705,-0.0715 0,-0.0935 -0.0085,-0.011 -0.02764,0.011 -0.03616,0 -0.09649,-0.12482 0.09649,0.0313 0,-0.0935 -0.0085,-0.011 -0.02764,0.011 -0.03616,0 -0.01705,-0.022 0.01705,-0.0715 0,-0.0935 -0.0085,-0.011 -0.02764,0.011 -0.03616,0 -0.0085,-0.011 0,-0.0312 0,-0.0468 0,-0.0156 0,-0.0312 0,-0.0468"
       id="path5742-4"
       inkscape:connector-curvature="0" />
  </g>
  <g
     inkscape:label="Capa 1"
     inkscape:groupmode="layer"
     id="layer1"
     transform="translate(0,-244.08332)">
    <path
       style="fill:#cccccc;fill-opacity:1;stroke:none;stroke-width:0.26458332px;stroke-linecap:butt;stroke-linejoin:miter;stroke-opacity:1"
       d="m 20.6967,282.61649 c -0.04677,-0.0624 -0.105455,-0.11736 -0.140317,-0.18709 -0.04183,-0.0369 0.02092,-0.0985 0,-0.14032 -0.01972,-0.0394 -0.0796,-0.0517 -0.09354,-0.0935 -0.0099,-0.0296 0.0061,-0.063 0,-0.0935 -0.04866,-0.24332 -0.03118,-0.0468 -0.09354,-0.23387 -0.0049,-0.0148 0.007,-0.0328 0,-0.0468 -0.0099,-0.0197 -0.0398,-0.0258 -0.04677,-0.0468 -0.04677,-0.14032 0.02339,-0.0468 0,-0.14032 -0.01196,-0.0478 -0.02472,-0.0962 -0.04677,-0.14031 -0.0099,-0.0197 -0.04142,-0.0254 -0.04677,-0.0468 -0.01219,-0.0488 0.0056,-0.33502 0,-0.37417 -0.007,-0.0488 -0.03481,-0.0925 -0.04677,-0.14032 -0.0038,-0.0151 0,-0.0312 0,-0.0468 -0.01559,-0.0779 -0.02493,-0.15742 -0.04677,-0.23386 -0.0096,-0.0335 -0.03832,-0.0597 -0.04677,-0.0935 -0.0076,-0.0303 0,-0.0624 0,-0.0936 -0.03118,-0.0935 -0.06646,-0.18582 -0.09354,-0.28063 -0.01285,-0.045 0.0077,-0.0942 0,-0.14032 -0.06483,-0.38896 -0.01282,-0.0385 -0.09354,-0.28063 -0.0049,-0.0148 0.0049,-0.032 0,-0.0468 -0.01103,-0.0331 -0.03383,-0.0612 -0.04677,-0.0935 -0.01831,-0.0458 -0.02846,-0.0945 -0.04677,-0.14032 -0.01295,-0.0324 -0.03832,-0.0597 -0.04677,-0.0935 -0.0076,-0.0302 0,-0.0624 0,-0.0935 0,-0.0797 0.0049,-0.0837 -0.04677,-0.18709 -0.110434,-0.22087 0.0246,0.28547 -0.09355,-0.18709 -0.0138,-0.0552 0.0096,-0.12962 0,-0.18709 -0.01307,-0.0784 -0.0337,-0.15544 -0.04677,-0.23386 -0.0026,-0.0154 0.0049,-0.032 0,-0.0468 -0.01103,-0.0331 -0.03832,-0.0597 -0.04677,-0.0935 -0.0076,-0.0303 0.0076,-0.0633 0,-0.0935 -0.0085,-0.0338 -0.03832,-0.0597 -0.04677,-0.0935 -0.0076,-0.0303 0,-0.0624 0,-0.0935 0,-0.0468 0.0058,-0.0939 0,-0.14032 -0.0099,-0.0789 -0.03553,-0.15516 -0.04677,-0.23386 -0.0044,-0.0309 0.0061,-0.063 0,-0.0935 0.01073,-0.0939 -0.07318,-0.15241 -0.09354,-0.23386 -0.01593,-0.0637 0.01886,-0.22405 0,-0.28064 -0.007,-0.0209 -0.0398,-0.0258 -0.04677,-0.0468 -0.0099,-0.0296 0.0061,-0.063 0,-0.0935 -0.10882,-0.5441 0.02241,0.4375 -0.09354,-0.37418 -0.0044,-0.0309 0,-0.0624 0,-0.0936 -0.01559,-0.0468 -0.03481,-0.0925 -0.04677,-0.14031 -0.0038,-0.0151 0.0049,-0.032 0,-0.0468 -0.01103,-0.0331 -0.03994,-0.0594 -0.04677,-0.0935 0,-0.33174 0.03307,-0.0274 -0.04677,-0.18709 -0.007,-0.0139 0,-0.0312 0,-0.0468 0,-0.0468 0,-0.0935 0,-0.14031 0,-0.0312 0.0099,-0.064 0,-0.0935 -0.007,-0.0209 -0.0398,-0.0258 -0.04677,-0.0468 -0.02958,-0.042 0.01479,-0.0959 0,-0.14032 -0.01103,-0.0331 -0.03993,-0.0594 -0.04677,-0.0935 -0.0092,-0.0459 0,-0.0935 0,-0.14032 0,-0.0468 0,-0.0935 0,-0.14031 0,-0.0156 0.0038,-0.0317 0,-0.0468 -0.01196,-0.0478 -0.03867,-0.0917 -0.04677,-0.14031 -0.0077,-0.0461 0,-0.0935 0,-0.14032 0,-0.0156 0.0038,-0.0317 0,-0.0468 -0.01196,-0.0478 -0.03482,-0.0925 -0.04677,-0.14032 -0.0038,-0.0151 0,-0.0312 0,-0.0468 0,-0.0468 0.0092,-0.0944 0,-0.14032 -0.0068,-0.0342 -0.03575,-0.0605 -0.04677,-0.0935 -0.0099,-0.0296 0,-0.0624 0,-0.0935 0,-0.14031 0,-0.28063 0,-0.42095 0,-0.37417 0,-0.74835 0,-1.12253 0,-1.18489 0,-2.36979 0,-3.55468 0,-0.57686 0,-1.15372 0,-1.73057 0,-0.21827 0,-0.43654 0,-0.65481 0,-0.0383 -0.0101,-0.20356 0,-0.23386 0.01103,-0.0331 0.03832,-0.0597 0.04677,-0.0935 0.01891,-0.0756 -0.01529,-0.15742 0,-0.23386 0.0068,-0.0342 0.03832,-0.0597 0.04677,-0.0935 0.01891,-0.0756 -0.01529,-0.15742 0,-0.23386 0.0068,-0.0342 0.03993,-0.0594 0.04677,-0.0935 0.0092,-0.0459 -0.0077,-0.0942 0,-0.14032 0.0085,-0.0508 0.08507,-0.22978 0.09354,-0.28063 0.0205,-0.12303 -0.01764,-0.2507 0,-0.37418 0.0049,-0.0345 0.03383,-0.0612 0.04677,-0.0935 0.01831,-0.0458 0.03118,-0.0935 0.04677,-0.14032 0.128188,-0.38456 -0.01643,0.0986 0.04677,-0.28063 0.02939,-0.17634 0.05951,-0.11902 0.140316,-0.28063 0.107667,-0.21534 0.003,-0.0619 0.04677,-0.28064 0.01367,-0.0684 0.0715,-0.12094 0.09354,-0.18708 0.04641,-0.13924 -0.110751,0.096 0.04677,-0.14032 0.07135,-0.10703 0.03702,0.0292 0.09354,-0.14032 0.0099,-0.0296 -0.01395,-0.0657 0,-0.0935 0.0099,-0.0197 0.03691,-0.0271 0.04677,-0.0468 0.007,-0.0139 -0.007,-0.0328 0,-0.0468 0.107029,-0.21405 -0.01939,0.19848 0.09354,-0.14031 0.0049,-0.0148 -0.007,-0.0328 0,-0.0468 0.02073,-0.0415 0.111931,-0.0977 0.140316,-0.14032 0.01934,-0.029 0.02743,-0.0645 0.04677,-0.0935 0.01223,-0.0183 0.0398,-0.0259 0.04677,-0.0468 0.0099,-0.0296 -0.0173,-0.0676 0,-0.0935 0.01934,-0.029 0.07421,-0.0178 0.09354,-0.0468 0.0173,-0.0259 -0.0076,-0.0633 0,-0.0935 0.0085,-0.0338 0.02743,-0.0645 0.04677,-0.0935 0.02446,-0.0367 0.07382,-0.0541 0.09354,-0.0935 0.02205,-0.0441 0.02472,-0.0962 0.04677,-0.14031 0.0083,-0.0167 0.0852,-0.0769 0.09354,-0.0935 0.02205,-0.0441 0.03482,-0.0925 0.04677,-0.14031 0.0038,-0.0151 -0.01103,-0.0358 0,-0.0468 0.02465,-0.0246 0.06889,-0.0221 0.09354,-0.0468 0.226409,-0.22641 -0.101426,0.0352 0.04677,-0.18709 0.01934,-0.029 0.06236,-0.0312 0.09355,-0.0468 0,-0.0468 -0.01135,-0.0949 0,-0.14032 0.01801,-0.072 0.111497,-0.0359 0.140316,-0.0935 0.02092,-0.0418 -0.01479,-0.0959 0,-0.14032 0.0049,-0.0148 0.03575,0.011 0.04677,0 0.01103,-0.011 -0.0087,-0.0338 0,-0.0468 0.02446,-0.0367 0.06236,-0.0624 0.09354,-0.0935 0.01559,-0.0156 0.03691,-0.027 0.04677,-0.0468 0.01394,-0.0279 -0.01395,-0.0657 0,-0.0935 0.0099,-0.0197 0.03691,-0.0271 0.04677,-0.0468 0.007,-0.014 -0.01103,-0.0358 0,-0.0468 0.01103,-0.011 0.03575,0.011 0.04677,0 0.01103,-0.011 -0.007,-0.0328 0,-0.0468 0.01972,-0.0394 0.06908,-0.0568 0.09354,-0.0935 0.01934,-0.029 0.02743,-0.0645 0.04677,-0.0935 0.01223,-0.0183 0.03118,-0.0312 0.04677,-0.0468 0.05091,-0.0509 0.152225,-0.13479 0.187089,-0.18709 0.0086,-0.013 -0.007,-0.0328 0,-0.0468 0.01972,-0.0394 0.07382,-0.0541 0.09354,-0.0935 0.007,-0.0139 -0.01103,-0.0357 0,-0.0468 0.01103,-0.011 0.03283,0.007 0.04677,0 0.01972,-0.01 0.03118,-0.0312 0.04677,-0.0468 0.02751,-0.0275 0.165429,-0.17626 0.187088,-0.18709 0.01395,-0.007 0.03575,0.011 0.04677,0 0.01103,-0.011 -0.01103,-0.0357 0,-0.0468 0.01103,-0.011 0.03575,0.011 0.04677,0 0.01103,-0.011 -0.01103,-0.0358 0,-0.0468 0.02465,-0.0247 0.06889,-0.0221 0.09355,-0.0468 0.01103,-0.011 -0.01103,-0.0358 0,-0.0468 0.01103,-0.011 0.03575,0.011 0.04677,0 0.01103,-0.011 -0.01103,-0.0358 0,-0.0468 0.02205,-0.022 0.0715,0.0221 0.09354,0 0.09677,-0.0968 -0.147882,0.004 0.04677,-0.0935 0.02789,-0.014 0.0715,0.022 0.09354,0 0.09677,-0.0968 -0.147883,0.004 0.04677,-0.0935 0.01394,-0.007 0.03283,0.007 0.04677,0 0.01972,-0.01 0.02705,-0.0369 0.04677,-0.0468 0.01395,-0.007 0.03283,0.007 0.04677,0 0.01972,-0.01 0.02705,-0.0369 0.04677,-0.0468 0.01394,-0.007 0.03283,0.007 0.04677,0 0.03944,-0.0197 0.0541,-0.0738 0.09354,-0.0935 0.01394,-0.007 0.03198,0.005 0.04677,0 0.338791,-0.11293 -0.07374,0.0135 0.140317,-0.0935 0.01394,-0.007 0.03283,0.007 0.04677,0 0.01972,-0.01 0.02705,-0.0369 0.04677,-0.0468 0.01394,-0.007 0.03118,0 0.04677,0 0.03118,-0.0156 0.06454,-0.0274 0.09354,-0.0468 0.01835,-0.0122 0.02585,-0.0398 0.04677,-0.0468 0.02958,-0.01 0.06396,0.01 0.09354,0 0.02092,-0.007 0.02585,-0.0398 0.04677,-0.0468 0.02958,-0.01 0.06396,0.01 0.09354,0 0.02092,-0.007 0.02705,-0.0369 0.04677,-0.0468 0.01395,-0.007 0.03283,0.007 0.04677,0 0.01972,-0.01 0.02705,-0.0369 0.04677,-0.0468 0.01395,-0.007 0.03118,0 0.04677,0 0.06962,0 0.0597,0.007 0.140317,-0.0468 0.01835,-0.0122 0.02585,-0.0398 0.04677,-0.0468 0.05916,-0.0197 0.126588,0.0151 0.187089,0 0.03382,-0.008 0.06047,-0.0357 0.09354,-0.0468 0.02958,-0.01 0.06565,0.014 0.09354,0 0.01972,-0.01 0.02585,-0.0398 0.04677,-0.0468 0.03182,-0.0106 0.209061,0.0124 0.233861,0 0.01972,-0.01 0.02705,-0.0369 0.04677,-0.0468 0.01395,-0.007 0.03118,0 0.04677,0 0.01559,0 0.03118,0 0.04677,0 0.03546,0 0.349094,0.008 0.374177,0 0.02092,-0.007 0.02705,-0.0369 0.04677,-0.0468 0.0149,-0.007 0.19206,0 0.233861,0 0.171498,0 0.342996,0 0.514494,0 0.420949,0 0.841899,0 1.262847,0 0.124728,0 0.249452,0 0.374179,0 0.04677,0 0.09354,0 0.140317,0 0.04677,0 0.09445,-0.009 0.140316,0 0.03419,0.007 0.05936,0.0399 0.09354,0.0468 0.04586,0.009 0.09418,-0.008 0.140316,0 0.09726,0.0162 0.183944,0.0742 0.280633,0.0935 0.05962,0.0119 0.23323,-0.0158 0.280633,0 0.02093,0.007 0.03118,0.0312 0.04677,0.0468 0.03118,0.0156 0.05972,0.0383 0.09354,0.0468 0.04538,0.0113 0.09595,-0.0148 0.140316,0 0.03307,0.011 0.06118,0.0338 0.09355,0.0468 0.04578,0.0183 0.09454,0.0285 0.140317,0.0468 0.0956,0.0382 0.188502,0.0942 0.280633,0.14032 0.219376,0.10969 -0.05512,-0.0221 0.23386,0.0935 0.03237,0.0129 0.06047,0.0358 0.09354,0.0468 0.0864,0.0288 0.02217,-0.0714 0.140317,0.0468 0.02466,0.0247 0.02212,0.0689 0.04677,0.0935 0.01103,0.011 0.03283,-0.007 0.04677,0 0.05028,0.0251 0.09004,0.0684 0.140316,0.0935 0.01394,0.007 0.03575,-0.011 0.04677,0 0.02466,0.0247 0.02212,0.0689 0.04677,0.0935 0.02466,0.0247 0.06454,0.0274 0.09354,0.0468 0.01834,0.0122 0.03118,0.0312 0.04677,0.0468 0.03118,0.0156 0.06365,0.0288 0.09354,0.0468 0.45579,0.27347 -0.01598,-0.012 0.18709,0.14031 0.04497,0.0337 0.09535,0.0598 0.140316,0.0935 0.14327,0.10745 -0.07669,-0.0299 0.09354,0.14031 0.02466,0.0247 0.0689,0.0221 0.09355,0.0468 0.02466,0.0247 0.02212,0.0689 0.04677,0.0935 0.01103,0.011 0.0338,-0.009 0.04677,0 0.03669,0.0245 0.06236,0.0624 0.09354,0.0935 0.07795,0.078 0.155908,0.15591 0.233862,0.23387 0.01558,0.0156 0.02843,0.0345 0.04677,0.0468 0.02901,0.0193 0.0689,0.0221 0.09355,0.0468 0.02466,0.0247 0.02743,0.0645 0.04677,0.0935 0.03598,0.054 0.104339,0.0864 0.140317,0.14032 0.01934,0.029 0.02743,0.0645 0.04677,0.0935 0.02445,0.0367 0.06908,0.0569 0.09354,0.0935 0.01934,0.029 0.02744,0.0645 0.04677,0.0935 0.01222,0.0183 0.03118,0.0312 0.04677,0.0468 0.06578,0.0658 0.08743,0.0813 0.140317,0.18708 0.007,0.014 -0.007,0.0328 0,0.0468 0.0099,0.0197 0.0398,0.0258 0.04677,0.0468 0.0099,0.0296 -0.0173,0.0676 0,0.0935 0.01934,0.029 0.06454,0.0274 0.09355,0.0468 0.09402,0.0627 0.01114,0.0334 0.04677,0.14031 0.01394,0.0418 0.08285,0.0508 0.09355,0.0935 0.01135,0.0454 -0.01738,0.0969 0,0.14031 0.07614,0.0761 0.107069,0.0874 0.140316,0.18709 0.0049,0.0148 -0.0049,0.032 0,0.0468 0.06236,0.18709 0.04488,-0.009 0.09354,0.23386 0.0061,0.0306 -0.0099,0.064 0,0.0936 0.007,0.0209 0.03691,0.027 0.04677,0.0468 0.02204,0.0441 0.03118,0.0935 0.04677,0.14032 0.03118,0.0935 0.06963,0.18497 0.09355,0.28063 0.0038,0.0151 -0.0049,0.032 0,0.0468 0.01103,0.0331 0.03575,0.0605 0.04677,0.0935 0.0049,0.0148 -0.0038,0.0316 0,0.0468 0.01196,0.0478 0.03482,0.0925 0.04677,0.14032 0.0038,0.0151 -0.0038,0.0316 0,0.0468 0.01196,0.0478 0.03481,0.0925 0.04677,0.14031 0.0038,0.0151 -0.0049,0.032 0,0.0468 0.01103,0.0331 0.03832,0.0597 0.04677,0.0935 0.0076,0.0302 -0.0051,0.0628 0,0.0935 0.01056,0.0634 0.03621,0.12369 0.04677,0.18709 0.0051,0.0308 -0.0051,0.0628 0,0.0935 0.01056,0.0634 0.03417,0.12405 0.04677,0.18709 0.003,0.0153 -0.0031,0.0315 0,0.0468 0.01262,0.063 0.0362,0.12368 0.04677,0.18709 0.0149,0.0894 -0.02188,0.19313 0,0.28063 0.0053,0.0214 0.0398,0.0259 0.04677,0.0468 0.0099,0.0296 -0.0061,0.063 0,0.0935 0.0097,0.0483 0.0371,0.092 0.04677,0.14031 0.0061,0.0306 -0.0061,0.063 0,0.0935 0.0097,0.0483 0.0371,0.092 0.04677,0.14031 0.0092,0.0459 -0.0092,0.0945 0,0.14032 0.01259,0.063 0.03417,0.12406 0.04677,0.18709 0.0092,0.0459 0,0.0935 0,0.14032 0,0.10913 0,0.21827 0,0.3274 0,0.0305 -0.0092,0.15024 0,0.18709 0.01196,0.0478 0.03481,0.0925 0.04677,0.14032 0.0038,0.0151 0,0.0312 0,0.0468 0,0.0935 0,0.18709 0,0.28063 0,0.18709 0,0.37418 0,0.56127 0,0.57685 0,1.15371 0,1.73057 0,0.18709 0,0.37417 0,0.56126 0,0.0312 0,0.0624 0,0.0935 0,0.0312 -0.0099,0.064 0,0.0935 0.007,0.0209 0.03691,0.027 0.04677,0.0468 0.007,0.014 0,0.0312 0,0.0468 0,0.0779 0,0.1559 0,0.23386 0,0.18709 0,0.37418 0,0.56126 0,0.46772 0,0.93545 0,1.40317 0,0.42095 0,0.8419 0,1.26285 0,0.12472 0,0.24945 0,0.37417 0,0.0624 0.01027,0.12558 0,0.18709 -0.0057,0.0344 -0.03832,0.0597 -0.04677,0.0935 -0.01834,0.0733 0.01246,0.15909 0,0.23386 -0.01307,0.0784 -0.03553,0.15516 -0.04677,0.23386 -0.01016,0.0712 0.01551,0.21866 0,0.28063 -0.0085,0.0338 -0.03118,0.0624 -0.04677,0.0935 -0.01558,0.0624 -0.03416,0.12405 -0.04677,0.18709 -0.0077,0.0386 0.01146,0.16415 0,0.18708 -0.0099,0.0197 -0.03691,0.0271 -0.04677,0.0468 -0.01241,0.0248 0.01061,0.20204 0,0.23386 -0.007,0.0209 -0.0398,0.0258 -0.04677,0.0468 -0.008,0.0239 0,0.24719 0,0.28063 0,0.0156 0.007,0.0328 0,0.0468 -0.0099,0.0197 -0.0398,0.0258 -0.04677,0.0468 -0.0099,0.0296 0,0.0624 0,0.0935 0,0.0156 0.007,0.0328 0,0.0468 -0.0099,0.0197 -0.03691,0.027 -0.04677,0.0468 -0.007,0.014 0,0.0312 0,0.0468 0,0.0156 0,0.0312 0,0.0468 0,0.0624 0,0.12473 0,0.18709 0,0.0312 0,0.0624 0,0.0935 0,0.0156 0.007,0.0328 0,0.0468 -0.0099,0.0197 -0.0398,0.0258 -0.04677,0.0468 -0.0099,0.0296 0,0.0624 0,0.0935 0,0.0156 0.007,0.0328 0,0.0468 -0.0099,0.0197 -0.03691,0.027 -0.04677,0.0468 -0.007,0.014 0.0038,0.0317 0,0.0468 -0.01196,0.0478 -0.0371,0.092 -0.04677,0.14031 -0.0681,0.34052 0.09729,-0.25259 0,0.23386 -0.0068,0.0342 -0.03832,0.0597 -0.04677,0.0935 -0.0076,0.0303 0,0.0624 0,0.0935 -0.01558,0.0312 -0.03575,0.0605 -0.04677,0.0935 -0.01384,0.0415 0.01532,0.20323 0,0.23386 -0.0099,0.0197 -0.03691,0.0271 -0.04677,0.0468 -0.0071,0.0142 0,0.11925 0,0.14032 0,0.0935 0,0.18709 0,0.28063 0,0.0197 0.007,0.26672 0,0.28063 -0.0099,0.0197 -0.03691,0.0271 -0.04677,0.0468 -0.007,0.014 0,0.0312 0,0.0468 0,0.0312 0.0076,0.0633 0,0.0935 -0.0084,0.0338 -0.03575,0.0605 -0.04677,0.0935 -0.0049,0.0148 0.0049,0.032 0,0.0468 -0.01103,0.0331 -0.03575,0.0605 -0.04677,0.0935 -0.0099,0.0296 0,0.0624 0,0.0935 0,0.0624 0,0.12472 0,0.18709 0,0.0156 0,0.0312 0,0.0468 0,0.0156 0.007,0.0328 0,0.0468 -0.0099,0.0197 -0.03691,0.0271 -0.04677,0.0468 -0.01408,0.0282 0.01363,0.23975 0,0.28064 -0.01103,0.0331 -0.03575,0.0605 -0.04677,0.0935 -0.0099,0.0296 0.01394,0.0657 0,0.0935 -0.0099,0.0197 -0.03691,0.0271 -0.04677,0.0468 -0.01476,0.0295 0.01476,0.20435 0,0.23386 -0.05779,0.11559 -0.04677,-0.0161 -0.04677,0.0935 0,0.0211 0.0071,0.12608 0,0.14032 -0.0099,0.0197 -0.03691,0.0271 -0.04677,0.0468 -0.007,0.0139 0.007,0.0328 0,0.0468 -0.0099,0.0197 -0.03691,0.027 -0.04677,0.0468 -0.01394,0.0279 0.01394,0.0656 0,0.0935 -0.0099,0.0197 -0.03691,0.0271 -0.04677,0.0468 -0.01394,0.0279 0.01394,0.0657 0,0.0935 -0.01659,0.0332 -0.07694,0.0604 -0.09354,0.0935 -0.01394,0.0279 0.01394,0.0657 0,0.0935 -0.0099,0.0197 -0.03691,0.0271 -0.04677,0.0468 -0.01394,0.0279 0.01394,0.0657 0,0.0935 -0.0099,0.0197 -0.03691,0.0271 -0.04677,0.0468 -0.007,0.0139 0.01103,0.0358 0,0.0468 -0.01103,0.011 -0.0398,-0.0139 -0.04677,0 -0.01394,0.0279 0.01394,0.0657 0,0.0935 -0.007,0.0139 -0.03575,-0.011 -0.04677,0 -0.02204,0.022 0.02204,0.0715 0,0.0935 -0.01103,0.011 -0.03575,-0.011 -0.04677,0 -0.02204,0.022 0.02204,0.0715 0,0.0935 -0.01103,0.011 -0.03575,-0.011 -0.04677,0 -0.01103,0.011 0.01103,0.0358 0,0.0468 -0.01103,0.011 -0.03575,-0.011 -0.04677,0 -0.02204,0.022 0.01394,0.0657 0,0.0935 -0.0099,0.0197 -0.03691,0.0271 -0.04677,0.0468 -0.007,0.0139 0.01103,0.0357 0,0.0468 -0.01103,0.011 -0.03575,-0.011 -0.04677,0 -0.01103,0.011 0.007,0.0328 0,0.0468 -0.09961,0.19922 0.0061,-0.10567 -0.09354,0.0935 -0.007,0.014 0.01103,0.0358 0,0.0468 -0.01103,0.011 -0.03575,-0.011 -0.04677,0 -0.01103,0.011 0.01103,0.0357 0,0.0468 -0.09677,0.0968 0.0038,-0.14788 -0.09354,0.0468 -0.007,0.0139 0.01103,0.0358 0,0.0468 -0.01103,0.011 -0.03575,-0.011 -0.04677,0 -0.01103,0.011 0.01103,0.0358 0,0.0468 -0.01103,0.011 -0.03283,-0.007 -0.04677,0 -0.01971,0.01 -0.02705,0.0369 -0.04677,0.0468 -0.06452,0.0323 -0.04184,-0.0566 -0.09355,0.0468 -0.007,0.0139 0.01103,0.0358 0,0.0468 -0.02204,0.022 -0.07149,-0.022 -0.09354,0 -0.01103,0.011 0.01103,0.0358 0,0.0468 -0.02204,0.022 -0.0715,-0.022 -0.09354,0 -0.01103,0.011 0.01103,0.0358 0,0.0468 -0.01103,0.011 -0.03575,-0.011 -0.04677,0 -0.01103,0.011 0.01394,0.0398 0,0.0468 -0.02789,0.0139 -0.06565,-0.0139 -0.09354,0 -0.01394,0.007 0.01103,0.0358 0,0.0468 -0.02204,0.022 -0.06566,-0.0139 -0.09355,0 -0.01971,0.01 -0.02705,0.0369 -0.04677,0.0468 -0.0294,0.0147 -0.157691,-0.0147 -0.187089,0 -0.01394,0.007 0.01103,0.0358 0,0.0468 -0.01281,0.0128 -0.161716,-0.0127 -0.18709,0 -0.01971,0.01 -0.02705,0.0369 -0.04677,0.0468 -0.03231,0.0162 -0.217445,-0.0164 -0.233863,0 -0.01103,0.011 0.01103,0.0357 0,0.0468 -0.01103,0.011 -0.03118,0 -0.04677,0 -0.01558,0 -0.03118,0 -0.04677,0 -0.07795,0 -0.155908,0 -0.23386,0 -0.01558,0 -0.03118,0 -0.04677,0 -0.01558,0 -0.03283,-0.007 -0.04677,0 -0.01971,0.01 -0.02705,0.0369 -0.04677,0.0468 -0.01423,0.007 -0.119253,0 -0.140317,0 -0.202681,0 -0.40536,0 -0.608039,0 -0.04531,0 -0.252743,-0.009 -0.280633,0 -0.03307,0.011 -0.06047,0.0358 -0.09355,0.0468 -0.01479,0.005 -0.03118,0 -0.04677,0 -0.02612,0 -0.21245,-0.007 -0.233863,0 -0.0209,0.007 -0.02585,0.0398 -0.04677,0.0468 -0.02588,0.009 -0.233532,0 -0.280633,0 -0.109135,0 -0.218271,0 -0.327406,0 -0.03118,0 -0.06396,-0.01 -0.09354,0 -0.02093,0.007 -0.02705,0.0369 -0.04677,0.0468 -0.01392,0.007 -0.260958,0 -0.280633,0 -0.233859,0 -0.467721,0 -0.701582,0 -0.21827,0 -0.43654,0 -0.65481,0 -0.0057,0 -0.402564,0.006 -0.42095,0 -0.02092,-0.007 -0.02705,-0.0369 -0.04677,-0.0468 -0.01209,-0.006 -0.247481,0 -0.280633,0 -0.202679,0 -0.405359,0 -0.608038,0 -0.280633,0 -0.561266,0 -0.841899,0 -0.124726,0 -0.249452,0 -0.374177,0 -0.04677,0 -0.09595,-0.0148 -0.140317,0 -0.02092,0.007 -0.02705,0.0369 -0.04677,0.0468 -0.01998,0.01 -0.215371,0 -0.233861,0 -0.140316,0 -0.280633,0 -0.420949,0 -0.405359,0 -0.810718,0 -1.216077,0 -0.06236,0 -0.124726,0 -0.187088,0 -0.01559,0 -0.03742,0.0125 -0.04677,0 -0.04183,-0.0558 -0.0259,-0.17018 -0.09354,-0.18709 -0.09566,-0.0239 -0.185823,0.0665 -0.280633,0.0935 -0.0698,0.0199 -0.03436,-0.0172 -0.09354,-0.0468 -0.02789,-0.0139 -0.0715,0.022 -0.09354,0 -0.06236,-0.0624 0.07795,-0.0468 -0.04677,-0.0468"
       id="path5691"
       inkscape:connector-curvature="0" />
    <path
       style="fill:#5a5a5a;fill-opacity:1;stroke:none;stroke-width:0.26458332px;stroke-linecap:butt;stroke-linejoin:miter;stroke-opacity:1"
       d="m 22.73034,282.43035 c -0.28278,0.0539 -0.559626,0.13063 -0.841899,0.18709 -0.170925,0.0342 -0.343569,0.0594 -0.514494,0.0935 -0.06303,0.0126 -0.123125,0.0404 -0.187089,0.0468 -0.13962,0.014 -0.280633,0 -0.420949,0 -0.06236,0 -0.125575,-0.0102 -0.187089,0 -0.03439,0.006 -0.06118,0.0338 -0.09354,0.0468 -0.04578,0.0183 -0.09249,0.0348 -0.140317,0.0468 -0.01513,0.004 -0.03198,-0.005 -0.04677,0 -0.03307,0.011 -0.06454,0.0274 -0.09354,0.0468 -0.01983,0.0132 -0.130641,0.12096 -0.140317,0.14032 -0.01871,0.0374 0.01871,0.10289 0,0.14031 -0.0099,0.0197 -0.03691,0.0271 -0.04677,0.0468 -0.0035,0.007 -0.0034,0.17681 0,0.18708 0.03687,0.11061 0.08891,0.138 0.187089,0.18709 0.03118,0.0156 0.06889,0.0221 0.09354,0.0468 0.01103,0.011 -0.01103,0.0358 0,0.0468 0.08027,0.0803 0.132625,0.0299 0.233861,0.0468 0.04863,0.008 0.09169,0.0387 0.140316,0.0468 0.04614,0.008 0.09355,0 0.140317,0 0.04677,0 0.09354,0 0.140317,0 0.124725,0 0.249451,0 0.374177,0 0.07795,0 0.156227,0.007 0.233861,0 0.08592,-0.008 0.416596,-0.0718 0.514493,-0.0935 0.06275,-0.014 0.124055,-0.0342 0.187089,-0.0468 0.09354,-0.0156 0.187089,-0.0312 0.280633,-0.0468 0.06236,0 0.125353,0.009 0.187089,0 0.04881,-0.007 0.09291,-0.0332 0.140316,-0.0468 0.06181,-0.0177 0.1269,-0.0242 0.187089,-0.0468 0.136312,-0.0511 0.188029,-0.11709 0.327405,-0.14032 0.09227,-0.0154 0.188905,0.0183 0.280633,0 0.03418,-0.007 0.06118,-0.0338 0.09354,-0.0468 0.04578,-0.0183 0.09454,-0.0285 0.140317,-0.0468 0.03237,-0.0129 0.06047,-0.0358 0.09354,-0.0468 0.03217,-0.0107 0.11272,0.0138 0.140317,0 0.01972,-0.01 0.02705,-0.0369 0.04677,-0.0468 0.01394,-0.007 0.03575,0.011 0.04677,0 0.0015,-0.002 0,-0.12897 0,-0.14031 0,-0.0642 0.02455,-0.15143 -0.04677,-0.18709 -0.0441,-0.022 -0.0993,-0.0194 -0.140317,-0.0468 -0.01297,-0.009 0.01297,-0.0381 0,-0.0468 -0.0017,-0.001 -0.27209,-0.0901 -0.280634,-0.0935 -0.205652,-0.0823 0.02797,-0.0388 -0.327404,-0.14032 -0.02998,-0.009 -0.06268,0.004 -0.09355,0 -0.0787,-0.0112 -0.155162,-0.0355 -0.233861,-0.0468 -0.03087,-0.004 -0.0626,0.004 -0.09354,0 -0.187441,-0.0234 -0.544204,-0.0974 -0.701583,-0.14032 -0.342996,-0.0935 0.229944,-7.9e-4 -0.233861,-0.0935 -0.03057,-0.006 -0.06236,0 -0.09354,0 -0.01559,0 -0.03575,-0.011 -0.04677,0 -0.01103,0.011 0.01559,0.0468 0,0.0468 -0.01559,0 0,-0.0312 0,-0.0468"
       id="path5687"
       inkscape:connector-curvature="0" />
    <path
       style="fill:#545454;fill-opacity:1;stroke:none;stroke-width:0.26458332px;stroke-linecap:butt;stroke-linejoin:miter;stroke-opacity:1"
       d="m 29.608299,282.12441 c -0.527389,0.10548 0.08848,-0.039 -0.514496,0.18709 -0.02919,0.0109 -0.06236,0 -0.09354,0 -0.09354,0.0312 -0.19244,0.0494 -0.280633,0.0935 -0.03944,0.0197 -0.05225,0.0781 -0.09354,0.0935 -0.0888,0.0333 -0.188057,0.0262 -0.280633,0.0468 -0.08686,0.0193 -0.321212,0.12046 -0.374179,0.14032 -0.09233,0.0346 -0.192436,0.0494 -0.280632,0.0935 -0.01971,0.01 -0.02843,0.0345 -0.04677,0.0468 -0.02901,0.0193 -0.06889,0.0221 -0.09355,0.0468 -0.01103,0.011 0.007,0.0328 0,0.0468 -0.0099,0.0197 -0.03691,0.0271 -0.04677,0.0468 -0.007,0.0139 0.0049,0.032 0,0.0468 -0.02204,0.0661 -0.0715,0.12095 -0.09355,0.18709 -0.0049,0.0148 0,0.0312 0,0.0468 0,0.0312 0,0.0624 0,0.0935 0,0.0111 -0.0052,0.1766 0,0.18709 0.0099,0.0197 0.03118,0.0312 0.04677,0.0468 0.01558,0.0156 0.02585,0.0398 0.04677,0.0468 0.02958,0.01 0.06565,-0.0139 0.09354,0 0.01394,0.007 -0.01103,0.0358 0,0.0468 0.01103,0.011 0.03118,0 0.04677,0 0.04677,0 0.09418,-0.008 0.140317,0 0.04863,0.008 0.09197,0.0371 0.140316,0.0468 0.03057,0.006 0.06236,0 0.09354,0 0.04677,0 0.09354,0 0.140316,0 0.202679,0 0.405358,0 0.608039,0 0.171498,0 0.342995,0 0.514493,0 0.199149,0 0.356034,-0.001 0.561266,-0.0468 0.06806,-0.0151 0.119446,-0.0766 0.187089,-0.0935 0.162005,-0.0405 0.02809,0.0592 0.187087,-0.0468 0.04258,-0.0284 0.09886,-0.11959 0.140317,-0.14032 0.01394,-0.007 0.03575,0.011 0.04677,0 0.02466,-0.0247 0.02743,-0.0645 0.04677,-0.0936 0.0397,-0.0595 0.143864,-0.12945 0.187087,-0.18708 0.02093,-0.0279 0.02212,-0.0689 0.04677,-0.0935 0.01103,-0.011 0.03575,0.011 0.04677,0 0.02204,-0.022 -0.02204,-0.0715 0,-0.0935 0.01103,-0.011 0.03575,0.011 0.04677,0 0.0019,-0.002 0,-0.16991 0,-0.18709 0,-0.0111 0.0052,-0.17661 0,-0.18709 -0.0099,-0.0197 -0.03118,-0.0312 -0.04677,-0.0468 -0.01558,-0.0156 -0.02843,-0.0345 -0.04677,-0.0468 -0.09283,-0.0619 -0.223727,-0.10576 -0.327406,-0.14032 -0.04677,-0.0156 -0.09168,-0.0387 -0.140317,-0.0468 -0.09227,-0.0154 -0.188359,0.0154 -0.280633,0 -0.04863,-0.008 -0.095,-0.0274 -0.140316,-0.0468 -0.06408,-0.0275 -0.117364,-0.0935 -0.187087,-0.0935 -0.128567,0 -0.248111,0.0683 -0.374179,0.0935 -0.05275,0.0105 -0.172651,0 -0.23386,0"
       id="path5689"
       inkscape:connector-curvature="0" />
    <path
       style="fill:#5a5a5a;fill-opacity:1;stroke:none;stroke-width:0.26458332px;stroke-linecap:butt;stroke-linejoin:miter;stroke-opacity:1"
       d="m 23.502958,259.69862 c -0.06864,0.0582 -0.21138,-0.19924 -0.280633,-0.23386 -0.01394,-0.007 -0.0338,0.009 -0.04677,0 -0.03669,-0.0245 -0.05685,-0.0691 -0.09354,-0.0935 -0.01297,-0.009 -0.03283,0.007 -0.04677,0 -0.01972,-0.01 -0.03118,-0.0312 -0.04677,-0.0468 -0.04677,-0.0156 -0.09622,-0.0247 -0.140317,-0.0468 -0.03944,-0.0197 -0.0541,-0.0738 -0.09354,-0.0936 -0.01394,-0.007 -0.03283,0.007 -0.04677,0 -0.01972,-0.01 -0.02585,-0.0398 -0.04677,-0.0468 -0.02958,-0.01 -0.0676,0.0173 -0.09354,0 -0.02901,-0.0193 -0.02212,-0.0689 -0.04677,-0.0935 -0.01103,-0.011 -0.03283,0.007 -0.04677,0 -0.03944,-0.0197 -0.0541,-0.0738 -0.09355,-0.0935 -0.03742,-0.0187 -0.102898,0.0187 -0.140316,0 -0.01972,-0.01 -0.02705,-0.0369 -0.04677,-0.0468 -0.01395,-0.007 -0.03118,0 -0.04677,0 -0.07795,0 -0.155907,0 -0.23386,0 -0.01559,0 -0.03118,0 -0.04677,0 -0.01559,0 -0.03283,0.007 -0.04677,0 -0.01972,-0.01 -0.02585,-0.0398 -0.04677,-0.0468 -0.02587,-0.009 -0.233531,0 -0.280633,0 -0.09354,0 -0.187088,0 -0.280633,0 -0.02106,0 -0.126082,-0.007 -0.140316,0 -0.01972,0.01 -0.02585,0.0398 -0.04677,0.0468 -0.05916,0.0197 -0.125937,-0.0122 -0.187089,0 -0.04834,0.01 -0.09197,0.0371 -0.140317,0.0468 -0.03058,0.006 -0.06236,0 -0.09354,0 -0.109135,0 -0.21827,0 -0.327405,0 -0.03118,0 -0.06396,-0.01 -0.09354,0 -0.02092,0.007 -0.02705,0.0369 -0.04677,0.0468 -0.01394,0.007 -0.03118,0 -0.04677,0 -0.03218,0 -0.253398,-0.009 -0.280633,0 -0.03307,0.011 -0.06047,0.0357 -0.09354,0.0468 -0.01479,0.005 -0.03118,0 -0.04677,0 -0.05664,0 -0.134401,-0.0105 -0.187089,0 -0.06303,0.0126 -0.124055,0.0342 -0.187089,0.0468 -0.01529,0.003 -0.03198,-0.005 -0.04677,0 -0.03307,0.011 -0.05972,0.0383 -0.09354,0.0468 -0.03025,0.008 -0.06236,0 -0.09354,0 -0.01559,0 -0.03283,-0.007 -0.04677,0 -0.01972,0.01 -0.02585,0.0398 -0.04677,0.0468 -0.02958,0.01 -0.06236,0 -0.09354,0 -0.03118,0 -0.06236,0 -0.09354,0 -0.155908,0 -0.311815,0 -0.467722,0 -0.0396,0 -0.161944,-0.008 -0.187089,0 -0.02092,0.007 -0.02705,0.0369 -0.04677,0.0468 -0.0294,0.0147 -0.157691,-0.0147 -0.187089,0 -0.01972,0.01 -0.02705,0.0369 -0.04677,0.0468 -0.01394,0.007 -0.03118,0 -0.04677,0 -0.03118,0 -0.06236,0 -0.09354,0 -0.109135,0 -0.21827,0 -0.327406,0 -0.187088,0 -0.374177,0 -0.561265,0 -0.20268,0 -0.405359,0 -0.608039,0 -0.04677,0 -0.09354,0 -0.140316,0 -0.04677,0 -0.09418,0.008 -0.140317,0 -0.09726,-0.0162 -0.18337,-0.0773 -0.280633,-0.0936 -0.04613,-0.008 -0.09594,0.0148 -0.140316,0 -0.05333,-0.0178 -0.09211,-0.0646 -0.140317,-0.0935 -0.204341,-0.12261 0.03386,0.0403 -0.23386,-0.0935 -0.01972,-0.01 -0.03118,-0.0312 -0.04677,-0.0468 -0.01559,-0.0156 -0.03691,-0.027 -0.04677,-0.0468 -0.007,-0.0139 0.01103,-0.0358 0,-0.0468 -0.01103,-0.011 -0.03575,0.011 -0.04677,0 -0.02205,-0.0221 0.01394,-0.0657 0,-0.0935 -0.01972,-0.0394 -0.07382,-0.0541 -0.09354,-0.0935 -0.007,-0.014 0,-0.0312 0,-0.0468 0,-0.0468 0.01134,-0.0949 0,-0.14032 -0.0053,-0.0214 -0.03691,-0.027 -0.04677,-0.0468 -0.007,-0.0139 0.0049,-0.032 0,-0.0468 -0.01103,-0.0331 -0.03575,-0.0605 -0.04677,-0.0935 -0.0088,-0.0264 0,-0.10958 0,-0.14031 0,-0.0935 0,-0.18709 0,-0.28064 0,-0.0156 -0.01103,-0.0357 0,-0.0468 0.02205,-0.022 0.0715,0.022 0.09355,0 0.01103,-0.011 -0.01103,-0.0358 0,-0.0468 4.4e-5,-5e-5 0.140104,7e-5 0.140316,0 0.02092,-0.007 0.02538,-0.0414 0.04677,-0.0468 0.03361,-0.008 0.229061,0 0.280633,0 0.20268,0 0.405359,0 0.608038,0 0.07795,0 0.156968,0.0128 0.233861,0 0.04863,-0.008 0.09249,-0.0348 0.140317,-0.0468 0.01513,-0.004 0.03118,0 0.04677,0 0.04677,0 0.09354,0 0.140317,0 0.07795,0 0.155907,0 0.23386,0 0.03118,0 0.06396,0.01 0.09354,0 0.02092,-0.007 0.02705,-0.0369 0.04677,-0.0468 0.01394,-0.007 0.03118,0 0.04677,0 0.03118,0 0.06396,0.01 0.09354,0 0.02092,-0.007 0.02705,-0.0369 0.04677,-0.0468 0.01395,-0.007 0.03118,0 0.04677,0 0.03118,0 0.06297,0.006 0.09354,0 0.243318,-0.0487 0.04677,-0.0312 0.233861,-0.0935 0.01479,-0.005 0.03118,0 0.04677,0 0.04677,0 0.09354,0 0.140316,0 0.04677,0 0.09494,0.0113 0.140317,0 0.02139,-0.005 0.02705,-0.0369 0.04677,-0.0468 0.355516,-0.17775 0.02764,-0.007 0.187089,-0.0468 0.04783,-0.012 0.09249,-0.0348 0.140316,-0.0468 0.01513,-0.004 0.03283,0.007 0.04677,0 0.05028,-0.0251 0.09535,-0.0598 0.140316,-0.0935 0.01764,-0.0132 0.02585,-0.0398 0.04677,-0.0468 0.02958,-0.01 0.06329,0.008 0.09355,0 0.03382,-0.008 0.06117,-0.0338 0.09354,-0.0468 0.04578,-0.0183 0.09622,-0.0247 0.140316,-0.0468 0.01972,-0.01 0.02538,-0.0414 0.04677,-0.0468 0.04537,-0.0113 0.09445,0.009 0.140316,0 0.08466,0.0282 0.08699,-0.0758 0.140316,-0.0935 0.02958,-0.01 0.06329,0.008 0.09354,0 0.03382,-0.008 0.06236,-0.0312 0.09354,-0.0468 0.06236,-0.0312 0.120943,-0.0715 0.187089,-0.0935 0.01479,-0.005 0.03198,0.005 0.04677,0 0.06615,-0.022 0.118719,-0.0799 0.187089,-0.0935 0.04586,-0.009 0.09494,0.0113 0.140316,0 0.02139,-0.005 0.02705,-0.0369 0.04677,-0.0468 0.04677,-0.0156 0.09354,-0.0312 0.140317,-0.0468 0.01559,-0.0156 0.02705,-0.0369 0.04677,-0.0468 0.01395,-0.007 0.03118,0 0.04677,0 0.03118,0 0.06329,0.008 0.09355,0 0.08465,0.0282 0.08699,-0.0758 0.140316,-0.0935 0.02958,-0.01 0.06329,0.008 0.09354,0 0.08465,0.0282 0.08699,-0.0758 0.140316,-0.0935 0.02958,-0.01 0.06329,0.008 0.09354,0 0.03382,-0.008 0.06236,-0.0312 0.09354,-0.0468 0.03118,-0.0156 0.06236,-0.0312 0.09354,-0.0468 0.219378,-0.10969 -0.05512,0.0221 0.233861,-0.0935 0.04396,-0.0176 0.246903,-0.11502 0.280633,-0.14032 0.03528,-0.0265 0.0541,-0.0738 0.09354,-0.0935 0.0575,-0.0288 0.129593,-0.018 0.187089,-0.0468 0.01394,-0.007 -0.01479,-0.0418 0,-0.0468 0.04437,-0.0148 0.09689,0.0174 0.140316,0 0.04094,-0.0164 0.06236,-0.0624 0.09354,-0.0935 0.01559,-0.0156 0.02538,-0.0414 0.04677,-0.0468 0.04537,-0.0114 0.09494,0.0113 0.140316,0 0.02139,-0.005 0.02705,-0.0369 0.04677,-0.0468 0.0441,-0.022 0.09249,-0.0348 0.140316,-0.0468 0.01513,-0.004 0.03283,0.007 0.04677,0 0.01972,-0.01 0.02705,-0.0369 0.04677,-0.0468 0.0441,-0.0221 0.09454,-0.0285 0.140317,-0.0468 0.03237,-0.0129 0.06047,-0.0358 0.09354,-0.0468 0.01479,-0.005 0.03198,0.005 0.04677,0 0.03307,-0.011 0.06047,-0.0357 0.09354,-0.0468 0.01479,-0.005 0.03283,0.007 0.04677,0 0.01972,-0.01 0.03118,-0.0312 0.04677,-0.0468 0.06236,-0.0312 0.122352,-0.0676 0.187089,-0.0935 0.01448,-0.006 0.03148,0.003 0.04677,0 0.06303,-0.0126 0.126105,-0.0265 0.187088,-0.0468 0.06615,-0.022 0.118314,-0.0821 0.187089,-0.0935 0.06151,-0.0103 0.124726,0 0.187089,0 0.01559,0 0.03283,0.007 0.04677,0 0.01972,-0.01 0.02538,-0.0414 0.04677,-0.0468 0.04538,-0.0113 0.09418,0.008 0.140316,0 0.04863,-0.008 0.09249,-0.0348 0.140317,-0.0468 0.01513,-0.004 0.03148,0.003 0.04677,0 0.06303,-0.0126 0.123681,-0.0362 0.187089,-0.0468 0.06151,-0.0103 0.124726,0 0.187089,0 0.140316,0 0.281491,0.0155 0.420949,0 0.03465,-0.004 0.05972,-0.0383 0.09354,-0.0468 0.03025,-0.008 0.06297,0.006 0.09354,0 0.04834,-0.01 0.0914,-0.0407 0.140316,-0.0468 0.07735,-0.01 0.15651,0.01 0.233861,0 0.04892,-0.006 0.09249,-0.0348 0.140316,-0.0468 0.04434,-0.0111 0.283544,0 0.327406,0 0.04405,0 0.207254,-0.009 0.23386,0 0.02093,0.007 0.02705,0.0369 0.04677,0.0468 0.01394,0.007 0.03139,-0.003 0.04677,0 0.07842,0.0131 0.158443,0.0216 0.233862,0.0468 0.04183,0.0139 0.05171,0.0796 0.09354,0.0935 0.02958,0.01 0.0676,-0.0173 0.09354,0 0.02901,0.0193 0.02212,0.0689 0.04677,0.0935 0.01103,0.011 0.03118,0 0.04677,0 0.03118,0.0156 0.06889,0.0221 0.09354,0.0468 0.02466,0.0247 0.02212,0.0689 0.04677,0.0936 0.113599,0.1136 0.06868,-0.0139 0.140316,0.0935 0.01934,0.029 0.02212,0.0689 0.04677,0.0935 0.05512,0.0551 0.131969,0.0852 0.187089,0.14032 0.02466,0.0247 0.02744,0.0645 0.04677,0.0936 0.11607,0.1741 -0.02252,-0.0806 0.09354,0.0935 0.01934,0.029 0.02743,0.0645 0.04677,0.0935 0.01222,0.0183 0.03691,0.0271 0.04677,0.0468 0.007,0.0139 -0.007,0.0328 0,0.0468 0.09733,0.19465 -0.0032,-0.05 0.09354,0.0468 0.02204,0.0221 -0.02204,0.0715 0,0.0935 0.01103,0.011 0.03575,-0.011 0.04677,0 0.02204,0.022 -0.01394,0.0657 0,0.0935 0.0099,0.0197 0.03454,0.0284 0.04677,0.0468 0.05374,0.0806 0.04677,0.0707 0.04677,0.14032 0,0.0156 -0.0049,0.032 0,0.0468 0.112929,0.33879 -0.01349,-0.0737 0.09354,0.14032 0.007,0.0139 0,0.0312 0,0.0468 0,0.0312 -0.01394,0.0656 0,0.0935 0.007,0.0139 0.03575,-0.011 0.04677,0 0.0096,0.01 -0.0093,0.12178 0,0.14032 0.0099,0.0197 0.03691,0.027 0.04677,0.0468 0.007,0.014 -0.007,0.0328 0,0.0468 0.0099,0.0197 0.03691,0.0271 0.04677,0.0468 0.01394,0.0279 -0.0076,0.0633 0,0.0935 0.05171,0.20683 0.02903,0.0726 0.09355,0.23386 0.115982,0.0441 0.02643,0.12611 0.04677,0.18709 0.02204,0.0661 0.0715,0.12094 0.09355,0.18709 0.01402,0.0421 -0.01402,0.0982 0,0.14032 0.007,0.0209 0.0398,0.0258 0.04677,0.0468 0.0099,0.0296 -0.0099,0.064 0,0.0935 0.007,0.0209 0.04245,0.0251 0.04677,0.0468 0.01529,0.0764 0,0.15591 0,0.23386 0,0.0156 0,0.0312 0,0.0468 0,0.0156 -0.007,0.0328 0,0.0468 0.0099,0.0197 0.03118,0.0312 0.04677,0.0468 0,0.0312 -0.0076,0.0633 0,0.0935 0.0085,0.0338 0.03832,0.0597 0.04677,0.0935 0.0076,0.0302 0,0.0624 0,0.0935 0,0.078 0,0.15591 0,0.23387 0,0.0312 -0.0076,0.0633 0,0.0935 0.0085,0.0338 0.03575,0.0605 0.04677,0.0935 0.0098,0.0294 0,0.14944 0,0.18709 0,0.15591 0,0.31182 0,0.46772 0,0.0624 0,0.12473 0,0.18709 0,0.0156 0,0.0312 0,0.0468 0,0.0156 0.01558,0.0468 0,0.0468 -0.01558,0 0.01558,-0.0468 0,-0.0468 -0.02204,0 -0.02585,0.0398 -0.04677,0.0468 -0.02958,0.01 -0.06236,0 -0.09354,0 -0.01558,0 -0.03165,0.004 -0.04677,0 -0.508688,-0.16957 0.123256,0.0247 -0.23386,-0.0468 -0.04835,-0.01 -0.09454,-0.0285 -0.140317,-0.0468 -0.03237,-0.0129 -0.05936,-0.0399 -0.09354,-0.0468 -0.04587,-0.009 -0.09418,0.008 -0.140317,0 -0.04863,-0.008 -0.09197,-0.0371 -0.140316,-0.0468 -0.03058,-0.006 -0.06297,0.006 -0.09355,0 -0.09392,0.0107 -0.152408,-0.0732 -0.23386,-0.0935 -0.03025,-0.008 -0.06236,0 -0.09355,0 -0.03118,-0.0156 -0.06047,-0.0357 -0.09354,-0.0468 -0.0497,-0.0166 -0.137387,0.0166 -0.187089,0 -0.03307,-0.011 -0.06454,-0.0274 -0.09354,-0.0468 -0.01834,-0.0122 -0.02585,-0.0398 -0.04677,-0.0468 -0.02958,-0.01 -0.06236,0 -0.09354,0 -0.04677,0 -0.09354,0 -0.140317,0 -0.03118,0 -0.06329,0.008 -0.09354,0 -0.04783,-0.012 -0.09197,-0.0371 -0.140317,-0.0468 -0.03058,-0.006 -0.06396,0.01 -0.09355,0 -0.02093,-0.007 -0.02585,-0.0398 -0.04677,-0.0468 -0.05916,-0.0197 -0.126587,0.0151 -0.18709,0 -0.03382,-0.008 -0.06047,-0.0357 -0.09354,-0.0468 -0.03094,-0.0103 -0.234686,0 -0.280634,0 -0.01559,0 -0.03283,0.007 -0.04677,0 -0.01972,-0.01 -0.02705,-0.0369 -0.04677,-0.0468 -0.01395,-0.007 -0.03118,0 -0.04677,0 -0.04532,0 -0.252744,0.009 -0.280633,0 -0.03307,-0.011 -0.05972,-0.0383 -0.09354,-0.0468 -0.04537,-0.0113 -0.09594,0.0148 -0.140316,0 -0.03307,-0.011 -0.05972,-0.0383 -0.09354,-0.0468 -0.03025,-0.008 -0.06236,0 -0.09354,0 -0.03118,0 -0.06236,0 -0.09354,0 -0.09354,0 -0.187089,0 -0.280633,0 -0.01559,0 -0.03118,0 -0.04677,0 -0.01559,0 -0.03575,-0.011 -0.04677,0 -0.01103,0.011 0.01103,0.0357 0,0.0468 -0.02205,0.022 -0.06565,-0.0139 -0.09354,0 -0.01972,0.01 -0.02705,0.0369 -0.04677,0.0468 -0.01394,0.007 -0.03575,-0.011 -0.04677,0 -0.01103,0.011 0.01103,0.0358 0,0.0468 -0.01103,0.011 -0.03283,-0.007 -0.04677,0 -0.01972,0.01 -0.02705,0.0369 -0.04677,0.0468 -0.01394,0.007 -0.03575,-0.011 -0.04677,0 -0.01103,0.011 0.01103,0.0358 0,0.0468 -0.01103,0.011 -0.03575,-0.011 -0.04677,0 -0.01103,0.011 0.01103,0.0357 0,0.0468 -0.01103,0.011 -0.03118,0 -0.04677,0 -0.06236,0 -0.124726,0 -0.187089,0 z"
       id="path5740"
       inkscape:connector-curvature="0" />
  </g>
</svg>
