<?xml version="1.0" encoding="UTF-8" standalone="no"?>
<!-- Created with Inkscape (http://www.inkscape.org/) -->

<svg
   xmlns:dc="http://purl.org/dc/elements/1.1/"
   xmlns:cc="http://creativecommons.org/ns#"
   xmlns:rdf="http://www.w3.org/1999/02/22-rdf-syntax-ns#"
   xmlns:svg="http://www.w3.org/2000/svg"
   xmlns="http://www.w3.org/2000/svg"
   xmlns:sodipodi="http://sodipodi.sourceforge.net/DTD/sodipodi-0.dtd"
   xmlns:inkscape="http://www.inkscape.org/namespaces/inkscape"
   width="200"
   height="200"
   viewBox="0 0 52.916666 52.916668"
   version="1.1"
   id="svg8"
   inkscape:version="0.92.1 r15371"
   sodipodi:docname="cara3.svg">
  <defs
     id="defs2" />
  <sodipodi:namedview
     id="base"
     pagecolor="#ffffff"
     bordercolor="#666666"
     borderopacity="1.0"
     inkscape:pageopacity="0.0"
     inkscape:pageshadow="2"
     inkscape:zoom="1.979899"
     inkscape:cx="-176.95971"
     inkscape:cy="125.98617"
     inkscape:document-units="mm"
     inkscape:current-layer="layer2"
     showgrid="false"
     inkscape:window-width="1920"
     inkscape:window-height="1017"
     inkscape:window-x="-8"
     inkscape:window-y="-8"
     inkscape:window-maximized="1"
     units="px" />
  <metadata
     id="metadata5">
    <rdf:RDF>
      <cc:Work
         rdf:about="">
        <dc:format>image/svg+xml</dc:format>
        <dc:type
           rdf:resource="http://purl.org/dc/dcmitype/StillImage" />
        <dc:title />
      </cc:Work>
    </rdf:RDF>
  </metadata>
  <g
     inkscape:label="Capa 1"
     inkscape:groupmode="layer"
     id="layer1"
     transform="translate(0,-244.08332)">
    <g
       id="g6035"
       transform="matrix(0.26458333,0,0,0.26458333,5.8302828,257.04791)"
       style="fill:#343434;fill-opacity:0.84422112">
      <path
         id="path5940"
         d="m 112.77127,9.1080393 h 4.29544 c 0.80377,0.9593437 2.2644,1.7717607 3.5176,1.2791247 v 1.832261 c -0.93341,0.700061 -1.91956,1.330981 -2.88668,1.979187 -1.14083,0.38028 -2.2739,0.769203 -3.41388,1.132198 1.20134,1.184055 2.3586,2.419966 3.37932,3.768233 0.47534,3.37931 0.63005,6.862333 -0.0873,10.215715 -1.47704,3.37931 -4.381,5.686921 -6.84505,8.297027 -0.4572,0.01729 -1.39061,0.03457 -1.84955,0.04321 -1.08898,1.097628 -2.22982,2.142534 -3.44758,3.102743 -3.43203,0.518564 -6.940981,0.53585 -10.371282,-0.02592 -1.35691,-1.0112 -2.559114,-2.203897 -3.553029,-3.578093 -1.139977,-4.58065 1.055278,-9.766293 -1.546186,-13.940735 -0.656848,-1.918687 -0.509921,-3.958373 -0.527207,-5.946202 0.985272,-0.933416 1.962766,-1.884117 2.947174,-2.826175 1.139977,-0.172855 2.281682,-0.354352 3.405238,-0.639563 1.158125,-0.587706 2.341316,-1.140841 3.568583,-1.590263 1.124419,-0.285211 2.255749,-0.53585 3.379309,-0.812418 1.40963,-0.397565 2.86161,-0.587706 4.31272,-0.812417 1.90228,-0.509921 3.87282,-0.7692035 5.72236,-1.4779079 m -5.54864,8.7983059 c -3.38794,2.298968 -6.55983,5.090572 -10.6392,6.041273 -0.372502,1.019843 -0.855632,1.996473 -1.340489,2.964459 -1.123556,3.042243 -0.924773,6.732692 0.432137,9.697151 2.489971,1.348267 5.358492,1.158127 8.080962,0.933415 1.72854,-1.728547 3.37931,-3.647235 5.99028,-3.906517 1.51248,-0.700062 2.67061,-1.892759 3.41388,-3.37931 0.25928,-0.855631 0.50992,-1.710398 0.76055,-2.566893 1.05443,-2.091542 0.87292,-4.744862 0.10372,-6.896904 -0.50992,-1.166769 -1.37419,-2.022401 -2.5401,-2.515036 -1.28863,-0.691419 -2.88754,-0.760561 -4.26174,-0.371638 z"
         inkscape:connector-curvature="0"
         style="stroke-width:0.86427367;fill:#343434;fill-opacity:0.84422112" />
      <path
         id="path5942"
         d="m 117.06671,9.1080393 h 3.5176 v 1.2791247 c -1.2532,0.492636 -2.71468,-0.319781 -3.5176,-1.2791247 z"
         inkscape:connector-curvature="0"
         style="fill:#343434;stroke-width:0.86427367;fill-opacity:0.84422112" />
      <path
         id="path5944"
         d="m 35.32371,15.572806 c 3.673163,-0.72599 7.458682,-0.432136 11.175059,-0.276567 2.0224,0.855631 4.26087,0.700061 6.352412,1.26184 1.071699,0.285209 2.143399,0.553135 3.197813,0.881559 1.158127,0.535849 2.333539,1.054413 3.526236,1.512479 0.933415,0.241996 1.858188,0.47535 2.800247,0.682776 0.959344,0.942058 1.92733,1.875474 2.895317,2.800246 -0.190141,6.067202 0.414851,12.168974 -0.337067,18.201604 -2.056971,2.601464 -4.407795,4.978217 -7.017903,7.00926 -2.584177,0.483993 -5.297997,0.656848 -7.830319,-0.155569 -1.184055,-0.449422 -2.350824,-0.907488 -3.53488,-1.339624 -2.808889,-1.313697 -3.889232,-4.468296 -6.28327,-6.317841 -0.06914,-0.397566 -0.207425,-1.201341 -0.276567,-1.607549 -1.123556,-2.791604 -0.717347,-5.885704 -0.319781,-8.781021 1.218626,-1.54705 2.661963,-2.895317 3.906517,-4.416438 0.665491,-1.60755 -1.789046,-1.935973 -2.80889,-2.454538 -0.959344,-0.224711 -1.910044,-0.440779 -2.869388,-0.639562 -0.362995,-0.371638 -1.080342,-1.097628 -1.434694,-1.469266 -1.408767,-0.05186 -2.80889,-0.293853 -4.036159,-1.037128 v -2.316253 c 0.933416,-0.561779 1.910045,-1.054414 2.895317,-1.538408 m 11.218273,9.956433 c -0.440779,1.486551 -1.54705,2.610107 -2.307611,3.932445 -1.201341,2.031044 -2.290326,4.667079 -0.82106,6.862333 0.01729,2.843461 3.370668,3.742305 3.949731,6.34377 1.209983,0.449422 2.411323,0.907487 3.655878,1.279125 1.555692,0.967986 3.465737,0.648205 5.194285,0.501278 1.86683,-1.685333 3.75959,-3.405238 5.125142,-5.539994 1.080343,-4.044801 0.190141,-8.357527 0.475351,-12.514683 -2.152042,0.0087 -4.304083,0.02592 -6.456125,-0.0605 -2.515036,-1.728547 -5.93756,-0.414851 -8.815591,-0.803774 z"
         inkscape:connector-curvature="0"
         style="stroke-width:0.86427367;fill:#343434;fill-opacity:0.84422112" />
      <path
         id="path5948"
         d="m 110.66245,23.014203 c 2.06648,-0.725991 3.10274,2.947173 0.82192,3.292882 -2.05783,0.743276 -3.0941,-2.947173 -0.82192,-3.292882 z"
         inkscape:connector-curvature="0"
         style="stroke-width:0.86427367;fill:#343434;fill-opacity:0.84422112" />
      <path
         id="path5952"
         d="m 57.077479,31.65694 c 2.065615,-0.734633 3.102742,2.955815 0.82106,3.292882 -2.056971,0.743276 -3.0941,-2.947173 -0.82106,-3.292882 z"
         inkscape:connector-curvature="0"
         style="stroke-width:0.86427367;fill:#343434;fill-opacity:0.84422112" />
      <path
         id="path5954"
         d="m 75.313654,33.082991 c 3.222877,0.380281 4.502866,4.053444 7.372254,5.263427 0.595486,2.074257 4.415575,3.396595 2.852104,5.721492 -2.973102,0.985272 -6.309198,0.501279 -9.368727,0.07778 l 0.449423,1.054414 c -1.521123,0.440779 -3.292883,1.797689 -4.831291,0.596348 -0.665491,-1.166769 -0.397565,-2.566892 -0.544492,-3.846018 0.665491,0 2.005115,0 2.670606,0 v 0.846989 c -0.501279,0.01729 -1.495194,0.05186 -1.996473,0.06914 0.216069,1.045771 0.872917,1.866831 1.54705,2.661963 0.501279,-0.311139 1.512479,-0.924773 2.013758,-1.235912 -0.02592,-1.434694 0.53585,-1.814974 1.685334,-1.140841 2.298967,1.10627 4.969573,0.337067 7.424111,0.47535 -1.357774,-4.935002 -6.759484,-6.421553 -9.273657,-10.544138 z"
         inkscape:connector-curvature="0"
         style="stroke-width:0.86427367;fill:#343434;fill-opacity:0.84422112" />
      <path
         id="path5956"
         d="m 89.219818,46.24588 c 0.432137,0.0087 1.287768,0.02593 1.719904,0.03457 0.397567,2.981744 3.491667,3.655878 5.669636,4.917717 1.841765,1.875474 3.673162,4.095793 4.330012,6.672193 -2.920383,-1.73719 -3.362027,-6.144122 -7.155323,-6.706764 l 0.02506,-1.063056 c -0.388059,0.483992 -0.776982,0.976629 -1.149484,1.469265 2.290325,3.241026 4.390509,6.611694 6.680832,9.85272 0.734635,2.705177 1.063055,6.058559 -0.190139,8.624587 -0.156431,1.158127 -0.259286,2.324896 -0.639562,3.432031 -2.601462,3.75959 -6.206347,6.731827 -10.214849,8.883869 -1.193561,0.518564 -2.359467,1.080343 -3.535743,1.650763 -1.217762,0.717347 -2.350825,1.572978 -3.525372,2.36811 -0.855632,0.267925 -1.711262,0.518564 -2.567758,0.769204 -1.572978,1.114913 -3.811447,-0.0087 -5.211571,1.408766 -0.907487,0.02592 -1.806331,0.05272 -2.705176,0.06915 -1.002557,-2.679249 -3.241027,-4.658435 -4.364583,-7.277184 -0.648204,-1.270483 -1.529764,-2.394039 -2.342181,-3.551301 -0.898845,-2.039686 -0.38028,-4.330875 -0.509922,-6.482053 0.164212,-2.791604 -0.648205,-5.877925 1.132199,-8.30567 0.432137,-1.0717 0.769204,-2.170191 1.192698,-3.241026 0.458065,-0.933416 0.933415,-1.858189 1.39148,-2.79074 0.216069,-0.423494 0.639563,-1.271346 0.855632,-1.69484 1.408765,-3.137314 3.413881,-6.888262 7.104329,-7.544246 2.100185,-1.166769 4.606579,-0.458065 6.889126,-0.544493 1.641255,1.642121 4.252227,0.09507 6.074979,1.400124 1.174548,0.293853 2.282548,0.760561 3.370668,1.270482 -0.28521,-1.487414 -1.391481,-2.5159 -2.324896,-3.62217 m -13.508598,3.932445 c -0.570421,1.028485 0.267924,1.970544 0.82106,2.74839 -0.01729,0.751918 -0.06915,2.255754 -0.08642,3.006808 0.82106,-0.544492 1.711262,-0.967122 2.653321,-1.270482 0.0087,-1.979186 0,-3.967016 -0.0087,-5.946203 -1.114914,0.346574 -3.0941,-0.146063 -3.379311,1.461487 m 4.269512,-1.538407 c -0.02506,2.169327 -0.02506,4.330011 0,6.499338 3.673163,0.04408 3.680942,-6.551195 0,-6.499338 m -7.303112,3.258312 c -0.613635,1.287767 0.613634,2.566892 0.553135,3.880588 0.622277,0 1.884117,0 2.506394,0.0087 -0.03457,-2.185749 -0.985273,-4.191727 -1.140842,-6.361054 -0.743275,0.734632 -1.365552,1.581621 -1.918687,2.471822 m 10.742922,-2.169327 c 0,1.486551 0,2.981744 0.0087,4.468296 1.028486,-0.0605 2.0224,-0.26879 2.991251,-0.613635 1.044907,-1.278261 -0.320645,-2.592821 -0.623141,-3.854661 -0.595485,0 -1.781269,0 -2.376753,0 m 4.468295,1.002558 c -0.457201,1.400123 0.01729,1.891895 1.434695,1.45198 0.4572,-1.400124 -0.01642,-1.89276 -1.434695,-1.45198 m -17.060767,3.431126 c -0.717347,0.691418 -1.04577,1.503836 -0.985271,2.419966 1.83226,1.166769 3.595378,-3.343874 0.985271,-2.419966 M 89.461814,67.87865 c 0.0087,0.717347 0.03371,2.160685 0.05186,2.878032 1.607549,-0.423494 2.644677,-1.891896 4.261734,-2.298968 l 0.03371,-0.579064 c -1.45198,0 -2.90396,0 -4.347297,0 m -8.167386,1.002558 c -0.959344,0.717347 -1.840903,1.590263 -3.050887,1.86683 l -0.01729,0.587707 c 0.648204,0 1.953258,0 2.601463,0 0,1.149484 0,2.307611 0,3.457095 -0.432136,0 -1.287768,0 -1.719904,0 0,-0.379416 -0.0087,-1.140841 -0.0087,-1.521122 -1.745833,-0.72599 -3.785519,-1.772625 -5.583207,-0.527207 -0.855632,0.337067 -1.590264,0.838346 -2.195256,1.494329 1.0717,1.85041 3.266954,2.48133 4.788076,3.864168 2.0829,0.484857 4.339519,0.259282 6.127701,-0.986136 1.918687,-0.449422 3.535744,-1.51248 5.107857,-2.652456 0.527207,-0.19014 1.590264,-0.570421 2.126113,-0.769204 0,-0.372502 0,-1.115777 0.0087,-1.487415 -0.44078,0 -1.305054,-0.0087 -1.73719,-0.01729 0,-1.149484 0,-2.298968 0,-3.439809 -2.143399,0.03544 -4.321369,-0.189277 -6.447482,0.130505 m 11.235558,1.210848 c -0.372502,1.0112 -0.588571,2.056107 -0.666355,3.136449 1.73719,-1.054415 3.742305,-1.459758 5.643705,-2.100185 -1.028483,-1.745833 -3.326587,-2.047465 -4.97735,-1.036264 m 1.884981,5.331704 c 0.61277,-0.674134 0.881559,-1.426052 0.811553,-2.273904 -1.744968,-1.027622 -3.110521,2.585042 -0.811553,2.273904 m -5.902989,0.319781 c 0.923908,0.951565 1.001693,2.229826 0.99305,3.49253 1.10627,-0.891066 3.776876,-1.244554 3.34474,-3.129535 -0.613635,-2.272175 -2.929888,-0.682776 -4.33779,-0.362995 m -20.198941,-0.0087 c -1.711261,0.388924 -1.547049,2.645542 -0.795132,3.795027 0.527207,0.9507 1.175413,1.831396 2.056972,2.488243 0.371637,-1.633477 -0.846989,-4.069864 1.028485,-5.037851 -0.717347,-0.433001 -1.29641,-1.702619 -2.290325,-1.245419 m 17.72539,1.650764 c -0.01729,1.202204 -0.04235,2.40268 -0.07778,3.604021 0.830566,-0.53585 1.711261,-0.950701 2.645542,-1.270483 0,-0.579063 0,-1.746697 0,-2.333538 -0.639564,0 -1.927331,0 -2.567757,0 m -15.625205,0.717347 c 0.293854,1.253197 -0.596349,3.154598 0.91613,3.846018 -1.590264,1.184055 -0.25064,2.713819 0.207426,4.079371 0.362995,0 1.080342,0 1.443337,0.0087 0.198783,-1.330982 -0.345709,-2.99903 0.933415,-3.941089 -0.07778,-1.132198 0.15557,-2.359466 -0.458065,-3.387953 C 72.4702,78.362285 71.459,78.163502 70.413228,78.103003 m 10.881206,1.469265 c -0.78649,1.538408 -0.354352,3.327454 -0.509922,4.978217 1.710398,-1.823618 5.098351,-2.333539 4.502866,-5.514066 -1.322338,0.155569 -2.774318,-0.129641 -3.992944,0.535849 m -6.724049,3.465738 c -0.216069,0.450286 -0.656849,1.356045 -0.881559,1.806332 0.553135,0.293853 1.650762,0.87378 2.195254,1.158126 0.864275,-0.70784 1.953259,-0.872915 3.033601,-0.967986 0.519429,-1.434694 1.728548,-3.102743 0.560914,-4.562501 -2.151177,-1.451979 -5.202063,-0.24286 -4.90821,2.566029 z"
         inkscape:connector-curvature="0"
         style="stroke-width:0.86427367;fill:#343434;fill-opacity:0.84422112" />
      <path
         id="path5958"
         d="m 69.013099,48.008998 0.846988,0.01815 c -0.501279,2.229826 -2.394038,3.663656 -3.578093,5.505424 -2.46318,4.217655 -4.753505,8.573594 -6.136343,13.283022 0.08643,3.345603 -0.613635,6.889125 0.458065,10.112002 1.495193,1.5652 2.048328,3.595379 2.938531,5.496781 0.0087,1.045771 0.03457,2.091542 0.06914,3.145956 0.267926,0.613634 0.78649,1.849545 1.054414,2.471823 -2.316253,-0.587707 -2.082899,-2.972238 -1.987829,-4.83129 -0.872917,-2.221184 -1.287768,-4.788076 -3.448452,-6.196843 -0.02593,-3.673163 0,-7.346326 -0.01729,-11.019489 0.97663,-2.394903 2.273041,-4.73622 2.791605,-7.285828 1.158127,-2.049192 2.523679,-3.958373 3.776876,-5.947066 0.812417,-1.77954 2.782961,-2.773455 3.232383,-4.752642 z"
         inkscape:connector-curvature="0"
         style="stroke-width:0.86427367;fill:#343434;fill-opacity:0.84422112" />
      <path
         id="path5960"
         d="m 75.71122,50.178325 c 0.285211,-1.607549 2.264397,-1.114913 3.379311,-1.460622 0.0087,1.979186 0.01729,3.967016 0.0087,5.946203 -0.942059,0.30336 -1.832261,0.725989 -2.653321,1.270482 0.01729,-0.751054 0.06915,-2.25489 0.08643,-3.006809 -0.553136,-0.77871 -1.391481,-1.720769 -0.82106,-2.749254 z"
         inkscape:connector-curvature="0"
         style="fill:#343434;stroke-width:0.86427367;fill-opacity:0" />
      <path
         id="path5962"
         d="m 79.980732,48.639918 c 3.681806,-0.05186 3.673163,6.542552 0,6.499338 -0.02592,-2.169327 -0.02592,-4.330011 0,-6.499338 z"
         inkscape:connector-curvature="0"
         style="fill:#343434;stroke-width:0.86427367;fill-opacity:0" />
      <path
         id="path5964"
         d="m 72.67762,51.89823 c 0.553135,-0.890202 1.175412,-1.737191 1.918687,-2.471823 0.155569,2.169327 1.106271,4.175306 1.140842,6.361055 -0.622278,-0.0087 -1.884117,-0.0087 -2.506394,-0.0087 0.0605,-1.313695 -1.16677,-2.592821 -0.553135,-3.880588 z"
         inkscape:connector-curvature="0"
         style="fill:#343434;stroke-width:0.86427367;fill-opacity:0" />
      <path
         id="path5966"
         d="m 83.420541,49.728903 c 0.595485,0 1.781268,0 2.376753,0 0.302496,1.261839 1.668048,2.575535 0.623141,3.85466 -0.968851,0.344845 -1.962765,0.553135 -2.991251,0.613635 -0.0087,-1.486551 -0.0087,-2.981745 -0.0087,-4.468295 z"
         inkscape:connector-curvature="0"
         style="fill:#343434;stroke-width:0.86427367;fill-opacity:0" />
      <path
         id="path5968"
         d="m 87.888836,50.73146 c 1.418273,-0.44078 1.891896,0.05186 1.434695,1.45198 -1.418273,0.440779 -1.891896,-0.05186 -1.434695,-1.45198 z"
         inkscape:connector-curvature="0"
         style="fill:#343434;stroke-width:0.86427367;fill-opacity:0" />
      <path
         id="path5970"
         d="m 70.828073,54.162627 c 2.610107,-0.923908 0.846989,3.586735 -0.985271,2.419966 -0.0605,-0.91613 0.267924,-1.728548 0.985271,-2.419966 z"
         inkscape:connector-curvature="0"
         style="fill:#343434;stroke-width:0.86427367;fill-opacity:0" />
      <path
         id="path5972"
         d="m 89.461814,67.87865 c 1.443337,0 2.895317,0 4.346433,0 l -0.03371,0.579064 c -1.617057,0.407072 -2.65332,1.875474 -4.261735,2.298968 -0.01729,-0.717347 -0.04234,-2.160685 -0.05099,-2.878032 z"
         inkscape:connector-curvature="0"
         style="fill:#343434;stroke-width:0.86427367;fill-opacity:0" />
      <path
         id="path5974"
         d="m 81.294428,68.881208 c 2.126113,-0.319782 4.304083,-0.09507 6.447482,-0.129641 0,1.140841 0,2.290324 0,3.439809 0.432136,0.0087 1.29641,0.01729 1.73719,0.01729 -0.0087,0.370773 -0.0087,1.114913 -0.0087,1.486551 -0.535849,0.197919 -1.598906,0.579064 -2.126113,0.769203 -1.572113,1.139977 -3.18917,2.203899 -5.107857,2.652457 -1.788182,1.244553 -4.044801,1.470129 -6.127701,0.986136 -1.521122,-1.382838 -3.716376,-2.013758 -4.788076,-3.864168 0.604992,-0.656848 1.339624,-1.158127 2.195256,-1.494329 1.797688,-1.244555 3.837374,-0.197919 5.583207,0.527207 0,0.379416 0.0087,1.140841 0.0087,1.521122 0.432136,0 1.287768,0 1.719904,0 0,-1.149484 0,-2.307611 0,-3.457096 -0.648205,0 -1.953259,0 -2.601463,0 l 0.01729,-0.587706 c 1.209984,-0.276567 2.091543,-1.149483 3.050887,-1.86683 z"
         inkscape:connector-curvature="0"
         style="fill:#343434;stroke-width:0.86427367;fill-opacity:0" />
      <path
         id="path5976"
         d="m 92.529986,70.092056 c 1.650763,-1.011202 3.948867,-0.708705 4.978215,1.036264 -1.9014,0.639562 -3.90738,1.04577 -5.643706,2.100185 0.07692,-1.081207 0.292989,-2.126114 0.665491,-3.136449 z"
         inkscape:connector-curvature="0"
         style="fill:#343434;stroke-width:0.86427367;fill-opacity:0" />
      <path
         id="path5978"
         d="m 102.52876,72.398802 c 2.78383,0.224711 -1.33011,2.687891 0,0 z"
         inkscape:connector-curvature="0"
         style="stroke-width:0.86427367;fill:#343434;fill-opacity:0.84422112" />
      <path
         id="path5980"
         d="m 94.414967,75.42376 c -2.298968,0.310274 -0.933415,-3.301526 0.811553,-2.273904 0.06914,0.847852 -0.198783,1.59977 -0.811553,2.273904 z"
         inkscape:connector-curvature="0"
         style="fill:#343434;stroke-width:0.86427367;fill-opacity:0" />
      <path
         id="path5982"
         d="m 88.511978,75.743541 c 1.407902,-0.318917 3.725019,-1.909181 4.338654,0.362995 0.432137,1.884981 -2.238469,2.238469 -3.344739,3.129535 0.0077,-1.262704 -0.07,-2.541829 -0.993915,-3.49253 z"
         inkscape:connector-curvature="0"
         style="fill:#343434;stroke-width:0.86427367;fill-opacity:0" />
      <path
         id="path5984"
         d="m 101.92464,74.905196 c 1.41741,0.700061 -0.026,3.154598 -0.73463,4.1053 -1.382845,-0.751918 0.0605,-3.120029 0.73463,-4.1053 z"
         inkscape:connector-curvature="0"
         style="stroke-width:0.86427367;fill:#343434;fill-opacity:0.84422112" />
      <path
         id="path5986"
         d="m 68.313037,75.734898 c 0.993915,-0.457201 1.572978,0.812418 2.290325,1.244554 -1.875474,0.967987 -0.656848,3.404375 -1.028485,5.037851 -0.881559,-0.656847 -1.529765,-1.537542 -2.056972,-2.488243 -0.751917,-1.149484 -0.916129,-3.405238 0.795132,-3.794162 z"
         inkscape:connector-curvature="0"
         style="fill:#343434;stroke-width:0.86427367;fill-opacity:0" />
      <path
         id="path5988"
         d="m 86.038427,77.385661 c 0.639562,0 1.927329,0 2.567757,0 0,0.587706 0,1.754476 0,2.333538 -0.933416,0.319782 -1.814975,0.734633 -2.645542,1.270483 0.03544,-1.20134 0.06136,-2.401817 0.07778,-3.604021 z"
         inkscape:connector-curvature="0"
         style="fill:#343434;stroke-width:0.86427367;fill-opacity:0" />
      <path
         id="path5990"
         d="m 70.413223,78.103008 c 1.045771,0.0605 2.056971,0.259282 3.042243,0.604991 0.613634,1.027622 0.38028,2.255755 0.458065,3.387953 -1.279125,0.942059 -0.734632,2.610107 -0.933416,3.941088 -0.362995,-0.0087 -1.080342,-0.0087 -1.443337,-0.0087 -0.458065,-1.365553 -1.79769,-2.895317 -0.207426,-4.079371 -1.512479,-0.69142 -0.622276,-2.592822 -0.916129,-3.846019 z"
         inkscape:connector-curvature="0"
         style="fill:#343434;stroke-width:0.86427367;fill-opacity:0" />
      <path
         id="path5992"
         d="m 98.942892,77.947439 c 0.51943,0.396701 1.538408,1.192698 2.048338,1.590263 -1.581624,0.570421 -2.886681,1.615328 -4.08802,2.756169 -1.201339,0.743276 -2.376751,1.538408 -3.578092,2.282547 -0.432137,0.207425 -1.305053,0.622277 -1.73719,0.838345 -0.450287,0.190141 -1.330982,0.579064 -1.780404,0.776982 -1.158991,0.692283 -2.290325,1.426052 -3.37931,2.229826 -1.167634,0.432138 -2.324897,0.882424 -3.501173,1.279126 -1.486551,0.700925 -2.972237,1.408765 -4.407796,2.213404 -1.512479,0.171991 -3.111385,0.15557 -4.442367,1.027622 h -3.750947 c -0.53585,-0.285211 -1.60755,-0.855631 -2.143399,-1.140841 -0.518565,-0.216068 -1.564336,-0.656848 -2.091542,-0.872917 l 0.05186,-0.85563 c 1.417409,0.285209 2.765676,0.812417 4.036158,1.495193 1.400124,0.66549 2.929888,0.604127 4.304083,-0.103713 3.975659,-0.337067 7.54511,-2.317118 11.122338,-3.923803 0.83921,-0.414851 1.677555,-0.829703 2.524543,-1.24369 1.184056,-0.735496 2.342182,-1.530628 3.53488,-2.255753 2.774319,-0.942924 4.822647,-3.059529 7.311753,-4.494224 -0.0075,-0.397566 -0.02416,-1.202205 -0.03369,-1.598906 z"
         inkscape:connector-curvature="0"
         style="stroke-width:0.86427367;fill:#343434;fill-opacity:0.84422112" />
      <path
         id="path5994"
         d="m 81.294428,79.572273 c 1.218626,-0.666355 2.670606,-0.38028 3.992944,-0.53585 0.595485,3.180528 -2.791603,3.690449 -4.502865,5.514067 0.155569,-1.650763 -0.276568,-3.438946 0.509921,-4.978217 z"
         inkscape:connector-curvature="0"
         style="fill:#343434;stroke-width:0.86427367;fill-opacity:0" />
      <path
         id="path5996"
         d="m 74.570379,83.038011 c -0.293853,-2.808889 2.757033,-4.018008 4.909074,-2.566893 1.167634,1.459758 -0.04234,3.127806 -0.560914,4.5625 -1.080342,0.09507 -2.169326,0.260147 -3.0336,0.967988 -0.544492,-0.284346 -1.64212,-0.864274 -2.195255,-1.158127 0.223847,-0.449423 0.664627,-1.355182 0.880695,-1.805468 z"
         inkscape:connector-curvature="0"
         style="fill:#343434;stroke-width:0.86427367;fill-opacity:0" />
    </g>
    <g
       inkscape:groupmode="layer"
       id="layer2"
       inkscape:label="fondo"
       style="display:none"
       sodipodi:insensitive="true">
      <rect
         style="opacity:1;vector-effect:none;fill:#343434;fill-opacity:0;stroke:#000000;stroke-width:0.02432241;stroke-linecap:butt;stroke-linejoin:miter;stroke-miterlimit:4;stroke-dasharray:none;stroke-dashoffset:0;stroke-opacity:0.48743723;paint-order:normal"
         id="rect6037"
         width="24.322405"
         height="24.322405"
         x="13.941643"
         y="258.39938" />
    </g>
  </g>
</svg>
