<?xml version="1.0" encoding="UTF-8" standalone="no"?>
<!-- Created with Inkscape (http://www.inkscape.org/) -->

<svg
   xmlns:dc="http://purl.org/dc/elements/1.1/"
   xmlns:cc="http://creativecommons.org/ns#"
   xmlns:rdf="http://www.w3.org/1999/02/22-rdf-syntax-ns#"
   xmlns:svg="http://www.w3.org/2000/svg"
   xmlns="http://www.w3.org/2000/svg"
   xmlns:sodipodi="http://sodipodi.sourceforge.net/DTD/sodipodi-0.dtd"
   xmlns:inkscape="http://www.inkscape.org/namespaces/inkscape"
   width="200"
   height="200"
   viewBox="0 0 52.916666 52.916668"
   version="1.1"
   id="svg8"
   inkscape:version="0.92.1 r15371"
   sodipodi:docname="cara10.svg">
  <defs
     id="defs2">
    <clipPath
       clipPathUnits="userSpaceOnUse"
       id="clipPath6802">
      <g
         inkscape:label="Clip"
         id="use6804">
        <rect
           y="817.21985"
           x="30.578131"
           height="430.9921"
           width="1494.3568"
           id="rect12595"
           style="opacity:1;vector-effect:none;fill:#ffffff;fill-opacity:1;stroke:none;stroke-width:2.81672454;stroke-linecap:butt;stroke-linejoin:miter;stroke-miterlimit:4;stroke-dasharray:none;stroke-dashoffset:0;stroke-opacity:0.48743723;paint-order:normal" />
        <rect
           y="529.67999"
           x="-1147.442"
           height="430.9921"
           width="1494.3568"
           id="rect12597"
           style="opacity:1;vector-effect:none;fill:#ffffff;fill-opacity:1;stroke:none;stroke-width:2.81672454;stroke-linecap:butt;stroke-linejoin:miter;stroke-miterlimit:4;stroke-dasharray:none;stroke-dashoffset:0;stroke-opacity:0.48743723;paint-order:normal" />
      </g>
    </clipPath>
    <clipPath
       clipPathUnits="userSpaceOnUse"
       id="clipPath6815">
      <g
         id="use6817"
         inkscape:label="Clip">
        <rect
           style="opacity:1;vector-effect:none;fill:#ffffff;fill-opacity:1;stroke:none;stroke-width:2.81672454;stroke-linecap:butt;stroke-linejoin:miter;stroke-miterlimit:4;stroke-dasharray:none;stroke-dashoffset:0;stroke-opacity:0.48743723;paint-order:normal"
           id="rect12583"
           width="1494.3568"
           height="430.9921"
           x="1031.8348"
           y="486.918" />
        <g
           id="g12591"
           clip-path="url(#clipPath6802)">
          <g
             inkscape:label="Clip"
             id="g12589">
            <rect
               y="817.21985"
               x="30.578131"
               height="430.9921"
               width="1494.3568"
               id="rect12585"
               style="opacity:1;vector-effect:none;fill:#ffffff;fill-opacity:1;stroke:none;stroke-width:2.81672454;stroke-linecap:butt;stroke-linejoin:miter;stroke-miterlimit:4;stroke-dasharray:none;stroke-dashoffset:0;stroke-opacity:0.48743723;paint-order:normal" />
            <rect
               y="529.67999"
               x="-1147.442"
               height="430.9921"
               width="1494.3568"
               id="rect12587"
               style="opacity:1;vector-effect:none;fill:#ffffff;fill-opacity:1;stroke:none;stroke-width:2.81672454;stroke-linecap:butt;stroke-linejoin:miter;stroke-miterlimit:4;stroke-dasharray:none;stroke-dashoffset:0;stroke-opacity:0.48743723;paint-order:normal" />
          </g>
        </g>
      </g>
    </clipPath>
    <clipPath
       clipPathUnits="userSpaceOnUse"
       id="clipPath12623">
      <rect
         style="opacity:1;vector-effect:none;fill:#ffffff;fill-opacity:1;stroke:none;stroke-width:3.11010909;stroke-linecap:butt;stroke-linejoin:miter;stroke-miterlimit:4;stroke-dasharray:none;stroke-dashoffset:0;stroke-opacity:0.48743723;paint-order:normal"
         id="rect12625"
         width="684.04071"
         height="159.69821"
         x="-1028.1637"
         y="657.59601"
         transform="scale(-1,1)" />
    </clipPath>
    <clipPath
       clipPathUnits="userSpaceOnUse"
       id="clipPath12627">
      <rect
         style="opacity:1;vector-effect:none;fill:#ffffff;fill-opacity:1;stroke:none;stroke-width:3.11010909;stroke-linecap:butt;stroke-linejoin:miter;stroke-miterlimit:4;stroke-dasharray:none;stroke-dashoffset:0;stroke-opacity:0.48743723;paint-order:normal"
         id="rect12629"
         width="684.04071"
         height="159.69821"
         x="-1028.1637"
         y="657.59601"
         transform="scale(-1,1)" />
    </clipPath>
    <clipPath
       clipPathUnits="userSpaceOnUse"
       id="clipPath12631">
      <rect
         style="opacity:1;vector-effect:none;fill:#ffffff;fill-opacity:1;stroke:none;stroke-width:3.11010909;stroke-linecap:butt;stroke-linejoin:miter;stroke-miterlimit:4;stroke-dasharray:none;stroke-dashoffset:0;stroke-opacity:0.48743723;paint-order:normal"
         id="rect12633"
         width="684.04071"
         height="159.69821"
         x="-1028.1637"
         y="657.59601"
         transform="scale(-1,1)" />
    </clipPath>
    <clipPath
       clipPathUnits="userSpaceOnUse"
       id="clipPath12781">
      <path
         style="fill:none;stroke:#000000;stroke-width:6.04496717px;stroke-linecap:butt;stroke-linejoin:miter;stroke-opacity:1"
         d="m 663.64542,303.92944 c -0.38143,0.50886 -0.69517,1.07681 -1.14491,1.52658 -0.2013,0.20118 -0.53559,0.21097 -0.7633,0.38168 -0.28774,0.21587 -0.47513,0.54737 -0.7633,0.7633 -0.22729,0.17065 -0.51926,0.23527 -0.7633,0.38162 -0.78663,0.47199 -1.5032,1.05461 -2.28983,1.52659 -0.24422,0.14635 -0.56218,0.1805 -0.7633,0.38168 -0.32461,0.32431 -0.43886,0.82059 -0.7633,1.14493 -1.21945,1.21942 -1.82001,1.40905 -3.05319,2.28988 -0.81909,0.58509 -1.77208,1.39427 -2.67151,1.90822 -2.23682,1.27818 -1.23106,0.27904 -3.81649,2.28989 -0.42617,0.33138 -0.69584,0.84555 -1.14492,1.14494 -0.33489,0.22312 -0.7633,0.25443 -1.14491,0.38168 -0.38144,0.25443 -0.78682,0.47676 -1.14498,0.76329 -0.56218,0.44956 -0.9646,1.07702 -1.52654,1.52658 -0.35846,0.28653 -0.75163,0.5273 -1.14497,0.76329 -0.24422,0.14635 -0.56219,0.1805 -0.7633,0.38162 -0.32462,0.32437 -0.4697,0.79258 -0.7633,1.14494 -0.34577,0.41462 -0.79939,0.73031 -1.14492,1.14494 -0.51986,0.62403 -0.78639,1.4641 -1.52659,1.90823 -0.34517,0.20697 -0.86044,0.0972 -1.14492,0.38167 -0.28472,0.28448 -0.14024,0.82312 -0.38144,1.14495 -0.17046,0.22759 -0.51926,0.23527 -0.76329,0.38167 -0.39353,0.236 -0.82061,0.43893 -1.14492,0.7633 -0.2013,0.20111 -0.25449,0.50886 -0.38144,0.76329 -0.25449,0.12724 -0.53558,0.21097 -0.7633,0.38168 -0.28713,0.21544 -1.69277,1.62096 -1.90827,1.90822 -0.17047,0.2276 -0.18075,0.56219 -0.38144,0.7633 -0.2013,0.20117 -0.56218,0.1805 -0.7633,0.38168 -0.20129,0.20111 -0.22366,0.52657 -0.38143,0.76329 -0.0997,0.14967 -0.2545,0.25443 -0.38144,0.38168 -0.30648,0.30648 -1.68782,1.57758 -1.90822,1.90822 -0.0707,0.10584 0.0707,0.27577 0,0.38168 -0.48903,0.73393 -1.41893,1.1743 -1.90821,1.90822 -0.0707,0.10585 0.0901,0.29167 0,0.38168 -0.2013,0.20112 -0.59241,0.15409 -0.7633,0.38162 -0.24119,0.32184 -0.2019,0.78511 -0.38144,1.14493 -0.0804,0.16092 -0.28169,0.23195 -0.38143,0.38162 -0.15778,0.23666 -0.21097,0.5357 -0.38144,0.76329 -0.43161,0.57572 -1.07703,0.96464 -1.52654,1.52659 -1.12539,1.40669 -0.43161,0.71914 -1.14497,1.90823 -0.23576,0.39334 -0.52713,0.75162 -0.7633,1.14494 -0.14629,0.24391 -0.21097,0.5357 -0.38144,0.76329 -0.21581,0.28786 -0.60268,0.44146 -0.7633,0.76329 -0.11364,0.2276 0.11365,0.53571 0,0.76329 -0.16079,0.32183 -0.54767,0.47544 -0.7633,0.76329 -0.93751,0.13607 -0.15837,0.81022 -0.38143,1.14494 -0.19949,0.29941 -0.60208,0.44147 -0.7633,0.7633 -0.11365,0.22759 0.0804,0.52192 0,0.76329 -0.0544,0.17065 -0.30104,0.2207 -0.38144,0.38162 -0.18014,0.3598 -0.23213,0.77141 -0.38144,1.14493 -0.10578,0.2641 -0.27625,0.49919 -0.38143,0.76329 -0.14931,0.37352 -0.20191,0.78512 -0.38144,1.14494 -0.20493,0.41027 -0.55795,0.73469 -0.7633,1.14495 -0.41408,0.82836 -0.34879,1.84315 -0.7633,2.67151 -0.16079,0.32184 -0.62964,0.42919 -0.7633,0.7633 -0.14205,0.35436 0.075,0.7707 0,1.14494 -0.0544,0.27892 -0.27625,0.49919 -0.38143,0.76329 -0.14931,0.37352 -0.23213,0.77142 -0.38144,1.14494 -0.10579,0.2641 -0.32582,0.48432 -0.38144,0.76329 -0.075,0.37424 0.075,0.77071 0,1.14494 -0.0544,0.27891 -0.27625,0.49919 -0.38143,0.76329 -1.10684,2.76716 0.0242,-0.13069 -0.38144,1.90823 -0.0786,0.39449 -0.30286,0.75046 -0.38144,1.14494 -0.0484,0.24948 0,0.50887 0,0.76329 v 1.14494 3.43482 c 0,0.50886 0.0997,1.0276 0,1.52658 -0.0792,0.39449 -0.28411,0.75466 -0.38144,1.14494 -0.0302,0.12344 0,0.25443 0,0.38162 v 1.14493 3.05318 2.67151 c 0,0.38168 -0.0544,0.76713 0,1.14495 0.0744,0.51926 0.2956,1.0092 0.38144,1.52659 0.0423,0.25098 -0.0617,0.51648 0,0.76328 0.0689,0.27595 0.32582,0.48432 0.38144,0.76329 0.075,0.37425 -0.075,0.77071 0,1.14494 0.0544,0.27892 0.31252,0.48735 0.38144,0.7633 0.0616,0.24681 0,0.50886 0,0.76329 v 2.67152 c 0,0.50887 -0.0997,1.0276 0,1.52659 0.0792,0.3945 0.30285,0.75046 0.38143,1.14493 0.0484,0.24948 -0.0617,0.51648 0,0.76329 0.0689,0.27596 0.31253,0.48735 0.38144,0.7633 0.0617,0.24681 -0.0484,0.51382 0,0.76329 0.0792,0.3945 0.30285,0.75046 0.38144,1.14494 0.0484,0.24948 0,0.50887 0,0.7633 v 1.14493 c 0,0.38162 -0.0629,0.76849 0,1.14494 0.0659,0.39679 0.28411,0.75466 0.38143,1.14494 0.0302,0.12344 0,0.25444 0,0.38162 0.12755,0.38168 0.28412,0.75466 0.38144,1.14495 0.0901,0.35919 -0.0901,0.78574 0,1.14494 0.0689,0.27595 0.32583,0.48432 0.38144,0.76329 0.075,0.37425 0,0.76329 0,1.14493 v 1.90824 c 0,0.25443 -0.0617,0.51648 0,0.76329 0.0689,0.27595 0.31252,0.48735 0.38144,0.76329 0.14991,0.60014 -0.12151,1.30059 0,1.90823 0.10276,0.51431 0.23756,1.02224 0.38143,1.52659 0.11063,0.38682 0.31555,0.74812 0.38144,1.14493 0.16745,1.00388 -0.14387,2.04568 0,3.05318 0.0423,0.28157 0.27626,0.49919 0.38144,0.76329 0.14931,0.37352 0.31555,0.74812 0.38144,1.14493 0.0629,0.37648 0,0.76329 0,1.14494 0.12694,0.38168 0.30285,0.75046 0.38143,1.14494 0.1203,0.60033 -0.1487,1.31454 0,1.90823 0.0689,0.27595 0.31253,0.48734 0.38144,0.76329 0.0617,0.24682 -0.0804,0.52192 0,0.76329 0.0544,0.17065 0.32462,0.21097 0.38144,0.38168 0.0804,0.24138 -0.0617,0.51648 0,0.7633 0.0689,0.27595 0.27565,0.49919 0.38144,0.76329 0.14931,0.37352 0.23212,0.77142 0.38143,1.14494 0.10579,0.26411 0.32583,0.48432 0.38144,0.76329 0.075,0.37424 -0.075,0.7707 0,1.14494 0.0955,0.47604 1.01646,1.65132 1.14492,1.90823 0.18014,0.3598 0.2019,0.78512 0.38144,1.14494 0.41045,0.82051 1.11632,1.46936 1.52659,2.28988 0.0544,0.11376 -0.0544,0.26785 0,0.38162 0.20493,0.41027 0.59301,0.71906 0.7633,1.14494 0.0943,0.23624 -0.13118,0.54514 0,0.7633 0.27746,0.4628 0.84551,0.69584 1.14492,1.14494 0.22306,0.33471 0.23212,0.77141 0.38143,1.14493 0.10579,0.2641 0.22367,0.52657 0.38144,0.76329 0.35303,0.52923 0.77521,1.00899 1.14492,1.52659 0.26658,0.37327 0.47695,0.78677 0.7633,1.14494 0.22487,0.28097 0.58454,0.45089 0.76329,0.76328 0.33973,0.59483 0.35243,1.36018 0.7633,1.90824 0.38144,0.50886 1.07679,0.69517 1.5266,1.14494 0.64868,0.64867 0.95347,1.57353 1.52659,2.28987 0.22488,0.28097 0.50899,0.50887 0.76324,0.7633 0.38144,0.38162 0.7633,0.76329 1.14498,1.14494 0.25449,0.25443 0.54707,0.47543 0.7633,0.76328 0.17046,0.2276 0.18074,0.56219 0.38143,0.7633 0.32462,0.32431 0.82061,0.43892 1.14498,0.76329 0.32462,0.32431 0.47695,0.78677 0.76324,1.14494 0.44974,0.56194 1.0948,0.95088 1.52659,1.52659 0.17047,0.22759 0.18075,0.56212 0.38144,0.76328 0.32401,0.32432 0.85125,0.41094 1.14492,0.76328 1.63752,3.27504 -0.24966,0.13238 1.90821,2.28989 1.52134,1.52134 -1.28304,-0.0363 1.14498,1.90822 0.31434,0.25147 0.82308,0.14024 1.14492,0.38143 0.45518,0.34154 0.36088,1.12431 0.7633,1.52654 0.20129,0.2013 0.53558,0.21097 0.76329,0.38144 2.33705,2.33704 -0.64366,-0.483 1.5266,1.14491 0.57548,0.43161 0.95087,1.09481 1.5266,1.5266 0.22729,0.17047 0.51926,0.23515 0.76323,0.38144 0.39353,0.23575 0.7633,0.50898 1.14498,0.76323 0.38144,0.2545 0.78675,0.47695 1.14492,0.7633 0.28109,0.22488 0.48239,0.53861 0.76329,0.7633 2.40723,1.92581 0.0653,-0.31615 1.90822,1.5266 0.25449,0.25449 0.50899,0.50898 0.7633,0.76329 0.25449,0.2545 0.45458,0.5779 0.7633,0.7633 0.34516,0.20674 0.79999,0.1747 1.14491,0.38144 0.3083,0.18498 0.47514,0.54767 0.7633,0.7633 0.22729,0.17047 0.53558,0.21097 0.7633,0.38144 0.28774,0.2158 0.45458,0.57789 0.7633,0.76329 0.34516,0.20674 0.77145,0.23213 1.14497,0.38144 0.26417,0.10579 0.50899,0.25449 0.76324,0.38144 0.25449,0.12694 0.56218,0.18074 0.7633,0.38144 0.2013,0.20129 0.12755,0.63605 0.38144,0.76329 0.34154,0.17047 0.79056,-0.14145 1.14491,0 0.33429,0.1336 0.47514,0.54768 0.7633,0.7633 0.22729,0.17047 0.51926,0.23515 0.7633,0.38144 0.39353,0.23575 0.7347,0.55795 1.14492,0.7633 0.35967,0.18014 0.77145,0.23212 1.14497,0.38143 0.26417,0.10579 0.50899,0.2545 0.7633,0.38144 0.25449,0.12755 0.51926,0.23515 0.7633,0.38144 0.39353,0.23575 0.70974,0.61822 1.14492,0.76324 0.36209,0.1209 0.76849,-0.0629 1.14491,0 0.50657,0.0846 2.96542,1.10737 3.05319,1.14497 0.26175,0.11184 0.48239,0.33489 0.7633,0.38144 0.50173,0.0834 1.02982,-0.11062 1.5266,0 0.66875,0.14871 1.25826,0.54647 1.90821,0.7633 2.17129,0.72376 0.83379,0.0302 2.67152,0.7633 0.26416,0.10578 0.4842,0.32582 0.76329,0.38143 0.37419,0.075 0.7685,-0.0629 1.14492,0 3.35018,0.55856 -0.58334,0.14025 1.90828,0.76324 0.24663,0.0617 0.52168,-0.0804 0.76323,0 0.17047,0.0544 0.21097,0.32462 0.38144,0.38144 0.24119,0.0804 0.50899,0 0.7633,0 h 1.14492 c 0.25449,0 0.51382,-0.0484 0.76329,0 0.39474,0.0792 0.75049,0.30285 1.14492,0.38144 0.24966,0.0484 0.51624,-0.0617 0.7633,0 0.27625,0.0689 0.4842,0.32582 0.7633,0.38143 0.62372,0.12453 1.27216,0 1.90827,0 h 3.81643 2.28989 c 0.38144,0 0.77068,0.075 1.14492,0 0.27867,-0.0544 0.49327,-0.29197 0.7633,-0.38143 0.1209,-0.0423 0.25449,0 0.38144,0 h 1.14491 c 0.2545,0 0.51624,0.0617 0.7633,0 0.7063,0.28351 0.69995,-0.65201 1.14492,-0.7633 0.37055,-0.0925 0.77472,0.0925 1.14498,0 0.1747,-0.0423 0.22064,-0.30104 0.38143,-0.38144 0.11365,-0.0544 0.27565,0.0707 0.38144,0 0.29923,-0.19948 0.44128,-0.60268 0.7633,-0.7633 0.22729,-0.11364 0.51382,0.0484 0.7633,0 1.98541,-0.39715 0.38143,-0.25449 1.90827,-0.76329 0.1209,-0.0423 0.25812,0.0302 0.38144,0 0.3905,-0.0973 0.75465,-0.28412 1.14492,-0.38144 0.34516,-0.0864 1.84135,0 2.28989,0 0.25449,0 0.52168,0.0804 0.7633,0 0.2696,-0.0901 0.48722,-0.31253 0.7633,-0.38144 0.24663,-0.0617 0.50898,0 0.76329,0 0.2545,-0.12694 0.49327,-0.29197 0.7633,-0.38144 0.1209,-0.0423 0.25449,0 0.38144,0 0.38144,0 0.77073,0.075 1.14492,0 2.76164,-0.55251 -1.74422,-0.38143 1.90827,-0.38143 h 3.81643 1.14498 c 0.25449,0 0.52168,0.0804 0.7633,0 0.17046,-0.0544 0.22064,-0.30104 0.38143,-0.38144 0.11365,-0.0544 0.2545,0 0.38144,0 0.25449,0 0.52168,0.0804 0.7633,0 0.17047,-0.0544 0.22064,-0.30104 0.38144,-0.38144 0.243,-0.1215 1.57828,0.11002 1.90821,0 2.16229,-1.08114 -0.56883,0.14206 1.5266,-0.38144 0.5519,-0.13782 0.97463,-0.62529 1.52659,-0.76329 0.24664,-0.0617 0.51624,0.0616 0.7633,0 0.55191,-0.13783 0.98684,-0.58334 1.52654,-0.7633 0.1209,-0.0423 0.26779,0.0544 0.38143,0 1.16384,-0.58213 -0.69801,-0.30225 1.14492,-0.7633 0.24663,-0.0617 0.50899,0 0.7633,0 0.12755,0 0.26779,0.0544 0.38144,0 0.16079,-0.0804 0.23212,-0.2817 0.38143,-0.38144 0.19223,-0.84085 0.78512,-0.2019 1.14492,-0.38144 0.41045,-0.20492 0.75163,-0.52712 1.14498,-0.76329 0.25449,-0.12695 0.50898,-0.2545 0.7633,-0.38144 0.12694,0 0.26779,0.0544 0.38143,0 0.41046,-0.20493 0.73471,-0.55795 1.14498,-0.7633 0.8437,-0.42194 0.87604,-0.38144 1.52654,-0.38144 0.38143,0 0.77472,0.0925 1.14497,0 0.1747,-0.0423 0.23213,-0.28169 0.38144,-0.38143 0.23696,-0.15778 0.52652,-0.22367 0.7633,-0.38144 0.14991,-0.0997 0.22064,-0.30104 0.38144,-0.38144 0.23998,-0.11969 1.28673,0.11969 1.52659,0 0.1608,-0.0804 0.22064,-0.30104 0.38144,-0.38144 0.30527,-0.15293 0.83958,0.15234 1.14492,0 0.16079,-0.0804 0.22064,-0.30104 0.38143,-0.38143 0.0985,-0.0484 2.01932,0 2.28984,0 h 0.38143 c 0.12695,0 0.2678,0.0544 0.38144,0 0.1608,-0.0804 0.22064,-0.30104 0.38144,-0.38144 0.24059,-0.1203 1.66744,0.12029 1.90821,0 0.1608,-0.0804 0.22064,-0.30104 0.38144,-0.38144 0.15112,-0.0756 1.06694,0.078 1.14498,0 0.0901,-0.0901 -0.0901,-0.29137 0,-0.38144 0.18014,-0.18014 0.53558,0.11365 0.7633,0 0.32159,-0.16079 0.44128,-0.60207 0.76329,-0.76329 0.22729,-0.11365 0.58334,0.18014 0.76324,0 0.0901,-0.0901 -0.0901,-0.29198 0,-0.38144 0.0901,-0.0901 0.29197,0.0901 0.38144,0 0.18014,-0.18014 -0.18014,-0.58334 0,-0.7633 0.0901,-0.0901 0.29137,0.0901 0.38144,0 0.18014,-0.18014 -0.18014,-0.58334 0,-0.7633 0.0901,-0.0901 0.29197,0.0901 0.38143,0 0.18014,-0.18014 -0.11364,-0.53558 0,-0.76329 0.0804,-0.1608 0.30104,-0.22065 0.38144,-0.38144 0.11365,-0.22729 -0.18014,-0.58334 0,-0.76324 0.0901,-0.0901 0.29197,0.0901 0.38144,0 0.25449,-0.25449 -0.25449,-0.50899 0,-0.7633 0.0901,-0.0901 0.29197,0.0901 0.38144,0 0.0901,-0.0901 -0.0901,-0.29197 0,-0.38144 0.0901,-0.0901 0.26779,0.0544 0.38143,0 0.1608,-0.0804 0.22064,-0.30103 0.38144,-0.38143 0.11365,-0.0544 0.29137,0.0901 0.38144,0 0.0901,-0.0901 -0.0901,-0.29197 0,-0.38144 0.0901,-0.0901 0.29137,0.0901 0.38144,0 0.0901,-0.0901 -0.0901,-0.29137 0,-0.38144 0.078,-0.078 0.99361,0.0756 1.14491,0 0.1608,-0.0804 0.22064,-0.30104 0.38144,-0.38143 0.22729,-0.11365 0.53558,0.11364 0.7633,0 0.16079,-0.0804 0.22064,-0.30104 0.38144,-0.38144 0.15112,-0.0756 1.06693,0.078 1.14497,0 0.0901,-0.0901 -0.0901,-0.29137 0,-0.38144 0.0901,-0.0901 0.29137,0.0901 0.38144,0 0.0901,-0.0901 -0.0901,-0.29137 0,-0.38144 0.19102,-0.19102 0.95414,0.19102 1.14492,0 0.0901,-0.0901 -0.0901,-0.29136 0,-0.38143 0.0919,-0.0919 1.43477,0.0919 1.52659,0 0.0901,-0.0901 -0.0901,-0.29198 0,-0.38144 3.7e-4,-3.6e-4 1.14323,6e-4 1.14498,0 0.17047,-0.0544 0.22064,-0.30104 0.38144,-0.38144 0.11364,-0.0544 0.26779,0.0544 0.38143,0 0.1608,-0.0804 0.22065,-0.30104 0.38144,-0.38144 0.34154,-0.17046 0.80356,0.17047 1.14492,0 0.11364,-0.0544 -0.0901,-0.29136 0,-0.38143 0.0901,-0.0901 0.25449,0 0.38144,0 0.27021,0 2.19118,0.0484 2.28983,0 0.1608,-0.0804 0.22064,-0.30104 0.38144,-0.38144 0.15112,-0.0756 1.06693,0.078 1.14491,0 0.0901,-0.0901 -0.0901,-0.29137 0,-0.38144 0.0901,-0.0901 0.2545,0 0.38144,0 0.27021,0 2.19118,0.0484 2.28983,0 0.1608,-0.0804 0.22065,-0.30104 0.38144,-0.38144 0.11365,-0.0544 0.2545,0 0.38144,0 0.25449,0 0.52168,0.0804 0.7633,0 0.17047,-0.0544 0.22064,-0.30104 0.38143,-0.38143 0.30528,-0.15234 0.83959,0.15233 1.14492,0 0.32159,-0.1608 0.42194,-0.64954 0.7633,-0.7633 0.1747,-0.0605 1.35673,0.0846 1.5266,0 1.16383,-0.58213 -0.69802,-0.30225 1.14491,-0.7633 0.24664,-0.0617 0.50899,0 0.7633,0 0.12694,0 0.26779,0.0544 0.38144,0 0.32159,-0.1608 0.42194,-0.64947 0.7633,-0.7633 0.24119,-0.0804 0.50898,0 0.76329,0 0.2545,-0.25449 0.45459,-0.57814 0.7633,-0.76327 0.34517,-0.20698 0.77146,-0.23224 1.14498,-0.38161 0.26416,-0.10567 0.50899,-0.25444 0.76324,-0.38168 0.76329,-0.38162 1.55815,-0.70587 2.28989,-1.14494 0.39353,-0.236 0.73471,-0.5582 1.14498,-0.7633 0.35967,-0.17989 0.76825,-0.2404 1.14491,-0.38168 0.64144,-0.24052 1.2955,-0.45693 1.90822,-0.76328 3.06377,-1.53187 -1.35335,0.0502 3.05319,-1.90823 0.47937,-0.21303 1.05745,-0.14708 1.5266,-0.38162 1.13784,-0.56896 1.91528,-1.72096 3.05313,-2.28989 0.46909,-0.2346 1.04451,-0.17506 1.52659,-0.38167 0.5906,-0.25317 2.28053,-1.68482 2.67152,-1.90823 0.3494,-0.19961 0.78512,-0.20172 1.14497,-0.38162 4.58294,-2.29148 -1.64157,0.60329 1.90822,-1.52658 0.34517,-0.20698 0.79999,-0.1747 1.14492,-0.38168 0.30829,-0.18515 0.47573,-0.54743 0.76329,-0.76329 0.2279,-0.17065 0.53559,-0.21097 0.7633,-0.38162 1.65076,-1.65073 -0.10095,-0.0598 1.5266,-1.14494 0.14991,-0.0998 0.25449,-0.25443 0.38144,-0.38162 0.38143,-0.38162 0.72352,-0.80777 1.14497,-1.14493 0.22185,-0.17772 0.53559,-0.21097 0.7633,-0.38168 0.97735,-0.73303 0.54949,-0.79355 1.52654,-1.52658 0.22729,-0.17071 0.54102,-0.20396 0.76329,-0.38162 0.42134,-0.33719 0.7633,-0.7633 1.14498,-1.14494 0.63605,-0.63608 1.2721,-1.27216 1.90822,-1.90824 0.50898,-0.50886 1.01773,-1.01772 1.52659,-1.52658 0.38144,-0.38161 0.73029,-0.79941 1.14492,-1.14494 0.35242,-0.29366 0.8206,-0.43892 1.14492,-0.76329 0.0181,-0.0157 2.65047,-3.40316 2.67157,-3.43481 0.15777,-0.23666 0.21097,-0.5357 0.38144,-0.7633 0.2158,-0.28786 0.50898,-0.50886 0.76329,-0.76329 0.12695,-0.12725 0.31495,-0.2146 0.38144,-0.38168 0.19465,-0.48698 0.18679,-1.03957 0.38144,-1.52658 0.0671,-0.16702 0.27384,-0.23768 0.38144,-0.38162 0.27504,-0.36692 0.50898,-0.76329 0.76329,-1.14494 0.2545,-0.38168 0.58274,-0.72334 0.7633,-1.14494 0.20674,-0.48208 0.2545,-1.01772 0.38144,-1.52658 0.38144,-0.89051 0.71161,-1.80496 1.14492,-2.67152 0.41045,-0.82052 1.20446,-1.43093 1.52659,-2.28988 0.2279,-0.60737 0.0913,-1.32804 0.38144,-1.90823 2.915,-5.82993 -0.538,3.85216 1.90821,-2.67152 0.18438,-0.49115 0.1469,-1.05744 0.38144,-1.52659 0.26054,-1.28727 1.72028,-1.64625 2.2899,-2.67152 0.3905,-0.70333 0.43644,-1.55465 0.76329,-2.28988 0.18619,-0.41916 0.55795,-0.73468 0.76324,-1.14494 0.30648,-0.61275 0.457,-1.29548 0.7633,-1.90823 0.20492,-0.41027 0.60208,-0.71546 0.7633,-1.14494 0.22789,-0.60737 0.15414,-1.30085 0.38143,-1.90823 0.1608,-0.42949 0.55796,-0.73468 0.7633,-1.14494 0.30648,-0.61275 0.52289,-1.26677 0.7633,-1.90823 0.42315,-1.12925 0.72147,-2.30556 1.14492,-3.43481 0.52349,-1.39666 1.11584,-2.76058 1.52659,-4.19811 0.14387,-0.50433 0.23757,-1.02225 0.38144,-1.52659 0.25208,-0.88123 0.82236,-2.32727 1.14498,-3.05316 0.23092,-0.51987 0.63986,-0.97121 0.76324,-1.52659 0.13782,-0.62093 -0.0701,-1.27605 0,-1.90823 0.11606,-1.04263 0.55734,-2.0245 0.76329,-3.05317 0.15173,-0.75879 0.19405,-1.53916 0.38144,-2.28988 0.0689,-0.27595 0.34154,-0.48166 0.38144,-0.76329 0.0901,-0.62968 -0.0635,-1.27531 0,-1.90823 0.0647,-0.64546 0.30104,-1.26457 0.38144,-1.90823 0.0484,-0.37871 0,-0.76329 0,-1.14494 v -4.57976 -3.81646 -1.14494 c 0,-0.38168 0.0544,-0.76713 0,-1.14495 -0.0744,-0.51926 -0.2545,-1.01771 -0.38144,-1.52658 -0.22548,-0.90219 -0.6664,-2.56269 -0.7633,-3.43482 -0.0544,-0.50572 0.0484,-1.02024 0,-1.52658 -0.0768,-0.76998 -0.24301,-1.52854 -0.38144,-2.28988 -0.11606,-0.6382 -0.3228,-1.26221 -0.38143,-1.90823 -0.0689,-0.76015 0.0949,-1.53248 0,-2.28987 -0.0363,-0.28224 -0.2817,-0.49696 -0.38144,-0.7633 -0.2823,-0.75335 -0.58213,-1.50589 -0.7633,-2.28987 -0.20251,-0.87652 -0.20553,-1.78945 -0.38144,-2.67153 -0.0792,-0.39449 -0.28411,-0.75466 -0.38143,-1.14493 -0.28472,-1.13785 -0.41348,-2.31534 -0.7633,-3.43482 0.16926,-1.43024 -1.13035,-2.24619 -1.5266,-3.43482 -1.43229,-4.29698 0.0242,-1.09438 -1.90821,-5.34304 -1.01121,-2.22463 -1.07105,-1.83607 -2.67152,-4.57976 -0.28653,-0.49146 -0.4576,-1.0466 -0.76329,-1.52658 -0.83367,-1.31009 -1.88906,-2.47513 -2.67152,-3.81646 -0.65993,-1.13135 -1.13784,-2.37556 -1.90821,-3.43482 -0.26961,-0.37098 -0.87519,-0.39232 -1.14498,-0.76329 -0.77037,-1.05925 -1.205,-2.32982 -1.90821,-3.43482 -0.19344,-0.30358 -0.54224,-0.47924 -0.7633,-0.76329 -0.67184,-0.86382 -1.23638,-1.8077 -1.90822,-2.67152 -0.22124,-0.28405 -0.50898,-0.50886 -0.76329,-0.76329 -1.40975,-1.40973 -2.96881,-2.64487 -4.57973,-3.81646 -0.89055,-0.63609 -1.78103,-1.27216 -2.67157,-1.90824 -0.2545,-0.25443 -0.48239,-0.53849 -0.7633,-0.76329 -1.0317,-0.82538 -4.17913,-2.43782 -4.57973,-2.67152 -1.81651,-1.05963 -0.66374,-0.7135 -3.05319,-1.90823 -0.61272,-0.30636 -1.28057,-0.48867 -1.90822,-0.7633 -1.40823,-0.61611 -2.80516,-1.25819 -4.19811,-1.90822 -0.51563,-0.24059 -1.02927,-0.48698 -1.52659,-0.7633 -0.64845,-0.36022 -1.22229,-0.8625 -1.90822,-1.14494 -12.97594,-5.34304 0.7633,0.76329 -6.86962,-2.28987 -2.56095,-1.02437 -0.49085,-0.60656 -3.43481,-1.52659 -1.38448,-0.43264 -2.80347,-0.74646 -4.19811,-1.14494 -0.38687,-0.1105 -0.78512,-0.20172 -1.14497,-0.38162 -0.41046,-0.20511 -0.70974,-0.61825 -1.14492,-0.76329 -0.36209,-0.12066 -0.7685,0.0627 -1.14492,0 -0.39715,-0.0661 -0.75961,-0.26604 -1.14497,-0.38168 -0.88704,-0.2661 -1.78442,-0.4972 -2.67152,-0.76329 -0.38506,-0.11558 -0.74812,-0.31548 -1.14491,-0.38162 -2.91144,0 0.30103,0.17065 -1.90822,-0.38162 -0.49025,-0.12259 -1.7161,0.0718 -2.28989,0 -0.76783,-0.096 -1.52207,-0.28568 -2.2899,-0.38167 -0.25268,-0.0314 -0.51624,0.0617 -0.7633,0 -0.27565,-0.069 -0.48722,-0.31265 -0.76329,-0.38162 -0.49388,-0.12344 -1.02759,0.0998 -1.5266,0 -0.39413,-0.0789 -0.75042,-0.30274 -1.14492,-0.38168 -0.24965,-0.0502 -0.50898,0 -0.76329,0 h -3.43481 -15.26584 -4.96141 -1.90821 c -0.12755,0 -0.26115,-0.0405 -0.38144,0 -0.26961,0.0899 -0.49327,0.29167 -0.7633,0.38168 -0.26235,0.0875 -0.91974,-0.11262 -1.14492,0 -1.74663,0.87333 1.61951,-0.1582 -1.14491,0.76329 -0.3216,0.10712 -1.68105,-0.11358 -1.90822,0 -0.16079,0.0804 -0.21097,0.32474 -0.38144,0.38162 -0.24119,0.0805 -0.52168,-0.0805 -0.76329,0 -0.17047,0.0568 -0.22065,0.30116 -0.38144,0.38162 -0.11365,0.0568 -0.26779,-0.0568 -0.38144,0 -0.16079,0.0805 -0.21097,0.32474 -0.38144,0.38168 -0.24119,0.0805 -0.53558,-0.11376 -0.76329,0 -0.11365,0.0568 0.11364,0.32474 0,0.38162 -0.7633,0.38168 -0.57246,-0.19084 -1.14492,0 -2.76442,0.92148 0.60147,-0.11002 -1.14498,0.76329 -0.22729,0.11377 -0.53558,-0.11376 -0.7633,0 -0.16079,0.0805 -0.22064,0.30116 -0.38143,0.38168 -0.11365,0.0568 -0.29198,-0.0899 -0.38144,0 -0.0901,0.09 0.0901,0.29167 0,0.38162 -0.0901,0.09 -0.26779,-0.0568 -0.38144,0 -0.16079,0.0805 -0.22064,0.30116 -0.38144,0.38168 -0.11364,0.0568 -0.26779,-0.0568 -0.38143,0 -0.1608,0.0805 -0.22064,0.30116 -0.38144,0.38162 -0.11365,0.0568 -0.26779,-0.0568 -0.38144,0 -0.45821,0.22898 -0.68695,0.91594 -1.14491,1.14493 -0.11365,0.0568 -0.2678,-0.0568 -0.38144,0 -0.1608,0.0805 -0.22064,0.30116 -0.38144,0.38162 -0.52652,0.2632 -0.34154,-0.4622 -0.7633,0.38168 -0.0544,0.11377 0.0901,0.29167 0,0.38162 -0.0901,0.0899 -0.26779,-0.0568 -0.38143,0 -0.1608,0.0805 -0.22065,0.30116 -0.38144,0.38162 -0.11365,0.0568 -0.26779,-0.0568 -0.38144,0 -0.32159,0.16092 -0.44128,0.60238 -0.7633,0.76329 -0.11364,0.0568 -0.29197,-0.0899 -0.38144,0 -0.0901,0.0899 0.0901,0.29167 0,0.38168 -0.0901,0.0899 -0.29136,-0.09 -0.38143,0 -0.0901,0.0899 0.0901,0.29167 0,0.38162 -0.0901,0.0899 -0.26779,-0.0568 -0.38144,0 -0.32159,0.16092 -0.44128,0.60238 -0.7633,0.76329 -0.11364,0.0568 -0.29197,-0.0899 -0.38144,0 -0.0901,0.0899 0.0901,0.29167 0,0.38168 -0.0901,0.0899 -0.29197,-0.09 -0.38143,0 -0.0901,0.0899 0.0901,0.29167 0,0.38162 -0.0901,0.0899 -0.26779,-0.0568 -0.38144,0 -0.1608,0.0804 -0.22064,0.30116 -0.38144,0.38168 -0.11364,0.0568 -0.29197,-0.0899 -0.38144,0 -0.0901,0.0899 0.0901,0.29167 0,0.38162 -0.0901,0.0899 -0.29136,-0.8532 -0.38143,-0.7633 -0.0901,0.0899 0.0901,0.29167 0,0.38168 -0.0901,0.0899 -0.2545,0 -0.38144,0 -0.12694,0 -0.29197,-0.09 -0.38144,0 -0.0901,0.0899 -0.67323,0.29167 -0.7633,0.38162 8.3744,-8.36327 0.18014,-0.1799 0,0 -0.0901,0.0899 0.0901,0.29167 0,0.38168 -0.18014,0.1799 -0.53558,-0.11376 -0.76329,0 -0.1608,0.0805 -0.22064,0.30116 -0.38144,0.38162 -0.11365,0.0568 -0.29137,-0.0899 -0.38144,0 -0.0901,0.09 0.0901,0.29167 0,0.38162 -0.0901,0.09 -0.25449,0 -0.38144,0 -0.26537,0 -1.77026,-0.069 -1.90827,0 -0.1608,0.0805 -0.22064,0.30122 -0.38144,0.38168 -0.10034,0.0502 -1.33303,-0.0484 -1.52659,0 l -3.0532,0.76329 h -3.81643 c -0.15112,0 -1.74524,-0.0815 -1.90821,0 -0.1608,0.0805 -0.22064,0.30116 -0.38144,0.38162 -0.24361,0.12193 -1.21939,-0.1024 -1.52659,0 -0.26961,0.0899 -0.49327,0.29167 -0.7633,0.38168 -0.1209,0.0405 -0.26719,-0.055 -0.38144,0 -3.32618,1.59252 -24.16814,9.62524 -2.28989,0 -0.26961,0.0899 -0.49327,0.29167 -0.7633,0.38162 -0.1209,0.0405 -0.26779,-0.0568 -0.38144,0 -0.16079,0.0805 -0.22064,0.30122 -0.38144,0.38168 -0.23998,0.11993 -1.28667,-0.11994 -1.52653,0 -0.1608,0.0805 -0.22064,0.30116 -0.38144,0.38162 -0.11364,0.0568 -0.25449,0 -0.38144,0 -0.25449,0 -0.53558,-0.11377 -0.76329,0 -0.11365,0.0568 0.0544,0.26785 0,0.38167 -0.0804,0.16092 -0.22065,0.30116 -0.38144,0.38162 -0.15113,0.0757 -1.06688,-0.078 -1.14492,0 -0.0901,0.0899 0,0.25444 0,0.38168 -0.25449,0 -0.53558,-0.11376 -0.7633,0 -0.11364,0.0568 0.0901,0.29167 0,0.38162 -0.18014,0.1799 -0.58334,-0.1799 -0.76329,0 -0.0901,0.0899 0,0.25443 0,0.38168 -0.2545,0.12725 -0.49327,0.29167 -0.7633,0.38162 -0.2412,0.0805 -0.53559,-0.11377 -0.7633,0 -0.1608,0.0805 -0.22064,0.30116 -0.38144,0.38168 -0.11364,0.0568 -0.26114,-0.0405 -0.38144,0 -0.2696,0.0899 -0.50898,0.25443 -0.76323,0.38162 -0.2545,0.12724 -0.52652,0.22384 -0.7633,0.38162 -0.14992,0.0998 -0.22064,0.30122 -0.38144,0.38168 -0.11364,0.0568 -0.26114,-0.0405 -0.38144,0 -0.27021,0.09 -0.49326,0.29166 -0.76329,0.38161 -0.1209,0.0405 -0.26115,-0.0405 -0.38144,0 -0.26961,0.09 -0.49327,0.29167 -0.7633,0.38168 -0.1209,0.0405 -0.25449,0 -0.38144,0 -0.25449,0.12719 -0.49327,0.29167 -0.76329,0.38162 -0.1209,0.0405 -0.26115,-0.0405 -0.38144,0 -0.53982,0.1799 -0.9869,0.5834 -1.5266,0.76329 -0.24119,0.0805 -0.52168,-0.0805 -0.7633,0 -1.5139,0.50463 -0.0121,0.25866 -1.52659,0.76329 -0.1209,0.0405 -0.25449,0 -0.38144,0 -0.34638,0 -2.42379,-0.0826 -2.67151,0 -0.17047,0.0568 -0.21097,0.32474 -0.38144,0.38168 -0.24119,0.0805 -0.50899,0 -0.7633,0 -0.12694,0 -0.26779,-0.0568 -0.38143,0 -0.1608,0.0805 -0.21097,0.32473 -0.38144,0.38162 -0.2412,0.0805 -0.50899,0 -0.7633,0 h -1.52654 c -0.25449,0 -0.51624,-0.0617 -0.76329,0 -0.27626,0.069 -0.48723,0.31264 -0.7633,0.38168 -0.24664,0.0617 -0.52168,-0.0805 -0.7633,0 -0.17047,0.0568 -0.21097,0.32473 -0.38144,0.38162 -0.24119,0.0805 -0.50898,0 -0.76329,0 h -2.28984 -2.67151 c -0.35121,0 -0.8015,0.0687 -1.14498,0 -0.51443,-0.10289 -1.01773,-0.25444 -1.52659,-0.38162 z"
         id="path12783"
         inkscape:connector-curvature="0"
         sodipodi:nodetypes="ccccccccccccccccccccccccccccccccccccccccccccccccccccccccccccccccscsccsccsccccccssccccccssccccccssccccccccccccccccccccccccccccccccccccccccccccccccccccccccccccccccccccccccccccccccccccssccccscsccssccccccccccsccccscscsccscccccsccsscccccccsccccccccssccccccccccccccccccccccccccccccccccccccccccccccsccccsccscccccssccccccccccccccccccccccccccccccccccccccccccccccccccccccccccccccccsccsccccccccccccccccccccccccccccccccccccccccccccccccscccsccccccccccccccccccccccccccccccccccccccccccccccccsccccccccsccscsccccsccccccsccccccccccccccccccccccccccsccsccssccccscsccc" />
    </clipPath>
    <clipPath
       clipPathUnits="userSpaceOnUse"
       id="clipPath13141">
      <path
         style="fill:none;stroke:#000000;stroke-width:1.38821685px;stroke-linecap:butt;stroke-linejoin:miter;stroke-opacity:1"
         d="m 49.296223,37.2571 c 0.233721,0.175287 0.467437,0.350578 0.701155,0.525866 0,0.05843 -0.04131,0.133977 0,0.175289 0.04131,0.04131 0.149159,-0.05227 0.175289,0 0.07839,0.156782 -0.07839,0.369082 0,0.525866 0.03696,0.07391 0.138336,0.101382 0.175289,0.175289 0.1209,0.241787 -0.212283,0.156792 0.175289,0.350578 0.05227,0.02613 0.133977,-0.04131 0.175288,0 0.08263,0.08263 -0.08263,0.267946 0,0.350578 0.04131,0.04131 0.133977,-0.04131 0.175291,0 0.08263,0.08263 -0.05227,0.246056 0,0.350577 0.03695,0.07391 0.138335,0.101381 0.175288,0.17529 0.02613,0.05227 -0.02613,0.123023 0,0.175288 0.07391,0.147816 0.298317,0.193795 0.350578,0.350577 0.03695,0.110863 -0.05227,0.246055 0,0.350578 0.02613,0.05227 0.123024,-0.02613 0.175289,0 0.07391,0.03695 0.138335,0.101382 0.175288,0.175289 0.02613,0.05227 -0.02613,0.123024 0,0.175288 0.03695,0.07391 0.138336,0.101381 0.175289,0.175291 0.02613,0.05227 -0.04131,0.133977 0,0.175287 0.04131,0.04131 0.133977,-0.04131 0.175289,0 0.04131,0.04131 -0.02613,0.123024 0,0.175291 0.08625,0.172488 0.614911,0.528664 0.701155,0.701155 0.02613,0.05227 -0.04131,0.133976 0,0.175288 0.04131,0.04131 0.123024,-0.02613 0.175289,0 0.72951,0.364756 -0.18739,-0.01208 0.175288,0.350576 0.04131,0.04131 0.133977,-0.04131 0.175289,0 0.04131,0.04131 -0.02613,0.123024 0,0.175291 0.03695,0.07391 0.11686,0.11686 0.17529,0.175288 0.05843,0.05843 0.101382,0.138336 0.175289,0.175289 0.05227,0.02613 0.133977,-0.04131 0.175289,0 0.04131,0.04131 -0.04131,0.133977 0,0.175287 0.04131,0.04131 0.133977,-0.04131 0.175288,0 0.08263,0.08263 -0.08263,0.267948 0,0.350581 0.04131,0.04131 0.133977,-0.04131 0.175289,0 0.04131,0.04131 -0.04131,0.133976 0,0.175288 0.08263,0.08263 0.267946,-0.08263 0.350578,0 0.08263,0.08263 -0.05227,0.246054 0,0.350577 0.03121,0.06243 0.319367,0.288157 0.350577,0.350578 0.02613,0.05227 -0.04131,0.133977 0,0.175289 0.04131,0.04131 0.123024,-0.02613 0.175289,0 0.729511,0.364756 -0.18739,-0.01208 0.175289,0.350578 0.04131,0.04131 0.133977,-0.04131 0.175288,0 0.04131,0.04131 -0.04131,0.133976 0,0.175288 0.04131,0.04131 0.133977,-0.04131 0.175289,0 0.04131,0.04131 -0.04131,0.133977 0,0.175289 0.04131,0.04131 0.133977,-0.04131 0.175289,0 0.04131,0.04131 -0.04131,0.133977 0,0.175288 0.04131,0.04131 0.133977,-0.04131 0.17529,0 0.04131,0.04131 -0.04131,0.133976 0,0.17529 0.04131,0.04131 0.133977,-0.04131 0.175289,0 0.04131,0.04131 -0.04131,0.133976 0,0.175288 0.213498,0.213498 0.391631,0.08211 0.525866,0.350579 0,0.467437 -0.05843,-0.05843 0.175289,0.175288 0.04131,0.04131 -0.04131,0.133976 0,0.175288 0.08263,0.08263 0.267945,-0.08263 0.350577,0 0.04131,0.04131 -0.04131,0.133977 0,0.175291 0.04131,0.04131 0.123024,-0.02613 0.175289,0 0.07391,0.03695 0.101382,0.138335 0.175289,0.175288 0.05227,0.02613 0.123024,-0.02613 0.175289,0 0.07391,0.03695 0.0969,0.149159 0.175288,0.175288 0.110863,0.03695 0.233719,0 0.350578,0 0.175289,0 0.350579,0 0.525868,0 0.576173,0 -0.481231,-0.02613 0.525866,0.175288 0.286474,0.05729 0.593018,-0.07085 0.876444,0 0.126758,0.03169 0.222463,0.149665 0.350577,0.175291 0.171885,0.03437 0.352962,-0.02882 0.525866,0 0.182258,0.03037 0.344685,0.139052 0.525868,0.175288 0.114583,0.02292 0.233717,0 0.350577,0 0.233719,0 0.467437,0 0.701155,0 0.876444,0 1.752889,0 2.629333,0 0.584296,0 1.168593,0 1.752889,0 0.184166,0 0.702496,0.03479 0.876444,0 0.487003,0.340974 0.447652,-0.287202 0.701155,-0.350579 0.170055,-0.04252 0.350579,0 0.525867,0 0.233718,0 0.470617,0.03843 0.701155,0 0.25775,-0.04295 0.447652,-0.287199 0.701155,-0.350576 0.113376,-0.02835 0.235989,0.02292 0.350578,0 0.181183,-0.03623 0.344684,-0.139052 0.525867,-0.175288 0.114584,-0.02292 0.237208,0.02835 0.350578,0 0.253502,-0.06337 0.444923,-0.299332 0.701155,-0.350579 0.171885,-0.03437 0.353981,0.03437 0.525866,0 0.128119,-0.02563 0.22927,-0.126772 0.350578,-0.175288 0.410604,-0.164242 0.852248,-0.276017 1.227022,-0.525867 0.06876,-0.04584 0.101382,-0.138336 0.175289,-0.17529 0.847297,-0.423647 0.20792,-0.04159 0.876444,-0.175288 1.841646,-0.368328 -0.641423,0.08128 0.876444,-0.525867 0.162751,-0.06511 0.355812,0.04252 0.525867,0 0.305258,-0.07631 0.595009,-0.209861 0.876444,-0.350577 0.259012,-0.129506 0.570352,-0.438411 0.876444,-0.525866 1.464563,-0.418449 0.341429,0.04725 1.402311,-0.350577 0.05067,-0.019 1.163587,-0.486082 1.40231,-0.525868 0.172905,-0.02882 0.359573,0.05543 0.525868,0 0.19986,-0.06662 0.328609,-0.276606 0.525866,-0.350577 0.278963,-0.104616 0.589974,-0.09344 0.876444,-0.175291 0.125619,-0.0359 0.22663,-0.133976 0.350577,-0.175287 0.228549,-0.07619 0.469515,-0.1091 0.701157,-0.175289 0.177661,-0.05075 0.348205,-0.124523 0.525866,-0.175288 0.231642,-0.06618 0.475582,-0.09069 0.701155,-0.175291 2.443432,-0.916287 -1.300548,0.258228 1.5776,-0.701155 1.475004,-0.491669 0.805094,-0.204986 1.928176,-0.525866 0.177661,-0.05077 0.34889,-0.122191 0.525868,-0.175289 0.407433,-0.122232 0.812541,-0.254928 1.227021,-0.350578 0.346312,-0.07992 0.711308,-0.07316 1.051734,-0.175288 0.250284,-0.07509 0.453258,-0.267947 0.701155,-0.350577 0.282645,-0.09422 0.593799,-0.08107 0.876442,-0.17529 0.247898,-0.08263 0.446075,-0.293892 0.701155,-0.350577 0.285194,-0.06337 0.586552,0.03623 0.876445,0 0.0043,-5.4e-4 1.033172,-0.345275 1.051734,-0.350578 0.231642,-0.06619 0.469513,-0.1091 0.701155,-0.175288 0.177663,-0.05077 0.346613,-0.130478 0.525868,-0.17529 0.578076,-0.144519 1.17481,-0.206059 1.752887,-0.350577 0.179255,-0.04481 0.350579,-0.116861 0.525868,-0.175291 0.292149,-0.05843 0.587409,-0.103033 0.876439,-0.175287 0.17926,-0.04481 0.34361,-0.144912 0.52587,-0.175289 0.1729,-0.02882 0.35234,0.02479 0.52587,0 0.23849,-0.03407 0.46352,-0.135684 0.70115,-0.175288 0.23054,-0.03843 0.47442,0.05668 0.70116,0 0.12676,-0.03169 0.22382,-0.143602 0.35058,-0.175291 0.11338,-0.02835 0.23371,0 0.35057,0 0.11686,0 0.23372,0 0.35058,0 0.0584,0 0.11986,0.01848 0.17529,0 0.12395,-0.04131 0.22246,-0.149665 0.35058,-0.175287 0.32129,-0.06426 0.90376,0.06465 1.22702,0 0.18118,-0.03623 0.34361,-0.144915 0.52587,-0.175289 0.1729,-0.02882 0.35057,0 0.52586,0 0.17529,-0.05843 0.34661,-0.130478 0.52587,-0.175288 0.0567,-0.01417 0.11686,0 0.17529,0 0.17529,0 0.35296,0.02882 0.52586,0 0.18226,-0.03037 0.34361,-0.144914 0.52587,-0.175291 0.28818,-0.04803 0.58827,0.04803 0.87645,0 0.23763,-0.03961 0.46266,-0.141217 0.70115,-0.175287 0.28922,-0.04131 0.5843,0 0.87645,0 0.64273,0 1.28544,0 1.92817,0 1.98661,0 3.97322,0 5.95983,0 6.07668,0 12.15335,0 18.23003,0 1.75289,0 3.50578,0 5.25867,0 0.52587,0 1.05174,0 1.57759,0 0.11689,0 0.23372,0 0.35058,0 0.11689,0 0.23972,0.03695 0.35058,0 0.0784,-0.02613 0.11689,-0.11686 0.17529,-0.175289 0.11689,-0.05843 0.22247,-0.149668 0.35058,-0.175288 0.34377,-0.06876 0.70593,0.05764 1.05173,0 0.18226,-0.03037 0.34296,-0.149159 0.52587,-0.175291 0.23138,-0.03305 0.47062,0.03843 0.70116,0 0.47526,-0.07921 0.92826,-0.264385 1.40231,-0.350578 0.17244,-0.03136 0.35295,0.02882 0.52587,0 0.48979,-0.08163 1.08781,-0.444234 1.5776,-0.525865 0.1729,-0.02882 0.36311,0.06511 0.52585,0 0.15346,-0.06137 0.20277,-0.276671 0.35058,-0.350578 1.67207,-0.836033 -0.12244,0.274539 1.22703,-0.175289 0.19987,-0.06662 0.34521,-0.242188 0.52586,-0.350578 0.70938,-0.425628 -0.007,0.0019 0.70116,-0.175288 0.12675,-0.03169 0.23372,-0.11686 0.35058,-0.175289 0.11689,-0.05843 0.24187,-0.102811 0.35058,-0.175288 0.0687,-0.04584 0.0969,-0.149159 0.17529,-0.17529 0.11078,-0.03695 0.23721,0.02835 0.35057,0 0.31726,0.105657 0.32599,-0.283957 0.52587,-0.350578 0.11092,-0.03695 0.25335,0.06482 0.35058,0 0.1087,-0.07248 0.0829,-0.258192 0.17529,-0.350577 0.0414,-0.04131 0.11855,0.01417 0.17529,0 0.17925,-0.04481 0.37804,-0.06443 0.52586,-0.175291 0.10453,-0.07839 0.0666,-0.278102 0.17529,-0.350576 0.0972,-0.06482 0.24606,0.05227 0.35058,0 0.14781,-0.07391 0.21836,-0.25142 0.35058,-0.350579 0.20903,-0.156782 0.48373,-0.205631 0.70114,-0.350576 0.0687,-0.04584 0.10648,-0.129451 0.17529,-0.175288 0.1087,-0.07248 0.24187,-0.102812 0.35058,-0.175291 0.0687,-0.04584 0.10134,-0.138335 0.17529,-0.175287 0.0522,-0.02613 0.13397,0.04131 0.17529,0 0.36269,-0.36268 -0.55421,0.01417 0.17529,-0.350579 0.0522,-0.02613 0.12661,0.03241 0.17529,0 0.0965,-0.06434 0.80481,-0.780927 0.87644,-0.876444 0.0784,-0.104518 0.0666,-0.278104 0.17529,-0.350577 0.0973,-0.06482 0.25335,0.06482 0.35058,0 0.1087,-0.07248 0.0829,-0.258195 0.17529,-0.350578 0.0414,-0.04131 0.13396,0.04131 0.17529,0 0.0414,-0.04131 -0.0414,-0.133976 0,-0.175288 0.46744,0 -0.0584,0.05843 0.17529,-0.175289 0.0414,-0.04131 0.13396,0.04131 0.17529,0 0.0826,-0.08263 -0.0826,-0.267947 0,-0.350578 0.0414,-0.04131 0.13397,0.04131 0.17529,0 0.0826,-0.08263 -0.0522,-0.246055 0,-0.350578 0.0369,-0.07391 0.13827,-0.101382 0.17529,-0.175291 0.0522,-0.104518 -0.0826,-0.267944 0,-0.350576 0.0414,-0.04131 0.123,0.02613 0.17529,0 0.38756,-0.193786 0.0544,-0.108794 0.17528,-0.350579 0.0369,-0.07391 0.13827,-0.101381 0.17529,-0.175287 0.0523,-0.104519 -0.0369,-0.239716 0,-0.350577 0.42324,-1.269691 -0.0505,0.276362 0.35058,-0.525867 0.0261,-0.05227 -0.0261,-0.123024 0,-0.175288 0.0369,-0.07391 0.13827,-0.101382 0.17529,-0.175291 0.0261,-0.05227 -0.0261,-0.123023 0,-0.175288 0.0369,-0.07391 0.14916,-0.0969 0.17529,-0.175289 0.0369,-0.110863 -0.0369,-0.239715 0,-0.350578 0.0522,-0.156782 0.27667,-0.20276 0.35058,-0.350577 0.0522,-0.104519 -0.0522,-0.246056 0,-0.350578 0.0369,-0.07391 0.14915,-0.0969 0.17529,-0.175288 0.0369,-0.110863 0,-0.233719 0,-0.350578 0,-0.05843 -0.0261,-0.123024 0,-0.175289 0.0369,-0.07391 0.13827,-0.101381 0.17529,-0.175288 0.0475,-0.09509 -0.0479,-0.653194 0,-0.701157 0.0414,-0.04131 0.14915,0.05227 0.17528,0 0.0701,-0.14023 -0.0701,-0.385637 0,-0.525866 0.0369,-0.07391 0.13826,-0.101381 0.17529,-0.175289 0.023,-0.04609 0,-0.609494 0,-0.701155 0,-0.525866 0,-1.051734 0,-1.5776 0,-0.06437 0.007,-0.694101 0,-0.701155 -0.0414,-0.04131 -0.13397,0.04131 -0.17529,0 -0.0414,-0.04131 0.0414,-0.133977 0,-0.175289 -0.0414,-0.04131 -0.13397,0.04131 -0.17528,0 -0.0826,-0.08263 0.0826,-0.267946 0,-0.350577 -0.0414,-0.04131 -0.13396,0.04131 -0.17529,0 -0.0414,-0.04131 0.0261,-0.123024 0,-0.175289 -0.1938,-0.387573 -0.10884,-0.05439 -0.35058,-0.175289 -0.72951,-0.364755 0.18738,0.01208 -0.17529,-0.350579 -0.0414,-0.04131 -0.13396,0.04131 -0.17529,0 -0.0414,-0.04131 0.0522,-0.149158 0,-0.175288 -0.10453,-0.05227 -0.23372,0 -0.35058,0 -0.0584,0 -0.13396,0.04131 -0.17529,0 -0.0414,-0.04131 0.0414,-0.133977 0,-0.175289 -0.0826,-0.08263 -0.24605,0.05227 -0.35057,0 -0.14781,-0.07391 -0.19381,-0.298317 -0.35058,-0.350578 -0.11092,-0.03695 -0.23372,0 -0.35058,0 -0.0584,0 -0.12299,0.02613 -0.17529,0 -0.0738,-0.03695 -0.10134,-0.138335 -0.17529,-0.175288 -0.1087,-0.05434 -0.76886,0.05379 -0.87644,0 -0.0523,-0.02613 0.0414,-0.133977 0,-0.175289 -0.0414,-0.04131 -0.11688,0 -0.17529,0 -0.0584,0 -0.11688,0 -0.17529,0 -0.70116,0 -1.40232,0 -2.10346,0 -0.46744,0 -0.93488,0 -1.40231,0 -0.0916,0 -0.65507,-0.02304 -0.70116,0 -0.0738,0.03695 -0.10134,0.138336 -0.17529,0.175289 -0.10328,0.05167 -0.94994,-0.05089 -1.05173,0 -0.0522,0.02613 0.0414,0.133977 0,0.175288 -0.11702,0.116999 -0.23358,-0.116998 -0.35058,0 -0.0414,0.04131 0.0414,0.133977 0,0.175289 -0.006,0.0057 -0.48336,0 -0.52587,0 -0.93487,0 -1.86975,0 -2.80461,0 -0.46744,0 -0.93488,0 -1.40232,0 -0.17529,0 -0.35957,0.05543 -0.52586,0 -0.0784,-0.02613 -0.0951,-0.155247 -0.17529,-0.175289 -0.10467,-0.02617 -1.10914,0 -1.22703,0 -0.11689,0 -0.23721,0.02835 -0.35057,0 -0.12674,-0.03169 -0.22247,-0.149665 -0.35058,-0.175288 -0.17189,-0.03437 -0.35058,0 -0.52587,0 -0.0584,0 -0.12299,0.02613 -0.17529,0 -0.88381,-0.441907 1.70079,0.04265 -1.05173,-0.350578 -0.27985,-0.03998 -0.59936,0.05542 -0.87645,0 -0.18119,-0.03623 -0.35058,-0.11686 -0.52587,-0.175289 -0.17529,-0.05843 -0.35056,-0.11686 -0.52585,-0.175288 -0.17529,-0.05843 -0.34362,-0.144913 -0.52587,-0.175289 -0.40345,-0.06724 -0.82213,0.05785 -1.22702,0 -0.18293,-0.02613 -0.34296,-0.149158 -0.52587,-0.175289 -0.23138,-0.03305 -0.46979,0.03305 -0.70116,0 -0.35665,0.06089 -0.56789,-0.28887 -0.87644,-0.350577 -0.38088,-0.07617 -0.85028,0.09419 -1.22703,0 -0.0801,-0.02005 -0.10134,-0.138336 -0.17529,-0.17529 -0.14022,-0.07012 -0.38565,0.07012 -0.52586,0 -0.0738,-0.03696 -0.10134,-0.138336 -0.17529,-0.175289 -0.0533,-0.02667 -0.44692,0 -0.52587,0 -0.35058,0 -0.70116,0 -1.05172,0 -1.1686,0 -2.33719,0 -3.50578,0 -0.46744,0 -0.93488,0 -1.40232,0 -0.0584,0 -0.13396,0.04131 -0.17529,0 -0.0414,-0.04131 0,-0.11686 0,-0.175289 0,-0.292147 0,-0.584296 0,-0.876444 0,-0.409007 0,-0.818015 0,-1.227022 0,-0.07895 -0.0267,-0.47252 0,-0.525867 0.36475,-0.729509 -0.0125,0.18739 0.35058,-0.175288 0.0876,-0.08764 -0.0876,-0.438221 0,-0.525867 0.0414,-0.04131 0.13396,0.04131 0.17529,0 0.0414,-0.04131 -0.0261,-0.123023 0,-0.175288 0.0369,-0.07391 0.13827,-0.101382 0.17529,-0.175289 0.0261,-0.05227 -0.0414,-0.133977 0,-0.175289 0.0414,-0.04131 0.13396,0.04131 0.17529,0 0.0414,-0.04131 -0.0414,-0.133977 0,-0.175289 0.0414,-0.04131 0.13396,0.04131 0.17529,0 0.0414,-0.04131 -0.0414,-0.133976 0,-0.175288 0.0414,-0.04131 0.13396,0.04131 0.17529,0 0.0414,-0.04131 -0.0414,-0.133977 0,-0.175289 0.0826,-0.08263 0.24605,0.05227 0.35058,0 0.0738,-0.03695 0.10134,-0.138336 0.17526,-0.175289 0.10454,-0.05227 0.26797,0.08263 0.3506,0 0,-0.467437 -0.0584,0.05843 0.17529,-0.17529 0.0414,-0.04131 -0.0414,-0.133977 0,-0.175289 0.0479,-0.04796 0.60607,0.04755 0.70116,0 0.0738,-0.03695 0.10134,-0.138335 0.17529,-0.175288 0.0522,-0.02613 0.11689,0 0.17529,0 0.11689,0 0.2397,0.03695 0.35056,0 0.0784,-0.02613 0.10134,-0.1383362 0.1753,-0.1752892 0.0522,-0.026126 0.13396,0.041313 0.17529,0 0.0414,-0.041313 -0.0414,-0.1339768 0,-0.1752887 0.0414,-0.041313 0.11688,0 0.17529,0 0.0584,0 0.11688,0 0.17529,0 0.46744,0 -0.0584,0.05843 0.17529,-0.1752888 0.0876,-0.087638 0.43821,0.087652 0.52587,0 0.0414,-0.041313 -0.0414,-0.1339768 0,-0.1752887 0.0826,-0.082627 0.26794,0.082627 0.35056,0 0.0414,-0.041313 -0.0522,-0.1491583 0,-0.1752888 0.10454,-0.052266 0.24606,0.052266 0.35058,0 0.0522,-0.026126 -0.0414,-0.1339768 0,-0.1752887 0.0414,-0.041313 0.123,0.026126 0.17529,0 0.58136,-0.5813602 -0.16526,0.082627 0.35058,-0.1752887 0.0739,-0.036954 0.10134,-0.1383359 0.17529,-0.1752888 0.0522,-0.026126 0.123,0.026126 0.17529,0 0.0739,-0.036954 0.10134,-0.1383358 0.17529,-0.1752887 0.0522,-0.026126 0.123,0.026126 0.17529,0 0.0739,-0.036954 0.0969,-0.1491584 0.17529,-0.1752888 0.11092,-0.036954 0.23721,0.028347 0.35057,0 0.31726,0.1056572 0.32601,-0.2839584 0.52587,-0.3505775 0.11092,-0.036954 0.23972,0.036954 0.35058,0 0.0784,-0.026126 0.10134,-0.1383358 0.17529,-0.1752901 0.0522,-0.026126 0.123,0.026126 0.17529,0 0.0738,-0.036954 0.0969,-0.1491584 0.17529,-0.1752888 0.11092,-0.036954 0.24605,0.052266 0.35057,0 0.0522,-0.026126 -0.0414,-0.1339768 0,-0.1752887 0.0826,-0.082627 0.24606,0.052266 0.35058,0 0.18843,-0.094218 0.33027,-0.2723362 0.52587,-0.3505775 0.10856,-0.043396 0.23972,0.036954 0.35058,0 0.0784,-0.026126 0.10647,-0.1294513 0.17529,-0.1752888 0.11689,-0.05843 0.23372,-0.1168601 0.35058,-0.1752887 0.0584,0 0.123,0.026126 0.17528,0 0.0739,-0.036954 0.10134,-0.1383358 0.17529,-0.1752888 0.10453,-0.052266 0.26795,0.082627 0.35058,0 0.36268,-0.3626786 -0.55422,0.014174 0.17529,-0.3505775 0.0522,-0.026126 0.11688,0 0.17529,0 0.0584,-0.05843 0.10134,-0.1383358 0.17529,-0.1752887 0.0522,-0.026126 0.13396,0.041313 0.17529,0 0.36267,-0.3626786 -0.55422,0.014174 0.17529,-0.3505775 0.0522,-0.026126 0.12299,0.026126 0.17529,0 0.58135,-0.5813602 -0.16527,0.082627 0.35056,-0.1752888 0.0739,-0.036954 0.10134,-0.1383358 0.17529,-0.1752901 0.0522,-0.026126 0.14917,0.052266 0.17529,0 0.0522,-0.1045189 -0.0826,-0.2679453 0,-0.3505775 0.0826,-0.082627 0.24606,0.052266 0.35058,0 0.0522,-0.026126 -0.0414,-0.1339768 0,-0.1752888 0.11689,-0.05843 0.23372,-0.1168601 0.35058,-0.1752887 0,-0.05843 -0.0414,-0.1339768 0,-0.1752888 0.0925,-0.092386 0.24187,-0.1028113 0.35058,-0.1752887 0.13758,-0.091678 0.20275,-0.2766688 0.35057,-0.3505775 0.0522,-0.026126 0.13396,0.041313 0.17529,0 0.0925,-0.092386 0.10287,-0.2418676 0.17529,-0.3505775 0.10079,-0.1512573 0.38895,-0.3889506 0.52587,-0.5258663 0.0584,-0.05843 0.13827,-0.1013814 0.17529,-0.1752887 0.0261,-0.052266 -0.0261,-0.1230238 0,-0.1752901 0.0369,-0.073909 0.12938,-0.1065318 0.17529,-0.1752888 0.0725,-0.1087113 0.10287,-0.2418676 0.17529,-0.3505775 0.0916,-0.1375029 0.29832,-0.1937937 0.35058,-0.3505775 0.0369,-0.110863 -0.0523,-0.2460559 0,-0.3505775 0.0738,-0.1478159 0.27666,-0.2027616 0.35057,-0.3505775 0.0523,-0.1045188 -0.0369,-0.23971588 0,-0.35057749 0.0523,-0.15678382 0.29833,-0.19379507 0.35058,-0.3505775 2.6e-4,-7.9545e-4 -1.7e-4,-0.52569966 0,-0.52586764 0.0414,-0.04131333 0.13396,0.04131334 0.17529,0 0.0414,-0.04131333 0,-0.11686009 0,-0.17528875 0,-0.35057749 0,-0.70115499 0,-1.05173252 0,-0.05843 0.0261,-0.1230237 0,-0.1752887 -0.0738,-0.1478173 -0.27669,-0.2027616 -0.35058,-0.3505775 -0.0261,-0.052266 0.0414,-0.1339768 0,-0.1752888 -0.0414,-0.041313 -0.13396,0.041313 -0.17529,0 -0.0414,-0.041313 0.0261,-0.1230237 0,-0.1752887 -0.0369,-0.073909 -0.13827,-0.1013815 -0.17529,-0.1752902 -0.0261,-0.052266 0.0414,-0.1339768 0,-0.1752887 -0.0826,-0.082627 -0.26794,0.082627 -0.35057,0 -0.0414,-0.041313 0.0414,-0.1339768 0,-0.1752888 -0.0414,-0.041313 -0.11689,0 -0.17529,0 -0.35058,0 -0.70116,0 -1.05174,0 -0.17529,0 -0.35958,-0.055432 -0.52586,0 -0.0784,0.026126 -0.10134,0.1383358 -0.17529,0.1752888 -0.0696,0.034747 -0.49004,-0.03583 -0.52587,0 -0.0414,0.041313 0.0522,0.1491583 0,0.1752887 -0.10453,0.052266 -0.23971,-0.036954 -0.35058,0 -0.15678,0.052266 -0.20276,0.2766703 -0.35058,0.3505789 -0.10453,0.052266 -0.24604,-0.052266 -0.35058,0 -0.0738,0.036954 -0.11689,0.1168601 -0.17527,0.1752888 -0.11689,0 -0.23972,-0.036954 -0.35058,0 -0.54714,0.182377 0.0584,0.1168601 -0.17529,0.3505775 -0.0826,0.082627 -0.24607,-0.052266 -0.35058,0 -0.0739,0.036954 -0.10134,0.1383358 -0.17529,0.1752887 -0.0696,0.034747 -0.49003,-0.03583 -0.52587,0 -0.0414,0.041313 0.0414,0.1339768 0,0.1752888 -0.0826,0.082627 -0.24605,-0.052266 -0.35057,0 -0.14782,0.073909 -0.20276,0.27666881 -0.35058,0.35057748 -0.0522,0.0261262 -0.1198,-0.0184772 -0.17529,0 -0.12397,0.0413133 -0.22663,0.1339768 -0.35058,0.17528875 -0.0554,0.0184772 -0.123,-0.0261263 -0.17529,0 -0.37408,0.18704416 0.0235,0.16353332 -0.35058,0.35057749 -0.10453,0.0522664 -0.24605,-0.0522664 -0.35057,0 -0.58137,0.58136022 0.16525,-0.0826267 -0.35058,0.17528875 -0.62495,0.31247095 0.27435,0.03810656 -0.35058,0.35057889 -0.0522,0.0261262 -0.1198,-0.0184772 -0.17529,0 -0.12397,0.0413133 -0.22663,0.13397681 -0.35058,0.17528875 -0.0554,0.0184772 -0.13396,-0.0413133 -0.17529,0 -0.0414,0.0413133 0.0414,0.13397681 0,0.17528875 -0.0876,0.0876381 -0.43822,-0.087652 -0.52586,0 -0.36268,0.36267859 0.55422,-0.0141737 -0.17529,0.3505775 -0.10453,0.0522663 -0.24606,-0.0522664 -0.35058,0 -0.0739,0.0369543 -0.10134,0.13833584 -0.17529,0.17528874 -0.10453,0.052266 -0.26794,-0.082627 -0.35058,0 -0.23372,0.2337188 0.37185,0.1682005 -0.17529,0.3505775 -0.79796,0 -0.01,-0.082627 -0.52587,0.1752888 -0.0522,0.026126 -0.13396,-0.041313 -0.17527,0 -0.0414,0.041313 0,0.11686 0,0.1752887 -0.11689,0.05843 -0.22664,0.1339768 -0.35058,0.1752888 -0.11092,0.036954 -0.24607,-0.052266 -0.35058,0 -0.0739,0.036954 -0.0969,0.1491583 -0.17529,0.1752887 -0.11092,0.036954 -0.24607,-0.052266 -0.35058,0 -0.0522,0.026126 0.0261,0.1230238 0,0.1752888 -0.0369,0.073909 -0.10134,0.1383358 -0.17529,0.1752887 -0.0696,0.034747 -0.49003,-0.03583 -0.52586,0 -0.0414,0.041313 0.0414,0.1339768 0,0.1752888 -0.0826,0.082627 -0.24608,-0.052266 -0.35058,0 -0.3741,0.1870441 0.0235,0.1635347 -0.35058,0.3505788 -0.10453,0.052266 -0.26794,-0.082627 -0.35058,0 -0.0414,0.041313 0.0414,0.1339768 0,0.1752888 -0.0826,0.082627 -0.23972,-0.036954 -0.35058,0 -0.12397,0.041313 -0.22663,0.1339768 -0.35057,0.1752887 -0.0554,0.018477 -0.123,-0.026126 -0.17529,0 -0.0738,0.036954 -0.10134,0.1383358 -0.17529,0.1752888 -0.10453,0.052266 -0.24606,-0.052266 -0.35058,0 -0.0738,0.036954 -0.10134,0.1383358 -0.17529,0.1752887 -0.10453,0.052266 -0.23972,-0.036954 -0.35058,0 -0.12397,0.041313 -0.22663,0.1339768 -0.35058,0.1752888 -0.11092,0.036954 -0.24605,-0.052266 -0.35057,0 -0.14781,0.073909 -0.20276,0.2766688 -0.35058,0.3505775 -0.11022,0.055084 -0.59099,-0.055085 -0.70116,0 -0.0739,0.036954 -0.10134,0.1383358 -0.17529,0.1752887 -0.10453,0.052266 -0.24605,-0.052266 -0.35058,0 -0.14782,0.073909 -0.20275,0.2766703 -0.35056,0.3505775 -0.0696,0.034747 -0.49004,-0.03583 -0.52587,0 -0.0414,0.041313 0,0.1168601 0,0.1752888 -0.11689,0 -0.24607,-0.052266 -0.35058,0 -0.0522,0.026126 0.0522,0.1491583 0,0.1752887 -0.14023,0.070119 -0.38564,-0.070119 -0.52588,0 -0.7295,0.3647554 0.1874,-0.012077 -0.17529,0.3505789 -0.0826,0.082627 -0.24604,-0.052266 -0.35056,0 -0.0739,0.036954 -0.11689,0.1168601 -0.17529,0.1752888 -0.11689,0 -0.23972,-0.036954 -0.35058,0 -0.15679,0.052266 -0.1938,0.2983167 -0.35058,0.3505775 -0.11092,0.036954 -0.24605,-0.052266 -0.3506,0 -0.0522,0.026126 0.0414,0.1339768 0,0.1752887 -0.0414,0.041313 -0.11688,0 -0.17529,0 -0.11688,0 -0.24603,-0.052266 -0.35055,0 -0.0522,0.026126 0,0.1168601 0,0.1752888 -0.11689,0.05843 -0.22664,0.1339768 -0.35058,0.1752887 -0.11092,0.036954 -0.24606,-0.052266 -0.35058,0 -0.0739,0.036954 -0.10134,0.1383358 -0.17529,0.1752888 -0.10453,0.052266 -0.24606,-0.052266 -0.35058,0 -0.0738,0.036954 -0.10134,0.1383358 -0.17529,0.1752887 -0.0522,0.026126 -0.123,-0.026126 -0.17529,0 -0.0739,0.036954 -0.10134,0.1383358 -0.17529,0.1752888 -0.0522,0.026126 -0.123,-0.026126 -0.17528,0 -0.0738,0.036954 -0.10134,0.1383358 -0.17529,0.1752887 -0.0522,0.026126 -0.12299,-0.026126 -0.17529,0 -0.14781,0.073909 -0.20276,0.2766702 -0.35058,0.3505775 -0.0522,0.026126 -0.1198,-0.018477 -0.17529,0 -0.12397,0.041313 -0.22662,0.1339768 -0.35058,0.1752888 -0.11092,0.036954 -0.24605,-0.052266 -0.35058,0 -0.80222,0.4011141 0.74384,-0.072645 -0.52585,0.3505789 -0.0554,0.018477 -0.13397,-0.041313 -0.17529,0 -0.0414,0.041313 0.0414,0.1339768 0,0.1752887 -0.0414,0.041313 -0.11981,-0.018477 -0.1753,0 -1.26969,0.4232298 0.27637,-0.050531 -0.52587,0.3505775 -0.10453,0.052266 -0.24606,-0.052266 -0.35058,0 -0.0738,0.036954 -0.10134,0.1383358 -0.17529,0.1752888 -0.10453,0.052266 -0.24604,-0.052266 -0.35056,0 -0.14782,0.073909 -0.1938,0.2983166 -0.35058,0.3505774 -0.11092,0.036954 -0.23972,-0.036954 -0.35058,0 -0.15679,0.052266 -0.1938,0.2983167 -0.35058,0.3505775 -0.11092,0.036954 -0.23372,0 -0.35058,0 -0.0585,0 -0.123,-0.026126 -0.17529,0 -0.80223,0.4011142 0.74383,-0.072645 -0.52586,0.3505775 -0.0554,0.018477 -0.123,-0.026126 -0.17529,0 -0.0738,0.036954 -0.0969,0.1491582 -0.17529,0.1752892 -0.11092,0.03695 -0.23372,0 -0.35058,0 -0.0584,0 -0.123,-0.02613 -0.17529,0 -0.80222,0.401114 0.74382,-0.07265 -0.52587,0.350577 -0.16796,0.05599 -0.71404,-0.05413 -0.87644,0 -0.0784,0.02613 -0.0969,0.149158 -0.17529,0.17529 -0.11092,0.03695 -0.2372,-0.02835 -0.35058,0 -0.12674,0.03169 -0.22382,0.1436 -0.35058,0.175289 -0.30434,0.07609 -0.74739,-0.07609 -1.05173,0 -0.12674,0.03169 -0.22382,0.1436 -0.35058,0.175289 -0.11341,0.02835 -0.23598,-0.02292 -0.35058,0 -0.18117,0.03623 -0.34661,0.130478 -0.52585,0.175288 -0.24938,0.06235 -0.64325,-0.07774 -0.87645,0 -0.0784,0.02613 -0.0951,0.155248 -0.17529,0.175289 -0.17006,0.04252 -0.35058,0 -0.52587,0 -0.11689,0 -0.23371,0 -0.35057,0 -0.52587,0 -1.05174,0 -1.57761,0 -0.52586,0 -1.05173,0 -1.5776,0 -0.11686,0 -0.24605,0.05227 -0.35057,0 -0.0523,-0.02613 0.0554,-0.156811 0,-0.175289 -0.1663,-0.05543 -0.35058,0 -0.52587,0 -0.35058,0 -0.70116,0 -1.05173,0 -0.17529,0 -0.35582,0.04251 -0.52587,0 -0.12674,-0.03169 -0.22663,-0.133976 -0.35058,-0.175288 -0.11086,-0.03696 -0.23971,0.03695 -0.35058,0 -0.12395,-0.04131 -0.22662,-0.133977 -0.35057,-0.175289 -0.11086,-0.03695 -0.23372,0 -0.35058,0 -0.29215,0 -0.5843,0 -0.87645,0 -0.0584,0 -0.12302,0.02613 -0.17528,0 -0.0739,-0.03695 -0.0969,-0.149158 -0.17529,-0.175289 -0.11086,-0.03695 -0.23372,0 -0.35058,0 -0.11686,0 -0.23372,0 -0.35058,0 -0.46743,0 -0.93487,0 -1.402308,0 -0.17529,0 -0.350579,0 -0.525869,0 -0.05843,0 -0.119858,0.01848 -0.175287,0 -0.123954,-0.04131 -0.223826,-0.143601 -0.350578,-0.17529 -0.113375,-0.02835 -0.233718,0 -0.350577,0 -0.175289,0 -0.350578,0 -0.525868,0 -0.525865,0 -1.051734,0 -1.577598,0 -0.876446,0 -1.752891,0 -2.629333,0 -0.15269,0 -0.987033,-0.03234 -1.051733,0 -0.188429,0.09422 -0.337438,0.256363 -0.525866,0.350579 -0.09269,0.04634 -0.615759,-0.02135 -0.701156,0 -0.317262,-0.105657 -0.326008,0.283957 -0.525866,0.350577 -0.110863,0.03696 -0.237208,-0.02835 -0.350578,0 -0.126758,0.03169 -0.22663,0.133977 -0.350577,0.175289 -0.110863,0.03695 -0.239716,-0.03695 -0.350578,0 -1.269691,0.42323 0.276359,-0.05053 -0.525868,0.350578 -0.110168,0.05508 -0.590982,-0.05509 -0.701155,0 -0.07391,0.03695 -0.101381,0.138336 -0.175288,0.175288 -0.05227,0.02613 -0.123024,-0.02613 -0.175289,0 -0.07391,0.03695 -0.101382,0.138336 -0.175289,0.175289 -0.05227,0.02613 -0.119858,-0.01848 -0.175289,0 -0.123953,0.04131 -0.22663,0.133977 -0.350577,0.175289 -0.120567,0.04019 -0.422443,-0.05171 -0.525868,0 -0.802227,0.401114 0.743825,-0.07264 -0.525866,0.350577 -0.0682,0.02274 -0.498664,-0.0272 -0.525866,0 -0.04131,0.04131 0.05227,0.149159 0,0.175289 -0.104519,0.05227 -0.233719,0 -0.350578,0 -0.05843,0 -0.133976,-0.04131 -0.175288,0 -0.04131,0.04131 0.04131,0.133977 0,0.175289 -0.04131,0.04131 -0.123024,-0.02613 -0.175289,0 -0.07391,0.03695 -0.101382,0.138336 -0.175289,0.175289 -0.108572,0.05429 -0.649291,-0.05186 -0.701155,0 -0.04131,0.04131 0.05227,0.149158 0,0.17529 -0.13828,0.156782 -0.369084,-0.07839 -0.525868,0 -0.07391,0.03695 -0.101381,0.138336 -0.175288,0.175289 -0.05227,0.02613 -0.11686,0 -0.175289,0 -0.05843,0.05843 -0.101382,0.138335 -0.175289,0.175288 -0.140231,0.07012 -0.385635,-0.07012 -0.525866,0 -0.07391,0.03695 -0.101382,0.138336 -0.175289,0.175289 -0.140231,0.07012 -0.385635,-0.07012 -0.525866,0 -0.147817,0.07391 -0.202762,0.276669 -0.350579,0.350578 -0.104519,0.05227 -0.246054,-0.05227 -0.350577,0 -0.07391,0.03695 -0.101382,0.138335 -0.175289,0.175288 -0.104519,0.05227 -0.267945,-0.08263 -0.350578,0 -0.04131,0.04131 0.04131,0.133977 0,0.175289 -0.08764,0.08765 -0.438222,-0.08764 -0.525866,0 -0.04131,0.04131 0.04131,0.133977 0,0.175289 -0.08263,0.08263 -0.246056,-0.05227 -0.350577,0 -0.07391,0.03695 -0.101382,0.138336 -0.175289,0.175289 -0.05227,0.02613 -0.133977,-0.04131 -0.175289,0 -0.04131,0.04131 0.04131,0.133976 0,0.175288 -0.04131,0.04131 -0.11686,0 -0.175289,0 -0.292149,0 -0.584296,0 -0.876445,0 -0.292147,0 -0.584296,0 -0.876444,0 -0.05843,0 -0.11686,0 -0.175288,0 -0.05843,0 -0.123024,0.02613 -0.175289,0 -0.07391,-0.03695 -0.101382,-0.138335 -0.175289,-0.175288 -0.140232,-0.07012 -0.385635,0.07012 -0.525867,0 -0.07391,-0.03696 -0.101382,-0.138336 -0.175289,-0.175289 -0.06949,-0.03475 -0.490031,0.03583 -0.525866,0 -0.04131,-0.04131 0.04131,-0.133977 0,-0.175289 -0.05428,-0.05428 -0.822166,0.05428 -0.876444,0 -0.04131,-0.04131 0.04131,-0.133977 0,-0.175289 -0.03583,-0.03583 -0.456367,0.03475 -0.525866,0 -0.07391,-0.03695 -0.101382,-0.138335 -0.175289,-0.175288 -0.104519,-0.05227 -0.246056,0.05227 -0.350579,0 -0.07391,-0.03696 -0.101382,-0.138336 -0.175289,-0.175289 -0.110169,-0.05509 -0.590982,0.05508 -0.701155,0 -0.07391,-0.03695 -0.101381,-0.138336 -0.175289,-0.175289 -0.12108,-0.06054 -0.814913,0.06153 -0.876443,0 -0.04131,-0.04131 0.04131,-0.133977 0,-0.175289 -0.04219,-0.04219 -0.658976,0.04217 -0.701157,0 -0.04131,-0.04131 0.04131,-0.133976 0,-0.175288 -0.08263,-0.08263 -0.267945,0.08263 -0.350577,0 -0.04131,-0.04131 0.04131,-0.133977 0,-0.175289 -0.08764,-0.08765 -0.438221,0.08764 -0.525866,0 -0.04131,-0.04131 0.04131,-0.133977 0,-0.17529 -0.04218,-0.04217 -0.658976,0.04219 -0.701155,0 -0.04131,-0.04131 0.04131,-0.133977 0,-0.175289 -1.68e-4,-1.67e-4 -0.525073,2.65e-4 -0.525867,0 -0.07839,-0.02613 -0.101381,-0.138336 -0.175288,-0.175289 -0.05227,-0.02613 -0.123024,0.02613 -0.175291,0 -0.07391,-0.03695 -0.101381,-0.138336 -0.175288,-0.175289 -0.110586,-0.05529 -0.76586,0.05529 -0.876444,0 -0.07391,-0.03695 -0.101382,-0.138335 -0.175289,-0.175288 -0.140231,-0.07012 -0.385635,0.07012 -0.525866,0 -0.07391,-0.03696 -0.101382,-0.138336 -0.175289,-0.175289 -0.05227,-0.02613 -0.123024,0.02613 -0.175289,0 -0.07391,-0.03695 -0.101381,-0.138336 -0.175288,-0.175289 -0.06949,-0.03475 -0.490033,0.03583 -0.525868,0 -0.04131,-0.04131 0.05227,-0.149158 0,-0.175289 -0.156782,-0.07839 -0.369082,0.07839 -0.525866,0 -0.07391,-0.03695 -0.101382,-0.138335 -0.175289,-0.175288 -0.140231,-0.07012 -0.385636,0.07012 -0.525866,0 -0.07391,-0.03696 -0.101382,-0.138336 -0.175289,-0.175289 -0.104519,-0.05227 -0.246056,0.05227 -0.350577,0 -0.07391,-0.03695 -0.101382,-0.138336 -0.175289,-0.175289 -0.104519,-0.05227 -0.239716,0.03695 -0.350578,0 -0.123954,-0.04131 -0.22663,-0.133977 -0.350579,-0.175289 -0.110863,-0.03695 -0.246054,0.05227 -0.350577,0 -0.147816,-0.07391 -0.20276,-0.27667 -0.350578,-0.350577 -0.108655,-0.05434 -0.768861,0.05379 -0.876443,0 -0.05227,-0.02613 0.04131,-0.133977 0,-0.175289 -0.06153,-0.06153 -0.755367,0.06054 -0.876445,0 -0.581359,-0.58136 0.165264,0.08263 -0.350578,-0.17529 -0.07391,-0.03695 -0.101381,-0.138336 -0.175289,-0.175289 -0.111543,-0.05576 -0.724897,0.05052 -0.876443,0 -0.123954,-0.04131 -0.226631,-0.133976 -0.350578,-0.175288 -0.110863,-0.03696 -0.246056,0.05227 -0.350577,0 -0.07391,-0.03696 -0.101382,-0.1383362 -0.175289,-0.1752892 -0.04609,-0.023044 -0.609494,0 -0.701157,0 -0.467436,0 -0.934873,0 -1.40231,0 -0.409007,0 -0.818015,0 -1.227022,0 -0.05843,0 -0.133977,-0.041313 -0.175289,0 -0.04131,0.041313 0.04131,0.1339772 0,0.1752892 -0.04131,0.04131 -0.133977,-0.04131 -0.175289,0 -0.04131,0.04131 0,0.11686 0,0.175288 0,0.05843 0,0.11686 0,0.175289 0,0.233719 0,0.467438 0,0.701156 0,0.175289 0,0.350578 0,0.525867 0,0.175288 -0.04252,0.355811 0,0.525866 0.02005,0.08017 0.149159,0.0969 0.175289,0.175289 0.04228,0.126841 -0.05778,0.643373 0,0.701155 0.04131,0.04131 0.133977,-0.04131 0.175289,0 0.684106,0.684106 -0.04058,0.09413 0.175288,0.525867 0.03695,0.07391 0.138336,0.101382 0.175289,0.175289 0.05227,0.104519 -0.08263,0.267945 0,0.350578 0.04131,0.04131 0.133977,-0.04131 0.175289,0 0.04131,0.04131 -0.02613,0.123023 0,0.175288 0.105171,0.210347 0.420694,0.31552 0.525868,0.525867 0.02613,0.05227 -0.04131,0.133976 0,0.175288 0.04131,0.04131 0.123023,-0.02613 0.175288,0 0.07391,0.03695 0.11686,0.11686 0.175289,0.175289 0.58136,0.58136 -0.08263,-0.165263 0.175289,0.350578 0.364755,0.72951 -0.01208,-0.18739 0.350577,0.17529 0.04131,0.04131 -0.04131,0.133977 0,0.175288 0.04131,0.04131 0.133977,-0.04131 0.175289,0 0.04131,0.04131 -0.02613,0.123024 0,0.175289 0.03695,0.07391 0.11686,0.11686 0.175289,0.175289 0.05843,0.05843 0.101381,0.138336 0.175289,0.175289 0.05227,0.02613 0.123023,-0.02613 0.175288,0 0.07391,0.03695 0.101382,0.138336 0.175289,0.175288 0.05227,0.02613 0.123024,-0.02613 0.175289,0 0.147817,0.07391 0.202761,0.276669 0.350579,0.350578 0.05227,0.02613 0.123024,-0.02613 0.175289,0 0.07391,0.03695 0.101381,0.138336 0.175288,0.175289 0.05227,0.02613 0.11686,0 0.175289,0 0.05843,0.05843 0.101381,0.138336 0.175289,0.175288 0.05227,0.02613 0.133977,-0.04131 0.175289,0 0.04131,0.04131 -0.04131,0.133977 0,0.175289 0.08263,0.08263 0.267945,-0.08263 0.350577,0 0.04131,0.04131 -0.05227,0.149159 0,0.175289 0.13828,0.156784 0.369084,-0.07839 0.525866,0 0.07391,0.03695 0.101382,0.138336 0.175289,0.175289 0.104519,0.05227 0.267947,-0.08263 0.350578,0 0.04131,0.04131 -0.04131,0.133977 0,0.175288 0.04131,0.04131 0.133976,-0.04131 0.175288,0 0.04131,0.04131 -0.04131,0.133977 0,0.175289 0.08764,0.08765 0.438223,-0.08764 0.525868,0 0.04131,0.04131 -0.04131,0.133977 0,0.17529 0.08263,0.08263 0.267945,-0.08263 0.350577,0 0.04131,0.04131 -0.04131,0.133977 0,0.175289 0.08764,0.08764 0.438222,-0.08765 0.525867,0 0.04131,0.04131 -0.04131,0.133977 0,0.175289 0.04131,0.04131 0.133976,-0.04131 0.175288,0 0.04131,0.04131 -0.04131,0.133977 0,0.175289 0.0071,0.0071 0.636784,0 0.701155,0 0.467438,0 0.934874,0 1.402312,0 0.05843,0 0.133977,-0.04131 0.175289,0 0.04131,0.04131 -0.04131,0.133976 0,0.175288 0.04217,0.04217 0.658975,-0.04217 0.701155,0 0.04131,0.04131 -0.04131,0.133977 0,0.175289 0.08263,0.08263 0.267946,-0.08263 0.350577,0 0.04131,0.04131 -0.04131,0.133977 0,0.175289 0.04131,0.04131 0.133977,-0.04131 0.175289,0 0.04131,0.04131 -0.04131,0.133977 0,0.175289 0.08263,0.08263 0.246056,-0.05227 0.350579,0 0.07391,0.03695 0.101381,0.138335 0.175288,0.175288 0.05227,0.02613 0.133977,-0.04131 0.175289,0 0.04131,0.04131 -0.04131,0.133977 0,0.175289 0.08263,0.08263 0.246056,-0.05227 0.350578,0 0.147816,0.07391 0.202761,0.27667 0.350577,0.350578 0.104519,0.05227 0.246056,-0.05227 0.350578,0 0.07391,0.03695 0.101381,0.138335 0.175288,0.175288 0.05227,0.02613 0.119859,-0.01848 0.175289,0 0.123954,0.04131 0.226631,0.133977 0.350578,0.175289 0.05543,0.01848 0.123023,-0.02613 0.175288,0 0.07391,0.03695 0.101382,0.138336 0.175291,0.17529 0.05227,0.02613 0.133976,-0.04131 0.175288,0 0.04131,0.04131 -0.04131,0.133977 0,0.175289 0.08263,0.08263 0.246055,-0.05227 0.350578,0 0.58136,0.581359 -0.165265,-0.08263 0.350577,0.175289 0.147816,0.07391 0.202762,0.276669 0.350578,0.350577 0.06951,0.03475 0.490031,-0.03583 0.525866,0 0.04131,0.04131 -0.04131,0.133977 0,0.175289 0.684106,0.684106 0.09414,-0.04058 0.525866,0.175289 0.07391,0.03695 0.101382,0.138336 0.17529,0.175289 0.05227,0.02613 0.123024,-0.02613 0.175289,0 0.147816,0.07391 0.20276,0.276668 0.350578,0.350577 0.05227,0.02613 0.133976,-0.04131 0.175288,0 0.0071,0.0071 0,0.636783 0,0.701155 0,0.07895 0.02667,0.472521 0,0.525868 -0.03695,0.07391 -0.138335,0.101381 -0.175288,0.175288 -0.02613,0.05227 0.04131,0.133977 0,0.175289 -0.116902,0.116902 -0.233676,-0.116902 -0.350578,0 -0.04131,0.04131 0.04131,0.133977 0,0.175289 -0.08263,0.08263 -0.246056,-0.05227 -0.350579,0 -0.729509,0.364755 0.187391,-0.01208 -0.175288,0.350577 -0.04131,0.04131 -0.123024,-0.02613 -0.175289,0 -0.07391,0.03696 -0.101382,0.138336 -0.175289,0.175289 -0.104519,0.05227 -0.246056,-0.05227 -0.350577,0 -0.147816,0.07391 -0.21307,0.258905 -0.350578,0.350578 -0.108711,0.07248 -0.241868,0.102811 -0.350577,0.175288 -0.137503,0.09168 -0.213071,0.258907 -0.350578,0.350578 -0.108711,0.07248 -0.241869,0.102811 -0.350577,0.175289 -0.06876,0.04584 -0.106532,0.129451 -0.175291,0.175288 -0.108711,0.07248 -0.258191,0.08291 -0.350577,0.175291 -0.04131,0.04131 0,0.11686 0,0.175288 -0.05843,0.05843 -0.106532,0.129451 -0.175289,0.175289 -0.108711,0.07248 -0.241867,0.102811 -0.350577,0.175287 -0.159568,0.106379 -0.370502,0.448183 -0.525867,0.525868 -0.05227,0.02613 -0.123023,-0.02613 -0.175288,0 -0.729511,0.364755 0.187389,-0.01208 -0.175289,0.350578 -0.04131,0.04131 -0.123024,-0.02613 -0.175289,0 -0.07391,0.03695 -0.101381,0.138335 -0.175289,0.175288 -0.05227,0.02613 -0.133976,-0.04131 -0.175288,0 -0.04131,0.04131 0.04131,0.133977 0,0.175289 -0.09239,0.09239 -0.226631,0.133977 -0.350579,0.175287 -0.05543,0.01848 -0.133977,-0.04131 -0.175289,0 -0.04131,0.04131 0.04131,0.133977 0,0.175291 -0.04131,0.04131 -0.123024,-0.02613 -0.175289,0 -0.07391,0.03695 -0.101381,0.138335 -0.175288,0.175288 -0.05227,0.02613 -0.123024,-0.02613 -0.175289,0 -0.07391,0.03696 -0.101382,0.138336 -0.175289,0.17529 -0.05227,0.02613 -0.123024,-0.02613 -0.175289,0 -0.07391,0.03696 -0.101381,0.138336 -0.175288,0.175289 -0.05227,0.02613 -0.133977,-0.04131 -0.175289,0 -0.04131,0.04131 0.04131,0.133977 0,0.175289 -0.08765,0.08764 -0.438223,-0.08764 -0.525866,0 -0.362679,0.362678 0.55422,-0.01417 -0.175289,0.350577 -0.05227,0.02613 -0.123024,-0.02613 -0.175289,0 -0.07391,0.03696 -0.101381,0.138336 -0.175289,0.175289 -0.05227,0.02613 -0.123024,-0.02613 -0.17529,0 -0.07391,0.03695 -0.101381,0.138336 -0.175289,0.175289 -0.05227,0.02613 -0.123023,-0.02613 -0.175288,0 -0.07391,0.03695 -0.101382,0.138336 -0.175289,0.175289 -0.05227,0.02613 -0.133977,-0.04131 -0.175289,0 -0.04131,0.04131 0.04131,0.133976 0,0.175288 -0.08764,0.08765 -0.438222,-0.08764 -0.525866,0 -0.04131,0.04131 0.05227,0.149157 0,0.175289 -0.104519,0.05227 -0.233719,0 -0.350578,0 -0.05843,0 -0.133976,-0.04131 -0.175288,0 -0.04131,0.04131 0.04131,0.133977 0,0.175289 -0.04217,0.04217 -0.658976,-0.04217 -0.701157,0 -0.04131,0.04131 0.04131,0.133977 0,0.175289 -0.08263,0.08263 -0.246054,-0.05227 -0.350577,0 -0.07391,0.03695 -0.101382,0.138335 -0.175289,0.175288 -0.06949,0.03475 -0.490031,-0.03583 -0.525866,0 -0.04131,0.04131 0.04131,0.133977 0,0.175289 -0.03583,0.03583 -0.456365,-0.03475 -0.525866,0 -0.07391,0.03695 -0.101382,0.138336 -0.175289,0.175289 -0.09509,0.04755 -0.653192,-0.04796 -0.701155,0 -0.04131,0.04131 0.04131,0.133977 0,0.17529 -0.04131,0.04131 -0.123024,-0.02613 -0.17529,0 -0.07391,0.03695 -0.101382,0.138336 -0.175289,0.175287 -0.06949,0.03475 -0.490031,-0.03583 -0.525866,0 -0.04131,0.04131 0.05227,0.14916 0,0.175291 -0.07451,0.03724 -0.729553,0 -0.876444,0 -0.05843,0 -0.133977,-0.04131 -0.175289,0 -0.04131,0.04131 0.04131,0.133976 0,0.175288 -0.03583,0.03583 -0.456366,-0.03475 -0.525866,0 -0.07391,0.03696 -0.101382,0.138336 -0.175289,0.175289 -0.05227,0.02613 -0.133977,-0.04131 -0.17529,0 -0.04131,0.04131 0.04131,0.133977 0,0.175287 -0.03583,0.03583 -0.456365,-0.03475 -0.525866,0 -0.07391,0.03697 -0.101382,0.138336 -0.175289,0.175291 -0.05227,0.02613 -0.11686,0 -0.175289,0 -0.05843,0 -0.123024,-0.02613 -0.175289,0 -0.07391,0.03695 -0.106531,0.129451 -0.175288,0.175288 0.01996,0.332071 -0.409008,0.11686 -0.525867,0.175289 -0.07391,0.03695 -0.101381,0.138336 -0.175288,0.175287 -0.05227,0.02613 -0.123024,-0.02613 -0.175289,0 -0.07391,0.03695 -0.101381,0.138336 -0.175289,0.175291 -0.104519,0.05227 -0.267946,-0.08263 -0.350579,0 -0.04131,0.04131 0.04131,0.133976 0,0.175288 -0.04131,0.04131 -0.133976,-0.04131 -0.175288,0 -0.467437,0.467436 0.525867,-0.05843 -0.175289,0.175289 -0.12394,0.04131 -0.226629,0.133977 -0.350578,0.175287 -0.05543,0.01848 -0.123023,-0.02613 -0.175288,0 -0.133894,0.06695 -0.40717,0.486302 -0.525867,0.525869 -0.110863,0.03695 -0.239716,-0.03695 -0.350577,0 -0.547132,0.182377 0.05843,0.116861 -0.175289,0.350577 -0.08263,0.08263 -0.267947,-0.08263 -0.350577,0 -0.04131,0.04131 0.04131,0.133976 0,0.17529 -0.04131,0.04131 -0.126675,-0.03241 -0.175291,0 -0.137502,0.09168 -0.213069,0.258903 -0.350577,0.350577 -0.04862,0.03242 -0.133977,-0.04131 -0.175289,0 -0.04131,0.04131 0.04131,0.133977 0,0.175288 -0.04131,0.04131 -0.123024,-0.02613 -0.175289,0 -0.07391,0.03695 -0.11686,0.11686 -0.175288,0.17529 -0.05843,0.05843 -0.138336,0.101381 -0.175289,0.175288 -0.02613,0.05227 0.04131,0.133977 0,0.175289 -0.04131,0.04131 -0.11686,0 -0.175289,0 0,0.05843 0.02613,0.123024 0,0.175288 -0.105171,0.210348 -0.420693,0.31552 -0.525866,0.525869 -0.02613,0.05227 0.02613,0.123023 0,0.175288 -0.03695,0.07391 -0.205978,0.09856 -0.175289,0.175289 0.108503,0.271252 0.350578,0.467436 0.525866,0.701155 z"
         id="path13143"
         inkscape:connector-curvature="0" />
    </clipPath>
  </defs>
  <sodipodi:namedview
     id="base"
     pagecolor="#ffffff"
     bordercolor="#666666"
     borderopacity="1.0"
     inkscape:pageopacity="0.0"
     inkscape:pageshadow="2"
     inkscape:zoom="5.6"
     inkscape:cx="84.656603"
     inkscape:cy="100.6582"
     inkscape:document-units="mm"
     inkscape:current-layer="layer2"
     showgrid="false"
     inkscape:window-width="1920"
     inkscape:window-height="1017"
     inkscape:window-x="-8"
     inkscape:window-y="-8"
     inkscape:window-maximized="1"
     units="px" />
  <metadata
     id="metadata5">
    <rdf:RDF>
      <cc:Work
         rdf:about="">
        <dc:format>image/svg+xml</dc:format>
        <dc:type
           rdf:resource="http://purl.org/dc/dcmitype/StillImage" />
        <dc:title />
      </cc:Work>
    </rdf:RDF>
  </metadata>
  <g
     inkscape:label="Capa 1"
     inkscape:groupmode="layer"
     id="layer1"
     transform="translate(0,-244.08332)">
    <g
       id="g6035"
       transform="matrix(0.26458333,0,0,0.26458333,5.8302828,257.04791)"
       style="fill:#343434;fill-opacity:0.84422112">
      <g
         id="g6762"
         transform="matrix(0.13418166,0,0,0.13418166,-15.532137,-12.951636)">
        <g
           id="g12712"
           transform="matrix(5.123637,0,0,5.123637,23.129199,91.207051)">
          <g
             id="g12767"
             transform="matrix(0.24062157,0,0,0.24062157,-2.8533173,-35.203766)">
            <g
               id="g13030"
               transform="matrix(2.0099958,0,0,2.0099958,152.90446,-155.81566)">
              <g
                 id="#010101ff">
                <g
                   id="g13082"
                   transform="matrix(0.32819964,0,0,0.32819964,56.064431,162.26633)">
                  <g
                     id="g13133"
                     transform="matrix(6.6009035,0,0,6.6009035,-295.89245,98.608638)">
                    <path
                       id="path13086"
                       d="m 134.66,3.96 c 3.71,-1.28 7.21,-3.64 11.29,-3.49 -1.76,2.33 -4.01,4.2 -6.16,6.16 169.36851,-6.18678975 -419.93479,405.93 -75.059,12.09 -2.58,-1.97 -5.01,-4.189 -6.62,-7.04 3.98,0.3 14.269,2.78 18.179,3.55 19.089151,-28.621342 36.87926,-5.5697039 58.37,-11.27 M 76.29,15.23 c 4.98,2.2 10.21,4.72 13.18,9.53 -0.43,0.49 -1.3,1.45 -1.74,1.94 -0.42,6.26 -4.73,11.78 -9.72,15.29 -5.89,2.94 -12.44,5.64 -19.16,4.74 -2.43,-0.31 -3.61,-2.73 -5.04,-4.4 -101.964306,-7.652798 378.48058,98.54887 111.21357,-20.427766 -1.59,2.87 -4.91257,5.817766 -7.85257,7.307766 -7.53,4.62 -16.63,4.78 -25.19,4.93 -6.17,-0.22 -12.64,-0.65 -18.13,-3.76 -3.35,-2.04 -6.33,-5.35 -6.73,-9.4 -2.46,0.96 -4.52,3.22 -7.22,3.29 -2.64,-0.22 -3.07,-3 -3.67,-5.03 -1.36,0.14 -2.72,0.29 -4.08,0.43 -0.69,-4.03 3.44,-6.48 7,-5.94 0.49,1.27 0.99,2.54 1.5,3.81 7.95,-2.38 31.22017,-12.9912473 31.22017,-12.9912473 C 109.82954,6.95788 89.281495,4.9962123 73.501172,15.818753 M 127.88,12.79 c -4.7,2.2 -9.66,3.8 -14.44,5.82 14.22,-1.7 26.62078,-1.435271 40.84078,-1.045271 C 143.43895,7.3214243 145.36947,5.3663502 127.88,12.79 M 58.993712,31.078179 C 65.713712,29.238179 74.45,27.65 81.13,25.7 77.7,23.41 68.611,20.04 64.731,18.72 c -3.21,3.3 -8.485257,9.123102 -9.728869,13.296919 M 114.21,23.41 c 0.64,0.87 1.34,1.71 2.07,2.52 0.01,-1.62 0.22,-3.66 -2.07,-2.52 m 11.7,-0.53 c -0.18,1.8 -0.57,3.58 -1.41,5.2 8.22,0.54 16.47,0.16 24.64,-0.91 2.33,-0.43 4.42,-1.6 6.5,-2.66 -2.26,-1.46 -5.05,-1.17 -7.61,-1.27 -7.37,-0.04 -14.74,-0.2 -22.12,-0.36 m -57.3,11.2 c 1,2.17 1.2,4.53 -0.01,6.69 4.95,-1.96 10.92,-3.92 12.89,-9.46 -4.38,0.51 -8.59,1.82 -12.88,2.77 m -11.19,3.86 c 0.93,1.46 2.18,2.64 3.68,3.51 -0.58,-1.79 -1.16,-3.57 -1.77,-5.35 -0.64,0.61 -1.28,1.23 -1.91,1.84"
                       inkscape:connector-curvature="0"
                       clip-path="url(#clipPath13141)"
                       sodipodi:nodetypes="ccccccccccccccccccccccccccccccccccccccccccccccccsc"
                       transform="translate(2.7764336)"
                       style="fill:#000000;fill-opacity:0.78894472" />
                    <path
                       id="path13102"
                       d="m 69.636434,62.87 c 10.24,-10.35 24.44,-16.97 39.079996,-17.32 11.68,-0.46 23.43,-0.59 35.08,0.46 5.68,0.68 12.25,1.36 16.18,6.05 -5.07,1.23 -10.11,-0.6 -15.1,-1.39 -13.81,-2.83 -28.19,-2.62 -42.01,0.08 -11.799996,2.09 -22.939996,8.53 -30.329996,17.99 -1.68,4.9 -4.02,9.95 -8.84,12.53 -1.42,0.94 -2.96,-0.93 -2.66,-2.29 0.29,-2.52 2.14,-4.46 3.38,-6.56 2.22,-2.94 2.34,-7.04 5.22,-9.55 z"
                       inkscape:connector-curvature="0"
                       sodipodi:nodetypes="ccccccccccc"
                       style="fill:#000000;fill-opacity:0.78894472" />
                    <path
                       id="path13104"
                       d="m 162.75643,48.93 c 1.53,-1.52 3.94,-0.05 4.26,1.82 0.69,2.59 1.01,6.41 -1.66,7.98 -1.52,1.17 -3.22,0.02 -4.73,-0.51 1.4,-2.93 1.85,-6.1 2.13,-9.29 z"
                       inkscape:connector-curvature="0"
                       sodipodi:nodetypes="ccccc"
                       style="fill:#000000;fill-opacity:0.78894472" />
                    <path
                       id="path13106"
                       d="m 87.596434,61.03 c 8.67,-4.4 18.489996,-6.65 28.219996,-5.82 1.49,0.01 2.64,1.07 3.85,1.77 -1.93,3.11 -5.86,2.58 -8.98,3.1 -9.19,0.92 -18.289996,3.53 -26.229996,8.34 -1.34,-0.74 -3.78,-1.46 -3.03,-3.54 1.55,-1.97 4.05,-2.71 6.17,-3.85 z"
                       inkscape:connector-curvature="0"
                       sodipodi:nodetypes="ccccccc"
                       style="fill:#000000;fill-opacity:0.78894472" />
                  </g>
                </g>
              </g>
            </g>
          </g>
        </g>
      </g>
    </g>
    <g
       inkscape:groupmode="layer"
       id="layer2"
       inkscape:label="fondo"
       style="display:none"
       sodipodi:insensitive="true">
      <rect
         style="opacity:1;vector-effect:none;fill:#343434;fill-opacity:0;stroke:#000000;stroke-width:0.02432241;stroke-linecap:butt;stroke-linejoin:miter;stroke-miterlimit:4;stroke-dasharray:none;stroke-dashoffset:0;stroke-opacity:0.48743723;paint-order:normal"
         id="rect6037"
         width="24.322405"
         height="24.322405"
         x="13.941643"
         y="258.39938" />
    </g>
  </g>
</svg>
