<?xml version="1.0" encoding="UTF-8" standalone="no"?>
<!-- Created with Inkscape (http://www.inkscape.org/) -->

<svg
   xmlns:dc="http://purl.org/dc/elements/1.1/"
   xmlns:cc="http://creativecommons.org/ns#"
   xmlns:rdf="http://www.w3.org/1999/02/22-rdf-syntax-ns#"
   xmlns:svg="http://www.w3.org/2000/svg"
   xmlns="http://www.w3.org/2000/svg"
   xmlns:sodipodi="http://sodipodi.sourceforge.net/DTD/sodipodi-0.dtd"
   xmlns:inkscape="http://www.inkscape.org/namespaces/inkscape"
   width="200"
   height="200"
   viewBox="0 0 52.916666 52.916668"
   version="1.1"
   id="svg8"
   inkscape:version="0.92.1 r15371"
   sodipodi:docname="cara8.svg">
  <defs
     id="defs2">
    <clipPath
       clipPathUnits="userSpaceOnUse"
       id="clipPath6802">
      <g
         inkscape:label="Clip"
         id="use6804">
        <rect
           y="817.21985"
           x="30.578131"
           height="430.9921"
           width="1494.3568"
           id="rect12595"
           style="opacity:1;vector-effect:none;fill:#ffffff;fill-opacity:1;stroke:none;stroke-width:2.81672454;stroke-linecap:butt;stroke-linejoin:miter;stroke-miterlimit:4;stroke-dasharray:none;stroke-dashoffset:0;stroke-opacity:0.48743723;paint-order:normal" />
        <rect
           y="529.67999"
           x="-1147.442"
           height="430.9921"
           width="1494.3568"
           id="rect12597"
           style="opacity:1;vector-effect:none;fill:#ffffff;fill-opacity:1;stroke:none;stroke-width:2.81672454;stroke-linecap:butt;stroke-linejoin:miter;stroke-miterlimit:4;stroke-dasharray:none;stroke-dashoffset:0;stroke-opacity:0.48743723;paint-order:normal" />
      </g>
    </clipPath>
    <clipPath
       clipPathUnits="userSpaceOnUse"
       id="clipPath6815">
      <g
         id="use6817"
         inkscape:label="Clip">
        <rect
           style="opacity:1;vector-effect:none;fill:#ffffff;fill-opacity:1;stroke:none;stroke-width:2.81672454;stroke-linecap:butt;stroke-linejoin:miter;stroke-miterlimit:4;stroke-dasharray:none;stroke-dashoffset:0;stroke-opacity:0.48743723;paint-order:normal"
           id="rect12583"
           width="1494.3568"
           height="430.9921"
           x="1031.8348"
           y="486.918" />
        <g
           id="g12591"
           clip-path="url(#clipPath6802)">
          <g
             inkscape:label="Clip"
             id="g12589">
            <rect
               y="817.21985"
               x="30.578131"
               height="430.9921"
               width="1494.3568"
               id="rect12585"
               style="opacity:1;vector-effect:none;fill:#ffffff;fill-opacity:1;stroke:none;stroke-width:2.81672454;stroke-linecap:butt;stroke-linejoin:miter;stroke-miterlimit:4;stroke-dasharray:none;stroke-dashoffset:0;stroke-opacity:0.48743723;paint-order:normal" />
            <rect
               y="529.67999"
               x="-1147.442"
               height="430.9921"
               width="1494.3568"
               id="rect12587"
               style="opacity:1;vector-effect:none;fill:#ffffff;fill-opacity:1;stroke:none;stroke-width:2.81672454;stroke-linecap:butt;stroke-linejoin:miter;stroke-miterlimit:4;stroke-dasharray:none;stroke-dashoffset:0;stroke-opacity:0.48743723;paint-order:normal" />
          </g>
        </g>
      </g>
    </clipPath>
    <clipPath
       clipPathUnits="userSpaceOnUse"
       id="clipPath12623">
      <rect
         style="opacity:1;vector-effect:none;fill:#ffffff;fill-opacity:1;stroke:none;stroke-width:3.11010909;stroke-linecap:butt;stroke-linejoin:miter;stroke-miterlimit:4;stroke-dasharray:none;stroke-dashoffset:0;stroke-opacity:0.48743723;paint-order:normal"
         id="rect12625"
         width="684.04071"
         height="159.69821"
         x="-1028.1637"
         y="657.59601"
         transform="scale(-1,1)" />
    </clipPath>
    <clipPath
       clipPathUnits="userSpaceOnUse"
       id="clipPath12627">
      <rect
         style="opacity:1;vector-effect:none;fill:#ffffff;fill-opacity:1;stroke:none;stroke-width:3.11010909;stroke-linecap:butt;stroke-linejoin:miter;stroke-miterlimit:4;stroke-dasharray:none;stroke-dashoffset:0;stroke-opacity:0.48743723;paint-order:normal"
         id="rect12629"
         width="684.04071"
         height="159.69821"
         x="-1028.1637"
         y="657.59601"
         transform="scale(-1,1)" />
    </clipPath>
    <clipPath
       clipPathUnits="userSpaceOnUse"
       id="clipPath12631">
      <rect
         style="opacity:1;vector-effect:none;fill:#ffffff;fill-opacity:1;stroke:none;stroke-width:3.11010909;stroke-linecap:butt;stroke-linejoin:miter;stroke-miterlimit:4;stroke-dasharray:none;stroke-dashoffset:0;stroke-opacity:0.48743723;paint-order:normal"
         id="rect12633"
         width="684.04071"
         height="159.69821"
         x="-1028.1637"
         y="657.59601"
         transform="scale(-1,1)" />
    </clipPath>
    <clipPath
       clipPathUnits="userSpaceOnUse"
       id="clipPath12781">
      <path
         style="fill:none;stroke:#000000;stroke-width:6.04496717px;stroke-linecap:butt;stroke-linejoin:miter;stroke-opacity:1"
         d="m 663.64542,303.92944 c -0.38143,0.50886 -0.69517,1.07681 -1.14491,1.52658 -0.2013,0.20118 -0.53559,0.21097 -0.7633,0.38168 -0.28774,0.21587 -0.47513,0.54737 -0.7633,0.7633 -0.22729,0.17065 -0.51926,0.23527 -0.7633,0.38162 -0.78663,0.47199 -1.5032,1.05461 -2.28983,1.52659 -0.24422,0.14635 -0.56218,0.1805 -0.7633,0.38168 -0.32461,0.32431 -0.43886,0.82059 -0.7633,1.14493 -1.21945,1.21942 -1.82001,1.40905 -3.05319,2.28988 -0.81909,0.58509 -1.77208,1.39427 -2.67151,1.90822 -2.23682,1.27818 -1.23106,0.27904 -3.81649,2.28989 -0.42617,0.33138 -0.69584,0.84555 -1.14492,1.14494 -0.33489,0.22312 -0.7633,0.25443 -1.14491,0.38168 -0.38144,0.25443 -0.78682,0.47676 -1.14498,0.76329 -0.56218,0.44956 -0.9646,1.07702 -1.52654,1.52658 -0.35846,0.28653 -0.75163,0.5273 -1.14497,0.76329 -0.24422,0.14635 -0.56219,0.1805 -0.7633,0.38162 -0.32462,0.32437 -0.4697,0.79258 -0.7633,1.14494 -0.34577,0.41462 -0.79939,0.73031 -1.14492,1.14494 -0.51986,0.62403 -0.78639,1.4641 -1.52659,1.90823 -0.34517,0.20697 -0.86044,0.0972 -1.14492,0.38167 -0.28472,0.28448 -0.14024,0.82312 -0.38144,1.14495 -0.17046,0.22759 -0.51926,0.23527 -0.76329,0.38167 -0.39353,0.236 -0.82061,0.43893 -1.14492,0.7633 -0.2013,0.20111 -0.25449,0.50886 -0.38144,0.76329 -0.25449,0.12724 -0.53558,0.21097 -0.7633,0.38168 -0.28713,0.21544 -1.69277,1.62096 -1.90827,1.90822 -0.17047,0.2276 -0.18075,0.56219 -0.38144,0.7633 -0.2013,0.20117 -0.56218,0.1805 -0.7633,0.38168 -0.20129,0.20111 -0.22366,0.52657 -0.38143,0.76329 -0.0997,0.14967 -0.2545,0.25443 -0.38144,0.38168 -0.30648,0.30648 -1.68782,1.57758 -1.90822,1.90822 -0.0707,0.10584 0.0707,0.27577 0,0.38168 -0.48903,0.73393 -1.41893,1.1743 -1.90821,1.90822 -0.0707,0.10585 0.0901,0.29167 0,0.38168 -0.2013,0.20112 -0.59241,0.15409 -0.7633,0.38162 -0.24119,0.32184 -0.2019,0.78511 -0.38144,1.14493 -0.0804,0.16092 -0.28169,0.23195 -0.38143,0.38162 -0.15778,0.23666 -0.21097,0.5357 -0.38144,0.76329 -0.43161,0.57572 -1.07703,0.96464 -1.52654,1.52659 -1.12539,1.40669 -0.43161,0.71914 -1.14497,1.90823 -0.23576,0.39334 -0.52713,0.75162 -0.7633,1.14494 -0.14629,0.24391 -0.21097,0.5357 -0.38144,0.76329 -0.21581,0.28786 -0.60268,0.44146 -0.7633,0.76329 -0.11364,0.2276 0.11365,0.53571 0,0.76329 -0.16079,0.32183 -0.54767,0.47544 -0.7633,0.76329 -0.93751,0.13607 -0.15837,0.81022 -0.38143,1.14494 -0.19949,0.29941 -0.60208,0.44147 -0.7633,0.7633 -0.11365,0.22759 0.0804,0.52192 0,0.76329 -0.0544,0.17065 -0.30104,0.2207 -0.38144,0.38162 -0.18014,0.3598 -0.23213,0.77141 -0.38144,1.14493 -0.10578,0.2641 -0.27625,0.49919 -0.38143,0.76329 -0.14931,0.37352 -0.20191,0.78512 -0.38144,1.14494 -0.20493,0.41027 -0.55795,0.73469 -0.7633,1.14495 -0.41408,0.82836 -0.34879,1.84315 -0.7633,2.67151 -0.16079,0.32184 -0.62964,0.42919 -0.7633,0.7633 -0.14205,0.35436 0.075,0.7707 0,1.14494 -0.0544,0.27892 -0.27625,0.49919 -0.38143,0.76329 -0.14931,0.37352 -0.23213,0.77142 -0.38144,1.14494 -0.10579,0.2641 -0.32582,0.48432 -0.38144,0.76329 -0.075,0.37424 0.075,0.77071 0,1.14494 -0.0544,0.27891 -0.27625,0.49919 -0.38143,0.76329 -1.10684,2.76716 0.0242,-0.13069 -0.38144,1.90823 -0.0786,0.39449 -0.30286,0.75046 -0.38144,1.14494 -0.0484,0.24948 0,0.50887 0,0.76329 v 1.14494 3.43482 c 0,0.50886 0.0997,1.0276 0,1.52658 -0.0792,0.39449 -0.28411,0.75466 -0.38144,1.14494 -0.0302,0.12344 0,0.25443 0,0.38162 v 1.14493 3.05318 2.67151 c 0,0.38168 -0.0544,0.76713 0,1.14495 0.0744,0.51926 0.2956,1.0092 0.38144,1.52659 0.0423,0.25098 -0.0617,0.51648 0,0.76328 0.0689,0.27595 0.32582,0.48432 0.38144,0.76329 0.075,0.37425 -0.075,0.77071 0,1.14494 0.0544,0.27892 0.31252,0.48735 0.38144,0.7633 0.0616,0.24681 0,0.50886 0,0.76329 v 2.67152 c 0,0.50887 -0.0997,1.0276 0,1.52659 0.0792,0.3945 0.30285,0.75046 0.38143,1.14493 0.0484,0.24948 -0.0617,0.51648 0,0.76329 0.0689,0.27596 0.31253,0.48735 0.38144,0.7633 0.0617,0.24681 -0.0484,0.51382 0,0.76329 0.0792,0.3945 0.30285,0.75046 0.38144,1.14494 0.0484,0.24948 0,0.50887 0,0.7633 v 1.14493 c 0,0.38162 -0.0629,0.76849 0,1.14494 0.0659,0.39679 0.28411,0.75466 0.38143,1.14494 0.0302,0.12344 0,0.25444 0,0.38162 0.12755,0.38168 0.28412,0.75466 0.38144,1.14495 0.0901,0.35919 -0.0901,0.78574 0,1.14494 0.0689,0.27595 0.32583,0.48432 0.38144,0.76329 0.075,0.37425 0,0.76329 0,1.14493 v 1.90824 c 0,0.25443 -0.0617,0.51648 0,0.76329 0.0689,0.27595 0.31252,0.48735 0.38144,0.76329 0.14991,0.60014 -0.12151,1.30059 0,1.90823 0.10276,0.51431 0.23756,1.02224 0.38143,1.52659 0.11063,0.38682 0.31555,0.74812 0.38144,1.14493 0.16745,1.00388 -0.14387,2.04568 0,3.05318 0.0423,0.28157 0.27626,0.49919 0.38144,0.76329 0.14931,0.37352 0.31555,0.74812 0.38144,1.14493 0.0629,0.37648 0,0.76329 0,1.14494 0.12694,0.38168 0.30285,0.75046 0.38143,1.14494 0.1203,0.60033 -0.1487,1.31454 0,1.90823 0.0689,0.27595 0.31253,0.48734 0.38144,0.76329 0.0617,0.24682 -0.0804,0.52192 0,0.76329 0.0544,0.17065 0.32462,0.21097 0.38144,0.38168 0.0804,0.24138 -0.0617,0.51648 0,0.7633 0.0689,0.27595 0.27565,0.49919 0.38144,0.76329 0.14931,0.37352 0.23212,0.77142 0.38143,1.14494 0.10579,0.26411 0.32583,0.48432 0.38144,0.76329 0.075,0.37424 -0.075,0.7707 0,1.14494 0.0955,0.47604 1.01646,1.65132 1.14492,1.90823 0.18014,0.3598 0.2019,0.78512 0.38144,1.14494 0.41045,0.82051 1.11632,1.46936 1.52659,2.28988 0.0544,0.11376 -0.0544,0.26785 0,0.38162 0.20493,0.41027 0.59301,0.71906 0.7633,1.14494 0.0943,0.23624 -0.13118,0.54514 0,0.7633 0.27746,0.4628 0.84551,0.69584 1.14492,1.14494 0.22306,0.33471 0.23212,0.77141 0.38143,1.14493 0.10579,0.2641 0.22367,0.52657 0.38144,0.76329 0.35303,0.52923 0.77521,1.00899 1.14492,1.52659 0.26658,0.37327 0.47695,0.78677 0.7633,1.14494 0.22487,0.28097 0.58454,0.45089 0.76329,0.76328 0.33973,0.59483 0.35243,1.36018 0.7633,1.90824 0.38144,0.50886 1.07679,0.69517 1.5266,1.14494 0.64868,0.64867 0.95347,1.57353 1.52659,2.28987 0.22488,0.28097 0.50899,0.50887 0.76324,0.7633 0.38144,0.38162 0.7633,0.76329 1.14498,1.14494 0.25449,0.25443 0.54707,0.47543 0.7633,0.76328 0.17046,0.2276 0.18074,0.56219 0.38143,0.7633 0.32462,0.32431 0.82061,0.43892 1.14498,0.76329 0.32462,0.32431 0.47695,0.78677 0.76324,1.14494 0.44974,0.56194 1.0948,0.95088 1.52659,1.52659 0.17047,0.22759 0.18075,0.56212 0.38144,0.76328 0.32401,0.32432 0.85125,0.41094 1.14492,0.76328 1.63752,3.27504 -0.24966,0.13238 1.90821,2.28989 1.52134,1.52134 -1.28304,-0.0363 1.14498,1.90822 0.31434,0.25147 0.82308,0.14024 1.14492,0.38143 0.45518,0.34154 0.36088,1.12431 0.7633,1.52654 0.20129,0.2013 0.53558,0.21097 0.76329,0.38144 2.33705,2.33704 -0.64366,-0.483 1.5266,1.14491 0.57548,0.43161 0.95087,1.09481 1.5266,1.5266 0.22729,0.17047 0.51926,0.23515 0.76323,0.38144 0.39353,0.23575 0.7633,0.50898 1.14498,0.76323 0.38144,0.2545 0.78675,0.47695 1.14492,0.7633 0.28109,0.22488 0.48239,0.53861 0.76329,0.7633 2.40723,1.92581 0.0653,-0.31615 1.90822,1.5266 0.25449,0.25449 0.50899,0.50898 0.7633,0.76329 0.25449,0.2545 0.45458,0.5779 0.7633,0.7633 0.34516,0.20674 0.79999,0.1747 1.14491,0.38144 0.3083,0.18498 0.47514,0.54767 0.7633,0.7633 0.22729,0.17047 0.53558,0.21097 0.7633,0.38144 0.28774,0.2158 0.45458,0.57789 0.7633,0.76329 0.34516,0.20674 0.77145,0.23213 1.14497,0.38144 0.26417,0.10579 0.50899,0.25449 0.76324,0.38144 0.25449,0.12694 0.56218,0.18074 0.7633,0.38144 0.2013,0.20129 0.12755,0.63605 0.38144,0.76329 0.34154,0.17047 0.79056,-0.14145 1.14491,0 0.33429,0.1336 0.47514,0.54768 0.7633,0.7633 0.22729,0.17047 0.51926,0.23515 0.7633,0.38144 0.39353,0.23575 0.7347,0.55795 1.14492,0.7633 0.35967,0.18014 0.77145,0.23212 1.14497,0.38143 0.26417,0.10579 0.50899,0.2545 0.7633,0.38144 0.25449,0.12755 0.51926,0.23515 0.7633,0.38144 0.39353,0.23575 0.70974,0.61822 1.14492,0.76324 0.36209,0.1209 0.76849,-0.0629 1.14491,0 0.50657,0.0846 2.96542,1.10737 3.05319,1.14497 0.26175,0.11184 0.48239,0.33489 0.7633,0.38144 0.50173,0.0834 1.02982,-0.11062 1.5266,0 0.66875,0.14871 1.25826,0.54647 1.90821,0.7633 2.17129,0.72376 0.83379,0.0302 2.67152,0.7633 0.26416,0.10578 0.4842,0.32582 0.76329,0.38143 0.37419,0.075 0.7685,-0.0629 1.14492,0 3.35018,0.55856 -0.58334,0.14025 1.90828,0.76324 0.24663,0.0617 0.52168,-0.0804 0.76323,0 0.17047,0.0544 0.21097,0.32462 0.38144,0.38144 0.24119,0.0804 0.50899,0 0.7633,0 h 1.14492 c 0.25449,0 0.51382,-0.0484 0.76329,0 0.39474,0.0792 0.75049,0.30285 1.14492,0.38144 0.24966,0.0484 0.51624,-0.0617 0.7633,0 0.27625,0.0689 0.4842,0.32582 0.7633,0.38143 0.62372,0.12453 1.27216,0 1.90827,0 h 3.81643 2.28989 c 0.38144,0 0.77068,0.075 1.14492,0 0.27867,-0.0544 0.49327,-0.29197 0.7633,-0.38143 0.1209,-0.0423 0.25449,0 0.38144,0 h 1.14491 c 0.2545,0 0.51624,0.0617 0.7633,0 0.7063,0.28351 0.69995,-0.65201 1.14492,-0.7633 0.37055,-0.0925 0.77472,0.0925 1.14498,0 0.1747,-0.0423 0.22064,-0.30104 0.38143,-0.38144 0.11365,-0.0544 0.27565,0.0707 0.38144,0 0.29923,-0.19948 0.44128,-0.60268 0.7633,-0.7633 0.22729,-0.11364 0.51382,0.0484 0.7633,0 1.98541,-0.39715 0.38143,-0.25449 1.90827,-0.76329 0.1209,-0.0423 0.25812,0.0302 0.38144,0 0.3905,-0.0973 0.75465,-0.28412 1.14492,-0.38144 0.34516,-0.0864 1.84135,0 2.28989,0 0.25449,0 0.52168,0.0804 0.7633,0 0.2696,-0.0901 0.48722,-0.31253 0.7633,-0.38144 0.24663,-0.0617 0.50898,0 0.76329,0 0.2545,-0.12694 0.49327,-0.29197 0.7633,-0.38144 0.1209,-0.0423 0.25449,0 0.38144,0 0.38144,0 0.77073,0.075 1.14492,0 2.76164,-0.55251 -1.74422,-0.38143 1.90827,-0.38143 h 3.81643 1.14498 c 0.25449,0 0.52168,0.0804 0.7633,0 0.17046,-0.0544 0.22064,-0.30104 0.38143,-0.38144 0.11365,-0.0544 0.2545,0 0.38144,0 0.25449,0 0.52168,0.0804 0.7633,0 0.17047,-0.0544 0.22064,-0.30104 0.38144,-0.38144 0.243,-0.1215 1.57828,0.11002 1.90821,0 2.16229,-1.08114 -0.56883,0.14206 1.5266,-0.38144 0.5519,-0.13782 0.97463,-0.62529 1.52659,-0.76329 0.24664,-0.0617 0.51624,0.0616 0.7633,0 0.55191,-0.13783 0.98684,-0.58334 1.52654,-0.7633 0.1209,-0.0423 0.26779,0.0544 0.38143,0 1.16384,-0.58213 -0.69801,-0.30225 1.14492,-0.7633 0.24663,-0.0617 0.50899,0 0.7633,0 0.12755,0 0.26779,0.0544 0.38144,0 0.16079,-0.0804 0.23212,-0.2817 0.38143,-0.38144 0.19223,-0.84085 0.78512,-0.2019 1.14492,-0.38144 0.41045,-0.20492 0.75163,-0.52712 1.14498,-0.76329 0.25449,-0.12695 0.50898,-0.2545 0.7633,-0.38144 0.12694,0 0.26779,0.0544 0.38143,0 0.41046,-0.20493 0.73471,-0.55795 1.14498,-0.7633 0.8437,-0.42194 0.87604,-0.38144 1.52654,-0.38144 0.38143,0 0.77472,0.0925 1.14497,0 0.1747,-0.0423 0.23213,-0.28169 0.38144,-0.38143 0.23696,-0.15778 0.52652,-0.22367 0.7633,-0.38144 0.14991,-0.0997 0.22064,-0.30104 0.38144,-0.38144 0.23998,-0.11969 1.28673,0.11969 1.52659,0 0.1608,-0.0804 0.22064,-0.30104 0.38144,-0.38144 0.30527,-0.15293 0.83958,0.15234 1.14492,0 0.16079,-0.0804 0.22064,-0.30104 0.38143,-0.38143 0.0985,-0.0484 2.01932,0 2.28984,0 h 0.38143 c 0.12695,0 0.2678,0.0544 0.38144,0 0.1608,-0.0804 0.22064,-0.30104 0.38144,-0.38144 0.24059,-0.1203 1.66744,0.12029 1.90821,0 0.1608,-0.0804 0.22064,-0.30104 0.38144,-0.38144 0.15112,-0.0756 1.06694,0.078 1.14498,0 0.0901,-0.0901 -0.0901,-0.29137 0,-0.38144 0.18014,-0.18014 0.53558,0.11365 0.7633,0 0.32159,-0.16079 0.44128,-0.60207 0.76329,-0.76329 0.22729,-0.11365 0.58334,0.18014 0.76324,0 0.0901,-0.0901 -0.0901,-0.29198 0,-0.38144 0.0901,-0.0901 0.29197,0.0901 0.38144,0 0.18014,-0.18014 -0.18014,-0.58334 0,-0.7633 0.0901,-0.0901 0.29137,0.0901 0.38144,0 0.18014,-0.18014 -0.18014,-0.58334 0,-0.7633 0.0901,-0.0901 0.29197,0.0901 0.38143,0 0.18014,-0.18014 -0.11364,-0.53558 0,-0.76329 0.0804,-0.1608 0.30104,-0.22065 0.38144,-0.38144 0.11365,-0.22729 -0.18014,-0.58334 0,-0.76324 0.0901,-0.0901 0.29197,0.0901 0.38144,0 0.25449,-0.25449 -0.25449,-0.50899 0,-0.7633 0.0901,-0.0901 0.29197,0.0901 0.38144,0 0.0901,-0.0901 -0.0901,-0.29197 0,-0.38144 0.0901,-0.0901 0.26779,0.0544 0.38143,0 0.1608,-0.0804 0.22064,-0.30103 0.38144,-0.38143 0.11365,-0.0544 0.29137,0.0901 0.38144,0 0.0901,-0.0901 -0.0901,-0.29197 0,-0.38144 0.0901,-0.0901 0.29137,0.0901 0.38144,0 0.0901,-0.0901 -0.0901,-0.29137 0,-0.38144 0.078,-0.078 0.99361,0.0756 1.14491,0 0.1608,-0.0804 0.22064,-0.30104 0.38144,-0.38143 0.22729,-0.11365 0.53558,0.11364 0.7633,0 0.16079,-0.0804 0.22064,-0.30104 0.38144,-0.38144 0.15112,-0.0756 1.06693,0.078 1.14497,0 0.0901,-0.0901 -0.0901,-0.29137 0,-0.38144 0.0901,-0.0901 0.29137,0.0901 0.38144,0 0.0901,-0.0901 -0.0901,-0.29137 0,-0.38144 0.19102,-0.19102 0.95414,0.19102 1.14492,0 0.0901,-0.0901 -0.0901,-0.29136 0,-0.38143 0.0919,-0.0919 1.43477,0.0919 1.52659,0 0.0901,-0.0901 -0.0901,-0.29198 0,-0.38144 3.7e-4,-3.6e-4 1.14323,6e-4 1.14498,0 0.17047,-0.0544 0.22064,-0.30104 0.38144,-0.38144 0.11364,-0.0544 0.26779,0.0544 0.38143,0 0.1608,-0.0804 0.22065,-0.30104 0.38144,-0.38144 0.34154,-0.17046 0.80356,0.17047 1.14492,0 0.11364,-0.0544 -0.0901,-0.29136 0,-0.38143 0.0901,-0.0901 0.25449,0 0.38144,0 0.27021,0 2.19118,0.0484 2.28983,0 0.1608,-0.0804 0.22064,-0.30104 0.38144,-0.38144 0.15112,-0.0756 1.06693,0.078 1.14491,0 0.0901,-0.0901 -0.0901,-0.29137 0,-0.38144 0.0901,-0.0901 0.2545,0 0.38144,0 0.27021,0 2.19118,0.0484 2.28983,0 0.1608,-0.0804 0.22065,-0.30104 0.38144,-0.38144 0.11365,-0.0544 0.2545,0 0.38144,0 0.25449,0 0.52168,0.0804 0.7633,0 0.17047,-0.0544 0.22064,-0.30104 0.38143,-0.38143 0.30528,-0.15234 0.83959,0.15233 1.14492,0 0.32159,-0.1608 0.42194,-0.64954 0.7633,-0.7633 0.1747,-0.0605 1.35673,0.0846 1.5266,0 1.16383,-0.58213 -0.69802,-0.30225 1.14491,-0.7633 0.24664,-0.0617 0.50899,0 0.7633,0 0.12694,0 0.26779,0.0544 0.38144,0 0.32159,-0.1608 0.42194,-0.64947 0.7633,-0.7633 0.24119,-0.0804 0.50898,0 0.76329,0 0.2545,-0.25449 0.45459,-0.57814 0.7633,-0.76327 0.34517,-0.20698 0.77146,-0.23224 1.14498,-0.38161 0.26416,-0.10567 0.50899,-0.25444 0.76324,-0.38168 0.76329,-0.38162 1.55815,-0.70587 2.28989,-1.14494 0.39353,-0.236 0.73471,-0.5582 1.14498,-0.7633 0.35967,-0.17989 0.76825,-0.2404 1.14491,-0.38168 0.64144,-0.24052 1.2955,-0.45693 1.90822,-0.76328 3.06377,-1.53187 -1.35335,0.0502 3.05319,-1.90823 0.47937,-0.21303 1.05745,-0.14708 1.5266,-0.38162 1.13784,-0.56896 1.91528,-1.72096 3.05313,-2.28989 0.46909,-0.2346 1.04451,-0.17506 1.52659,-0.38167 0.5906,-0.25317 2.28053,-1.68482 2.67152,-1.90823 0.3494,-0.19961 0.78512,-0.20172 1.14497,-0.38162 4.58294,-2.29148 -1.64157,0.60329 1.90822,-1.52658 0.34517,-0.20698 0.79999,-0.1747 1.14492,-0.38168 0.30829,-0.18515 0.47573,-0.54743 0.76329,-0.76329 0.2279,-0.17065 0.53559,-0.21097 0.7633,-0.38162 1.65076,-1.65073 -0.10095,-0.0598 1.5266,-1.14494 0.14991,-0.0998 0.25449,-0.25443 0.38144,-0.38162 0.38143,-0.38162 0.72352,-0.80777 1.14497,-1.14493 0.22185,-0.17772 0.53559,-0.21097 0.7633,-0.38168 0.97735,-0.73303 0.54949,-0.79355 1.52654,-1.52658 0.22729,-0.17071 0.54102,-0.20396 0.76329,-0.38162 0.42134,-0.33719 0.7633,-0.7633 1.14498,-1.14494 0.63605,-0.63608 1.2721,-1.27216 1.90822,-1.90824 0.50898,-0.50886 1.01773,-1.01772 1.52659,-1.52658 0.38144,-0.38161 0.73029,-0.79941 1.14492,-1.14494 0.35242,-0.29366 0.8206,-0.43892 1.14492,-0.76329 0.0181,-0.0157 2.65047,-3.40316 2.67157,-3.43481 0.15777,-0.23666 0.21097,-0.5357 0.38144,-0.7633 0.2158,-0.28786 0.50898,-0.50886 0.76329,-0.76329 0.12695,-0.12725 0.31495,-0.2146 0.38144,-0.38168 0.19465,-0.48698 0.18679,-1.03957 0.38144,-1.52658 0.0671,-0.16702 0.27384,-0.23768 0.38144,-0.38162 0.27504,-0.36692 0.50898,-0.76329 0.76329,-1.14494 0.2545,-0.38168 0.58274,-0.72334 0.7633,-1.14494 0.20674,-0.48208 0.2545,-1.01772 0.38144,-1.52658 0.38144,-0.89051 0.71161,-1.80496 1.14492,-2.67152 0.41045,-0.82052 1.20446,-1.43093 1.52659,-2.28988 0.2279,-0.60737 0.0913,-1.32804 0.38144,-1.90823 2.915,-5.82993 -0.538,3.85216 1.90821,-2.67152 0.18438,-0.49115 0.1469,-1.05744 0.38144,-1.52659 0.26054,-1.28727 1.72028,-1.64625 2.2899,-2.67152 0.3905,-0.70333 0.43644,-1.55465 0.76329,-2.28988 0.18619,-0.41916 0.55795,-0.73468 0.76324,-1.14494 0.30648,-0.61275 0.457,-1.29548 0.7633,-1.90823 0.20492,-0.41027 0.60208,-0.71546 0.7633,-1.14494 0.22789,-0.60737 0.15414,-1.30085 0.38143,-1.90823 0.1608,-0.42949 0.55796,-0.73468 0.7633,-1.14494 0.30648,-0.61275 0.52289,-1.26677 0.7633,-1.90823 0.42315,-1.12925 0.72147,-2.30556 1.14492,-3.43481 0.52349,-1.39666 1.11584,-2.76058 1.52659,-4.19811 0.14387,-0.50433 0.23757,-1.02225 0.38144,-1.52659 0.25208,-0.88123 0.82236,-2.32727 1.14498,-3.05316 0.23092,-0.51987 0.63986,-0.97121 0.76324,-1.52659 0.13782,-0.62093 -0.0701,-1.27605 0,-1.90823 0.11606,-1.04263 0.55734,-2.0245 0.76329,-3.05317 0.15173,-0.75879 0.19405,-1.53916 0.38144,-2.28988 0.0689,-0.27595 0.34154,-0.48166 0.38144,-0.76329 0.0901,-0.62968 -0.0635,-1.27531 0,-1.90823 0.0647,-0.64546 0.30104,-1.26457 0.38144,-1.90823 0.0484,-0.37871 0,-0.76329 0,-1.14494 v -4.57976 -3.81646 -1.14494 c 0,-0.38168 0.0544,-0.76713 0,-1.14495 -0.0744,-0.51926 -0.2545,-1.01771 -0.38144,-1.52658 -0.22548,-0.90219 -0.6664,-2.56269 -0.7633,-3.43482 -0.0544,-0.50572 0.0484,-1.02024 0,-1.52658 -0.0768,-0.76998 -0.24301,-1.52854 -0.38144,-2.28988 -0.11606,-0.6382 -0.3228,-1.26221 -0.38143,-1.90823 -0.0689,-0.76015 0.0949,-1.53248 0,-2.28987 -0.0363,-0.28224 -0.2817,-0.49696 -0.38144,-0.7633 -0.2823,-0.75335 -0.58213,-1.50589 -0.7633,-2.28987 -0.20251,-0.87652 -0.20553,-1.78945 -0.38144,-2.67153 -0.0792,-0.39449 -0.28411,-0.75466 -0.38143,-1.14493 -0.28472,-1.13785 -0.41348,-2.31534 -0.7633,-3.43482 0.16926,-1.43024 -1.13035,-2.24619 -1.5266,-3.43482 -1.43229,-4.29698 0.0242,-1.09438 -1.90821,-5.34304 -1.01121,-2.22463 -1.07105,-1.83607 -2.67152,-4.57976 -0.28653,-0.49146 -0.4576,-1.0466 -0.76329,-1.52658 -0.83367,-1.31009 -1.88906,-2.47513 -2.67152,-3.81646 -0.65993,-1.13135 -1.13784,-2.37556 -1.90821,-3.43482 -0.26961,-0.37098 -0.87519,-0.39232 -1.14498,-0.76329 -0.77037,-1.05925 -1.205,-2.32982 -1.90821,-3.43482 -0.19344,-0.30358 -0.54224,-0.47924 -0.7633,-0.76329 -0.67184,-0.86382 -1.23638,-1.8077 -1.90822,-2.67152 -0.22124,-0.28405 -0.50898,-0.50886 -0.76329,-0.76329 -1.40975,-1.40973 -2.96881,-2.64487 -4.57973,-3.81646 -0.89055,-0.63609 -1.78103,-1.27216 -2.67157,-1.90824 -0.2545,-0.25443 -0.48239,-0.53849 -0.7633,-0.76329 -1.0317,-0.82538 -4.17913,-2.43782 -4.57973,-2.67152 -1.81651,-1.05963 -0.66374,-0.7135 -3.05319,-1.90823 -0.61272,-0.30636 -1.28057,-0.48867 -1.90822,-0.7633 -1.40823,-0.61611 -2.80516,-1.25819 -4.19811,-1.90822 -0.51563,-0.24059 -1.02927,-0.48698 -1.52659,-0.7633 -0.64845,-0.36022 -1.22229,-0.8625 -1.90822,-1.14494 -12.97594,-5.34304 0.7633,0.76329 -6.86962,-2.28987 -2.56095,-1.02437 -0.49085,-0.60656 -3.43481,-1.52659 -1.38448,-0.43264 -2.80347,-0.74646 -4.19811,-1.14494 -0.38687,-0.1105 -0.78512,-0.20172 -1.14497,-0.38162 -0.41046,-0.20511 -0.70974,-0.61825 -1.14492,-0.76329 -0.36209,-0.12066 -0.7685,0.0627 -1.14492,0 -0.39715,-0.0661 -0.75961,-0.26604 -1.14497,-0.38168 -0.88704,-0.2661 -1.78442,-0.4972 -2.67152,-0.76329 -0.38506,-0.11558 -0.74812,-0.31548 -1.14491,-0.38162 -2.91144,0 0.30103,0.17065 -1.90822,-0.38162 -0.49025,-0.12259 -1.7161,0.0718 -2.28989,0 -0.76783,-0.096 -1.52207,-0.28568 -2.2899,-0.38167 -0.25268,-0.0314 -0.51624,0.0617 -0.7633,0 -0.27565,-0.069 -0.48722,-0.31265 -0.76329,-0.38162 -0.49388,-0.12344 -1.02759,0.0998 -1.5266,0 -0.39413,-0.0789 -0.75042,-0.30274 -1.14492,-0.38168 -0.24965,-0.0502 -0.50898,0 -0.76329,0 h -3.43481 -15.26584 -4.96141 -1.90821 c -0.12755,0 -0.26115,-0.0405 -0.38144,0 -0.26961,0.0899 -0.49327,0.29167 -0.7633,0.38168 -0.26235,0.0875 -0.91974,-0.11262 -1.14492,0 -1.74663,0.87333 1.61951,-0.1582 -1.14491,0.76329 -0.3216,0.10712 -1.68105,-0.11358 -1.90822,0 -0.16079,0.0804 -0.21097,0.32474 -0.38144,0.38162 -0.24119,0.0805 -0.52168,-0.0805 -0.76329,0 -0.17047,0.0568 -0.22065,0.30116 -0.38144,0.38162 -0.11365,0.0568 -0.26779,-0.0568 -0.38144,0 -0.16079,0.0805 -0.21097,0.32474 -0.38144,0.38168 -0.24119,0.0805 -0.53558,-0.11376 -0.76329,0 -0.11365,0.0568 0.11364,0.32474 0,0.38162 -0.7633,0.38168 -0.57246,-0.19084 -1.14492,0 -2.76442,0.92148 0.60147,-0.11002 -1.14498,0.76329 -0.22729,0.11377 -0.53558,-0.11376 -0.7633,0 -0.16079,0.0805 -0.22064,0.30116 -0.38143,0.38168 -0.11365,0.0568 -0.29198,-0.0899 -0.38144,0 -0.0901,0.09 0.0901,0.29167 0,0.38162 -0.0901,0.09 -0.26779,-0.0568 -0.38144,0 -0.16079,0.0805 -0.22064,0.30116 -0.38144,0.38168 -0.11364,0.0568 -0.26779,-0.0568 -0.38143,0 -0.1608,0.0805 -0.22064,0.30116 -0.38144,0.38162 -0.11365,0.0568 -0.26779,-0.0568 -0.38144,0 -0.45821,0.22898 -0.68695,0.91594 -1.14491,1.14493 -0.11365,0.0568 -0.2678,-0.0568 -0.38144,0 -0.1608,0.0805 -0.22064,0.30116 -0.38144,0.38162 -0.52652,0.2632 -0.34154,-0.4622 -0.7633,0.38168 -0.0544,0.11377 0.0901,0.29167 0,0.38162 -0.0901,0.0899 -0.26779,-0.0568 -0.38143,0 -0.1608,0.0805 -0.22065,0.30116 -0.38144,0.38162 -0.11365,0.0568 -0.26779,-0.0568 -0.38144,0 -0.32159,0.16092 -0.44128,0.60238 -0.7633,0.76329 -0.11364,0.0568 -0.29197,-0.0899 -0.38144,0 -0.0901,0.0899 0.0901,0.29167 0,0.38168 -0.0901,0.0899 -0.29136,-0.09 -0.38143,0 -0.0901,0.0899 0.0901,0.29167 0,0.38162 -0.0901,0.0899 -0.26779,-0.0568 -0.38144,0 -0.32159,0.16092 -0.44128,0.60238 -0.7633,0.76329 -0.11364,0.0568 -0.29197,-0.0899 -0.38144,0 -0.0901,0.0899 0.0901,0.29167 0,0.38168 -0.0901,0.0899 -0.29197,-0.09 -0.38143,0 -0.0901,0.0899 0.0901,0.29167 0,0.38162 -0.0901,0.0899 -0.26779,-0.0568 -0.38144,0 -0.1608,0.0804 -0.22064,0.30116 -0.38144,0.38168 -0.11364,0.0568 -0.29197,-0.0899 -0.38144,0 -0.0901,0.0899 0.0901,0.29167 0,0.38162 -0.0901,0.0899 -0.29136,-0.8532 -0.38143,-0.7633 -0.0901,0.0899 0.0901,0.29167 0,0.38168 -0.0901,0.0899 -0.2545,0 -0.38144,0 -0.12694,0 -0.29197,-0.09 -0.38144,0 -0.0901,0.0899 -0.67323,0.29167 -0.7633,0.38162 8.3744,-8.36327 0.18014,-0.1799 0,0 -0.0901,0.0899 0.0901,0.29167 0,0.38168 -0.18014,0.1799 -0.53558,-0.11376 -0.76329,0 -0.1608,0.0805 -0.22064,0.30116 -0.38144,0.38162 -0.11365,0.0568 -0.29137,-0.0899 -0.38144,0 -0.0901,0.09 0.0901,0.29167 0,0.38162 -0.0901,0.09 -0.25449,0 -0.38144,0 -0.26537,0 -1.77026,-0.069 -1.90827,0 -0.1608,0.0805 -0.22064,0.30122 -0.38144,0.38168 -0.10034,0.0502 -1.33303,-0.0484 -1.52659,0 l -3.0532,0.76329 h -3.81643 c -0.15112,0 -1.74524,-0.0815 -1.90821,0 -0.1608,0.0805 -0.22064,0.30116 -0.38144,0.38162 -0.24361,0.12193 -1.21939,-0.1024 -1.52659,0 -0.26961,0.0899 -0.49327,0.29167 -0.7633,0.38168 -0.1209,0.0405 -0.26719,-0.055 -0.38144,0 -3.32618,1.59252 -24.16814,9.62524 -2.28989,0 -0.26961,0.0899 -0.49327,0.29167 -0.7633,0.38162 -0.1209,0.0405 -0.26779,-0.0568 -0.38144,0 -0.16079,0.0805 -0.22064,0.30122 -0.38144,0.38168 -0.23998,0.11993 -1.28667,-0.11994 -1.52653,0 -0.1608,0.0805 -0.22064,0.30116 -0.38144,0.38162 -0.11364,0.0568 -0.25449,0 -0.38144,0 -0.25449,0 -0.53558,-0.11377 -0.76329,0 -0.11365,0.0568 0.0544,0.26785 0,0.38167 -0.0804,0.16092 -0.22065,0.30116 -0.38144,0.38162 -0.15113,0.0757 -1.06688,-0.078 -1.14492,0 -0.0901,0.0899 0,0.25444 0,0.38168 -0.25449,0 -0.53558,-0.11376 -0.7633,0 -0.11364,0.0568 0.0901,0.29167 0,0.38162 -0.18014,0.1799 -0.58334,-0.1799 -0.76329,0 -0.0901,0.0899 0,0.25443 0,0.38168 -0.2545,0.12725 -0.49327,0.29167 -0.7633,0.38162 -0.2412,0.0805 -0.53559,-0.11377 -0.7633,0 -0.1608,0.0805 -0.22064,0.30116 -0.38144,0.38168 -0.11364,0.0568 -0.26114,-0.0405 -0.38144,0 -0.2696,0.0899 -0.50898,0.25443 -0.76323,0.38162 -0.2545,0.12724 -0.52652,0.22384 -0.7633,0.38162 -0.14992,0.0998 -0.22064,0.30122 -0.38144,0.38168 -0.11364,0.0568 -0.26114,-0.0405 -0.38144,0 -0.27021,0.09 -0.49326,0.29166 -0.76329,0.38161 -0.1209,0.0405 -0.26115,-0.0405 -0.38144,0 -0.26961,0.09 -0.49327,0.29167 -0.7633,0.38168 -0.1209,0.0405 -0.25449,0 -0.38144,0 -0.25449,0.12719 -0.49327,0.29167 -0.76329,0.38162 -0.1209,0.0405 -0.26115,-0.0405 -0.38144,0 -0.53982,0.1799 -0.9869,0.5834 -1.5266,0.76329 -0.24119,0.0805 -0.52168,-0.0805 -0.7633,0 -1.5139,0.50463 -0.0121,0.25866 -1.52659,0.76329 -0.1209,0.0405 -0.25449,0 -0.38144,0 -0.34638,0 -2.42379,-0.0826 -2.67151,0 -0.17047,0.0568 -0.21097,0.32474 -0.38144,0.38168 -0.24119,0.0805 -0.50899,0 -0.7633,0 -0.12694,0 -0.26779,-0.0568 -0.38143,0 -0.1608,0.0805 -0.21097,0.32473 -0.38144,0.38162 -0.2412,0.0805 -0.50899,0 -0.7633,0 h -1.52654 c -0.25449,0 -0.51624,-0.0617 -0.76329,0 -0.27626,0.069 -0.48723,0.31264 -0.7633,0.38168 -0.24664,0.0617 -0.52168,-0.0805 -0.7633,0 -0.17047,0.0568 -0.21097,0.32473 -0.38144,0.38162 -0.24119,0.0805 -0.50898,0 -0.76329,0 h -2.28984 -2.67151 c -0.35121,0 -0.8015,0.0687 -1.14498,0 -0.51443,-0.10289 -1.01773,-0.25444 -1.52659,-0.38162 z"
         id="path12783"
         inkscape:connector-curvature="0"
         sodipodi:nodetypes="ccccccccccccccccccccccccccccccccccccccccccccccccccccccccccccccccscsccsccsccccccssccccccssccccccssccccccccccccccccccccccccccccccccccccccccccccccccccccccccccccccccccccccccccccccccccccssccccscsccssccccccccccsccccscscsccscccccsccsscccccccsccccccccssccccccccccccccccccccccccccccccccccccccccccccccsccccsccscccccssccccccccccccccccccccccccccccccccccccccccccccccccccccccccccccccccsccsccccccccccccccccccccccccccccccccccccccccccccccccscccsccccccccccccccccccccccccccccccccccccccccccccccccsccccccccsccscsccccsccccccsccccccccccccccccccccccccccsccsccssccccscsccc" />
    </clipPath>
  </defs>
  <sodipodi:namedview
     id="base"
     pagecolor="#ffffff"
     bordercolor="#666666"
     borderopacity="1.0"
     inkscape:pageopacity="0.0"
     inkscape:pageshadow="2"
     inkscape:zoom="3.959798"
     inkscape:cx="5.5098321"
     inkscape:cy="84.679171"
     inkscape:document-units="mm"
     inkscape:current-layer="layer1"
     showgrid="false"
     inkscape:window-width="1920"
     inkscape:window-height="1017"
     inkscape:window-x="-8"
     inkscape:window-y="-8"
     inkscape:window-maximized="1"
     units="px" />
  <metadata
     id="metadata5">
    <rdf:RDF>
      <cc:Work
         rdf:about="">
        <dc:format>image/svg+xml</dc:format>
        <dc:type
           rdf:resource="http://purl.org/dc/dcmitype/StillImage" />
        <dc:title />
      </cc:Work>
    </rdf:RDF>
  </metadata>
  <g
     inkscape:label="Capa 1"
     inkscape:groupmode="layer"
     id="layer1"
     transform="translate(0,-244.08332)">
    <g
       id="g6035"
       transform="matrix(0.26458333,0,0,0.26458333,5.8302828,257.04791)"
       style="fill:#343434;fill-opacity:0.84422112">
      <g
         id="g6762"
         transform="matrix(0.13418166,0,0,0.13418166,-15.532137,-12.951636)">
        <g
           id="g12712"
           transform="matrix(5.123637,0,0,5.123637,23.129199,91.207051)">
          <g
             id="g12767"
             transform="matrix(0.24062157,0,0,0.24062157,-2.8533173,-35.203766)">
            <g
               id="g13030"
               transform="matrix(2.0099958,0,0,2.0099958,152.90446,-155.81566)">
              <g
                 id="#ffffffff">
                <path
                   id="path12787"
                   d="m 202.77,89.47 c 5.93,-0.66 11.69,1.31 17.6,1.13 3.2,2 3.76,6.22 2.02,9.4 -7.25,15.77 -3.69,33.49 -1.4,49.94 0.57,5.01 1.7,9.99 1.37,15.07 -0.13,3.46 0.8,8.35 -3.01,10.21 -3.77,1.29 -8.3,0.22 -11.37,-2.23 -3.04,-2.86 0.64,-6.52 1.19,-9.69 2.77,-12.67 -4.24,-24.33 -9.59,-35.25 5.24,-12.28 -0.94,-26.12 3.19,-38.58 z"
                   inkscape:connector-curvature="0"
                   style="opacity:1;fill:#ffffff" />
                <path
                   id="path12789"
                   d="m 97.91,252.26 c 8.68,0.19 17.47,-1.99 26.06,0.02 4.26,0.85 8.19,2.76 12.14,4.48 2.75,1.57 5.43,3.41 7.18,6.12 0.25,0.5 0.77,1.51 1.02,2.01 0.64,1.67 1.29,3.33 1.98,4.99 0.18,1.38 0.44,2.75 0.91,4.08 0.46,4.13 0.2,8.29 0.16,12.44 l -0.68,0.15 c -0.09,2.59 -0.61,5.22 -2.14,7.38 -0.01,0.29 -0.04,0.87 -0.05,1.16 -2.58,4.33 -4.82,9.33 -9.26,12.09 -9.32,3.6 -19.45,3.56 -29.29,4.12 -1.31,0.03 -2.6,-0.11 -3.86,-0.44 -7.7,-0.56 -16.56,-0.83 -22.37,-6.62 -0.96,-1.35 -1.99,-2.66 -3.03,-3.95 -0.47,-0.84 -0.94,-1.67 -1.42,-2.49 -1.71,-3.47 -3.99,-7.2 -3.42,-11.2 0.17,0.69 0.51,2.07 0.68,2.77 1.83,0.84 3.81,1.2 5.83,1.22 1.57,-2.86 1.54,-6.07 0.07,-8.96 -1.18,-0.42 -2.36,-0.85 -3.54,-1.28 -1.18,0.88 -2.51,1.63 -3.38,2.86 l -0.8,0.93 c -0.51,-8.81 1.72,-18.1 7.49,-24.94 4.89,-5.53 12.67,-6.97 19.72,-6.94 m 19.51,1.43 c 4.23,4.36 10.61,5.66 14.93,9.93 3.68,3.72 5.69,8.67 7.54,13.47 0.39,1.29 1.23,2.35 2.28,3.19 0.88,-4.84 -0.27,-9.79 -2.15,-14.25 -1.92,-4.67 -6.74,-7.04 -11.07,-9 -3.71,-1.48 -7.4,-3.58 -11.53,-3.34 z"
                   inkscape:connector-curvature="0"
                   style="opacity:1;fill:#ffffff" />
                <path
                   id="path12791"
                   d="m 289.04,257.5 c 8.28,0.39 16.87,-0.42 24.47,-3.93 0.26,1.96 0.66,3.9 1.07,5.83 8.2,6.8 10.53,18.35 9.01,28.46 -2.28,7.74 -10.07,11.79 -17.01,14.63 -17.77,6.66 -37.45,8.06 -56.08,4.65 -10.75,-3.05 -21.51,-6.65 -31.16,-12.39 -3.21,-1.62 -4.18,-5.4 -4,-8.72 0.2,-5.35 -0.81,-11.05 1.66,-16.04 1.84,-4.24 5.16,-7.59 8.53,-10.65 1.57,-1.18 3.32,-2.36 5.39,-2.21 14.39,-0.11 28.78,0.27 43.16,-0.13 4.98,0.39 9.97,0.31 14.96,0.5 m 14.87,6.49 c -0.3,2.61 1.09,5.03 2.09,7.35 3.21,0.4 6.48,0.31 9.6,-0.58 0.57,-2.45 0.85,-4.97 0.83,-7.49 -0.47,-1.99 -2.92,-1.7 -4.46,-1.95 -2.85,-0.21 -6.54,-0.26 -8.06,2.67 z"
                   inkscape:connector-curvature="0"
                   style="opacity:1;fill:#ffffff" />
                <path
                   id="path12793"
                   d="m 318.42,257.98 c 6.54,2.41 8.89,9.99 8.3,16.37 -3.68,-4.92 -4.86,-11.26 -8.3,-16.37 z"
                   inkscape:connector-curvature="0"
                   style="opacity:1;fill:#ffffff" />
              </g>
              <g
                 id="#000000ff">
                <path
                   id="path12796"
                   d="m 166.5,82.68 c 2.83,-3.82 8.18,-4.28 12.38,-5.84 12.48,-1.14 25.02,0.98 37.05,4.28 4.41,0.22 8.74,1.12 13.09,1.8 4.64,1.12 9.39,1.7 13.98,3.01 2.58,0.8 5.21,1.39 7.81,2.13 5.57,1.57 10.87,3.85 16.34,5.68 5.06,1.86 9.72,4.8 15.04,5.9 1.8,0.92 3.61,1.95 4.76,3.68 1.63,0.66 3.3,1.25 4.98,1.8 3.46,1.24 6.16,3.78 9.12,5.85 1.89,1.42 4.08,2.62 5.3,4.74 0.32,3.55 -3.87,4.62 -5.15,7.51 -2.73,2.56 -4.19,6.07 -5.94,9.3 -2.07,4.05 -6,7.02 -6.95,11.65 -3.4,5.41 -6.93,10.83 -9.07,16.92 -0.47,0.95 -0.96,1.9 -1.45,2.84 -1.49,2.58 -2.62,5.33 -3.61,8.13 -2.07,3.55 -3.52,7.41 -5.24,11.14 -0.52,1.29 -1.2,2.93 -0.25,4.19 5.33,4.85 12.51,7.16 19.46,8.48 1.25,0.44 2.51,0.86 3.78,1.3 2.07,0.52 4.12,1.16 6.19,1.73 1.96,0.82 3.98,1.53 6.08,1.92 2.36,0.61 4.77,1.02 7.09,1.78 1.18,0.94 2.54,1.59 3.94,2.13 3.23,1.5 6.56,3.16 8.53,6.28 -1.76,0.68 -3.35,1.7 -4.86,2.81 -3.06,1.57 -6.58,0.79 -9.84,0.56 -2.54,0.06 -4.27,-2.06 -6.22,-3.32 -5.45,-3.42 -11.63,-5.32 -17.77,-7.08 -8.08,-2.77 -16.52,-4.58 -25.07,-4.88 -5.2,-1.64 -10.9,-1.13 -15.92,-3.41 -5.41,-0.2 -10.66,-1.63 -15.99,-2.5 -5.05,-1.08 -10.42,-1.69 -14.89,-4.48 -1.98,-1.13 -4.23,-1.63 -6.29,-2.58 -3.43,-1.78 -7.58,0.07 -10.98,-1.81 -3.89,-1.7 -7.94,-2.99 -11.88,-4.55 -1.69,-0.24 -3.38,-0.51 -5.02,-1 -6.35,-0.05 -12.7,-0.55 -19.05,-0.25 -3.01,-0.07 -4.93,3.85 -8.05,2.37 -4.7,-0.13 -8.07,-3.72 -11.43,-6.52 -1.79,-1.46 -2.03,-5.05 0.56,-5.78 10.55,-4.34 22.03,-0.7 32.99,-0.84 2.46,1.22 5.15,0.45 7.59,-0.36 -0.08,-0.38 -0.26,-1.14 -0.34,-1.52 -2.67,-5.22 -2.6,-11.26 -3.7,-16.91 -0.68,-8.6 -1.67,-17.19 -2.3,-25.8 -1.07,-5.1 -1.99,-10.33 -4.06,-15.13 -1.4,-3.68 -2.33,-7.5 -4.4,-10.9 -0.14,-1.72 -0.32,-3.47 -1.07,-5.05 -0.07,-1.72 -0.05,-3.45 0.06,-5.17 0.37,-1.38 0.54,-2.8 0.67,-4.23 m 36.27,6.79 c -4.13,12.46 2.05,26.3 -3.19,38.58 5.35,10.92 12.36,22.58 9.59,35.25 -0.55,3.17 -4.23,6.83 -1.19,9.69 3.07,2.45 7.6,3.52 11.37,2.23 3.81,-1.86 2.88,-6.75 3.01,-10.21 0.33,-5.08 -0.8,-10.06 -1.37,-15.07 -2.29,-16.45 -5.85,-34.17 1.4,-49.94 1.74,-3.18 1.18,-7.4 -2.02,-9.4 -5.91,0.18 -11.67,-1.79 -17.6,-1.13 z"
                   inkscape:connector-curvature="0"
                   style="opacity:1;fill:#000000" />
                <path
                   id="path12798"
                   d="m 69.84,236.49 c 1.92,-0.15 3.63,0.64 5.21,1.64 -1.76,1.83 -3.67,3.51 -5.62,5.13 -2.57,2.14 -5.29,4.58 -5.56,8.15 l 0.55,-0.23 c 0.63,0.31 1.88,0.93 2.5,1.23 3.26,-1.37 6.72,-1.28 10.13,-0.64 14.76,-2.36 29.83,-6.5 44.84,-3.7 5.79,1.26 11.47,3.1 17.38,3.75 l 1.2,-1.2 c -0.42,1.09 -0.81,2.2 -1.22,3.3 l -1.39,-0.24 c 4.78,1.46 8.71,5.05 11,9.45 3.98,8 4.75,17.19 3.29,25.93 -0.89,2.51 -1.6,5.1 -2.11,7.72 2.33,-1.49 4.7,-3.18 5.82,-5.82 1.89,-4.2 3.65,-8.52 4.82,-12.97 -0.27,-5 -2.9,-9.46 -4.44,-14.14 -0.51,-1.25 -0.98,-2.5 -1.42,-3.76 -0.95,-1.4 -2.25,-2.49 -3.53,-3.56 -1.56,-0.54 -3.14,-1.02 -4.78,-1.22 l 0.07,-0.72 c -2.3,0.09 -4.6,-0.15 -6.85,-0.61 1.19,-0.69 2.51,-1.11 3.87,-1.34 2.67,1.1 5.58,1.48 8.23,2.62 1.08,0.18 2.15,0.37 3.23,0.57 2.72,1.2 5.78,0.61 8.66,0.9 l -0.42,-1.49 1.62,0.66 -0.51,-1.67 c 0.6,0.19 1.79,0.55 2.39,0.74 l -0.49,-1.4 c 2.12,0.46 3.54,-1.37 5.28,-2.19 0.99,2.35 -0.8,4.76 -1.3,7.04 -3.68,0.65 -7.39,1.11 -11.12,1.31 4.61,6.87 3.44,15.54 3.01,23.34 -1.55,6.52 -5.41,12.49 -11.02,16.2 -1.02,0.35 -1.7,1.18 -2.2,2.1 -0.26,0.45 -0.78,1.35 -1.04,1.8 -0.25,1.34 -0.43,2.7 -0.63,4.05 -5.82,3.39 -11.02,7.81 -17.13,10.69 -8.28,3.41 -17.27,5.03 -26.22,4.01 -5.64,-0.33 -11.01,-2.15 -16.2,-4.26 -6.82,-4.59 -12.39,-10.87 -16.55,-17.93 -3.7,-0.8 -7.13,-3.21 -8.44,-6.86 -1.1,-4.25 -0.8,-8.69 -1.24,-13.03 -0.33,4.81 -0.19,9.64 -0.35,14.46 l -0.75,1.26 c -0.15,-5.12 -0.14,-10.24 -0.08,-15.35 0.23,-0.54 0.68,-1.61 0.91,-2.15 0.8,1.4 1.59,2.78 2.4,4.18 0.2,1.5 0.41,3.01 0.62,4.52 0.45,-0.12 1.36,-0.36 1.82,-0.49 -0.67,2.95 -1.1,6.12 0.41,8.9 0.62,0.35 1.86,1.04 2.48,1.39 0.67,0.45 1.33,0.91 1.99,1.39 -1.96,-4.97 -3.1,-10.19 -4.36,-15.36 0.08,-2.52 0.08,-5.04 -0.02,-7.55 1.93,-5.07 3.03,-10.51 6.23,-15.01 1.63,-1.72 3.34,-3.36 5.05,-5 -4.08,2 -9.94,2.15 -11.95,6.88 -0.9,1.65 -0.11,3.51 0.17,5.21 -1.12,2.25 -1.67,4.7 -2.35,7.1 -0.46,0.44 -1.37,1.33 -1.83,1.77 0.4,-7.05 1.86,-13.97 3.83,-20.74 -1.83,0.52 -3.66,1.04 -5.5,1.55 -0.57,-4.13 -0.91,-8.65 1.51,-12.3 1.88,-3.42 5.2,-5.56 8.1,-8.01 m 28.07,15.77 c -7.05,-0.03 -14.83,1.41 -19.72,6.94 -5.77,6.84 -8,16.13 -7.49,24.94 l 0.8,-0.93 c -0.02,1.14 0.09,2.27 0.34,3.39 -0.57,4 1.71,7.73 3.42,11.2 0.48,0.82 0.95,1.65 1.42,2.49 1.04,1.29 2.07,2.6 3.03,3.95 5.81,5.79 14.67,6.06 22.37,6.62 1.26,0.33 2.55,0.47 3.86,0.44 9.84,-0.56 19.97,-0.52 29.29,-4.12 4.44,-2.76 6.68,-7.76 9.26,-12.09 0.01,-0.29 0.04,-0.87 0.05,-1.16 1.53,-2.16 2.05,-4.79 2.14,-7.38 l 0.68,-0.15 c 0.04,-4.15 0.3,-8.31 -0.16,-12.44 -0.47,-1.33 -0.73,-2.7 -0.91,-4.08 -0.69,-1.66 -1.34,-3.32 -1.98,-4.99 -0.25,-0.5 -0.77,-1.51 -1.02,-2.01 -1.75,-2.71 -4.43,-4.55 -7.18,-6.12 -3.95,-1.72 -7.88,-3.63 -12.14,-4.48 -8.59,-2.01 -17.38,0.17 -26.06,-0.02 m 21.63,62.6 c 0.6,-1.86 0.12,-2.83 -1.45,-2.92 -4.88,-0.17 -9.36,1.93 -13.92,3.27 -5.49,-0.39 -10.52,-3.31 -16.11,-3.11 12.86,7.76 30.33,7.69 42.87,-0.78 -3.62,1.73 -7.64,2.2 -11.39,3.54 z"
                   inkscape:connector-curvature="0"
                   style="opacity:1;fill:#000000" />
                <path
                   id="path12800"
                   d="m 314.27,251.76 c 5.49,-1.53 11.36,-3.05 17.04,-1.59 -3.49,0.88 -7.02,1.7 -10.28,3.26 1.25,4.23 6.83,5.47 7.29,10.05 1.81,9.05 3.26,18.87 -0.8,27.55 1.86,-1.01 3.72,-2.04 5.67,-2.89 -3.03,6.01 -9.38,9.13 -15.19,11.87 -5.76,2.5 -11.04,6.12 -17.14,7.78 -13.91,4.06 -28.55,2.21 -42.81,2.94 -7.35,0.8 -14.05,-3.91 -21.41,-2.76 -1.72,-0.2 -3.24,-1.06 -4.74,-1.83 -5.11,-2.75 -10.71,-4.44 -16.26,-6.02 2.13,5.13 6.1,9.24 10.92,11.93 8.06,4.96 12.18,14.47 20.64,18.92 1.64,1.03 4.11,0.81 5.08,2.72 -2.1,-0.26 -4.16,-0.7 -6.18,-1.32 6.51,8.08 14.96,14.28 23.8,19.57 3.96,1.18 7.65,3.12 11.58,4.35 5.56,0.24 11.22,0.97 16.74,-0.15 6.1,-1.6 12.1,-3.59 17.93,-5.99 4.27,-2.23 8.81,-5.49 13.9,-4.34 4.94,2.24 10.18,7.28 8.1,13.23 -2.1,3.78 -6.15,5.88 -9.12,8.91 -3.67,3.68 -8.19,6.45 -13.15,8.01 -6.69,0.92 -13.03,3.89 -19.9,3.59 -5.07,-0.19 -10.18,0.34 -15.19,-0.56 -4.32,-0.54 -8.35,-2.39 -12.72,-2.58 -6.73,-1.76 -13.29,-4.22 -19.67,-6.99 -8.3,-2.53 -15.96,-6.71 -23.95,-10.04 -3.79,-1.39 -5.85,-6.34 -10.34,-5.8 -8.39,-0.12 -16.7,-1.5 -25.1,-1.38 -11.7,0.18 -23.41,-0.25 -35.11,0.11 -5.16,0.08 -8.89,3.99 -12.91,6.65 0.42,0.54 1.25,1.61 1.66,2.15 -0.8,-0.63 -1.6,-1.26 -2.4,-1.89 -3.85,2.85 -8.32,4.62 -12.8,6.2 -8.3,4.59 -17.52,7.11 -26.46,10.14 -3.21,1.03 -6.41,2.19 -9.76,2.65 -6.77,0.33 -13.44,1.61 -20.18,2.29 -4.6,0.48 -9.16,-0.4 -13.73,-0.81 -1.6,-0.14 -3.19,-0.24 -4.79,-0.32 l -0.07,-0.71 c -4.59,-2.52 -10.03,-3.53 -14.01,-7.1 -3.56,-3.13 -7.26,-6.11 -10.64,-9.44 -2.53,-2.27 -1.79,-6.13 -1.39,-9.1 2.57,-4.17 7.59,-7.53 12.64,-5.95 7.59,2.55 14.46,7.02 22.31,8.85 0.57,-3.6 1.16,-7.2 1.53,-10.83 l 0.08,0.36 c 0.11,0.56 0.34,1.67 0.45,2.22 -0.47,2.74 -0.96,5.48 -1.26,8.25 2.57,0.99 5,2.7 7.85,2.74 3.13,0.16 5.89,-1.66 8.95,-1.99 7.34,-0.39 14.44,-3.22 20.65,-7.02 5.74,-5.04 11.76,-9.81 17.1,-15.28 2.55,-3.41 5.91,-6.04 8.9,-9.03 0.88,-0.81 1.8,-1.57 2.72,-2.32 2.52,-2.07 5.02,-4.23 7.99,-5.64 4.68,-2.27 9.13,-5.26 14.31,-6.24 6.13,-0.33 12.31,-0.34 18.42,0.23 4.94,0.42 8.9,4.83 14.02,4.02 3.85,-1.7 7.67,-3.84 11.91,-4.36 6.37,-0.09 12.75,-0.01 19.13,-0.03 2.45,-0.21 4.71,1.24 6.22,3.06 l 0.48,-2.71 c -0.18,0.41 -0.54,1.23 -0.72,1.64 -4.46,-3.57 -10.75,-6.52 -12.1,-12.55 2.5,2.05 4.93,4.18 7.45,6.22 -0.69,-3.23 -0.28,-6.5 -0.43,-9.75 -1.01,-2.64 -2.75,-5.01 -3.1,-7.88 -0.92,-5.98 0.01,-12.04 -0.23,-18.06 -5.1,1.55 -11.25,0.38 -15.12,4.84 -1.15,-2.37 1.06,-4.55 2.44,-6.23 0.4,0.05 1.21,0.17 1.61,0.23 5.16,2.23 11.76,0.07 14.46,-4.89 0.55,-1.01 1.1,-2.02 1.63,-3.03 -2.61,0.11 -5.22,0.23 -7.82,0.35 0.57,-0.49 1.7,-1.48 2.27,-1.97 l 0.64,-0.55 c 3.55,0.16 7.07,-0.38 10.56,-1 1.06,0.18 2.11,0.39 3.17,0.62 -3.37,3.06 -6.69,6.41 -8.53,10.65 -2.47,4.99 -1.46,10.69 -1.66,16.04 -0.18,3.32 0.79,7.1 4,8.72 9.65,5.74 20.41,9.34 31.16,12.39 18.63,3.41 38.31,2.01 56.08,-4.65 6.94,-2.84 14.73,-6.89 17.01,-14.63 1.52,-10.11 -0.81,-21.66 -9.01,-28.46 -0.41,-1.93 -0.81,-3.87 -1.07,-5.83 0.19,-0.45 0.57,-1.36 0.76,-1.81 m 4.15,6.22 c 3.44,5.11 4.62,11.45 8.3,16.37 0.59,-6.38 -1.76,-13.96 -8.3,-16.37 m -161.81,90.37 c 12.51,0.2 25.08,-0.34 37.53,1.05 5.6,0.21 11.16,0.83 16.75,1.11 -1.79,-1.28 -3.39,-2.82 -5.28,-3.96 -4.08,-0.75 -8.34,-1.18 -12.34,0.2 l 0.16,0.47 c -3.77,0.18 -7.54,0.16 -11.28,-0.28 -4.38,0.52 -8.8,0.42 -13.2,0.34 -2.05,-0.01 -3.75,-1.75 -5.8,-1.52 -2.18,0.84 -4.31,1.85 -6.54,2.59 z"
                   inkscape:connector-curvature="0"
                   style="opacity:1;fill:#000000" />
                <path
                   id="path12802"
                   d="m 252.78,251.76 c 8.11,-0.07 16.23,0.09 24.34,0.05 l 0.6,0.26 c 3.77,1.82 8.22,2.39 11.32,5.43 -4.99,-0.19 -9.98,-0.11 -14.96,-0.5 -1.41,-0.65 -2.81,-1.35 -4.2,-2.03 -0.05,-0.73 -0.16,-2.18 -0.22,-2.9 -5.18,-0.02 -10.38,0.29 -15.55,-0.13 -0.33,-0.04 -1,-0.13 -1.33,-0.18 z"
                   inkscape:connector-curvature="0"
                   style="opacity:1;fill:#000000" />
                <path
                   id="path12804"
                   d="m 303.91,263.99 c 1.52,-2.93 5.21,-2.88 8.06,-2.67 1.54,0.25 3.99,-0.04 4.46,1.95 0.02,2.52 -0.26,5.04 -0.83,7.49 -3.12,0.89 -6.39,0.98 -9.6,0.58 -1,-2.32 -2.39,-4.74 -2.09,-7.35 m 2.44,1.98 c 1.22,2.47 4.67,4.09 6.96,2.01 0.47,-2.05 -0.96,-3.92 -2.31,-5.3 -1.64,0.97 -3.24,2 -4.65,3.29 z"
                   inkscape:connector-curvature="0"
                   style="opacity:1;fill:#000000" />
                <path
                   id="path12806"
                   d="m 236.33,311.62 c 3.95,-1.64 8.05,-0.04 11.99,0.7 0.14,0.25 0.43,0.76 0.57,1.01 -1.93,0.43 -6.03,0.85 -4.39,3.84 4.25,0.28 9.17,-2.36 12.99,0.25 -6.3,0.21 -12.64,0.67 -18.92,0.07 1.56,-0.68 3.14,-1.32 4.73,-1.92 -1.55,-2.58 -7.07,0.26 -6.97,-3.56 z"
                   inkscape:connector-curvature="0"
                   style="opacity:1;fill:#000000" />
                <path
                   id="path12808"
                   d="m 268.2,321.22 c 6.75,-0.1 13.41,0.86 20.04,2 -6.44,0.09 -12.86,0.7 -19.29,0.61 -0.24,-0.88 -0.49,-1.75 -0.75,-2.61 z"
                   inkscape:connector-curvature="0"
                   style="opacity:1;fill:#000000" />
              </g>
              <g
                 id="#3a3a3aff">
                <path
                   id="path12819"
                   d="m 225.65,234.69 c 1.09,-1.05 2.76,-0.67 3.63,0.47 0.05,0.42 0.14,1.26 0.19,1.69 -5.12,3.21 -10.58,6.16 -14.29,11.1 0.99,1.6 1.99,3.23 3.33,4.58 5.17,0.49 10.34,-0.34 15.51,-0.39 3.37,-0.06 6.61,1.33 9.99,1.15 2.83,-0.98 5.68,-2.32 8.77,-1.53 0.33,0.05 1,0.14 1.33,0.18 -0.05,0.81 -0.15,2.43 -0.2,3.24 -10.17,0.43 -20.36,0.25 -30.53,0.83 -5.46,0.42 -12.03,3.7 -16.64,-0.82 2.73,-0.3 4.19,-2.78 3.07,-5.33 3.63,-6.52 9.74,-11.13 15.84,-15.17 z"
                   inkscape:connector-curvature="0"
                   style="opacity:1;fill:#3a3a3a" />
                <path
                   id="path12821"
                   d="m 103.94,321.92 c 8.95,1.02 17.94,-0.6 26.22,-4.01 -0.21,0.57 -0.64,1.7 -0.86,2.26 -1.12,0.48 -2.25,0.96 -3.38,1.43 -3.12,1.26 -6.44,1.96 -9.76,2.46 -3.59,0.47 -7.22,0.18 -10.8,-0.23 -0.36,-0.48 -1.06,-1.43 -1.42,-1.91 z"
                   inkscape:connector-curvature="0"
                   style="opacity:1;fill:#3a3a3a" />
              </g>
              <g
                 id="#b8b8b8ff">
                <path
                   id="path12824"
                   d="m 229.28,235.16 c 0.42,0.83 0.83,1.66 1.25,2.5 4.05,1.68 10.27,1.48 11.33,6.83 -2.87,0.23 -5.75,0.36 -8.62,0.44 0.81,1.12 1.61,2.24 2.41,3.37 -5.12,1.23 -10.42,1.15 -15.61,1.89 -0.38,0.59 -1.15,1.75 -1.53,2.34 -1.34,-1.35 -2.34,-2.98 -3.33,-4.58 3.71,-4.94 9.17,-7.89 14.29,-11.1 -0.05,-0.43 -0.14,-1.27 -0.19,-1.69 z"
                   inkscape:connector-curvature="0"
                   style="opacity:1;fill:#b8b8b8" />
              </g>
              <g
                 id="#535353ff">
                <path
                   id="path12827"
                   d="m 200.69,240.73 c 0.83,-2.51 3.37,-3.71 5.76,-4.31 -0.68,1.5 -1.06,3.19 -2.11,4.5 -2.41,3.62 -0.6,8.37 0.08,12.31 0.18,0.86 0.54,2.57 0.73,3.43 -4.54,-0.07 -9.31,-2.31 -11.37,-6.52 -1.08,-2.18 -0.38,-4.62 0.59,-6.7 0.37,3.83 2.11,7.37 5.43,9.46 0.17,-4.05 -0.4,-8.25 0.89,-12.17 z"
                   inkscape:connector-curvature="0"
                   style="opacity:1;fill:#535353" />
                <path
                   id="path12829"
                   d="m 71.05,380.5 c 6.74,-0.68 13.41,-1.96 20.18,-2.29 -5.95,1.94 -12.32,1.57 -18.31,3.26 -3.87,0.46 -7.79,0.17 -11.65,-0.21 -1.24,8.5 0.01,17.2 -1.15,25.75 -1.27,8.74 -1.87,17.55 -2.66,26.35 -0.2,-0.47 -0.6,-1.39 -0.8,-1.85 0.44,-7.84 1.22,-15.65 2.17,-23.44 0.9,-8.34 0.84,-16.74 0.79,-25.12 0.64,-2.39 -2.18,-2.42 -3.68,-2.69 0.35,-0.15 1.03,-0.43 1.38,-0.57 4.57,0.41 9.13,1.29 13.73,0.81 z"
                   inkscape:connector-curvature="0"
                   style="opacity:1;fill:#535353" />
              </g>
              <g
                 id="#959595ff">
                <path
                   id="path12832"
                   d="m 77.82,240.75 c 1.86,-0.04 4.33,-1.07 5.03,1.44 -1.83,0.65 -3.77,0.69 -5.69,0.56 0.16,-0.5 0.5,-1.5 0.66,-2 z"
                   inkscape:connector-curvature="0"
                   style="opacity:1;fill:#959595" />
                <path
                   id="path12834"
                   d="m 60.23,256.8 c 1.84,-0.51 3.67,-1.03 5.5,-1.55 -1.97,6.77 -3.43,13.69 -3.83,20.74 0.46,-0.44 1.37,-1.33 1.83,-1.77 0.61,0.1 1.83,0.28 2.44,0.38 0.01,2.46 -0.04,4.93 -0.03,7.4 -0.62,0.06 -1.88,0.18 -2.5,0.24 -0.81,-1.4 -1.6,-2.78 -2.4,-4.18 l -0.17,-0.3 c 0.63,-6.9 1.08,-13.89 3.35,-20.5 -1.4,-0.14 -2.8,-0.28 -4.19,-0.46 z"
                   inkscape:connector-curvature="0"
                   style="opacity:1;fill:#959595" />
                <path
                   id="path12836"
                   d="m 65.91,261.91 c 2.01,-4.73 7.87,-4.88 11.95,-6.88 -1.71,1.64 -3.42,3.28 -5.05,5 0.21,-0.69 0.64,-2.07 0.85,-2.75 -4.22,1.69 -5.49,6.25 -7.58,9.84 -0.28,-1.7 -1.07,-3.56 -0.17,-5.21 z"
                   inkscape:connector-curvature="0"
                   style="opacity:1;fill:#959595" />
              </g>
              <g
                 id="#bcbcbcff">
                <path
                   id="path12839"
                   d="m 204.34,240.92 c 1.67,0.69 3.31,-0.31 4.89,-0.8 -1.91,4.27 -5.43,8.09 -4.81,13.11 -0.68,-3.94 -2.49,-8.69 -0.08,-12.31 z"
                   inkscape:connector-curvature="0"
                   style="opacity:1;fill:#bcbcbc" />
              </g>
              <g
                 id="#c2c2c2ff">
                <path
                   id="path12842"
                   d="m 63.87,251.41 c 0.27,-3.57 2.99,-6.01 5.56,-8.15 1.88,1.98 4.73,0.68 7.06,1.4 1.52,0.52 2.93,1.29 4.36,2.01 -5.23,2.39 -11.26,2.04 -16.43,4.51 z"
                   inkscape:connector-curvature="0"
                   style="opacity:1;fill:#c2c2c2" />
              </g>
              <g
                 id="#848484ff">
                <path
                   id="path12845"
                   d="m 171.31,250.69 c 1.17,0.55 2.41,1.1 3.11,2.26 0.01,1.64 -0.58,3.19 -0.94,4.76 3.56,2.85 6.52,9.77 1.21,12.4 -0.53,-2.27 -1.07,-4.54 -1.74,-6.77 -3.61,2.22 -3.78,8.14 -8.81,8.19 -0.21,3.91 -0.6,7.84 -1.96,11.54 0.43,-7.8 1.6,-16.47 -3.01,-23.34 3.73,-0.2 7.44,-0.66 11.12,-1.31 0.5,-2.28 2.29,-4.69 1.3,-7.04 z"
                   inkscape:connector-curvature="0"
                   style="opacity:1;fill:#848484" />
                <path
                   id="path12847"
                   d="m 56.66,431.51 c 0.2,0.46 0.6,1.38 0.8,1.85 0.3,8.87 0.3,17.81 0.16,26.71 -2.42,-0.31 -1.37,-3.36 -1.63,-5.04 0.7,-7.83 -0.62,-15.73 0.67,-23.52 z"
                   inkscape:connector-curvature="0"
                   style="opacity:1;fill:#848484" />
              </g>
              <g
                 id="#5b5b5bff">
                <path
                   id="path12850"
                   d="m 277.72,252.07 c 1.69,-0.39 3.43,-0.55 5.17,-0.49 10.46,0.07 20.92,-0.26 31.38,0.18 -0.19,0.45 -0.57,1.36 -0.76,1.81 -7.6,3.51 -16.19,4.32 -24.47,3.93 -3.1,-3.04 -7.55,-3.61 -11.32,-5.43 z"
                   inkscape:connector-curvature="0"
                   style="opacity:1;fill:#5b5b5b" />
              </g>
              <g
                 id="#595959ff">
                <path
                   id="path12853"
                   d="m 254.11,251.94 c 5.17,0.42 10.37,0.11 15.55,0.13 0.06,0.72 0.17,2.17 0.22,2.9 1.39,0.68 2.79,1.38 4.2,2.03 -14.38,0.4 -28.77,0.02 -43.16,0.13 -2.07,-0.15 -3.82,1.03 -5.39,2.21 -1.06,-0.23 -2.11,-0.44 -3.17,-0.62 0.62,-0.79 0.96,-1.7 1.02,-2.71 10.17,-0.58 20.36,-0.4 30.53,-0.83 0.05,-0.81 0.15,-2.43 0.2,-3.24 z"
                   inkscape:connector-curvature="0"
                   style="opacity:1;fill:#595959" />
              </g>
              <g
                 id="#d5d5d5ff">
                <path
                   id="path12856"
                   d="m 117.42,253.69 c 4.13,-0.24 7.82,1.86 11.53,3.34 4.33,1.96 9.15,4.33 11.07,9 1.88,4.46 3.03,9.41 2.15,14.25 -1.05,-0.84 -1.89,-1.9 -2.28,-3.19 -1.85,-4.8 -3.86,-9.75 -7.54,-13.47 -4.32,-4.27 -10.7,-5.57 -14.93,-9.93 z"
                   inkscape:connector-curvature="0"
                   style="opacity:1;fill:#d5d5d5" />
              </g>
              <g
                 id="#515151ff">
                <path
                   id="path12859"
                   d="m 187.23,254.26 c 3.86,2.13 7.33,4.89 11.27,6.88 0.05,-0.95 0.14,-2.83 0.19,-3.78 2.79,4.31 8.11,3.68 12.47,2.91 -0.57,0.49 -1.7,1.48 -2.27,1.97 2.6,-0.12 5.21,-0.24 7.82,-0.35 -0.53,1.01 -1.08,2.02 -1.63,3.03 0.33,-0.71 0.97,-2.14 1.3,-2.85 -4.96,0.28 -10.12,0.99 -13.9,4.53 -0.58,-1.62 -1.14,-3.23 -1.87,-4.78 -1.56,2.18 -3.65,3.92 -6.33,4.52 -1.48,3.23 -2.97,6.89 -6.54,8.3 1.24,-5.12 3.72,-9.91 7.49,-13.62 -3.12,-1.61 -6.65,-3.26 -8,-6.76 z"
                   inkscape:connector-curvature="0"
                   style="opacity:1;fill:#515151" />
              </g>
              <g
                 id="#f9f9f9ff">
                <path
                   id="path12862"
                   d="m 66.08,267.12 c 2.09,-3.59 3.36,-8.15 7.58,-9.84 -0.21,0.68 -0.64,2.06 -0.85,2.75 -3.2,4.5 -4.3,9.94 -6.23,15.01 0.1,2.51 0.1,5.03 0.02,7.55 -0.87,4.86 1.81,9.25 2.37,13.97 -0.62,-0.35 -1.86,-1.04 -2.48,-1.39 -1.51,-2.78 -1.08,-5.95 -0.41,-8.9 -0.46,0.13 -1.37,0.37 -1.82,0.49 -0.21,-1.51 -0.42,-3.02 -0.62,-4.52 0.62,-0.06 1.88,-0.18 2.5,-0.24 -0.01,-2.47 0.04,-4.94 0.03,-7.4 -0.61,-0.1 -1.83,-0.28 -2.44,-0.38 0.68,-2.4 1.23,-4.85 2.35,-7.1 z"
                   inkscape:connector-curvature="0"
                   style="opacity:1;fill:#f9f9f9" />
              </g>
              <g
                 id="#cfcfcfff">
                <path
                   id="path12865"
                   d="m 202.48,266.6 c 3.78,-3.54 8.94,-4.25 13.9,-4.53 -0.33,0.71 -0.97,2.14 -1.3,2.85 -2.7,4.96 -9.3,7.12 -14.46,4.89 0.59,-1.08 0.89,-2.41 1.86,-3.21 z"
                   inkscape:connector-curvature="0"
                   style="opacity:1;fill:#cfcfcf" />
              </g>
              <g
                 id="#fefefeff">
                <path
                   id="path12868"
                   d="m 306.35,265.97 c 1.41,-1.29 3.01,-2.32 4.65,-3.29 1.35,1.38 2.78,3.25 2.31,5.3 -2.29,2.08 -5.74,0.46 -6.96,-2.01 z"
                   inkscape:connector-curvature="0"
                   style="opacity:1;fill:#fefefe" />
                <path
                   id="path12870"
                   d="m 74.55,283.6 c 0.47,0.03 1.39,0.08 1.85,0.1 0.02,1.29 0.02,2.57 0.02,3.86 -0.46,-0.07 -1.37,-0.23 -1.82,-0.31 -0.03,-1.22 -0.05,-2.44 -0.05,-3.65 z"
                   inkscape:connector-curvature="0"
                   style="opacity:1;fill:#fefefe" />
                <path
                   id="path12872"
                   d="m 193.27,346.75 c 4,-1.38 8.26,-0.95 12.34,-0.2 1.89,1.14 3.49,2.68 5.28,3.96 -5.59,-0.28 -11.15,-0.9 -16.75,-1.11 -0.17,-0.54 -0.53,-1.63 -0.71,-2.18 z"
                   inkscape:connector-curvature="0"
                   style="opacity:1;fill:#fefefe" />
              </g>
              <g
                 id="#929292ff">
                <path
                   id="path12875"
                   d="m 175.45,277.98 c 1.58,-2.49 3.62,-4.68 6.24,-6.09 -0.04,2.51 -0.22,5.02 -0.53,7.52 -1.96,-0.25 -3.87,-0.75 -5.71,-1.43 z"
                   inkscape:connector-curvature="0"
                   style="opacity:1;fill:#929292" />
              </g>
              <g
                 id="#010101ff">
                <path
                   id="path12878"
                   d="m 71.5,283.21 c 0.87,-1.23 2.2,-1.98 3.38,-2.86 1.18,0.43 2.36,0.86 3.54,1.28 1.47,2.89 1.5,6.1 -0.07,8.96 -2.02,-0.02 -4,-0.38 -5.83,-1.22 -0.17,-0.7 -0.51,-2.08 -0.68,-2.77 -0.25,-1.12 -0.36,-2.25 -0.34,-3.39 m 3.05,0.39 c 0,1.21 0.02,2.43 0.05,3.65 0.45,0.08 1.36,0.24 1.82,0.31 0,-1.29 0,-2.57 -0.02,-3.86 -0.46,-0.02 -1.38,-0.07 -1.85,-0.1 z"
                   inkscape:connector-curvature="0"
                   style="opacity:1;fill:#010101" />
                <path
                   id="path12880"
                   d="m 189.07,363.32 c 4.71,-1.29 9.64,-1.96 14.54,-1.88 3.41,0.92 5.92,3.53 8.99,5.12 l 0.38,0.8 c -1.87,-0.02 -3.73,-0.03 -5.59,-0.03 0.13,-0.61 0.4,-1.82 0.54,-2.43 -0.45,-0.04 -1.34,-0.12 -1.78,-0.16 -5.98,-0.6 -11.97,0.1 -17.95,0.03 0.21,-0.36 0.65,-1.09 0.87,-1.45 z"
                   inkscape:connector-curvature="0"
                   style="opacity:1;fill:#010101" />
              </g>
              <g
                 id="#545454ff">
                <path
                   id="path12887"
                   d="m 66.6,282.59 c 1.26,5.17 2.4,10.39 4.36,15.36 -0.66,-0.48 -1.32,-0.94 -1.99,-1.39 -0.56,-4.72 -3.24,-9.11 -2.37,-13.97 z"
                   inkscape:connector-curvature="0"
                   style="opacity:1;fill:#545454" />
              </g>
              <g
                 id="#7c7c7cff">
                <path
                   id="path12890"
                   d="m 60.41,295.56 0.75,-1.26 c 1.17,6.55 1.68,13.19 2.85,19.74 1.94,11.1 1.87,22.61 -0.58,33.63 -0.11,-0.55 -0.34,-1.66 -0.45,-2.22 -0.35,-5.15 1.27,-10.22 1.02,-15.38 0.12,-11.46 -3.13,-22.64 -3.86,-34.03 z"
                   inkscape:connector-curvature="0"
                   style="opacity:1;fill:#7c7c7c" />
              </g>
              <g
                 id="#c3c3c3ff">
                <path
                   id="path12893"
                   d="m 215.64,300.12 c 5.55,1.58 11.15,3.27 16.26,6.02 1.5,0.77 3.02,1.63 4.74,1.83 -0.16,0.44 -0.46,1.32 -0.62,1.77 0.08,0.47 0.23,1.41 0.31,1.88 v 0.39 c -0.04,0.31 -0.13,0.93 -0.17,1.24 -3.28,-1.44 -6.35,-4.07 -10.18,-3.27 0.14,0.51 0.43,1.55 0.58,2.07 -4.82,-2.69 -8.79,-6.8 -10.92,-11.93 z"
                   inkscape:connector-curvature="0"
                   style="opacity:1;fill:#c3c3c3" />
              </g>
              <g
                 id="#b3b3b3ff">
                <path
                   id="path12896"
                   d="m 147.92,303.17 c 0.26,-0.45 0.78,-1.35 1.04,-1.8 0.75,2.28 0.27,4.6 -0.3,6.85 1.19,0.37 2.39,0.75 3.59,1.12 -0.4,0.45 -1.21,1.35 -1.61,1.8 -5.18,0.98 -9.63,3.97 -14.31,6.24 -2.97,1.41 -5.47,3.57 -7.99,5.64 -0.61,-0.36 -1.82,-1.07 -2.42,-1.42 1.13,-0.47 2.26,-0.95 3.38,-1.43 0.22,-0.56 0.65,-1.69 0.86,-2.26 6.11,-2.88 11.31,-7.3 17.13,-10.69 0.2,-1.35 0.38,-2.71 0.63,-4.05 z"
                   inkscape:connector-curvature="0"
                   style="opacity:1;fill:#b3b3b3" />
                <path
                   id="path12898"
                   d="m 87.74,317.66 c 5.19,2.11 10.56,3.93 16.2,4.26 0.36,0.48 1.06,1.43 1.42,1.91 3.58,0.41 7.21,0.7 10.8,0.23 -2.69,0.4 -5.35,1.11 -7.7,2.52 5.81,1.14 11.44,-0.8 17.16,-1.24 -2.99,2.99 -6.35,5.62 -8.9,9.03 -2.33,-0.19 -4.46,0.84 -6.51,1.8 -0.38,1.17 -0.77,2.34 -1.15,3.52 -2.96,-0.08 -5.93,-0.21 -8.88,-0.43 4.42,-5.18 12.16,-5.07 16.55,-10.26 -11.61,-0.66 -23.21,0.74 -34.78,1.47 1.01,-0.98 1.45,-2.97 3.16,-2.94 6.47,-0.61 13.8,0.4 19.05,-4.32 -5.6,-1.23 -11.96,-1.5 -16.42,-5.55 z"
                   inkscape:connector-curvature="0"
                   style="opacity:1;fill:#b3b3b3" />
              </g>
              <g
                 id="#b2b2b2ff">
                <path
                   id="path12901"
                   d="m 119.54,314.86 c 3.75,-1.34 7.77,-1.81 11.39,-3.54 -12.54,8.47 -30.01,8.54 -42.87,0.78 5.59,-0.2 10.62,2.72 16.11,3.11 4.56,-1.34 9.04,-3.44 13.92,-3.27 1.57,0.09 2.05,1.06 1.45,2.92 z"
                   inkscape:connector-curvature="0"
                   style="opacity:1;fill:#b2b2b2" />
              </g>
              <g
                 id="#adadadff">
                <path
                   id="path12904"
                   d="m 248.32,312.32 c 4.32,1.84 8.94,2.71 13.44,3.97 2.54,0.88 5.55,2.14 6.44,4.93 0.26,0.86 0.51,1.73 0.75,2.61 -4.68,-0.01 -9.34,-0.54 -14.01,-0.7 -0.08,-1.46 -0.17,-2.91 -0.25,-4.36 -5.48,-0.34 -11.6,1.95 -16.54,-1.32 l 0.42,0.04 c 6.28,0.6 12.62,0.14 18.92,-0.07 -3.82,-2.61 -8.74,0.03 -12.99,-0.25 -1.64,-2.99 2.46,-3.41 4.39,-3.84 -0.14,-0.25 -0.43,-0.76 -0.57,-1.01 z"
                   inkscape:connector-curvature="0"
                   style="opacity:1;fill:#adadad" />
              </g>
              <g
                 id="#fbfbfbff">
                <path
                   id="path12907"
                   d="m 116.16,324.06 c 3.32,-0.5 6.64,-1.2 9.76,-2.46 0.6,0.35 1.81,1.06 2.42,1.42 -0.92,0.75 -1.84,1.51 -2.72,2.32 -5.72,0.44 -11.35,2.38 -17.16,1.24 2.35,-1.41 5.01,-2.12 7.7,-2.52 z"
                   inkscape:connector-curvature="0"
                   style="opacity:1;fill:#fbfbfb" />
                <path
                   id="path12909"
                   d="m 156.61,348.35 c 2.23,-0.74 4.36,-1.75 6.54,-2.59 2.05,-0.23 3.75,1.51 5.8,1.52 4.4,0.08 8.82,0.18 13.2,-0.34 3.74,0.44 7.51,0.46 11.28,0.28 0.18,0.55 0.54,1.64 0.71,2.18 -12.45,-1.39 -25.02,-0.85 -37.53,-1.05 z"
                   inkscape:connector-curvature="0"
                   style="opacity:1;fill:#fbfbfb" />
              </g>
              <g
                 id="#585858ff">
                <path
                   id="path12912"
                   d="m 261.12,335.77 c 2.37,-0.43 4.4,-2.72 6.93,-1.78 2.65,0.67 5.31,1.24 8.01,1.66 -0.53,0.5 -1.14,0.84 -1.85,0.99 -6.66,1.21 -13.26,2.75 -20,3.48 0.44,-3.41 4.36,-3.51 6.91,-4.35 z"
                   inkscape:connector-curvature="0"
                   style="opacity:1;fill:#585858" />
              </g>
              <g
                 id="#909090ff">
                <path
                   id="path12915"
                   d="m 160.08,360.44 c 4.03,0.47 8.04,-0.02 11.98,-0.84 10.67,-0.62 21.54,-0.92 31.96,1.85 l -0.41,-0.01 c -4.9,-0.08 -9.83,0.59 -14.54,1.88 -0.22,0.36 -0.66,1.09 -0.87,1.45 -1.09,-0.96 -2.16,-1.95 -3.43,-2.65 -2.36,-0.01 -3.87,3.4 -6.42,2.49 -1.46,-0.91 -2.62,-2.3 -4.26,-2.89 -3.62,0.52 -7.27,1.85 -9.88,4.51 -7.91,7.49 -18.98,11.04 -29.76,10.86 4.27,-7.83 15.63,-2.62 20.7,-9.4 -6.2,0.33 -12.08,2.46 -18.12,3.67 1.97,-3.21 5.86,-4.32 8.15,-7.23 3.54,-4.47 9.82,-3.97 14.9,-3.69 z"
                   inkscape:connector-curvature="0"
                   style="opacity:1;fill:#909090" />
              </g>
              <g
                 id="#b4b4b4ff">
                <path
                   id="path12918"
                   d="m 212.09,365.37 c 4.13,-1.35 8.49,-2.3 12.82,-1.4 0.42,1.9 0.58,3.92 1.51,5.67 2.32,2.18 7.82,-0.02 7.71,4.49 -7.49,1.21 -14.89,-0.88 -22.19,-2.26 -2.91,-0.38 -5,-2.85 -7.97,-3.07 -2.28,-0.38 -5.48,-0.94 -5.34,-3.96 2.5,-0.09 5.01,-0.19 7.52,-0.1 0.44,0.04 1.33,0.12 1.78,0.16 -0.14,0.61 -0.41,1.82 -0.54,2.43 1.86,0 3.72,0.01 5.59,0.03 l -0.38,-0.8 z"
                   inkscape:connector-curvature="0"
                   style="opacity:1;fill:#b4b4b4" />
              </g>
            </g>
          </g>
        </g>
      </g>
    </g>
    <g
       inkscape:groupmode="layer"
       id="layer2"
       inkscape:label="fondo"
       style="display:none"
       sodipodi:insensitive="true">
      <rect
         style="opacity:1;vector-effect:none;fill:#343434;fill-opacity:0;stroke:#000000;stroke-width:0.02432241;stroke-linecap:butt;stroke-linejoin:miter;stroke-miterlimit:4;stroke-dasharray:none;stroke-dashoffset:0;stroke-opacity:0.48743723;paint-order:normal"
         id="rect6037"
         width="24.322405"
         height="24.322405"
         x="13.941643"
         y="258.39938" />
    </g>
  </g>
</svg>
