<?xml version="1.0" encoding="UTF-8" standalone="no"?>
<!-- Created with Inkscape (http://www.inkscape.org/) -->

<svg
   xmlns:dc="http://purl.org/dc/elements/1.1/"
   xmlns:cc="http://creativecommons.org/ns#"
   xmlns:rdf="http://www.w3.org/1999/02/22-rdf-syntax-ns#"
   xmlns:svg="http://www.w3.org/2000/svg"
   xmlns="http://www.w3.org/2000/svg"
   xmlns:sodipodi="http://sodipodi.sourceforge.net/DTD/sodipodi-0.dtd"
   xmlns:inkscape="http://www.inkscape.org/namespaces/inkscape"
   width="200"
   height="200"
   viewBox="0 0 52.916666 52.916668"
   version="1.1"
   id="svg8"
   inkscape:version="0.92.1 r15371"
   sodipodi:docname="cara5.svg">
  <defs
     id="defs2" />
  <sodipodi:namedview
     id="base"
     pagecolor="#ffffff"
     bordercolor="#666666"
     borderopacity="1.0"
     inkscape:pageopacity="0.0"
     inkscape:pageshadow="2"
     inkscape:zoom="2.8"
     inkscape:cx="76.612763"
     inkscape:cy="70.908328"
     inkscape:document-units="mm"
     inkscape:current-layer="#000000ff"
     showgrid="false"
     inkscape:window-width="1366"
     inkscape:window-height="705"
     inkscape:window-x="-8"
     inkscape:window-y="-8"
     inkscape:window-maximized="1"
     units="px" />
  <metadata
     id="metadata5">
    <rdf:RDF>
      <cc:Work
         rdf:about="">
        <dc:format>image/svg+xml</dc:format>
        <dc:type
           rdf:resource="http://purl.org/dc/dcmitype/StillImage" />
        <dc:title />
      </cc:Work>
    </rdf:RDF>
  </metadata>
  <g
     inkscape:label="Capa 1"
     inkscape:groupmode="layer"
     id="layer1"
     transform="translate(0,-244.08332)">
    <g
       id="g4535"
       transform="matrix(8.8074971,0,0,8.8074971,-104.0858,-4.9796553)">
      <g
         id="g4701"
         transform="matrix(0.00468584,0,0,0.00468584,12.025701,29.907373)">
        <g
           id="g4834"
           transform="matrix(2.8495613,0,0,2.8495613,38.459481,83.006029)">
          <g
             id="#000000ff">
            <path
               id="path4722"
               d="m 140.43171,2.4144217 c 8.48224,-3.33350125 17.83909,-1.62364505 26.30746,0.9052179 3.62335,1.5949079 7.08011,3.6065032 10.5924,5.4744132 7.52435,4.7847242 11.42535,14.6415422 9.66227,23.5500372 -4.02595,5.201411 -11.231,6.954373 -17.32545,5.689941 -5.66409,-2.801865 -11.99454,-3.232921 -18.06122,-4.382404 -8.48225,-0.991429 -14.50728,7.112427 -22.39258,8.520544 -6.74692,2.155281 -13.99362,2.241492 -20.7822,0.186791 -3.56782,-2.672549 -5.84456,-6.825056 -5.69185,-11.451726 1.38826,-5.21578 5.4142,-8.807915 8.37119,-13.046634 4.62289,-4.095034 9.32908,-8.2906472 14.92376,-10.9344592 4.47018,-2.5288627 9.57896,-3.0892357 14.39622,-4.5117211 m 0.97178,4.2099821 c -3.81771,2.025964 -8.9265,0.977061 -12.13337,4.0519282 2.98475,0.603479 6.42763,0.05747 8.89873,2.212755 1.67979,2.241492 2.60992,5.230149 1.67979,8.003277 -1.31885,1.695487 -2.84593,3.232921 -4.45631,4.626669 -3.83159,1.523066 -7.38552,-0.689689 -10.21756,-3.189815 -0.62472,-1.86791 -1.16614,-3.764558 -1.58261,-5.704311 -0.33319,-2.025964 1.81861,-2.888076 2.73486,-4.32493 -2.87369,0.991429 -4.47019,3.893874 -6.80246,5.70431 -4.62289,3.103605 -8.24624,7.486009 -12.03618,11.552306 -1.20779,4.008823 0.91625,9.138391 5.23373,9.727501 5.92785,0.215528 12.07783,0.718427 17.60309,-1.96849 7.51047,-3.692714 15.20141,-9.899923 24.00296,-7.787748 5.0116,1.566171 10.92558,0.531636 15.25694,4.03756 4.60901,0.416687 10.39804,0.847743 13.24397,-3.807663 1.22166,-5.90547 -1.92968,-11.178724 -5.35867,-15.561129 -6.64975,-4.123771 -13.88257,-7.9026972 -21.68458,-8.7791776 -4.78948,0.1724224 -9.84274,-0.8190067 -14.38233,1.2069574 z"
               inkscape:connector-curvature="0"
               style="opacity:1;fill:#000000;stroke-width:1.20094538;stroke-miterlimit:4;stroke-dasharray:none" />
            <path
               id="path4720"
               d="m 239.71842,1.9735684 c 5.19208,-1.00579785 10.55075,-0.1724225 15.81224,-0.4741618 4.88667,-0.4741618 9.44015,1.5949079 14.03528,2.9599191 8.038,1.8966471 15.25694,6.9974783 20.26855,13.7219543 1.84638,4.080666 2.63768,8.721704 2.33227,13.233425 -4.15089,6.652634 -12.81361,6.767582 -19.61607,6.350895 -6.2888,-2.686917 -12.17501,-6.322158 -18.56099,-8.807915 -3.88712,-0.359213 -7.81589,-0.273002 -11.70301,-0.04311 -4.37301,2.514495 -8.19071,6.092261 -12.9802,7.830855 -5.90009,1.982858 -12.14724,2.686916 -18.33887,2.212755 -6.01115,-1.767331 -9.60674,-9.080917 -6.99681,-15.029493 1.44378,-2.873708 2.76263,-5.80489 4.33136,-8.606755 1.90191,-3.132341 5.44196,-4.195613 8.32954,-6.0204182 3.94265,-2.615073 8.07965,-5.0289881 12.60537,-6.3508937 3.45676,-0.6609529 7.09399,0.2873708 10.48134,-0.9770607 m 0.49977,4.4829844 c -3.56782,1.336274 -7.38553,0.387951 -11.03664,0.948324 -5.7335,3.1610782 -12.05007,5.5749932 -16.82567,10.2591362 -1.74921,2.35644 -2.90146,5.1152 -4.15089,7.759011 -1.72144,3.477187 0.0972,8.391227 4.05371,9.023443 5.98339,0.560373 12.00842,-0.574741 17.56145,-2.902445 3.98429,-1.781699 7.27446,-4.784723 11.03664,-6.968742 3.97041,-0.675321 8.05189,-0.273002 12.06395,-0.273002 7.28835,1.321906 13.09126,6.552054 20.04643,8.779178 4.87278,0.79027 10.06486,0.373582 14.36845,-2.342072 1.47156,-2.931182 -0.16659,-6.523317 -1.06895,-9.483236 -1.79086,-2.040333 -3.54006,-4.123771 -4.99773,-6.437105 -6.31657,-4.813461 -14.11857,-6.3652632 -21.47633,-8.6785982 -6.51092,0.04311 -13.13291,-0.531636 -19.57442,0.316108 z"
               inkscape:connector-curvature="0"
               style="opacity:1;fill:#000000;stroke-width:1.20094538;stroke-miterlimit:4;stroke-dasharray:none" />
            <path
               id="path4724"
               d="m 256.00267,9.8906338 c 1.69367,-2.586337 5.23373,-1.2788 7.76035,-1.37938 3.44288,-0.143686 4.47019,3.5777662 5.03938,6.3508942 -1.45767,3.074867 -4.02595,6.968741 -7.87142,5.948575 -2.11015,0.07184 -3.15134,-2.270229 -4.59513,-3.477186 -2.20733,-1.623645 -2.17956,-5.618099 -0.33318,-7.4429032 z"
               inkscape:connector-curvature="0"
               style="opacity:1;fill:#000000;stroke-width:1.20094538;stroke-miterlimit:4;stroke-dasharray:none" />
            <g
               transform="matrix(1.3882567,0,0,1.436854,-123.44954,-66.593103)"
               id="#ffc0b6ff"
               style="stroke-width:0.85031933;stroke-miterlimit:4;stroke-dasharray:none">
              <path
                 id="path4754"
                 d="m 260.67,73.47 c 3.48,-2.38 7.9,-2.47 11.92,-1.91 3.13,0.91 6.31,3.91 5.51,7.45 -0.29,2.43 -3.14,3.09 -5.14,3.59 -4,0.26 -8.03,0.08 -12.01,0.67 -2.72,-0.65 -4.55,-3.1 -6.03,-5.3 -0.19,-2.13 1.92,-3.97 4,-3.84 0.12,0.65 0.36,1.95 0.48,2.6 2.43,2.7 5.82,4.97 9.61,4.75 2.52,-0.07 5.72,0.15 7.34,-2.2 1.32,-2.33 -0.63,-4.94 -2.71,-5.96 -4.2,-1.59 -8.68,-0.28 -12.97,0.15 z"
                 inkscape:connector-curvature="0"
                 style="opacity:1;fill:#ffc0b6;stroke-width:0.85031933;stroke-miterlimit:4;stroke-dasharray:none" />
            </g>
            <g
               transform="matrix(1.3882567,0,0,1.436854,-123.44954,-66.593103)"
               id="#ff907fff"
               style="stroke-width:0.85031933;stroke-miterlimit:4;stroke-dasharray:none">
              <path
                 id="path4757"
                 d="m 258.92,74.13 c 0.44,-0.16 1.31,-0.5 1.75,-0.66 4.29,-0.43 8.77,-1.74 12.97,-0.15 2.08,1.02 4.03,3.63 2.71,5.96 -1.62,2.35 -4.82,2.13 -7.34,2.2 -3.79,0.22 -7.18,-2.05 -9.61,-4.75 -0.12,-0.65 -0.36,-1.95 -0.48,-2.6 z"
                 inkscape:connector-curvature="0"
                 style="opacity:1;fill:#ff907f;stroke-width:0.85031933;stroke-miterlimit:4;stroke-dasharray:none" />
            </g>
          </g>
          <g
             id="#ffb5a9ff"
             transform="matrix(1.3882567,0,0,1.436854,-17.8018,-69.571961)"
             style="stroke-width:0.85031933;stroke-miterlimit:4;stroke-dasharray:none">
            <path
               id="path4760"
               d="m 121.51,77.53 c 4.4,-0.53 8.95,0.08 12.92,2.1 1.07,1.15 1.79,2.63 2.19,4.14 -0.77,2.69 -3.63,3.81 -6.04,4.6 -4.61,1.12 -9.56,1.48 -14.13,0.04 -1.51,-1.41 -3.25,-3.2 -2.88,-5.45 0.71,-0.76 1.68,-2.83 2.95,-2.01 0.87,2.12 1.13,4.98 3.45,6.1 2.98,1.48 6.51,1.07 9.66,0.41 2.57,-0.6 4.11,-3.06 4.98,-5.37 -3.03,-4.38 -9.19,-3.28 -13.8,-3.51 0.17,-0.26 0.53,-0.79 0.7,-1.05 z"
               inkscape:connector-curvature="0"
               style="opacity:1;fill:#ffb5a9;stroke-width:0.85031933;stroke-miterlimit:4;stroke-dasharray:none" />
          </g>
          <g
             id="#898989ff"
             transform="matrix(1.3882567,0,0,1.436854,-17.8018,-69.571961)"
             style="stroke-width:0.85031933;stroke-miterlimit:4;stroke-dasharray:none">
            <path
               id="path4763"
               d="m 90.93,77.9 c 4.89,1.43 10.11,1.37 14.97,-0.13 -0.8,1.28 -2.69,1.16 -4.03,1.43 -3.65,-0.12 -7.71,0.89 -10.94,-1.3 z"
               inkscape:connector-curvature="0"
               style="opacity:1;fill:#898989;stroke-width:0.85031933;stroke-miterlimit:4;stroke-dasharray:none" />
          </g>
          <g
             id="#ff9786ff"
             transform="matrix(1.3882567,0,0,1.436854,-17.8018,-69.571961)"
             style="stroke-width:0.85031933;stroke-miterlimit:4;stroke-dasharray:none">
            <path
               id="path4766"
               d="m 116.52,80.95 c 1.25,-1.01 2.55,-2.4 4.29,-2.37 4.61,0.23 10.77,-0.87 13.8,3.51 -0.87,2.31 -2.41,4.77 -4.98,5.37 -3.15,0.66 -6.68,1.07 -9.66,-0.41 -2.32,-1.12 -2.58,-3.98 -3.45,-6.1 z"
               inkscape:connector-curvature="0"
               style="opacity:1;fill:#ff9786;stroke-width:0.85031933;stroke-miterlimit:4;stroke-dasharray:none" />
          </g>
          <path
             id="path4726"
             d="m 205.85696,149.4526 c 3.12357,2.6007 2.9431,7.60097 2.91533,11.40863 0.18046,3.43408 -2.05462,6.33651 -4.5396,8.33374 0.24989,-2.04032 1.18002,-3.86512 1.95745,-5.71868 1.05507,-4.31056 0.0139,-8.72169 -0.86072,-12.94605 z"
             inkscape:connector-curvature="0"
             style="opacity:1;fill:#000000;stroke-width:1.20094538;stroke-miterlimit:4;stroke-dasharray:none" />
          <g
             transform="matrix(1.3882567,0,0,1.436854,-68.468645,13.758663)"
             id="#010101ff"
             style="stroke-width:0.85031933;stroke-miterlimit:4;stroke-dasharray:none">
            <path
               id="path4731"
               d="m 220.5,67.33 c 1.88,-0.72 3.67,0.18 4.25,2.07 2.44,2.18 6.47,4.01 6.07,7.92 3.62,0.06 7.36,0.73 10.57,2.42 0.16,0.45 0.47,1.35 0.62,1.8 -3.57,-1.39 -7.44,-2.93 -11.33,-2.29 -0.09,1.8 -0.19,3.6 -0.26,5.39 3.28,3.33 6.02,7.53 6.3,12.32 -2.71,-0.05 -1.73,-3.28 -2.67,-4.89 -1.33,-2.44 -2.59,-5.18 -4.9,-6.82 -2.61,2 -5.88,1.65 -8.98,1.63 0.89,2.9 2.56,5.79 1.51,8.92 -0.3,-0.04 -0.89,-0.13 -1.19,-0.18 0.14,-2.9 -1.07,-5.59 -0.89,-8.49 -1.27,-0.59 -2.56,-1.16 -3.85,-1.7 0.45,3.3 -2.6,6.21 -5.73,6.5 1.14,3.83 3.21,7.51 3.32,11.57 -0.37,0 -1.12,0 -1.5,-0.01 -0.46,-4.04 -2.1,-7.87 -3.64,-11.6 -1.9,-0.82 -3.83,-1.57 -5.69,-2.49 -1.29,3.16 -5.44,4.16 -8.58,3.9 -1.85,0.14 -3.21,-1.4 -4.78,-2.1 -2.22,2.46 -4.05,5.38 -4.31,8.76 -0.25,2.46 0.26,4.9 0.41,7.35 -2.79,-0.91 -1.89,-4.14 -2.03,-6.33 -0.19,-2.17 0.85,-4.13 1.42,-6.15 -3.3,0.74 -5.89,-1.33 -8.82,-2.22 -0.88,4.08 -1.98,8.12 -3.39,12.05 -0.36,-0.53 -0.69,-1.08 -0.99,-1.64 1.04,-5.19 3.85,-10.13 3.23,-15.56 -3.22,2.45 -7.87,0.72 -10.5,-1.9 -0.7,-0.81 -1.94,-1.58 -2.97,-0.76 -2.82,2.66 -4.66,6.13 -5.75,9.82 -0.34,0.11 -1.02,0.34 -1.36,0.45 0.4,-4.89 3.89,-8.55 7.05,-11.95 0,-0.59 0,-1.77 0,-2.37 -3.04,-0.82 -5.04,2.4 -7.1,4.11 0.22,-3.66 4.32,-5.43 7.36,-6.44 1.03,-2.43 2.08,-5.28 4.54,-6.6 3.32,-0.21 5.26,2.9 7.57,4.74 5.16,2.78 11.08,3.33 16.7,4.62 7.21,1.26 14.33,-1.28 20.69,-4.49 3.03,-1 5.56,-2.96 8.22,-4.67 0.78,-1.41 0.41,-3.28 1.38,-4.69 m 2.14,5 c -1.55,3.4 -5.36,4.57 -8.47,6.08 1.39,2.19 2.85,4.89 5.68,5.31 2.49,0 5.21,0.47 7.45,-0.9 0.38,-2.18 0.28,-4.46 0.03,-6.66 -1.55,-1.17 -2.62,-3.81 -4.69,-3.83 m -56.29,3.58 c -1.37,1.71 -2.79,3.71 -1.9,6.03 1.93,2.83 5.57,3.74 8.82,3.41 0.95,-1.48 1.77,-3.02 2.64,-4.55 -3.64,-0.58 -6.34,-3.34 -8.94,-5.73 l -0.62,0.84 m 45.45,3.82 c -2.56,1.5 -5.47,2.09 -8.17,3.21 l -0.33,0.66 c 0.87,1.36 1.09,3.46 2.78,4.12 1.75,1.21 4.03,0.94 5.97,0.43 0.43,-1.37 0.84,-2.75 1.16,-4.15 -0.68,-1.32 -0.63,-3.12 -1.41,-4.27 m -34.06,1.83 c -0.04,2.73 -0.14,5.48 0.07,8.2 2.25,1.46 4.83,2.4 7.54,1.84 1.57,-2.37 1.01,-5.3 1.25,-7.98 -2.95,-0.71 -5.94,-1.25 -8.86,-2.06 m 22.05,2.2 c -3.19,1.67 -6.99,0.32 -10.44,0.89 0.69,1.79 1.47,3.58 2.58,5.15 2.94,0.99 6.56,0.23 8.56,-2.25 0.4,-1.26 0.22,-2.91 -0.7,-3.79 z"
               inkscape:connector-curvature="0"
               style="opacity:1;fill:#010101;stroke-width:0.85031933;stroke-miterlimit:4;stroke-dasharray:none" />
          </g>
        </g>
      </g>
    </g>
  </g>
</svg>
