<?xml version="1.0" encoding="UTF-8" standalone="no"?>
<!-- Created with Inkscape (http://www.inkscape.org/) -->

<svg
   xmlns:dc="http://purl.org/dc/elements/1.1/"
   xmlns:cc="http://creativecommons.org/ns#"
   xmlns:rdf="http://www.w3.org/1999/02/22-rdf-syntax-ns#"
   xmlns:svg="http://www.w3.org/2000/svg"
   xmlns="http://www.w3.org/2000/svg"
   xmlns:sodipodi="http://sodipodi.sourceforge.net/DTD/sodipodi-0.dtd"
   xmlns:inkscape="http://www.inkscape.org/namespaces/inkscape"
   width="200"
   height="200"
   viewBox="0 0 52.916666 52.916668"
   version="1.1"
   id="svg8"
   inkscape:version="0.92.1 r15371"
   sodipodi:docname="cara6.svg">
  <defs
     id="defs2">
    <clipPath
       clipPathUnits="userSpaceOnUse"
       id="clipPath6802">
      <g
         inkscape:label="Clip"
         id="use6804">
        <rect
           y="817.21985"
           x="30.578131"
           height="430.9921"
           width="1494.3568"
           id="rect12595"
           style="opacity:1;vector-effect:none;fill:#ffffff;fill-opacity:1;stroke:none;stroke-width:2.81672454;stroke-linecap:butt;stroke-linejoin:miter;stroke-miterlimit:4;stroke-dasharray:none;stroke-dashoffset:0;stroke-opacity:0.48743723;paint-order:normal" />
        <rect
           y="529.67999"
           x="-1147.442"
           height="430.9921"
           width="1494.3568"
           id="rect12597"
           style="opacity:1;vector-effect:none;fill:#ffffff;fill-opacity:1;stroke:none;stroke-width:2.81672454;stroke-linecap:butt;stroke-linejoin:miter;stroke-miterlimit:4;stroke-dasharray:none;stroke-dashoffset:0;stroke-opacity:0.48743723;paint-order:normal" />
      </g>
    </clipPath>
    <clipPath
       clipPathUnits="userSpaceOnUse"
       id="clipPath6815">
      <g
         id="use6817"
         inkscape:label="Clip">
        <rect
           style="opacity:1;vector-effect:none;fill:#ffffff;fill-opacity:1;stroke:none;stroke-width:2.81672454;stroke-linecap:butt;stroke-linejoin:miter;stroke-miterlimit:4;stroke-dasharray:none;stroke-dashoffset:0;stroke-opacity:0.48743723;paint-order:normal"
           id="rect12583"
           width="1494.3568"
           height="430.9921"
           x="1031.8348"
           y="486.918" />
        <g
           id="g12591"
           clip-path="url(#clipPath6802)">
          <g
             inkscape:label="Clip"
             id="g12589">
            <rect
               y="817.21985"
               x="30.578131"
               height="430.9921"
               width="1494.3568"
               id="rect12585"
               style="opacity:1;vector-effect:none;fill:#ffffff;fill-opacity:1;stroke:none;stroke-width:2.81672454;stroke-linecap:butt;stroke-linejoin:miter;stroke-miterlimit:4;stroke-dasharray:none;stroke-dashoffset:0;stroke-opacity:0.48743723;paint-order:normal" />
            <rect
               y="529.67999"
               x="-1147.442"
               height="430.9921"
               width="1494.3568"
               id="rect12587"
               style="opacity:1;vector-effect:none;fill:#ffffff;fill-opacity:1;stroke:none;stroke-width:2.81672454;stroke-linecap:butt;stroke-linejoin:miter;stroke-miterlimit:4;stroke-dasharray:none;stroke-dashoffset:0;stroke-opacity:0.48743723;paint-order:normal" />
          </g>
        </g>
      </g>
    </clipPath>
    <clipPath
       clipPathUnits="userSpaceOnUse"
       id="clipPath12623">
      <rect
         style="opacity:1;vector-effect:none;fill:#ffffff;fill-opacity:1;stroke:none;stroke-width:3.11010909;stroke-linecap:butt;stroke-linejoin:miter;stroke-miterlimit:4;stroke-dasharray:none;stroke-dashoffset:0;stroke-opacity:0.48743723;paint-order:normal"
         id="rect12625"
         width="684.04071"
         height="159.69821"
         x="-1028.1637"
         y="657.59601"
         transform="scale(-1,1)" />
    </clipPath>
    <clipPath
       clipPathUnits="userSpaceOnUse"
       id="clipPath12627">
      <rect
         style="opacity:1;vector-effect:none;fill:#ffffff;fill-opacity:1;stroke:none;stroke-width:3.11010909;stroke-linecap:butt;stroke-linejoin:miter;stroke-miterlimit:4;stroke-dasharray:none;stroke-dashoffset:0;stroke-opacity:0.48743723;paint-order:normal"
         id="rect12629"
         width="684.04071"
         height="159.69821"
         x="-1028.1637"
         y="657.59601"
         transform="scale(-1,1)" />
    </clipPath>
    <clipPath
       clipPathUnits="userSpaceOnUse"
       id="clipPath12631">
      <rect
         style="opacity:1;vector-effect:none;fill:#ffffff;fill-opacity:1;stroke:none;stroke-width:3.11010909;stroke-linecap:butt;stroke-linejoin:miter;stroke-miterlimit:4;stroke-dasharray:none;stroke-dashoffset:0;stroke-opacity:0.48743723;paint-order:normal"
         id="rect12633"
         width="684.04071"
         height="159.69821"
         x="-1028.1637"
         y="657.59601"
         transform="scale(-1,1)" />
    </clipPath>
  </defs>
  <sodipodi:namedview
     id="base"
     pagecolor="#ffffff"
     bordercolor="#666666"
     borderopacity="1.0"
     inkscape:pageopacity="0.0"
     inkscape:pageshadow="2"
     inkscape:zoom="2.8"
     inkscape:cx="66.031386"
     inkscape:cy="107.99135"
     inkscape:document-units="mm"
     inkscape:current-layer="layer1"
     showgrid="false"
     inkscape:window-width="1920"
     inkscape:window-height="1017"
     inkscape:window-x="-8"
     inkscape:window-y="-8"
     inkscape:window-maximized="1"
     units="px" />
  <metadata
     id="metadata5">
    <rdf:RDF>
      <cc:Work
         rdf:about="">
        <dc:format>image/svg+xml</dc:format>
        <dc:type
           rdf:resource="http://purl.org/dc/dcmitype/StillImage" />
        <dc:title />
      </cc:Work>
    </rdf:RDF>
  </metadata>
  <g
     inkscape:label="Capa 1"
     inkscape:groupmode="layer"
     id="layer1"
     transform="translate(0,-244.08332)">
    <g
       id="g6035"
       transform="matrix(0.26458333,0,0,0.26458333,5.8302828,257.04791)"
       style="fill:#343434;fill-opacity:0.84422112">
      <g
         id="g6762"
         transform="matrix(0.13418166,0,0,0.13418166,-15.532137,-12.951636)">
        <g
           id="g12712"
           transform="matrix(5.123637,0,0,5.123637,23.129199,91.207051)">
          <path
             id="path12641"
             d="m 162.06443,47.99118 c 2.23657,0.112391 4.51811,0.0562 6.72096,0.561954 0.56196,1.865686 0.88789,3.787568 1.32622,5.686972 1.24753,0.01124 2.49507,0.03372 3.75385,0.0562 0,0.651866 -0.0112,1.966838 -0.0112,2.629943 -4.25961,0.213543 -8.53046,-0.168586 -12.50909,-1.775773 0.17982,-2.393923 0.37089,-4.787846 0.7193,-7.159291 z"
             inkscape:connector-curvature="0"
             style="opacity:1;fill:#030303;stroke-width:1.12390745" />
          <path
             id="path12643"
             d="m 79.254924,62.152414 c 1.123907,-1.494797 2.202858,-3.012072 3.27057,-4.540586 3.349244,0.685583 6.720967,1.292494 10.058972,2.045511 -0.03372,3.315527 0.202303,6.653533 -0.258499,9.935342 l -2.146663,0.876648 c -0.134869,-1.809491 -0.236021,-3.618982 -0.348411,-5.439712 -0.584432,1.078951 -1.180103,2.157902 -1.775774,3.236853 -2.438879,0 -4.877759,0.112391 -7.316638,-0.123629 -2.011794,-1.270016 -1.067712,-4.001111 -1.483557,-5.990427 z"
             inkscape:connector-curvature="0"
             style="opacity:1;fill:#030303;stroke-width:1.12390745" />
          <path
             id="path12645"
             d="m 171.88738,73.582553 c 4.59678,-0.37089 9.2048,-0.03372 13.81282,-0.146108 0.41585,0.472041 1.24754,1.416123 1.67462,1.888164 -0.32593,0.629388 -0.95532,1.876926 -1.28125,2.506314 -3.83253,-0.01124 -7.67629,-0.01124 -11.50881,0 -0.95532,0.921604 -1.53976,2.618704 -3.13571,2.472596 -6.83335,0.24726 -13.22839,2.742334 -19.80324,4.293327 -5.29361,2.05675 -11.07049,0.325933 -16.47649,1.708339 -4.02359,0.955321 -7.97974,2.18038 -12.11572,2.607465 -3.82128,0.24726 -7.37283,1.854447 -11.17164,2.146663 -4.92271,0.516998 -9.58693,2.382684 -14.509649,2.888443 -3.439156,0.60691 -6.945748,0.314694 -10.396143,0.708061 -3.326766,0.910365 -6.574859,2.180381 -10.036494,2.495075 -0.955321,-0.674345 -1.831969,-1.427363 -2.652421,-2.270293 0.96656,-1.000278 1.921881,-1.989316 2.877203,-2.978355 1.640905,-0.0562 3.27057,-0.112391 4.911475,-0.191064 1.225059,-0.618149 2.393923,-1.629666 3.855003,-1.573471 6.484946,-0.258498 13.003609,-0.73054 19.286256,-2.461357 6.15901,-0.674344 12.04829,-2.686139 18.21854,-3.270571 4.5743,-0.528236 8.86763,-2.348966 13.45317,-2.843485 3.86624,-0.550715 7.90107,0.269737 11.66616,-0.9778 4.06855,-1.21382 8.38435,-1.618427 12.29555,-3.360483 2.70861,-1.292494 5.73193,-1.157625 8.65409,-1.191342 0.74177,-0.865409 1.53975,-1.685861 2.38268,-2.450118 z"
             inkscape:connector-curvature="0"
             style="opacity:1;fill:#030303;stroke-width:1.12390745" />
          <path
             id="path12647"
             d="m 143.12659,92.520393 c 1.44984,-1.078951 3.19189,-1.528514 4.94519,-1.876925 -0.48328,1.562231 -0.9778,3.113223 -1.48356,4.664216 -3.73137,-0.07867 -7.53018,-0.157347 -11.12668,0.989038 -3.74261,1.157625 -7.68753,0.719301 -11.54253,0.741779 0.0674,-0.820452 0.12363,-1.652144 0.19106,-2.472596 6.47371,0.35965 12.52033,-2.562509 19.01652,-2.045512 z"
             inkscape:connector-curvature="0"
             style="opacity:1;fill:#030303;stroke-width:1.12390745" />
        </g>
      </g>
    </g>
    <g
       inkscape:groupmode="layer"
       id="layer2"
       inkscape:label="fondo"
       style="display:none"
       sodipodi:insensitive="true">
      <rect
         style="opacity:1;vector-effect:none;fill:#343434;fill-opacity:0;stroke:#000000;stroke-width:0.02432241;stroke-linecap:butt;stroke-linejoin:miter;stroke-miterlimit:4;stroke-dasharray:none;stroke-dashoffset:0;stroke-opacity:0.48743723;paint-order:normal"
         id="rect6037"
         width="24.322405"
         height="24.322405"
         x="13.941643"
         y="258.39938" />
    </g>
  </g>
</svg>
