<?xml version="1.0" encoding="UTF-8" standalone="no"?>
<!-- Created with Inkscape (http://www.inkscape.org/) -->

<svg
   xmlns:dc="http://purl.org/dc/elements/1.1/"
   xmlns:cc="http://creativecommons.org/ns#"
   xmlns:rdf="http://www.w3.org/1999/02/22-rdf-syntax-ns#"
   xmlns:svg="http://www.w3.org/2000/svg"
   xmlns="http://www.w3.org/2000/svg"
   xmlns:sodipodi="http://sodipodi.sourceforge.net/DTD/sodipodi-0.dtd"
   xmlns:inkscape="http://www.inkscape.org/namespaces/inkscape"
   width="200"
   height="200"
   viewBox="0 0 52.916666 52.916668"
   version="1.1"
   id="svg8"
   inkscape:version="0.92.1 r15371"
   sodipodi:docname="cara9.svg">
  <defs
     id="defs2">
    <clipPath
       clipPathUnits="userSpaceOnUse"
       id="clipPath6802">
      <g
         inkscape:label="Clip"
         id="use6804">
        <rect
           y="817.21985"
           x="30.578131"
           height="430.9921"
           width="1494.3568"
           id="rect12595"
           style="opacity:1;vector-effect:none;fill:#ffffff;fill-opacity:1;stroke:none;stroke-width:2.81672454;stroke-linecap:butt;stroke-linejoin:miter;stroke-miterlimit:4;stroke-dasharray:none;stroke-dashoffset:0;stroke-opacity:0.48743723;paint-order:normal" />
        <rect
           y="529.67999"
           x="-1147.442"
           height="430.9921"
           width="1494.3568"
           id="rect12597"
           style="opacity:1;vector-effect:none;fill:#ffffff;fill-opacity:1;stroke:none;stroke-width:2.81672454;stroke-linecap:butt;stroke-linejoin:miter;stroke-miterlimit:4;stroke-dasharray:none;stroke-dashoffset:0;stroke-opacity:0.48743723;paint-order:normal" />
      </g>
    </clipPath>
    <clipPath
       clipPathUnits="userSpaceOnUse"
       id="clipPath6815">
      <g
         id="use6817"
         inkscape:label="Clip">
        <rect
           style="opacity:1;vector-effect:none;fill:#ffffff;fill-opacity:1;stroke:none;stroke-width:2.81672454;stroke-linecap:butt;stroke-linejoin:miter;stroke-miterlimit:4;stroke-dasharray:none;stroke-dashoffset:0;stroke-opacity:0.48743723;paint-order:normal"
           id="rect12583"
           width="1494.3568"
           height="430.9921"
           x="1031.8348"
           y="486.918" />
        <g
           id="g12591"
           clip-path="url(#clipPath6802)">
          <g
             inkscape:label="Clip"
             id="g12589">
            <rect
               y="817.21985"
               x="30.578131"
               height="430.9921"
               width="1494.3568"
               id="rect12585"
               style="opacity:1;vector-effect:none;fill:#ffffff;fill-opacity:1;stroke:none;stroke-width:2.81672454;stroke-linecap:butt;stroke-linejoin:miter;stroke-miterlimit:4;stroke-dasharray:none;stroke-dashoffset:0;stroke-opacity:0.48743723;paint-order:normal" />
            <rect
               y="529.67999"
               x="-1147.442"
               height="430.9921"
               width="1494.3568"
               id="rect12587"
               style="opacity:1;vector-effect:none;fill:#ffffff;fill-opacity:1;stroke:none;stroke-width:2.81672454;stroke-linecap:butt;stroke-linejoin:miter;stroke-miterlimit:4;stroke-dasharray:none;stroke-dashoffset:0;stroke-opacity:0.48743723;paint-order:normal" />
          </g>
        </g>
      </g>
    </clipPath>
    <clipPath
       clipPathUnits="userSpaceOnUse"
       id="clipPath12623">
      <rect
         style="opacity:1;vector-effect:none;fill:#ffffff;fill-opacity:1;stroke:none;stroke-width:3.11010909;stroke-linecap:butt;stroke-linejoin:miter;stroke-miterlimit:4;stroke-dasharray:none;stroke-dashoffset:0;stroke-opacity:0.48743723;paint-order:normal"
         id="rect12625"
         width="684.04071"
         height="159.69821"
         x="-1028.1637"
         y="657.59601"
         transform="scale(-1,1)" />
    </clipPath>
    <clipPath
       clipPathUnits="userSpaceOnUse"
       id="clipPath12627">
      <rect
         style="opacity:1;vector-effect:none;fill:#ffffff;fill-opacity:1;stroke:none;stroke-width:3.11010909;stroke-linecap:butt;stroke-linejoin:miter;stroke-miterlimit:4;stroke-dasharray:none;stroke-dashoffset:0;stroke-opacity:0.48743723;paint-order:normal"
         id="rect12629"
         width="684.04071"
         height="159.69821"
         x="-1028.1637"
         y="657.59601"
         transform="scale(-1,1)" />
    </clipPath>
    <clipPath
       clipPathUnits="userSpaceOnUse"
       id="clipPath12631">
      <rect
         style="opacity:1;vector-effect:none;fill:#ffffff;fill-opacity:1;stroke:none;stroke-width:3.11010909;stroke-linecap:butt;stroke-linejoin:miter;stroke-miterlimit:4;stroke-dasharray:none;stroke-dashoffset:0;stroke-opacity:0.48743723;paint-order:normal"
         id="rect12633"
         width="684.04071"
         height="159.69821"
         x="-1028.1637"
         y="657.59601"
         transform="scale(-1,1)" />
    </clipPath>
    <clipPath
       clipPathUnits="userSpaceOnUse"
       id="clipPath12781">
      <path
         style="fill:none;stroke:#000000;stroke-width:6.04496717px;stroke-linecap:butt;stroke-linejoin:miter;stroke-opacity:1"
         d="m 663.64542,303.92944 c -0.38143,0.50886 -0.69517,1.07681 -1.14491,1.52658 -0.2013,0.20118 -0.53559,0.21097 -0.7633,0.38168 -0.28774,0.21587 -0.47513,0.54737 -0.7633,0.7633 -0.22729,0.17065 -0.51926,0.23527 -0.7633,0.38162 -0.78663,0.47199 -1.5032,1.05461 -2.28983,1.52659 -0.24422,0.14635 -0.56218,0.1805 -0.7633,0.38168 -0.32461,0.32431 -0.43886,0.82059 -0.7633,1.14493 -1.21945,1.21942 -1.82001,1.40905 -3.05319,2.28988 -0.81909,0.58509 -1.77208,1.39427 -2.67151,1.90822 -2.23682,1.27818 -1.23106,0.27904 -3.81649,2.28989 -0.42617,0.33138 -0.69584,0.84555 -1.14492,1.14494 -0.33489,0.22312 -0.7633,0.25443 -1.14491,0.38168 -0.38144,0.25443 -0.78682,0.47676 -1.14498,0.76329 -0.56218,0.44956 -0.9646,1.07702 -1.52654,1.52658 -0.35846,0.28653 -0.75163,0.5273 -1.14497,0.76329 -0.24422,0.14635 -0.56219,0.1805 -0.7633,0.38162 -0.32462,0.32437 -0.4697,0.79258 -0.7633,1.14494 -0.34577,0.41462 -0.79939,0.73031 -1.14492,1.14494 -0.51986,0.62403 -0.78639,1.4641 -1.52659,1.90823 -0.34517,0.20697 -0.86044,0.0972 -1.14492,0.38167 -0.28472,0.28448 -0.14024,0.82312 -0.38144,1.14495 -0.17046,0.22759 -0.51926,0.23527 -0.76329,0.38167 -0.39353,0.236 -0.82061,0.43893 -1.14492,0.7633 -0.2013,0.20111 -0.25449,0.50886 -0.38144,0.76329 -0.25449,0.12724 -0.53558,0.21097 -0.7633,0.38168 -0.28713,0.21544 -1.69277,1.62096 -1.90827,1.90822 -0.17047,0.2276 -0.18075,0.56219 -0.38144,0.7633 -0.2013,0.20117 -0.56218,0.1805 -0.7633,0.38168 -0.20129,0.20111 -0.22366,0.52657 -0.38143,0.76329 -0.0997,0.14967 -0.2545,0.25443 -0.38144,0.38168 -0.30648,0.30648 -1.68782,1.57758 -1.90822,1.90822 -0.0707,0.10584 0.0707,0.27577 0,0.38168 -0.48903,0.73393 -1.41893,1.1743 -1.90821,1.90822 -0.0707,0.10585 0.0901,0.29167 0,0.38168 -0.2013,0.20112 -0.59241,0.15409 -0.7633,0.38162 -0.24119,0.32184 -0.2019,0.78511 -0.38144,1.14493 -0.0804,0.16092 -0.28169,0.23195 -0.38143,0.38162 -0.15778,0.23666 -0.21097,0.5357 -0.38144,0.76329 -0.43161,0.57572 -1.07703,0.96464 -1.52654,1.52659 -1.12539,1.40669 -0.43161,0.71914 -1.14497,1.90823 -0.23576,0.39334 -0.52713,0.75162 -0.7633,1.14494 -0.14629,0.24391 -0.21097,0.5357 -0.38144,0.76329 -0.21581,0.28786 -0.60268,0.44146 -0.7633,0.76329 -0.11364,0.2276 0.11365,0.53571 0,0.76329 -0.16079,0.32183 -0.54767,0.47544 -0.7633,0.76329 -0.93751,0.13607 -0.15837,0.81022 -0.38143,1.14494 -0.19949,0.29941 -0.60208,0.44147 -0.7633,0.7633 -0.11365,0.22759 0.0804,0.52192 0,0.76329 -0.0544,0.17065 -0.30104,0.2207 -0.38144,0.38162 -0.18014,0.3598 -0.23213,0.77141 -0.38144,1.14493 -0.10578,0.2641 -0.27625,0.49919 -0.38143,0.76329 -0.14931,0.37352 -0.20191,0.78512 -0.38144,1.14494 -0.20493,0.41027 -0.55795,0.73469 -0.7633,1.14495 -0.41408,0.82836 -0.34879,1.84315 -0.7633,2.67151 -0.16079,0.32184 -0.62964,0.42919 -0.7633,0.7633 -0.14205,0.35436 0.075,0.7707 0,1.14494 -0.0544,0.27892 -0.27625,0.49919 -0.38143,0.76329 -0.14931,0.37352 -0.23213,0.77142 -0.38144,1.14494 -0.10579,0.2641 -0.32582,0.48432 -0.38144,0.76329 -0.075,0.37424 0.075,0.77071 0,1.14494 -0.0544,0.27891 -0.27625,0.49919 -0.38143,0.76329 -1.10684,2.76716 0.0242,-0.13069 -0.38144,1.90823 -0.0786,0.39449 -0.30286,0.75046 -0.38144,1.14494 -0.0484,0.24948 0,0.50887 0,0.76329 v 1.14494 3.43482 c 0,0.50886 0.0997,1.0276 0,1.52658 -0.0792,0.39449 -0.28411,0.75466 -0.38144,1.14494 -0.0302,0.12344 0,0.25443 0,0.38162 v 1.14493 3.05318 2.67151 c 0,0.38168 -0.0544,0.76713 0,1.14495 0.0744,0.51926 0.2956,1.0092 0.38144,1.52659 0.0423,0.25098 -0.0617,0.51648 0,0.76328 0.0689,0.27595 0.32582,0.48432 0.38144,0.76329 0.075,0.37425 -0.075,0.77071 0,1.14494 0.0544,0.27892 0.31252,0.48735 0.38144,0.7633 0.0616,0.24681 0,0.50886 0,0.76329 v 2.67152 c 0,0.50887 -0.0997,1.0276 0,1.52659 0.0792,0.3945 0.30285,0.75046 0.38143,1.14493 0.0484,0.24948 -0.0617,0.51648 0,0.76329 0.0689,0.27596 0.31253,0.48735 0.38144,0.7633 0.0617,0.24681 -0.0484,0.51382 0,0.76329 0.0792,0.3945 0.30285,0.75046 0.38144,1.14494 0.0484,0.24948 0,0.50887 0,0.7633 v 1.14493 c 0,0.38162 -0.0629,0.76849 0,1.14494 0.0659,0.39679 0.28411,0.75466 0.38143,1.14494 0.0302,0.12344 0,0.25444 0,0.38162 0.12755,0.38168 0.28412,0.75466 0.38144,1.14495 0.0901,0.35919 -0.0901,0.78574 0,1.14494 0.0689,0.27595 0.32583,0.48432 0.38144,0.76329 0.075,0.37425 0,0.76329 0,1.14493 v 1.90824 c 0,0.25443 -0.0617,0.51648 0,0.76329 0.0689,0.27595 0.31252,0.48735 0.38144,0.76329 0.14991,0.60014 -0.12151,1.30059 0,1.90823 0.10276,0.51431 0.23756,1.02224 0.38143,1.52659 0.11063,0.38682 0.31555,0.74812 0.38144,1.14493 0.16745,1.00388 -0.14387,2.04568 0,3.05318 0.0423,0.28157 0.27626,0.49919 0.38144,0.76329 0.14931,0.37352 0.31555,0.74812 0.38144,1.14493 0.0629,0.37648 0,0.76329 0,1.14494 0.12694,0.38168 0.30285,0.75046 0.38143,1.14494 0.1203,0.60033 -0.1487,1.31454 0,1.90823 0.0689,0.27595 0.31253,0.48734 0.38144,0.76329 0.0617,0.24682 -0.0804,0.52192 0,0.76329 0.0544,0.17065 0.32462,0.21097 0.38144,0.38168 0.0804,0.24138 -0.0617,0.51648 0,0.7633 0.0689,0.27595 0.27565,0.49919 0.38144,0.76329 0.14931,0.37352 0.23212,0.77142 0.38143,1.14494 0.10579,0.26411 0.32583,0.48432 0.38144,0.76329 0.075,0.37424 -0.075,0.7707 0,1.14494 0.0955,0.47604 1.01646,1.65132 1.14492,1.90823 0.18014,0.3598 0.2019,0.78512 0.38144,1.14494 0.41045,0.82051 1.11632,1.46936 1.52659,2.28988 0.0544,0.11376 -0.0544,0.26785 0,0.38162 0.20493,0.41027 0.59301,0.71906 0.7633,1.14494 0.0943,0.23624 -0.13118,0.54514 0,0.7633 0.27746,0.4628 0.84551,0.69584 1.14492,1.14494 0.22306,0.33471 0.23212,0.77141 0.38143,1.14493 0.10579,0.2641 0.22367,0.52657 0.38144,0.76329 0.35303,0.52923 0.77521,1.00899 1.14492,1.52659 0.26658,0.37327 0.47695,0.78677 0.7633,1.14494 0.22487,0.28097 0.58454,0.45089 0.76329,0.76328 0.33973,0.59483 0.35243,1.36018 0.7633,1.90824 0.38144,0.50886 1.07679,0.69517 1.5266,1.14494 0.64868,0.64867 0.95347,1.57353 1.52659,2.28987 0.22488,0.28097 0.50899,0.50887 0.76324,0.7633 0.38144,0.38162 0.7633,0.76329 1.14498,1.14494 0.25449,0.25443 0.54707,0.47543 0.7633,0.76328 0.17046,0.2276 0.18074,0.56219 0.38143,0.7633 0.32462,0.32431 0.82061,0.43892 1.14498,0.76329 0.32462,0.32431 0.47695,0.78677 0.76324,1.14494 0.44974,0.56194 1.0948,0.95088 1.52659,1.52659 0.17047,0.22759 0.18075,0.56212 0.38144,0.76328 0.32401,0.32432 0.85125,0.41094 1.14492,0.76328 1.63752,3.27504 -0.24966,0.13238 1.90821,2.28989 1.52134,1.52134 -1.28304,-0.0363 1.14498,1.90822 0.31434,0.25147 0.82308,0.14024 1.14492,0.38143 0.45518,0.34154 0.36088,1.12431 0.7633,1.52654 0.20129,0.2013 0.53558,0.21097 0.76329,0.38144 2.33705,2.33704 -0.64366,-0.483 1.5266,1.14491 0.57548,0.43161 0.95087,1.09481 1.5266,1.5266 0.22729,0.17047 0.51926,0.23515 0.76323,0.38144 0.39353,0.23575 0.7633,0.50898 1.14498,0.76323 0.38144,0.2545 0.78675,0.47695 1.14492,0.7633 0.28109,0.22488 0.48239,0.53861 0.76329,0.7633 2.40723,1.92581 0.0653,-0.31615 1.90822,1.5266 0.25449,0.25449 0.50899,0.50898 0.7633,0.76329 0.25449,0.2545 0.45458,0.5779 0.7633,0.7633 0.34516,0.20674 0.79999,0.1747 1.14491,0.38144 0.3083,0.18498 0.47514,0.54767 0.7633,0.7633 0.22729,0.17047 0.53558,0.21097 0.7633,0.38144 0.28774,0.2158 0.45458,0.57789 0.7633,0.76329 0.34516,0.20674 0.77145,0.23213 1.14497,0.38144 0.26417,0.10579 0.50899,0.25449 0.76324,0.38144 0.25449,0.12694 0.56218,0.18074 0.7633,0.38144 0.2013,0.20129 0.12755,0.63605 0.38144,0.76329 0.34154,0.17047 0.79056,-0.14145 1.14491,0 0.33429,0.1336 0.47514,0.54768 0.7633,0.7633 0.22729,0.17047 0.51926,0.23515 0.7633,0.38144 0.39353,0.23575 0.7347,0.55795 1.14492,0.7633 0.35967,0.18014 0.77145,0.23212 1.14497,0.38143 0.26417,0.10579 0.50899,0.2545 0.7633,0.38144 0.25449,0.12755 0.51926,0.23515 0.7633,0.38144 0.39353,0.23575 0.70974,0.61822 1.14492,0.76324 0.36209,0.1209 0.76849,-0.0629 1.14491,0 0.50657,0.0846 2.96542,1.10737 3.05319,1.14497 0.26175,0.11184 0.48239,0.33489 0.7633,0.38144 0.50173,0.0834 1.02982,-0.11062 1.5266,0 0.66875,0.14871 1.25826,0.54647 1.90821,0.7633 2.17129,0.72376 0.83379,0.0302 2.67152,0.7633 0.26416,0.10578 0.4842,0.32582 0.76329,0.38143 0.37419,0.075 0.7685,-0.0629 1.14492,0 3.35018,0.55856 -0.58334,0.14025 1.90828,0.76324 0.24663,0.0617 0.52168,-0.0804 0.76323,0 0.17047,0.0544 0.21097,0.32462 0.38144,0.38144 0.24119,0.0804 0.50899,0 0.7633,0 h 1.14492 c 0.25449,0 0.51382,-0.0484 0.76329,0 0.39474,0.0792 0.75049,0.30285 1.14492,0.38144 0.24966,0.0484 0.51624,-0.0617 0.7633,0 0.27625,0.0689 0.4842,0.32582 0.7633,0.38143 0.62372,0.12453 1.27216,0 1.90827,0 h 3.81643 2.28989 c 0.38144,0 0.77068,0.075 1.14492,0 0.27867,-0.0544 0.49327,-0.29197 0.7633,-0.38143 0.1209,-0.0423 0.25449,0 0.38144,0 h 1.14491 c 0.2545,0 0.51624,0.0617 0.7633,0 0.7063,0.28351 0.69995,-0.65201 1.14492,-0.7633 0.37055,-0.0925 0.77472,0.0925 1.14498,0 0.1747,-0.0423 0.22064,-0.30104 0.38143,-0.38144 0.11365,-0.0544 0.27565,0.0707 0.38144,0 0.29923,-0.19948 0.44128,-0.60268 0.7633,-0.7633 0.22729,-0.11364 0.51382,0.0484 0.7633,0 1.98541,-0.39715 0.38143,-0.25449 1.90827,-0.76329 0.1209,-0.0423 0.25812,0.0302 0.38144,0 0.3905,-0.0973 0.75465,-0.28412 1.14492,-0.38144 0.34516,-0.0864 1.84135,0 2.28989,0 0.25449,0 0.52168,0.0804 0.7633,0 0.2696,-0.0901 0.48722,-0.31253 0.7633,-0.38144 0.24663,-0.0617 0.50898,0 0.76329,0 0.2545,-0.12694 0.49327,-0.29197 0.7633,-0.38144 0.1209,-0.0423 0.25449,0 0.38144,0 0.38144,0 0.77073,0.075 1.14492,0 2.76164,-0.55251 -1.74422,-0.38143 1.90827,-0.38143 h 3.81643 1.14498 c 0.25449,0 0.52168,0.0804 0.7633,0 0.17046,-0.0544 0.22064,-0.30104 0.38143,-0.38144 0.11365,-0.0544 0.2545,0 0.38144,0 0.25449,0 0.52168,0.0804 0.7633,0 0.17047,-0.0544 0.22064,-0.30104 0.38144,-0.38144 0.243,-0.1215 1.57828,0.11002 1.90821,0 2.16229,-1.08114 -0.56883,0.14206 1.5266,-0.38144 0.5519,-0.13782 0.97463,-0.62529 1.52659,-0.76329 0.24664,-0.0617 0.51624,0.0616 0.7633,0 0.55191,-0.13783 0.98684,-0.58334 1.52654,-0.7633 0.1209,-0.0423 0.26779,0.0544 0.38143,0 1.16384,-0.58213 -0.69801,-0.30225 1.14492,-0.7633 0.24663,-0.0617 0.50899,0 0.7633,0 0.12755,0 0.26779,0.0544 0.38144,0 0.16079,-0.0804 0.23212,-0.2817 0.38143,-0.38144 0.19223,-0.84085 0.78512,-0.2019 1.14492,-0.38144 0.41045,-0.20492 0.75163,-0.52712 1.14498,-0.76329 0.25449,-0.12695 0.50898,-0.2545 0.7633,-0.38144 0.12694,0 0.26779,0.0544 0.38143,0 0.41046,-0.20493 0.73471,-0.55795 1.14498,-0.7633 0.8437,-0.42194 0.87604,-0.38144 1.52654,-0.38144 0.38143,0 0.77472,0.0925 1.14497,0 0.1747,-0.0423 0.23213,-0.28169 0.38144,-0.38143 0.23696,-0.15778 0.52652,-0.22367 0.7633,-0.38144 0.14991,-0.0997 0.22064,-0.30104 0.38144,-0.38144 0.23998,-0.11969 1.28673,0.11969 1.52659,0 0.1608,-0.0804 0.22064,-0.30104 0.38144,-0.38144 0.30527,-0.15293 0.83958,0.15234 1.14492,0 0.16079,-0.0804 0.22064,-0.30104 0.38143,-0.38143 0.0985,-0.0484 2.01932,0 2.28984,0 h 0.38143 c 0.12695,0 0.2678,0.0544 0.38144,0 0.1608,-0.0804 0.22064,-0.30104 0.38144,-0.38144 0.24059,-0.1203 1.66744,0.12029 1.90821,0 0.1608,-0.0804 0.22064,-0.30104 0.38144,-0.38144 0.15112,-0.0756 1.06694,0.078 1.14498,0 0.0901,-0.0901 -0.0901,-0.29137 0,-0.38144 0.18014,-0.18014 0.53558,0.11365 0.7633,0 0.32159,-0.16079 0.44128,-0.60207 0.76329,-0.76329 0.22729,-0.11365 0.58334,0.18014 0.76324,0 0.0901,-0.0901 -0.0901,-0.29198 0,-0.38144 0.0901,-0.0901 0.29197,0.0901 0.38144,0 0.18014,-0.18014 -0.18014,-0.58334 0,-0.7633 0.0901,-0.0901 0.29137,0.0901 0.38144,0 0.18014,-0.18014 -0.18014,-0.58334 0,-0.7633 0.0901,-0.0901 0.29197,0.0901 0.38143,0 0.18014,-0.18014 -0.11364,-0.53558 0,-0.76329 0.0804,-0.1608 0.30104,-0.22065 0.38144,-0.38144 0.11365,-0.22729 -0.18014,-0.58334 0,-0.76324 0.0901,-0.0901 0.29197,0.0901 0.38144,0 0.25449,-0.25449 -0.25449,-0.50899 0,-0.7633 0.0901,-0.0901 0.29197,0.0901 0.38144,0 0.0901,-0.0901 -0.0901,-0.29197 0,-0.38144 0.0901,-0.0901 0.26779,0.0544 0.38143,0 0.1608,-0.0804 0.22064,-0.30103 0.38144,-0.38143 0.11365,-0.0544 0.29137,0.0901 0.38144,0 0.0901,-0.0901 -0.0901,-0.29197 0,-0.38144 0.0901,-0.0901 0.29137,0.0901 0.38144,0 0.0901,-0.0901 -0.0901,-0.29137 0,-0.38144 0.078,-0.078 0.99361,0.0756 1.14491,0 0.1608,-0.0804 0.22064,-0.30104 0.38144,-0.38143 0.22729,-0.11365 0.53558,0.11364 0.7633,0 0.16079,-0.0804 0.22064,-0.30104 0.38144,-0.38144 0.15112,-0.0756 1.06693,0.078 1.14497,0 0.0901,-0.0901 -0.0901,-0.29137 0,-0.38144 0.0901,-0.0901 0.29137,0.0901 0.38144,0 0.0901,-0.0901 -0.0901,-0.29137 0,-0.38144 0.19102,-0.19102 0.95414,0.19102 1.14492,0 0.0901,-0.0901 -0.0901,-0.29136 0,-0.38143 0.0919,-0.0919 1.43477,0.0919 1.52659,0 0.0901,-0.0901 -0.0901,-0.29198 0,-0.38144 3.7e-4,-3.6e-4 1.14323,6e-4 1.14498,0 0.17047,-0.0544 0.22064,-0.30104 0.38144,-0.38144 0.11364,-0.0544 0.26779,0.0544 0.38143,0 0.1608,-0.0804 0.22065,-0.30104 0.38144,-0.38144 0.34154,-0.17046 0.80356,0.17047 1.14492,0 0.11364,-0.0544 -0.0901,-0.29136 0,-0.38143 0.0901,-0.0901 0.25449,0 0.38144,0 0.27021,0 2.19118,0.0484 2.28983,0 0.1608,-0.0804 0.22064,-0.30104 0.38144,-0.38144 0.15112,-0.0756 1.06693,0.078 1.14491,0 0.0901,-0.0901 -0.0901,-0.29137 0,-0.38144 0.0901,-0.0901 0.2545,0 0.38144,0 0.27021,0 2.19118,0.0484 2.28983,0 0.1608,-0.0804 0.22065,-0.30104 0.38144,-0.38144 0.11365,-0.0544 0.2545,0 0.38144,0 0.25449,0 0.52168,0.0804 0.7633,0 0.17047,-0.0544 0.22064,-0.30104 0.38143,-0.38143 0.30528,-0.15234 0.83959,0.15233 1.14492,0 0.32159,-0.1608 0.42194,-0.64954 0.7633,-0.7633 0.1747,-0.0605 1.35673,0.0846 1.5266,0 1.16383,-0.58213 -0.69802,-0.30225 1.14491,-0.7633 0.24664,-0.0617 0.50899,0 0.7633,0 0.12694,0 0.26779,0.0544 0.38144,0 0.32159,-0.1608 0.42194,-0.64947 0.7633,-0.7633 0.24119,-0.0804 0.50898,0 0.76329,0 0.2545,-0.25449 0.45459,-0.57814 0.7633,-0.76327 0.34517,-0.20698 0.77146,-0.23224 1.14498,-0.38161 0.26416,-0.10567 0.50899,-0.25444 0.76324,-0.38168 0.76329,-0.38162 1.55815,-0.70587 2.28989,-1.14494 0.39353,-0.236 0.73471,-0.5582 1.14498,-0.7633 0.35967,-0.17989 0.76825,-0.2404 1.14491,-0.38168 0.64144,-0.24052 1.2955,-0.45693 1.90822,-0.76328 3.06377,-1.53187 -1.35335,0.0502 3.05319,-1.90823 0.47937,-0.21303 1.05745,-0.14708 1.5266,-0.38162 1.13784,-0.56896 1.91528,-1.72096 3.05313,-2.28989 0.46909,-0.2346 1.04451,-0.17506 1.52659,-0.38167 0.5906,-0.25317 2.28053,-1.68482 2.67152,-1.90823 0.3494,-0.19961 0.78512,-0.20172 1.14497,-0.38162 4.58294,-2.29148 -1.64157,0.60329 1.90822,-1.52658 0.34517,-0.20698 0.79999,-0.1747 1.14492,-0.38168 0.30829,-0.18515 0.47573,-0.54743 0.76329,-0.76329 0.2279,-0.17065 0.53559,-0.21097 0.7633,-0.38162 1.65076,-1.65073 -0.10095,-0.0598 1.5266,-1.14494 0.14991,-0.0998 0.25449,-0.25443 0.38144,-0.38162 0.38143,-0.38162 0.72352,-0.80777 1.14497,-1.14493 0.22185,-0.17772 0.53559,-0.21097 0.7633,-0.38168 0.97735,-0.73303 0.54949,-0.79355 1.52654,-1.52658 0.22729,-0.17071 0.54102,-0.20396 0.76329,-0.38162 0.42134,-0.33719 0.7633,-0.7633 1.14498,-1.14494 0.63605,-0.63608 1.2721,-1.27216 1.90822,-1.90824 0.50898,-0.50886 1.01773,-1.01772 1.52659,-1.52658 0.38144,-0.38161 0.73029,-0.79941 1.14492,-1.14494 0.35242,-0.29366 0.8206,-0.43892 1.14492,-0.76329 0.0181,-0.0157 2.65047,-3.40316 2.67157,-3.43481 0.15777,-0.23666 0.21097,-0.5357 0.38144,-0.7633 0.2158,-0.28786 0.50898,-0.50886 0.76329,-0.76329 0.12695,-0.12725 0.31495,-0.2146 0.38144,-0.38168 0.19465,-0.48698 0.18679,-1.03957 0.38144,-1.52658 0.0671,-0.16702 0.27384,-0.23768 0.38144,-0.38162 0.27504,-0.36692 0.50898,-0.76329 0.76329,-1.14494 0.2545,-0.38168 0.58274,-0.72334 0.7633,-1.14494 0.20674,-0.48208 0.2545,-1.01772 0.38144,-1.52658 0.38144,-0.89051 0.71161,-1.80496 1.14492,-2.67152 0.41045,-0.82052 1.20446,-1.43093 1.52659,-2.28988 0.2279,-0.60737 0.0913,-1.32804 0.38144,-1.90823 2.915,-5.82993 -0.538,3.85216 1.90821,-2.67152 0.18438,-0.49115 0.1469,-1.05744 0.38144,-1.52659 0.26054,-1.28727 1.72028,-1.64625 2.2899,-2.67152 0.3905,-0.70333 0.43644,-1.55465 0.76329,-2.28988 0.18619,-0.41916 0.55795,-0.73468 0.76324,-1.14494 0.30648,-0.61275 0.457,-1.29548 0.7633,-1.90823 0.20492,-0.41027 0.60208,-0.71546 0.7633,-1.14494 0.22789,-0.60737 0.15414,-1.30085 0.38143,-1.90823 0.1608,-0.42949 0.55796,-0.73468 0.7633,-1.14494 0.30648,-0.61275 0.52289,-1.26677 0.7633,-1.90823 0.42315,-1.12925 0.72147,-2.30556 1.14492,-3.43481 0.52349,-1.39666 1.11584,-2.76058 1.52659,-4.19811 0.14387,-0.50433 0.23757,-1.02225 0.38144,-1.52659 0.25208,-0.88123 0.82236,-2.32727 1.14498,-3.05316 0.23092,-0.51987 0.63986,-0.97121 0.76324,-1.52659 0.13782,-0.62093 -0.0701,-1.27605 0,-1.90823 0.11606,-1.04263 0.55734,-2.0245 0.76329,-3.05317 0.15173,-0.75879 0.19405,-1.53916 0.38144,-2.28988 0.0689,-0.27595 0.34154,-0.48166 0.38144,-0.76329 0.0901,-0.62968 -0.0635,-1.27531 0,-1.90823 0.0647,-0.64546 0.30104,-1.26457 0.38144,-1.90823 0.0484,-0.37871 0,-0.76329 0,-1.14494 v -4.57976 -3.81646 -1.14494 c 0,-0.38168 0.0544,-0.76713 0,-1.14495 -0.0744,-0.51926 -0.2545,-1.01771 -0.38144,-1.52658 -0.22548,-0.90219 -0.6664,-2.56269 -0.7633,-3.43482 -0.0544,-0.50572 0.0484,-1.02024 0,-1.52658 -0.0768,-0.76998 -0.24301,-1.52854 -0.38144,-2.28988 -0.11606,-0.6382 -0.3228,-1.26221 -0.38143,-1.90823 -0.0689,-0.76015 0.0949,-1.53248 0,-2.28987 -0.0363,-0.28224 -0.2817,-0.49696 -0.38144,-0.7633 -0.2823,-0.75335 -0.58213,-1.50589 -0.7633,-2.28987 -0.20251,-0.87652 -0.20553,-1.78945 -0.38144,-2.67153 -0.0792,-0.39449 -0.28411,-0.75466 -0.38143,-1.14493 -0.28472,-1.13785 -0.41348,-2.31534 -0.7633,-3.43482 0.16926,-1.43024 -1.13035,-2.24619 -1.5266,-3.43482 -1.43229,-4.29698 0.0242,-1.09438 -1.90821,-5.34304 -1.01121,-2.22463 -1.07105,-1.83607 -2.67152,-4.57976 -0.28653,-0.49146 -0.4576,-1.0466 -0.76329,-1.52658 -0.83367,-1.31009 -1.88906,-2.47513 -2.67152,-3.81646 -0.65993,-1.13135 -1.13784,-2.37556 -1.90821,-3.43482 -0.26961,-0.37098 -0.87519,-0.39232 -1.14498,-0.76329 -0.77037,-1.05925 -1.205,-2.32982 -1.90821,-3.43482 -0.19344,-0.30358 -0.54224,-0.47924 -0.7633,-0.76329 -0.67184,-0.86382 -1.23638,-1.8077 -1.90822,-2.67152 -0.22124,-0.28405 -0.50898,-0.50886 -0.76329,-0.76329 -1.40975,-1.40973 -2.96881,-2.64487 -4.57973,-3.81646 -0.89055,-0.63609 -1.78103,-1.27216 -2.67157,-1.90824 -0.2545,-0.25443 -0.48239,-0.53849 -0.7633,-0.76329 -1.0317,-0.82538 -4.17913,-2.43782 -4.57973,-2.67152 -1.81651,-1.05963 -0.66374,-0.7135 -3.05319,-1.90823 -0.61272,-0.30636 -1.28057,-0.48867 -1.90822,-0.7633 -1.40823,-0.61611 -2.80516,-1.25819 -4.19811,-1.90822 -0.51563,-0.24059 -1.02927,-0.48698 -1.52659,-0.7633 -0.64845,-0.36022 -1.22229,-0.8625 -1.90822,-1.14494 -12.97594,-5.34304 0.7633,0.76329 -6.86962,-2.28987 -2.56095,-1.02437 -0.49085,-0.60656 -3.43481,-1.52659 -1.38448,-0.43264 -2.80347,-0.74646 -4.19811,-1.14494 -0.38687,-0.1105 -0.78512,-0.20172 -1.14497,-0.38162 -0.41046,-0.20511 -0.70974,-0.61825 -1.14492,-0.76329 -0.36209,-0.12066 -0.7685,0.0627 -1.14492,0 -0.39715,-0.0661 -0.75961,-0.26604 -1.14497,-0.38168 -0.88704,-0.2661 -1.78442,-0.4972 -2.67152,-0.76329 -0.38506,-0.11558 -0.74812,-0.31548 -1.14491,-0.38162 -2.91144,0 0.30103,0.17065 -1.90822,-0.38162 -0.49025,-0.12259 -1.7161,0.0718 -2.28989,0 -0.76783,-0.096 -1.52207,-0.28568 -2.2899,-0.38167 -0.25268,-0.0314 -0.51624,0.0617 -0.7633,0 -0.27565,-0.069 -0.48722,-0.31265 -0.76329,-0.38162 -0.49388,-0.12344 -1.02759,0.0998 -1.5266,0 -0.39413,-0.0789 -0.75042,-0.30274 -1.14492,-0.38168 -0.24965,-0.0502 -0.50898,0 -0.76329,0 h -3.43481 -15.26584 -4.96141 -1.90821 c -0.12755,0 -0.26115,-0.0405 -0.38144,0 -0.26961,0.0899 -0.49327,0.29167 -0.7633,0.38168 -0.26235,0.0875 -0.91974,-0.11262 -1.14492,0 -1.74663,0.87333 1.61951,-0.1582 -1.14491,0.76329 -0.3216,0.10712 -1.68105,-0.11358 -1.90822,0 -0.16079,0.0804 -0.21097,0.32474 -0.38144,0.38162 -0.24119,0.0805 -0.52168,-0.0805 -0.76329,0 -0.17047,0.0568 -0.22065,0.30116 -0.38144,0.38162 -0.11365,0.0568 -0.26779,-0.0568 -0.38144,0 -0.16079,0.0805 -0.21097,0.32474 -0.38144,0.38168 -0.24119,0.0805 -0.53558,-0.11376 -0.76329,0 -0.11365,0.0568 0.11364,0.32474 0,0.38162 -0.7633,0.38168 -0.57246,-0.19084 -1.14492,0 -2.76442,0.92148 0.60147,-0.11002 -1.14498,0.76329 -0.22729,0.11377 -0.53558,-0.11376 -0.7633,0 -0.16079,0.0805 -0.22064,0.30116 -0.38143,0.38168 -0.11365,0.0568 -0.29198,-0.0899 -0.38144,0 -0.0901,0.09 0.0901,0.29167 0,0.38162 -0.0901,0.09 -0.26779,-0.0568 -0.38144,0 -0.16079,0.0805 -0.22064,0.30116 -0.38144,0.38168 -0.11364,0.0568 -0.26779,-0.0568 -0.38143,0 -0.1608,0.0805 -0.22064,0.30116 -0.38144,0.38162 -0.11365,0.0568 -0.26779,-0.0568 -0.38144,0 -0.45821,0.22898 -0.68695,0.91594 -1.14491,1.14493 -0.11365,0.0568 -0.2678,-0.0568 -0.38144,0 -0.1608,0.0805 -0.22064,0.30116 -0.38144,0.38162 -0.52652,0.2632 -0.34154,-0.4622 -0.7633,0.38168 -0.0544,0.11377 0.0901,0.29167 0,0.38162 -0.0901,0.0899 -0.26779,-0.0568 -0.38143,0 -0.1608,0.0805 -0.22065,0.30116 -0.38144,0.38162 -0.11365,0.0568 -0.26779,-0.0568 -0.38144,0 -0.32159,0.16092 -0.44128,0.60238 -0.7633,0.76329 -0.11364,0.0568 -0.29197,-0.0899 -0.38144,0 -0.0901,0.0899 0.0901,0.29167 0,0.38168 -0.0901,0.0899 -0.29136,-0.09 -0.38143,0 -0.0901,0.0899 0.0901,0.29167 0,0.38162 -0.0901,0.0899 -0.26779,-0.0568 -0.38144,0 -0.32159,0.16092 -0.44128,0.60238 -0.7633,0.76329 -0.11364,0.0568 -0.29197,-0.0899 -0.38144,0 -0.0901,0.0899 0.0901,0.29167 0,0.38168 -0.0901,0.0899 -0.29197,-0.09 -0.38143,0 -0.0901,0.0899 0.0901,0.29167 0,0.38162 -0.0901,0.0899 -0.26779,-0.0568 -0.38144,0 -0.1608,0.0804 -0.22064,0.30116 -0.38144,0.38168 -0.11364,0.0568 -0.29197,-0.0899 -0.38144,0 -0.0901,0.0899 0.0901,0.29167 0,0.38162 -0.0901,0.0899 -0.29136,-0.8532 -0.38143,-0.7633 -0.0901,0.0899 0.0901,0.29167 0,0.38168 -0.0901,0.0899 -0.2545,0 -0.38144,0 -0.12694,0 -0.29197,-0.09 -0.38144,0 -0.0901,0.0899 -0.67323,0.29167 -0.7633,0.38162 8.3744,-8.36327 0.18014,-0.1799 0,0 -0.0901,0.0899 0.0901,0.29167 0,0.38168 -0.18014,0.1799 -0.53558,-0.11376 -0.76329,0 -0.1608,0.0805 -0.22064,0.30116 -0.38144,0.38162 -0.11365,0.0568 -0.29137,-0.0899 -0.38144,0 -0.0901,0.09 0.0901,0.29167 0,0.38162 -0.0901,0.09 -0.25449,0 -0.38144,0 -0.26537,0 -1.77026,-0.069 -1.90827,0 -0.1608,0.0805 -0.22064,0.30122 -0.38144,0.38168 -0.10034,0.0502 -1.33303,-0.0484 -1.52659,0 l -3.0532,0.76329 h -3.81643 c -0.15112,0 -1.74524,-0.0815 -1.90821,0 -0.1608,0.0805 -0.22064,0.30116 -0.38144,0.38162 -0.24361,0.12193 -1.21939,-0.1024 -1.52659,0 -0.26961,0.0899 -0.49327,0.29167 -0.7633,0.38168 -0.1209,0.0405 -0.26719,-0.055 -0.38144,0 -3.32618,1.59252 -24.16814,9.62524 -2.28989,0 -0.26961,0.0899 -0.49327,0.29167 -0.7633,0.38162 -0.1209,0.0405 -0.26779,-0.0568 -0.38144,0 -0.16079,0.0805 -0.22064,0.30122 -0.38144,0.38168 -0.23998,0.11993 -1.28667,-0.11994 -1.52653,0 -0.1608,0.0805 -0.22064,0.30116 -0.38144,0.38162 -0.11364,0.0568 -0.25449,0 -0.38144,0 -0.25449,0 -0.53558,-0.11377 -0.76329,0 -0.11365,0.0568 0.0544,0.26785 0,0.38167 -0.0804,0.16092 -0.22065,0.30116 -0.38144,0.38162 -0.15113,0.0757 -1.06688,-0.078 -1.14492,0 -0.0901,0.0899 0,0.25444 0,0.38168 -0.25449,0 -0.53558,-0.11376 -0.7633,0 -0.11364,0.0568 0.0901,0.29167 0,0.38162 -0.18014,0.1799 -0.58334,-0.1799 -0.76329,0 -0.0901,0.0899 0,0.25443 0,0.38168 -0.2545,0.12725 -0.49327,0.29167 -0.7633,0.38162 -0.2412,0.0805 -0.53559,-0.11377 -0.7633,0 -0.1608,0.0805 -0.22064,0.30116 -0.38144,0.38168 -0.11364,0.0568 -0.26114,-0.0405 -0.38144,0 -0.2696,0.0899 -0.50898,0.25443 -0.76323,0.38162 -0.2545,0.12724 -0.52652,0.22384 -0.7633,0.38162 -0.14992,0.0998 -0.22064,0.30122 -0.38144,0.38168 -0.11364,0.0568 -0.26114,-0.0405 -0.38144,0 -0.27021,0.09 -0.49326,0.29166 -0.76329,0.38161 -0.1209,0.0405 -0.26115,-0.0405 -0.38144,0 -0.26961,0.09 -0.49327,0.29167 -0.7633,0.38168 -0.1209,0.0405 -0.25449,0 -0.38144,0 -0.25449,0.12719 -0.49327,0.29167 -0.76329,0.38162 -0.1209,0.0405 -0.26115,-0.0405 -0.38144,0 -0.53982,0.1799 -0.9869,0.5834 -1.5266,0.76329 -0.24119,0.0805 -0.52168,-0.0805 -0.7633,0 -1.5139,0.50463 -0.0121,0.25866 -1.52659,0.76329 -0.1209,0.0405 -0.25449,0 -0.38144,0 -0.34638,0 -2.42379,-0.0826 -2.67151,0 -0.17047,0.0568 -0.21097,0.32474 -0.38144,0.38168 -0.24119,0.0805 -0.50899,0 -0.7633,0 -0.12694,0 -0.26779,-0.0568 -0.38143,0 -0.1608,0.0805 -0.21097,0.32473 -0.38144,0.38162 -0.2412,0.0805 -0.50899,0 -0.7633,0 h -1.52654 c -0.25449,0 -0.51624,-0.0617 -0.76329,0 -0.27626,0.069 -0.48723,0.31264 -0.7633,0.38168 -0.24664,0.0617 -0.52168,-0.0805 -0.7633,0 -0.17047,0.0568 -0.21097,0.32473 -0.38144,0.38162 -0.24119,0.0805 -0.50898,0 -0.76329,0 h -2.28984 -2.67151 c -0.35121,0 -0.8015,0.0687 -1.14498,0 -0.51443,-0.10289 -1.01773,-0.25444 -1.52659,-0.38162 z"
         id="path12783"
         inkscape:connector-curvature="0"
         sodipodi:nodetypes="ccccccccccccccccccccccccccccccccccccccccccccccccccccccccccccccccscsccsccsccccccssccccccssccccccssccccccccccccccccccccccccccccccccccccccccccccccccccccccccccccccccccccccccccccccccccccssccccscsccssccccccccccsccccscscsccscccccsccsscccccccsccccccccssccccccccccccccccccccccccccccccccccccccccccccccsccccsccscccccssccccccccccccccccccccccccccccccccccccccccccccccccccccccccccccccccsccsccccccccccccccccccccccccccccccccccccccccccccccccscccsccccccccccccccccccccccccccccccccccccccccccccccccsccccccccsccscsccccsccccccsccccccccccccccccccccccccccsccsccssccccscsccc" />
    </clipPath>
  </defs>
  <sodipodi:namedview
     id="base"
     pagecolor="#ffffff"
     bordercolor="#666666"
     borderopacity="1.0"
     inkscape:pageopacity="0.0"
     inkscape:pageshadow="2"
     inkscape:zoom="5.6"
     inkscape:cx="74.296444"
     inkscape:cy="86.981993"
     inkscape:document-units="mm"
     inkscape:current-layer="g13082"
     showgrid="false"
     inkscape:window-width="1920"
     inkscape:window-height="1017"
     inkscape:window-x="-8"
     inkscape:window-y="-8"
     inkscape:window-maximized="1"
     units="px" />
  <metadata
     id="metadata5">
    <rdf:RDF>
      <cc:Work
         rdf:about="">
        <dc:format>image/svg+xml</dc:format>
        <dc:type
           rdf:resource="http://purl.org/dc/dcmitype/StillImage" />
        <dc:title />
      </cc:Work>
    </rdf:RDF>
  </metadata>
  <g
     inkscape:label="Capa 1"
     inkscape:groupmode="layer"
     id="layer1"
     transform="translate(0,-244.08332)">
    <g
       id="g6035"
       transform="matrix(0.26458333,0,0,0.26458333,5.8302828,257.04791)"
       style="fill:#343434;fill-opacity:0.84422112">
      <g
         id="g6762"
         transform="matrix(0.13418166,0,0,0.13418166,-15.532137,-12.951636)">
        <g
           id="g12712"
           transform="matrix(5.123637,0,0,5.123637,23.129199,91.207051)">
          <g
             id="g12767"
             transform="matrix(0.24062157,0,0,0.24062157,-2.8533173,-35.203766)">
            <g
               id="g13030"
               transform="matrix(2.0099958,0,0,2.0099958,152.90446,-155.81566)">
              <g
                 id="#010101ff">
                <g
                   id="g13082"
                   transform="matrix(0.32819964,0,0,0.32819964,51.887201,156.00048)">
                  <path
                     id="path13042"
                     d="m 286.51,243.76 c 14.9,-1.56 30.58,-0.3 44.09,6.66 6.12,3.24 11.12,8.2 15.31,13.65 6.24,8 12.65,16.11 21.13,21.87 8.53,6.13 19.01,9.07 27.03,15.98 6.93,5.84 11.08,14.14 14.74,22.27 9.44,21.96 12.73,46.04 13.16,69.79 -0.05,15.51 -1.18,31.09 -4.45,46.28 -2.05,9.51 -4.8,19.02 -9.82,27.43 -9.14,15.71 -23.14,27.98 -38.26,37.76 -16.67,10.5 -35.05,18.34 -54.22,22.88 -15.81,3.88 -32.38,4.86 -48.46,2.13 -23.03,-3.68 -45.02,-12.42 -65.22,-23.94 -17.45,-10.18 -33.89,-22.55 -46.95,-38.07 -7.62,-9.07 -13.96,-19.41 -17.31,-30.83 -7.96,-25.47 -7.85,-53.42 0.47,-78.79 8.89,-27.9 26.55,-52.43 48.24,-71.85 20.63,-18.26 45.26,-32.61 72.24,-38.89 9.34,-1.88 18.8,-3.24 28.28,-4.33 m -65.92,38.85 c -26.79,19.71 -45.84,47.77 -62.18,76.3 38.5,2.38 77.01,4.79 115.58,5.83 41.39,0.72 83.06,0.75 124.05,-5.79 -11.15,-17.45 -11.95,-39.83 -25.26,-56.09 -9.52,-0.34 -19.21,-2.8 -26.82,-8.76 -10.79,-8.35 -17.02,-20.79 -24.2,-32.07 -10.44,-2.11 -21.1,-3.25 -31.76,-3.04 -24.91,0.13 -49.46,8.79 -69.41,23.62 m 34.7,101.65 c -1.51,12.21 -9.25,23.06 -19.65,29.41 -15.66,9.66 -35.28,12.05 -53.09,7.97 -11.19,-2.37 -21.47,-8.35 -29.1,-16.87 2.36,26.58 15.56,51.7 35.46,69.35 31.44,27.98 75.61,39.63 117.02,34.51 19.59,-2.53 38.89,-9.15 55.06,-20.67 15.37,-10.86 27.54,-26.22 34.39,-43.76 7.61,-18.93 9.38,-39.76 7.75,-59.96 -49.28,0.04 -98.56,-0.01 -147.84,0.02 z"
                     inkscape:connector-curvature="0"
                     style="opacity:1;fill:#000000" />
                  <path
                     id="path13044"
                     d="m 769.31,251.69 c 5.12,1.55 9.91,4.74 12.45,9.57 4.43,8.09 4.11,17.75 3.04,26.64 -4.99,0.62 -11.25,-0.01 -13.57,-5.23 -4.06,-9.82 -1.28,-20.7 -1.92,-30.98 z"
                     inkscape:connector-curvature="0"
                     style="opacity:1;fill:#000000" />
                  <path
                     id="path13046"
                     d="m 220.59,282.61 c 19.95,-14.83 44.5,-23.49 69.41,-23.62 10.66,-0.21 21.32,0.93 31.76,3.04 7.18,11.28 13.41,23.72 24.2,32.07 7.61,5.96 17.3,8.42 26.82,8.76 13.31,16.26 14.11,38.64 25.26,56.09 -40.99,6.54 -82.66,6.51 -124.05,5.79 -38.57,-1.04 -77.08,-3.45 -115.58,-5.83 16.34,-28.53 35.39,-56.59 62.18,-76.3 z"
                     inkscape:connector-curvature="0"
                     style="opacity:1;fill:#ffffff;fill-opacity:0.18090452" />
                  <path
                     id="path13048"
                     d="m 668.52,260.8 c 16.15,-0.98 32.73,-1.16 48.42,3.33 7.36,1.95 13.26,7.34 17.27,13.65 9.08,14.17 12.42,31.02 20.33,45.76 8.11,14.95 18.34,28.66 26.04,43.84 2.34,4.56 4.36,9.43 4.61,14.62 1.72,20.28 -3.41,40.51 -11.13,59.13 -7.19,16.99 -16.77,33.04 -28.95,46.93 -6.13,6.6 -12.56,13.06 -20.25,17.84 -15.6,9.67 -33.67,14.76 -51.81,16.78 -24.14,2.66 -48.68,0.33 -72.17,-5.64 -20.59,-5.35 -40.59,-13.61 -58.14,-25.72 -14.08,-9.79 -26.79,-22.48 -33.59,-38.46 -5.18,-11.8 -5.89,-25.23 -3.11,-37.73 3.64,-17.02 11.52,-32.79 20.5,-47.57 10.47,-17.07 22.82,-32.93 36.22,-47.79 12.37,-13.65 25.69,-26.48 40.27,-37.76 6.9,-5.28 14.1,-10.25 21.92,-14.09 7.14,-3.56 15.24,-4.15 23.05,-4.93 6.87,-0.49 13.65,-1.74 20.52,-2.19 m -34.8,25.95 c -18.42,8.21 -33.98,21.72 -47.02,36.92 -11.91,14.07 -22.09,29.53 -31.22,45.51 66.34,0.03 132.53,-8.74 198.91,-5.16 -5.32,-20.31 -22.79,-34.26 -29.79,-53.78 -0.58,-0.91 -0.6,-2.71 -1.97,-2.74 -11.43,-2.45 -21.6,4.94 -32.61,6.23 -4.9,0.67 -9.28,-2.2 -12.23,-5.84 0.89,-3.37 2.29,-6.74 5.13,-8.94 9.24,-7.47 23.8,-5.84 30.97,-16.33 -26.13,-7.57 -55.16,-7.25 -80.17,4.13 m 24.36,97.8 c -16.83,2.3 -34.28,6.03 -48.21,16.31 -3.45,2.35 -5.88,5.79 -8.88,8.6 -16.33,0.09 -32.67,0.02 -49,0.03 -2.82,0.27 -4.97,-2.4 -5.73,-4.84 -1.29,-5.08 3.85,-9.38 2.76,-14.4 -2.5,-1.92 -5.86,-1.13 -8.75,-1.05 -9.1,12.61 -16.27,27.81 -14.79,43.72 1.15,14.59 10.12,27.34 21.14,36.44 16.02,13.18 35.73,20.98 55.6,26.26 27.84,7.09 56.99,9.21 85.54,5.92 11.15,-1.21 21.4,-6.75 29.72,-14.08 11.53,-10.2 20.04,-23.28 27.26,-36.75 10.27,-19.63 17.95,-40.5 24.78,-61.54 -36.79,-5.65 -74.33,-8.96 -111.44,-4.62 z"
                     inkscape:connector-curvature="0"
                     style="opacity:1;fill:#000000" />
                  <path
                     id="path13050"
                     d="m 633.72,286.75 c 25.01,-11.38 54.04,-11.7 80.17,-4.13 -7.17,10.49 -21.73,8.86 -30.97,16.33 -2.84,2.2 -4.24,5.57 -5.13,8.94 2.95,3.64 7.33,6.51 12.23,5.84 11.01,-1.29 21.18,-8.68 32.61,-6.23 1.37,0.03 1.39,1.83 1.97,2.74 7,19.52 24.47,33.47 29.79,53.78 -66.38,-3.58 -132.57,5.19 -198.91,5.16 9.13,-15.98 19.31,-31.44 31.22,-45.51 13.04,-15.2 28.6,-28.71 47.02,-36.92 z"
                     inkscape:connector-curvature="0"
                     style="opacity:1;fill:#ffffff;fill-opacity:0.19597989" />
                  <path
                     id="path13056"
                     d="m 239.25,671.14 c 47.94,-15.3 98.85,-16.76 148.75,-16.4 42.47,0.7 84.89,4 127.01,9.46 20.78,2.69 41.47,6.07 62.01,10.21 9.9,0.84 19.92,-2.07 29.77,0.04 3.3,0.75 6.49,2.56 8.28,5.53 1.75,2.95 1.83,6.48 1.97,9.82 -37.34,3.11 -74.82,0.39 -112.06,-2.72 -49.58,-4.3 -99.16,-9.98 -148.99,-9.83 -20.72,0.45 -41.54,1.17 -61.98,4.89 -24.22,4.5 -47.42,13.19 -69.96,22.93 -24.57,10.24 -48.97,22.63 -75.8,25.47 4.81,-12.52 15.31,-21.7 25.96,-29.3 19.79,-13.61 42.26,-22.78 65.04,-30.1 z"
                     inkscape:connector-curvature="0"
                     style="opacity:1;fill:#000000" />
                </g>
              </g>
            </g>
          </g>
        </g>
      </g>
    </g>
    <g
       inkscape:groupmode="layer"
       id="layer2"
       inkscape:label="fondo"
       style="display:none"
       sodipodi:insensitive="true">
      <rect
         style="opacity:1;vector-effect:none;fill:#343434;fill-opacity:0;stroke:#000000;stroke-width:0.02432241;stroke-linecap:butt;stroke-linejoin:miter;stroke-miterlimit:4;stroke-dasharray:none;stroke-dashoffset:0;stroke-opacity:0.48743723;paint-order:normal"
         id="rect6037"
         width="24.322405"
         height="24.322405"
         x="13.941643"
         y="258.39938" />
    </g>
  </g>
</svg>
